  0
SECTION
  2
HEADER
  9
$ACADVER
  1
AC1015
  9
$ACADMAINTVER
 70
     6
  9
$DWGCODEPAGE
  3
ANSI_1252
  9
$INSBASE
 10
0.0
 20
0.0
 30
0.0
  9
$EXTMIN
 10
0.0
 20
0.0
 30
0.0
  9
$EXTMAX
 10
420.0
 20
594.0
 30
0.0
  9
$LIMMIN
 10
0.0
 20
0.0
  9
$LIMMAX
 10
420.0
 20
594.0
  9
$ORTHOMODE
 70
     0
  9
$REGENMODE
 70
     1
  9
$FILLMODE
 70
     1
  9
$QTEXTMODE
 70
     0
  9
$MIRRTEXT
 70
     1
  9
$LTSCALE
 40
1.0
  9
$ATTMODE
 70
     1
  9
$TEXTSIZE
 40
3.5
  9
$TRACEWID
 40
1.0
  9
$TEXTSTYLE
  7
Standard
  9
$CLAYER
  8
0
  9
$CELTYPE
  6
ByLayer
  9
$CECOLOR
 62
   256
  9
$CELTSCALE
 40
1.0
  9
$DISPSILH
 70
     0
  9
$DIMSCALE
 40
1.0
  9
$DIMASZ
 40
3.302
  9
$DIMEXO
 40
1.0
  9
$DIMDLI
 40
3.75
  9
$DIMRND
 40
0.0
  9
$DIMDLE
 40
0.0
  9
$DIMEXE
 40
1.0
  9
$DIMTP
 40
0.0
  9
$DIMTM
 40
0.0
  9
$DIMTXT
 40
3.5
  9
$DIMCEN
 40
2.5
  9
$DIMTSZ
 40
0.0
  9
$DIMTOL
 70
     0
  9
$DIMLIM
 70
     0
  9
$DIMTIH
 70
     1
  9
$DIMTOH
 70
     1
  9
$DIMSE1
 70
     0
  9
$DIMSE2
 70
     0
  9
$DIMTAD
 70
     1
  9
$DIMZIN
 70
     0
  9
$DIMBLK
  1

  9
$DIMASO
 70
     1
  9
$DIMSHO
 70
     1
  9
$DIMPOST
  1

  9
$DIMAPOST
  1

  9
$DIMALT
 70
     0
  9
$DIMALTD
 70
     3
  9
$DIMALTF
 40
0.0393700787
  9
$DIMLFAC
 40
1.0
  9
$DIMTOFL
 70
     1
  9
$DIMTVP
 40
0.0
  9
$DIMTIX
 70
     0
  9
$DIMSOXD
 70
     0
  9
$DIMSAH
 70
     0
  9
$DIMBLK1
  1

  9
$DIMBLK2
  1

  9
$DIMSTYLE
  2
ISO-25
  9
$DIMCLRD
 70
     0
  9
$DIMCLRE
 70
     0
  9
$DIMCLRT
 70
     0
  9
$DIMTFAC
 40
1.0
  9
$DIMGAP
 40
1.524
  9
$DIMJUST
 70
     0
  9
$DIMSD1
 70
     0
  9
$DIMSD2
 70
     0
  9
$DIMTOLJ
 70
     0
  9
$DIMTZIN
 70
     0
  9
$DIMALTZ
 70
     0
  9
$DIMALTTZ
 70
     0
  9
$DIMUPT
 70
     0
  9
$DIMDEC
 70
     2
  9
$DIMTDEC
 70
     2
  9
$DIMALTU
 70
     2
  9
$DIMALTTD
 70
     3
  9
$DIMTXSTY
  7
Standard
  9
$DIMAUNIT
 70
     0
  9
$DIMADEC
 70
     2
  9
$DIMALTRND
 40
0.0
  9
$DIMAZIN
 70
     0
  9
$DIMDSEP
 70
    44
  9
$DIMATFIT
 70
     3
  9
$DIMFRAC
 70
     0
  9
$DIMLDRBLK
  1

  9
$DIMLUNIT
 70
     2
  9
$DIMLWD
 70
    -2
  9
$DIMLWE
 70
    -2
  9
$DIMTMOVE
 70
     0
  9
$LUNITS
 70
     2
  9
$LUPREC
 70
     2
  9
$SKETCHINC
 40
1.0
  9
$FILLETRAD
 40
10.0
  9
$AUNITS
 70
     0
  9
$AUPREC
 70
     2
  9
$MENU
  1
.
  9
$ELEVATION
 40
0.0
  9
$PELEVATION
 40
0.0
  9
$THICKNESS
 40
0.0
  9
$LIMCHECK
 70
     0
  9
$CHAMFERA
 40
0.0
  9
$CHAMFERB
 40
0.0
  9
$CHAMFERC
 40
0.0
  9
$CHAMFERD
 40
0.0
  9
$SKPOLY
 70
     0
  9
$TDCREATE
 40
2458232.305228461
  9
$TDUCREATE
 40
2458232.221895127
  9
$TDUPDATE
 40
2458232.305232801
  9
$TDUUPDATE
 40
2458232.221899468
  9
$TDINDWG
 40
0.0000000116
  9
$TDUSRTIMER
 40
0.0000000116
  9
$USRTIMER
 70
     1
  9
$ANGBASE
 50
0.0
  9
$ANGDIR
 70
     0
  9
$PDMODE
 70
     0
  9
$PDSIZE
 40
-1.0
  9
$PLINEWID
 40
0.0
  9
$SPLFRAME
 70
     0
  9
$SPLINETYPE
 70
     6
  9
$SPLINESEGS
 70
     8
  9
$HANDSEED
  5
394
  9
$SURFTAB1
 70
     6
  9
$SURFTAB2
 70
     6
  9
$SURFTYPE
 70
     6
  9
$SURFU
 70
     6
  9
$SURFV
 70
     6
  9
$UCSBASE
  2

  9
$UCSNAME
  2

  9
$UCSORG
 10
0.0
 20
0.0
 30
0.0
  9
$UCSXDIR
 10
1.0
 20
0.0
 30
0.0
  9
$UCSYDIR
 10
0.0
 20
1.0
 30
0.0
  9
$UCSORTHOREF
  2

  9
$UCSORTHOVIEW
 70
     0
  9
$UCSORGTOP
 10
0.0
 20
0.0
 30
0.0
  9
$UCSORGBOTTOM
 10
0.0
 20
0.0
 30
0.0
  9
$UCSORGLEFT
 10
0.0
 20
0.0
 30
0.0
  9
$UCSORGRIGHT
 10
0.0
 20
0.0
 30
0.0
  9
$UCSORGFRONT
 10
0.0
 20
0.0
 30
0.0
  9
$UCSORGBACK
 10
0.0
 20
0.0
 30
0.0
  9
$PUCSBASE
  2

  9
$PUCSNAME
  2

  9
$PUCSORG
 10
0.0
 20
0.0
 30
0.0
  9
$PUCSXDIR
 10
1.0
 20
0.0
 30
0.0
  9
$PUCSYDIR
 10
0.0
 20
1.0
 30
0.0
  9
$PUCSORTHOREF
  2

  9
$PUCSORTHOVIEW
 70
     0
  9
$PUCSORGTOP
 10
0.0
 20
0.0
 30
0.0
  9
$PUCSORGBOTTOM
 10
0.0
 20
0.0
 30
0.0
  9
$PUCSORGLEFT
 10
0.0
 20
0.0
 30
0.0
  9
$PUCSORGRIGHT
 10
0.0
 20
0.0
 30
0.0
  9
$PUCSORGFRONT
 10
0.0
 20
0.0
 30
0.0
  9
$PUCSORGBACK
 10
0.0
 20
0.0
 30
0.0
  9
$USERI1
 70
     0
  9
$USERI2
 70
     0
  9
$USERI3
 70
     0
  9
$USERI4
 70
     0
  9
$USERI5
 70
     0
  9
$USERR1
 40
0.0
  9
$USERR2
 40
0.0
  9
$USERR3
 40
0.0
  9
$USERR4
 40
0.0
  9
$USERR5
 40
0.0
  9
$WORLDVIEW
 70
     1
  9
$SHADEDGE
 70
     3
  9
$SHADEDIF
 70
    70
  9
$TILEMODE
 70
     1
  9
$MAXACTVP
 70
    64
  9
$PINSBASE
 10
0.0
 20
0.0
 30
0.0
  9
$PLIMCHECK
 70
     0
  9
$PEXTMIN
 10
1.0000000000E+20
 20
1.0000000000E+20
 30
1.0000000000E+20
  9
$PEXTMAX
 10
-1.0000000000E+20
 20
-1.0000000000E+20
 30
-1.0000000000E+20
  9
$PLIMMIN
 10
0.0
 20
0.0
  9
$PLIMMAX
 10
420.0
 20
297.0
  9
$UNITMODE
 70
     0
  9
$VISRETAIN
 70
     1
  9
$PLINEGEN
 70
     0
  9
$PSLTSCALE
 70
     1
  9
$TREEDEPTH
 70
  3020
  9
$CMLSTYLE
  2
Standard
  9
$CMLJUST
 70
     0
  9
$CMLSCALE
 40
20.0
  9
$PROXYGRAPHICS
 70
     1
  9
$MEASUREMENT
 70
     1
  9
$CELWEIGHT
370
    -1
  9
$ENDCAPS
280
     0
  9
$JOINSTYLE
280
     0
  9
$LWDISPLAY
290
     1
  9
$INSUNITS
 70
     4
  9
$HYPERLINKBASE
  1

  9
$STYLESHEET
  1

  9
$XEDIT
290
     1
  9
$CEPSNTYPE
380
     0
  9
$PSTYLEMODE
290
     1
  9
$FINGERPRINTGUID
  2
{C62B8A24-0108-4497-A47E-E0AB126C86CD}
  9
$VERSIONGUID
  2
{FAEB1C32-E019-11D5-929B-00C0DF256EC4}
  9
$EXTNAMES
290
     1
  9
$PSVPSCALE
 40
0.0
  9
$OLESTARTUP
290
     0
  0
ENDSEC
  0
SECTION
  2
CLASSES
  0
CLASS
  1
ACDBDICTIONARYWDFLT
  2
AcDbDictionaryWithDefault
  3
ObjectDBX Classes
 90
        0
280
     0
281
     0
  0
CLASS
  1
VISUALSTYLE
  2
AcDbVisualStyle
  3
ObjectDBX Classes
 90
     4095
280
     0
281
     0
  0
CLASS
  1
MATERIAL
  2
AcDbMaterial
  3
ObjectDBX Classes
 90
     1153
280
     0
281
     0
  0
CLASS
  1
SCALE
  2
AcDbScale
  3
ObjectDBX Classes
 90
     1153
280
     0
281
     0
  0
CLASS
  1
TABLESTYLE
  2
AcDbTableStyle
  3
ObjectDBX Classes
 90
     4095
280
     0
281
     0
  0
CLASS
  1
MLEADERSTYLE
  2
AcDbMLeaderStyle
  3
ACDB_MLEADERSTYLE_CLASS
 90
     4095
280
     0
281
     0
  0
CLASS
  1
SUN
  2
AcDbSun
  3
SCENEOE
 90
     1153
280
     0
281
     0
  0
CLASS
  1
ACDBPLACEHOLDER
  2
AcDbPlaceHolder
  3
ObjectDBX Classes
 90
        0
280
     0
281
     0
  0
CLASS
  1
LAYOUT
  2
AcDbLayout
  3
ObjectDBX Classes
 90
        0
280
     0
281
     0
  0
ENDSEC
  0
SECTION
  2
TABLES
  0
TABLE
  2
VPORT
  5
8
330
0
100
AcDbSymbolTable
 70
     1
  0
VPORT
  5
29
330
8
100
AcDbSymbolTableRecord
100
AcDbViewportTableRecord
  2
*Active
 70
     0
 10
0.0
 20
0.0
 11
1.0
 21
1.0
 12
210.0
 22
297.0
 13
0.0
 23
0.0
 14
10.0
 24
10.0
 15
10.0
 25
10.0
 16
0.0
 26
0.0
 36
1.0
 17
0.0
 27
0.0
 37
0.0
 40
594.0
 41
0.7070707071
 42
50.0
 43
0.0
 44
0.0
 50
0.0
 51
0.0
 71
     0
 72
  2000
 73
     1
 74
     3
 75
     0
 76
     0
 77
     0
 78
     0
281
     0
 65
     1
110
0.0
120
0.0
130
0.0
111
1.0
121
0.0
131
0.0
112
0.0
122
1.0
132
0.0
 79
     0
146
0.0
  0
ENDTAB
  0
TABLE
  2
LTYPE
  5
5
330
0
100
AcDbSymbolTable
 70
     6
  0
LTYPE
  5
14
330
5
100
AcDbSymbolTableRecord
100
AcDbLinetypeTableRecord
  2
ByBlock
 70
     0
  3

 72
    65
 73
     0
 40
0.0
  0
LTYPE
  5
15
330
5
100
AcDbSymbolTableRecord
100
AcDbLinetypeTableRecord
  2
ByLayer
 70
     0
  3

 72
    65
 73
     0
 40
0.0
  0
LTYPE
  5
16
330
5
100
AcDbSymbolTableRecord
100
AcDbLinetypeTableRecord
  2
Continuous
 70
     0
  3
Solid line
 72
    65
 73
     0
 40
0.0
  0
LTYPE
  5
6E
330
5
100
AcDbSymbolTableRecord
100
AcDbLinetypeTableRecord
  2
HIDDEN
 70
     0
  3
Hidden __ __ __ __ __ __ __ __ __ __ __ __ __ __
 72
    65
 73
     2
 40
1.905
 49
1.27
 74
     0
 49
-0.635
 74
     0
  0
LTYPE
  5
6F
330
5
100
AcDbSymbolTableRecord
100
AcDbLinetypeTableRecord
  2
PHANTOM
 70
     0
  3
Phantom ______  __  __  ______  __  __  ______
 72
    65
 73
     6
 40
12.7
 49
6.35
 74
     0
 49
-1.27
 74
     0
 49
1.27
 74
     0
 49
-1.27
 74
     0
 49
1.27
 74
     0
 49
-1.27
 74
     0
  0
LTYPE
  5
70
330
5
100
AcDbSymbolTableRecord
100
AcDbLinetypeTableRecord
  2
CENTER
 70
     0
  3
Center ____ _ ____ _ ____ _ ____ _ ____ _ ____
 72
    65
 73
     4
 40
10.16
 49
6.35
 74
     0
 49
-1.27
 74
     0
 49
1.27
 74
     0
 49
-1.27
 74
     0
  0
LTYPE
  5
71
330
5
100
AcDbSymbolTableRecord
100
AcDbLinetypeTableRecord
  2
CENTERX2
 70
     0
  3
Center (2x) ________  __  ________  __  _____
 72
    65
 73
     4
 40
20.32
 49
12.7
 74
     0
 49
-2.54
 74
     0
 49
2.54
 74
     0
 49
-2.54
 74
     0
  0
LTYPE
  5
72
330
5
100
AcDbSymbolTableRecord
100
AcDbLinetypeTableRecord
  2
DOT2
 70
     0
  3
Dot (.5x) ........................................
 72
    65
 73
     2
 40
0.635
 49
0.0
 74
     0
 49
-0.635
 74
     0
  0
ENDTAB
  0
TABLE
  2
LAYER
  5
2
330
0
100
AcDbSymbolTable
 70
     3
  0
LAYER
  5
10
330
2
100
AcDbSymbolTableRecord
100
AcDbLayerTableRecord
  2
0
 70
     0
 62
     7
  6
Continuous
370
    -3
390
F
  0
LAYER
  5
73
330
2
100
AcDbSymbolTableRecord
100
AcDbLayerTableRecord
  2
FORMAT
 70
     0
 62
     7
  6
Continuous
370
    -3
390
F
  0
LAYER
  5
74
330
2
100
AcDbSymbolTableRecord
100
AcDbLayerTableRecord
  2
DIMENSIONS
 70
     0
 62
   176
  6
Continuous
370
    -3
390
F
  0
ENDTAB
  0
TABLE
  2
STYLE
  5
3
330
0
100
AcDbSymbolTable
 70
    15
  0
STYLE
  5
11
330
3
100
AcDbSymbolTableRecord
100
AcDbTextStyleTableRecord
  2
Standard
 70
     0
 40
0.0
 41
1.0
 50
0.0
 71
     0
 42
3.5
  3
txt
  4

  0
STYLE
  5
DC
330
3
100
AcDbSymbolTableRecord
100
AcDbTextStyleTableRecord
  2
SLDTEXTSTYLE0
 70
     0
 40
0.0
 41
0.75
 50
0.0
 71
     0
 42
3.5
  3
TXT
  4

  0
STYLE
  5
E0
330
3
100
AcDbSymbolTableRecord
100
AcDbTextStyleTableRecord
  2
SLDTEXTSTYLE1
 70
     0
 40
0.0
 41
1.0
 50
0.0
 71
     0
 42
3.5
  3
ISOCP
  4

  0
STYLE
  5
E3
330
3
100
AcDbSymbolTableRecord
100
AcDbTextStyleTableRecord
  2
SLDTEXTSTYLE2
 70
     0
 40
0.0
 41
0.8
 50
0.0
 71
     0
 42
3.5
  3
ROMANT
  4

  0
STYLE
  5
E5
330
3
100
AcDbSymbolTableRecord
100
AcDbTextStyleTableRecord
  2
SLDTEXTSTYLE3
 70
     0
 40
0.0
 41
0.8
 50
0.0
 71
     0
 42
3.5
  3
ISOCP
  4

  0
STYLE
  5
E8
330
3
100
AcDbSymbolTableRecord
100
AcDbTextStyleTableRecord
  2
SLDTEXTSTYLE4
 70
     0
 40
0.0
 41
0.8
 50
0.0
 71
     0
 42
3.5
  3
ROMANS
  4

  0
STYLE
  5
EB
330
3
100
AcDbSymbolTableRecord
100
AcDbTextStyleTableRecord
  2
SLDTEXTSTYLE5
 70
     0
 40
0.0
 41
1.0
 50
0.0
 71
     0
 42
3.5
  3
ROMANT
  4

  0
STYLE
  5
EF
330
3
100
AcDbSymbolTableRecord
100
AcDbTextStyleTableRecord
  2
SLDTEXTSTYLE6
 70
     0
 40
0.0
 41
1.0
 50
0.0
 71
     0
 42
3.5
  3
ROMANS
  4

  0
STYLE
  5
F1
330
3
100
AcDbSymbolTableRecord
100
AcDbTextStyleTableRecord
  2
SLDTEXTSTYLE7
 70
     0
 40
0.0
 41
0.65
 50
0.0
 71
     0
 42
3.5
  3
ROMANT
  4

  0
STYLE
  5
F4
330
3
100
AcDbSymbolTableRecord
100
AcDbTextStyleTableRecord
  2
SLDTEXTSTYLE8
 70
     0
 40
0.0
 41
1.4461573214
 50
0.0
 71
     0
 42
3.5
  3
ISOCP
  4

  0
STYLE
  5
F6
330
3
100
AcDbSymbolTableRecord
100
AcDbTextStyleTableRecord
  2
SLDTEXTSTYLE9
 70
     0
 40
0.0
 41
1.2944018369
 50
0.0
 71
     0
 42
3.5
  3
ISOCP
  4

  0
STYLE
  5
F8
330
3
100
AcDbSymbolTableRecord
100
AcDbTextStyleTableRecord
  2
SLDTEXTSTYLE10
 70
     0
 40
0.0
 41
1.1473107191
 50
0.0
 71
     0
 42
3.5
  3
ISOCP
  4

  0
STYLE
  5
FA
330
3
100
AcDbSymbolTableRecord
100
AcDbTextStyleTableRecord
  2
SLDTEXTSTYLE11
 70
     0
 40
0.0
 41
1.385903689
 50
0.0
 71
     0
 42
3.5
  3
ISOCP
  4

  0
STYLE
  5
101
330
3
100
AcDbSymbolTableRecord
100
AcDbTextStyleTableRecord
  2
SLDTEXTSTYLE12
 70
     0
 40
0.0
 41
1.2464610281
 50
0.0
 71
     0
 42
3.5
  3
ISOCP
  4

  0
STYLE
  5
104
330
3
100
AcDbSymbolTableRecord
100
AcDbTextStyleTableRecord
  2
SLDTEXTSTYLE13
 70
     0
 40
0.0
 41
1.0
 50
0.0
 71
     0
 42
3.5
  3
ROMAND
  4

  0
ENDTAB
  0
TABLE
  2
VIEW
  5
6
330
0
100
AcDbSymbolTable
 70
     0
  0
ENDTAB
  0
TABLE
  2
UCS
  5
7
330
0
100
AcDbSymbolTable
 70
     0
  0
ENDTAB
  0
TABLE
  2
APPID
  5
9
330
0
100
AcDbSymbolTable
 70
     1
  0
APPID
  5
12
330
9
100
AcDbSymbolTableRecord
100
AcDbRegAppTableRecord
  2
ACAD
 70
     0
  0
ENDTAB
  0
TABLE
  2
DIMSTYLE
  5
A
330
0
100
AcDbSymbolTable
 70
     6
100
AcDbDimStyleTable
  0
DIMSTYLE
105
27
330
A
100
AcDbSymbolTableRecord
100
AcDbDimStyleTableRecord
  2
ISO-25
 70
     0
 41
2.5
 42
0.625
 43
3.75
 44
1.25
 73
     0
 74
     0
 77
     1
 78
     8
140
2.5
141
2.5
143
0.0393700787
147
0.625
171
     3
172
     1
178
     0
271
     2
272
     2
274
     3
278
    44
283
     0
284
     8
340
11
  0
DIMSTYLE
105
16D
102
{ACAD_REACTORS
330
16C
102
}
330
A
100
AcDbSymbolTableRecord
100
AcDbDimStyleTableRecord
  2
SLDDIMSTYLE0
 70
     0
 41
3.302
 44
0.0
 45
0.000000001
 73
     0
 74
     0
 77
     1
 78
    12
 79
     3
140
3.5
141
0.0
147
0.875
172
     1
173
     1
178
     0
271
     2
272
     2
276
     2
284
    12
340
DC
341
16E
343
16E
  0
DIMSTYLE
105
17B
102
{ACAD_REACTORS
330
17A
330
1C2
102
}
330
A
100
AcDbSymbolTableRecord
100
AcDbDimStyleTableRecord
  2
SLDDIMSTYLE1
 70
     0
 41
3.302
 44
0.0
 45
0.000000001
 78
     8
 79
     2
140
3.5
147
0.875
173
     1
178
     0
271
     0
272
     0
276
     2
284
    12
340
DC
341
16E
343
16E
344
16E
  0
DIMSTYLE
105
186
102
{ACAD_REACTORS
330
185
330
18C
330
192
330
198
330
19E
330
1A4
330
1AA
330
1B0
330
1B6
330
1BC
330
1CC
330
1D2
330
1D8
330
1DE
330
1E4
330
1EA
330
1F0
330
1F6
330
1FC
330
202
330
208
330
20E
330
214
330
21A
102
}
330
A
100
AcDbSymbolTableRecord
100
AcDbDimStyleTableRecord
  2
SLDDIMSTYLE2
 70
     0
 41
3.302
 44
0.0
 45
0.000000001
 78
    12
 79
     3
140
3.5
147
0.875
173
     1
178
     0
271
     2
272
     2
276
     2
284
    12
340
DC
341
16E
343
16E
344
16E
  0
DIMSTYLE
105
221
102
{ACAD_REACTORS
330
220
330
22B
330
315
330
33A
330
378
330
382
102
}
330
A
100
AcDbSymbolTableRecord
100
AcDbDimStyleTableRecord
  2
SLDDIMSTYLE3
 70
     0
 41
3.302
 44
0.0
 45
0.000000001
 73
     0
 74
     0
 77
     1
 78
    12
 79
     3
140
3.5
147
0.875
173
     1
178
     0
271
     2
272
     2
276
     2
284
    12
340
DC
  0
DIMSTYLE
105
321
102
{ACAD_REACTORS
330
320
330
32E
102
}
330
A
100
AcDbSymbolTableRecord
100
AcDbDimStyleTableRecord
  2
SLDDIMSTYLE4
 70
     0
 41
3.302
 44
0.0
 45
0.000000001
 73
     0
 74
     0
 77
     1
 78
    12
 79
     3
140
3.5
147
0.875
172
     1
173
     1
178
     0
271
     2
272
     2
276
     2
284
    12
289
     0
340
DC
  0
ENDTAB
  0
TABLE
  2
BLOCK_RECORD
  5
1
330
0
100
AcDbSymbolTable
 70
    52
  0
BLOCK_RECORD
  5
1F
330
1
100
AcDbSymbolTableRecord
100
AcDbBlockTableRecord
  2
*Model_Space
340
22
  0
BLOCK_RECORD
  5
1B
330
1
100
AcDbSymbolTableRecord
100
AcDbBlockTableRecord
  2
*Paper_Space
340
1E
  0
BLOCK_RECORD
  5
23
330
1
100
AcDbSymbolTableRecord
100
AcDbBlockTableRecord
  2
*Paper_Space0
340
26
  0
BLOCK_RECORD
  5
D9
330
1
100
AcDbSymbolTableRecord
100
AcDbBlockTableRecord
  2
SW_NOTE_0
340
0
102
{BLKREFS
331
DF
102
}
  0
BLOCK_RECORD
  5
16E
330
1
100
AcDbSymbolTableRecord
100
AcDbBlockTableRecord
  2
_None
340
0
  0
BLOCK_RECORD
  5
171
330
1
100
AcDbSymbolTableRecord
100
AcDbBlockTableRecord
  2
_D
340
0
  0
BLOCK_RECORD
  5
17C
330
1
100
AcDbSymbolTableRecord
100
AcDbBlockTableRecord
  2
_D_1
340
0
  0
BLOCK_RECORD
  5
187
330
1
100
AcDbSymbolTableRecord
100
AcDbBlockTableRecord
  2
_D_2
340
0
  0
BLOCK_RECORD
  5
18D
330
1
100
AcDbSymbolTableRecord
100
AcDbBlockTableRecord
  2
_D_3
340
0
  0
BLOCK_RECORD
  5
193
330
1
100
AcDbSymbolTableRecord
100
AcDbBlockTableRecord
  2
_D_4
340
0
  0
BLOCK_RECORD
  5
199
330
1
100
AcDbSymbolTableRecord
100
AcDbBlockTableRecord
  2
_D_5
340
0
  0
BLOCK_RECORD
  5
19F
330
1
100
AcDbSymbolTableRecord
100
AcDbBlockTableRecord
  2
_D_6
340
0
  0
BLOCK_RECORD
  5
1A5
330
1
100
AcDbSymbolTableRecord
100
AcDbBlockTableRecord
  2
_D_7
340
0
  0
BLOCK_RECORD
  5
1AB
330
1
100
AcDbSymbolTableRecord
100
AcDbBlockTableRecord
  2
_D_8
340
0
  0
BLOCK_RECORD
  5
1B1
330
1
100
AcDbSymbolTableRecord
100
AcDbBlockTableRecord
  2
_D_9
340
0
  0
BLOCK_RECORD
  5
1B7
330
1
100
AcDbSymbolTableRecord
100
AcDbBlockTableRecord
  2
_D_10
340
0
  0
BLOCK_RECORD
  5
1BD
330
1
100
AcDbSymbolTableRecord
100
AcDbBlockTableRecord
  2
_D_11
340
0
  0
BLOCK_RECORD
  5
1C3
330
1
100
AcDbSymbolTableRecord
100
AcDbBlockTableRecord
  2
_D_12
340
0
  0
BLOCK_RECORD
  5
1CD
330
1
100
AcDbSymbolTableRecord
100
AcDbBlockTableRecord
  2
_D_13
340
0
  0
BLOCK_RECORD
  5
1D3
330
1
100
AcDbSymbolTableRecord
100
AcDbBlockTableRecord
  2
_D_14
340
0
  0
BLOCK_RECORD
  5
1D9
330
1
100
AcDbSymbolTableRecord
100
AcDbBlockTableRecord
  2
_D_15
340
0
  0
BLOCK_RECORD
  5
1DF
330
1
100
AcDbSymbolTableRecord
100
AcDbBlockTableRecord
  2
_D_16
340
0
  0
BLOCK_RECORD
  5
1E5
330
1
100
AcDbSymbolTableRecord
100
AcDbBlockTableRecord
  2
_D_17
340
0
  0
BLOCK_RECORD
  5
1EB
330
1
100
AcDbSymbolTableRecord
100
AcDbBlockTableRecord
  2
_D_18
340
0
  0
BLOCK_RECORD
  5
1F1
330
1
100
AcDbSymbolTableRecord
100
AcDbBlockTableRecord
  2
_D_19
340
0
  0
BLOCK_RECORD
  5
1F7
330
1
100
AcDbSymbolTableRecord
100
AcDbBlockTableRecord
  2
_D_20
340
0
  0
BLOCK_RECORD
  5
1FD
330
1
100
AcDbSymbolTableRecord
100
AcDbBlockTableRecord
  2
_D_21
340
0
  0
BLOCK_RECORD
  5
203
330
1
100
AcDbSymbolTableRecord
100
AcDbBlockTableRecord
  2
_D_22
340
0
  0
BLOCK_RECORD
  5
209
330
1
100
AcDbSymbolTableRecord
100
AcDbBlockTableRecord
  2
_D_23
340
0
  0
BLOCK_RECORD
  5
20F
330
1
100
AcDbSymbolTableRecord
100
AcDbBlockTableRecord
  2
_D_24
340
0
  0
BLOCK_RECORD
  5
215
330
1
100
AcDbSymbolTableRecord
100
AcDbBlockTableRecord
  2
_D_25
340
0
  0
BLOCK_RECORD
  5
21B
330
1
100
AcDbSymbolTableRecord
100
AcDbBlockTableRecord
  2
_D_26
340
0
  0
BLOCK_RECORD
  5
222
330
1
100
AcDbSymbolTableRecord
100
AcDbBlockTableRecord
  2
_D_27
340
0
  0
BLOCK_RECORD
  5
22C
330
1
100
AcDbSymbolTableRecord
100
AcDbBlockTableRecord
  2
_D_28
340
0
  0
BLOCK_RECORD
  5
235
330
1
100
AcDbSymbolTableRecord
100
AcDbBlockTableRecord
  2
SW_CENTERMARKSYMBOL_0
340
0
102
{BLKREFS
331
240
102
}
  0
BLOCK_RECORD
  5
241
330
1
100
AcDbSymbolTableRecord
100
AcDbBlockTableRecord
  2
SW_CENTERMARKSYMBOL_1
340
0
102
{BLKREFS
331
24C
102
}
  0
BLOCK_RECORD
  5
24D
330
1
100
AcDbSymbolTableRecord
100
AcDbBlockTableRecord
  2
SW_CENTERMARKSYMBOL_2
340
0
102
{BLKREFS
331
258
102
}
  0
BLOCK_RECORD
  5
259
330
1
100
AcDbSymbolTableRecord
100
AcDbBlockTableRecord
  2
SW_CENTERMARKSYMBOL_3
340
0
102
{BLKREFS
331
264
102
}
  0
BLOCK_RECORD
  5
265
330
1
100
AcDbSymbolTableRecord
100
AcDbBlockTableRecord
  2
SW_CENTERMARKSYMBOL_4
340
0
102
{BLKREFS
331
270
102
}
  0
BLOCK_RECORD
  5
271
330
1
100
AcDbSymbolTableRecord
100
AcDbBlockTableRecord
  2
SW_CENTERMARKSYMBOL_5
340
0
102
{BLKREFS
331
27C
102
}
  0
BLOCK_RECORD
  5
27D
330
1
100
AcDbSymbolTableRecord
100
AcDbBlockTableRecord
  2
SW_CENTERMARKSYMBOL_6
340
0
102
{BLKREFS
331
288
102
}
  0
BLOCK_RECORD
  5
289
330
1
100
AcDbSymbolTableRecord
100
AcDbBlockTableRecord
  2
SW_CENTERMARKSYMBOL_7
340
0
102
{BLKREFS
331
294
102
}
  0
BLOCK_RECORD
  5
295
330
1
100
AcDbSymbolTableRecord
100
AcDbBlockTableRecord
  2
SW_CENTERMARKSYMBOL_8
340
0
102
{BLKREFS
331
2A0
102
}
  0
BLOCK_RECORD
  5
2A1
330
1
100
AcDbSymbolTableRecord
100
AcDbBlockTableRecord
  2
SW_CENTERMARKSYMBOL_9
340
0
102
{BLKREFS
331
2AC
102
}
  0
BLOCK_RECORD
  5
2AD
330
1
100
AcDbSymbolTableRecord
100
AcDbBlockTableRecord
  2
SW_CENTERMARKSYMBOL_10
340
0
102
{BLKREFS
331
2B8
102
}
  0
BLOCK_RECORD
  5
2B9
330
1
100
AcDbSymbolTableRecord
100
AcDbBlockTableRecord
  2
SW_CENTERMARKSYMBOL_11
340
0
102
{BLKREFS
331
2C4
102
}
  0
BLOCK_RECORD
  5
2DF
330
1
100
AcDbSymbolTableRecord
100
AcDbBlockTableRecord
  2
SW_DOWELSYMBOL_0
340
0
102
{BLKREFS
331
2E5
102
}
  0
BLOCK_RECORD
  5
2E6
330
1
100
AcDbSymbolTableRecord
100
AcDbBlockTableRecord
  2
SW_DOWELSYMBOL_1
340
0
102
{BLKREFS
331
2EC
102
}
  0
BLOCK_RECORD
  5
316
330
1
100
AcDbSymbolTableRecord
100
AcDbBlockTableRecord
  2
_D_29
340
0
  0
BLOCK_RECORD
  5
322
330
1
100
AcDbSymbolTableRecord
100
AcDbBlockTableRecord
  2
_D_30
340
0
  0
BLOCK_RECORD
  5
32F
330
1
100
AcDbSymbolTableRecord
100
AcDbBlockTableRecord
  2
_D_31
340
0
  0
BLOCK_RECORD
  5
33B
330
1
100
AcDbSymbolTableRecord
100
AcDbBlockTableRecord
  2
_D_32
340
0
  0
BLOCK_RECORD
  5
379
330
1
100
AcDbSymbolTableRecord
100
AcDbBlockTableRecord
  2
_D_33
340
0
  0
BLOCK_RECORD
  5
383
330
1
100
AcDbSymbolTableRecord
100
AcDbBlockTableRecord
  2
_D_34
340
0
  0
ENDTAB
  0
ENDSEC
  0
SECTION
  2
BLOCKS
  0
BLOCK
  5
20
330
1F
100
AcDbEntity
  8
0
100
AcDbBlockBegin
  2
*Model_Space
 70
     0
 10
0.0
 20
0.0
 30
0.0
  3
*Model_Space
  1

  0
ENDBLK
  5
21
330
1F
100
AcDbEntity
  8
0
100
AcDbBlockEnd
  0
BLOCK
  5
1C
330
1B
100
AcDbEntity
 67
     1
  8
0
100
AcDbBlockBegin
  2
*Paper_Space
 70
     0
 10
0.0
 20
0.0
 30
0.0
  3
*Paper_Space
  1

  0
ENDBLK
  5
1D
330
1B
100
AcDbEntity
 67
     1
  8
0
100
AcDbBlockEnd
  0
BLOCK
  5
24
330
23
100
AcDbEntity
  8
0
100
AcDbBlockBegin
  2
*Paper_Space0
 70
     0
 10
0.0
 20
0.0
 30
0.0
  3
*Paper_Space0
  1

  0
ENDBLK
  5
25
330
23
100
AcDbEntity
  8
0
100
AcDbBlockEnd
  0
BLOCK
  5
DA
330
D9
100
AcDbEntity
  8
0
100
AcDbBlockBegin
  2
SW_NOTE_0
 70
     0
 10
0.0
 20
0.0
 30
0.0
  3
SW_NOTE_0
  1

  0
MTEXT
  5
DD
330
D9
100
AcDbEntity
  8
0
  6
Continuous
 62
     0
370
     0
100
AcDbMText
 10
0.0
 20
6.1391851107
 30
0.0
 40
4.7625
 41
0.0
 71
     1
 72
     1
  1
Rep: 24
  7
SLDTEXTSTYLE0
 73
     1
 44
1.0
  0
MTEXT
  5
DE
330
D9
100
AcDbEntity
  8
0
  6
Continuous
 62
     0
370
     0
100
AcDbMText
 10
0.0
 20
-1.2108149765
 30
0.0
 40
4.7625
 41
0.0
 71
     1
 72
     1
  1
Nombre: 1
  7
SLDTEXTSTYLE0
 73
     1
 44
1.0
  0
ENDBLK
  5
DB
330
D9
100
AcDbEntity
  8
0
100
AcDbBlockEnd
  0
BLOCK
  5
16F
330
16E
100
AcDbEntity
  8
0
100
AcDbBlockBegin
  2
_None
 70
     0
 10
0.0
 20
0.0
 30
0.0
  3
_None
  1

  0
ENDBLK
  5
170
330
16E
100
AcDbEntity
  8
0
100
AcDbBlockEnd
  0
BLOCK
  5
172
330
171
100
AcDbEntity
  8
0
100
AcDbBlockBegin
  2
_D
 70
     0
 10
0.0
 20
0.0
 30
0.0
  3
_D
  1

  0
SOLID
  5
174
330
171
100
AcDbEntity
  8
0
  6
Continuous
 62
     7
370
    18
100
AcDbTrace
 10
236.2037735696
 20
283.3113528755
 30
0.0
 11
238.8978504059
 21
285.2870092222
 31
0.0
 12
238.1794299163
 22
286.0054297119
 32
0.0
 13
238.1794299163
 23
286.0054297119
 33
0.0
  0
LINE
  5
175
330
171
100
AcDbEntity
  8
0
  6
Continuous
 62
     7
370
    18
100
AcDbLine
 10
236.2037735696
 20
283.3113528755
 30
0.0
 11
247.4481375656
 21
294.5557168715
 31
0.0
  0
LINE
  5
176
330
171
100
AcDbEntity
  8
0
  6
Continuous
 62
     7
370
    18
100
AcDbLine
 10
236.2037735696
 20
283.3113528755
 30
0.0
 11
232.6682396637
 21
279.7758189696
 31
0.0
  0
MTEXT
  5
177
330
171
100
AcDbEntity
  8
0
  6
Continuous
 62
     7
370
    18
100
AcDbMText
 10
234.6968965787
 20
288.0795945438
 30
0.0
 40
3.5
 41
0.0
 71
     1
 72
     1
  1
%%c
  7
SLDTEXTSTYLE0
 11
0.7071067811865464
 21
0.7071067811865487
 31
0.0
 73
     1
 44
1.0
  0
MTEXT
  5
178
330
171
100
AcDbEntity
  8
0
  6
Continuous
 62
     7
370
    18
100
AcDbMText
 10
238.3915049184
 20
291.8498239609
 30
0.0
 40
3.5
 41
0.0
 71
     1
 72
     1
  1
5
  7
SLDTEXTSTYLE0
 11
0.7071067811865464
 21
0.7071067811865487
 31
0.0
 73
     1
 44
1.0
  0
MTEXT
  5
179
330
171
100
AcDbEntity
  8
0
  6
Continuous
 62
     7
370
    18
100
AcDbMText
 10
240.2201618449
 20
293.6784808874
 30
0.0
 40
3.5
 41
0.0
 71
     1
 72
     1
  1
DF
  7
SLDTEXTSTYLE0
 11
0.7071067811865464
 21
0.7071067811865487
 31
0.0
 73
     1
 44
1.0
  0
ENDBLK
  5
173
330
171
100
AcDbEntity
  8
0
100
AcDbBlockEnd
  0
BLOCK
  5
17D
330
17C
100
AcDbEntity
  8
0
100
AcDbBlockBegin
  2
_D_1
 70
     0
 10
0.0
 20
0.0
 30
0.0
  3
_D_1
  1

  0
ARC
  5
17F
330
17C
100
AcDbEntity
  8
0
  6
Continuous
 62
     7
370
    18
100
AcDbCircle
 10
375.9250690395
 20
281.5435856897
 30
0.0
 40
3.489062481094152
100
AcDbArc
 50
90.0
 51
270.0
  0
ARC
  5
180
330
17C
100
AcDbEntity
  8
0
  6
Continuous
 62
     7
370
    18
100
AcDbCircle
 10
378.5111802331
 20
281.5435856897
 30
0.0
 40
3.489062481094152
100
AcDbArc
 50
270.0
 51
90.0
  0
LINE
  5
181
330
17C
100
AcDbEntity
  8
0
  6
Continuous
 62
     7
370
    18
100
AcDbLine
 10
375.9250690395
 20
285.0326481708
 30
0.0
 11
378.5111802331
 21
285.0326481708
 31
0.0
  0
LINE
  5
182
330
17C
100
AcDbEntity
  8
0
  6
Continuous
 62
     7
370
    18
100
AcDbLine
 10
378.5111802331
 20
278.0545232086
 30
0.0
 11
375.9250690395
 21
278.0545232086
 31
0.0
  0
LINE
  5
183
330
17C
100
AcDbEntity
  8
0
  6
Continuous
 62
     7
370
    18
100
AcDbLine
 10
358.3213442925
 20
281.5435859226
 30
0.0
 11
372.4360066167
 21
281.5435859226
 31
0.0
  0
MTEXT
  5
184
330
17C
100
AcDbEntity
  8
0
  6
Continuous
 62
     7
370
    18
100
AcDbMText
 10
375.9250690395
 20
283.2771976088
 30
0.0
 40
3.5
 41
0.0
 71
     1
 72
     1
  1
0
  7
SLDTEXTSTYLE0
 73
     1
 44
1.0
  0
ENDBLK
  5
17E
330
17C
100
AcDbEntity
  8
0
100
AcDbBlockEnd
  0
BLOCK
  5
188
330
187
100
AcDbEntity
  8
0
100
AcDbBlockBegin
  2
_D_2
 70
     0
 10
0.0
 20
0.0
 30
0.0
  3
_D_2
  1

  0
LINE
  5
18A
330
187
100
AcDbEntity
  8
0
  6
Continuous
 62
     7
370
    18
100
AcDbLine
 10
334.9360066167
 20
246.5435859226
 30
0.0
 11
360.4360066167
 21
246.5435859226
 31
0.0
  0
MTEXT
  5
18B
330
187
100
AcDbEntity
  8
0
  6
Continuous
 62
     7
370
    18
100
AcDbMText
 10
360.4360066167
 20
248.2771978416
 30
0.0
 40
3.5
 41
0.0
 71
     1
 72
     1
  1
35
  7
SLDTEXTSTYLE0
 73
     1
 44
1.0
  0
ENDBLK
  5
189
330
187
100
AcDbEntity
  8
0
100
AcDbBlockEnd
  0
BLOCK
  5
18E
330
18D
100
AcDbEntity
  8
0
100
AcDbBlockBegin
  2
_D_3
 70
     0
 10
0.0
 20
0.0
 30
0.0
  3
_D_3
  1

  0
LINE
  5
190
330
18D
100
AcDbEntity
  8
0
  6
Continuous
 62
     7
370
    18
100
AcDbLine
 10
203.9360066167
 20
246.5435859226
 30
0.0
 11
198.2561747249
 21
246.5435859226
 31
0.0
  0
MTEXT
  5
191
330
18D
100
AcDbEntity
  8
0
  6
Continuous
 62
     7
370
    18
100
AcDbMText
 10
193.0839523379
 20
248.2771978416
 30
0.0
 40
3.5
 41
0.0
 71
     1
 72
     1
  1
35
  7
SLDTEXTSTYLE0
 73
     1
 44
1.0
  0
ENDBLK
  5
18F
330
18D
100
AcDbEntity
  8
0
100
AcDbBlockEnd
  0
BLOCK
  5
194
330
193
100
AcDbEntity
  8
0
100
AcDbBlockBegin
  2
_D_4
 70
     0
 10
0.0
 20
0.0
 30
0.0
  3
_D_4
  1

  0
LINE
  5
196
330
193
100
AcDbEntity
  8
0
  6
Continuous
 62
     7
370
    18
100
AcDbLine
 10
318.9360066167
 20
181.5435859226
 30
0.0
 11
360.4360066167
 21
181.5435859226
 31
0.0
  0
MTEXT
  5
197
330
193
100
AcDbEntity
  8
0
  6
Continuous
 62
     7
370
    18
100
AcDbMText
 10
360.4360066167
 20
183.2771978416
 30
0.0
 40
3.5
 41
0.0
 71
     1
 72
     1
  1
100
  7
SLDTEXTSTYLE0
 73
     1
 44
1.0
  0
ENDBLK
  5
195
330
193
100
AcDbEntity
  8
0
100
AcDbBlockEnd
  0
BLOCK
  5
19A
330
199
100
AcDbEntity
  8
0
100
AcDbBlockBegin
  2
_D_5
 70
     0
 10
0.0
 20
0.0
 30
0.0
  3
_D_5
  1

  0
LINE
  5
19C
330
199
100
AcDbEntity
  8
0
  6
Continuous
 62
     7
370
    18
100
AcDbLine
 10
183.4360066167
 20
181.5435859226
 30
0.0
 11
159.4360066167
 21
181.5435859226
 31
0.0
  0
MTEXT
  5
19D
330
199
100
AcDbEntity
  8
0
  6
Continuous
 62
     7
370
    18
100
AcDbMText
 10
151.6776732689
 20
183.2771978416
 30
0.0
 40
3.5
 41
0.0
 71
     1
 72
     1
  1
100
  7
SLDTEXTSTYLE0
 73
     1
 44
1.0
  0
ENDBLK
  5
19B
330
199
100
AcDbEntity
  8
0
100
AcDbBlockEnd
  0
BLOCK
  5
1A0
330
19F
100
AcDbEntity
  8
0
100
AcDbBlockBegin
  2
_D_6
 70
     0
 10
0.0
 20
0.0
 30
0.0
  3
_D_6
  1

  0
LINE
  5
1A2
330
19F
100
AcDbEntity
  8
0
  6
Continuous
 62
     7
370
    18
100
AcDbLine
 10
345.4360066167
 20
161.5435859226
 30
0.0
 11
372.4360066167
 21
161.5435859226
 31
0.0
  0
MTEXT
  5
1A3
330
19F
100
AcDbEntity
  8
0
  6
Continuous
 62
     7
370
    18
100
AcDbMText
 10
372.4360066167
 20
163.2771978416
 30
0.0
 40
3.5
 41
0.0
 71
     1
 72
     1
  1
120
  7
SLDTEXTSTYLE0
 73
     1
 44
1.0
  0
ENDBLK
  5
1A1
330
19F
100
AcDbEntity
  8
0
100
AcDbBlockEnd
  0
BLOCK
  5
1A6
330
1A5
100
AcDbEntity
  8
0
100
AcDbBlockBegin
  2
_D_7
 70
     0
 10
0.0
 20
0.0
 30
0.0
  3
_D_7
  1

  0
LINE
  5
1A8
330
1A5
100
AcDbEntity
  8
0
  6
Continuous
 62
     7
370
    18
100
AcDbLine
 10
203.9360066167
 20
321.5435859226
 30
0.0
 11
202.0433788982
 21
321.5435859226
 31
0.0
  0
MTEXT
  5
1A9
330
1A5
100
AcDbEntity
  8
0
  6
Continuous
 62
     7
370
    18
100
AcDbMText
 10
196.8711565112
 20
323.2771978416
 30
0.0
 40
3.5
 41
0.0
 71
     1
 72
     1
  1
40
  7
SLDTEXTSTYLE0
 73
     1
 44
1.0
  0
ENDBLK
  5
1A7
330
1A5
100
AcDbEntity
  8
0
100
AcDbBlockEnd
  0
BLOCK
  5
1AC
330
1AB
100
AcDbEntity
  8
0
100
AcDbBlockBegin
  2
_D_8
 70
     0
 10
0.0
 20
0.0
 30
0.0
  3
_D_8
  1

  0
LINE
  5
1AE
330
1AB
100
AcDbEntity
  8
0
  6
Continuous
 62
     7
370
    18
100
AcDbLine
 10
334.9360066167
 20
321.5435859226
 30
0.0
 11
372.4360066167
 21
321.5435859226
 31
0.0
  0
MTEXT
  5
1AF
330
1AB
100
AcDbEntity
  8
0
  6
Continuous
 62
     7
370
    18
100
AcDbMText
 10
372.4360066167
 20
323.2771978416
 30
0.0
 40
3.5
 41
0.0
 71
     1
 72
     1
  1
40
  7
SLDTEXTSTYLE0
 73
     1
 44
1.0
  0
ENDBLK
  5
1AD
330
1AB
100
AcDbEntity
  8
0
100
AcDbBlockEnd
  0
BLOCK
  5
1B2
330
1B1
100
AcDbEntity
  8
0
100
AcDbBlockBegin
  2
_D_9
 70
     0
 10
0.0
 20
0.0
 30
0.0
  3
_D_9
  1

  0
LINE
  5
1B4
330
1B1
100
AcDbEntity
  8
0
  6
Continuous
 62
     7
370
    18
100
AcDbLine
 10
183.4360066167
 20
381.5435859226
 30
0.0
 11
159.4360066167
 21
381.5435859226
 31
0.0
  0
MTEXT
  5
1B5
330
1B1
100
AcDbEntity
  8
0
  6
Continuous
 62
     7
370
    18
100
AcDbMText
 10
151.6776732689
 20
383.2771978416
 30
0.0
 40
3.5
 41
0.0
 71
     1
 72
     1
  1
100
  7
SLDTEXTSTYLE0
 73
     1
 44
1.0
  0
ENDBLK
  5
1B3
330
1B1
100
AcDbEntity
  8
0
100
AcDbBlockEnd
  0
BLOCK
  5
1B8
330
1B7
100
AcDbEntity
  8
0
100
AcDbBlockBegin
  2
_D_10
 70
     0
 10
0.0
 20
0.0
 30
0.0
  3
_D_10
  1

  0
LINE
  5
1BA
330
1B7
100
AcDbEntity
  8
0
  6
Continuous
 62
     7
370
    18
100
AcDbLine
 10
318.9360066167
 20
381.5435859226
 30
0.0
 11
360.4360066167
 21
381.5435859226
 31
0.0
  0
MTEXT
  5
1BB
330
1B7
100
AcDbEntity
  8
0
  6
Continuous
 62
     7
370
    18
100
AcDbMText
 10
360.4360066167
 20
383.2771978416
 30
0.0
 40
3.5
 41
0.0
 71
     1
 72
     1
  1
100
  7
SLDTEXTSTYLE0
 73
     1
 44
1.0
  0
ENDBLK
  5
1B9
330
1B7
100
AcDbEntity
  8
0
100
AcDbBlockEnd
  0
BLOCK
  5
1BE
330
1BD
100
AcDbEntity
  8
0
100
AcDbBlockBegin
  2
_D_11
 70
     0
 10
0.0
 20
0.0
 30
0.0
  3
_D_11
  1

  0
LINE
  5
1C0
330
1BD
100
AcDbEntity
  8
0
  6
Continuous
 62
     7
370
    18
100
AcDbLine
 10
345.4360066167
 20
401.5435859226
 30
0.0
 11
372.4360066167
 21
401.5435859226
 31
0.0
  0
MTEXT
  5
1C1
330
1BD
100
AcDbEntity
  8
0
  6
Continuous
 62
     7
370
    18
100
AcDbMText
 10
372.4360066167
 20
403.2771978416
 30
0.0
 40
3.5
 41
0.0
 71
     1
 72
     1
  1
120
  7
SLDTEXTSTYLE0
 73
     1
 44
1.0
  0
ENDBLK
  5
1BF
330
1BD
100
AcDbEntity
  8
0
100
AcDbBlockEnd
  0
BLOCK
  5
1C4
330
1C3
100
AcDbEntity
  8
0
100
AcDbBlockBegin
  2
_D_12
 70
     0
 10
0.0
 20
0.0
 30
0.0
  3
_D_12
  1

  0
ARC
  5
1C6
330
1C3
100
AcDbEntity
  8
0
  6
Continuous
 62
     7
370
    18
100
AcDbCircle
 10
169.4360068495
 20
127.7778321406
 30
0.0
 40
3.489062481094152
100
AcDbArc
 50
180.0
 51
0.0
  0
ARC
  5
1C7
330
1C3
100
AcDbEntity
  8
0
  6
Continuous
 62
     7
370
    18
100
AcDbCircle
 10
169.4360068495
 20
130.3639433341
 30
0.0
 40
3.489062481094152
100
AcDbArc
 50
0.0
 51
180.0
  0
LINE
  5
1C8
330
1C3
100
AcDbEntity
  8
0
  6
Continuous
 62
     7
370
    18
100
AcDbLine
 10
165.9469443684
 20
127.7778321406
 30
0.0
 11
165.9469443684
 21
130.3639433341
 31
0.0
  0
LINE
  5
1C9
330
1C3
100
AcDbEntity
  8
0
  6
Continuous
 62
     7
370
    18
100
AcDbLine
 10
172.9250693306
 20
130.3639433341
 30
0.0
 11
172.9250693306
 21
127.7778321406
 31
0.0
  0
LINE
  5
1CA
330
1C3
100
AcDbEntity
  8
0
  6
Continuous
 62
     7
370
    18
100
AcDbLine
 10
169.4360066167
 20
160.5435859226
 30
0.0
 11
169.4360066167
 21
133.8530055241
 31
0.0
  0
MTEXT
  5
1CB
330
1C3
100
AcDbEntity
  8
0
  6
Continuous
 62
     7
370
    18
100
AcDbMText
 10
167.7023949304
 20
127.7778321406
 30
0.0
 40
3.5
 41
0.0
 71
     1
 72
     1
  1
0
  7
SLDTEXTSTYLE0
 11
6.123233995736766E-17
 21
1.0
 31
0.0
 73
     1
 44
1.0
  0
ENDBLK
  5
1C5
330
1C3
100
AcDbEntity
  8
0
100
AcDbBlockEnd
  0
BLOCK
  5
1CE
330
1CD
100
AcDbEntity
  8
0
100
AcDbBlockBegin
  2
_D_13
 70
     0
 10
0.0
 20
0.0
 30
0.0
  3
_D_13
  1

  0
LINE
  5
1D0
330
1CD
100
AcDbEntity
  8
0
  6
Continuous
 62
     7
370
    18
100
AcDbLine
 10
184.4360066167
 20
180.5435859226
 30
0.0
 11
184.4360066167
 21
139.5435859226
 31
0.0
  0
MTEXT
  5
1D1
330
1CD
100
AcDbEntity
  8
0
  6
Continuous
 62
     7
370
    18
100
AcDbMText
 10
182.7023946976
 20
134.3713635355
 30
0.0
 40
3.5
 41
0.0
 71
     1
 72
     1
  1
15
  7
SLDTEXTSTYLE0
 11
6.123233995736766E-17
 21
1.0
 31
0.0
 73
     1
 44
1.0
  0
ENDBLK
  5
1CF
330
1CD
100
AcDbEntity
  8
0
100
AcDbBlockEnd
  0
BLOCK
  5
1D4
330
1D3
100
AcDbEntity
  8
0
100
AcDbBlockBegin
  2
_D_14
 70
     0
 10
0.0
 20
0.0
 30
0.0
  3
_D_14
  1

  0
LINE
  5
1D6
330
1D3
100
AcDbEntity
  8
0
  6
Continuous
 62
     7
370
    18
100
AcDbLine
 10
184.4360066167
 20
282.5435859226
 30
0.0
 11
184.4360066167
 21
298.5963870629
 31
0.0
  0
MTEXT
  5
1D7
330
1D3
100
AcDbEntity
  8
0
  6
Continuous
 62
     7
370
    18
100
AcDbMText
 10
182.7023946976
 20
298.5963870629
 30
0.0
 40
3.5
 41
0.0
 71
     1
 72
     1
  1
15
  7
SLDTEXTSTYLE0
 11
6.123233995736766E-17
 21
1.0
 31
0.0
 73
     1
 44
1.0
  0
ENDBLK
  5
1D5
330
1D3
100
AcDbEntity
  8
0
100
AcDbBlockEnd
  0
BLOCK
  5
1DA
330
1D9
100
AcDbEntity
  8
0
100
AcDbBlockBegin
  2
_D_15
 70
     0
 10
0.0
 20
0.0
 30
0.0
  3
_D_15
  1

  0
LINE
  5
1DC
330
1D9
100
AcDbEntity
  8
0
  6
Continuous
 62
     7
370
    18
100
AcDbLine
 10
184.4360066167
 20
382.5435859226
 30
0.0
 11
184.4360066167
 21
406.2161056544
 31
0.0
  0
MTEXT
  5
1DD
330
1D9
100
AcDbEntity
  8
0
  6
Continuous
 62
     7
370
    18
100
AcDbMText
 10
182.7023946976
 20
406.2161056544
 30
0.0
 40
3.5
 41
0.0
 71
     1
 72
     1
  1
15
  7
SLDTEXTSTYLE0
 11
6.123233995736766E-17
 21
1.0
 31
0.0
 73
     1
 44
1.0
  0
ENDBLK
  5
1DB
330
1D9
100
AcDbEntity
  8
0
100
AcDbBlockEnd
  0
BLOCK
  5
1E0
330
1DF
100
AcDbEntity
  8
0
100
AcDbBlockBegin
  2
_D_16
 70
     0
 10
0.0
 20
0.0
 30
0.0
  3
_D_16
  1

  0
LINE
  5
1E2
330
1DF
100
AcDbEntity
  8
0
  6
Continuous
 62
     7
370
    18
100
AcDbLine
 10
214.4360066167
 20
236.0435859226
 30
0.0
 11
214.4360066167
 21
222.5367032491
 31
0.0
  0
MTEXT
  5
1E3
330
1DF
100
AcDbEntity
  8
0
  6
Continuous
 62
     7
370
    18
100
AcDbMText
 10
212.7023946976
 20
217.364480862
 30
0.0
 40
3.5
 41
0.0
 71
     1
 72
     1
  1
45
  7
SLDTEXTSTYLE0
 11
6.123233995736766E-17
 21
1.0
 31
0.0
 73
     1
 44
1.0
  0
ENDBLK
  5
1E1
330
1DF
100
AcDbEntity
  8
0
100
AcDbBlockEnd
  0
BLOCK
  5
1E6
330
1E5
100
AcDbEntity
  8
0
100
AcDbBlockBegin
  2
_D_17
 70
     0
 10
0.0
 20
0.0
 30
0.0
  3
_D_17
  1

  0
LINE
  5
1E8
330
1E5
100
AcDbEntity
  8
0
  6
Continuous
 62
     7
370
    18
100
AcDbLine
 10
214.4360066167
 20
311.0435859226
 30
0.0
 11
214.4360066167
 21
306.8019961051
 31
0.0
  0
MTEXT
  5
1E9
330
1E5
100
AcDbEntity
  8
0
  6
Continuous
 62
     7
370
    18
100
AcDbMText
 10
212.7023946976
 20
301.6297737181
 30
0.0
 40
3.5
 41
0.0
 71
     1
 72
     1
  1
45
  7
SLDTEXTSTYLE0
 11
6.123233995736766E-17
 21
1.0
 31
0.0
 73
     1
 44
1.0
  0
ENDBLK
  5
1E7
330
1E5
100
AcDbEntity
  8
0
100
AcDbBlockEnd
  0
BLOCK
  5
1EC
330
1EB
100
AcDbEntity
  8
0
100
AcDbBlockBegin
  2
_D_18
 70
     0
 10
0.0
 20
0.0
 30
0.0
  3
_D_18
  1

  0
LINE
  5
1EE
330
1EB
100
AcDbEntity
  8
0
  6
Continuous
 62
     7
370
    18
100
AcDbLine
 10
234.4360066167
 20
282.5435859226
 30
0.0
 11
234.4360066167
 21
303.6459926273
 31
0.0
  0
MTEXT
  5
1EF
330
1EB
100
AcDbEntity
  8
0
  6
Continuous
 62
     7
370
    18
100
AcDbMText
 10
232.7023946976
 20
303.6459926273
 30
0.0
 40
3.5
 41
0.0
 71
     1
 72
     1
  1
65
  7
SLDTEXTSTYLE0
 11
6.123233995736766E-17
 21
1.0
 31
0.0
 73
     1
 44
1.0
  0
ENDBLK
  5
1ED
330
1EB
100
AcDbEntity
  8
0
100
AcDbBlockEnd
  0
BLOCK
  5
1F2
330
1F1
100
AcDbEntity
  8
0
100
AcDbBlockBegin
  2
_D_19
 70
     0
 10
0.0
 20
0.0
 30
0.0
  3
_D_19
  1

  0
LINE
  5
1F4
330
1F1
100
AcDbEntity
  8
0
  6
Continuous
 62
     7
370
    18
100
AcDbLine
 10
309.4360066167
 20
172.0435859226
 30
0.0
 11
309.4360066167
 21
139.5435859226
 31
0.0
  0
MTEXT
  5
1F5
330
1F1
100
AcDbEntity
  8
0
  6
Continuous
 62
     7
370
    18
100
AcDbMText
 10
307.7023946976
 20
131.7852525748
 30
0.0
 40
3.5
 41
0.0
 71
     1
 72
     1
  1
140
  7
SLDTEXTSTYLE0
 11
6.123233995736766E-17
 21
1.0
 31
0.0
 73
     1
 44
1.0
  0
ENDBLK
  5
1F3
330
1F1
100
AcDbEntity
  8
0
100
AcDbBlockEnd
  0
BLOCK
  5
1F8
330
1F7
100
AcDbEntity
  8
0
100
AcDbBlockBegin
  2
_D_20
 70
     0
 10
0.0
 20
0.0
 30
0.0
  3
_D_20
  1

  0
LINE
  5
1FA
330
1F7
100
AcDbEntity
  8
0
  6
Continuous
 62
     7
370
    18
100
AcDbLine
 10
309.4360066167
 20
391.0435859226
 30
0.0
 11
309.4360066167
 21
406.2161056544
 31
0.0
  0
MTEXT
  5
1FB
330
1F7
100
AcDbEntity
  8
0
  6
Continuous
 62
     7
370
    18
100
AcDbMText
 10
307.7023946976
 20
406.2161056544
 30
0.0
 40
3.5
 41
0.0
 71
     1
 72
     1
  1
140
  7
SLDTEXTSTYLE0
 11
6.123233995736766E-17
 21
1.0
 31
0.0
 73
     1
 44
1.0
  0
ENDBLK
  5
1F9
330
1F7
100
AcDbEntity
  8
0
100
AcDbBlockEnd
  0
BLOCK
  5
1FE
330
1FD
100
AcDbEntity
  8
0
100
AcDbBlockBegin
  2
_D_21
 70
     0
 10
0.0
 20
0.0
 30
0.0
  3
_D_21
  1

  0
LINE
  5
200
330
1FD
100
AcDbEntity
  8
0
  6
Continuous
 62
     7
370
    18
100
AcDbLine
 10
324.4360066167
 20
332.0435859226
 30
0.0
 11
324.4360066167
 21
337.0996294916
 31
0.0
  0
MTEXT
  5
201
330
1FD
100
AcDbEntity
  8
0
  6
Continuous
 62
     7
370
    18
100
AcDbMText
 10
322.7023946976
 20
337.0996294916
 30
0.0
 40
3.5
 41
0.0
 71
     1
 72
     1
  1
155
  7
SLDTEXTSTYLE0
 11
6.123233995736766E-17
 21
1.0
 31
0.0
 73
     1
 44
1.0
  0
ENDBLK
  5
1FF
330
1FD
100
AcDbEntity
  8
0
100
AcDbBlockEnd
  0
BLOCK
  5
204
330
203
100
AcDbEntity
  8
0
100
AcDbBlockBegin
  2
_D_22
 70
     0
 10
0.0
 20
0.0
 30
0.0
  3
_D_22
  1

  0
LINE
  5
206
330
203
100
AcDbEntity
  8
0
  6
Continuous
 62
     7
370
    18
100
AcDbLine
 10
324.4360066167
 20
236.0435859226
 30
0.0
 11
324.4360066167
 21
230.1111115957
 31
0.0
  0
MTEXT
  5
207
330
203
100
AcDbEntity
  8
0
  6
Continuous
 62
     7
370
    18
100
AcDbMText
 10
322.7023946976
 20
222.3527782479
 30
0.0
 40
3.5
 41
0.0
 71
     1
 72
     1
  1
155
  7
SLDTEXTSTYLE0
 11
6.123233995736766E-17
 21
1.0
 31
0.0
 73
     1
 44
1.0
  0
ENDBLK
  5
205
330
203
100
AcDbEntity
  8
0
100
AcDbBlockEnd
  0
BLOCK
  5
20A
330
209
100
AcDbEntity
  8
0
100
AcDbBlockBegin
  2
_D_23
 70
     0
 10
0.0
 20
0.0
 30
0.0
  3
_D_23
  1

  0
LINE
  5
20C
330
209
100
AcDbEntity
  8
0
  6
Continuous
 62
     7
370
    18
100
AcDbLine
 10
329.4360066167
 20
180.5435859226
 30
0.0
 11
329.4360066167
 21
139.5435859226
 31
0.0
  0
MTEXT
  5
20D
330
209
100
AcDbEntity
  8
0
  6
Continuous
 62
     7
370
    18
100
AcDbMText
 10
327.7023946976
 20
131.7852525748
 30
0.0
 40
3.5
 41
0.0
 71
     1
 72
     1
  1
160
  7
SLDTEXTSTYLE0
 11
6.123233995736766E-17
 21
1.0
 31
0.0
 73
     1
 44
1.0
  0
ENDBLK
  5
20B
330
209
100
AcDbEntity
  8
0
100
AcDbBlockEnd
  0
BLOCK
  5
210
330
20F
100
AcDbEntity
  8
0
100
AcDbBlockBegin
  2
_D_24
 70
     0
 10
0.0
 20
0.0
 30
0.0
  3
_D_24
  1

  0
LINE
  5
212
330
20F
100
AcDbEntity
  8
0
  6
Continuous
 62
     7
370
    18
100
AcDbLine
 10
329.4360066167
 20
382.5435859226
 30
0.0
 11
329.4360066167
 21
406.2161056544
 31
0.0
  0
MTEXT
  5
213
330
20F
100
AcDbEntity
  8
0
  6
Continuous
 62
     7
370
    18
100
AcDbMText
 10
327.7023946976
 20
406.2161056544
 30
0.0
 40
3.5
 41
0.0
 71
     1
 72
     1
  1
160
  7
SLDTEXTSTYLE0
 11
6.123233995736766E-17
 21
1.0
 31
0.0
 73
     1
 44
1.0
  0
ENDBLK
  5
211
330
20F
100
AcDbEntity
  8
0
100
AcDbBlockEnd
  0
BLOCK
  5
216
330
215
100
AcDbEntity
  8
0
100
AcDbBlockBegin
  2
_D_25
 70
     0
 10
0.0
 20
0.0
 30
0.0
  3
_D_25
  1

  0
LINE
  5
218
330
215
100
AcDbEntity
  8
0
  6
Continuous
 62
     7
370
    18
100
AcDbLine
 10
329.4360066167
 20
282.5435859226
 30
0.0
 11
329.4360066167
 21
294.8091828896
 31
0.0
  0
MTEXT
  5
219
330
215
100
AcDbEntity
  8
0
  6
Continuous
 62
     7
370
    18
100
AcDbMText
 10
327.7023946976
 20
294.8091828896
 30
0.0
 40
3.5
 41
0.0
 71
     1
 72
     1
  1
160
  7
SLDTEXTSTYLE0
 11
6.123233995736766E-17
 21
1.0
 31
0.0
 73
     1
 44
1.0
  0
ENDBLK
  5
217
330
215
100
AcDbEntity
  8
0
100
AcDbBlockEnd
  0
BLOCK
  5
21C
330
21B
100
AcDbEntity
  8
0
100
AcDbBlockBegin
  2
_D_26
 70
     0
 10
0.0
 20
0.0
 30
0.0
  3
_D_26
  1

  0
LINE
  5
21E
330
21B
100
AcDbEntity
  8
0
  6
Continuous
 62
     7
370
    18
100
AcDbLine
 10
344.4360066167
 20
160.5435859226
 30
0.0
 11
344.4360066167
 21
133.8530055241
 31
0.0
  0
MTEXT
  5
21F
330
21B
100
AcDbEntity
  8
0
  6
Continuous
 62
     7
370
    18
100
AcDbMText
 10
342.7023946976
 20
126.0946721764
 30
0.0
 40
3.5
 41
0.0
 71
     1
 72
     1
  1
175
  7
SLDTEXTSTYLE0
 11
6.123233995736766E-17
 21
1.0
 31
0.0
 73
     1
 44
1.0
  0
ENDBLK
  5
21D
330
21B
100
AcDbEntity
  8
0
100
AcDbBlockEnd
  0
BLOCK
  5
223
330
222
100
AcDbEntity
  8
0
100
AcDbBlockBegin
  2
_D_27
 70
     0
 10
0.0
 20
0.0
 30
0.0
  3
_D_27
  1

  0
SOLID
  5
225
330
222
100
AcDbEntity
  8
0
  6
Continuous
 62
     7
370
    18
100
AcDbTrace
 10
169.4360066167
 20
423.5435859226
 30
0.0
 11
172.7380066167
 21
423.0355859226
 31
0.0
 12
172.7380066167
 22
424.0515859226
 32
0.0
 13
172.7380066167
 23
424.0515859226
 33
0.0
  0
SOLID
  5
226
330
222
100
AcDbEntity
  8
0
  6
Continuous
 62
     7
370
    18
100
AcDbTrace
 10
344.4360066167
 20
423.5435859226
 30
0.0
 11
341.1340066167
 21
424.0515859226
 31
0.0
 12
341.1340066167
 22
423.0355859226
 32
0.0
 13
341.1340066167
 23
423.0355859226
 33
0.0
  0
LINE
  5
227
330
222
100
AcDbEntity
  8
0
  6
Continuous
 62
     7
370
    18
100
AcDbLine
 10
169.4360066167
 20
402.5435859226
 30
0.0
 11
169.4360066167
 21
424.5435859226
 31
0.0
  0
LINE
  5
228
330
222
100
AcDbEntity
  8
0
  6
Continuous
 62
     7
370
    18
100
AcDbLine
 10
344.4360066167
 20
402.5435859226
 30
0.0
 11
344.4360066167
 21
424.5435859226
 31
0.0
  0
LINE
  5
229
330
222
100
AcDbEntity
  8
0
  6
Continuous
 62
     7
370
    18
100
AcDbLine
 10
169.4360066167
 20
423.5435859226
 30
0.0
 11
344.4360066167
 21
423.5435859226
 31
0.0
  0
MTEXT
  5
22A
330
222
100
AcDbEntity
  8
0
  6
Continuous
 62
     7
370
    18
100
AcDbMText
 10
254.5549037259
 20
428.0553228371
 30
0.0
 40
3.5
 41
0.0
 71
     1
 72
     1
  1
175
  7
SLDTEXTSTYLE0
 73
     1
 44
1.0
  0
ENDBLK
  5
224
330
222
100
AcDbEntity
  8
0
100
AcDbBlockEnd
  0
BLOCK
  5
22D
330
22C
100
AcDbEntity
  8
0
100
AcDbBlockBegin
  2
_D_28
 70
     0
 10
0.0
 20
0.0
 30
0.0
  3
_D_28
  1

  0
SOLID
  5
22F
330
22C
100
AcDbEntity
  8
0
  6
Continuous
 62
     7
370
    18
100
AcDbTrace
 10
129.4360066167
 20
161.5435859226
 30
0.0
 11
129.9440066167
 21
164.8455859226
 31
0.0
 12
128.9280066167
 22
164.8455859226
 32
0.0
 13
128.9280066167
 23
164.8455859226
 33
0.0
  0
SOLID
  5
230
330
22C
100
AcDbEntity
  8
0
  6
Continuous
 62
     7
370
    18
100
AcDbTrace
 10
129.4360066167
 20
401.5435859226
 30
0.0
 11
128.9280066167
 21
398.2415859226
 31
0.0
 12
129.9440066167
 22
398.2415859226
 32
0.0
 13
129.9440066167
 23
398.2415859226
 33
0.0
  0
LINE
  5
231
330
22C
100
AcDbEntity
  8
0
  6
Continuous
 62
     7
370
    18
100
AcDbLine
 10
168.4360066167
 20
161.5435859226
 30
0.0
 11
128.4360066167
 21
161.5435859226
 31
0.0
  0
LINE
  5
232
330
22C
100
AcDbEntity
  8
0
  6
Continuous
 62
     7
370
    18
100
AcDbLine
 10
168.4360066167
 20
401.5435859226
 30
0.0
 11
128.4360066167
 21
401.5435859226
 31
0.0
  0
LINE
  5
233
330
22C
100
AcDbEntity
  8
0
  6
Continuous
 62
     7
370
    18
100
AcDbLine
 10
129.4360066167
 20
161.5435859226
 30
0.0
 11
129.4360066167
 21
401.5435859226
 31
0.0
  0
MTEXT
  5
234
330
22C
100
AcDbEntity
  8
0
  6
Continuous
 62
     7
370
    18
100
AcDbMText
 10
124.9242697021
 20
276.2560985471
 30
0.0
 40
3.5
 41
0.0
 71
     1
 72
     1
  1
240
  7
SLDTEXTSTYLE0
 11
-1.608122649676637E-16
 21
1.0
 31
0.0
 73
     1
 44
1.0
  0
ENDBLK
  5
22E
330
22C
100
AcDbEntity
  8
0
100
AcDbBlockEnd
  0
BLOCK
  5
236
330
235
100
AcDbEntity
  8
0
100
AcDbBlockBegin
  2
SW_CENTERMARKSYMBOL_0
 70
     0
 10
0.0
 20
0.0
 30
0.0
  3
SW_CENTERMARKSYMBOL_0
  1

  0
LINE
  5
238
330
235
100
AcDbEntity
  8
0
  6
Continuous
 62
     0
370
     0
100
AcDbLine
 10
0.0
 20
0.0
 30
0.0
 11
0.0
 21
2.5
 31
0.0
  0
LINE
  5
239
330
235
100
AcDbEntity
  8
0
  6
Continuous
 62
     0
370
     0
100
AcDbLine
 10
0.0
 20
0.0
 30
0.0
 11
-2.5
 21
0.0
 31
0.0
  0
LINE
  5
23A
330
235
100
AcDbEntity
  8
0
  6
Continuous
 62
     0
370
     0
100
AcDbLine
 10
0.0
 20
0.0
 30
0.0
 11
0.0
 21
-2.5
 31
0.0
  0
LINE
  5
23B
330
235
100
AcDbEntity
  8
0
  6
Continuous
 62
     0
370
     0
100
AcDbLine
 10
0.0
 20
0.0
 30
0.0
 11
2.5
 21
0.0
 31
0.0
  0
LINE
  5
23C
330
235
100
AcDbEntity
  8
0
  6
Continuous
 62
     0
370
     0
100
AcDbLine
 10
0.0
 20
5.0
 30
0.0
 11
0.0
 21
9.5
 31
0.0
  0
LINE
  5
23D
330
235
100
AcDbEntity
  8
0
  6
Continuous
 62
     0
370
     0
100
AcDbLine
 10
-5.0
 20
0.0
 30
0.0
 11
-9.5
 21
0.0
 31
0.0
  0
LINE
  5
23E
330
235
100
AcDbEntity
  8
0
  6
Continuous
 62
     0
370
     0
100
AcDbLine
 10
0.0
 20
-5.0
 30
0.0
 11
0.0
 21
-9.5
 31
0.0
  0
LINE
  5
23F
330
235
100
AcDbEntity
  8
0
  6
Continuous
 62
     0
370
     0
100
AcDbLine
 10
5.0
 20
0.0
 30
0.0
 11
9.5
 21
0.0
 31
0.0
  0
ENDBLK
  5
237
330
235
100
AcDbEntity
  8
0
100
AcDbBlockEnd
  0
BLOCK
  5
242
330
241
100
AcDbEntity
  8
0
100
AcDbBlockBegin
  2
SW_CENTERMARKSYMBOL_1
 70
     0
 10
0.0
 20
0.0
 30
0.0
  3
SW_CENTERMARKSYMBOL_1
  1

  0
LINE
  5
244
330
241
100
AcDbEntity
  8
0
  6
Continuous
 62
     0
370
     0
100
AcDbLine
 10
0.0
 20
0.0
 30
0.0
 11
0.0
 21
2.5
 31
0.0
  0
LINE
  5
245
330
241
100
AcDbEntity
  8
0
  6
Continuous
 62
     0
370
     0
100
AcDbLine
 10
0.0
 20
0.0
 30
0.0
 11
-2.5
 21
0.0
 31
0.0
  0
LINE
  5
246
330
241
100
AcDbEntity
  8
0
  6
Continuous
 62
     0
370
     0
100
AcDbLine
 10
0.0
 20
0.0
 30
0.0
 11
0.0
 21
-2.5
 31
0.0
  0
LINE
  5
247
330
241
100
AcDbEntity
  8
0
  6
Continuous
 62
     0
370
     0
100
AcDbLine
 10
0.0
 20
0.0
 30
0.0
 11
2.5
 21
0.0
 31
0.0
  0
LINE
  5
248
330
241
100
AcDbEntity
  8
0
  6
Continuous
 62
     0
370
     0
100
AcDbLine
 10
0.0
 20
5.0
 30
0.0
 11
0.0
 21
9.5
 31
0.0
  0
LINE
  5
249
330
241
100
AcDbEntity
  8
0
  6
Continuous
 62
     0
370
     0
100
AcDbLine
 10
-5.0
 20
0.0
 30
0.0
 11
-9.5
 21
0.0
 31
0.0
  0
LINE
  5
24A
330
241
100
AcDbEntity
  8
0
  6
Continuous
 62
     0
370
     0
100
AcDbLine
 10
0.0
 20
-5.0
 30
0.0
 11
0.0
 21
-9.5
 31
0.0
  0
LINE
  5
24B
330
241
100
AcDbEntity
  8
0
  6
Continuous
 62
     0
370
     0
100
AcDbLine
 10
5.0
 20
0.0
 30
0.0
 11
9.5
 21
0.0
 31
0.0
  0
ENDBLK
  5
243
330
241
100
AcDbEntity
  8
0
100
AcDbBlockEnd
  0
BLOCK
  5
24E
330
24D
100
AcDbEntity
  8
0
100
AcDbBlockBegin
  2
SW_CENTERMARKSYMBOL_2
 70
     0
 10
0.0
 20
0.0
 30
0.0
  3
SW_CENTERMARKSYMBOL_2
  1

  0
LINE
  5
250
330
24D
100
AcDbEntity
  8
0
  6
Continuous
 62
     0
370
     0
100
AcDbLine
 10
0.0
 20
0.0
 30
0.0
 11
0.0
 21
2.5
 31
0.0
  0
LINE
  5
251
330
24D
100
AcDbEntity
  8
0
  6
Continuous
 62
     0
370
     0
100
AcDbLine
 10
0.0
 20
0.0
 30
0.0
 11
-2.5
 21
0.0
 31
0.0
  0
LINE
  5
252
330
24D
100
AcDbEntity
  8
0
  6
Continuous
 62
     0
370
     0
100
AcDbLine
 10
0.0
 20
0.0
 30
0.0
 11
0.0
 21
-2.5
 31
0.0
  0
LINE
  5
253
330
24D
100
AcDbEntity
  8
0
  6
Continuous
 62
     0
370
     0
100
AcDbLine
 10
0.0
 20
0.0
 30
0.0
 11
2.5
 21
0.0
 31
0.0
  0
LINE
  5
254
330
24D
100
AcDbEntity
  8
0
  6
Continuous
 62
     0
370
     0
100
AcDbLine
 10
0.0
 20
5.0
 30
0.0
 11
0.0
 21
9.5
 31
0.0
  0
LINE
  5
255
330
24D
100
AcDbEntity
  8
0
  6
Continuous
 62
     0
370
     0
100
AcDbLine
 10
-5.0
 20
0.0
 30
0.0
 11
-9.5
 21
0.0
 31
0.0
  0
LINE
  5
256
330
24D
100
AcDbEntity
  8
0
  6
Continuous
 62
     0
370
     0
100
AcDbLine
 10
0.0
 20
-5.0
 30
0.0
 11
0.0
 21
-9.5
 31
0.0
  0
LINE
  5
257
330
24D
100
AcDbEntity
  8
0
  6
Continuous
 62
     0
370
     0
100
AcDbLine
 10
5.0
 20
0.0
 30
0.0
 11
9.5
 21
0.0
 31
0.0
  0
ENDBLK
  5
24F
330
24D
100
AcDbEntity
  8
0
100
AcDbBlockEnd
  0
BLOCK
  5
25A
330
259
100
AcDbEntity
  8
0
100
AcDbBlockBegin
  2
SW_CENTERMARKSYMBOL_3
 70
     0
 10
0.0
 20
0.0
 30
0.0
  3
SW_CENTERMARKSYMBOL_3
  1

  0
LINE
  5
25C
330
259
100
AcDbEntity
  8
0
  6
Continuous
 62
     0
370
     0
100
AcDbLine
 10
0.0
 20
0.0
 30
0.0
 11
0.0
 21
2.5
 31
0.0
  0
LINE
  5
25D
330
259
100
AcDbEntity
  8
0
  6
Continuous
 62
     0
370
     0
100
AcDbLine
 10
0.0
 20
0.0
 30
0.0
 11
-2.5
 21
0.0
 31
0.0
  0
LINE
  5
25E
330
259
100
AcDbEntity
  8
0
  6
Continuous
 62
     0
370
     0
100
AcDbLine
 10
0.0
 20
0.0
 30
0.0
 11
0.0
 21
-2.5
 31
0.0
  0
LINE
  5
25F
330
259
100
AcDbEntity
  8
0
  6
Continuous
 62
     0
370
     0
100
AcDbLine
 10
0.0
 20
0.0
 30
0.0
 11
2.5
 21
0.0
 31
0.0
  0
LINE
  5
260
330
259
100
AcDbEntity
  8
0
  6
Continuous
 62
     0
370
     0
100
AcDbLine
 10
0.0
 20
5.0
 30
0.0
 11
0.0
 21
9.5
 31
0.0
  0
LINE
  5
261
330
259
100
AcDbEntity
  8
0
  6
Continuous
 62
     0
370
     0
100
AcDbLine
 10
-5.0
 20
0.0
 30
0.0
 11
-9.5
 21
0.0
 31
0.0
  0
LINE
  5
262
330
259
100
AcDbEntity
  8
0
  6
Continuous
 62
     0
370
     0
100
AcDbLine
 10
0.0
 20
-5.0
 30
0.0
 11
0.0
 21
-9.5
 31
0.0
  0
LINE
  5
263
330
259
100
AcDbEntity
  8
0
  6
Continuous
 62
     0
370
     0
100
AcDbLine
 10
5.0
 20
0.0
 30
0.0
 11
9.5
 21
0.0
 31
0.0
  0
ENDBLK
  5
25B
330
259
100
AcDbEntity
  8
0
100
AcDbBlockEnd
  0
BLOCK
  5
266
330
265
100
AcDbEntity
  8
0
100
AcDbBlockBegin
  2
SW_CENTERMARKSYMBOL_4
 70
     0
 10
0.0
 20
0.0
 30
0.0
  3
SW_CENTERMARKSYMBOL_4
  1

  0
LINE
  5
268
330
265
100
AcDbEntity
  8
0
  6
Continuous
 62
     0
370
     0
100
AcDbLine
 10
0.0
 20
0.0
 30
0.0
 11
0.0
 21
2.5
 31
0.0
  0
LINE
  5
269
330
265
100
AcDbEntity
  8
0
  6
Continuous
 62
     0
370
     0
100
AcDbLine
 10
0.0
 20
0.0
 30
0.0
 11
-2.5
 21
0.0
 31
0.0
  0
LINE
  5
26A
330
265
100
AcDbEntity
  8
0
  6
Continuous
 62
     0
370
     0
100
AcDbLine
 10
0.0
 20
0.0
 30
0.0
 11
0.0
 21
-2.5
 31
0.0
  0
LINE
  5
26B
330
265
100
AcDbEntity
  8
0
  6
Continuous
 62
     0
370
     0
100
AcDbLine
 10
0.0
 20
0.0
 30
0.0
 11
2.5
 21
0.0
 31
0.0
  0
LINE
  5
26C
330
265
100
AcDbEntity
  8
0
  6
Continuous
 62
     0
370
     0
100
AcDbLine
 10
0.0
 20
5.0
 30
0.0
 11
0.0
 21
6.75
 31
0.0
  0
LINE
  5
26D
330
265
100
AcDbEntity
  8
0
  6
Continuous
 62
     0
370
     0
100
AcDbLine
 10
-5.0
 20
0.0
 30
0.0
 11
-6.75
 21
0.0
 31
0.0
  0
LINE
  5
26E
330
265
100
AcDbEntity
  8
0
  6
Continuous
 62
     0
370
     0
100
AcDbLine
 10
0.0
 20
-5.0
 30
0.0
 11
0.0
 21
-6.75
 31
0.0
  0
LINE
  5
26F
330
265
100
AcDbEntity
  8
0
  6
Continuous
 62
     0
370
     0
100
AcDbLine
 10
5.0
 20
0.0
 30
0.0
 11
6.75
 21
0.0
 31
0.0
  0
ENDBLK
  5
267
330
265
100
AcDbEntity
  8
0
100
AcDbBlockEnd
  0
BLOCK
  5
272
330
271
100
AcDbEntity
  8
0
100
AcDbBlockBegin
  2
SW_CENTERMARKSYMBOL_5
 70
     0
 10
0.0
 20
0.0
 30
0.0
  3
SW_CENTERMARKSYMBOL_5
  1

  0
LINE
  5
274
330
271
100
AcDbEntity
  8
0
  6
Continuous
 62
     0
370
     0
100
AcDbLine
 10
0.0
 20
0.0
 30
0.0
 11
0.0
 21
2.5
 31
0.0
  0
LINE
  5
275
330
271
100
AcDbEntity
  8
0
  6
Continuous
 62
     0
370
     0
100
AcDbLine
 10
0.0
 20
0.0
 30
0.0
 11
-2.5
 21
0.0
 31
0.0
  0
LINE
  5
276
330
271
100
AcDbEntity
  8
0
  6
Continuous
 62
     0
370
     0
100
AcDbLine
 10
0.0
 20
0.0
 30
0.0
 11
0.0
 21
-2.5
 31
0.0
  0
LINE
  5
277
330
271
100
AcDbEntity
  8
0
  6
Continuous
 62
     0
370
     0
100
AcDbLine
 10
0.0
 20
0.0
 30
0.0
 11
2.5
 21
0.0
 31
0.0
  0
LINE
  5
278
330
271
100
AcDbEntity
  8
0
  6
Continuous
 62
     0
370
     0
100
AcDbLine
 10
0.0
 20
5.0
 30
0.0
 11
0.0
 21
6.75
 31
0.0
  0
LINE
  5
279
330
271
100
AcDbEntity
  8
0
  6
Continuous
 62
     0
370
     0
100
AcDbLine
 10
-5.0
 20
0.0
 30
0.0
 11
-6.75
 21
0.0
 31
0.0
  0
LINE
  5
27A
330
271
100
AcDbEntity
  8
0
  6
Continuous
 62
     0
370
     0
100
AcDbLine
 10
0.0
 20
-5.0
 30
0.0
 11
0.0
 21
-6.75
 31
0.0
  0
LINE
  5
27B
330
271
100
AcDbEntity
  8
0
  6
Continuous
 62
     0
370
     0
100
AcDbLine
 10
5.0
 20
0.0
 30
0.0
 11
6.75
 21
0.0
 31
0.0
  0
ENDBLK
  5
273
330
271
100
AcDbEntity
  8
0
100
AcDbBlockEnd
  0
BLOCK
  5
27E
330
27D
100
AcDbEntity
  8
0
100
AcDbBlockBegin
  2
SW_CENTERMARKSYMBOL_6
 70
     0
 10
0.0
 20
0.0
 30
0.0
  3
SW_CENTERMARKSYMBOL_6
  1

  0
LINE
  5
280
330
27D
100
AcDbEntity
  8
0
  6
Continuous
 62
     0
370
     0
100
AcDbLine
 10
0.0
 20
0.0
 30
0.0
 11
0.0
 21
2.5
 31
0.0
  0
LINE
  5
281
330
27D
100
AcDbEntity
  8
0
  6
Continuous
 62
     0
370
     0
100
AcDbLine
 10
0.0
 20
0.0
 30
0.0
 11
-2.5
 21
0.0
 31
0.0
  0
LINE
  5
282
330
27D
100
AcDbEntity
  8
0
  6
Continuous
 62
     0
370
     0
100
AcDbLine
 10
0.0
 20
0.0
 30
0.0
 11
0.0
 21
-2.5
 31
0.0
  0
LINE
  5
283
330
27D
100
AcDbEntity
  8
0
  6
Continuous
 62
     0
370
     0
100
AcDbLine
 10
0.0
 20
0.0
 30
0.0
 11
2.5
 21
0.0
 31
0.0
  0
LINE
  5
284
330
27D
100
AcDbEntity
  8
0
  6
Continuous
 62
     0
370
     0
100
AcDbLine
 10
0.0
 20
5.0
 30
0.0
 11
0.0
 21
6.75
 31
0.0
  0
LINE
  5
285
330
27D
100
AcDbEntity
  8
0
  6
Continuous
 62
     0
370
     0
100
AcDbLine
 10
-5.0
 20
0.0
 30
0.0
 11
-6.75
 21
0.0
 31
0.0
  0
LINE
  5
286
330
27D
100
AcDbEntity
  8
0
  6
Continuous
 62
     0
370
     0
100
AcDbLine
 10
0.0
 20
-5.0
 30
0.0
 11
0.0
 21
-6.75
 31
0.0
  0
LINE
  5
287
330
27D
100
AcDbEntity
  8
0
  6
Continuous
 62
     0
370
     0
100
AcDbLine
 10
5.0
 20
0.0
 30
0.0
 11
6.75
 21
0.0
 31
0.0
  0
ENDBLK
  5
27F
330
27D
100
AcDbEntity
  8
0
100
AcDbBlockEnd
  0
BLOCK
  5
28A
330
289
100
AcDbEntity
  8
0
100
AcDbBlockBegin
  2
SW_CENTERMARKSYMBOL_7
 70
     0
 10
0.0
 20
0.0
 30
0.0
  3
SW_CENTERMARKSYMBOL_7
  1

  0
LINE
  5
28C
330
289
100
AcDbEntity
  8
0
  6
Continuous
 62
     0
370
     0
100
AcDbLine
 10
0.0
 20
0.0
 30
0.0
 11
0.0
 21
2.5
 31
0.0
  0
LINE
  5
28D
330
289
100
AcDbEntity
  8
0
  6
Continuous
 62
     0
370
     0
100
AcDbLine
 10
0.0
 20
0.0
 30
0.0
 11
-2.5
 21
0.0
 31
0.0
  0
LINE
  5
28E
330
289
100
AcDbEntity
  8
0
  6
Continuous
 62
     0
370
     0
100
AcDbLine
 10
0.0
 20
0.0
 30
0.0
 11
0.0
 21
-2.5
 31
0.0
  0
LINE
  5
28F
330
289
100
AcDbEntity
  8
0
  6
Continuous
 62
     0
370
     0
100
AcDbLine
 10
0.0
 20
0.0
 30
0.0
 11
2.5
 21
0.0
 31
0.0
  0
LINE
  5
290
330
289
100
AcDbEntity
  8
0
  6
Continuous
 62
     0
370
     0
100
AcDbLine
 10
0.0
 20
5.0
 30
0.0
 11
0.0
 21
6.75
 31
0.0
  0
LINE
  5
291
330
289
100
AcDbEntity
  8
0
  6
Continuous
 62
     0
370
     0
100
AcDbLine
 10
-5.0
 20
0.0
 30
0.0
 11
-6.75
 21
0.0
 31
0.0
  0
LINE
  5
292
330
289
100
AcDbEntity
  8
0
  6
Continuous
 62
     0
370
     0
100
AcDbLine
 10
0.0
 20
-5.0
 30
0.0
 11
0.0
 21
-6.75
 31
0.0
  0
LINE
  5
293
330
289
100
AcDbEntity
  8
0
  6
Continuous
 62
     0
370
     0
100
AcDbLine
 10
5.0
 20
0.0
 30
0.0
 11
6.75
 21
0.0
 31
0.0
  0
ENDBLK
  5
28B
330
289
100
AcDbEntity
  8
0
100
AcDbBlockEnd
  0
BLOCK
  5
296
330
295
100
AcDbEntity
  8
0
100
AcDbBlockBegin
  2
SW_CENTERMARKSYMBOL_8
 70
     0
 10
0.0
 20
0.0
 30
0.0
  3
SW_CENTERMARKSYMBOL_8
  1

  0
LINE
  5
298
330
295
100
AcDbEntity
  8
0
  6
Continuous
 62
     0
370
     0
100
AcDbLine
 10
0.0
 20
0.0
 30
0.0
 11
0.0
 21
2.5
 31
0.0
  0
LINE
  5
299
330
295
100
AcDbEntity
  8
0
  6
Continuous
 62
     0
370
     0
100
AcDbLine
 10
0.0
 20
0.0
 30
0.0
 11
-2.5
 21
0.0
 31
0.0
  0
LINE
  5
29A
330
295
100
AcDbEntity
  8
0
  6
Continuous
 62
     0
370
     0
100
AcDbLine
 10
0.0
 20
0.0
 30
0.0
 11
0.0
 21
-2.5
 31
0.0
  0
LINE
  5
29B
330
295
100
AcDbEntity
  8
0
  6
Continuous
 62
     0
370
     0
100
AcDbLine
 10
0.0
 20
0.0
 30
0.0
 11
2.5
 21
0.0
 31
0.0
  0
LINE
  5
29C
330
295
100
AcDbEntity
  8
0
  6
Continuous
 62
     0
370
     0
100
AcDbLine
 10
0.0
 20
5.0
 30
0.0
 11
0.0
 21
6.75
 31
0.0
  0
LINE
  5
29D
330
295
100
AcDbEntity
  8
0
  6
Continuous
 62
     0
370
     0
100
AcDbLine
 10
-5.0
 20
0.0
 30
0.0
 11
-6.75
 21
0.0
 31
0.0
  0
LINE
  5
29E
330
295
100
AcDbEntity
  8
0
  6
Continuous
 62
     0
370
     0
100
AcDbLine
 10
0.0
 20
-5.0
 30
0.0
 11
0.0
 21
-6.75
 31
0.0
  0
LINE
  5
29F
330
295
100
AcDbEntity
  8
0
  6
Continuous
 62
     0
370
     0
100
AcDbLine
 10
5.0
 20
0.0
 30
0.0
 11
6.75
 21
0.0
 31
0.0
  0
ENDBLK
  5
297
330
295
100
AcDbEntity
  8
0
100
AcDbBlockEnd
  0
BLOCK
  5
2A2
330
2A1
100
AcDbEntity
  8
0
100
AcDbBlockBegin
  2
SW_CENTERMARKSYMBOL_9
 70
     0
 10
0.0
 20
0.0
 30
0.0
  3
SW_CENTERMARKSYMBOL_9
  1

  0
LINE
  5
2A4
330
2A1
100
AcDbEntity
  8
0
  6
Continuous
 62
     0
370
     0
100
AcDbLine
 10
0.0
 20
0.0
 30
0.0
 11
0.0
 21
2.5
 31
0.0
  0
LINE
  5
2A5
330
2A1
100
AcDbEntity
  8
0
  6
Continuous
 62
     0
370
     0
100
AcDbLine
 10
0.0
 20
0.0
 30
0.0
 11
-2.5
 21
0.0
 31
0.0
  0
LINE
  5
2A6
330
2A1
100
AcDbEntity
  8
0
  6
Continuous
 62
     0
370
     0
100
AcDbLine
 10
0.0
 20
0.0
 30
0.0
 11
0.0
 21
-2.5
 31
0.0
  0
LINE
  5
2A7
330
2A1
100
AcDbEntity
  8
0
  6
Continuous
 62
     0
370
     0
100
AcDbLine
 10
0.0
 20
0.0
 30
0.0
 11
2.5
 21
0.0
 31
0.0
  0
LINE
  5
2A8
330
2A1
100
AcDbEntity
  8
0
  6
Continuous
 62
     0
370
     0
100
AcDbLine
 10
0.0
 20
5.0
 30
0.0
 11
0.0
 21
6.75
 31
0.0
  0
LINE
  5
2A9
330
2A1
100
AcDbEntity
  8
0
  6
Continuous
 62
     0
370
     0
100
AcDbLine
 10
-5.0
 20
0.0
 30
0.0
 11
-6.75
 21
0.0
 31
0.0
  0
LINE
  5
2AA
330
2A1
100
AcDbEntity
  8
0
  6
Continuous
 62
     0
370
     0
100
AcDbLine
 10
0.0
 20
-5.0
 30
0.0
 11
0.0
 21
-6.75
 31
0.0
  0
LINE
  5
2AB
330
2A1
100
AcDbEntity
  8
0
  6
Continuous
 62
     0
370
     0
100
AcDbLine
 10
5.0
 20
0.0
 30
0.0
 11
6.75
 21
0.0
 31
0.0
  0
ENDBLK
  5
2A3
330
2A1
100
AcDbEntity
  8
0
100
AcDbBlockEnd
  0
BLOCK
  5
2AE
330
2AD
100
AcDbEntity
  8
0
100
AcDbBlockBegin
  2
SW_CENTERMARKSYMBOL_10
 70
     0
 10
0.0
 20
0.0
 30
0.0
  3
SW_CENTERMARKSYMBOL_10
  1

  0
LINE
  5
2B0
330
2AD
100
AcDbEntity
  8
0
  6
Continuous
 62
     0
370
     0
100
AcDbLine
 10
0.0
 20
0.0
 30
0.0
 11
0.0
 21
2.5
 31
0.0
  0
LINE
  5
2B1
330
2AD
100
AcDbEntity
  8
0
  6
Continuous
 62
     0
370
     0
100
AcDbLine
 10
0.0
 20
0.0
 30
0.0
 11
-2.5
 21
0.0
 31
0.0
  0
LINE
  5
2B2
330
2AD
100
AcDbEntity
  8
0
  6
Continuous
 62
     0
370
     0
100
AcDbLine
 10
0.0
 20
0.0
 30
0.0
 11
0.0
 21
-2.5
 31
0.0
  0
LINE
  5
2B3
330
2AD
100
AcDbEntity
  8
0
  6
Continuous
 62
     0
370
     0
100
AcDbLine
 10
0.0
 20
0.0
 30
0.0
 11
2.5
 21
0.0
 31
0.0
  0
LINE
  5
2B4
330
2AD
100
AcDbEntity
  8
0
  6
Continuous
 62
     0
370
     0
100
AcDbLine
 10
0.0
 20
5.0
 30
0.0
 11
0.0
 21
8.5
 31
0.0
  0
LINE
  5
2B5
330
2AD
100
AcDbEntity
  8
0
  6
Continuous
 62
     0
370
     0
100
AcDbLine
 10
-5.0
 20
0.0
 30
0.0
 11
-8.5
 21
0.0
 31
0.0
  0
LINE
  5
2B6
330
2AD
100
AcDbEntity
  8
0
  6
Continuous
 62
     0
370
     0
100
AcDbLine
 10
0.0
 20
-5.0
 30
0.0
 11
0.0
 21
-8.5
 31
0.0
  0
LINE
  5
2B7
330
2AD
100
AcDbEntity
  8
0
  6
Continuous
 62
     0
370
     0
100
AcDbLine
 10
5.0
 20
0.0
 30
0.0
 11
8.5
 21
0.0
 31
0.0
  0
ENDBLK
  5
2AF
330
2AD
100
AcDbEntity
  8
0
100
AcDbBlockEnd
  0
BLOCK
  5
2BA
330
2B9
100
AcDbEntity
  8
0
100
AcDbBlockBegin
  2
SW_CENTERMARKSYMBOL_11
 70
     0
 10
0.0
 20
0.0
 30
0.0
  3
SW_CENTERMARKSYMBOL_11
  1

  0
LINE
  5
2BC
330
2B9
100
AcDbEntity
  8
0
  6
Continuous
 62
     0
370
     0
100
AcDbLine
 10
0.0
 20
0.0
 30
0.0
 11
0.0
 21
2.5
 31
0.0
  0
LINE
  5
2BD
330
2B9
100
AcDbEntity
  8
0
  6
Continuous
 62
     0
370
     0
100
AcDbLine
 10
0.0
 20
0.0
 30
0.0
 11
-2.5
 21
0.0
 31
0.0
  0
LINE
  5
2BE
330
2B9
100
AcDbEntity
  8
0
  6
Continuous
 62
     0
370
     0
100
AcDbLine
 10
0.0
 20
0.0
 30
0.0
 11
0.0
 21
-2.5
 31
0.0
  0
LINE
  5
2BF
330
2B9
100
AcDbEntity
  8
0
  6
Continuous
 62
     0
370
     0
100
AcDbLine
 10
0.0
 20
0.0
 30
0.0
 11
2.5
 21
0.0
 31
0.0
  0
LINE
  5
2C0
330
2B9
100
AcDbEntity
  8
0
  6
Continuous
 62
     0
370
     0
100
AcDbLine
 10
0.0
 20
5.0
 30
0.0
 11
0.0
 21
8.5
 31
0.0
  0
LINE
  5
2C1
330
2B9
100
AcDbEntity
  8
0
  6
Continuous
 62
     0
370
     0
100
AcDbLine
 10
-5.0
 20
0.0
 30
0.0
 11
-8.5
 21
0.0
 31
0.0
  0
LINE
  5
2C2
330
2B9
100
AcDbEntity
  8
0
  6
Continuous
 62
     0
370
     0
100
AcDbLine
 10
0.0
 20
-5.0
 30
0.0
 11
0.0
 21
-8.5
 31
0.0
  0
LINE
  5
2C3
330
2B9
100
AcDbEntity
  8
0
  6
Continuous
 62
     0
370
     0
100
AcDbLine
 10
5.0
 20
0.0
 30
0.0
 11
8.5
 21
0.0
 31
0.0
  0
ENDBLK
  5
2BB
330
2B9
100
AcDbEntity
  8
0
100
AcDbBlockEnd
  0
BLOCK
  5
2E0
330
2DF
100
AcDbEntity
  8
0
100
AcDbBlockBegin
  2
SW_DOWELSYMBOL_0
 70
     0
 10
0.0
 20
0.0
 30
0.0
  3
SW_DOWELSYMBOL_0
  1

  0
CIRCLE
  5
2E2
330
2DF
100
AcDbEntity
  8
0
  6
Continuous
 62
     0
370
     0
100
AcDbCircle
 10
0.0
 20
0.0
 30
0.0
 40
6.000000000000005
  0
HATCH
  5
2E3
330
2DF
100
AcDbEntity
  8
0
  6
Continuous
 62
     0
370
     0
100
AcDbHatch
 10
0.0
 20
0.0
 30
0.0
210
0.0
220
0.0
230
1.0
  2
SOLID
 70
     1
 71
     0
 91
        1
 92
        0
 93
        3
 72
     2
 10
0.0
 20
0.0
 40
6.000000000000005
 50
0.0
 51
90.0
 73
     1
 72
     1
 10
0.0
 20
6.000000000000005
 11
0.0
 21
0.0
 72
     1
 10
0.0
 20
0.0
 11
6.000000000000005
 21
0.0
 97
        0
 75
     0
 76
     1
 98
        1
 10
0.0
 20
0.0
  0
HATCH
  5
2E4
330
2DF
100
AcDbEntity
  8
0
  6
Continuous
 62
     0
370
     0
100
AcDbHatch
 10
0.0
 20
0.0
 30
0.0
210
0.0
220
0.0
230
1.0
  2
SOLID
 70
     1
 71
     0
 91
        1
 92
        0
 93
        3
 72
     2
 10
0.0
 20
0.0
 40
6.000000000000005
 50
180.0
 51
270.0000000000008
 73
     1
 72
     1
 10
0.0
 20
-6.000000000000005
 11
0.0
 21
0.0
 72
     1
 10
0.0
 20
0.0
 11
-6.000000000000005
 21
0.0
 97
        0
 75
     0
 76
     1
 98
        1
 10
0.0
 20
0.0
  0
ENDBLK
  5
2E1
330
2DF
100
AcDbEntity
  8
0
100
AcDbBlockEnd
  0
BLOCK
  5
2E7
330
2E6
100
AcDbEntity
  8
0
100
AcDbBlockBegin
  2
SW_DOWELSYMBOL_1
 70
     0
 10
0.0
 20
0.0
 30
0.0
  3
SW_DOWELSYMBOL_1
  1

  0
CIRCLE
  5
2E9
330
2E6
100
AcDbEntity
  8
0
  6
Continuous
 62
     0
370
     0
100
AcDbCircle
 10
0.0
 20
0.0
 30
0.0
 40
6.000000000000005
  0
HATCH
  5
2EA
330
2E6
100
AcDbEntity
  8
0
  6
Continuous
 62
     0
370
     0
100
AcDbHatch
 10
0.0
 20
0.0
 30
0.0
210
0.0
220
0.0
230
1.0
  2
SOLID
 70
     1
 71
     0
 91
        1
 92
        0
 93
        3
 72
     2
 10
0.0
 20
0.0
 40
6.000000000000005
 50
0.0
 51
90.0
 73
     1
 72
     1
 10
0.0
 20
6.000000000000005
 11
0.0
 21
0.0
 72
     1
 10
0.0
 20
0.0
 11
6.000000000000005
 21
0.0
 97
        0
 75
     0
 76
     1
 98
        1
 10
0.0
 20
0.0
  0
HATCH
  5
2EB
330
2E6
100
AcDbEntity
  8
0
  6
Continuous
 62
     0
370
     0
100
AcDbHatch
 10
0.0
 20
0.0
 30
0.0
210
0.0
220
0.0
230
1.0
  2
SOLID
 70
     1
 71
     0
 91
        1
 92
        0
 93
        3
 72
     2
 10
0.0
 20
0.0
 40
6.000000000000005
 50
180.0
 51
270.0000000000008
 73
     1
 72
     1
 10
0.0
 20
-6.000000000000005
 11
0.0
 21
0.0
 72
     1
 10
0.0
 20
0.0
 11
-6.000000000000005
 21
0.0
 97
        0
 75
     0
 76
     1
 98
        1
 10
0.0
 20
0.0
  0
ENDBLK
  5
2E8
330
2E6
100
AcDbEntity
  8
0
100
AcDbBlockEnd
  0
BLOCK
  5
317
330
316
100
AcDbEntity
  8
0
100
AcDbBlockBegin
  2
_D_29
 70
     0
 10
0.0
 20
0.0
 30
0.0
  3
_D_29
  1

  0
SOLID
  5
319
330
316
100
AcDbEntity
  8
0
  6
Continuous
 62
     7
370
    18
100
AcDbTrace
 10
189.4360066167
 20
540.7531640283
 30
0.0
 11
186.1340066167
 21
541.2611640283
 31
0.0
 12
186.1340066167
 22
540.2451640283
 32
0.0
 13
186.1340066167
 23
540.2451640283
 33
0.0
  0
SOLID
  5
31A
330
316
100
AcDbEntity
  8
0
  6
Continuous
 62
     7
370
    18
100
AcDbTrace
 10
179.4360066167
 20
540.7531640283
 30
0.0
 11
182.7380066167
 21
540.2451640283
 31
0.0
 12
182.7380066167
 22
541.2611640283
 32
0.0
 13
182.7380066167
 23
541.2611640283
 33
0.0
  0
LINE
  5
31B
330
316
100
AcDbEntity
  8
0
  6
Continuous
 62
     7
370
    18
100
AcDbLine
 10
189.4360066167
 20
531.7531640283
 30
0.0
 11
189.4360066167
 21
541.7531640283
 31
0.0
  0
LINE
  5
31C
330
316
100
AcDbEntity
  8
0
  6
Continuous
 62
     7
370
    18
100
AcDbLine
 10
179.4360066167
 20
531.7531640283
 30
0.0
 11
179.4360066167
 21
541.7531640283
 31
0.0
  0
LINE
  5
31D
330
316
100
AcDbEntity
  8
0
  6
Continuous
 62
     7
370
    18
100
AcDbLine
 10
189.4360066167
 20
540.7531640283
 30
0.0
 11
203.2398377591
 21
540.7531640283
 31
0.0
  0
LINE
  5
31E
330
316
100
AcDbEntity
  8
0
  6
Continuous
 62
     7
370
    18
100
AcDbLine
 10
189.4360066167
 20
540.7531640283
 30
0.0
 11
179.4360066167
 21
540.7531640283
 31
0.0
  0
MTEXT
  5
31F
330
316
100
AcDbEntity
  8
0
  6
Continuous
 62
     7
370
    18
100
AcDbMText
 10
193.780114972
 20
545.2649009429
 30
0.0
 40
3.5
 41
0.0
 71
     1
 72
     1
  1
M10
  7
SLDTEXTSTYLE0
 73
     1
 44
1.0
  0
ENDBLK
  5
318
330
316
100
AcDbEntity
  8
0
100
AcDbBlockEnd
  0
BLOCK
  5
323
330
322
100
AcDbEntity
  8
0
100
AcDbBlockBegin
  2
_D_30
 70
     0
 10
0.0
 20
0.0
 30
0.0
  3
_D_30
  1

  0
SOLID
  5
325
330
322
100
AcDbEntity
  8
0
  6
Continuous
 62
     7
370
    18
100
AcDbTrace
 10
317.4360066167
 20
540.7531640283
 30
0.0
 11
314.1340066167
 21
541.2611640283
 31
0.0
 12
314.1340066167
 22
540.2451640283
 32
0.0
 13
314.1340066167
 23
540.2451640283
 33
0.0
  0
SOLID
  5
326
330
322
100
AcDbEntity
  8
0
  6
Continuous
 62
     7
370
    18
100
AcDbTrace
 10
331.4360066167
 20
540.7531640283
 30
0.0
 11
334.7380066167
 21
540.2451640283
 31
0.0
 12
334.7380066167
 22
541.2611640283
 32
0.0
 13
334.7380066167
 23
541.2611640283
 33
0.0
  0
LINE
  5
327
330
322
100
AcDbEntity
  8
0
  6
Continuous
 62
     7
370
    18
100
AcDbLine
 10
317.4360066167
 20
531.7531640283
 30
0.0
 11
317.4360066167
 21
541.7531640283
 31
0.0
  0
LINE
  5
328
330
322
100
AcDbEntity
  8
0
  6
Continuous
 62
     7
370
    18
100
AcDbLine
 10
331.4360066167
 20
531.7531640283
 30
0.0
 11
331.4360066167
 21
541.7531640283
 31
0.0
  0
LINE
  5
329
330
322
100
AcDbEntity
  8
0
  6
Continuous
 62
     7
370
    18
100
AcDbLine
 10
317.4360066167
 20
540.7531640283
 30
0.0
 11
311.0860066167
 21
540.7531640283
 31
0.0
  0
LINE
  5
32A
330
322
100
AcDbEntity
  8
0
  6
Continuous
 62
     7
370
    18
100
AcDbLine
 10
317.4360066167
 20
540.7531640283
 30
0.0
 11
331.4360066167
 21
540.7531640283
 31
0.0
  0
LINE
  5
32B
330
322
100
AcDbEntity
  8
0
  6
Continuous
 62
     7
370
    18
100
AcDbLine
 10
331.4360066167
 20
540.7531640283
 30
0.0
 11
337.7860066167
 21
540.7531640283
 31
0.0
  0
MTEXT
  5
32C
330
322
100
AcDbEntity
  8
0
  6
Continuous
 62
     7
370
    18
100
AcDbMText
 10
319.4671212527
 20
545.2649011175
 30
0.0
 40
3.5
 41
0.0
 71
     1
 72
     1
  1
%%c
  7
SLDTEXTSTYLE0
 73
     1
 44
1.0
  0
MTEXT
  5
32D
330
322
100
AcDbEntity
  8
0
  6
Continuous
 62
     7
370
    18
100
AcDbMText
 10
324.745558651
 20
545.3183732942
 30
0.0
 40
3.5
 41
0.0
 71
     1
 72
     1
  1
14
  7
SLDTEXTSTYLE0
 73
     1
 44
1.0
  0
ENDBLK
  5
324
330
322
100
AcDbEntity
  8
0
100
AcDbBlockEnd
  0
BLOCK
  5
330
330
32F
100
AcDbEntity
  8
0
100
AcDbBlockBegin
  2
_D_31
 70
     0
 10
0.0
 20
0.0
 30
0.0
  3
_D_31
  1

  0
SOLID
  5
332
330
32F
100
AcDbEntity
  8
0
  6
Continuous
 62
     7
370
    18
100
AcDbTrace
 10
354.4360066167
 20
530.7531640283
 30
0.0
 11
354.9440066167
 21
534.0551640283
 31
0.0
 12
353.9280066167
 22
534.0551640283
 32
0.0
 13
353.9280066167
 23
534.0551640283
 33
0.0
  0
SOLID
  5
333
330
32F
100
AcDbEntity
  8
0
  6
Continuous
 62
     7
370
    18
100
AcDbTrace
 10
354.4360066167
 20
525.7531640283
 30
0.0
 11
353.9280066167
 21
522.4511640283
 31
0.0
 12
354.9440066167
 22
522.4511640283
 32
0.0
 13
354.9440066167
 23
522.4511640283
 33
0.0
  0
LINE
  5
334
330
32F
100
AcDbEntity
  8
0
  6
Continuous
 62
     7
370
    18
100
AcDbLine
 10
345.4360066167
 20
530.7531640283
 30
0.0
 11
355.4360066167
 21
530.7531640283
 31
0.0
  0
LINE
  5
335
330
32F
100
AcDbEntity
  8
0
  6
Continuous
 62
     7
370
    18
100
AcDbLine
 10
332.4360066167
 20
525.7531640283
 30
0.0
 11
355.4360066167
 21
525.7531640283
 31
0.0
  0
LINE
  5
336
330
32F
100
AcDbEntity
  8
0
  6
Continuous
 62
     7
370
    18
100
AcDbLine
 10
354.4360066167
 20
530.7531640283
 30
0.0
 11
354.4360066167
 21
542.0462196251
 31
0.0
  0
LINE
  5
337
330
32F
100
AcDbEntity
  8
0
  6
Continuous
 62
     7
370
    18
100
AcDbLine
 10
354.4360066167
 20
530.7531640283
 30
0.0
 11
354.4360066167
 21
525.7531640283
 31
0.0
  0
LINE
  5
338
330
32F
100
AcDbEntity
  8
0
  6
Continuous
 62
     7
370
    18
100
AcDbLine
 10
354.4360066167
 20
525.7531640283
 30
0.0
 11
354.4360066167
 21
519.4031640283
 31
0.0
  0
MTEXT
  5
339
330
32F
100
AcDbEntity
  8
0
  6
Continuous
 62
     7
370
    18
100
AcDbMText
 10
349.9242697021
 20
539.4601084315
 30
0.0
 40
3.5
 41
0.0
 71
     1
 72
     1
  1
5
  7
SLDTEXTSTYLE0
 11
-7.044195017643634E-15
 21
1.0
 31
0.0
 73
     1
 44
1.0
  0
ENDBLK
  5
331
330
32F
100
AcDbEntity
  8
0
100
AcDbBlockEnd
  0
BLOCK
  5
33C
330
33B
100
AcDbEntity
  8
0
100
AcDbBlockBegin
  2
_D_32
 70
     0
 10
0.0
 20
0.0
 30
0.0
  3
_D_32
  1

  0
SOLID
  5
33E
330
33B
100
AcDbEntity
  8
0
  6
Continuous
 62
     7
370
    18
100
AcDbTrace
 10
319.4360066167
 20
492.7531640283
 30
0.0
 11
322.7380066167
 21
492.2451640283
 31
0.0
 12
322.7380066167
 22
493.2611640283
 32
0.0
 13
322.7380066167
 23
493.2611640283
 33
0.0
  0
SOLID
  5
33F
330
33B
100
AcDbEntity
  8
0
  6
Continuous
 62
     7
370
    18
100
AcDbTrace
 10
329.4360066167
 20
492.7531640283
 30
0.0
 11
326.1340066167
 21
493.2611640283
 31
0.0
 12
326.1340066167
 22
492.2451640283
 32
0.0
 13
326.1340066167
 23
492.2451640283
 33
0.0
  0
LINE
  5
340
330
33B
100
AcDbEntity
  8
0
  6
Continuous
 62
     7
370
    18
100
AcDbLine
 10
319.4360066167
 20
501.7531640283
 30
0.0
 11
319.4360066167
 21
491.7531640283
 31
0.0
  0
LINE
  5
341
330
33B
100
AcDbEntity
  8
0
  6
Continuous
 62
     7
370
    18
100
AcDbLine
 10
329.4360066167
 20
501.7531640283
 30
0.0
 11
329.4360066167
 21
491.7531640283
 31
0.0
  0
LINE
  5
342
330
33B
100
AcDbEntity
  8
0
  6
Continuous
 62
     7
370
    18
100
AcDbLine
 10
319.4360066167
 20
492.7531640283
 30
0.0
 11
329.4360066167
 21
492.7531640283
 31
0.0
  0
LINE
  5
343
330
33B
100
AcDbEntity
  8
0
  6
Continuous
 62
     7
370
    18
100
AcDbLine
 10
329.4360066167
 20
492.7531640283
 30
0.0
 11
346.7967674238
 21
492.7531640283
 31
0.0
  0
MTEXT
  5
344
330
33B
100
AcDbEntity
  8
0
  6
Continuous
 62
     7
370
    18
100
AcDbMText
 10
330.571107204
 20
497.2649011175
 30
0.0
 40
3.5
 41
0.0
 71
     1
 72
     1
  1
%%c
  7
SLDTEXTSTYLE0
 73
     1
 44
1.0
  0
MTEXT
  5
345
330
33B
100
AcDbEntity
  8
0
  6
Continuous
 62
     7
370
    18
100
AcDbMText
 10
335.8495446024
 20
497.3183732942
 30
0.0
 40
3.5
 41
0.0
 71
     1
 72
     1
  1
10
  7
SLDTEXTSTYLE0
 73
     1
 44
1.0
  0
MTEXT
  5
346
330
33B
100
AcDbEntity
  8
0
  6
Continuous
 62
     7
370
    18
100
AcDbMText
 10
341.0217665238
 20
497.3183732942
 30
0.0
 40
3.5
 41
0.0
 71
     1
 72
     1
  1
H7
  7
SLDTEXTSTYLE0
 73
     1
 44
1.0
  0
ENDBLK
  5
33D
330
33B
100
AcDbEntity
  8
0
100
AcDbBlockEnd
  0
BLOCK
  5
37A
330
379
100
AcDbEntity
  8
0
100
AcDbBlockBegin
  2
_D_33
 70
     0
 10
0.0
 20
0.0
 30
0.0
  3
_D_33
  1

  0
SOLID
  5
37C
330
379
100
AcDbEntity
  8
0
  6
Continuous
 62
     7
370
    18
100
AcDbTrace
 10
63.6954313678
 20
417.5435859226
 30
0.0
 11
60.3934313678
 21
418.0515859226
 31
0.0
 12
60.3934313678
 22
417.0355859226
 32
0.0
 13
60.3934313678
 23
417.0355859226
 33
0.0
  0
SOLID
  5
37D
330
379
100
AcDbEntity
  8
0
  6
Continuous
 62
     7
370
    18
100
AcDbTrace
 10
35.6954313678
 20
417.5435859226
 30
0.0
 11
38.9974313678
 21
417.0355859226
 31
0.0
 12
38.9974313678
 22
418.0515859226
 32
0.0
 13
38.9974313678
 23
418.0515859226
 33
0.0
  0
LINE
  5
37E
330
379
100
AcDbEntity
  8
0
  6
Continuous
 62
     7
370
    18
100
AcDbLine
 10
63.6954313678
 20
402.5435859226
 30
0.0
 11
63.6954313678
 21
418.5435859226
 31
0.0
  0
LINE
  5
37F
330
379
100
AcDbEntity
  8
0
  6
Continuous
 62
     7
370
    18
100
AcDbLine
 10
35.6954313678
 20
402.5435859226
 30
0.0
 11
35.6954313678
 21
418.5435859226
 31
0.0
  0
LINE
  5
380
330
379
100
AcDbEntity
  8
0
  6
Continuous
 62
     7
370
    18
100
AcDbLine
 10
63.6954313678
 20
417.5435859226
 30
0.0
 11
35.6954313678
 21
417.5435859226
 31
0.0
  0
MTEXT
  5
381
330
379
100
AcDbEntity
  8
0
  6
Continuous
 62
     7
370
    18
100
AcDbMText
 10
48.3889233085
 20
422.0553228371
 30
0.0
 40
3.5
 41
0.0
 71
     1
 72
     1
  1
28
  7
SLDTEXTSTYLE0
 73
     1
 44
1.0
  0
ENDBLK
  5
37B
330
379
100
AcDbEntity
  8
0
100
AcDbBlockEnd
  0
BLOCK
  5
384
330
383
100
AcDbEntity
  8
0
100
AcDbBlockBegin
  2
_D_34
 70
     0
 10
0.0
 20
0.0
 30
0.0
  3
_D_34
  1

  0
SOLID
  5
386
330
383
100
AcDbEntity
  8
0
  6
Continuous
 62
     7
370
    18
100
AcDbTrace
 10
25.6954313678
 20
187.5435859226
 30
0.0
 11
25.1874313678
 21
184.2415859226
 31
0.0
 12
26.2034313678
 22
184.2415859226
 32
0.0
 13
26.2034313678
 23
184.2415859226
 33
0.0
  0
SOLID
  5
387
330
383
100
AcDbEntity
  8
0
  6
Continuous
 62
     7
370
    18
100
AcDbTrace
 10
25.6954313678
 20
175.5435859226
 30
0.0
 11
26.2034313678
 21
178.8455859226
 31
0.0
 12
25.1874313678
 22
178.8455859226
 32
0.0
 13
25.1874313678
 23
178.8455859226
 33
0.0
  0
LINE
  5
388
330
383
100
AcDbEntity
  8
0
  6
Continuous
 62
     7
370
    18
100
AcDbLine
 10
34.6954313678
 20
187.5435859226
 30
0.0
 11
24.6954313678
 21
187.5435859226
 31
0.0
  0
LINE
  5
389
330
383
100
AcDbEntity
  8
0
  6
Continuous
 62
     7
370
    18
100
AcDbLine
 10
34.6954313678
 20
175.5435859226
 30
0.0
 11
24.6954313678
 21
175.5435859226
 31
0.0
  0
LINE
  5
38A
330
383
100
AcDbEntity
  8
0
  6
Continuous
 62
     7
370
    18
100
AcDbLine
 10
25.6954313678
 20
187.5435859226
 30
0.0
 11
25.6954313678
 21
200.7094740787
 31
0.0
  0
LINE
  5
38B
330
383
100
AcDbEntity
  8
0
  6
Continuous
 62
     7
370
    18
100
AcDbLine
 10
25.6954313678
 20
187.5435859226
 30
0.0
 11
25.6954313678
 21
175.5435859226
 31
0.0
  0
MTEXT
  5
38C
330
383
100
AcDbEntity
  8
0
  6
Continuous
 62
     7
370
    18
100
AcDbMText
 10
21.1836942786
 20
184.4838138589
 30
0.0
 40
3.5
 41
0.0
 71
     1
 72
     1
  1
%%c
  7
SLDTEXTSTYLE0
 11
-7.044195017643634E-15
 21
1.0
 31
0.0
 73
     1
 44
1.0
  0
MTEXT
  5
38D
330
383
100
AcDbEntity
  8
0
  6
Continuous
 62
     7
370
    18
100
AcDbMText
 10
21.1302221019
 20
189.7622512573
 30
0.0
 40
3.5
 41
0.0
 71
     1
 72
     1
  1
12
  7
SLDTEXTSTYLE0
 11
-7.044195017643634E-15
 21
1.0
 31
0.0
 73
     1
 44
1.0
  0
MTEXT
  5
38E
330
383
100
AcDbEntity
  8
0
  6
Continuous
 62
     7
370
    18
100
AcDbMText
 10
21.1302221019
 20
194.9344731787
 30
0.0
 40
3.5
 41
0.0
 71
     1
 72
     1
  1
H7
  7
SLDTEXTSTYLE0
 11
-7.044195017643634E-15
 21
1.0
 31
0.0
 73
     1
 44
1.0
  0
ENDBLK
  5
385
330
383
100
AcDbEntity
  8
0
100
AcDbBlockEnd
  0
ENDSEC
  0
SECTION
  2
ENTITIES
  0
LINE
  5
75
330
1F
100
AcDbEntity
  8
DIMENSIONS
100
AcDbLine
 10
409.5
 20
49.5
 30
0.0
 11
345.5
 21
49.5
 31
0.0
  0
LINE
  5
76
330
1F
100
AcDbEntity
  8
DIMENSIONS
100
AcDbLine
 10
345.5
 20
49.5
 30
0.0
 11
345.5
 21
64.5
 31
0.0
  0
LINE
  5
77
330
1F
100
AcDbEntity
  8
DIMENSIONS
100
AcDbLine
 10
345.5
 20
64.5
 30
0.0
 11
409.5
 21
64.5
 31
0.0
  0
LINE
  5
78
330
1F
100
AcDbEntity
  8
DIMENSIONS
100
AcDbLine
 10
409.5
 20
64.5
 30
0.0
 11
409.5
 21
49.5
 31
0.0
  0
LINE
  5
79
330
1F
100
AcDbEntity
  8
DIMENSIONS
 62
     1
100
AcDbLine
 10
409.5
 20
49.5
 30
0.0
 11
345.5
 21
49.5
 31
0.0
  0
LINE
  5
7A
330
1F
100
AcDbEntity
  8
DIMENSIONS
 62
     1
100
AcDbLine
 10
345.5
 20
49.5
 30
0.0
 11
345.5
 21
64.5
 31
0.0
  0
LINE
  5
7B
330
1F
100
AcDbEntity
  8
DIMENSIONS
 62
     1
100
AcDbLine
 10
345.5
 20
64.5
 30
0.0
 11
409.5
 21
64.5
 31
0.0
  0
LINE
  5
7C
330
1F
100
AcDbEntity
  8
DIMENSIONS
 62
     1
100
AcDbLine
 10
409.5
 20
64.5
 30
0.0
 11
409.5
 21
49.5
 31
0.0
  0
LINE
  5
7D
330
1F
100
AcDbEntity
  8
DIMENSIONS
 62
     6
100
AcDbLine
 10
409.4
 20
39.4
 30
0.0
 11
332.9840899969
 21
39.4
 31
0.0
  0
LINE
  5
7E
330
1F
100
AcDbEntity
  8
DIMENSIONS
 62
     6
100
AcDbLine
 10
332.9840899969
 20
39.4
 30
0.0
 11
332.9840899969
 21
10.6
 31
0.0
  0
LINE
  5
7F
330
1F
100
AcDbEntity
  8
DIMENSIONS
 62
     6
100
AcDbLine
 10
332.9840899969
 20
10.6
 30
0.0
 11
409.4
 21
10.6
 31
0.0
  0
LINE
  5
80
330
1F
100
AcDbEntity
  8
DIMENSIONS
 62
     6
100
AcDbLine
 10
409.4
 20
10.6
 30
0.0
 11
409.4
 21
39.4
 31
0.0
  0
LINE
  5
81
330
1F
100
AcDbEntity
  8
DIMENSIONS
 62
     6
100
AcDbLine
 10
409.6
 20
39.6
 30
0.0
 11
332.7840899969
 21
39.6
 31
0.0
  0
LINE
  5
82
330
1F
100
AcDbEntity
  8
DIMENSIONS
 62
     6
100
AcDbLine
 10
332.7840899969
 20
39.6
 30
0.0
 11
332.7840899969
 21
10.4
 31
0.0
  0
LINE
  5
83
330
1F
100
AcDbEntity
  8
DIMENSIONS
 62
     6
100
AcDbLine
 10
332.7840899969
 20
10.4
 30
0.0
 11
409.6
 21
10.4
 31
0.0
  0
LINE
  5
84
330
1F
100
AcDbEntity
  8
DIMENSIONS
 62
     6
100
AcDbLine
 10
409.6
 20
10.4
 30
0.0
 11
409.6
 21
39.6
 31
0.0
  0
LINE
  5
85
330
1F
100
AcDbEntity
  8
DIMENSIONS
 62
     6
100
AcDbLine
 10
409.8
 20
39.8
 30
0.0
 11
332.5840899969
 21
39.8
 31
0.0
  0
LINE
  5
86
330
1F
100
AcDbEntity
  8
DIMENSIONS
 62
     6
100
AcDbLine
 10
332.5840899969
 20
39.8
 30
0.0
 11
332.5840899969
 21
10.2
 31
0.0
  0
LINE
  5
87
330
1F
100
AcDbEntity
  8
DIMENSIONS
 62
     6
100
AcDbLine
 10
332.5840899969
 20
10.2
 30
0.0
 11
409.8
 21
10.2
 31
0.0
  0
LINE
  5
88
330
1F
100
AcDbEntity
  8
DIMENSIONS
 62
     6
100
AcDbLine
 10
409.8
 20
10.2
 30
0.0
 11
409.8
 21
39.8
 31
0.0
  0
LINE
  5
89
330
1F
100
AcDbEntity
  8
DIMENSIONS
 62
     6
100
AcDbLine
 10
410.0
 20
40.0
 30
0.0
 11
332.3840899969
 21
40.0
 31
0.0
  0
LINE
  5
8A
330
1F
100
AcDbEntity
  8
DIMENSIONS
 62
     6
100
AcDbLine
 10
210.0
 20
10.0
 30
0.0
 11
410.0
 21
10.0
 31
0.0
  0
LINE
  5
8B
330
1F
100
AcDbEntity
  8
DIMENSIONS
 62
     1
100
AcDbLine
 10
410.0
 20
65.0
 30
0.0
 11
308.0
 21
65.0
 31
0.0
  0
LINE
  5
8C
330
1F
100
AcDbEntity
  8
DIMENSIONS
 62
     1
100
AcDbLine
 10
210.0
 20
49.0
 30
0.0
 11
410.0
 21
49.0
 31
0.0
  0
LINE
  5
8D
330
1F
100
AcDbEntity
  8
DIMENSIONS
 62
     3
100
AcDbLine
 10
308.0
 20
57.0
 30
0.0
 11
210.0
 21
57.0
 31
0.0
  0
LINE
  5
8E
330
1F
100
AcDbEntity
  8
DIMENSIONS
 62
     1
100
AcDbLine
 10
332.3840899969
 20
20.0
 30
0.0
 11
210.0
 21
20.0
 31
0.0
  0
LINE
  5
8F
330
1F
100
AcDbEntity
  8
DIMENSIONS
 62
     1
100
AcDbLine
 10
332.3840899969
 20
40.0
 30
0.0
 11
210.0
 21
40.0
 31
0.0
  0
LINE
  5
90
330
1F
100
AcDbEntity
  8
DIMENSIONS
 62
     3
100
AcDbLine
 10
210.0
 20
53.0
 30
0.0
 11
308.0
 21
53.0
 31
0.0
  0
LINE
  5
91
330
1F
100
AcDbEntity
  8
DIMENSIONS
 62
     3
100
AcDbLine
 10
210.0
 20
61.0
 30
0.0
 11
308.0
 21
61.0
 31
0.0
  0
LINE
  5
92
330
1F
100
AcDbEntity
  8
DIMENSIONS
 62
     3
100
AcDbLine
 10
308.0
 20
65.0
 30
0.0
 11
210.0
 21
65.0
 31
0.0
  0
LINE
  5
93
330
1F
100
AcDbEntity
  8
DIMENSIONS
 62
     6
100
AcDbLine
 10
210.0
 20
65.0
 30
0.0
 11
210.0
 21
10.0
 31
0.0
  0
LINE
  5
94
330
1F
100
AcDbEntity
  8
DIMENSIONS
  6
CENTERX2
 62
     3
100
AcDbLine
 10
287.9464559643
 20
44.5
 30
0.0
 11
306.2011144836
 21
44.5
 31
0.0
  0
LINE
  5
95
330
1F
100
AcDbEntity
  8
DIMENSIONS
 62
     7
100
AcDbLine
 10
289.2436794306
 20
42.5
 30
0.0
 11
296.2436794306
 21
41.25
 31
0.0
  0
LINE
  5
96
330
1F
100
AcDbEntity
  8
DIMENSIONS
 62
     7
100
AcDbLine
 10
296.2436794306
 20
47.75
 30
0.0
 11
289.2436794306
 21
46.5
 31
0.0
  0
LINE
  5
97
330
1F
100
AcDbEntity
  8
DIMENSIONS
 62
     1
100
AcDbLine
 10
282.7915398845
 20
20.0
 30
0.0
 11
282.7915398845
 21
10.0
 31
0.0
  0
LINE
  5
98
330
1F
100
AcDbEntity
  8
DIMENSIONS
 62
     3
100
AcDbLine
 10
239.0
 20
49.0
 30
0.0
 11
239.0
 21
65.0
 31
0.0
  0
LINE
  5
99
330
1F
100
AcDbEntity
  8
DIMENSIONS
 62
     3
100
AcDbLine
 10
233.0
 20
49.0
 30
0.0
 11
233.0
 21
65.0
 31
0.0
  0
LINE
  5
9A
330
1F
100
AcDbEntity
  8
DIMENSIONS
 62
     3
100
AcDbLine
 10
219.0
 20
49.0
 30
0.0
 11
219.0
 21
65.0
 31
0.0
  0
LINE
  5
9B
330
1F
100
AcDbEntity
  8
DIMENSIONS
 62
     1
100
AcDbLine
 10
241.0
 20
49.0
 30
0.0
 11
241.0
 21
40.0
 31
0.0
  0
LINE
  5
9C
330
1F
100
AcDbEntity
  8
DIMENSIONS
 62
     1
100
AcDbLine
 10
260.7306942372
 20
49.0
 30
0.0
 11
260.7306942372
 21
40.0
 31
0.0
  0
LINE
  5
9D
330
1F
100
AcDbEntity
  8
DIMENSIONS
 62
     7
100
AcDbLine
 10
289.2436794306
 20
46.5
 30
0.0
 11
289.2436794306
 21
42.5
 31
0.0
  0
LINE
  5
9E
330
1F
100
AcDbEntity
  8
DIMENSIONS
 62
     1
100
AcDbLine
 10
285.6203361042
 20
49.0
 30
0.0
 11
285.6203361042
 21
40.0
 31
0.0
  0
LINE
  5
9F
330
1F
100
AcDbEntity
  8
DIMENSIONS
 62
     6
100
AcDbLine
 10
332.3840899969
 20
40.0
 30
0.0
 11
332.3840899969
 21
10.0
 31
0.0
  0
LINE
  5
A0
330
1F
100
AcDbEntity
  8
DIMENSIONS
 62
     1
100
AcDbLine
 10
308.0
 20
20.0
 30
0.0
 11
308.0
 21
10.0
 31
0.0
  0
LINE
  5
A1
330
1F
100
AcDbEntity
  8
DIMENSIONS
 62
     1
100
AcDbLine
 10
308.0
 20
49.0
 30
0.0
 11
308.0
 21
65.0
 31
0.0
  0
LINE
  5
A2
330
1F
100
AcDbEntity
  8
DIMENSIONS
 62
     1
100
AcDbLine
 10
308.0
 20
49.0
 30
0.0
 11
308.0
 21
40.0
 31
0.0
  0
LINE
  5
A3
330
1F
100
AcDbEntity
  8
DIMENSIONS
  6
CENTERX2
 62
     3
100
AcDbLine
 10
301.9339320285
 20
48.3479779213
 30
0.0
 11
301.9339320285
 21
40.5133183928
 31
0.0
  0
LINE
  5
A4
330
1F
100
AcDbEntity
  8
DIMENSIONS
 62
     7
100
AcDbLine
 10
296.2436794306
 20
41.25
 30
0.0
 11
296.2436794306
 21
47.75
 31
0.0
  0
LINE
  5
A5
330
1F
100
AcDbEntity
  8
DIMENSIONS
 62
     1
100
AcDbLine
 10
345.0
 20
49.0
 30
0.0
 11
345.0
 21
65.0
 31
0.0
  0
LINE
  5
A6
330
1F
100
AcDbEntity
  8
DIMENSIONS
 62
     6
100
AcDbLine
 10
410.0
 20
10.0
 30
0.0
 11
410.0
 21
65.0
 31
0.0
  0
LINE
  5
A7
330
1F
100
AcDbEntity
  8
0
  6
Continuous
 62
     7
370
    70
100
AcDbLine
 10
10.0
 20
10.0
 30
0.0
 11
10.0
 21
584.0
 31
0.0
  0
LINE
  5
A8
330
1F
100
AcDbEntity
  8
0
  6
Continuous
 62
     7
370
    70
100
AcDbLine
 10
10.0
 20
584.0
 30
0.0
 11
410.0
 21
584.0
 31
0.0
  0
LINE
  5
A9
330
1F
100
AcDbEntity
  8
0
  6
Continuous
 62
     7
370
    70
100
AcDbLine
 10
410.0
 20
584.0
 30
0.0
 11
410.0
 21
10.0
 31
0.0
  0
LINE
  5
AA
330
1F
100
AcDbEntity
  8
0
  6
Continuous
 62
     7
370
    70
100
AcDbLine
 10
410.0
 20
10.0
 30
0.0
 11
10.0
 21
10.0
 31
0.0
  0
LINE
  5
AB
330
1F
100
AcDbEntity
  8
0
  6
Continuous
 62
     7
370
    70
100
AcDbLine
 10
5.0
 20
5.0
 30
0.0
 11
5.0
 21
589.0
 31
0.0
  0
LINE
  5
AC
330
1F
100
AcDbEntity
  8
0
  6
Continuous
 62
     7
370
    70
100
AcDbLine
 10
5.0
 20
589.0
 30
0.0
 11
415.0
 21
589.0
 31
0.0
  0
LINE
  5
AD
330
1F
100
AcDbEntity
  8
0
  6
Continuous
 62
     7
370
    70
100
AcDbLine
 10
415.0
 20
589.0
 30
0.0
 11
415.0
 21
5.0
 31
0.0
  0
LINE
  5
AE
330
1F
100
AcDbEntity
  8
0
  6
Continuous
 62
     7
370
    70
100
AcDbLine
 10
415.0
 20
5.0
 30
0.0
 11
5.0
 21
5.0
 31
0.0
  0
LINE
  5
AF
330
1F
100
AcDbEntity
  8
0
  6
Continuous
 62
     7
370
    35
100
AcDbLine
 10
4.999
 20
297.0
 30
0.0
 11
15.001
 21
297.0
 31
0.0
  0
LINE
  5
B0
330
1F
100
AcDbEntity
  8
0
  6
Continuous
 62
     7
370
    35
100
AcDbLine
 10
210.0
 20
589.001
 30
0.0
 11
210.0
 21
578.999
 31
0.0
  0
LINE
  5
B1
330
1F
100
AcDbEntity
  8
0
  6
Continuous
 62
     7
370
    35
100
AcDbLine
 10
415.001
 20
297.0
 30
0.0
 11
404.999
 21
297.0
 31
0.0
  0
LINE
  5
B2
330
1F
100
AcDbEntity
  8
0
  6
Continuous
 62
     7
370
    35
100
AcDbLine
 10
210.0
 20
4.999
 30
0.0
 11
210.0
 21
15.001
 31
0.0
  0
LINE
  5
B3
330
1F
100
AcDbEntity
  8
0
  6
Continuous
 62
     7
370
    35
100
AcDbLine
 10
10.0
 20
47.0
 30
0.0
 11
5.0
 21
47.0
 31
0.0
  0
LINE
  5
B4
330
1F
100
AcDbEntity
  8
0
  6
Continuous
 62
     7
370
    35
100
AcDbLine
 10
410.0
 20
47.0
 30
0.0
 11
415.0
 21
47.0
 31
0.0
  0
LINE
  5
B5
330
1F
100
AcDbEntity
  8
0
  6
Continuous
 62
     7
370
    35
100
AcDbLine
 10
10.0
 20
97.0
 30
0.0
 11
5.0
 21
97.0
 31
0.0
  0
LINE
  5
B6
330
1F
100
AcDbEntity
  8
0
  6
Continuous
 62
     7
370
    35
100
AcDbLine
 10
410.0
 20
97.0
 30
0.0
 11
415.0
 21
97.0
 31
0.0
  0
LINE
  5
B7
330
1F
100
AcDbEntity
  8
0
  6
Continuous
 62
     7
370
    35
100
AcDbLine
 10
10.0
 20
147.0
 30
0.0
 11
5.0
 21
147.0
 31
0.0
  0
LINE
  5
B8
330
1F
100
AcDbEntity
  8
0
  6
Continuous
 62
     7
370
    35
100
AcDbLine
 10
410.0
 20
147.0
 30
0.0
 11
415.0
 21
147.0
 31
0.0
  0
LINE
  5
B9
330
1F
100
AcDbEntity
  8
0
  6
Continuous
 62
     7
370
    35
100
AcDbLine
 10
10.0
 20
197.0
 30
0.0
 11
5.0
 21
197.0
 31
0.0
  0
LINE
  5
BA
330
1F
100
AcDbEntity
  8
0
  6
Continuous
 62
     7
370
    35
100
AcDbLine
 10
410.0
 20
197.0
 30
0.0
 11
415.0
 21
197.0
 31
0.0
  0
LINE
  5
BB
330
1F
100
AcDbEntity
  8
0
  6
Continuous
 62
     7
370
    35
100
AcDbLine
 10
10.0
 20
247.0
 30
0.0
 11
5.0
 21
247.0
 31
0.0
  0
LINE
  5
BC
330
1F
100
AcDbEntity
  8
0
  6
Continuous
 62
     7
370
    35
100
AcDbLine
 10
410.0
 20
247.0
 30
0.0
 11
415.0
 21
247.0
 31
0.0
  0
LINE
  5
BD
330
1F
100
AcDbEntity
  8
0
  6
Continuous
 62
     7
370
    35
100
AcDbLine
 10
10.0
 20
297.0
 30
0.0
 11
5.0
 21
297.0
 31
0.0
  0
LINE
  5
BE
330
1F
100
AcDbEntity
  8
0
  6
Continuous
 62
     7
370
    35
100
AcDbLine
 10
410.0
 20
297.0
 30
0.0
 11
415.0
 21
297.0
 31
0.0
  0
LINE
  5
BF
330
1F
100
AcDbEntity
  8
0
  6
Continuous
 62
     7
370
    35
100
AcDbLine
 10
10.0
 20
347.0
 30
0.0
 11
5.0
 21
347.0
 31
0.0
  0
LINE
  5
C0
330
1F
100
AcDbEntity
  8
0
  6
Continuous
 62
     7
370
    35
100
AcDbLine
 10
410.0
 20
347.0
 30
0.0
 11
415.0
 21
347.0
 31
0.0
  0
LINE
  5
C1
330
1F
100
AcDbEntity
  8
0
  6
Continuous
 62
     7
370
    35
100
AcDbLine
 10
10.0
 20
397.0
 30
0.0
 11
5.0
 21
397.0
 31
0.0
  0
LINE
  5
C2
330
1F
100
AcDbEntity
  8
0
  6
Continuous
 62
     7
370
    35
100
AcDbLine
 10
410.0
 20
397.0
 30
0.0
 11
415.0
 21
397.0
 31
0.0
  0
LINE
  5
C3
330
1F
100
AcDbEntity
  8
0
  6
Continuous
 62
     7
370
    35
100
AcDbLine
 10
10.0
 20
447.0
 30
0.0
 11
5.0
 21
447.0
 31
0.0
  0
LINE
  5
C4
330
1F
100
AcDbEntity
  8
0
  6
Continuous
 62
     7
370
    35
100
AcDbLine
 10
410.0
 20
447.0
 30
0.0
 11
415.0
 21
447.0
 31
0.0
  0
LINE
  5
C5
330
1F
100
AcDbEntity
  8
0
  6
Continuous
 62
     7
370
    35
100
AcDbLine
 10
10.0
 20
497.0
 30
0.0
 11
5.0
 21
497.0
 31
0.0
  0
LINE
  5
C6
330
1F
100
AcDbEntity
  8
0
  6
Continuous
 62
     7
370
    35
100
AcDbLine
 10
410.0
 20
497.0
 30
0.0
 11
415.0
 21
497.0
 31
0.0
  0
LINE
  5
C7
330
1F
100
AcDbEntity
  8
0
  6
Continuous
 62
     7
370
    35
100
AcDbLine
 10
10.0
 20
547.0
 30
0.0
 11
5.0
 21
547.0
 31
0.0
  0
LINE
  5
C8
330
1F
100
AcDbEntity
  8
0
  6
Continuous
 62
     7
370
    35
100
AcDbLine
 10
410.0
 20
547.0
 30
0.0
 11
415.0
 21
547.0
 31
0.0
  0
LINE
  5
C9
330
1F
100
AcDbEntity
  8
0
  6
Continuous
 62
     7
370
    35
100
AcDbLine
 10
60.0
 20
584.0
 30
0.0
 11
60.0
 21
589.0
 31
0.0
  0
LINE
  5
CA
330
1F
100
AcDbEntity
  8
0
  6
Continuous
 62
     7
370
    35
100
AcDbLine
 10
60.0
 20
10.0
 30
0.0
 11
60.0
 21
5.0
 31
0.0
  0
LINE
  5
CB
330
1F
100
AcDbEntity
  8
0
  6
Continuous
 62
     7
370
    35
100
AcDbLine
 10
110.0
 20
584.0
 30
0.0
 11
110.0
 21
589.0
 31
0.0
  0
LINE
  5
CC
330
1F
100
AcDbEntity
  8
0
  6
Continuous
 62
     7
370
    35
100
AcDbLine
 10
110.0
 20
10.0
 30
0.0
 11
110.0
 21
5.0
 31
0.0
  0
LINE
  5
CD
330
1F
100
AcDbEntity
  8
0
  6
Continuous
 62
     7
370
    35
100
AcDbLine
 10
160.0
 20
584.0
 30
0.0
 11
160.0
 21
589.0
 31
0.0
  0
LINE
  5
CE
330
1F
100
AcDbEntity
  8
0
  6
Continuous
 62
     7
370
    35
100
AcDbLine
 10
160.0
 20
10.0
 30
0.0
 11
160.0
 21
5.0
 31
0.0
  0
LINE
  5
CF
330
1F
100
AcDbEntity
  8
0
  6
Continuous
 62
     7
370
    35
100
AcDbLine
 10
210.0
 20
584.0
 30
0.0
 11
210.0
 21
589.0
 31
0.0
  0
LINE
  5
D0
330
1F
100
AcDbEntity
  8
0
  6
Continuous
 62
     7
370
    35
100
AcDbLine
 10
210.0
 20
10.0
 30
0.0
 11
210.0
 21
5.0
 31
0.0
  0
LINE
  5
D1
330
1F
100
AcDbEntity
  8
0
  6
Continuous
 62
     7
370
    35
100
AcDbLine
 10
260.0
 20
584.0
 30
0.0
 11
260.0
 21
589.0
 31
0.0
  0
LINE
  5
D2
330
1F
100
AcDbEntity
  8
0
  6
Continuous
 62
     7
370
    35
100
AcDbLine
 10
260.0
 20
10.0
 30
0.0
 11
260.0
 21
5.0
 31
0.0
  0
LINE
  5
D3
330
1F
100
AcDbEntity
  8
0
  6
Continuous
 62
     7
370
    35
100
AcDbLine
 10
310.0
 20
584.0
 30
0.0
 11
310.0
 21
589.0
 31
0.0
  0
LINE
  5
D4
330
1F
100
AcDbEntity
  8
0
  6
Continuous
 62
     7
370
    35
100
AcDbLine
 10
310.0
 20
10.0
 30
0.0
 11
310.0
 21
5.0
 31
0.0
  0
LINE
  5
D5
330
1F
100
AcDbEntity
  8
0
  6
Continuous
 62
     7
370
    35
100
AcDbLine
 10
360.0
 20
584.0
 30
0.0
 11
360.0
 21
589.0
 31
0.0
  0
LINE
  5
D6
330
1F
100
AcDbEntity
  8
0
  6
Continuous
 62
     7
370
    35
100
AcDbLine
 10
360.0
 20
10.0
 30
0.0
 11
360.0
 21
5.0
 31
0.0
  0
CIRCLE
  5
D7
330
1F
100
AcDbEntity
  8
DIMENSIONS
 62
     7
100
AcDbCircle
 10
301.9339320285
 20
44.5
 30
0.0
 40
1.999999999999993
  0
CIRCLE
  5
D8
330
1F
100
AcDbEntity
  8
DIMENSIONS
 62
     7
100
AcDbCircle
 10
301.9339320285
 20
44.5
 30
0.0
 40
3.24999999999994
  0
INSERT
  5
DF
330
1F
100
AcDbEntity
  8
0
  6
Continuous
 62
     7
370
     0
100
AcDbBlockReference
  2
SW_NOTE_0
 10
373.6070878095
 20
74.8846116699
 30
0.0
  0
MTEXT
  5
E1
330
1F
100
AcDbEntity
  8
DIMENSIONS
100
AcDbMText
 10
214.6027253142
 20
27.5635148766
 30
0.0
 40
5.0
 41
0.0
 71
     1
 72
     1
  1
Matire: XC48
  7
SLDTEXTSTYLE1
 73
     1
 44
1.0
  0
MTEXT
  5
E2
330
1F
100
AcDbEntity
  8
DIMENSIONS
100
AcDbMText
 10
214.6027253142
 20
36.0243088529
 30
0.0
 40
5.0
 41
0.0
 71
     1
 72
     1
  1
0100770102-OP10-PP-B
  7
SLDTEXTSTYLE1
 73
     1
 44
1.0
  0
MTEXT
  5
E4
330
1F
100
AcDbEntity
  8
DIMENSIONS
100
AcDbMText
 10
369.5707948969
 20
33.5948758245
 30
0.0
 40
4.0
 41
0.0
 71
     2
 72
     1
  1
BEOS
  7
SLDTEXTSTYLE2
 73
     1
 44
1.0
  0
MTEXT
  5
E6
330
1F
100
AcDbEntity
  8
DIMENSIONS
100
AcDbMText
 10
392.3724789768
 20
14.0971965899
 30
0.0
 40
2.0
 41
0.0
 71
     2
 72
     1
  1
Email : beos76@orange.fr
  7
SLDTEXTSTYLE3
 73
     1
 44
1.0
  0
MTEXT
  5
E7
330
1F
100
AcDbEntity
  8
DIMENSIONS
100
AcDbMText
 10
346.0
 20
59.1258943396
 30
0.0
 40
5.0
 41
0.0
 71
     1
 72
     1
  1
Cde.
  7
SLDTEXTSTYLE2
 73
     1
 44
1.0
  0
MTEXT
  5
E9
330
1F
100
AcDbEntity
  8
DIMENSIONS
100
AcDbMText
 10
309.2208712864
 20
45.598408559
 30
0.0
 40
1.7276751971
 41
0.0
 71
     1
 72
     1
  1
Dessin par:
  7
SLDTEXTSTYLE4
 73
     1
 44
1.0
  0
MTEXT
  5
EA
330
1F
100
AcDbEntity
  8
DIMENSIONS
100
AcDbMText
 10
326.4195026798
 20
58.7007155648
 30
0.0
 40
4.0
 41
0.0
 71
     2
 72
     1
  1
DEFI-Group
  7
SLDTEXTSTYLE2
 73
     1
 44
1.0
  0
MTEXT
  5
EC
330
1F
100
AcDbEntity
  8
DIMENSIONS
100
AcDbMText
 10
327.3551528431
 20
45.4199710251
 30
0.0
 40
2.5
 41
0.0
 71
     1
 72
     1
  1
jc-seraffin
  7
SLDTEXTSTYLE5
 73
     1
 44
1.0
  0
MTEXT
  5
ED
330
1F
100
AcDbEntity
  8
DIMENSIONS
100
AcDbMText
 10
344.3602706231
 20
14.4285775677
 30
0.0
 40
2.0
 41
0.0
 71
     2
 72
     1
  1
Tel. : 06-79-99-54-55
  7
SLDTEXTSTYLE3
 73
     1
 44
1.0
  0
MTEXT
  5
EE
330
1F
100
AcDbEntity
  8
DIMENSIONS
100
AcDbMText
 10
296.1939384288
 20
16.9513842137
 30
0.0
 40
4.0
 41
0.0
 71
     1
 72
     1
  1
OR
  7
SLDTEXTSTYLE5
 73
     1
 44
1.0
  0
MTEXT
  5
F0
330
1F
100
AcDbEntity
  8
DIMENSIONS
100
AcDbMText
 10
309.0341104783
 20
15.598408559
 30
0.0
 40
1.7276751971
 41
0.0
 71
     1
 72
     1
  1
PL:
  7
SLDTEXTSTYLE6
 73
     1
 44
1.0
  0
MTEXT
  5
F2
330
1F
100
AcDbEntity
  8
DIMENSIONS
100
AcDbMText
 10
316.6508932625
 20
17.1730450679
 30
0.0
 40
4.0
 41
0.0
 71
     1
 72
     1
  1
1-1
  7
SLDTEXTSTYLE7
 73
     1
 44
1.0
  0
MTEXT
  5
F3
330
1F
100
AcDbEntity
  8
DIMENSIONS
100
AcDbMText
 10
261.9515655236
 20
45.598408559
 30
0.0
 40
1.7276751971
 41
0.0
 71
     1
 72
     1
  1
Tol Gn:
  7
SLDTEXTSTYLE4
 73
     1
 44
1.0
  0
MTEXT
  5
F5
330
1F
100
AcDbEntity
  8
DIMENSIONS
100
AcDbMText
 10
267.4891856546
 20
51.3475100145
 30
0.0
 40
1.5670523329
 41
0.0
 71
     1
 72
     1
  1
Modification
  7
SLDTEXTSTYLE8
 73
     1
 44
1.0
  0
MTEXT
  5
F7
330
1F
100
AcDbEntity
  8
DIMENSIONS
100
AcDbMText
 10
241.9106589191
 20
45.5599112198
 30
0.0
 40
1.8140589569
 41
0.0
 71
     1
 72
     1
  1
ECH:
  7
SLDTEXTSTYLE9
 73
     1
 44
1.0
  0
MTEXT
  5
F9
330
1F
100
AcDbEntity
  8
DIMENSIONS
100
AcDbMText
 10
223.8240656909
 20
51.2833428182
 30
0.0
 40
1.4924307933
 41
0.0
 71
     1
 72
     1
  1
Date
  7
SLDTEXTSTYLE10
 73
     1
 44
1.0
  0
MTEXT
  5
FB
330
1F
100
AcDbEntity
  8
DIMENSIONS
100
AcDbMText
 10
234.2544584761
 20
51.2833428182
 30
0.0
 40
1.4924307933
 41
0.0
 71
     1
 72
     1
  1
Ind
  7
SLDTEXTSTYLE11
 73
     1
 44
1.0
  0
MTEXT
  5
FC
330
1F
100
AcDbEntity
  8
DIMENSIONS
100
AcDbMText
 10
221.5328904105
 20
45.2534731211
 30
0.0
 40
2.5
 41
0.0
 71
     1
 72
     1
  1
04/04/2018
  7
SLDTEXTSTYLE1
 73
     1
 44
1.0
  0
MTEXT
  5
FD
330
1F
100
AcDbEntity
  8
DIMENSIONS
100
AcDbMText
 10
249.6197693968
 20
45.2403548954
 30
0.0
 40
2.5
 41
0.0
 71
     1
 72
     1
  1
1:1
  7
SLDTEXTSTYLE1
 73
     1
 44
1.0
  0
MTEXT
  5
FE
330
1F
100
AcDbEntity
  8
DIMENSIONS
100
AcDbMText
 10
283.8256503628
 20
15.598408559
 30
0.0
 40
1.7276751971
 41
0.0
 71
     1
 72
     1
  1
Ind:
  7
SLDTEXTSTYLE6
 73
     1
 44
1.0
  0
MTEXT
  5
FF
330
1F
100
AcDbEntity
  8
DIMENSIONS
100
AcDbMText
 10
216.9043488644
 20
16.9513842137
 30
0.0
 40
4.0
 41
0.0
 71
     1
 72
     1
  1
BRACKETS
  7
SLDTEXTSTYLE5
 73
     1
 44
1.0
  0
MTEXT
  5
100
330
1F
100
AcDbEntity
  8
DIMENSIONS
100
AcDbMText
 10
211.0341104783
 20
45.598408559
 30
0.0
 40
1.7276751971
 41
0.0
 71
     1
 72
     1
  1
DATE:
  7
SLDTEXTSTYLE6
 73
     1
 44
1.0
  0
MTEXT
  5
102
330
1F
100
AcDbEntity
  8
DIMENSIONS
100
AcDbMText
 10
211.6550978321
 20
51.3475100145
 30
0.0
 40
1.5670523329
 41
0.0
 71
     1
 72
     1
  1
Visa
  7
SLDTEXTSTYLE12
 73
     1
 44
1.0
  0
MTEXT
  5
103
330
1F
100
AcDbEntity
  8
DIMENSIONS
100
AcDbMText
 10
211.0341104783
 20
15.598408559
 30
0.0
 40
1.7276751971
 41
0.0
 71
     1
 72
     1
  1
Ref:
  7
SLDTEXTSTYLE6
 73
     1
 44
1.0
  0
MTEXT
  5
105
330
1F
100
AcDbEntity
  8
DIMENSIONS
100
AcDbMText
 10
370.9092356873
 20
24.448350257
 30
0.0
 40
2.5
 41
0.0
 71
     2
 72
     1
  1
3 rue de NEUFCHATEL
  7
SLDTEXTSTYLE13
 73
     1
 44
1.0
  0
MTEXT
  5
106
330
1F
100
AcDbEntity
  8
DIMENSIONS
100
AcDbMText
 10
370.9025425888
 20
19.6232446981
 30
0.0
 40
2.5
 41
0.0
 71
     2
 72
     1
  1
76510 St. NICOLAS D'ALIERMONT
  7
SLDTEXTSTYLE13
 73
     1
 44
1.0
  0
MTEXT
  5
107
330
1F
100
AcDbEntity
  8
DIMENSIONS
100
AcDbMText
 10
364.4421128148
 20
59.9398349857
 30
0.0
 40
5.2916666667
 41
0.0
 71
     1
 72
     1
  1
010077 01 02
  7
SLDTEXTSTYLE7
 73
     1
 44
1.0
  0
MTEXT
  5
108
330
1F
100
AcDbEntity
  8
0
  6
Continuous
 62
     7
370
     0
100
AcDbMText
 10
7.3396881428
 20
31.06015409
 30
0.0
 40
3.96875
 41
0.0
 71
     2
 72
     1
  1
A
  7
SLDTEXTSTYLE0
 73
     1
 44
1.0
  0
MTEXT
  5
109
330
1F
100
AcDbEntity
  8
0
  6
Continuous
 62
     7
370
     0
100
AcDbMText
 10
412.3396881428
 20
31.06015409
 30
0.0
 40
3.96875
 41
0.0
 71
     2
 72
     1
  1
A
  7
SLDTEXTSTYLE0
 73
     1
 44
1.0
  0
MTEXT
  5
10A
330
1F
100
AcDbEntity
  8
0
  6
Continuous
 62
     7
370
     0
100
AcDbMText
 10
7.4706018241
 20
74.56015409
 30
0.0
 40
3.96875
 41
0.0
 71
     2
 72
     1
  1
B
  7
SLDTEXTSTYLE0
 73
     1
 44
1.0
  0
MTEXT
  5
10B
330
1F
100
AcDbEntity
  8
0
  6
Continuous
 62
     7
370
     0
100
AcDbMText
 10
412.4706018241
 20
74.56015409
 30
0.0
 40
3.96875
 41
0.0
 71
     2
 72
     1
  1
B
  7
SLDTEXTSTYLE0
 73
     1
 44
1.0
  0
MTEXT
  5
10C
330
1F
100
AcDbEntity
  8
0
  6
Continuous
 62
     7
370
     0
100
AcDbMText
 10
7.458658902
 20
124.56015409
 30
0.0
 40
3.96875
 41
0.0
 71
     2
 72
     1
  1
C
  7
SLDTEXTSTYLE0
 73
     1
 44
1.0
  0
MTEXT
  5
10D
330
1F
100
AcDbEntity
  8
0
  6
Continuous
 62
     7
370
     0
100
AcDbMText
 10
412.458658902
 20
124.56015409
 30
0.0
 40
3.96875
 41
0.0
 71
     2
 72
     1
  1
C
  7
SLDTEXTSTYLE0
 73
     1
 44
1.0
  0
MTEXT
  5
10E
330
1F
100
AcDbEntity
  8
0
  6
Continuous
 62
     7
370
     0
100
AcDbMText
 10
7.4526872821
 20
174.56015409
 30
0.0
 40
3.96875
 41
0.0
 71
     2
 72
     1
  1
D
  7
SLDTEXTSTYLE0
 73
     1
 44
1.0
  0
MTEXT
  5
10F
330
1F
100
AcDbEntity
  8
0
  6
Continuous
 62
     7
370
     0
100
AcDbMText
 10
412.4526872821
 20
174.56015409
 30
0.0
 40
3.96875
 41
0.0
 71
     2
 72
     1
  1
D
  7
SLDTEXTSTYLE0
 73
     1
 44
1.0
  0
MTEXT
  5
110
330
1F
100
AcDbEntity
  8
0
  6
Continuous
 62
     7
370
     0
100
AcDbMText
 10
7.5078089051
 20
224.56015409
 30
0.0
 40
3.96875
 41
0.0
 71
     2
 72
     1
  1
E
  7
SLDTEXTSTYLE0
 73
     1
 44
1.0
  0
MTEXT
  5
111
330
1F
100
AcDbEntity
  8
0
  6
Continuous
 62
     7
370
     0
100
AcDbMText
 10
412.5078089051
 20
224.56015409
 30
0.0
 40
3.96875
 41
0.0
 71
     2
 72
     1
  1
E
  7
SLDTEXTSTYLE0
 73
     1
 44
1.0
  0
MTEXT
  5
112
330
1F
100
AcDbEntity
  8
0
  6
Continuous
 62
     7
370
     0
100
AcDbMText
 10
7.4577402091
 20
274.56015409
 30
0.0
 40
3.96875
 41
0.0
 71
     2
 72
     1
  1
F
  7
SLDTEXTSTYLE0
 73
     1
 44
1.0
  0
MTEXT
  5
113
330
1F
100
AcDbEntity
  8
0
  6
Continuous
 62
     7
370
     0
100
AcDbMText
 10
412.4577402091
 20
274.56015409
 30
0.0
 40
3.96875
 41
0.0
 71
     2
 72
     1
  1
F
  7
SLDTEXTSTYLE0
 73
     1
 44
1.0
  0
MTEXT
  5
114
330
1F
100
AcDbEntity
  8
0
  6
Continuous
 62
     7
370
     0
100
AcDbMText
 10
7.4866788853
 20
324.56015409
 30
0.0
 40
3.96875
 41
0.0
 71
     2
 72
     1
  1
G
  7
SLDTEXTSTYLE0
 73
     1
 44
1.0
  0
MTEXT
  5
115
330
1F
100
AcDbEntity
  8
0
  6
Continuous
 62
     7
370
     0
100
AcDbMText
 10
412.4866788853
 20
324.56015409
 30
0.0
 40
3.96875
 41
0.0
 71
     2
 72
     1
  1
G
  7
SLDTEXTSTYLE0
 73
     1
 44
1.0
  0
MTEXT
  5
116
330
1F
100
AcDbEntity
  8
0
  6
Continuous
 62
     7
370
     0
100
AcDbMText
 10
7.4903537836
 20
374.56015409
 30
0.0
 40
3.96875
 41
0.0
 71
     2
 72
     1
  1
H
  7
SLDTEXTSTYLE0
 73
     1
 44
1.0
  0
MTEXT
  5
117
330
1F
100
AcDbEntity
  8
0
  6
Continuous
 62
     7
370
     0
100
AcDbMText
 10
412.4903537836
 20
374.56015409
 30
0.0
 40
3.96875
 41
0.0
 71
     2
 72
     1
  1
H
  7
SLDTEXTSTYLE0
 73
     1
 44
1.0
  0
MTEXT
  5
118
330
1F
100
AcDbEntity
  8
0
  6
Continuous
 62
     7
370
     0
100
AcDbMText
 10
7.4650897412
 20
424.56015409
 30
0.0
 40
3.96875
 41
0.0
 71
     2
 72
     1
  1
J
  7
SLDTEXTSTYLE0
 73
     1
 44
1.0
  0
MTEXT
  5
119
330
1F
100
AcDbEntity
  8
0
  6
Continuous
 62
     7
370
     0
100
AcDbMText
 10
412.4650897412
 20
424.56015409
 30
0.0
 40
3.96875
 41
0.0
 71
     2
 72
     1
  1
J
  7
SLDTEXTSTYLE0
 73
     1
 44
1.0
  0
MTEXT
  5
11A
330
1F
100
AcDbEntity
  8
0
  6
Continuous
 62
     7
370
     0
100
AcDbMText
 10
7.4885163503
 20
474.56015409
 30
0.0
 40
3.96875
 41
0.0
 71
     2
 72
     1
  1
K
  7
SLDTEXTSTYLE0
 73
     1
 44
1.0
  0
MTEXT
  5
11B
330
1F
100
AcDbEntity
  8
0
  6
Continuous
 62
     7
370
     0
100
AcDbMText
 10
412.4885163503
 20
474.56015409
 30
0.0
 40
3.96875
 41
0.0
 71
     2
 72
     1
  1
K
  7
SLDTEXTSTYLE0
 73
     1
 44
1.0
  0
MTEXT
  5
11C
330
1F
100
AcDbEntity
  8
0
  6
Continuous
 62
     7
370
     0
100
AcDbMText
 10
7.4545247471
 20
524.56015409
 30
0.0
 40
3.96875
 41
0.0
 71
     2
 72
     1
  1
L
  7
SLDTEXTSTYLE0
 73
     1
 44
1.0
  0
MTEXT
  5
11D
330
1F
100
AcDbEntity
  8
0
  6
Continuous
 62
     7
370
     0
100
AcDbMText
 10
412.4545247471
 20
524.56015409
 30
0.0
 40
3.96875
 41
0.0
 71
     2
 72
     1
  1
L
  7
SLDTEXTSTYLE0
 73
     1
 44
1.0
  0
MTEXT
  5
11E
330
1F
100
AcDbEntity
  8
0
  6
Continuous
 62
     7
370
     0
100
AcDbMText
 10
7.3617368396
 20
568.06015409
 30
0.0
 40
3.96875
 41
0.0
 71
     2
 72
     1
  1
M
  7
SLDTEXTSTYLE0
 73
     1
 44
1.0
  0
MTEXT
  5
11F
330
1F
100
AcDbEntity
  8
0
  6
Continuous
 62
     7
370
     0
100
AcDbMText
 10
412.3617368396
 20
568.06015409
 30
0.0
 40
3.96875
 41
0.0
 71
     2
 72
     1
  1
M
  7
SLDTEXTSTYLE0
 73
     1
 44
1.0
  0
MTEXT
  5
120
330
1F
100
AcDbEntity
  8
0
  6
Continuous
 62
     7
370
     0
100
AcDbMText
 10
34.9600369465
 20
10.06015409
 30
0.0
 40
3.96875
 41
0.0
 71
     2
 72
     1
  1
8
  7
SLDTEXTSTYLE0
 73
     1
 44
1.0
  0
MTEXT
  5
121
330
1F
100
AcDbEntity
  8
0
  6
Continuous
 62
     7
370
     0
100
AcDbMText
 10
34.9600369465
 20
589.06015409
 30
0.0
 40
3.96875
 41
0.0
 71
     2
 72
     1
  1
8
  7
SLDTEXTSTYLE0
 73
     1
 44
1.0
  0
MTEXT
  5
122
330
1F
100
AcDbEntity
  8
0
  6
Continuous
 62
     7
370
     0
100
AcDbMText
 10
84.9600369465
 20
10.06015409
 30
0.0
 40
3.96875
 41
0.0
 71
     2
 72
     1
  1
7
  7
SLDTEXTSTYLE0
 73
     1
 44
1.0
  0
MTEXT
  5
123
330
1F
100
AcDbEntity
  8
0
  6
Continuous
 62
     7
370
     0
100
AcDbMText
 10
84.9600369465
 20
589.06015409
 30
0.0
 40
3.96875
 41
0.0
 71
     2
 72
     1
  1
7
  7
SLDTEXTSTYLE0
 73
     1
 44
1.0
  0
MTEXT
  5
124
330
1F
100
AcDbEntity
  8
0
  6
Continuous
 62
     7
370
     0
100
AcDbMText
 10
134.9600369465
 20
10.06015409
 30
0.0
 40
3.96875
 41
0.0
 71
     2
 72
     1
  1
6
  7
SLDTEXTSTYLE0
 73
     1
 44
1.0
  0
MTEXT
  5
125
330
1F
100
AcDbEntity
  8
0
  6
Continuous
 62
     7
370
     0
100
AcDbMText
 10
134.9600369465
 20
589.06015409
 30
0.0
 40
3.96875
 41
0.0
 71
     2
 72
     1
  1
6
  7
SLDTEXTSTYLE0
 73
     1
 44
1.0
  0
MTEXT
  5
126
330
1F
100
AcDbEntity
  8
0
  6
Continuous
 62
     7
370
     0
100
AcDbMText
 10
184.9600369465
 20
10.06015409
 30
0.0
 40
3.96875
 41
0.0
 71
     2
 72
     1
  1
5
  7
SLDTEXTSTYLE0
 73
     1
 44
1.0
  0
MTEXT
  5
127
330
1F
100
AcDbEntity
  8
0
  6
Continuous
 62
     7
370
     0
100
AcDbMText
 10
184.9600369465
 20
589.06015409
 30
0.0
 40
3.96875
 41
0.0
 71
     2
 72
     1
  1
5
  7
SLDTEXTSTYLE0
 73
     1
 44
1.0
  0
MTEXT
  5
128
330
1F
100
AcDbEntity
  8
0
  6
Continuous
 62
     7
370
     0
100
AcDbMText
 10
234.9600369465
 20
10.06015409
 30
0.0
 40
3.96875
 41
0.0
 71
     2
 72
     1
  1
4
  7
SLDTEXTSTYLE0
 73
     1
 44
1.0
  0
MTEXT
  5
129
330
1F
100
AcDbEntity
  8
0
  6
Continuous
 62
     7
370
     0
100
AcDbMText
 10
234.9600369465
 20
589.06015409
 30
0.0
 40
3.96875
 41
0.0
 71
     2
 72
     1
  1
4
  7
SLDTEXTSTYLE0
 73
     1
 44
1.0
  0
MTEXT
  5
12A
330
1F
100
AcDbEntity
  8
0
  6
Continuous
 62
     7
370
     0
100
AcDbMText
 10
284.9600369465
 20
10.06015409
 30
0.0
 40
3.96875
 41
0.0
 71
     2
 72
     1
  1
3
  7
SLDTEXTSTYLE0
 73
     1
 44
1.0
  0
MTEXT
  5
12B
330
1F
100
AcDbEntity
  8
0
  6
Continuous
 62
     7
370
     0
100
AcDbMText
 10
284.9600369465
 20
589.06015409
 30
0.0
 40
3.96875
 41
0.0
 71
     2
 72
     1
  1
3
  7
SLDTEXTSTYLE0
 73
     1
 44
1.0
  0
MTEXT
  5
12C
330
1F
100
AcDbEntity
  8
0
  6
Continuous
 62
     7
370
     0
100
AcDbMText
 10
334.9600369465
 20
10.06015409
 30
0.0
 40
3.96875
 41
0.0
 71
     2
 72
     1
  1
2
  7
SLDTEXTSTYLE0
 73
     1
 44
1.0
  0
MTEXT
  5
12D
330
1F
100
AcDbEntity
  8
0
  6
Continuous
 62
     7
370
     0
100
AcDbMText
 10
334.9600369465
 20
589.06015409
 30
0.0
 40
3.96875
 41
0.0
 71
     2
 72
     1
  1
2
  7
SLDTEXTSTYLE0
 73
     1
 44
1.0
  0
MTEXT
  5
12E
330
1F
100
AcDbEntity
  8
0
  6
Continuous
 62
     7
370
     0
100
AcDbMText
 10
384.9600369465
 20
10.06015409
 30
0.0
 40
3.96875
 41
0.0
 71
     2
 72
     1
  1
1
  7
SLDTEXTSTYLE0
 73
     1
 44
1.0
  0
MTEXT
  5
12F
330
1F
100
AcDbEntity
  8
0
  6
Continuous
 62
     7
370
     0
100
AcDbMText
 10
384.9600369465
 20
589.06015409
 30
0.0
 40
3.96875
 41
0.0
 71
     2
 72
     1
  1
1
  7
SLDTEXTSTYLE0
 73
     1
 44
1.0
  0
LINE
  5
130
330
1F
100
AcDbEntity
  8
0
  6
Continuous
 62
     7
370
    25
100
AcDbLine
 10
169.4360071117
 20
161.5435799494
 30
0.0
 11
169.4360071117
 21
401.5435894862
 31
0.0
  0
LINE
  5
131
330
1F
100
AcDbEntity
  8
0
  6
Continuous
 62
     7
370
    25
100
AcDbLine
 10
169.4360071117
 20
401.5435894862
 30
0.0
 11
344.4360190327
 21
401.5435894862
 31
0.0
  0
LINE
  5
132
330
1F
100
AcDbEntity
  8
0
  6
Continuous
 62
     7
370
    25
100
AcDbLine
 10
344.4360190327
 20
401.5435894862
 30
0.0
 11
344.4360190327
 21
161.5435799494
 31
0.0
  0
LINE
  5
133
330
1F
100
AcDbEntity
  8
0
  6
Continuous
 62
     7
370
    25
100
AcDbLine
 10
344.4360190327
 20
161.5435799494
 30
0.0
 11
169.4360071117
 21
161.5435799494
 31
0.0
  0
ARC
  5
134
330
1F
100
AcDbEntity
  8
0
  6
Continuous
 62
     7
370
    25
100
AcDbCircle
 10
264.5303987904
 20
297.4433168703
 30
0.0
 40
3.999999999985929
100
AcDbArc
 50
89.9694310464
 51
179.9694310464
  0
LINE
  5
135
330
1F
100
AcDbEntity
  8
0
  6
Continuous
 62
     7
370
    25
100
AcDbLine
 10
264.5325356419
 20
301.4433162197
 30
0.0
 11
270.0953775341
 21
301.4403480947
 31
0.0
  0
ARC
  5
136
330
1F
100
AcDbEntity
  8
0
  6
Continuous
 62
     7
370
    25
100
AcDbCircle
 10
270.1007178847
 20
311.4403469373
 30
0.0
 40
10.00000000076896
100
AcDbArc
 50
269.9694310464
 51
314.9694310464
  0
LINE
  5
137
330
1F
100
AcDbEntity
  8
0
  6
Continuous
 62
     7
370
    25
100
AcDbLine
 10
277.1680050785
 20
304.3655084356
 30
0.0
 11
287.5438028271
 21
314.7302346214
 31
0.0
  0
ARC
  5
138
330
1F
100
AcDbEntity
  8
0
  6
Continuous
 62
     7
370
    25
100
AcDbCircle
 10
259.2746289834
 20
343.0295932001
 30
0.0
 40
39.99999999966559
100
AcDbArc
 50
314.9694310464
 51
3.5030186791
  0
LINE
  5
139
330
1F
100
AcDbEntity
  8
0
  6
Continuous
 62
     7
370
    25
100
AcDbLine
 10
299.1998934442
 20
345.4736379817
 30
0.0
 11
299.1137796337
 21
346.8802852467
 31
0.0
  0
LINE
  5
13A
330
1F
100
AcDbEntity
  8
0
  6
Continuous
 62
     7
370
    25
100
AcDbLine
 10
299.1137796337
 20
346.8802852467
 30
0.0
 11
298.9032709295
 21
350.2860015169
 31
0.0
  0
ARC
  5
13B
330
1F
100
AcDbEntity
  8
0
  6
Continuous
 62
     7
370
    25
100
AcDbCircle
 10
302.8956585313
 20
350.5327700407
 30
0.0
 40
3.999999999999951
100
AcDbArc
 50
142.7916020751
 51
183.5369299447
  0
LINE
  5
13C
330
1F
100
AcDbEntity
  8
0
  6
Continuous
 62
     7
370
    25
100
AcDbLine
 10
299.7099005873
 20
352.9516329899
 30
0.0
 11
301.9075238401
 21
355.8460270896
 31
0.0
  0
ARC
  5
13D
330
1F
100
AcDbEntity
  8
0
  6
Continuous
 62
     7
370
    25
100
AcDbCircle
 10
293.1466726821
 20
362.4979021423
 30
0.0
 40
11.00000000212281
100
AcDbArc
 50
322.7916020751
 51
170.151194258
  0
LINE
  5
13E
330
1F
100
AcDbEntity
  8
0
  6
Continuous
 62
     7
370
    25
100
AcDbLine
 10
282.3087864811
 20
364.3794378176
 30
0.0
 11
282.1159207518
 21
363.2684891954
 31
0.0
  0
ARC
  5
13F
330
1F
100
AcDbEntity
  8
0
  6
Continuous
 62
     7
370
    25
100
AcDbCircle
 10
278.1748655485
 20
363.9526860631
 30
0.0
 40
4.000000002316328
100
AcDbArc
 50
298.5030196286
 51
350.151194258
  0
LINE
  5
140
330
1F
100
AcDbEntity
  8
0
  6
Continuous
 62
     7
370
    25
100
AcDbLine
 10
280.083685487
 20
360.4375218883
 30
0.0
 11
274.4131380016
 21
357.358278884
 31
0.0
  0
ARC
  5
141
330
1F
100
AcDbEntity
  8
0
  6
Continuous
 62
     7
370
    25
100
AcDbCircle
 10
273.1741776541
 20
359.6398821304
 30
0.0
 40
2.596296207797512
100
AcDbArc
 50
270.0
 51
298.5030196286
  0
LINE
  5
142
330
1F
100
AcDbEntity
  8
0
  6
Continuous
 62
     7
370
    25
100
AcDbLine
 10
273.1741809542
 20
357.0435887113
 30
0.0
 11
265.4058777983
 21
357.0435887113
 31
0.0
  0
ARC
  5
143
330
1F
100
AcDbEntity
  8
0
  6
Continuous
 62
     7
370
    25
100
AcDbCircle
 10
265.4058765788
 20
359.6398821304
 30
0.0
 40
2.59629620779751
100
AcDbArc
 50
210.0
 51
270.0
  0
LINE
  5
144
330
1F
100
AcDbEntity
  8
0
  6
Continuous
 62
     7
370
    25
100
AcDbLine
 10
263.1574117834
 20
358.341733171
 30
0.0
 11
260.0288086826
 21
363.7606372967
 31
0.0
  0
ARC
  5
145
330
1F
100
AcDbEntity
  8
0
  6
Continuous
 62
     7
370
    25
100
AcDbCircle
 10
256.5647128017
 20
361.7606345748
 30
0.0
 40
3.99999999993351
100
AcDbArc
 50
30.0
 51
90.2707489699
  0
LINE
  5
146
330
1F
100
AcDbEntity
  8
0
  6
Continuous
 62
     7
370
    25
100
AcDbLine
 10
256.5458112652
 20
365.7605891958
 30
0.0
 11
255.0339245493
 21
365.7613938585
 31
0.0
  0
LINE
  5
147
330
1F
100
AcDbEntity
  8
0
  6
Continuous
 62
     7
370
    25
100
AcDbLine
 10
255.0339245493
 20
365.7613938585
 30
0.0
 11
208.2777017052
 21
364.6036779418
 31
0.0
  0
LINE
  5
148
330
1F
100
AcDbEntity
  8
0
  6
Continuous
 62
     7
370
    25
100
AcDbLine
 10
208.2777017052
 20
364.6036779418
 30
0.0
 11
208.261697858
 21
334.5968259409
 31
0.0
  0
LINE
  5
149
330
1F
100
AcDbEntity
  8
0
  6
Continuous
 62
     7
370
    25
100
AcDbLine
 10
208.261697858
 20
334.5968259409
 30
0.0
 11
223.2874923641
 21
334.9688744083
 31
0.0
  0
ARC
  5
14A
330
1F
100
AcDbEntity
  8
0
  6
Continuous
 62
     7
370
    25
100
AcDbCircle
 10
223.4360066167
 20
328.970713988
 30
0.0
 40
6.000000000000028
100
AcDbArc
 50
0.0
 51
91.4183946295
  0
LINE
  5
14B
330
1F
100
AcDbEntity
  8
0
  6
Continuous
 62
     7
370
    25
100
AcDbLine
 10
229.4360094959
 20
328.9707137182
 30
0.0
 11
229.4360094959
 21
236.9436977342
 31
0.0
  0
ARC
  5
14C
330
1F
100
AcDbEntity
  8
0
  6
Continuous
 62
     7
370
    25
100
AcDbCircle
 10
223.4360066167
 20
236.9436975131
 30
0.0
 40
6.0
100
AcDbArc
 50
271.4183946295
 51
0.0
  0
LINE
  5
14D
330
1F
100
AcDbEntity
  8
0
  6
Continuous
 62
     7
370
    25
100
AcDbLine
 10
223.5845321114
 20
230.9455370441
 30
0.0
 11
207.606180876
 21
230.5499000385
 31
0.0
  0
LINE
  5
14E
330
1F
100
AcDbEntity
  8
0
  6
Continuous
 62
     7
370
    25
100
AcDbLine
 10
207.606180876
 20
230.5499000385
 30
0.0
 11
207.5853639538
 21
191.5435885921
 31
0.0
  0
LINE
  5
14F
330
1F
100
AcDbEntity
  8
0
  6
Continuous
 62
     7
370
    25
100
AcDbLine
 10
207.5853639538
 20
191.5435885921
 30
0.0
 11
263.7971782381
 21
192.9354315534
 31
0.0
  0
LINE
  5
150
330
1F
100
AcDbEntity
  8
0
  6
Continuous
 62
     7
370
    25
100
AcDbLine
 10
263.7971782381
 20
192.9354315534
 30
0.0
 11
267.5471746618
 21
192.9334273472
 31
0.0
  0
LINE
  5
151
330
1F
100
AcDbEntity
  8
0
  6
Continuous
 62
     7
370
    25
100
AcDbLine
 10
267.5471746618
 20
192.9334273472
 30
0.0
 11
279.5548581774
 21
193.2330896988
 31
0.0
  0
ARC
  5
152
330
1F
100
AcDbEntity
  8
0
  6
Continuous
 62
     7
370
    25
100
AcDbCircle
 10
278.8064083201
 20
223.2237541708
 30
0.0
 40
30.0000000018892
100
AcDbArc
 50
271.4295693332
 51
0.3687798095
  0
LINE
  5
153
330
1F
100
AcDbEntity
  8
0
  6
Continuous
 62
     7
370
    25
100
AcDbLine
 10
308.8057928974
 20
223.4168445602
 30
0.0
 11
308.6625033314
 21
245.6788031295
 31
0.0
  0
ARC
  5
154
330
1F
100
AcDbEntity
  8
0
  6
Continuous
 62
     7
370
    25
100
AcDbCircle
 10
297.6627254238
 20
245.6080038634
 30
0.0
 40
11.00000000216646
100
AcDbArc
 50
0.3687798095
 51
126.3847035028
  0
LINE
  5
155
330
1F
100
AcDbEntity
  8
0
  6
Continuous
 62
     7
370
    25
100
AcDbLine
 10
291.1374860699
 20
254.4635778203
 30
0.0
 11
278.2913738186
 21
244.997898294
 31
0.0
  0
ARC
  5
156
330
1F
100
AcDbEntity
  8
0
  6
Continuous
 62
     7
370
    25
100
AcDbCircle
 10
277.1049607654
 20
246.6080038634
 30
0.0
 40
2.0
100
AcDbArc
 50
270.0
 51
306.3847035028
  0
LINE
  5
157
330
1F
100
AcDbEntity
  8
0
  6
Continuous
 62
     7
370
    25
100
AcDbLine
 10
277.1049582655
 20
244.6080056861
 30
0.0
 11
264.5043426449
 21
244.6080056861
 31
0.0
  0
ARC
  5
158
330
1F
100
AcDbEntity
  8
0
  6
Continuous
 62
     7
370
    25
100
AcDbCircle
 10
264.5043437376
 20
248.6080038634
 30
0.0
 40
4.0
100
AcDbArc
 50
179.9694310464
 51
270.0
  0
LINE
  5
159
330
1F
100
AcDbEntity
  8
0
  6
Continuous
 62
     7
370
    25
100
AcDbLine
 10
260.5043494398
 20
248.6101372078
 30
0.0
 11
260.5303966696
 21
297.4454510867
 31
0.0
  0
CIRCLE
  5
15A
330
1F
100
AcDbEntity
  8
0
  6
Continuous
 62
     7
370
    25
100
AcDbCircle
 10
214.4360066167
 20
321.5435859226
 30
0.0
 40
7.0
  0
CIRCLE
  5
15B
330
1F
100
AcDbEntity
  8
0
  6
Continuous
 62
     7
370
    25
100
AcDbCircle
 10
324.4360066167
 20
321.5435859226
 30
0.0
 40
7.0
  0
CIRCLE
  5
15C
330
1F
100
AcDbEntity
  8
0
  6
Continuous
 62
     7
370
    25
100
AcDbCircle
 10
324.4360066167
 20
246.5435859226
 30
0.0
 40
7.0
  0
CIRCLE
  5
15D
330
1F
100
AcDbEntity
  8
0
  6
Continuous
 62
     7
370
    25
100
AcDbCircle
 10
214.4360066167
 20
246.5435859226
 30
0.0
 40
7.0
  0
CIRCLE
  5
15E
330
1F
100
AcDbEntity
  8
0
  6
Continuous
 62
     7
370
    25
100
AcDbCircle
 10
184.4360066167
 20
181.5435859226
 30
0.0
 40
4.25
  0
CIRCLE
  5
15F
330
1F
100
AcDbEntity
  8
0
  6
Continuous
 62
     7
370
    25
100
AcDbCircle
 10
184.4360066167
 20
281.5435859226
 30
0.0
 40
4.25
  0
CIRCLE
  5
160
330
1F
100
AcDbEntity
  8
0
  6
Continuous
 62
     7
370
    25
100
AcDbCircle
 10
329.4360066167
 20
281.5435859226
 30
0.0
 40
4.249999999999943
  0
CIRCLE
  5
161
330
1F
100
AcDbEntity
  8
0
  6
Continuous
 62
     7
370
    25
100
AcDbCircle
 10
184.4360066167
 20
381.5435859226
 30
0.0
 40
4.25
  0
CIRCLE
  5
162
330
1F
100
AcDbEntity
  8
0
  6
Continuous
 62
     7
370
    25
100
AcDbCircle
 10
329.4360066167
 20
381.5435859226
 30
0.0
 40
4.249999999999943
  0
CIRCLE
  5
163
330
1F
100
AcDbEntity
  8
0
  6
Continuous
 62
     7
370
    25
100
AcDbCircle
 10
309.4360066167
 20
381.5435859226
 30
0.0
 40
6.0
  0
CIRCLE
  5
164
330
1F
100
AcDbEntity
  8
0
  6
Continuous
 62
     7
370
    25
100
AcDbCircle
 10
309.4360066167
 20
181.5435859226
 30
0.0
 40
6.0
  0
CIRCLE
  5
165
330
1F
100
AcDbEntity
  8
0
  6
Continuous
 62
     7
370
    25
100
AcDbCircle
 10
329.4360066167
 20
181.5435859226
 30
0.0
 40
4.249999999999943
  0
CIRCLE
  5
166
330
1F
100
AcDbEntity
  8
0
  6
Continuous
 62
     7
370
    25
100
AcDbCircle
 10
214.4360066167
 20
246.5435859226
 30
0.0
 40
5.000000000000142
  0
CIRCLE
  5
167
330
1F
100
AcDbEntity
  8
0
  6
Continuous
 62
     7
370
    25
100
AcDbCircle
 10
324.4360066167
 20
321.5435859226
 30
0.0
 40
5.000000000000171
  0
CIRCLE
  5
168
330
1F
100
AcDbEntity
  8
0
  6
Continuous
 62
     7
370
    25
100
AcDbCircle
 10
324.4360066167
 20
246.5435859226
 30
0.0
 40
5.000000000000171
  0
CIRCLE
  5
169
330
1F
100
AcDbEntity
  8
0
  6
Continuous
 62
     7
370
    25
100
AcDbCircle
 10
214.4360066167
 20
321.5435859226
 30
0.0
 40
5.000000000000142
  0
LINE
  5
16A
330
1F
100
AcDbEntity
  8
0
  6
CENTERX2
 62
     7
370
    18
100
AcDbLine
 10
159.5404768876
 20
281.5435859226
 30
0.0
 11
357.3213442925
 21
281.5435859226
 31
0.0
  0
CIRCLE
  5
16B
330
1F
100
AcDbEntity
  8
0
  6
Continuous
 62
     7
370
    18
100
AcDbCircle
 10
234.4360066167
 20
281.5435859226
 30
0.0
 40
2.499999999999995
  0
DIMENSION
  5
16C
330
1F
100
AcDbEntity
  8
0
  6
Continuous
 62
     7
370
    18
100
AcDbDimension
  2
_D
 10
232.6682396637
 20
279.7758189696
 30
0.0
 11
242.865373846
 21
289.9729531519
 31
0.0
 70
   163
  1
<>DF
 71
     1
 42
-1.0
  3
SLDDIMSTYLE0
100
AcDbDiametricDimension
 15
236.2037735696
 25
283.3113528755
 35
0.0
 40
0.0
  0
DIMENSION
  5
17A
330
1F
100
AcDbEntity
  8
0
  6
Continuous
 62
     7
370
    18
100
AcDbDimension
  2
_D_1
 10
357.3213442925
 20
281.5435859226
 30
0.0
 11
377.2181245199
 21
281.5435859226
 31
0.0
 70
    38
  1
<>
 71
     5
 42
-1.0
  3
SLDDIMSTYLE1
100
AcDbOrdinateDimension
 13
357.3213442925
 23
281.5435859226
 33
0.0
 14
372.4360066167
 24
281.5435859226
 34
0.0
  0
DIMENSION
  5
185
330
1F
100
AcDbEntity
  8
0
  6
Continuous
 62
     7
370
    18
100
AcDbDimension
  2
_D_2
 10
357.3213442925
 20
281.5435859226
 30
0.0
 11
363.0221178102
 21
246.5435859226
 31
0.0
 70
    38
  1
<>
 71
     5
 42
-1.0
  3
SLDDIMSTYLE2
100
AcDbOrdinateDimension
 13
333.9360066167
 23
246.5435859226
 33
0.0
 14
360.4360066167
 24
246.5435859226
 34
0.0
  0
DIMENSION
  5
18C
330
1F
100
AcDbEntity
  8
0
  6
Continuous
 62
     7
370
    18
100
AcDbDimension
  2
_D_3
 10
357.3213442925
 20
281.5435859226
 30
0.0
 11
195.6700635314
 21
246.5435859226
 31
0.0
 70
    38
  1
<>
 71
     5
 42
-1.0
  3
SLDDIMSTYLE2
100
AcDbOrdinateDimension
 13
204.9360066167
 23
246.5435859226
 33
0.0
 14
198.2561747249
 24
246.5435859226
 34
0.0
  0
DIMENSION
  5
192
330
1F
100
AcDbEntity
  8
0
  6
Continuous
 62
     7
370
    18
100
AcDbDimension
  2
_D_4
 10
357.3213442925
 20
281.5435859226
 30
0.0
 11
364.3151732905
 21
181.5435859226
 31
0.0
 70
    38
  1
<>
 71
     5
 42
-1.0
  3
SLDDIMSTYLE2
100
AcDbOrdinateDimension
 13
317.9360066167
 23
181.5435859226
 33
0.0
 14
360.4360066167
 24
181.5435859226
 34
0.0
  0
DIMENSION
  5
198
330
1F
100
AcDbEntity
  8
0
  6
Continuous
 62
     7
370
    18
100
AcDbDimension
  2
_D_5
 10
357.3213442925
 20
281.5435859226
 30
0.0
 11
155.5568399428
 21
181.5435859226
 31
0.0
 70
    38
  1
<>
 71
     5
 42
-1.0
  3
SLDDIMSTYLE2
100
AcDbOrdinateDimension
 13
184.4360066167
 23
181.5435859226
 33
0.0
 14
159.4360066167
 24
181.5435859226
 34
0.0
  0
DIMENSION
  5
19E
330
1F
100
AcDbEntity
  8
0
  6
Continuous
 62
     7
370
    18
100
AcDbDimension
  2
_D_6
 10
357.3213442925
 20
281.5435859226
 30
0.0
 11
376.3151732905
 21
161.5435859226
 31
0.0
 70
    38
  1
<>
 71
     5
 42
-1.0
  3
SLDDIMSTYLE2
100
AcDbOrdinateDimension
 13
344.4360066167
 23
161.5435859226
 33
0.0
 14
372.4360066167
 24
161.5435859226
 34
0.0
  0
DIMENSION
  5
1A4
330
1F
100
AcDbEntity
  8
0
  6
Continuous
 62
     7
370
    18
100
AcDbDimension
  2
_D_7
 10
357.3213442925
 20
281.5435859226
 30
0.0
 11
199.4572677047
 21
321.5435859226
 31
0.0
 70
    38
  1
<>
 71
     5
 42
-1.0
  3
SLDDIMSTYLE2
100
AcDbOrdinateDimension
 13
204.9360066167
 23
321.5435859226
 33
0.0
 14
202.0433788982
 24
321.5435859226
 34
0.0
  0
DIMENSION
  5
1AA
330
1F
100
AcDbEntity
  8
0
  6
Continuous
 62
     7
370
    18
100
AcDbDimension
  2
_D_8
 10
357.3213442925
 20
281.5435859226
 30
0.0
 11
375.0221178102
 21
321.5435859226
 31
0.0
 70
    38
  1
<>
 71
     5
 42
-1.0
  3
SLDDIMSTYLE2
100
AcDbOrdinateDimension
 13
333.9360066167
 23
321.5435859226
 33
0.0
 14
372.4360066167
 24
321.5435859226
 34
0.0
  0
DIMENSION
  5
1B0
330
1F
100
AcDbEntity
  8
0
  6
Continuous
 62
     7
370
    18
100
AcDbDimension
  2
_D_9
 10
357.3213442925
 20
281.5435859226
 30
0.0
 11
155.5568399428
 21
381.5435859226
 31
0.0
 70
    38
  1
<>
 71
     5
 42
-1.0
  3
SLDDIMSTYLE2
100
AcDbOrdinateDimension
 13
184.4360066167
 23
381.5435859226
 33
0.0
 14
159.4360066167
 24
381.5435859226
 34
0.0
  0
DIMENSION
  5
1B6
330
1F
100
AcDbEntity
  8
0
  6
Continuous
 62
     7
370
    18
100
AcDbDimension
  2
_D_10
 10
357.3213442925
 20
281.5435859226
 30
0.0
 11
364.3151732905
 21
381.5435859226
 31
0.0
 70
    38
  1
<>
 71
     5
 42
-1.0
  3
SLDDIMSTYLE2
100
AcDbOrdinateDimension
 13
317.9360066167
 23
381.5435859226
 33
0.0
 14
360.4360066167
 24
381.5435859226
 34
0.0
  0
DIMENSION
  5
1BC
330
1F
100
AcDbEntity
  8
0
  6
Continuous
 62
     7
370
    18
100
AcDbDimension
  2
_D_11
 10
357.3213442925
 20
281.5435859226
 30
0.0
 11
376.3151732905
 21
401.5435859226
 31
0.0
 70
    38
  1
<>
 71
     5
 42
-1.0
  3
SLDDIMSTYLE2
100
AcDbOrdinateDimension
 13
344.4360066167
 23
401.5435859226
 33
0.0
 14
372.4360066167
 24
401.5435859226
 34
0.0
  0
DIMENSION
  5
1C2
330
1F
100
AcDbEntity
  8
0
  6
Continuous
 62
     7
370
    18
100
AcDbDimension
  2
_D_12
 10
169.4360066167
 20
161.5435859226
 30
0.0
 11
169.4360066167
 21
129.0708876209
 31
0.0
 70
   102
  1
<>
 71
     5
 42
-1.0
  3
SLDDIMSTYLE1
100
AcDbOrdinateDimension
 13
169.4360066167
 23
161.5435859226
 33
0.0
 14
169.4360066167
 24
133.8530055241
 34
0.0
  0
DIMENSION
  5
1CC
330
1F
100
AcDbEntity
  8
0
  6
Continuous
 62
     7
370
    18
100
AcDbDimension
  2
_D_13
 10
169.4360066167
 20
161.5435859226
 30
0.0
 11
184.4360066167
 21
136.957474729
 31
0.0
 70
   102
  1
<>
 71
     5
 42
-1.0
  3
SLDDIMSTYLE2
100
AcDbOrdinateDimension
 13
184.4360066167
 23
181.5435859226
 33
0.0
 14
184.4360066167
 24
139.5435859226
 34
0.0
  0
DIMENSION
  5
1D2
330
1F
100
AcDbEntity
  8
0
  6
Continuous
 62
     7
370
    18
100
AcDbDimension
  2
_D_14
 10
169.4360066167
 20
161.5435859226
 30
0.0
 11
184.4360066167
 21
301.1824982565
 31
0.0
 70
   102
  1
<>
 71
     5
 42
-1.0
  3
SLDDIMSTYLE2
100
AcDbOrdinateDimension
 13
184.4360066167
 23
281.5435859226
 33
0.0
 14
184.4360066167
 24
298.5963870629
 34
0.0
  0
DIMENSION
  5
1D8
330
1F
100
AcDbEntity
  8
0
  6
Continuous
 62
     7
370
    18
100
AcDbDimension
  2
_D_15
 10
169.4360066167
 20
161.5435859226
 30
0.0
 11
184.4360066167
 21
408.8022168479
 31
0.0
 70
   102
  1
<>
 71
     5
 42
-1.0
  3
SLDDIMSTYLE2
100
AcDbOrdinateDimension
 13
184.4360066167
 23
381.5435859226
 33
0.0
 14
184.4360066167
 24
406.2161056544
 34
0.0
  0
DIMENSION
  5
1DE
330
1F
100
AcDbEntity
  8
0
  6
Continuous
 62
     7
370
    18
100
AcDbDimension
  2
_D_16
 10
169.4360066167
 20
161.5435859226
 30
0.0
 11
214.4360066167
 21
219.9505920555
 31
0.0
 70
   102
  1
<>
 71
     5
 42
-1.0
  3
SLDDIMSTYLE2
100
AcDbOrdinateDimension
 13
214.4360066167
 23
237.0435859226
 33
0.0
 14
214.4360066167
 24
222.5367032491
 34
0.0
  0
DIMENSION
  5
1E4
330
1F
100
AcDbEntity
  8
0
  6
Continuous
 62
     7
370
    18
100
AcDbDimension
  2
_D_17
 10
169.4360066167
 20
161.5435859226
 30
0.0
 11
214.4360066167
 21
304.2158849116
 31
0.0
 70
   102
  1
<>
 71
     5
 42
-1.0
  3
SLDDIMSTYLE2
100
AcDbOrdinateDimension
 13
214.4360066167
 23
312.0435859226
 33
0.0
 14
214.4360066167
 24
306.8019961051
 34
0.0
  0
DIMENSION
  5
1EA
330
1F
100
AcDbEntity
  8
0
  6
Continuous
 62
     7
370
    18
100
AcDbDimension
  2
_D_18
 10
169.4360066167
 20
161.5435859226
 30
0.0
 11
234.4360066167
 21
306.2321038209
 31
0.0
 70
   102
  1
<>
 71
     5
 42
-1.0
  3
SLDDIMSTYLE2
100
AcDbOrdinateDimension
 13
234.4360066167
 23
281.5435859226
 33
0.0
 14
234.4360066167
 24
303.6459926273
 34
0.0
  0
DIMENSION
  5
1F0
330
1F
100
AcDbEntity
  8
0
  6
Continuous
 62
     7
370
    18
100
AcDbDimension
  2
_D_19
 10
169.4360066167
 20
161.5435859226
 30
0.0
 11
309.4360066167
 21
135.6644192487
 31
0.0
 70
   102
  1
<>
 71
     5
 42
-1.0
  3
SLDDIMSTYLE2
100
AcDbOrdinateDimension
 13
309.4360066167
 23
173.0435859226
 33
0.0
 14
309.4360066167
 24
139.5435859226
 34
0.0
  0
DIMENSION
  5
1F6
330
1F
100
AcDbEntity
  8
0
  6
Continuous
 62
     7
370
    18
100
AcDbDimension
  2
_D_20
 10
169.4360066167
 20
161.5435859226
 30
0.0
 11
309.4360066167
 21
410.0952723282
 31
0.0
 70
   102
  1
<>
 71
     5
 42
-1.0
  3
SLDDIMSTYLE2
100
AcDbOrdinateDimension
 13
309.4360066167
 23
390.0435859226
 33
0.0
 14
309.4360066167
 24
406.2161056544
 34
0.0
  0
DIMENSION
  5
1FC
330
1F
100
AcDbEntity
  8
0
  6
Continuous
 62
     7
370
    18
100
AcDbDimension
  2
_D_21
 10
169.4360066167
 20
161.5435859226
 30
0.0
 11
324.4360066167
 21
340.9787961654
 31
0.0
 70
   102
  1
<>
 71
     5
 42
-1.0
  3
SLDDIMSTYLE2
100
AcDbOrdinateDimension
 13
324.4360066167
 23
331.0435859226
 33
0.0
 14
324.4360066167
 24
337.0996294916
 34
0.0
  0
DIMENSION
  5
202
330
1F
100
AcDbEntity
  8
0
  6
Continuous
 62
     7
370
    18
100
AcDbDimension
  2
_D_22
 10
169.4360066167
 20
161.5435859226
 30
0.0
 11
324.4360066167
 21
226.2319449218
 31
0.0
 70
   102
  1
<>
 71
     5
 42
-1.0
  3
SLDDIMSTYLE2
100
AcDbOrdinateDimension
 13
324.4360066167
 23
237.0435859226
 33
0.0
 14
324.4360066167
 24
230.1111115957
 34
0.0
  0
DIMENSION
  5
208
330
1F
100
AcDbEntity
  8
0
  6
Continuous
 62
     7
370
    18
100
AcDbDimension
  2
_D_23
 10
169.4360066167
 20
161.5435859226
 30
0.0
 11
329.4360066167
 21
135.6644192487
 31
0.0
 70
   102
  1
<>
 71
     5
 42
-1.0
  3
SLDDIMSTYLE2
100
AcDbOrdinateDimension
 13
329.4360066167
 23
181.5435859226
 33
0.0
 14
329.4360066167
 24
139.5435859226
 34
0.0
  0
DIMENSION
  5
20E
330
1F
100
AcDbEntity
  8
0
  6
Continuous
 62
     7
370
    18
100
AcDbDimension
  2
_D_24
 10
169.4360066167
 20
161.5435859226
 30
0.0
 11
329.4360066167
 21
410.0952723282
 31
0.0
 70
   102
  1
<>
 71
     5
 42
-1.0
  3
SLDDIMSTYLE2
100
AcDbOrdinateDimension
 13
329.4360066167
 23
381.5435859226
 33
0.0
 14
329.4360066167
 24
406.2161056544
 34
0.0
  0
DIMENSION
  5
214
330
1F
100
AcDbEntity
  8
0
  6
Continuous
 62
     7
370
    18
100
AcDbDimension
  2
_D_25
 10
169.4360066167
 20
161.5435859226
 30
0.0
 11
329.4360066167
 21
298.6883495635
 31
0.0
 70
   102
  1
<>
 71
     5
 42
-1.0
  3
SLDDIMSTYLE2
100
AcDbOrdinateDimension
 13
329.4360066167
 23
281.5435859226
 33
0.0
 14
329.4360066167
 24
294.8091828896
 34
0.0
  0
DIMENSION
  5
21A
330
1F
100
AcDbEntity
  8
0
  6
Continuous
 62
     7
370
    18
100
AcDbDimension
  2
_D_26
 10
169.4360066167
 20
161.5435859226
 30
0.0
 11
344.4360066167
 21
129.9738388503
 31
0.0
 70
   102
  1
<>
 71
     5
 42
-1.0
  3
SLDDIMSTYLE2
100
AcDbOrdinateDimension
 13
344.4360066167
 23
161.5435859226
 33
0.0
 14
344.4360066167
 24
133.8530055241
 34
0.0
  0
DIMENSION
  5
220
330
1F
100
AcDbEntity
  8
0
  6
Continuous
 62
     7
370
    18
100
AcDbDimension
  2
_D_27
 10
344.4360066167
 20
423.5435859226
 30
0.0
 11
258.4340703997
 21
423.5435859226
 31
0.0
 70
   160
  1
<>
 71
     2
 42
-1.0
  3
SLDDIMSTYLE3
100
AcDbAlignedDimension
 13
169.4360066167
 23
401.5435859226
 33
0.0
 14
344.4360066167
 24
401.5435859226
 34
0.0
100
AcDbRotatedDimension
  0
DIMENSION
  5
22B
330
1F
100
AcDbEntity
  8
0
  6
Continuous
 62
     7
370
    18
100
AcDbDimension
  2
_D_28
 10
129.4360066167
 20
401.5435859226
 30
0.0
 11
129.4360066167
 21
280.135265221
 31
0.0
 70
   160
  1
<>
 71
     2
 42
-1.0
  3
SLDDIMSTYLE3
100
AcDbAlignedDimension
 13
169.4360066167
 23
161.5435859226
 33
0.0
 14
169.4360066167
 24
401.5435859226
 34
0.0
 50
90.0
100
AcDbRotatedDimension
  0
INSERT
  5
240
330
1F
100
AcDbEntity
  8
0
  6
Continuous
 62
     7
370
     0
100
AcDbBlockReference
  2
SW_CENTERMARKSYMBOL_0
 10
214.4360066167
 20
321.5435859226
 30
0.0
  0
INSERT
  5
24C
330
1F
100
AcDbEntity
  8
0
  6
Continuous
 62
     7
370
     0
100
AcDbBlockReference
  2
SW_CENTERMARKSYMBOL_1
 10
324.4360066167
 20
321.5435859226
 30
0.0
  0
INSERT
  5
258
330
1F
100
AcDbEntity
  8
0
  6
Continuous
 62
     7
370
     0
100
AcDbBlockReference
  2
SW_CENTERMARKSYMBOL_2
 10
324.4360066167
 20
246.5435859226
 30
0.0
  0
INSERT
  5
264
330
1F
100
AcDbEntity
  8
0
  6
Continuous
 62
     7
370
     0
100
AcDbBlockReference
  2
SW_CENTERMARKSYMBOL_3
 10
214.4360066167
 20
246.5435859226
 30
0.0
  0
INSERT
  5
270
330
1F
100
AcDbEntity
  8
0
  6
Continuous
 62
     7
370
     0
100
AcDbBlockReference
  2
SW_CENTERMARKSYMBOL_4
 10
329.4360066167
 20
181.5435859226
 30
0.0
  0
INSERT
  5
27C
330
1F
100
AcDbEntity
  8
0
  6
Continuous
 62
     7
370
     0
100
AcDbBlockReference
  2
SW_CENTERMARKSYMBOL_5
 10
184.4360066167
 20
181.5435859226
 30
0.0
  0
INSERT
  5
288
330
1F
100
AcDbEntity
  8
0
  6
Continuous
 62
     7
370
     0
100
AcDbBlockReference
  2
SW_CENTERMARKSYMBOL_6
 10
184.4360066167
 20
281.5435859226
 30
0.0
  0
INSERT
  5
294
330
1F
100
AcDbEntity
  8
0
  6
Continuous
 62
     7
370
     0
100
AcDbBlockReference
  2
SW_CENTERMARKSYMBOL_7
 10
329.4360066167
 20
281.5435859226
 30
0.0
  0
INSERT
  5
2A0
330
1F
100
AcDbEntity
  8
0
  6
Continuous
 62
     7
370
     0
100
AcDbBlockReference
  2
SW_CENTERMARKSYMBOL_8
 10
184.4360066167
 20
381.5435859226
 30
0.0
  0
INSERT
  5
2AC
330
1F
100
AcDbEntity
  8
0
  6
Continuous
 62
     7
370
     0
100
AcDbBlockReference
  2
SW_CENTERMARKSYMBOL_9
 10
329.4360066167
 20
381.5435859226
 30
0.0
  0
INSERT
  5
2B8
330
1F
100
AcDbEntity
  8
0
  6
Continuous
 62
     7
370
     0
100
AcDbBlockReference
  2
SW_CENTERMARKSYMBOL_10
 10
309.4360066167
 20
381.5435859226
 30
0.0
  0
INSERT
  5
2C4
330
1F
100
AcDbEntity
  8
0
  6
Continuous
 62
     7
370
     0
100
AcDbBlockReference
  2
SW_CENTERMARKSYMBOL_11
 10
309.4360066167
 20
181.5435859226
 30
0.0
  0
LINE
  5
2C5
330
1F
100
AcDbEntity
  8
0
  6
PHANTOM
 62
     7
370
    35
100
AcDbLine
 10
304.566665374
 20
281.5435859226
 30
0.0
 11
148.4360066167
 21
281.5435859226
 31
0.0
  0
LINE
  5
2C6
330
1F
100
AcDbEntity
  8
0
  6
PHANTOM
 62
     7
370
    35
100
AcDbLine
 10
304.566665374
 20
281.5435859226
 30
0.0
 11
304.566665374
 21
321.5435859226
 31
0.0
  0
LINE
  5
2C7
330
1F
100
AcDbEntity
  8
0
  6
PHANTOM
 62
     7
370
    35
100
AcDbLine
 10
304.566665374
 20
321.5435859226
 30
0.0
 11
365.4360066167
 21
321.5435859226
 31
0.0
  0
LINE
  5
2C8
330
1F
100
AcDbEntity
  8
0
  6
Continuous
 62
     7
370
    35
100
AcDbLine
 10
150.4360066167
 20
268.8435859226
 30
0.0
 11
150.4360066167
 21
281.5435859226
 31
0.0
  0
SOLID
  5
2C9
330
1F
100
AcDbEntity
  8
0
  6
Continuous
 62
     7
370
    35
100
AcDbTrace
 10
150.4360066167
 20
281.5435859226
 30
0.0
 11
149.4200066167
 21
275.1935859226
 31
0.0
 12
151.4520066167
 22
275.1935859226
 32
0.0
 13
151.4520066167
 23
275.1935859226
 33
0.0
  0
LINE
  5
2CA
330
1F
100
AcDbEntity
  8
0
  6
Continuous
 62
     7
370
    35
100
AcDbLine
 10
363.4360066167
 20
308.8435859226
 30
0.0
 11
363.4360066167
 21
321.5435859226
 31
0.0
  0
SOLID
  5
2CB
330
1F
100
AcDbEntity
  8
0
  6
Continuous
 62
     7
370
    35
100
AcDbTrace
 10
363.4360066167
 20
321.5435859226
 30
0.0
 11
362.4200066167
 21
315.1935859226
 31
0.0
 12
364.4520066167
 22
315.1935859226
 32
0.0
 13
364.4520066167
 23
315.1935859226
 33
0.0
  0
MTEXT
  5
2CC
330
1F
100
AcDbEntity
  8
0
  6
Continuous
 62
     7
100
AcDbMText
 10
145.6092797037
 20
274.3971172741
 30
0.0
 40
3.5
 41
0.0
 71
     1
 72
     1
  1
A
  7
SLDTEXTSTYLE0
 73
     1
 44
1.0
  0
MTEXT
  5
2CD
330
1F
100
AcDbEntity
  8
0
  6
Continuous
 62
     7
100
AcDbMText
 10
364.8150714489
 20
314.3971172741
 30
0.0
 40
3.5
 41
0.0
 71
     1
 72
     1
  1
A
  7
SLDTEXTSTYLE0
 73
     1
 44
1.0
  0
LINE
  5
2CE
330
1F
100
AcDbEntity
  8
0
  6
PHANTOM
 62
     7
370
    35
100
AcDbLine
 10
309.4360066167
 20
191.5126664723
 30
0.0
 11
309.4360066167
 21
149.0018222174
 31
0.0
  0
LINE
  5
2CF
330
1F
100
AcDbEntity
  8
0
  6
PHANTOM
 62
     7
370
    35
100
AcDbLine
 10
309.4360066167
 20
191.5126664723
 30
0.0
 11
245.5972261774
 21
191.5126664723
 31
0.0
  0
LINE
  5
2D0
330
1F
100
AcDbEntity
  8
0
  6
PHANTOM
 62
     7
370
    35
100
AcDbLine
 10
245.5972261774
 20
191.5126664723
 30
0.0
 11
245.5972261774
 21
370.7080193018
 31
0.0
  0
LINE
  5
2D1
330
1F
100
AcDbEntity
  8
0
  6
PHANTOM
 62
     7
370
    35
100
AcDbLine
 10
245.5972261774
 20
370.7080193018
 30
0.0
 11
184.4360066167
 21
370.7080193018
 31
0.0
  0
LINE
  5
2D2
330
1F
100
AcDbEntity
  8
0
  6
PHANTOM
 62
     7
370
    35
100
AcDbLine
 10
184.4360066167
 20
370.7080193018
 30
0.0
 11
184.4360066167
 21
430.3435859226
 31
0.0
  0
LINE
  5
2D3
330
1F
100
AcDbEntity
  8
0
  6
Continuous
 62
     7
370
    35
100
AcDbLine
 10
322.1360066167
 20
151.0018222174
 30
0.0
 11
309.4360066167
 21
151.0018222174
 31
0.0
  0
SOLID
  5
2D4
330
1F
100
AcDbEntity
  8
0
  6
Continuous
 62
     7
370
    35
100
AcDbTrace
 10
309.4360066167
 20
151.0018222174
 30
0.0
 11
315.7860066167
 21
149.9858222174
 31
0.0
 12
315.7860066167
 22
152.0178222174
 32
0.0
 13
315.7860066167
 23
152.0178222174
 33
0.0
  0
LINE
  5
2D5
330
1F
100
AcDbEntity
  8
0
  6
Continuous
 62
     7
370
    35
100
AcDbLine
 10
197.1360066167
 20
428.3435859226
 30
0.0
 11
184.4360066167
 21
428.3435859226
 31
0.0
  0
SOLID
  5
2D6
330
1F
100
AcDbEntity
  8
0
  6
Continuous
 62
     7
370
    35
100
AcDbTrace
 10
184.4360066167
 20
428.3435859226
 30
0.0
 11
190.7860066167
 21
427.3275859226
 31
0.0
 12
190.7860066167
 22
429.3595859226
 32
0.0
 13
190.7860066167
 23
429.3595859226
 33
0.0
  0
MTEXT
  5
2D7
330
1F
100
AcDbEntity
  8
0
  6
Continuous
 62
     7
100
AcDbMText
 10
319.4617390027
 20
149.1524962773
 30
0.0
 40
3.5
 41
0.0
 71
     1
 72
     1
  1
B
  7
SLDTEXTSTYLE0
 73
     1
 44
1.0
  0
MTEXT
  5
2D8
330
1F
100
AcDbEntity
  8
0
  6
Continuous
 62
     7
100
AcDbMText
 10
194.4617390027
 20
433.8971172741
 30
0.0
 40
3.5
 41
0.0
 71
     1
 72
     1
  1
B
  7
SLDTEXTSTYLE0
 73
     1
 44
1.0
  0
ARC
  5
2D9
330
1F
100
AcDbEntity
  8
0
  6
Continuous
 62
     7
370
    18
100
AcDbCircle
 10
329.4360066167
 20
181.5435859226
 30
0.0
 40
5.000000000000013
100
AcDbArc
 50
255.0
 51
195.0
  0
ARC
  5
2DA
330
1F
100
AcDbEntity
  8
0
  6
Continuous
 62
     7
370
    18
100
AcDbCircle
 10
184.4360066167
 20
181.5435859226
 30
0.0
 40
4.999999999999993
100
AcDbArc
 50
255.0
 51
195.0
  0
ARC
  5
2DB
330
1F
100
AcDbEntity
  8
0
  6
Continuous
 62
     7
370
    18
100
AcDbCircle
 10
184.4360066167
 20
281.5435859226
 30
0.0
 40
5.000000000000021
100
AcDbArc
 50
255.0
 51
195.0
  0
ARC
  5
2DC
330
1F
100
AcDbEntity
  8
0
  6
Continuous
 62
     7
370
    18
100
AcDbCircle
 10
329.4360066167
 20
281.5435859226
 30
0.0
 40
5.000000000000028
100
AcDbArc
 50
255.0
 51
195.0
  0
ARC
  5
2DD
330
1F
100
AcDbEntity
  8
0
  6
Continuous
 62
     7
370
    18
100
AcDbCircle
 10
184.4360066167
 20
381.5435859226
 30
0.0
 40
5.000000000000021
100
AcDbArc
 50
255.0
 51
195.0
  0
ARC
  5
2DE
330
1F
100
AcDbEntity
  8
0
  6
Continuous
 62
     7
370
    18
100
AcDbCircle
 10
329.4360066167
 20
381.5435859226
 30
0.0
 40
5.000000000000013
100
AcDbArc
 50
255.0
 51
195.0
  0
INSERT
  5
2E5
330
1F
100
AcDbEntity
  8
0
  6
Continuous
 62
     7
370
     0
100
AcDbBlockReference
  2
SW_DOWELSYMBOL_0
 10
309.4360066167
 20
381.5435859226
 30
0.0
  0
INSERT
  5
2EC
330
1F
100
AcDbEntity
  8
0
  6
Continuous
 62
     7
370
     0
100
AcDbBlockReference
  2
SW_DOWELSYMBOL_1
 10
309.4360066167
 20
181.5435859226
 30
0.0
  0
LINE
  5
2ED
330
1F
100
AcDbEntity
  8
0
  6
Continuous
 62
     7
370
    25
100
AcDbLine
 10
329.4360035355
 20
525.7531641401
 30
0.0
 11
329.4360035355
 21
502.753163164
 31
0.0
  0
LINE
  5
2EE
330
1F
100
AcDbEntity
  8
0
  6
Continuous
 62
     7
370
    25
100
AcDbLine
 10
329.4360035355
 20
525.7531641401
 30
0.0
 11
331.4360075886
 21
525.7531641401
 31
0.0
  0
LINE
  5
2EF
330
1F
100
AcDbEntity
  8
0
  6
Continuous
 62
     7
370
    25
100
AcDbLine
 10
331.4360075886
 20
530.7531640283
 30
0.0
 11
331.4360075886
 21
525.7531641401
 31
0.0
  0
LINE
  5
2F0
330
1F
100
AcDbEntity
  8
0
  6
Continuous
 62
     7
370
    25
100
AcDbLine
 10
344.4360190327
 20
530.7531640283
 30
0.0
 11
331.4360075886
 21
530.7531640283
 31
0.0
  0
LINE
  5
2F1
330
1F
100
AcDbEntity
  8
0
  6
Continuous
 62
     7
370
    25
100
AcDbLine
 10
344.4360190327
 20
502.753163164
 30
0.0
 11
344.4360190327
 21
530.7531640283
 31
0.0
  0
LINE
  5
2F2
330
1F
100
AcDbEntity
  8
0
  6
Continuous
 62
     7
370
    25
100
AcDbLine
 10
344.4360190327
 20
502.753163164
 30
0.0
 11
329.4360035355
 21
502.753163164
 31
0.0
  0
LINE
  5
2F3
330
1F
100
AcDbEntity
  8
0
  6
Continuous
 62
     7
370
    25
100
AcDbLine
 10
260.5219179089
 20
530.7531640283
 30
0.0
 11
317.4360090191
 21
530.7531640283
 31
0.0
  0
LINE
  5
2F4
330
1F
100
AcDbEntity
  8
0
  6
Continuous
 62
     7
370
    25
100
AcDbLine
 10
317.4360090191
 20
525.7531641401
 30
0.0
 11
317.4360090191
 21
530.7531640283
 31
0.0
  0
LINE
  5
2F5
330
1F
100
AcDbEntity
  8
0
  6
Continuous
 62
     7
370
    25
100
AcDbLine
 10
317.4360090191
 20
525.7531641401
 30
0.0
 11
319.4360130722
 21
525.7531641401
 31
0.0
  0
LINE
  5
2F6
330
1F
100
AcDbEntity
  8
0
  6
Continuous
 62
     7
370
    25
100
AcDbLine
 10
319.4360130722
 20
502.753163164
 30
0.0
 11
319.4360130722
 21
525.7531641401
 31
0.0
  0
LINE
  5
2F7
330
1F
100
AcDbEntity
  8
0
  6
Continuous
 62
     7
370
    25
100
AcDbLine
 10
260.5219179089
 20
502.753163164
 30
0.0
 11
260.5219179089
 21
530.7531640283
 31
0.0
  0
LINE
  5
2F8
330
1F
100
AcDbEntity
  8
0
  6
Continuous
 62
     7
370
    25
100
AcDbLine
 10
260.5219179089
 20
502.753163164
 30
0.0
 11
319.4360130722
 21
502.753163164
 31
0.0
  0
LINE
  5
2F9
330
1F
100
AcDbEntity
  8
0
  6
Continuous
 62
     7
370
    25
100
AcDbLine
 10
319.4360130722
 20
525.7531641401
 30
0.0
 11
329.4360035355
 21
525.7531641401
 31
0.0
  0
LINE
  5
2FA
330
1F
100
AcDbEntity
  8
0
  6
Continuous
 62
     7
370
    25
100
AcDbLine
 10
329.4360035355
 20
502.753163164
 30
0.0
 11
319.4360130722
 21
502.753163164
 31
0.0
  0
LINE
  5
2FB
330
1F
100
AcDbEntity
  8
0
  6
Continuous
 62
     7
370
    25
100
AcDbLine
 10
188.6860125954
 20
502.753163164
 30
0.0
 11
188.6860125954
 21
530.7531640283
 31
0.0
  0
LINE
  5
2FC
330
1F
100
AcDbEntity
  8
0
  6
Continuous
 62
     7
370
    25
100
AcDbLine
 10
188.6860125954
 20
530.7531640283
 30
0.0
 11
229.4360094959
 21
530.7531640283
 31
0.0
  0
LINE
  5
2FD
330
1F
100
AcDbEntity
  8
0
  6
Continuous
 62
     7
370
    25
100
AcDbLine
 10
229.4360094959
 20
530.7531640283
 30
0.0
 11
229.4360094959
 21
502.753163164
 31
0.0
  0
LINE
  5
2FE
330
1F
100
AcDbEntity
  8
0
  6
Continuous
 62
     7
370
    25
100
AcDbLine
 10
188.6860125954
 20
502.753163164
 30
0.0
 11
229.4360094959
 21
502.753163164
 31
0.0
  0
LINE
  5
2FF
330
1F
100
AcDbEntity
  8
0
  6
Continuous
 62
     7
370
    25
100
AcDbLine
 10
169.4360071117
 20
530.7531640283
 30
0.0
 11
180.1860102708
 21
530.7531640283
 31
0.0
  0
LINE
  5
300
330
1F
100
AcDbEntity
  8
0
  6
Continuous
 62
     7
370
    25
100
AcDbLine
 10
180.1860102708
 20
530.7531640283
 30
0.0
 11
180.1860102708
 21
502.753163164
 31
0.0
  0
LINE
  5
301
330
1F
100
AcDbEntity
  8
0
  6
Continuous
 62
     7
370
    25
100
AcDbLine
 10
169.4360071117
 20
502.753163164
 30
0.0
 11
169.4360071117
 21
530.7531640283
 31
0.0
  0
LINE
  5
302
330
1F
100
AcDbEntity
  8
0
  6
Continuous
 62
     7
370
    25
100
AcDbLine
 10
169.4360071117
 20
502.753163164
 30
0.0
 11
180.1860102708
 21
502.753163164
 31
0.0
  0
LINE
  5
303
330
1F
100
AcDbEntity
  8
0
  6
Continuous
 62
     7
370
    25
100
AcDbLine
 10
188.6860125954
 20
530.7531640283
 30
0.0
 11
180.1860102708
 21
530.7531640283
 31
0.0
  0
LINE
  5
304
330
1F
100
AcDbEntity
  8
0
  6
Continuous
 62
     7
370
    25
100
AcDbLine
 10
188.6860125954
 20
502.753163164
 30
0.0
 11
180.1860102708
 21
502.753163164
 31
0.0
  0
LINE
  5
305
330
1F
100
AcDbEntity
  8
0
  6
Continuous
 62
     7
370
    25
100
AcDbLine
 10
331.4360075886
 20
530.7531640283
 30
0.0
 11
317.4360090191
 21
530.7531640283
 31
0.0
  0
LINE
  5
306
330
1F
100
AcDbEntity
  8
0
  6
Continuous
 62
     7
370
    25
100
AcDbLine
 10
260.0288086826
 20
502.753163164
 30
0.0
 11
260.0288086826
 21
530.7531640283
 31
0.0
  0
LINE
  5
307
330
1F
100
AcDbEntity
  8
0
  6
Continuous
 62
     7
370
    25
100
AcDbLine
 10
260.5219179089
 20
530.7531640283
 30
0.0
 11
260.0288086826
 21
530.7531640283
 31
0.0
  0
LINE
  5
308
330
1F
100
AcDbEntity
  8
0
  6
Continuous
 62
     7
370
    25
100
AcDbLine
 10
260.5219179089
 20
502.753163164
 30
0.0
 11
260.0288086826
 21
502.753163164
 31
0.0
  0
LINE
  5
309
330
1F
100
AcDbEntity
  8
0
  6
Continuous
 62
     7
370
    25
100
AcDbLine
 10
256.5458112652
 20
502.753163164
 30
0.0
 11
256.5458112652
 21
530.7531640283
 31
0.0
  0
LINE
  5
30A
330
1F
100
AcDbEntity
  8
0
  6
Continuous
 62
     7
370
    25
100
AcDbLine
 10
260.0288086826
 20
530.7531640283
 30
0.0
 11
256.5458112652
 21
530.7531640283
 31
0.0
  0
LINE
  5
30B
330
1F
100
AcDbEntity
  8
0
  6
Continuous
 62
     7
370
    25
100
AcDbLine
 10
260.0288086826
 20
502.753163164
 30
0.0
 11
256.5458112652
 21
502.753163164
 31
0.0
  0
LINE
  5
30C
330
1F
100
AcDbEntity
  8
0
  6
Continuous
 62
     7
370
    25
100
AcDbLine
 10
255.0339245493
 20
502.753163164
 30
0.0
 11
255.0339245493
 21
530.7531640283
 31
0.0
  0
LINE
  5
30D
330
1F
100
AcDbEntity
  8
0
  6
Continuous
 62
     7
370
    25
100
AcDbLine
 10
255.0339245493
 20
530.7531640283
 30
0.0
 11
229.4360094959
 21
530.7531640283
 31
0.0
  0
LINE
  5
30E
330
1F
100
AcDbEntity
  8
0
  6
Continuous
 62
     7
370
    25
100
AcDbLine
 10
255.0339245493
 20
502.753163164
 30
0.0
 11
229.4360094959
 21
502.753163164
 31
0.0
  0
LINE
  5
30F
330
1F
100
AcDbEntity
  8
0
  6
Continuous
 62
     7
370
    25
100
AcDbLine
 10
256.5458112652
 20
530.7531640283
 30
0.0
 11
255.0339245493
 21
530.7531640283
 31
0.0
  0
LINE
  5
310
330
1F
100
AcDbEntity
  8
0
  6
Continuous
 62
     7
370
    25
100
AcDbLine
 10
256.5458112652
 20
502.753163164
 30
0.0
 11
255.0339245493
 21
502.753163164
 31
0.0
  0
HATCH
  5
311
330
1F
100
AcDbEntity
  8
0
  6
Continuous
 62
     7
370
    18
100
AcDbHatch
 10
0.0
 20
0.0
 30
0.0
210
0.0
220
0.0
230
1.0
  2
ANSI31
 70
     0
 71
     0
 91
        1
 92
        0
 93
        6
 72
     1
 10
260.5219152544751
 20
530.753164028292
 11
260.5219152544751
 21
502.7531640282921
 72
     1
 10
260.5219152544751
 20
502.7531640282921
 11
319.4360066166555
 21
502.7531640282921
 72
     1
 10
319.4360066166555
 20
502.7531640282921
 11
319.4360066166555
 21
525.7531640282921
 72
     1
 10
319.4360066166555
 20
525.7531640282921
 11
317.4360066166558
 21
525.7531640282921
 72
     1
 10
317.4360066166558
 20
525.7531640282921
 11
317.4360066166558
 21
530.7531640282921
 72
     1
 10
317.4360066166558
 20
530.7531640282921
 11
260.5219152544751
 21
530.753164028292
 97
        0
 75
     0
 76
     1
 52
0.0
 41
1.0
 77
     0
 78
     1
 53
45.0
 43
0.0
 44
0.0
 45
-2.245064030267288
 46
2.245064030267288
 79
     0
 98
        1
 10
0.0
 20
0.0
  0
HATCH
  5
312
330
1F
100
AcDbEntity
  8
0
  6
Continuous
 62
     7
370
    18
100
AcDbHatch
 10
0.0
 20
0.0
 30
0.0
210
0.0
220
0.0
230
1.0
  2
ANSI31
 70
     0
 71
     0
 91
        1
 92
        0
 93
        4
 72
     1
 10
229.4360066166566
 20
502.7531640282921
 11
229.4360066166566
 21
530.753164028292
 72
     1
 10
229.4360066166566
 20
530.753164028292
 11
188.6860066166565
 21
530.753164028292
 72
     1
 10
188.6860066166565
 20
530.753164028292
 11
188.6860066166565
 21
502.7531640282921
 72
     1
 10
188.6860066166565
 20
502.7531640282921
 11
229.4360066166566
 21
502.7531640282921
 97
        0
 75
     0
 76
     1
 52
0.0
 41
1.0
 77
     0
 78
     1
 53
45.0
 43
0.0
 44
0.0
 45
-2.245064030267288
 46
2.245064030267288
 79
     0
 98
        1
 10
0.0
 20
0.0
  0
HATCH
  5
313
330
1F
100
AcDbEntity
  8
0
  6
Continuous
 62
     7
370
    18
100
AcDbHatch
 10
0.0
 20
0.0
 30
0.0
210
0.0
220
0.0
230
1.0
  2
ANSI31
 70
     0
 71
     0
 91
        1
 92
        0
 93
        4
 72
     1
 10
169.4360066166565
 20
530.753164028292
 11
169.4360066166565
 21
502.7531640282921
 72
     1
 10
169.4360066166565
 20
502.7531640282921
 11
180.1860066166565
 21
502.7531640282921
 72
     1
 10
180.1860066166565
 20
502.7531640282921
 11
180.1860066166565
 21
530.753164028292
 72
     1
 10
180.1860066166565
 20
530.753164028292
 11
169.4360066166565
 21
530.753164028292
 97
        0
 75
     0
 76
     1
 52
0.0
 41
1.0
 77
     0
 78
     1
 53
45.0
 43
0.0
 44
0.0
 45
-2.245064030267288
 46
2.245064030267288
 79
     0
 98
        1
 10
0.0
 20
0.0
  0
HATCH
  5
314
330
1F
100
AcDbEntity
  8
0
  6
Continuous
 62
     7
370
    18
100
AcDbHatch
 10
0.0
 20
0.0
 30
0.0
210
0.0
220
0.0
230
1.0
  2
ANSI31
 70
     0
 71
     0
 91
        1
 92
        0
 93
        6
 72
     1
 10
329.4360066166558
 20
502.7531640282921
 11
344.4360066166559
 21
502.7531640282921
 72
     1
 10
344.4360066166559
 20
502.7531640282921
 11
344.4360066166559
 21
530.7531640282921
 72
     1
 10
344.4360066166559
 20
530.7531640282921
 11
331.4360066166558
 21
530.7531640282921
 72
     1
 10
331.4360066166558
 20
530.7531640282921
 11
331.4360066166558
 21
525.7531640282921
 72
     1
 10
331.4360066166558
 20
525.7531640282921
 11
329.4360066166558
 21
525.7531640282921
 72
     1
 10
329.4360066166558
 20
525.7531640282921
 11
329.4360066166558
 21
502.7531640282921
 97
        0
 75
     0
 76
     1
 52
0.0
 41
1.0
 77
     0
 78
     1
 53
45.0
 43
0.0
 44
0.0
 45
-2.245064030267288
 46
2.245064030267288
 79
     0
 98
        1
 10
0.0
 20
0.0
  0
DIMENSION
  5
315
330
1F
100
AcDbEntity
  8
0
  6
Continuous
 62
     7
370
    18
100
AcDbDimension
  2
_D_29
 10
179.4360066167
 20
540.7531640283
 30
0.0
 11
198.5099763655
 21
540.7531640283
 31
0.0
 70
   160
  1
M10
 71
     2
 42
-1.0
  3
SLDDIMSTYLE3
100
AcDbAlignedDimension
 13
189.4360066167
 23
530.7531640283
 33
0.0
 14
179.4360066167
 24
530.7531640283
 34
0.0
100
AcDbRotatedDimension
  0
DIMENSION
  5
320
330
1F
100
AcDbEntity
  8
0
  6
Continuous
 62
     7
370
    18
100
AcDbDimension
  2
_D_30
 10
331.4360066167
 20
540.7531640283
 30
0.0
 11
324.6924513782
 21
540.7531640283
 31
0.0
 70
   160
  1
%%c<>
 71
     2
 42
-1.0
  3
SLDDIMSTYLE4
100
AcDbAlignedDimension
 13
317.4360066167
 23
530.7531640283
 33
0.0
 14
331.4360066167
 24
530.7531640283
 34
0.0
100
AcDbRotatedDimension
  0
DIMENSION
  5
32E
330
1F
100
AcDbEntity
  8
0
  6
Continuous
 62
     7
370
    18
100
AcDbDimension
  2
_D_31
 10
354.4360066167
 20
525.7531640283
 30
0.0
 11
354.4360066167
 21
540.7531640283
 31
0.0
 70
   160
  1
<>
 71
     2
 42
-1.0
  3
SLDDIMSTYLE4
100
AcDbAlignedDimension
 13
344.4360066167
 23
530.7531640283
 33
0.0
 14
331.4360066167
 24
525.7531640283
 34
0.0
 50
90.0
100
AcDbRotatedDimension
  0
DIMENSION
  5
33A
330
1F
100
AcDbEntity
  8
0
  6
Continuous
 62
     7
370
    18
100
AcDbDimension
  2
_D_32
 10
329.4360066167
 20
492.7531640283
 30
0.0
 11
338.6839373139
 21
492.7531640283
 31
0.0
 70
   160
  1
%%c<>H7
 71
     2
 42
-1.0
  3
SLDDIMSTYLE3
100
AcDbAlignedDimension
 13
319.4360066167
 23
502.7531640283
 33
0.0
 14
329.4360066167
 24
502.7531640283
 34
0.0
100
AcDbRotatedDimension
  0
MTEXT
  5
347
330
1F
100
AcDbEntity
  8
0
  6
Continuous
 62
     7
370
     0
100
AcDbMText
 10
384.6855857027
 20
567.014050981
 30
0.0
 40
3.5
 41
0.0
 71
     2
 72
     1
  1
COUPE A-A
  7
SLDTEXTSTYLE0
 73
     1
 44
1.0
  0
LINE
  5
348
330
1F
100
AcDbEntity
  8
0
  6
Continuous
 62
     7
370
    18
100
AcDbLine
 10
189.4360066167
 20
530.7531640283
 30
0.0
 11
189.4360066167
 21
502.7531640283
 31
0.0
  0
LINE
  5
349
330
1F
100
AcDbEntity
  8
0
  6
Continuous
 62
     7
370
    18
100
AcDbLine
 10
179.4360066167
 20
530.7531640283
 30
0.0
 11
179.4360066167
 21
502.7531640283
 31
0.0
  0
LINE
  5
34A
330
1F
100
AcDbEntity
  8
0
  6
CENTERX2
 62
     7
370
    18
100
AcDbLine
 10
184.4360066167
 20
500.7531640283
 30
0.0
 11
184.4360066167
 21
532.7531640283
 31
0.0
  0
LINE
  5
34B
330
1F
100
AcDbEntity
  8
0
  6
CENTERX2
 62
     7
370
    18
100
AcDbLine
 10
324.4360066167
 20
527.7531640283
 30
0.0
 11
324.4360066167
 21
500.7531640283
 31
0.0
  0
LINE
  5
34C
330
1F
100
AcDbEntity
  8
0
  6
Continuous
 62
     7
370
    25
100
AcDbLine
 10
63.695432232
 20
334.9707147017
 30
0.0
 11
35.6954313678
 21
334.9707147017
 31
0.0
  0
LINE
  5
34D
330
1F
100
AcDbEntity
  8
0
  6
Continuous
 62
     7
370
    25
100
AcDbLine
 10
63.695432232
 20
187.5435879364
 30
0.0
 11
35.6954313678
 21
187.5435879364
 31
0.0
  0
LINE
  5
34E
330
1F
100
AcDbEntity
  8
0
  6
Continuous
 62
     7
370
    25
100
AcDbLine
 10
63.695432232
 20
187.5435879364
 30
0.0
 11
63.695432232
 21
175.5435859695
 31
0.0
  0
LINE
  5
34F
330
1F
100
AcDbEntity
  8
0
  6
Continuous
 62
     7
370
    25
100
AcDbLine
 10
35.6954313678
 20
175.5435859695
 30
0.0
 11
63.695432232
 21
175.5435859695
 31
0.0
  0
LINE
  5
350
330
1F
100
AcDbEntity
  8
0
  6
Continuous
 62
     7
370
    25
100
AcDbLine
 10
35.6954313678
 20
187.5435879364
 30
0.0
 11
35.6954313678
 21
175.5435859695
 31
0.0
  0
LINE
  5
351
330
1F
100
AcDbEntity
  8
0
  6
Continuous
 62
     7
370
    25
100
AcDbLine
 10
35.6954313678
 20
161.5435799494
 30
0.0
 11
35.6954313678
 21
175.5435859695
 31
0.0
  0
LINE
  5
352
330
1F
100
AcDbEntity
  8
0
  6
Continuous
 62
     7
370
    25
100
AcDbLine
 10
63.695432232
 20
161.5435799494
 30
0.0
 11
63.695432232
 21
175.5435859695
 31
0.0
  0
LINE
  5
353
330
1F
100
AcDbEntity
  8
0
  6
Continuous
 62
     7
370
    25
100
AcDbLine
 10
63.695432232
 20
161.5435799494
 30
0.0
 11
35.6954313678
 21
161.5435799494
 31
0.0
  0
LINE
  5
354
330
1F
100
AcDbEntity
  8
0
  6
Continuous
 62
     7
370
    25
100
AcDbLine
 10
35.6954313678
 20
187.5435879364
 30
0.0
 11
35.6954313678
 21
192.484783186
 31
0.0
  0
LINE
  5
355
330
1F
100
AcDbEntity
  8
0
  6
Continuous
 62
     7
370
    25
100
AcDbLine
 10
63.695432232
 20
192.484783186
 30
0.0
 11
35.6954313678
 21
192.484783186
 31
0.0
  0
LINE
  5
356
330
1F
100
AcDbEntity
  8
0
  6
Continuous
 62
     7
370
    25
100
AcDbLine
 10
63.695432232
 20
187.5435879364
 30
0.0
 11
63.695432232
 21
192.484783186
 31
0.0
  0
LINE
  5
357
330
1F
100
AcDbEntity
  8
0
  6
Continuous
 62
     7
370
    25
100
AcDbLine
 10
35.6954313678
 20
385.7935836449
 30
0.0
 11
63.695432232
 21
385.7935836449
 31
0.0
  0
LINE
  5
358
330
1F
100
AcDbEntity
  8
0
  6
Continuous
 62
     7
370
    25
100
AcDbLine
 10
35.6954313678
 20
401.5435894862
 30
0.0
 11
35.6954313678
 21
385.7935836449
 31
0.0
  0
LINE
  5
359
330
1F
100
AcDbEntity
  8
0
  6
Continuous
 62
     7
370
    25
100
AcDbLine
 10
63.695432232
 20
401.5435894862
 30
0.0
 11
35.6954313678
 21
401.5435894862
 31
0.0
  0
LINE
  5
35A
330
1F
100
AcDbEntity
  8
0
  6
Continuous
 62
     7
370
    25
100
AcDbLine
 10
63.695432232
 20
401.5435894862
 30
0.0
 11
63.695432232
 21
385.7935836449
 31
0.0
  0
LINE
  5
35B
330
1F
100
AcDbEntity
  8
0
  6
Continuous
 62
     7
370
    25
100
AcDbLine
 10
63.695432232
 20
377.2935887709
 30
0.0
 11
35.6954313678
 21
377.2935887709
 31
0.0
  0
LINE
  5
35C
330
1F
100
AcDbEntity
  8
0
  6
Continuous
 62
     7
370
    25
100
AcDbLine
 10
35.6954313678
 20
385.7935836449
 30
0.0
 11
35.6954313678
 21
377.2935887709
 31
0.0
  0
LINE
  5
35D
330
1F
100
AcDbEntity
  8
0
  6
Continuous
 62
     7
370
    25
100
AcDbLine
 10
63.695432232
 20
385.7935836449
 30
0.0
 11
63.695432232
 21
377.2935887709
 31
0.0
  0
LINE
  5
35E
330
1F
100
AcDbEntity
  8
0
  6
Continuous
 62
     7
370
    25
100
AcDbLine
 10
35.6954313678
 20
365.5277362004
 30
0.0
 11
63.695432232
 21
365.5277362004
 31
0.0
  0
LINE
  5
35F
330
1F
100
AcDbEntity
  8
0
  6
Continuous
 62
     7
370
    25
100
AcDbLine
 10
35.6954313678
 20
377.2935887709
 30
0.0
 11
35.6954313678
 21
365.5277362004
 31
0.0
  0
LINE
  5
360
330
1F
100
AcDbEntity
  8
0
  6
Continuous
 62
     7
370
    25
100
AcDbLine
 10
63.695432232
 20
377.2935887709
 30
0.0
 11
63.695432232
 21
365.5277362004
 31
0.0
  0
LINE
  5
361
330
1F
100
AcDbEntity
  8
0
  6
Continuous
 62
     7
370
    25
100
AcDbLine
 10
63.695432232
 20
364.6036779418
 30
0.0
 11
35.6954313678
 21
364.6036779418
 31
0.0
  0
LINE
  5
362
330
1F
100
AcDbEntity
  8
0
  6
Continuous
 62
     7
370
    25
100
AcDbLine
 10
35.6954313678
 20
365.5277362004
 30
0.0
 11
35.6954313678
 21
364.6036779418
 31
0.0
  0
LINE
  5
363
330
1F
100
AcDbEntity
  8
0
  6
Continuous
 62
     7
370
    25
100
AcDbLine
 10
63.695432232
 20
365.5277362004
 30
0.0
 11
63.695432232
 21
364.6036779418
 31
0.0
  0
LINE
  5
364
330
1F
100
AcDbEntity
  8
0
  6
Continuous
 62
     7
370
    25
100
AcDbLine
 10
63.695432232
 20
328.9707137182
 30
0.0
 11
35.6954313678
 21
328.9707137182
 31
0.0
  0
LINE
  5
365
330
1F
100
AcDbEntity
  8
0
  6
Continuous
 62
     7
370
    25
100
AcDbLine
 10
63.695432232
 20
236.9436977342
 30
0.0
 11
35.6954313678
 21
236.9436977342
 31
0.0
  0
LINE
  5
366
330
1F
100
AcDbEntity
  8
0
  6
Continuous
 62
     7
370
    25
100
AcDbLine
 10
35.6954313678
 20
328.9707137182
 30
0.0
 11
35.6954313678
 21
236.9436977342
 31
0.0
  0
LINE
  5
367
330
1F
100
AcDbEntity
  8
0
  6
Continuous
 62
     7
370
    25
100
AcDbLine
 10
63.695432232
 20
328.9707137182
 30
0.0
 11
63.695432232
 21
236.9436977342
 31
0.0
  0
LINE
  5
368
330
1F
100
AcDbEntity
  8
0
  6
Continuous
 62
     7
370
    25
100
AcDbLine
 10
63.695432232
 20
230.9455370441
 30
0.0
 11
35.6954313678
 21
230.9455370441
 31
0.0
  0
LINE
  5
369
330
1F
100
AcDbEntity
  8
0
  6
Continuous
 62
     7
370
    25
100
AcDbLine
 10
35.6954313678
 20
236.9436977342
 30
0.0
 11
35.6954313678
 21
230.9455370441
 31
0.0
  0
LINE
  5
36A
330
1F
100
AcDbEntity
  8
0
  6
Continuous
 62
     7
370
    25
100
AcDbLine
 10
63.695432232
 20
236.9436977342
 30
0.0
 11
63.695432232
 21
230.9455370441
 31
0.0
  0
LINE
  5
36B
330
1F
100
AcDbEntity
  8
0
  6
Continuous
 62
     7
370
    25
100
AcDbLine
 10
35.6954313678
 20
334.9707147017
 30
0.0
 11
35.6954313678
 21
328.9707137182
 31
0.0
  0
LINE
  5
36C
330
1F
100
AcDbEntity
  8
0
  6
Continuous
 62
     7
370
    25
100
AcDbLine
 10
63.695432232
 20
334.9707147017
 30
0.0
 11
63.695432232
 21
328.9707137182
 31
0.0
  0
LINE
  5
36D
330
1F
100
AcDbEntity
  8
0
  6
Continuous
 62
     7
370
    25
100
AcDbLine
 10
63.695432232
 20
230.5499000385
 30
0.0
 11
35.6954313678
 21
230.5499000385
 31
0.0
  0
LINE
  5
36E
330
1F
100
AcDbEntity
  8
0
  6
Continuous
 62
     7
370
    25
100
AcDbLine
 10
35.6954313678
 20
230.9455370441
 30
0.0
 11
35.6954313678
 21
230.5499000385
 31
0.0
  0
LINE
  5
36F
330
1F
100
AcDbEntity
  8
0
  6
Continuous
 62
     7
370
    25
100
AcDbLine
 10
63.695432232
 20
230.9455370441
 30
0.0
 11
63.695432232
 21
230.5499000385
 31
0.0
  0
LINE
  5
370
330
1F
100
AcDbEntity
  8
0
  6
Continuous
 62
     7
370
    25
100
AcDbLine
 10
35.6954313678
 20
364.6036779418
 30
0.0
 11
35.6954313678
 21
334.9707147017
 31
0.0
  0
LINE
  5
371
330
1F
100
AcDbEntity
  8
0
  6
Continuous
 62
     7
370
    25
100
AcDbLine
 10
63.695432232
 20
364.6036779418
 30
0.0
 11
63.695432232
 21
334.9707147017
 31
0.0
  0
LINE
  5
372
330
1F
100
AcDbEntity
  8
0
  6
Continuous
 62
     7
370
    25
100
AcDbLine
 10
35.6954313678
 20
230.5499000385
 30
0.0
 11
35.6954313678
 21
192.484783186
 31
0.0
  0
LINE
  5
373
330
1F
100
AcDbEntity
  8
0
  6
Continuous
 62
     7
370
    25
100
AcDbLine
 10
63.695432232
 20
230.5499000385
 30
0.0
 11
63.695432232
 21
192.484783186
 31
0.0
  0
HATCH
  5
374
330
1F
100
AcDbEntity
  8
0
  6
Continuous
 62
     7
370
    18
100
AcDbHatch
 10
0.0
 20
0.0
 30
0.0
210
0.0
220
0.0
230
1.0
  2
ANSI31
 70
     0
 71
     0
 91
        1
 92
        0
 93
        4
 72
     1
 10
35.69543136778052
 20
187.5435859225697
 11
63.69543136778052
 21
187.5435859225697
 72
     1
 10
63.69543136778052
 20
187.5435859225697
 11
63.69543136778052
 21
192.4847866998028
 72
     1
 10
63.69543136778052
 20
192.4847866998028
 11
35.69543136778052
 21
192.4847866998028
 72
     1
 10
35.69543136778052
 20
192.4847866998028
 11
35.69543136778052
 21
187.5435859225697
 97
        0
 75
     0
 76
     1
 52
0.0
 41
1.0
 77
     0
 78
     1
 53
45.0
 43
0.0
 44
0.0
 45
-2.245064030267288
 46
2.245064030267288
 79
     0
 98
        1
 10
0.0
 20
0.0
  0
HATCH
  5
375
330
1F
100
AcDbEntity
  8
0
  6
Continuous
 62
     7
370
    18
100
AcDbHatch
 10
0.0
 20
0.0
 30
0.0
210
0.0
220
0.0
230
1.0
  2
ANSI31
 70
     0
 71
     0
 91
        1
 92
        0
 93
        4
 72
     1
 10
35.69543136778052
 20
161.5435859225697
 11
63.69543136778052
 21
161.5435859225697
 72
     1
 10
63.69543136778052
 20
161.5435859225697
 11
63.69543136778052
 21
175.5435859225698
 72
     1
 10
63.69543136778052
 20
175.5435859225698
 11
35.69543136778052
 21
175.5435859225698
 72
     1
 10
35.69543136778052
 20
175.5435859225698
 11
35.69543136778052
 21
161.5435859225697
 97
        0
 75
     0
 76
     1
 52
0.0
 41
1.0
 77
     0
 78
     1
 53
45.0
 43
0.0
 44
0.0
 45
-2.245064030267288
 46
2.245064030267288
 79
     0
 98
        1
 10
0.0
 20
0.0
  0
HATCH
  5
376
330
1F
100
AcDbEntity
  8
0
  6
Continuous
 62
     7
370
    18
100
AcDbHatch
 10
0.0
 20
0.0
 30
0.0
210
0.0
220
0.0
230
1.0
  2
ANSI31
 70
     0
 71
     0
 91
        1
 92
        0
 93
        4
 72
     1
 10
63.69543136778052
 20
365.5277370163564
 11
63.69543136778052
 21
377.2935859225681
 72
     1
 10
63.69543136778052
 20
377.2935859225681
 11
35.69543136778051
 21
377.2935859225681
 72
     1
 10
35.69543136778051
 20
377.2935859225681
 11
35.69543136778052
 21
365.5277370163564
 72
     1
 10
35.69543136778052
 20
365.5277370163564
 11
63.69543136778052
 21
365.5277370163564
 97
        0
 75
     0
 76
     1
 52
0.0
 41
1.0
 77
     0
 78
     1
 53
45.0
 43
0.0
 44
0.0
 45
-2.245064030267288
 46
2.245064030267288
 79
     0
 98
        1
 10
0.0
 20
0.0
  0
HATCH
  5
377
330
1F
100
AcDbEntity
  8
0
  6
Continuous
 62
     7
370
    18
100
AcDbHatch
 10
0.0
 20
0.0
 30
0.0
210
0.0
220
0.0
230
1.0
  2
ANSI31
 70
     0
 71
     0
 91
        1
 92
        0
 93
        4
 72
     1
 10
63.69543136778052
 20
385.7935859225681
 11
63.69543136778052
 21
401.5435859225681
 72
     1
 10
63.69543136778052
 20
401.5435859225681
 11
35.69543136778052
 21
401.5435859225681
 72
     1
 10
35.69543136778052
 20
401.5435859225681
 11
35.69543136778051
 21
385.7935859225681
 72
     1
 10
35.69543136778051
 20
385.7935859225681
 11
63.69543136778052
 21
385.7935859225681
 97
        0
 75
     0
 76
     1
 52
0.0
 41
1.0
 77
     0
 78
     1
 53
45.0
 43
0.0
 44
0.0
 45
-2.245064030267288
 46
2.245064030267288
 79
     0
 98
        1
 10
0.0
 20
0.0
  0
DIMENSION
  5
378
330
1F
100
AcDbEntity
  8
0
  6
Continuous
 62
     7
370
    18
100
AcDbDimension
  2
_D_33
 10
35.6954313678
 20
417.5435859226
 30
0.0
 11
50.975034502
 21
417.5435859226
 31
0.0
 70
   160
  1
<>
 71
     2
 42
-1.0
  3
SLDDIMSTYLE3
100
AcDbAlignedDimension
 13
63.6954313678
 23
401.5435859226
 33
0.0
 14
35.6954313678
 24
401.5435859226
 34
0.0
100
AcDbRotatedDimension
  0
DIMENSION
  5
382
330
1F
100
AcDbEntity
  8
0
  6
Continuous
 62
     7
370
    18
100
AcDbDimension
  2
_D_34
 10
25.6954313678
 20
175.5435859226
 30
0.0
 11
25.6954313678
 21
192.5966439688
 31
0.0
 70
   160
  1
%%c<>H7
 71
     2
 42
-1.0
  3
SLDDIMSTYLE3
100
AcDbAlignedDimension
 13
35.6954313678
 23
187.5435859226
 33
0.0
 14
35.6954313678
 24
175.5435859226
 34
0.0
 50
90.0
100
AcDbRotatedDimension
  0
MTEXT
  5
38F
330
1F
100
AcDbEntity
  8
0
  6
Continuous
 62
     7
370
     0
100
AcDbMText
 10
42.6232313547
 20
130.3219019992
 30
0.0
 40
3.5
 41
0.0
 71
     2
 72
     1
  1
COUPE B-B
  7
SLDTEXTSTYLE0
 73
     1
 44
1.0
  0
LINE
  5
390
330
1F
100
AcDbEntity
  8
0
  6
Continuous
 62
     7
370
    18
100
AcDbLine
 10
35.6954313678
 20
386.5435859226
 30
0.0
 11
63.6954313678
 21
386.5435859226
 31
0.0
  0
LINE
  5
391
330
1F
100
AcDbEntity
  8
0
  6
Continuous
 62
     7
370
    18
100
AcDbLine
 10
35.6954313678
 20
376.5435859226
 30
0.0
 11
63.6954313678
 21
376.5435859226
 31
0.0
  0
LINE
  5
392
330
1F
100
AcDbEntity
  8
0
  6
CENTERX2
 62
     7
370
    18
100
AcDbLine
 10
65.6954313678
 20
381.5435859226
 30
0.0
 11
33.6954313678
 21
381.5435859226
 31
0.0
  0
LINE
  5
393
330
1F
100
AcDbEntity
  8
0
  6
CENTERX2
 62
     7
370
    18
100
AcDbLine
 10
33.6954313678
 20
181.5435859226
 30
0.0
 11
65.6954313678
 21
181.5435859226
 31
0.0
  0
ENDSEC
  0
SECTION
  2
OBJECTS
  0
DICTIONARY
  5
C
330
0
100
AcDbDictionary
281
     1
  3
ACAD_GROUP
350
D
  3
ACAD_LAYOUT
350
1A
  3
ACAD_MLINESTYLE
350
17
  3
ACAD_PLOTSETTINGS
350
19
  3
ACAD_PLOTSTYLENAME
350
E
  3
ACAD_SCALELIST
350
47
  0
DICTIONARY
  5
D
102
{ACAD_REACTORS
330
C
102
}
330
C
100
AcDbDictionary
281
     1
  0
DICTIONARY
  5
1A
102
{ACAD_REACTORS
330
C
102
}
330
C
100
AcDbDictionary
281
     1
  3
Layout1
350
1E
  3
Layout2
350
26
  3
Model
350
22
  0
DICTIONARY
  5
17
102
{ACAD_REACTORS
330
C
102
}
330
C
100
AcDbDictionary
281
     1
  3
Standard
350
18
  0
DICTIONARY
  5
19
102
{ACAD_REACTORS
330
C
102
}
330
C
100
AcDbDictionary
281
     1
  0
ACDBDICTIONARYWDFLT
  5
E
102
{ACAD_REACTORS
330
C
102
}
330
C
100
AcDbDictionary
281
     1
  3
Normal
350
F
100
AcDbDictionaryWithDefault
340
F
  0
DICTIONARY
  5
47
102
{ACAD_REACTORS
330
C
102
}
330
C
100
AcDbDictionary
281
     1
  3
A0
350
48
  3
A1
350
49
  3
A2
350
4A
  3
A3
350
4B
  3
A4
350
4C
  3
A5
350
4D
  3
A6
350
4E
  3
A7
350
4F
  3
A8
350
50
  3
A9
350
51
  3
B0
350
52
  3
B1
350
53
  3
B2
350
54
  3
B3
350
55
  3
B4
350
56
  3
B5
350
57
  3
B6
350
58
  3
B7
350
59
  3
B8
350
5A
  3
B9
350
5B
  3
C0
350
5C
  3
C1
350
5D
  3
C2
350
5E
  3
C3
350
5F
  3
C4
350
60
  3
C5
350
61
  3
C6
350
62
  3
C7
350
63
  3
C8
350
64
  3
C9
350
65
  3
D0
350
66
  3
D1
350
67
  3
D2
350
68
  0
LAYOUT
  5
1E
102
{ACAD_REACTORS
330
1A
102
}
330
1A
100
AcDbPlotSettings
  1

  2
none_device
  4

  6

 40
0.0
 41
0.0
 42
0.0
 43
0.0
 44
0.0
 45
0.0
 46
0.0
 47
0.0
 48
0.0
 49
0.0
140
0.0
141
0.0
142
1.0
143
1.0
 70
   688
 72
     1
 73
     0
 74
     5
  7

 75
    16
147
1.0
148
0.0
149
0.0
100
AcDbLayout
  1
Layout1
 70
     1
 71
     1
 10
0.0
 20
0.0
 11
420.0
 21
297.0
 12
0.0
 22
0.0
 32
0.0
 14
1.0000000000E+20
 24
1.0000000000E+20
 34
1.0000000000E+20
 15
-1.0000000000E+20
 25
-1.0000000000E+20
 35
-1.0000000000E+20
146
0.0
 13
0.0
 23
0.0
 33
0.0
 16
1.0
 26
0.0
 36
0.0
 17
0.0
 27
1.0
 37
0.0
 76
     0
330
1B
  0
LAYOUT
  5
26
102
{ACAD_REACTORS
330
1A
102
}
330
1A
100
AcDbPlotSettings
  1

  2
none_device
  4

  6

 40
0.0
 41
0.0
 42
0.0
 43
0.0
 44
0.0
 45
0.0
 46
0.0
 47
0.0
 48
0.0
 49
0.0
140
0.0
141
0.0
142
1.0
143
1.0
 70
   688
 72
     1
 73
     0
 74
     5
  7

 75
    16
147
1.0
148
0.0
149
0.0
100
AcDbLayout
  1
Layout2
 70
     1
 71
     2
 10
0.0
 20
0.0
 11
0.0
 21
0.0
 12
0.0
 22
0.0
 32
0.0
 14
0.0
 24
0.0
 34
0.0
 15
0.0
 25
0.0
 35
0.0
146
0.0
 13
0.0
 23
0.0
 33
0.0
 16
1.0
 26
0.0
 36
0.0
 17
0.0
 27
1.0
 37
0.0
 76
     0
330
23
  0
LAYOUT
  5
22
102
{ACAD_REACTORS
330
1A
102
}
330
1A
100
AcDbPlotSettings
  1

  2
none_device
  4
Letter_(8.50_x_11.00_Inches)
  6

 40
6.35
 41
6.35
 42
6.35000508
 43
6.35000508
 44
215.9
 45
279.4
 46
0.0
 47
0.0
 48
0.0
 49
0.0
140
0.0
141
0.0
142
1.0
143
1.0
 70
  1712
 72
     1
 73
     0
 74
     0
  7

 75
     0
147
1.0
148
0.0
149
0.0
100
AcDbLayout
  1
Model
 70
     1
 71
     0
 10
0.0
 20
0.0
 11
420.0
 21
594.0
 12
0.0
 22
0.0
 32
0.0
 14
0.0
 24
0.0
 34
0.0
 15
420.0
 25
594.0
 35
0.0
146
0.0
 13
0.0
 23
0.0
 33
0.0
 16
1.0
 26
0.0
 36
0.0
 17
0.0
 27
1.0
 37
0.0
 76
     0
330
1F
331
29
  0
MLINESTYLE
  5
18
102
{ACAD_REACTORS
330
17
102
}
330
17
100
AcDbMlineStyle
  2
Standard
 70
     0
  3

 62
   256
 51
90.0
 52
90.0
 71
     2
 49
0.5
 62
   256
  6
BYLAYER
 49
-0.5
 62
   256
  6
BYLAYER
  0
ACDBPLACEHOLDER
  5
F
102
{ACAD_REACTORS
330
E
102
}
330
E
  0
SCALE
  5
48
102
{ACAD_REACTORS
330
47
102
}
330
47
100
AcDbScale
 70
     0
300
1:1
140
1.0
141
1.0
290
     1
  0
SCALE
  5
49
102
{ACAD_REACTORS
330
47
102
}
330
47
100
AcDbScale
 70
     0
300
1:2
140
1.0
141
2.0
290
     0
  0
SCALE
  5
4A
102
{ACAD_REACTORS
330
47
102
}
330
47
100
AcDbScale
 70
     0
300
1:4
140
1.0
141
4.0
290
     0
  0
SCALE
  5
4B
102
{ACAD_REACTORS
330
47
102
}
330
47
100
AcDbScale
 70
     0
300
1:5
140
1.0
141
5.0
290
     0
  0
SCALE
  5
4C
102
{ACAD_REACTORS
330
47
102
}
330
47
100
AcDbScale
 70
     0
300
1:8
140
1.0
141
8.0
290
     0
  0
SCALE
  5
4D
102
{ACAD_REACTORS
330
47
102
}
330
47
100
AcDbScale
 70
     0
300
1:10
140
1.0
141
10.0
290
     0
  0
SCALE
  5
4E
102
{ACAD_REACTORS
330
47
102
}
330
47
100
AcDbScale
 70
     0
300
1:16
140
1.0
141
16.0
290
     0
  0
SCALE
  5
4F
102
{ACAD_REACTORS
330
47
102
}
330
47
100
AcDbScale
 70
     0
300
1:20
140
1.0
141
20.0
290
     0
  0
SCALE
  5
50
102
{ACAD_REACTORS
330
47
102
}
330
47
100
AcDbScale
 70
     0
300
1:30
140
1.0
141
30.0
290
     0
  0
SCALE
  5
51
102
{ACAD_REACTORS
330
47
102
}
330
47
100
AcDbScale
 70
     0
300
1:40
140
1.0
141
40.0
290
     0
  0
SCALE
  5
52
102
{ACAD_REACTORS
330
47
102
}
330
47
100
AcDbScale
 70
     0
300
1:50
140
1.0
141
50.0
290
     0
  0
SCALE
  5
53
102
{ACAD_REACTORS
330
47
102
}
330
47
100
AcDbScale
 70
     0
300
1:100
140
1.0
141
100.0
290
     0
  0
SCALE
  5
54
102
{ACAD_REACTORS
330
47
102
}
330
47
100
AcDbScale
 70
     0
300
2:1
140
2.0
141
1.0
290
     0
  0
SCALE
  5
55
102
{ACAD_REACTORS
330
47
102
}
330
47
100
AcDbScale
 70
     0
300
4:1
140
4.0
141
1.0
290
     0
  0
SCALE
  5
56
102
{ACAD_REACTORS
330
47
102
}
330
47
100
AcDbScale
 70
     0
300
8:1
140
8.0
141
1.0
290
     0
  0
SCALE
  5
57
102
{ACAD_REACTORS
330
47
102
}
330
47
100
AcDbScale
 70
     0
300
10:1
140
10.0
141
1.0
290
     0
  0
SCALE
  5
58
102
{ACAD_REACTORS
330
47
102
}
330
47
100
AcDbScale
 70
     0
300
100:1
140
100.0
141
1.0
290
     0
  0
SCALE
  5
59
102
{ACAD_REACTORS
330
47
102
}
330
47
100
AcDbScale
 70
     0
300
1/128" = 1'-0"
140
0.0078125
141
12.0
290
     0
  0
SCALE
  5
5A
102
{ACAD_REACTORS
330
47
102
}
330
47
100
AcDbScale
 70
     0
300
1/64" = 1'-0"
140
0.015625
141
12.0
290
     0
  0
SCALE
  5
5B
102
{ACAD_REACTORS
330
47
102
}
330
47
100
AcDbScale
 70
     0
300
1/32" = 1'-0"
140
0.03125
141
12.0
290
     0
  0
SCALE
  5
5C
102
{ACAD_REACTORS
330
47
102
}
330
47
100
AcDbScale
 70
     0
300
1/16" = 1'-0"
140
0.0625
141
12.0
290
     0
  0
SCALE
  5
5D
102
{ACAD_REACTORS
330
47
102
}
330
47
100
AcDbScale
 70
     0
300
3/32" = 1'-0"
140
0.09375
141
12.0
290
     0
  0
SCALE
  5
5E
102
{ACAD_REACTORS
330
47
102
}
330
47
100
AcDbScale
 70
     0
300
1/8" = 1'-0"
140
0.125
141
12.0
290
     0
  0
SCALE
  5
5F
102
{ACAD_REACTORS
330
47
102
}
330
47
100
AcDbScale
 70
     0
300
3/16" = 1'-0"
140
0.1875
141
12.0
290
     0
  0
SCALE
  5
60
102
{ACAD_REACTORS
330
47
102
}
330
47
100
AcDbScale
 70
     0
300
1/4" = 1'-0"
140
0.25
141
12.0
290
     0
  0
SCALE
  5
61
102
{ACAD_REACTORS
330
47
102
}
330
47
100
AcDbScale
 70
     0
300
3/8" = 1'-0"
140
0.375
141
12.0
290
     0
  0
SCALE
  5
62
102
{ACAD_REACTORS
330
47
102
}
330
47
100
AcDbScale
 70
     0
300
1/2" = 1'-0"
140
0.5
141
12.0
290
     0
  0
SCALE
  5
63
102
{ACAD_REACTORS
330
47
102
}
330
47
100
AcDbScale
 70
     0
300
3/4" = 1'-0"
140
0.75
141
12.0
290
     0
  0
SCALE
  5
64
102
{ACAD_REACTORS
330
47
102
}
330
47
100
AcDbScale
 70
     0
300
1" = 1'-0"
140
1.0
141
12.0
290
     0
  0
SCALE
  5
65
102
{ACAD_REACTORS
330
47
102
}
330
47
100
AcDbScale
 70
     0
300
1-1/2" = 1'-0"
140
1.5
141
12.0
290
     0
  0
SCALE
  5
66
102
{ACAD_REACTORS
330
47
102
}
330
47
100
AcDbScale
 70
     0
300
3" = 1'-0"
140
3.0
141
12.0
290
     0
  0
SCALE
  5
67
102
{ACAD_REACTORS
330
47
102
}
330
47
100
AcDbScale
 70
     0
300
6" = 1'-0"
140
6.0
141
12.0
290
     0
  0
SCALE
  5
68
102
{ACAD_REACTORS
330
47
102
}
330
47
100
AcDbScale
 70
     0
300
1'-0" = 1'-0"
140
12.0
141
12.0
290
     0
  0
ENDSEC
  0
EOF
