**ABCDEFGHIJKLMNOPQRSTUVWXYZabcdefghijklmnopqrstuvwxyz**************************
**PARASOLID !"#%&'()*+,-./:;<=>?@[\]^_`{|}~0123456789***************************
**PART1;
MC=unknown;
MC_MODEL=unknown;
MC_ID=unknown;
OS=Windows 95;
OS_RELEASE=unknown;
FRU=CNC Software, Inc.;
APPL=Mastercam;
SITE=unknown;
USER=unknown;
FORMAT=text;
GUISE=transmit;
KEY=REP 17 3D;
FILE=REP 17 3D.X_T;
DATE=Mon Jun  4 10:06:06 2018;
**PART2;
SCH=SCH_2901131_28101;
USFLD_SIZE=1;
**PART3;
**END_OF_HEADER*****************************************************************
T51 : TRANSMIT FILE created by modeller version 290113117 SCH_1101000_110041 12
 1 9165 2 3 0 0 0 0 1e3 1e-8 0 4 0 1 0 1 1 5 6 7 8 9 10 11 0 81 1 2 2648 12 1 0
 0 0 0 13 0 70 3 0 1 0 0 4 3 20 8 14 14 1 T0 13 5 4 0 1 0 15 0 0 16 0 0 51 6 622
 0 15 17 0 0 +-.000936329541318242 .03169222717528465 .0943360785834904 .1527538
14077288 -.308429503341027 .938902291909892 .0025 -240178016364112e-26 -.9500518
41439275 -.312092131553875 0 30 7 8769 0 10 18 0 0 +-.0655385340962865 .04277364
17089501 .122100529415515 -.0481920553951454 .998838087878507 3693496278698475e-
28 0 29 8 8759 0 11 19 0 -.0566847673109874 .0409734182569193 .122100529415447 0
 19 9 2 0 1 16 0 20 V0 16 10 8767 0 ?21 0 22 7 0 0 1 0 18 11 8756 0 23 0 24 8 ?1
 0 17 23 0 25 26 27 11 28 29 0 30 -0 18 24 8748 0 31 11 32 19 ?1 0 17 31 0 33 21
 34 24 35 36 0 37 -0 18 32 18 0 38 24 39 40 ?1 0 29 19 8751 0 24 41 8 -.06476424
68065218 .0267256099403124 .1221005294155092 0 29 41 586 0 42 43 19 .02251241397
57004 -.02047028785134955 .1126096298093882 0 18 42 255 0 44 45 46 41 7596340619
98134e-21 1 0 29 43 584 0 45 47 41 .0237059719549642 -.02285686636214375 .113312
6068322346 0 18 45 253 0 48 49 42 43 1060977292105524e-21 1 0 29 47 579 0 50 51
 43 .02424528556950885 -.0260965288625065 .111960100731616 0 18 50 247 0 52 53 4
9 47 1060977292105524e-21 1 0 29 51 577 0 49 54 47 .02424528556924065 -.02609652
886250655 .0771005294148243 0 18 49 245 0 55 50 45 51 ?1 0 29 54 573 0 56 57 51
 .024245285569383 -.0680965288625065 .095614097353058 0 18 56 240 0 58 59 53 54
 ?1 0 29 57 571 0 59 60 54 .0990756352712479 -.0680965288625065 .082896166215784
 0 18 59 238 0 61 62 56 57 ?1 0 29 60 569 0 53 63 57 .0242452855692406 -.0680965
288625065 .0771005294148244 0 18 53 236 0 64 56 50 60 ?1 0 29 63 564 0 62 65 60
 .1122452855692406 -.0680965288625066 .0771005294141474 0 18 62 230 0 66 67 59 6
3 ?1 0 29 65 559 0 68 69 63 .1222452855692406 -.0580965288625067 .07710052941407
04 0 18 68 224 0 70 71 67 65 ?1 0 29 69 557 0 71 72 65 .1222452855692848 -.05809
65288625067 .082850977280203 0 18 71 222 0 73 74 68 69 ?1 0 29 72 555 0 74 75 69
 .1222452855692852 -.0579785008061297 .0828961662156057 0 18 74 220 0 76 77 71 7
2 ?1 0 29 75 553 0 77 78 72 .1222452855694092 -.016548284897321 .099020415006552
7 0 18 77 218 0 79 80 74 75 ?1 0 29 78 551 0 80 81 75 .122245285569137 -.0140852
9365214932 .0981443237207822 0 18 80 216 0 82 83 77 78 ?1 0 29 81 549 0 83 84 78
 .122245285569327 -.00836992302593601 .0883136655790391 0 18 83 214 0 85 86 80 8
1 ?1 0 29 84 547 0 67 87 81 .1222452855693546 .01289009533068828 .09192305463152
13 0 18 67 212 0 88 68 62 84 ?1 0 29 87 546 0 86 89 84 .122245285569313 -.003644
957195953875 .0864912881066814 0 18 86 211 0 90 91 83 87 ?1 0 29 89 542 0 91 92
 87 .1222452855692406 .03190347113749335 .0771005294140703 0 18 91 206 0 93 94 8
6 89 ?1 0 29 92 538 0 94 95 89 -.00163352266932357 -.01609652886250645 .10592981
94357316 0 18 94 201 0 96 97 91 92 ?1 0 29 95 536 0 97 98 92 .0142452855694582 -
.0160965288625065 .105375299991945 0 18 97 199 0 99 100 94 95 ?1 0 29 98 534 0 1
00 101 95 .01424528556924062 -.01609652886250655 .0771005294149014 0 18 100 197
 0 102 103 97 98 ?1 0 29 101 530 0 104 105 98 .1148827584493202 -.06545905598246
54 .0821005294141271 0 18 104 192 0 106 107 103 101 ?1 0 29 105 528 0 103 108 10
1 .108843110806458 -.0680965288625066 .0821005294141735 0 18 103 190 0 109 104 1
00 105 ?1 0 29 108 527 0 107 110 105 .112245285569279 -.0680965288625065 .082100
5294141474 0 18 107 189 0 111 112 104 108 ?1 0 29 110 517 0 112 113 108 .1222452
85569366 .03190347113749345 .0933761196295334 0 18 112 172 0 114 115 107 110 ?1
 0 29 113 515 0 115 116 110 .1222452855693214 .01432054968752036 .08760012805211
26 0 18 115 170 0 117 118 112 113 ?1 0 29 116 510 0 118 119 113 .053671312143927
8 .04190347113749345 .0771005294145979 0 18 118 164 0 120 121 115 116 ?1 0 29 11
9 508 0 121 122 116 .1122452855692406 .04190347113749335 .0771005294141473 0 18
 121 162 0 123 124 118 119 ?1 0 29 122 499 0 124 125 119 -.0557547144307594 .041
90347113749355 .0771005294154399 0 18 124 152 0 126 127 121 122 ?1 0 29 125 485
 0 127 128 122 -.0657547144307594 -.01609652886250645 .0771005294155168 0 18 127
 137 0 129 130 124 125 ?1 0 29 128 483 0 130 131 125 -.0657547144307594 .0319034
7113749355 .0771005294155168 0 18 130 135 0 132 133 127 128 ?1 0 29 131 406 0 13
3 134 128 .0497022723032013 .04190347113749345 .0771005294146285 0 18 133 48 0 1
35 39 130 131 ?1 0 29 134 393 0 39 40 131 .0384900566092843 .0343776660522232 .0
881092178348624 0 18 39 33 0 136 32 133 134 ?1 0 29 40 380 0 32 137 134 -.001035
94817756579 .0318933699532044 .0937237720008054 0 29 137 9101 0 46 138 40 -.0640
629581238673 -.0160965288625064 .112808224335671 0 18 46 8921 0 139 42 140 137 ?
1 0 29 138 9102 0 140 141 137 -.0640767341945121 -.0152662895753978 .11298716271
12 0 18 140 8927 0 142 46 143 138 ?1 0 29 141 9103 0 143 144 138 -.0640767335858
105 .00136434734541879 .1184503286198914 0 18 143 8928 0 145 140 146 141 ?1 0 29
 144 9104 0 146 147 141 -.0657547144305733 -.01609652886250645 .1012898118396902
 0 18 146 8922 0 148 143 149 144 ?1 0 29 147 9105 0 149 150 144 -.06575471443045
19 .03190347113749355 .1170578047283214 0 18 149 8923 0 151 146 152 147 ?1 0 29
 150 9106 0 152 153 147 -.0647642476839743 .002752272567652125 .1142252856665548
 0 18 152 8929 0 34 149 154 150 ?1 0 29 153 9107 0 154 155 150 -.065048158827727
9 .03261002674017875 .1221005294155112 0 18 154 8924 0 21 152 156 153 ?1 0 29 15
5 9109 0 156 157 153 .1122452855693532 .0419034711374934 .0917107917921795 0 18
 156 9008 0 158 154 159 155 ?1 0 29 157 9110 0 159 160 155 -.0557547144304366 .0
419034711374936 .1190433887094264 0 18 159 9014 0 27 156 161 157 ?1 0 29 160 911
1 0 161 162 157 .1141501573421312 .0399985993647588 .0973523992945642 0 18 161 9
009 0 163 159 164 160 ?1 0 29 162 9112 0 164 0 160 -.0379643838161774 .039998598
56164995 .122100529415303 0 18 164 9010 0 26 161 0 162 ?1 0 17 26 0 25 163 23 16
4 30 22 0 165 +0 15 25 9024 0 23 166 0 0 17 163 0 25 158 26 161 165 167 0 168 -0
 17 30 0 169 170 171 11 26 22 0 172 -0 16 22 8760 0 ?26 10 173 18 0 0 1 0 17 165
 0 174 175 176 164 163 167 0 171 +0 15 174 167 0 175 177 178 0 17 175 0 174 35 1
65 24 171 179 0 0 +0 17 176 0 174 165 180 161 114 181 0 0 +0 16 167 8970 0 ?165
 29 0 182 0 0 1 0 17 171 0 169 30 37 164 175 179 0 0 -0 15 169 8768 0 37 183 0 0
 17 37 0 169 171 170 24 21 10 0 175 -0 16 179 168 0 ?175 184 185 186 0 0 1 0 16
 184 161 0 ?123 187 179 188 0 0 1 0 16 185 171 0 ?180 179 181 189 0 0 1 0 30 186
 513 0 179 190 191 0 +-.03411820225879955 .0419034711374936 .1221005294152734 -.
896118602515009 -.443814657516567 689556745037123e-26 0 30 190 509 0 192 188 186
 0 +.0536713121439278 .04190347113749345 .0771005294145979 1 -846545056276682e-3
0 -769401209410603e-26 0 30 191 514 0 193 186 189 0 +.1222452855693214 .01432054
968752036 .0876001280521126 -.988165103169719 -.0611271925809647 .14068829092979
8 0 16 193 169 0 ?194 195 196 191 0 0 1 0 30 189 516 0 185 191 197 0 +.122245285
5693214 .01432054968752036 .0876001280521126 240252262528884e-26 .95005184143927
5 .312092131553875 0 30 197 518 0 181 189 198 0 +.122245285569366 .0319034711374
9345 .0933761196295334 -.667963522871956 .66796352287449 .328099777844465 0 16 1
81 173 0 ?176 185 199 197 0 0 1 0 30 198 526 0 200 197 201 0 +.112245285569279 -
.0680965288625065 .0821005294141474 -1 735522753814166e-30 769403984968164e-26 0
 16 200 188 0 ?202 203 204 198 0 0 1 0 30 201 529 0 205 198 206 0 +.114882758449
3202 -.0654590559824654 .0821005294141271 -.707106781186556 -.707106781186539 54
4160549953432e-26 0 16 205 191 0 ?207 208 203 201 0 0 1 0 30 206 531 0 195 201 2
09 0 +.108843110806458 -.0680965288625066 .0821005294141735 .916428642564929 .40
0198129788985 -705163705205791e-26 0 16 195 193 0 ?106 210 193 206 0 0 1 0 30 20
9 533 0 211 206 212 0 +.01424528556924062 -.01609652886250655 .0771005294149014
 -1 999200722162641e-30 769409536083288e-26 0 16 211 196 0 ?213 214 215 209 0 0
 1 0 30 212 535 0 216 209 217 0 +.0142452855694582 -.0160965288625065 .105375299
991945 -769403984968164e-26 -1443289932012704e-30 -1 0 16 216 198 0 ?218 219 220
 212 0 0 1 0 30 217 537 0 221 212 222 0 +-.00163352266932357 -.01609652886250645
 .1059298194357316 .999390784779682 -212330153459561e-29 -.034900706260052 0 16
 221 200 0 ?99 223 224 217 0 0 1 0 32 222 539 0 223 217 225 0 +-.05699684179247
 -.0160965288625064 .1158228668770828 -725242971780684e-30 -1 1467782061750122e-
30 .990039717786853 -915933995315754e-30 -.1407883418629856 .0648996095457878 .0
04000000000000045 0 16 223 202 0 ?96 226 221 222 0 0 1 0 30 225 541 0 227 222 22
8 0 +.122245285569366 .03190347113749345 .0933761196295334 -769406760525726e-26
 -1665334536937735e-30 -1 0 16 227 205 0 ?229 230 231 225 0 0 1 0 30 228 543 0 2
32 225 233 0 +.1122452855692406 .04190347113749335 .0771005294141473 .7071067811
86544 -.707106781186553 -543932954233384e-26 0 16 232 207 0 ?93 192 234 228 0 0
 1 0 30 233 545 0 235 228 236 0 +.122245285569313 -.003644957195953875 .08649128
81066814 2402869569984035e-27 .950051841424978 .3120921315973965 0 16 235 210 0
 ?237 238 239 233 0 0 1 0 32 236 548 0 226 233 240 0 +.122245285569327 -.0049167
8562806931 .0903337865328939 1 -3989863994746655e-30 -768463070954795e-26 -15543
1223447522e-29 -.4016711626097125 .915783968590717 .00404793772065865 .003999999
996484415 0 16 226 213 0 ?241 239 223 236 0 0 1 0 30 240 550 0 242 236 243 0 +.1
22245285569137 -.01408529365214932 .0981443237207822 1670397153930025e-26 .50261
2025361773 -.864512088962172 0 16 242 215 0 ?85 244 245 240 0 0 1 0 134 243 552
 0 231 240 246 0 +247 248 0 16 231 217 0 ?249 227 250 243 0 0 1 0 30 246 554 0 2
50 243 251 0 +.1222452855694092 -.016548284897321 .0990204150065527 -27912394617
8572e-26 -.931909674367428 -.362690444898116 0 136 247 3 4 4 2 1 FFT2 252 253 25
4 0 135 248 2 0 45 16 252 .122245285569137 -.01408529365214932 .0981443237207822
 1 .1026982151651656 -.01227384844112366 .0832091979811106 .840099597189413 .102
698215165168 -.01309484552298124 .0835012284100486 .840099597189413 .12224528556
94092 -.016548284897321 .0990204150065527 1 0 127 2 253 4 4 0 128 2 254 4.824700
87011552 6.23920749812017 0 16 250 219 0 ?255 231 208 246 0 0 1 0 31 251 556 0 2
56 246 257 0 +.1222452855705244 -.0621436265266732 .093598240917391 1 3612864174
49591e-25 -1017361195287946e-25 -1079415445914832e-25 .3524112880781355 -.935845
224401509 .01148401825105328 0 16 256 221 0 ?76 258 259 251 0 0 1 0 30 257 558 0
 208 251 260 0 +.1222452855692848 -.0580965288625067 .082850977280203 -769548313
961366e-26 -1443289932012704e-30 -1 0 16 208 223 0 ?261 250 205 257 0 0 1 0 30 2
60 560 0 234 257 262 0 +.1222452855692406 .03190347113749335 .0771005294140703 -
725242971780684e-30 -1 1467782061750122e-30 0 16 234 225 0 ?70 232 263 260 0 0 1
 0 30 262 561 0 264 260 265 0 +.1222452855693546 .01289009533068828 .09192305463
15213 -732142124704183e-26 .314147471943579 -.949374196969487 0 16 264 226 0 ?26
6 196 267 262 0 0 1 0 30 265 563 0 263 262 268 0 +.1222452855692406 -.0580965288
625067 .0771005294140704 -.70710678118655 -.707106781186547 544134182156597e-26
 0 16 263 229 0 ?66 234 269 265 0 0 1 0 32 268 565 0 258 265 270 0 +.11488275844
92584 -.0654590559825272 .0921005294143018 .70710678118655 -.707106781186547 -54
6475364959775e-26 -.707106781186547 -.70710678118655 762172269741512e-26 .027395
0014070595 .01000000000017146 0 16 258 231 0 ?271 272 256 268 0 0 1 0 30 270 566
 0 203 268 273 0 +.112245285569279 -.0680965288625065 .0821005294141474 -7693762
29392549e-26 -1443289932012704e-30 -1 0 16 203 232 0 ?274 205 200 270 0 0 1 0 30
 273 568 0 269 270 275 0 +.1122452855692406 -.0680965288625066 .0771005294141474
 -1 728583859910259e-30 769406760525726e-26 0 16 269 235 0 ?64 263 276 273 0 0 1
 0 32 275 570 0 210 273 277 0 +.1088431108065736 -.0680965288625065 .09210052941
42432 -725242971780684e-30 -1 1467782061750122e-30 1 -721644966006352e-30 -69669
5479085463e-26 .0249876230189228 .01000000000007756 0 16 210 237 0 ?278 259 195
 275 0 0 1 0 30 277 572 0 204 275 279 0 +.0990756352712479 -.0680965288625065 .0
82896166215784 -.985862873127498 961470486560145e-30 .167554156584653 0 16 204 2
39 0 ?280 200 281 277 0 0 1 0 30 279 574 0 281 277 282 0 +.024245285569383 -.068
0965288625065 .095614097353058 -76939565829548e-25 -1443289932012704e-30 -1 0 16
 281 241 0 ?283 204 284 279 0 0 1 0 30 282 576 0 276 279 285 0 +.024245285569240
6 -.0680965288625065 .0771005294148244 1063785469480536e-30 1 -1466621551307304e
-30 0 16 276 244 0 ?55 269 214 282 0 0 1 0 31 285 582 0 214 282 286 0 +.01424528
55692406 -.02609652886250655 .0771005294149014 769481700579888e-26 2498001805406
605e-30 1 1 3122502256758255e-31 -76952055838575e-25 .01 0 16 214 251 0 ?287 276
 211 285 0 0 1 0 30 286 592 0 238 285 288 0 +-.0657547144304814 -.01537094905726
07 .1132257794564286 .988157493100757 .0616336527755399 -.140520680593186 0 16 2
38 267 0 ?90 289 235 286 0 0 1 0 30 288 593 0 196 286 290 0 +-.0657547144304394
 .001260548640214762 .1186892282293662 .988165103169719 .061127192580965 -.14068
82909297982 0 16 196 268 0 ?88 193 264 288 0 0 1 0 30 290 595 0 239 288 291 0 +-
.00163352266932357 -.01609652886250645 .1059298194357316 .988157493113624 .06163
36527796882 -.1405206805008796 0 16 239 271 0 ?292 235 226 290 0 0 1 0 30 291 60
1 0 259 290 293 0 +.1222452855692852 -.0579785008061297 .0828961662156057 -.9164
28642564928 -.400198129788987 705191460781407e-26 0 16 259 280 0 ?294 256 210 29
1 0 0 1 0 133 293 623 0 295 291 296 0 +296 .02424528556950885 -.0260965288625065
 .111960100731616 .0237059719549642 -.02285686636214375 .1133126068322346 0 1 0
 17 295 0 297 298 52 45 299 300 293 301 +0 137 296 624 0 1 293 302 303 +304 305
 0 ?0 133 302 625 0 299 296 306 0 +306 .0237059719547829 -.02285686636172855 .11
3312606831168 .02424528556950885 -.02609652886250645 .111960100731616 0 1 0 141
 303 293 303 303 296 0 51 304 581 0 307 308 309 310 +.0142452855695346 -.0260965
288625065 .1153097775502616 -769403984968164e-26 -1443289932012704e-30 -1 .01 73
2163913907828e-30 1 -141266702268132e-29 0 134 305 0 0 0 0 0 0 +311 312 0 136 31
1 2 3 2 2 5 FFF1 313 314 315 0 135 312 2 0 45 6 313 1.570796326794895 .003349676
818568665 1.441056954255244 .00284451895995051 1.240877483089932 .00199717071795
4105 0 127 2 314 3 3 0 128 2 315 0 1 0 14 307 249 316 ?317 318 297 5 304 -0 0 31
7 318 20 0 50 308 575 0 318 319 304 0 +.02424528556952225 -.0239965288625065 .11
37030792974554 1 -735522753814166e-30 -769403984968164e-26 -725242971780684e-30
 -1 1467782061750122e-30 0 50 309 588 0 317 304 320 0 +-.0751547144307595 -.0735
965288625064 .0771005294155892 -769403984968164e-26 -1443289932012704e-30 -1 732
163913907828e-30 1 -141266702268132e-29 0 141 310 296 321 321 304 0 141 321 322
 310 310 304 0 137 322 637 0 1 323 324 325 +304 326 0 ?0 133 323 636 0 298 327 3
22 0 +322 .0237059719549642 -.02285686636214375 .1133126068322346 .0225124139757
0035 -.0204702878513496 .1126096298093882 0 1 0 133 324 638 0 48 322 328 0 +328
 .0225124139757029 -.020470287851224 .1126096298094614 .0237059719549642 -.02285
686636214375 .1133126068322346 0 1 0 141 325 323 325 325 322 0 134 326 0 0 0 0 0
 0 +329 330 0 136 329 2 9 2 5 5 FFF1 331 332 333 0 135 330 2 0 45 18 331 1.24087
7483089932 .001997170717954105 1.206522194406184 .001851758087927955 1.168735076
82465 .00182525488716159 1.131317476951576 .00179901085943199 1.094829065471766
 .00189218819992805 1.057977559290372 .001986292744357355 1.02692387524326 .0021
89444355604405 .994560141258459 .00240116624647598 .973239803883419 .00270014774
0809605 0 127 5 332 3 2 2 2 3 0 128 5 333 0 .25 .5 .75 1 0 17 48 0 334 335 336 4
5 298 219 324 295 -0 137 328 639 0 1 324 337 338 +339 340 0 ?0 133 337 641 0 224
 328 341 0 +341 .0142452855694582 -.0160965288625065 .105375299991945 .022512413
9757004 -.02047028785134955 .1126096298093882 3.121292420451175 4.09453222433457
5 0 141 338 324 338 338 328 0 51 339 598 0 342 343 344 345 +.127196830138879 -.0
1549480184293105 .0964159891748794 -.987664349618125 -.0632312199116506 .1432513
361958302 .002 .15653703023057 -.4215519614520625 .893190966122314 0 134 340 0 0
 0 0 0 0 +346 347 0 136 346 2 9 2 5 5 FFF1 348 349 350 0 135 347 2 0 45 18 348 1
.483459442848054 .106027432513693 1.3217249880808 .1059697196169144 1.1227461244
62758 .105842746005399 .990916604278328 .1057586221443124 .771601292438917 .1055
95497457509 .484402899822243 .105381881967313 .422076076648197 .1053371863670406
 .2336046286265365 .1052020303607732 .0689528216051241 .105100206516862 0 127 5
 349 3 2 2 2 3 0 128 5 350 0 .25 .5 .75 1 0 14 342 275 351 ?352 353 334 5 339 +0
 0 352 353 20 0 50 343 596 0 353 354 339 0 +.1284392259812096 -.0077832244170637
5 .0870882166442835 -.0175495049946075 -.864378950271858 -.502534620898268 14042
43388236636e-25 -.502612025374584 .864512088954723 0 50 344 600 0 352 339 355 35
6 +.0193920422907183 -.076013702037914 .09335765029794 .1564344651425065 -.35822
5123665664 .920436319845267 .987629252031063 .0669274076505173 -.141806849756088
 0 141 345 328 345 345 339 0 14 352 278 357 ?358 342 359 5 344 +0 0 358 342 20 0
 51 355 603 0 358 344 360 0 +.124968112735612 -.0610548506399675 .09210052941404
95 -.916428642564928 -.400198129788987 705158154090668e-26 .01 -.400198129788987
5 .916428642564928 3077857413380515e-27 0 141 356 306 356 356 344 0 137 306 626
 0 1 302 361 362 +344 363 0 ?0 133 361 628 0 364 306 365 0 +365 .024245285569508
85 -.0260965288625065 .111960100731616 .02424528556924065 -.02609652886250655 .0
771005294148243 0 .0348595713167916 0 141 362 302 362 362 306 0 134 363 0 0 0 0
 0 0 +366 367 0 136 366 2 3 2 2 5 FFF1 368 369 370 0 135 367 2 0 45 6 368 .00498
846281514963 .056723669638312 .00551400757650611 .0550052197716221 .005496077133
48526 .0532082930230513 0 127 2 369 3 3 0 128 2 370 0 1 0 16 364 248 0 ?371 284
 300 361 0 0 1 0 30 365 629 0 1 361 372 373 +.02424528556950885 -.02609652886250
65 .111960100731616 -769398433853041e-26 -1443289932012704e-30 -1 0 133 372 630
 0 284 365 374 0 +374 .024245285569383 -.0680965288625065 .095614097353058 .0242
4528556950885 -.0260965288625065 .111960100731616 0 .0450687455611073 0 141 373
 361 373 373 365 0 16 284 246 0 ?375 281 364 372 0 0 1 0 30 374 631 0 1 372 376
 377 +.024245285569383 -.0680965288625065 .095614097353058 279153783422359e-26 .
931909674367428 .362690444898116 0 133 376 634 0 245 374 327 0 +327 .12224528556
94092 -.016548284897321 .0990204150065527 .02370597195496425 -.02285686636214375
 .1133126068322346 0 .0997700419709561 0 141 377 372 377 377 374 0 16 245 277 0
 ?301 242 272 376 0 0 1 0 30 327 635 0 1 376 323 378 +.1222452855694092 -.016548
284897321 .0990204150065527 -.987664349616397 -.063231219915285 .143251336206138
2 0 141 378 376 378 378 327 0 17 301 0 359 299 79 45 335 245 0 0 +0 16 272 74 0
 ?379 245 258 380 0 0 1 0 17 379 0 381 379 379 0 382 272 0 0 +0 32 380 430 0 272
 383 384 0 +.0472452855694279 -.04309652886250655 .101434853529061 -.15643446514
25095 .358225123665665 -.920436319845266 .368356893789422 -.843514207164352 -.39
08925441981515 .00814830949005904 .0075 0 31 383 425 0 385 386 380 0 +.047245285
5693945 -.04309652886250655 .0971005294146475 -768912711279768e-26 -144328993201
2704e-30 -1 2049167697111945e-30 -1 -3896388101542025e-31 .0075 0 31 384 434 0 3
87 380 388 0 +-.045754714430567 .01690347113749355 .102100529415363 -76947337390
7204e-26 -149880108324396e-29 -1 -725242971780684e-30 -1 1467782061750122e-30 .0
075 0 16 387 79 0 ?389 385 390 384 0 0 1 0 32 388 439 0 390 384 391 0 +-.0457547
144304618 .01690347113749355 .1157812180046276 .1527538140772865 -.3084295033410
255 .938902291909893 -.416698599123387 .841367809725484 .3441837971874185 .00798
805164777509 .0075 0 16 390 84 0 ?392 387 393 388 0 0 1 0 31 391 443 0 393 388 3
94 0 +-.0457547144307594 .01690347113749355 .0771005294153629 -769276309320333e-
26 -1443289932012704e-30 -1 -716864278191896e-30 -1 478464199315491e-29 .00425 0
 16 393 89 0 ?395 390 396 391 0 0 1 0 31 394 448 0 396 391 397 0 +-.045754714430
567 .0169034711374936 .102100529415363 769276309320333e-26 1443289932012704e-30
 1 2369306128191365e-30 1 -1397823236866634e-30 .00425 0 16 396 94 0 ?398 393 39
9 394 0 0 1 0 31 397 452 0 399 394 400 0 +.0472452855692406 -.0430965288625066 .
0771005294146475 -769606600670159e-26 -1443289932012704e-30 -1 2545054544091375e
-30 -1 1498118300486676e-30 .00425 0 16 399 99 0 ?401 396 402 397 0 0 1 0 31 400
 457 0 402 397 403 0 +.0472452855693945 -.04309652886250655 .0971005294146475 76
9276309320333e-26 1443289932012704e-30 1 2360927434602575e-30 1 -471468316827142
e-29 .00425 0 16 402 104 0 ?404 399 405 400 0 0 1 0 31 403 461 0 405 400 406 0 +
.0822452855692406 .02190347113749345 .0771005294143781 -769276309320333e-26 -144
3289932012704e-30 -1 -724707266894822e-30 -1 -1794287164139455e-30 .00425 0 16 4
05 109 0 ?407 402 408 403 0 0 1 0 31 406 466 0 408 403 409 0 +.0822452855693329
 .02190347113749345 .0891005294143781 768615726620681e-26 149880108324396e-29 1
 399607619253861e-29 1 -469951504890315e-29 .00425 0 16 408 114 0 ?410 405 411 4
06 0 0 1 0 30 409 482 0 411 406 412 0 +-.0657547144304131 .0319034711374936 .122
1005294155168 -769406760525726e-26 -1443289932012704e-30 -1 0 16 411 134 0 ?132
 408 413 409 0 0 1 0 30 412 484 0 215 409 414 0 +-.0657547144307594 -.0160965288
6250645 .0771005294155168 725242971780684e-30 1 -1467782061750122e-30 0 16 215 1
36 0 ?415 211 416 412 0 0 1 0 30 414 486 0 230 412 417 0 +-.0657547144304827 -.0
160965288625064 .1130610670311914 -769412311640849e-26 -1443289932012704e-30 -1
 0 16 230 138 0 ?129 418 227 414 0 0 1 0 30 417 496 0 413 414 419 0 +-.065754714
4304131 .0319034711374936 .1221005294155168 .707106781186549 .707106781186547 -5
44232714450033e-26 0 16 413 149 0 ?172 411 187 417 0 0 1 0 30 419 498 0 187 417
 420 0 +-.0557547144304131 .0419034711374936 .1221005294154398 -769403984968164e
-26 -127675647831893e-29 -1 0 16 187 151 0 ?126 413 184 419 0 0 1 0 30 420 500 0
 416 419 421 0 +-.0657547144307594 .03190347113749355 .0771005294155168 .7071067
81186549 .707106781186547 -544131406599036e-26 0 16 416 153 0 ?422 215 423 420 0
 0 1 0 30 421 502 0 423 420 188 0 +-.0557547144307594 .04190347113749355 .077100
5294154399 1 -867361737988404e-30 -769409536083288e-26 0 16 423 156 0 ?424 416 2
89 421 0 0 1 0 30 188 507 0 184 421 190 0 +.1122452855694036 .0419034711374934 .
098288061174373 -769445618331588e-26 -149880108324396e-29 -1 0 17 424 0 425 120
 422 133 426 423 0 0 +0 16 289 37 0 ?427 423 238 428 0 0 1 0 17 427 0 429 427 42
7 0 430 289 0 0 +0 32 428 396 0 289 431 432 0 +-.018905248044769 .03711413900046
845 .0771005294151579 769240227072032e-26 1665334536937735e-30 1 .44381465751655
9 -.896118602515013 1332267629550188e-30 .004260294212146715 .00400000000000005
 0 31 431 388 0 199 433 428 0 +.04131633082681145 .0286710566396661 .10548093032
8139 -.152753814077284 .308429503341025 -.938902291909893 -2398754805899015e-27
 -.950051841439275 -.3120921315538755 .0025 0 31 432 401 0 434 428 435 0 +-.0130
319257551074 .02525514950351525 .1132009423063106 -.1527538140772835 .3084295033
410285 -.938902291909892 -2403292842512175e-27 -.950051841439275 -.3120921315538
765 .004 0 16 434 42 0 ?436 199 437 432 0 0 1 0 32 435 405 0 438 432 439 0 +.050
046446089929 .04190347113749345 .0659301164897991 -1275315264025334e-29 1 167538
4575883035e-29 -.160582668285024 -35527136788005e-28 -.987022394197042 .01296892
792891744 .003999999999989185 0 16 438 47 0 ?440 441 442 435 0 0 1 0 31 439 410
 0 437 435 443 0 +.0561385826218802 .0296026676767981 .1033754725159102 -.152753
8140772875 .308429503341026 -.938902291909892 -2399816456666315e-27 -.9500518414
39275 -.312092131553877 .004 0 16 437 52 0 ?444 434 418 439 0 0 1 0 32 443 414 0
 220 439 445 0 +.0518638057809134 .03823398929660415 .0771005294146285 768995978
006615e-26 277555756156289e-30 1 .443814657516662 -.896118602514961 127675647831
893e-29 .00426029421214669 .004 0 16 220 56 0 ?120 216 192 443 0 0 1 0 31 445 41
6 0 442 443 386 0 +.0822452855693329 .02190347113749345 .0891005294143781 -76928
7411550579e-26 -1443289932012704e-30 -1 -726127992141982e-30 -1 -388029260322666
5e-31 .0075 0 16 442 59 0 ?446 438 447 445 0 0 1 0 32 386 421 0 447 445 383 0 +.
0822452855693906 .0219034711374934 .0965988804596538 .1527538140772895 -.3084295
03341027 .938902291909892 -.416698599123351 .8413678097255 .3441837971874215 .00
798805164777517 .0075 0 16 447 64 0 ?448 442 385 386 0 0 1 0 17 448 0 449 448 44
8 0 450 447 0 0 +0 16 385 69 0 ?451 447 387 383 0 0 1 0 17 451 0 452 451 451 0 4
53 385 0 0 +0 15 452 68 0 451 454 0 0 17 453 0 455 453 453 0 451 385 0 0 -0 15 4
55 296 0 453 456 457 0 14 456 295 458 ?459 460 455 5 461 +0 0 459 460 20 0 15 45
7 298 0 462 456 0 0 17 462 0 457 462 462 0 404 402 0 0 -0 17 404 0 463 404 404 0
 462 402 0 0 +0 15 463 646 0 404 464 465 0 14 464 97 466 ?467 468 463 5 469 -0 0
 467 468 20 0 15 465 98 0 401 464 0 0 17 401 0 465 401 401 0 470 399 0 0 +0 17 4
70 0 471 470 470 0 401 399 0 0 -0 15 471 263 0 470 317 472 0 14 317 257 473 ?474
 307 425 5 309 +0 0 474 307 20 0 15 472 264 0 475 317 0 0 17 475 0 472 475 475 0
 407 405 0 0 -0 17 407 0 476 407 407 0 475 405 0 0 +0 15 476 108 0 407 467 0 0 1
4 467 107 477 ?478 464 479 5 480 -0 0 478 464 20 0 81 1 477 2623 481 467 482 0 4
66 483 484 0 14 478 129 483 ?485 467 486 5 487 -0 0 485 467 20 0 15 479 645 0 41
0 467 476 0 51 480 469 0 467 488 469 0 +.082245285569236 .02190347113749345 .076
5005294143781 769403984968164e-26 1443289932012704e-30 1 .00425 -732163913907828
e-30 -1 141266702268132e-29 0 13 20 3 0 0 0 0 0 0 9 15 0 14 15 5 489 ?490 0 491
 5 6 -0 0 490 0 20 0 81 1 489 2612 481 15 492 0 0 493 494 0 14 490 15 493 ?495 1
5 496 5 17 -0 0 495 15 20 0 15 491 656 0 497 15 498 0 17 497 0 491 497 497 0 499
 418 0 0 -0 15 498 6 0 500 15 0 0 17 500 0 498 500 500 0 501 173 0 0 +0 17 501 0
 496 501 501 0 500 173 0 0 -0 16 173 7 0 ?500 22 441 502 0 0 1 0 16 441 22 0 ?50
3 173 438 433 0 0 1 0 31 502 370 0 173 504 505 0 +-.000806488799352552 .03143006
20974448 .0951341455316138 -.15275381407728 .308429503341026 -.938902291909894 -
240181485811064e-26 -.950051841439277 -.312092131553871 .0025 0 32 504 9066 0 26
7 506 502 0 --.0634656105518264 -.0165000008296579 .1167427564645046 .9882600838
55606 .0476816866357093 -.1451497964768936 -.000284973877827499 -.94947496678719
8 -.313842645659155 .004000432239898645 .004 0 31 505 375 0 418 502 433 0 +.0017
9032603996134 .0261867605406473 .111095484494082 -.152753814077295 .308429503341
0245 -.938902291909892 -240025360698226e-26 -.950051841439275 -.3120921315538755
 .0025 0 16 418 12 0 ?499 437 230 505 0 0 1 0 31 433 383 0 441 505 431 0 +.03871
951598749755 .03391435819646355 .0895195913656709 -.1527538140772925 .3084295033
410275 -.938902291909891 -240431979880995e-26 -.950051841439274 -.31209213155388
05 .0025 0 17 499 0 507 499 499 0 497 418 0 0 +0 15 507 184 0 499 177 0 0 14 177
 166 508 ?509 510 174 5 511 -0 0 509 510 20 0 81 1 508 2627 481 177 512 0 513 51
4 515 0 14 509 186 514 ?516 177 517 5 518 -0 0 516 177 20 0 14 510 154 513 ?177
 485 519 5 520 -0 0 177 485 20 0 50 511 512 0 177 520 518 0 +-.0751547144304668
 .000353235644092814 .115127668870899 -.152753814077288 .308429503341027 -.93890
2291909892 2401932819307005e-27 .950051841439275 .312092131553875 0 50 520 501 0
 510 521 511 0 +.1206452855696042 .0419034711374935 .1243505294140826 -725242971
780684e-30 -1 1467782061750122e-30 -1 735522753814166e-30 769403984968164e-26 0
 50 518 525 0 509 511 522 0 +.1085411284243148 -.0682284025065088 .0821005294141
759 -769403984968164e-26 -1443289932012704e-30 -1 732163913907828e-30 1 -1412667
02268132e-29 0 50 522 532 0 516 518 523 0 +-.0697547144304689 -.0160965288625064
 .114859093912006 725242971780684e-30 1 -1467782061750122e-30 1 -735522753814166
e-30 -769403984968164e-26 0 14 516 194 524 ?525 509 526 5 522 -0 0 525 509 20 0
 50 523 540 0 525 522 527 0 +.1227452855694118 .03140347113749345 .0993474377623
036 -.707106781186551 -.707106781186544 544152223280747e-26 -.707106781186545 .7
07106781186552 543955158693876e-26 0 14 525 203 528 ?529 516 530 5 523 -0 0 529
 516 20 0 50 527 544 0 529 523 531 0 +.1222452855694186 -.0625965288625066 .1002
53415772857 -1 735522753814166e-30 769403984968164e-26 725242971780684e-30 1 -14
67782061750122e-30 0 14 529 208 532 ?533 525 534 5 527 -0 0 533 525 20 0 50 531
 562 0 533 527 319 0 +.111745285569287 -.0685965288625066 .0831384996735904 -.70
7106781186548 .707106781186549 543948219799972e-26 .707106781186549 .70710678118
6547 -544153611059528e-26 0 14 533 227 535 ?536 529 537 5 531 -0 0 536 529 20 0
 50 319 567 0 536 531 308 0 +.01984528556939015 -.0680965288625065 .096539775750
0035 725242971780684e-30 1 -1467782061750122e-30 1 -735522753814166e-30 -7694039
84968164e-26 0 14 536 233 538 ?318 533 539 5 319 -0 0 318 533 20 0 81 1 538 2633
 481 536 540 0 535 541 542 0 14 318 242 541 ?307 536 543 5 308 -0 0 307 536 20 0
 15 539 234 0 544 536 0 0 17 544 0 539 545 283 62 64 269 0 0 -0 17 545 0 539 202
 544 107 274 203 0 0 -0 17 283 0 539 544 280 53 58 281 0 546 +0 17 64 0 425 55 6
6 53 544 269 0 283 +0 15 425 258 0 120 317 429 0 17 55 0 425 287 64 49 546 276 0
 371 +0 17 66 0 425 64 70 62 547 263 0 274 +0 17 70 0 425 66 93 68 548 234 0 261
 +0 17 547 0 537 549 274 68 66 263 0 0 -0 17 274 0 537 547 207 62 545 203 0 544
 +0 15 537 228 0 547 533 0 0 17 207 0 537 274 550 107 551 205 0 545 +0 17 550 0
 537 207 549 104 271 258 0 0 -0 17 551 0 517 109 111 104 207 205 0 550 -0 15 517
 187 0 111 509 0 0 17 109 0 517 111 551 103 106 195 0 202 -0 17 111 0 517 551 10
9 107 202 200 0 207 -0 17 202 0 539 61 545 103 111 200 0 278 +0 17 61 0 539 280
 202 59 278 210 0 552 -0 17 278 0 553 106 294 103 61 210 0 0 +0 15 553 284 0 271
 358 0 0 17 106 0 553 271 278 104 109 195 0 551 +0 17 294 0 553 278 76 59 554 25
9 0 0 +0 17 76 0 553 294 271 74 73 256 0 255 +0 17 554 0 359 79 552 74 294 259 0
 0 -0 15 359 279 0 79 352 381 0 17 79 0 359 301 554 77 255 250 0 249 -0 17 552 0
 359 554 555 59 280 204 0 294 -0 17 555 0 359 552 299 56 375 284 0 0 -0 17 280 0
 539 283 61 56 552 204 0 555 +0 17 299 0 359 555 301 50 295 300 302 0 -0 17 375
 0 543 371 58 50 555 284 0 299 +0 15 543 243 0 546 318 0 0 17 371 0 543 546 375
 49 52 364 0 556 +0 17 58 0 543 375 546 56 283 281 0 280 -0 17 546 0 543 58 371
 53 55 276 0 0 -0 17 52 0 297 295 556 50 371 364 0 375 -0 17 556 0 297 52 218 49
 287 214 0 0 -0 15 297 250 0 556 307 0 0 17 218 0 297 556 557 100 558 216 0 287
 +0 17 287 0 425 213 55 100 556 214 0 0 +0 17 213 0 425 415 287 127 102 211 0 0
 +0 17 415 0 425 422 213 130 559 215 0 560 +0 17 102 0 526 558 129 100 213 211 0
 218 -0 15 526 195 0 561 516 0 0 17 558 0 526 562 102 97 218 216 0 557 -0 17 129
 0 526 102 563 127 564 230 0 559 +0 17 563 0 526 129 561 146 139 565 0 564 +0 17
 564 0 486 566 559 146 129 230 0 0 -0 17 559 0 486 564 132 127 415 215 0 213 -0
 15 486 130 0 564 478 0 0 17 132 0 486 559 566 130 567 411 0 415 +0 17 566 0 486
 132 564 149 148 568 0 567 +0 17 567 0 569 570 560 149 132 411 0 0 -0 15 569 148
 0 567 485 0 0 17 570 0 569 172 567 154 151 571 0 170 +0 17 560 0 569 567 126 13
0 422 416 0 0 -0 17 126 0 569 560 28 124 572 187 0 422 +0 17 422 0 425 424 415 1
24 560 416 0 426 +0 17 426 0 519 572 573 124 424 423 0 0 -0 15 519 155 0 572 510
 0 0 17 572 0 519 574 426 159 126 187 0 0 -0 17 573 0 519 426 575 133 440 438 0
 424 -0 17 575 0 519 573 123 118 576 192 0 0 -0 17 440 0 577 135 135 118 573 438
 0 575 +0 15 577 46 0 440 578 0 0 17 135 0 577 440 440 133 120 220 0 573 -0 17 1
20 0 425 576 424 118 135 220 0 440 +0 17 576 0 425 93 120 121 575 192 0 579 +0 1
7 93 0 425 70 576 91 579 232 0 229 +0 16 192 163 0 ?576 220 232 190 0 0 1 0 17 5
79 0 530 580 229 121 93 232 0 0 -0 15 530 204 0 580 525 0 0 17 580 0 530 168 579
 156 123 184 0 0 -0 17 229 0 530 579 114 91 581 227 0 548 +0 17 114 0 530 229 16
8 112 176 181 0 180 -0 17 581 0 534 582 548 112 229 227 0 0 -0 17 548 0 534 581
 261 91 70 234 0 0 -0 15 534 209 0 583 529 0 0 17 261 0 534 548 73 68 549 208 0
 547 +0 17 73 0 534 261 255 71 76 256 0 549 -0 17 549 0 537 550 547 71 261 208 0
 271 -0 17 271 0 553 76 106 71 550 258 0 0 +0 17 255 0 534 73 249 74 79 250 0 55
4 +0 17 249 0 534 255 82 77 584 231 0 335 +0 17 82 0 534 249 585 80 85 242 0 584
 -0 17 584 0 334 336 335 80 249 231 0 586 -0 17 335 0 334 584 48 77 301 245 0 0
 -0 15 334 276 0 336 342 0 0 17 336 0 334 48 584 42 586 244 0 0 -0 17 586 0 587
 85 44 80 336 244 0 0 +0 16 244 274 0 ?586 224 242 588 0 0 1 0 16 224 256 0 ?44
 221 244 337 0 0 1 0 133 588 643 0 244 341 589 0 +589 .0225124139757004 -.020470
28785134955 .1126096298093882 .122245285569137 -.01408529365214932 .098144323720
7822 0 .1009785071558982 0 32 341 642 0 1 337 588 590 +.01424528556959018 -.0260
9652886250685 .1225756860812972 -.01754950499459955 -.864378950271855 -.50253462
0898273 -.0102008692953472 -.502431077330006 .864557085910832 .01989912651614485
 .01000000000000022 0 30 589 644 0 1 588 18 591 +.0225124139757004 -.02047028785
134955 .1126096298093882 .9876643495973 .063231219979739 -.1432513363093542 0 30
 18 8762 0 22 589 7 0 +-.0673967190034504 .04153121780667115 .1221005294155294 .
998646971338468 -.0520021791514974 -768355456255239e-26 0 141 591 588 591 591 58
9 0 141 590 337 590 590 341 0 17 44 0 587 586 99 42 557 224 0 298 +0 15 587 273
 0 99 353 0 0 17 99 0 587 44 592 97 562 221 0 558 +0 17 557 0 297 218 298 97 44
 224 0 0 -0 17 298 0 297 557 295 42 48 219 323 336 +0 16 219 254 0 7596340619981
34e-21 298 300 216 0 0 0 1 0 16 300 252 0 1060977292105524e-21 295 364 219 0 0 0
 1 0 17 592 0 587 99 85 94 292 239 0 0 -0 17 562 0 526 561 558 94 99 221 0 592 -
0 17 561 0 526 563 562 46 96 223 0 0 -0 17 96 0 593 292 594 94 561 223 0 562 +0
 15 593 270 0 595 596 0 0 17 292 0 593 241 96 83 592 239 0 0 +0 17 594 0 593 96
 595 46 142 267 0 561 +0 17 595 0 593 594 241 140 90 238 0 0 -0 17 142 0 33 145
 139 140 594 267 0 597 -0 16 267 8878 0 ?594 264 565 504 0 0 1 0 16 565 8879 0 ?
563 267 598 506 0 0 1 0 16 598 8877 0 ?597 565 599 600 0 0 1 0 30 506 9067 0 565
 600 504 0 +-.0638882890410733 -.0160965288625064 .113997468045265 -.14531508053
50058 -1348138383847778e-30 -.989385429127145 0 30 600 9068 0 598 601 506 0 +-.0
64076734123465 -.01332518960718716 .113624814246871 -3477302273119335e-23 -.9500
51843116589 -.3120921264479 0 30 601 9069 0 599 602 600 0 +-.0640424049928924 .0
0129504619205757 .1186612912459586 .1527809106456335 -.308427827047014 .93889843
3721853 0 16 599 8883 0 ?603 598 568 601 0 0 1 0 30 602 9070 0 568 604 601 0 +-.
0657547144305615 -.01142518168512212 .1028243486953844 240195761942857e-26 .9500
51913310149 .312091912768859 0 16 568 8880 0 ?566 599 571 602 0 0 1 0 30 604 907
1 0 571 605 602 0 +-.064374813054577 .03328337251329275 .126906233793472 .137441
595955161 .137441595947615 .980927935887581 0 16 571 8881 0 ?570 568 36 604 0 0
 1 0 30 605 9072 0 36 606 604 0 +-.0647642477534363 .000854465043548306 .1136018
557031504 -3477302273119335e-23 -.950051843116589 -.3120921264479 0 16 36 8882 0
 ?35 571 607 605 0 0 1 0 30 606 9073 0 607 608 605 0 +.1152553214567296 .0419034
7113749345 .0912210769254162 .987022397049044 -946181815116293e-30 -.16058265075
51805 0 16 607 8968 0 ?574 36 609 606 0 0 1 0 30 608 9074 0 609 610 606 0 +.1162
946025861414 .0378541541207973 .1037035451039322 .304692492843112 -.304692492836
1705 .902399562064572 0 16 609 8969 0 ?168 607 29 608 0 0 1 0 30 610 9075 0 29 1
82 608 0 +-.0570389932337799 .0406191923341179 .1232648916902622 .27945641933958
7 .279456419346653 -.918590343611256 0 16 29 8967 0 ?28 609 167 610 0 0 1 0 30 1
82 9076 0 167 0 610 0 +-.0730905060353164 .03999859837619695 .127815340351172 -.
987022394468457 -521111541003126e-23 .160582666616775 0 17 28 0 569 126 172 159
 23 29 0 572 +0 17 172 0 569 28 570 11 170 413 0 0 +0 17 170 0 169 37 30 154 172
 413 0 0 -0 17 168 0 530 114 580 161 158 609 0 176 +0 17 158 0 25 27 163 156 168
 609 0 574 -0 17 27 0 25 23 158 159 574 607 0 28 -0 17 574 0 519 123 572 156 27
 607 0 580 +0 17 123 0 519 575 574 121 580 184 0 576 +0 17 35 0 174 117 175 152
 31 36 0 194 +0 17 117 0 174 180 35 115 194 193 0 582 -0 17 194 0 611 603 266 15
2 117 193 0 0 +0 15 611 286 0 194 612 0 0 17 603 0 611 88 194 143 34 599 0 613 +
0 17 266 0 611 194 88 115 614 264 0 0 +0 17 88 0 611 266 603 67 613 196 0 614 +0
 17 614 0 534 583 582 67 266 264 0 237 -0 17 583 0 534 585 614 86 237 235 0 0 -0
 17 582 0 534 614 581 115 180 185 0 266 -0 17 237 0 615 613 90 67 583 235 0 0 +0
 15 615 266 0 613 474 0 0 17 613 0 615 597 237 143 88 196 0 0 -0 17 90 0 615 237
 597 86 595 238 0 241 +0 17 597 0 615 90 613 140 145 598 0 595 +0 17 241 0 593 5
95 292 86 585 226 0 583 +0 17 585 0 534 82 583 83 241 226 0 292 -0 17 145 0 33 3
4 142 143 597 598 0 603 -0 15 33 8940 0 145 616 0 0 17 34 0 33 31 145 152 603 59
9 0 35 -0 14 616 8945 617 ?0 166 33 5 618 -0 0 0 166 20 0 81 1 617 9165 481 616
 0 0 619 0 620 0 14 166 9033 619 ?616 459 25 5 621 -0 0 616 459 20 0 50 618 9061
 0 616 0 621 0 +-.0559292934681156 .0369487389750408 .185612073943314 .988260083
855606 .0476816866357093 -.1451497964768936 -.145315080535006 0 -.98938542912714
5 0 50 621 9056 0 166 618 622 0 +.150590056518656 .02216109315992565 .1471547634
582394 -.0495334230329162 -.95123711537933 -.3044575345223905 0 .304831725652442
 -.952406225848904 0 51 622 415 0 623 621 624 0 +.082245285569329 .0219034711374
9345 .088588786828076 769403984968164e-26 1443289932012704e-30 1 .0075 -73216391
3907828e-30 -1 141266702268132e-29 0 14 623 57 625 ?454 578 449 5 622 -0 0 454 5
78 20 0 51 624 424 0 454 622 626 0 +.0472452855693916 -.04309652886250655 .09672
62257060072 769403984968164e-26 1443289932012704e-30 1 .0075 -732163913907828e-3
0 -1 141266702268132e-29 0 14 454 67 627 ?628 623 629 5 624 -0 0 628 623 20 0 51
 626 433 0 628 624 488 0 +-.0457547144305733 .0169034711374936 .1012796699518614
 769403984968164e-26 1443289932012704e-30 1 .0075 -732163913907828e-30 -1 141266
702268132e-29 0 14 628 77 630 ?468 454 631 5 626 -0 0 468 454 20 0 51 488 442 0
 468 626 480 0 +-.045754714430769 .01690347113749355 .0758505294153629 769403984
968164e-26 1443289932012704e-30 1 .00425 -732163913907828e-30 -1 141266702268132
e-29 0 14 468 87 632 ?464 628 633 5 488 -0 0 464 628 20 0 81 1 632 2621 481 468
 634 0 630 466 635 0 15 633 647 0 398 468 636 0 17 398 0 633 398 398 0 637 396 0
 0 +0 15 636 88 0 395 468 0 0 17 395 0 636 395 395 0 638 393 0 0 +0 17 638 0 639
 638 638 0 395 393 0 0 -0 15 639 262 0 638 317 471 0 17 637 0 640 637 637 0 398
 396 0 0 -0 15 640 294 0 637 460 0 0 14 460 292 641 ?456 183 642 5 643 +0 0 456
 183 20 0 81 1 641 2645 481 460 644 0 645 458 646 0 14 183 287 645 ?460 612 169
 5 647 +0 0 460 612 20 0 15 642 293 0 648 460 640 0 50 643 608 0 460 647 461 0 +
-.054004714430567 .0251534711374936 .1021005294154264 769403984968164e-26 144328
9932012704e-30 1 -732163913907828e-30 -1 141266702268132e-29 0 50 647 605 0 183
 360 643 0 +-.0673365400389938 .042686891310619 .122100529415529 769403984968164
e-26 1443289932012704e-30 1 -732163913907828e-30 -1 141266702268132e-29 0 50 461
 609 0 456 643 649 0 +.03899528556939445 -.03484652886250655 .0971005294147109 7
69403984968164e-26 1443289932012704e-30 1 -732163913907828e-30 -1 14126670226813
2e-29 0 50 649 614 0 459 461 650 0 +.0739952855693329 .0301534711374935 .0891005
294144415 769403984968164e-26 1443289932012704e-30 1 -732163913907828e-30 -1 141
266702268132e-29 0 14 459 304 651 ?166 456 652 5 649 +0 0 166 456 20 0 51 650 61
5 0 578 649 653 0 +.0489464440849558 .044124515987447 .0591689471545528 .1527538
14077288 -.308429503341027 .938902291909892 .004 -2401932819307005e-27 -.9500518
41439275 -.312092131553875 0 14 578 45 654 ?623 655 656 5 650 -0 0 623 655 20 0
 51 653 616 0 655 650 657 0 +-.02022406429203175 .03977699781416415 .06899441694
4953 .152753814077288 -.308429503341027 .938902291909892 .004 -2401932819307005e
-27 -.950051841439275 -.312092131553875 0 14 655 35 658 ?578 659 660 5 653 -0 0
 578 659 20 0 52 657 617 0 659 653 661 0 +.0384900566092843 .0343776660522232 .0
881092178348624 .152753814077288 -.308429503341027 .938902291909892 0 .857167300
70211 .515038074910059 -240197445267043e-26 -.950051841439275 -.312092131553875
 0 14 659 30 662 ?655 495 663 5 657 -0 0 655 495 20 0 51 661 619 0 495 657 17 0
 +.0385896752455318 .03417652327430345 .0887215244175474 .152753814077288 -.3084
29503341027 .938902291909892 .0025 -240197445267043e-26 -.950051841439275 -.3120
92131553875 0 14 495 20 664 ?659 490 665 5 661 -0 0 659 490 20 0 52 17 620 0 490
 661 6 0 +-.0010359481775658 .0318933699532044 .0937237720008054 .15275381407728
8 -.308429503341027 .938902291909892 0 .857167300702109 .515038074910059 -240197
445267043e-26 -.950051841439275 -.312092131553875 0 81 1 664 2614 481 495 666 0
 493 662 667 0 15 665 654 0 668 495 669 0 17 668 0 665 668 668 0 670 199 0 0 -0
 15 669 21 0 503 495 0 0 17 503 0 669 503 503 0 671 441 0 0 +0 17 671 0 663 671
 671 0 503 441 0 0 -0 15 663 653 0 671 659 672 0 15 672 31 0 136 659 0 0 17 136
 0 672 136 136 39 0 0 0 0 ?0 17 670 0 178 670 670 0 668 199 0 0 +0 16 199 27 0 ?
670 181 434 431 0 0 1 0 15 178 174 0 670 177 673 0 15 673 176 0 436 177 674 0 17
 436 0 673 436 436 0 675 434 0 0 +0 15 674 178 0 444 177 676 0 17 444 0 674 444
 444 0 677 437 0 0 +0 15 676 180 0 450 177 678 0 17 450 0 676 450 450 0 448 447
 0 0 -0 15 678 182 0 679 177 507 0 17 679 0 678 679 679 0 392 390 0 0 -0 17 392
 0 631 392 392 0 679 390 0 0 +0 15 631 648 0 392 628 680 0 15 680 78 0 389 628 0
 0 17 389 0 680 389 389 0 648 387 0 0 +0 17 648 0 642 648 648 0 389 387 0 0 -0 1
7 677 0 656 677 677 0 444 437 0 0 -0 15 656 651 0 677 578 577 0 17 675 0 660 675
 675 0 436 434 0 0 -0 15 660 652 0 675 655 681 0 15 681 36 0 430 655 0 0 17 430
 0 681 430 430 0 427 289 0 0 -0 80 1 481 0 682 8001 0 0 0 0 3 5 0 0 FFFFTFTFFFFF
FF2 0 81 1 666 323 683 495 0 664 684 685 686 0 81 1 493 2613 481 490 684 0 489 6
64 687 0 81 1 662 2615 481 659 685 0 664 658 688 0 83 3 667 .501960784313726 .50
1960784313726 .501960784313726 0 81 1 685 324 683 659 0 662 666 689 690 0 81 1 6
58 2616 481 655 689 0 662 654 691 0 83 3 688 .501960784313726 .501960784313726 .
501960784313726 0 81 1 689 325 683 655 0 658 685 692 693 0 81 1 654 2617 481 578
 692 0 658 625 694 0 83 3 691 .501960784313726 .501960784313726 .501960784313726
 0 81 1 692 326 683 578 0 654 689 695 696 0 81 1 625 2618 481 623 695 0 654 627
 697 0 83 3 694 .501960784313726 .501960784313726 .501960784313726 0 81 1 695 32
7 683 623 0 625 692 698 699 0 81 1 627 2619 481 454 698 0 625 630 700 0 83 3 697
 .501960784313726 .501960784313726 .501960784313726 0 81 1 698 328 683 454 0 627
 695 701 702 0 81 1 630 2620 481 628 701 0 627 632 703 0 83 3 700 .5019607843137
26 .501960784313726 .501960784313726 0 81 1 701 329 683 628 0 630 698 634 704 0
 83 3 703 .501960784313726 .501960784313726 .501960784313726 0 80 1 683 705 706
 9000 0 0 0 0 3 6 0 0 FFFFTFTFFFFFFF1 0 81 1 634 330 683 468 0 632 701 707 708 0
 82 1 704 8 0 81 1 707 331 683 464 0 466 634 482 709 0 82 1 708 8 0 81 1 466 262
2 481 464 707 0 632 477 710 0 81 1 482 332 683 467 0 477 707 711 712 0 82 1 709
 8 0 81 1 711 336 683 478 0 483 482 713 714 0 82 1 712 8 0 81 1 483 2624 481 478
 711 0 477 715 716 0 81 1 713 337 683 485 0 715 711 717 718 0 82 1 714 8 0 14 48
5 147 715 ?510 478 569 5 521 -0 0 510 478 20 0 81 1 715 2625 481 485 713 0 483 5
13 719 0 81 1 717 338 683 510 0 513 713 512 720 0 82 1 718 8 0 81 1 513 2626 481
 510 717 0 715 508 721 0 81 1 512 339 683 177 0 508 717 722 723 0 82 1 720 8 0 8
1 1 722 340 683 509 0 514 512 724 725 0 82 1 723 8 0 81 1 514 2628 481 509 722 0
 508 524 726 0 81 1 724 341 683 516 0 524 722 727 728 0 82 1 725 8 0 81 1 524 26
29 481 516 724 0 514 528 729 0 81 1 727 342 683 525 0 528 724 730 731 0 82 1 728
 8 0 81 1 528 2630 481 525 727 0 524 532 732 0 81 1 730 343 683 529 0 532 727 73
3 734 0 82 1 731 8 0 81 1 532 2631 481 529 730 0 528 535 735 0 81 1 733 344 683
 533 0 535 730 540 736 0 82 1 734 8 0 81 1 535 2632 481 533 733 0 532 538 737 0
 81 1 540 345 683 536 0 538 733 738 739 0 82 1 736 8 0 81 1 738 346 683 318 0 54
1 540 740 741 0 82 1 739 8 0 81 1 541 2634 481 318 738 0 538 316 742 0 81 1 740
 347 683 307 0 316 738 743 744 0 82 1 741 8 0 81 1 316 2635 481 307 740 0 541 47
3 745 0 81 1 743 348 683 317 0 473 740 746 747 0 82 1 744 8 0 81 1 473 2636 481
 317 743 0 316 748 749 0 81 1 746 349 683 474 0 748 743 750 751 0 82 1 747 8 0 1
4 474 265 748 ?596 317 615 5 320 -0 0 596 317 20 0 81 1 748 2637 481 474 746 0 4
73 752 753 0 81 1 750 350 683 596 0 752 746 754 755 0 82 1 751 8 0 14 596 269 75
2 ?353 474 593 5 354 -0 0 353 474 20 0 81 1 752 2638 481 596 750 0 748 756 757 0
 81 1 754 351 683 353 0 756 750 758 759 0 82 1 755 8 0 14 353 272 756 ?342 596 5
87 5 343 -0 0 342 596 20 0 81 1 756 2639 481 353 754 0 752 351 760 0 81 1 758 35
2 683 342 0 351 754 761 762 0 82 1 759 8 0 81 1 351 2640 481 342 758 0 756 357 7
63 0 81 1 761 353 683 352 0 357 758 764 765 0 82 1 762 8 0 81 1 357 2641 481 352
 761 0 351 766 767 0 81 1 764 354 683 358 0 766 761 768 769 0 82 1 765 8 0 14 35
8 283 766 ?612 352 553 5 355 -0 0 612 352 20 0 81 1 766 2642 481 358 764 0 357 7
70 771 0 81 1 768 355 683 612 0 770 764 772 773 0 82 1 769 8 0 14 612 285 770 ?1
83 358 611 5 360 -0 0 183 358 20 0 81 1 770 2643 481 612 768 0 766 645 774 0 81
 1 772 356 683 183 0 645 768 644 775 0 82 1 773 8 0 81 1 645 2644 481 183 772 0
 770 641 776 0 81 1 644 358 683 460 0 641 772 777 778 0 82 1 775 8 0 81 1 777 35
9 683 456 0 458 644 779 780 0 82 1 778 8 0 81 1 458 2646 481 456 777 0 641 651 7
81 0 81 1 779 362 683 459 0 651 777 0 782 0 82 1 780 8 0 81 1 651 2647 481 459 7
79 0 458 619 783 0 82 1 782 8 0 81 1 619 9164 481 166 0 0 651 617 784 0 83 3 783
 .501960784313726 .501960784313726 .501960784313726 0 83 3 784 .501960784313726
 .501960784313726 .501960784313726 0 83 3 781 .501960784313726 .501960784313726
 .501960784313726 0 83 3 776 .501960784313726 .501960784313726 .501960784313726
 0 83 3 774 .501960784313726 .501960784313726 .501960784313726 0 50 360 604 0 61
2 355 647 0 +-.0751547144304275 .000607548587849484 .120243683238229 .0140000415
1490948 -.949281153186966 -.3141166838001505 -730429605688698e-26 .3141474719435
915 -.949374196969482 0 83 3 771 .501960784313726 .501960784313726 .501960784313
726 0 83 3 767 .501960784313726 .501960784313726 .501960784313726 0 83 3 763 .50
1960784313726 .501960784313726 .501960784313726 0 83 3 760 .501960784313726 .501
960784313726 .501960784313726 0 83 3 757 .501960784313726 .501960784313726 .5019
60784313726 0 51 354 594 0 596 320 343 0 +.132257366782334 -.00429230913133556 .
0889100211223668 -.988157493101408 -.0616336527753385 .140520680588695 .004 .153
385877641263 -.4217629262584485 .893637961690377 0 50 320 591 0 474 309 354 0 +.
1320042189790684 -.00386637111296998 .0848308332363826 -.152753814077288 .308429
503341027 -.938902291909892 -.988086449513677 -.0656865680263076 .13917773912656
5 0 83 3 753 .501960784313726 .501960784313726 .501960784313726 0 83 3 749 .5019
60784313726 .501960784313726 .501960784313726 0 83 3 745 .501960784313726 .50196
0784313726 .501960784313726 0 83 3 742 .501960784313726 .501960784313726 .501960
784313726 0 83 3 737 .501960784313726 .501960784313726 .501960784313726 0 83 3 7
35 .501960784313726 .501960784313726 .501960784313726 0 83 3 732 .50196078431372
6 .501960784313726 .501960784313726 0 83 3 729 .501960784313726 .501960784313726
 .501960784313726 0 83 3 726 .501960784313726 .501960784313726 .501960784313726
 0 83 3 721 .501960784313726 .501960784313726 .501960784313726 0 83 3 719 .50196
0784313726 .501960784313726 .501960784313726 0 50 521 495 0 485 487 520 0 +-.055
2547144303958 .0424034711374936 .124350529415436 .707106781186548 -.707106781186
549 -543948219799972e-26 -.707106781186549 -.707106781186547 544153611059528e-26
 0 50 487 478 0 478 469 521 0 +-.0657547144303958 -.01849652886250635 .124350529
4155168 1 -735522753814166e-30 -769403984968164e-26 -769403984968164e-26 -144328
9932012704e-30 -1 0 51 469 472 0 464 480 487 0 +.0472452855692329 -.043096528862
50655 .0761005294146475 769403984968164e-26 1443289932012704e-30 1 .00425 -73216
3913907828e-30 -1 141266702268132e-29 0 83 3 716 .501960784313726 .5019607843137
26 .501960784313726 0 83 3 710 .501960784313726 .501960784313726 .50196078431372
6 0 79 11 706 CNC/mcColor0 82 1 702 8 0 82 1 699 8 0 82 1 696 8 0 82 1 693 8 0 8
2 1 690 8 0 81 1 684 322 683 490 0 493 492 666 785 0 83 3 687 .501960784313726 .
501960784313726 .501960784313726 0 81 1 492 321 683 15 0 489 0 684 786 0 82 1 78
5 8 0 82 1 786 8 0 82 1 686 8 0 79 15 682 SDL/TYSA_COLOUR0 15 652 305 0 787 459
 788 0 17 787 0 652 787 787 0 446 442 0 0 -0 15 788 306 0 789 459 0 0 17 789 0 7
88 789 789 0 410 408 0 0 -0 17 410 0 479 410 410 0 789 408 0 0 +0 17 446 0 790 4
46 446 0 787 442 0 0 +0 15 790 58 0 446 623 0 0 83 3 646 .501960784313726 .50196
0784313726 .501960784313726 0 83 3 635 .501960784313726 .501960784313726 .501960
784313726 0 15 629 649 0 382 454 452 0 17 382 0 629 382 382 0 379 272 0 0 -0 15
 449 650 0 448 623 790 0 83 3 620 .501960784313726 .501960784313726 .50196078431
3726 0 17 180 0 174 176 117 112 582 185 0 581 +0 17 139 0 33 142 148 46 563 565
 0 594 -0 17 148 0 33 139 151 146 566 568 0 563 -0 17 151 0 33 148 21 149 570 57
1 0 566 -0 17 21 0 33 151 31 154 37 10 0 570 +0 17 85 0 587 592 586 83 82 242 0
 585 +0 15 381 281 0 379 352 0 0 15 429 260 0 427 317 639 0 83 3 542 .5019607843
13726 .501960784313726 .501960784313726 0 83 3 515 .501960784313726 .50196078431
3726 .501960784313726 0 15 496 655 0 501 490 791 0 15 791 16 0 38 490 0 0 17 38
 0 791 38 38 32 0 0 0 0 ?0 83 3 494 .501960784313726 .501960784313726 .501960784
313726 0 83 3 484 .501960784313726 .501960784313726 .501960784313726 0 19 16 1 0
 1 0 9 5 S0 74 20 14 3 0 779 617 2 0 0 0 0 0 0 0 0 0 0 0 0 0 0 0 0 0 0 80 1 12 7
92 793 8017 0 0 0 0 0 0 0 0 TTTTTTTTTTTTTF3 0 84 53 13 <0100770102-OP30B-SUPPORT
 PIECE-A>-<Trou taraud M61>0 79 13 793 SDL/TYSA_NAME0 1 0 
