**ABCDEFGHIJKLMNOPQRSTUVWXYZabcdefghijklmnopqrstuvwxyz**************************
**PARASOLID !"#%&'()*+,-./:;<=>?@[\]^_`{|}~0123456789***************************
**PART1;
MC=unknown;
MC_MODEL=unknown;
MC_ID=unknown;
OS=Windows 95;
OS_RELEASE=unknown;
FRU=CNC Software, Inc.;
APPL=Mastercam;
SITE=unknown;
USER=unknown;
FORMAT=text;
GUISE=transmit;
KEY=REP 9 3D;
FILE=REP 9 3D.X_T;
DATE=Tue May 22 13:30:03 2018;
**PART2;
SCH=SCH_2901131_28101;
USFLD_SIZE=1;
**PART3;
**END_OF_HEADER*****************************************************************
T51 : TRANSMIT FILE created by modeller version 290113117 SCH_1101000_110041 12
 1 506 2 3 0 0 0 0 1e3 1e-8 0 4 0 1 0 1 1 5 6 7 8 9 10 11 0 81 1 2 506 12 1 0 0
 0 0 13 0 70 3 0 1 0 0 4 3 20 8 14 14 1 T0 13 5 4 0 1 0 15 0 0 16 0 0 51 6 253 0
 15 17 0 0 +-.1729034711374935 .0457547144305737 -.101238029415363 1790525987439
52e-58 -769402134596457e-26 -1 .0034 0 -1 769402134596457e-26 0 30 7 242 0 18 19
 0 0 +-.1624749532482995 -.0992452855694202 -.1004408182724924 -.000498381949261
768 .99999487405441 .00316282790206205 0 29 8 224 0 20 21 0 -.165358757553601 .0
607547144306032 -.0974059473358486 0 19 9 2 0 1 16 0 22 V0 16 10 7 0 ?23 0 24 25
 0 0 1 0 18 11 18 0 26 0 27 28 ?1 0 17 26 0 29 26 26 11 0 0 0 0 ?0 18 27 33 0 30
 11 31 32 ?1 0 29 28 164 0 11 0 32 -.1729034711374935 .0457547144305809 -.100307
6033106692 0 29 32 177 0 27 28 33 -.1729034711374935 -.01924528556941915 -.10030
7603310169 0 29 33 190 0 31 32 34 -.1729034711374935 -.0842452855694192 -.100307
603309669 0 18 31 48 0 35 27 36 33 ?1 0 29 34 194 0 37 33 38 -.165279016032968 -
.0992452855694007 -.0979120023941892 0 18 37 53 0 39 40 41 34 ?1 0 29 38 195 0 3
6 34 42 -.1829034711374935 -.0992452855693935 -.0969743644482652 0 18 36 54 0 43
 31 44 38 ?1 0 29 42 197 0 44 38 45 -.1829034711374935 -.0992452855696061 -.1246
005294142472 0 18 44 56 0 46 36 47 42 ?1 0 29 45 199 0 47 42 48 -.15790347113749
35 -.0992452855696061 -.1246005294142472 0 18 47 58 0 49 44 50 45 ?1 0 29 48 201
 0 50 45 51 -.1579034711374935 -.0992452855695368 -.1156005294142472 0 18 50 60
 0 52 47 53 48 ?1 0 29 51 203 0 53 48 54 -.158376636936084 -.0992452855695368 -.
1156005294142472 0 18 53 62 0 55 50 56 51 ?1 0 29 54 205 0 56 51 57 -.1603522601
46649 -.0992452855695238 -.1139118378302544 0 18 56 64 0 58 53 40 54 ?1 0 29 57
 207 0 40 54 59 -.1624749532482995 -.0992452855694202 -.1004408182724924 0 18 40
 66 0 60 56 37 57 ?1 0 29 59 211 0 41 57 61 -.160352260146649 .0607547144304761
 -.1139118378314854 0 18 41 71 0 62 37 63 59 ?1 0 29 61 212 0 64 59 65 -.1625546
94768932 .0607547144305837 -.0999347632141519 0 18 64 72 0 66 20 0 61 ?1 0 29 65
 214 0 63 61 67 -.158376636936084 .0607547144304632 -.1156005294154784 0 18 63 7
4 0 68 41 69 65 ?1 0 29 67 216 0 69 65 70 -.1579034711374935 .0607547144304632 -
.1156005294154784 0 18 69 76 0 71 63 72 67 ?1 0 29 70 218 0 72 67 73 -.157903471
1374935 .0607547144303939 -.1246005294154782 0 18 72 78 0 74 69 75 70 ?1 0 29 73
 220 0 75 70 21 -.1829034711374935 .0607547144303939 -.1246005294154782 0 18 75
 80 0 76 72 77 73 ?1 0 29 21 222 0 77 73 8 -.1829034711374935 .0607547144306103
 -.0964725517154414 0 18 77 82 0 78 75 20 21 ?1 0 17 78 0 79 80 81 77 76 82 0 83
 -0 18 20 84 0 84 77 64 8 ?1 0 17 84 0 85 86 87 20 66 88 0 80 +0 15 85 115 0 84
 89 0 0 17 86 0 85 60 84 37 90 91 0 0 +0 17 87 0 85 84 60 64 92 18 0 0 +0 17 66
 0 79 62 80 64 84 88 0 93 -0 16 88 85 0 ?84 94 91 95 0 0 1 0 17 80 0 79 66 78 20
 83 96 0 90 +0 15 79 69 0 62 97 0 0 17 83 0 98 99 90 77 80 96 0 100 -0 16 96 83
 0 ?80 101 102 103 0 0 1 0 17 90 0 98 83 104 20 86 91 0 0 -0 15 98 87 0 83 105 0
 0 17 104 0 98 90 99 37 106 101 0 86 -0 16 91 89 0 ?86 88 107 108 0 0 1 0 16 107
 67 0 ?60 91 18 109 0 0 1 0 30 108 228 0 91 110 111 0 +-.165358757553601 .060754
7144306032 -.0974059473358486 .000498381949262123 -.99999487405441 -.00316282790
2061965 0 30 110 227 0 94 95 108 0 +-.1829034711374935 -.0992452855693935 -.0969
743644482652 0 .999995081754666 .00313631415491058 0 30 111 230 0 112 108 113 0
 +-.1579034711374935 .0607547144303939 -.1246005294154782 0 -1 769402319633628e-
26 0 16 112 92 0 ?114 102 115 111 0 0 1 0 30 113 231 0 116 111 117 0 +-.18290347
11374935 .0607547144303939 -.1246005294154782 0 -1 769402319633628e-26 0 16 116
 93 0 ?118 82 119 113 0 0 1 0 30 117 236 0 120 113 121 0 +-.1579034711374935 .06
07547144304632 -.1156005294154784 0 -1 769402319633628e-26 0 16 120 102 0 ?122 1
23 124 117 0 0 1 0 30 121 238 0 125 117 19 0 +-.158376636936084 .060754714430463
2 -.1156005294154784 0 -1 769402319633628e-26 0 16 125 105 0 ?126 127 128 121 0
 0 1 0 30 19 240 0 129 121 7 0 +-.160352260146649 .0607547144304761 -.1139118378
314854 177635683940025e-30 -1 769402319633628e-26 0 16 129 108 0 ?130 131 132 19
 0 0 1 0 17 130 0 133 55 134 56 135 129 0 0 +0 16 131 73 0 ?134 128 129 136 0 0
 1 0 16 132 63 0 ?55 129 137 138 0 0 1 0 17 55 0 133 139 130 53 140 132 0 141 +0
 16 137 65 0 ?58 132 142 143 0 0 1 0 31 138 204 0 132 144 143 0 +-.1583766369360
84 -.0992452855695215 -.1136005294142472 -2471364537577025e-29 -1 76632018891770
9e-26 -.987811605282506 -117267306976035e-26 -.1556542080035055 .001999999999999
95 0 30 144 202 0 128 145 138 0 +-.158376636936084 -.0992452855695368 -.11560052
94142472 1 0 0 0 30 143 206 0 137 138 109 0 +-.1624749532482995 -.09924528556942
02 -.1004408182724924 .1556542080035375 -759976337750692e-26 -.987811605282501 0
 31 109 208 0 107 143 146 0 +-.1654383997523395 -.0992452855694238 -.10090777640
2226 -1466925985360146e-29 1 -771024581088604e-26 .0531277143794006 769751847449
691e-26 .998587725723094 .003000010846185405 0 30 146 210 0 142 109 136 0 +-.160
352260146649 .0607547144304761 -.1139118378314854 -.15565420800353 7600797519059
61e-26 .987811605282502 0 16 142 70 0 ?93 137 82 146 0 0 1 0 31 136 213 0 131 14
6 147 0 +-.158376636936084 .0607547144304786 -.1136005294154784 -439136805457244
e-29 1 -769725223953227e-26 1387778780781464e-29 -769870278638517e-26 -1 .001999
999999999975 0 30 147 215 0 127 136 148 0 +-.1579034711374935 .0607547144304632
 -.1156005294154784 -1 0 0 0 16 127 75 0 ?149 124 125 147 0 0 1 0 30 148 217 0 1
23 147 150 0 +-.1579034711374935 .0607547144303939 -.1246005294154782 0 76928093
5249602e-26 1 0 16 123 77 0 ?151 152 120 148 0 0 1 0 30 150 219 0 102 148 153 0
 +-.1829034711374935 .0607547144303939 -.1246005294154782 1 0 0 0 16 102 79 0 ?1
54 96 112 150 0 0 1 0 30 153 221 0 82 150 103 0 +-.1829034711374935 .06075471443
06103 -.0964725517154414 0 -769351063595346e-26 -1 0 16 82 81 0 ?76 142 116 153
 0 0 1 0 30 103 223 0 96 153 95 0 +-.1829034711374935 .0607547144306103 -.096472
5517154414 .998587825878603 -4076530727516145e-28 -.0531258318245073 0 31 95 225
 0 88 103 110 0 +-.165518141272972 .0607547144305801 -.1004017213438856 -3037480
12198886e-29 -1 769609965532665e-26 .987811930016145 119579839282289e-26 .155652
1471672605 .003000010846185645 0 17 76 0 155 118 100 75 78 82 0 81 +0 15 155 113
 0 76 156 0 0 17 118 0 155 43 76 44 157 116 0 0 +0 17 100 0 155 76 43 77 99 94 0
 0 +0 17 81 0 79 78 74 75 154 102 0 157 -0 17 74 0 79 81 71 72 151 123 0 154 -0
 17 154 0 158 114 157 72 81 102 0 159 +0 17 157 0 158 154 160 75 118 116 0 0 -0
 15 158 91 0 154 161 162 0 17 160 0 158 157 114 44 163 115 0 118 +0 17 114 0 158
 160 154 47 159 112 0 0 +0 17 163 0 164 165 46 47 160 115 0 114 -0 16 115 57 0 ?
160 112 166 167 0 0 1 0 16 166 27 0 ?168 115 169 170 0 0 1 0 30 167 198 0 115 17
1 145 0 +-.1579034711374935 -.0992452855696061 -.1246005294142472 -1 0 0 0 30 17
1 196 0 119 172 167 0 +-.1829034711374935 -.0992452855696061 -.1246005294142472
 0 769437108233221e-26 1 0 30 145 200 0 124 167 144 0 +-.1579034711374935 -.0992
452855695368 -.1156005294142472 0 -769438833635326e-26 -1 0 16 124 59 0 ?49 120
 127 145 0 0 1 0 17 49 0 173 159 122 47 165 124 0 163 +0 15 173 101 0 151 174 0
 0 17 159 0 173 151 49 72 114 112 0 0 -0 17 122 0 173 49 151 50 175 120 0 0 +0 1
7 165 0 164 141 163 50 49 124 0 122 -0 15 164 51 0 106 176 0 0 17 141 0 164 140
 165 53 52 128 0 126 -0 17 140 0 164 177 141 56 55 132 0 130 -0 17 52 0 178 175
 126 50 141 128 0 165 +0 16 128 61 0 ?52 125 131 144 0 0 1 0 17 126 0 178 52 149
 53 139 125 0 0 +0 15 178 104 0 149 179 0 0 17 149 0 178 126 175 63 71 127 0 139
 +0 17 139 0 133 134 55 63 126 125 0 0 -0 15 133 107 0 134 180 0 0 17 134 0 133
 130 139 41 68 131 0 135 +0 17 68 0 79 71 62 63 134 131 0 149 -0 17 135 0 181 93
 58 41 130 129 0 0 -0 15 181 110 0 58 182 0 0 17 93 0 181 92 135 64 62 142 0 87
 +0 17 58 0 181 135 92 56 177 137 0 140 +0 17 92 0 181 58 93 40 87 18 0 0 -0 17
 177 0 164 39 140 40 58 137 0 92 -0 17 39 0 164 106 177 37 60 107 0 104 -0 17 10
6 0 164 46 39 36 104 101 0 99 +0 17 60 0 85 87 86 40 39 107 0 177 +0 17 46 0 164
 163 106 44 43 119 0 160 -0 16 101 52 0 ?106 183 96 172 0 0 1 0 17 99 0 98 104 8
3 36 100 94 0 0 -0 16 94 88 0 ?100 119 88 110 0 0 1 0 16 119 55 0 ?43 116 94 171
 0 0 1 0 17 43 0 155 100 118 36 46 119 0 106 +0 16 183 37 0 ?184 24 101 185 0 0
 1 0 30 172 193 0 101 186 171 0 +-.165279016032968 -.0992452855694007 -.09791200
23941892 -.998587825878603 4090293575785825e-28 .0531258318245025 0 31 186 185 0
 169 185 172 0 +-.1729034711374935 -.0842452855696061 -.1246005294143626 -478479
451841489e-29 769400882874421e-26 1 0 -1 769400882874422e-26 .0034 0 16 169 42 0
 ?187 166 152 186 0 0 1 0 31 185 180 0 183 170 186 0 +-.1729034711374935 -.08424
52855694349 -.1023505294143626 -522127432299001e-29 769604967989238e-26 1 -81634
04592832e-27 -1 769809053104058e-26 .0034 0 31 170 172 0 166 188 185 0 +-.172903
4711374935 -.01924528556960605 -.1246005294148628 -718642058821004e-29 769604967
989243e-26 1 -816340459283207e-29 -1 769400882874422e-26 .0034 0 31 188 167 0 24
 189 170 0 +-.1729034711374935 -.01924528556943485 -.1023505294148628 -348700208
9038075e-30 769400882874419e-26 1 -1632680918566405e-29 -1 769400882874419e-26 .
0034 0 16 24 22 0 ?190 10 183 188 0 0 1 0 31 189 159 0 152 25 188 0 +-.172903471
1374935 .045754714430394 -.124600529415363 -762290039275285e-29 769400882874423e
-26 1 -816340459283208e-29 -1 769400882874424e-26 .0034 0 16 152 12 0 ?191 169 1
23 189 0 0 1 0 31 25 154 0 10 0 189 0 +-.1729034711374935 .0457547144305652 -.10
2350529415363 648896214689618e-30 769400882874417e-26 1 -816340459283202e-29 -1
 769400882874418e-26 .0034 0 17 191 0 192 191 191 0 193 152 0 0 +0 15 192 98 0 1
91 161 0 0 17 193 0 194 193 193 0 191 152 0 0 -0 15 194 259 0 193 15 195 0 14 15
 5 196 ?197 0 194 5 6 -0 0 197 0 22 0 15 195 6 0 23 15 0 0 17 23 0 195 23 23 0 1
98 10 0 0 +0 17 198 0 199 198 198 0 23 10 0 0 -0 15 199 258 0 198 197 29 0 14 19
7 15 200 ?201 15 199 5 17 -0 0 201 15 22 0 15 29 16 0 26 197 0 0 81 1 200 491 20
2 197 203 0 196 204 205 0 14 201 20 204 ?206 197 207 5 208 -0 0 206 197 22 0 52
 17 251 0 197 208 6 0 +-.1729034711374935 .0457547144305809 -.1003076033106692 1
79052598743952e-58 -769402134596457e-26 -1 0 .857167300702113 .515038074910053 0
 -1 769402134596457e-26 0 13 22 3 0 0 0 0 0 0 9 15 0 51 208 250 0 201 209 17 0 +
-.1729034711374935 -.0192452855694263 -.1012380294148628 179052598743952e-58 -76
9402134596457e-26 -1 .0034 0 -1 769402134596457e-26 0 52 209 248 0 206 210 208 0
 +-.1729034711374935 -.01924528556941915 -.100307603310169 179052598743952e-58 -
769402134596457e-26 -1 0 .857167300702113 .515038074910053 0 -1 769402134596457e
-26 0 14 206 30 211 ?212 201 213 5 209 -0 0 212 201 22 0 51 210 247 0 212 214 20
9 0 +-.1729034711374935 -.0842452855694263 -.1012380294143626 179052598743952e-5
8 -769402134596457e-26 -1 .0034 0 -1 769402134596457e-26 0 14 212 35 215 ?216 20
6 217 5 210 -0 0 216 206 22 0 52 214 245 0 216 218 210 0 +-.1729034711374935 -.0
842452855694192 -.100307603309669 179052598743952e-58 -769402134596457e-26 -1 0
 .857167300702113 .515038074910053 0 -1 769402134596457e-26 0 14 216 45 219 ?176
 212 220 5 214 -0 0 176 212 22 0 51 218 244 0 89 221 214 0 +-.165600917943064 .2
2686814217034 -.0998763349608749 .000498381949262335 -.99999487405441 -.00316282
790206204 .003 -1125071512190524e-33 -.003162828294860935 .99999499824608 0 14 8
9 114 222 ?0 156 85 5 218 +0 0 0 156 22 0 50 221 243 0 156 223 218 0 +-.18290347
11374935 .0687547144303831 -.1260069283005416 -1 0 0 0 -1 769402134596457e-26 0
 14 156 112 224 ?89 182 155 5 221 +0 0 89 182 22 0 50 223 241 0 182 225 221 0 +-
.1626648165000465 -.107245285569411 -.0992359094819926 .987811605282502 11974971
29849566e-27 .155654208003532 .155654208003532 -760026085792366e-26 -.9878116052
82502 0 14 182 109 226 ?156 180 181 5 223 +0 0 156 180 22 0 51 225 239 0 180 227
 223 0 +-.158376636936084 .0947252899334046 -.1136005294157396 0 -1 769402134596
457e-26 .002 1 0 0 0 14 180 106 228 ?182 179 133 5 225 -0 0 182 179 22 0 50 227
 237 0 179 229 225 0 +-.157879812847564 -.107245285569537 -.1156005294141858 -17
9052598743952e-58 769402134596457e-26 1 0 1 -769402134596457e-26 0 14 179 103 23
0 ?180 174 178 5 227 +0 0 180 174 22 0 50 229 235 0 174 231 227 0 +-.15790347113
74935 -.1072452855696096 -.1250505294141858 1 0 0 0 1 -769402134596457e-26 0 14
 174 100 232 ?179 161 173 5 229 +0 0 179 161 22 0 50 231 229 0 161 233 229 0 +-.
1566534711374935 .0687547144303939 -.12460052941554 179052598743952e-58 -7694021
34596457e-26 -1 0 -1 769402134596457e-26 0 14 161 90 234 ?174 105 158 5 231 +0 0
 174 105 22 0 50 233 226 0 105 235 231 0 +-.1643980567489645 -.1073152491993206
 -.0979841803402064 .0531255712760653 -.00313188517669768 .998582928440013 .0037
657882994489 .999988599452266 .002935950268405175 0 14 105 86 236 ?161 97 98 5 2
33 +0 0 161 97 22 0 50 235 209 0 97 237 233 0 +-.1841534711374935 .0607547144306
212 -.0950661528304395 0 -1 769402134596457e-26 179052598743952e-58 -76940213459
6457e-26 -1 0 14 97 68 238 ?105 176 79 5 235 -0 0 105 176 22 0 50 237 192 0 176
 0 235 0 +-.1566534711374935 -.0992452855696167 -.1259818376625464 0 1 -76940213
4596457e-26 -1 0 0 0 14 176 50 239 ?97 216 164 5 237 -0 0 97 216 22 0 81 1 239 4
96 202 176 240 0 219 238 241 0 80 1 202 0 242 8001 0 0 0 0 3 5 0 0 FFFFTFTFFFFFF
F2 0 81 1 240 137 243 176 0 239 244 245 246 0 81 1 219 495 202 216 244 0 215 239
 247 0 81 1 238 497 202 97 245 0 239 236 248 0 83 3 241 .501960784313726 .501960
784313726 .501960784313726 0 81 1 245 138 243 97 0 238 240 249 250 0 81 1 236 49
8 202 105 249 0 238 234 251 0 83 3 248 .501960784313726 .501960784313726 .501960
784313726 0 81 1 249 139 243 105 0 236 245 252 253 0 81 1 234 499 202 161 252 0
 236 232 254 0 83 3 251 .501960784313726 .501960784313726 .501960784313726 0 81
 1 252 140 243 161 0 234 249 255 256 0 81 1 232 500 202 174 255 0 234 230 257 0
 83 3 254 .501960784313726 .501960784313726 .501960784313726 0 81 1 255 141 243
 174 0 232 252 258 259 0 81 1 230 501 202 179 258 0 232 228 260 0 83 3 257 .5019
60784313726 .501960784313726 .501960784313726 0 81 1 258 142 243 179 0 230 255 2
61 262 0 81 1 228 502 202 180 261 0 230 226 263 0 83 3 260 .501960784313726 .501
960784313726 .501960784313726 0 81 1 261 143 243 180 0 228 258 264 265 0 81 1 22
6 503 202 182 264 0 228 224 266 0 83 3 263 .501960784313726 .501960784313726 .50
1960784313726 0 81 1 264 144 243 182 0 226 261 267 268 0 81 1 224 504 202 156 26
7 0 226 222 269 0 83 3 266 .501960784313726 .501960784313726 .501960784313726 0
 81 1 267 145 243 156 0 224 264 270 271 0 81 1 222 505 202 89 270 0 224 0 272 0
 83 3 269 .501960784313726 .501960784313726 .501960784313726 0 81 1 270 146 243
 89 0 222 267 0 273 0 83 3 272 .501960784313726 .501960784313726 .50196078431372
6 0 80 1 243 274 275 9000 0 0 0 0 3 6 0 0 FFFFTFTFFFFFFF1 0 82 1 273 8 0 79 11 2
75 CNC/mcColor0 82 1 271 8 0 82 1 268 8 0 82 1 265 8 0 82 1 262 8 0 82 1 259 8 0
 82 1 256 8 0 82 1 253 8 0 82 1 250 8 0 81 1 244 136 243 216 0 219 276 240 277 0
 81 1 215 494 202 212 276 0 211 219 278 0 83 3 247 .501960784313726 .50196078431
3726 .501960784313726 0 81 1 276 135 243 212 0 215 279 244 280 0 81 1 211 493 20
2 206 279 0 204 215 281 0 83 3 278 .501960784313726 .501960784313726 .5019607843
13726 0 81 1 279 134 243 206 0 211 282 276 283 0 81 1 204 492 202 201 282 0 200
 211 284 0 83 3 281 .501960784313726 .501960784313726 .501960784313726 0 81 1 28
2 133 243 201 0 204 203 279 285 0 83 3 284 .501960784313726 .501960784313726 .50
1960784313726 0 81 1 203 132 243 197 0 200 286 282 287 0 82 1 285 8 0 81 1 286 1
31 243 15 0 196 0 203 288 0 82 1 287 8 0 81 1 196 490 202 15 286 0 0 200 289 0 8
2 1 288 8 0 83 3 289 .501960784313726 .501960784313726 .501960784313726 0 82 1 2
83 8 0 82 1 280 8 0 82 1 277 8 0 82 1 246 8 0 79 15 242 SDL/TYSA_COLOUR0 15 220
 254 0 290 216 291 0 17 290 0 220 290 290 0 184 183 0 0 -0 15 291 46 0 35 216 0
 0 17 35 0 291 35 35 31 0 0 0 0 ?0 17 184 0 292 184 184 0 290 183 0 0 +0 15 292
 36 0 184 212 0 0 15 217 255 0 293 212 292 0 17 293 0 217 293 293 0 187 169 0 0
 -0 17 187 0 294 187 187 0 293 169 0 0 +0 15 294 96 0 187 161 192 0 15 213 256 0
 295 206 296 0 17 295 0 213 295 295 0 190 24 0 0 -0 15 296 31 0 30 206 0 0 17 30
 0 296 30 30 27 0 0 0 0 ?0 17 190 0 297 190 190 0 295 24 0 0 +0 15 297 21 0 190
 201 0 0 15 207 257 0 298 201 297 0 17 298 0 207 298 298 0 168 166 0 0 -0 17 168
 0 162 168 168 0 298 166 0 0 +0 15 162 94 0 168 161 294 0 83 3 205 .501960784313
726 .501960784313726 .501960784313726 0 16 18 111 0 ?87 107 0 7 0 0 1 0 17 62 0
 79 68 66 41 93 142 0 134 -0 17 71 0 79 74 68 69 149 127 0 151 -0 17 151 0 173 1
22 159 69 74 123 0 175 +0 17 175 0 178 149 52 69 122 120 0 0 -0 19 16 1 0 1 0 9
 5 S0 74 20 14 3 0 270 222 2 0 0 0 0 0 0 0 0 0 0 0 0 0 0 0 0 0 0 80 1 12 299 300
 8017 0 0 0 0 0 0 0 0 TTTTTTTTTTTTTF3 0 84 55 13 <0100770102-OP30A-ELEMENT POINC
ON-A>-<Trou taraudé M81>0 79 13 300 SDL/TYSA_NAME0 1 0 
