  0
SECTION
  2
HEADER
  9
$ACADVER
  1
AC1015
  9
$ACADMAINTVER
 70
     6
  9
$DWGCODEPAGE
  3
ANSI_1252
  9
$INSBASE
 10
0.0
 20
0.0
 30
0.0
  9
$EXTMIN
 10
0.0
 20
0.0
 30
0.0
  9
$EXTMAX
 10
420.0
 20
297.0
 30
0.0
  9
$LIMMIN
 10
0.0
 20
0.0
  9
$LIMMAX
 10
420.0
 20
297.0
  9
$ORTHOMODE
 70
     0
  9
$REGENMODE
 70
     1
  9
$FILLMODE
 70
     1
  9
$QTEXTMODE
 70
     0
  9
$MIRRTEXT
 70
     1
  9
$LTSCALE
 40
1.0
  9
$ATTMODE
 70
     1
  9
$TEXTSIZE
 40
3.5
  9
$TRACEWID
 40
1.0
  9
$TEXTSTYLE
  7
Standard
  9
$CLAYER
  8
0
  9
$CELTYPE
  6
ByLayer
  9
$CECOLOR
 62
   256
  9
$CELTSCALE
 40
1.0
  9
$DISPSILH
 70
     0
  9
$DIMSCALE
 40
1.0
  9
$DIMASZ
 40
3.302
  9
$DIMEXO
 40
1.0
  9
$DIMDLI
 40
3.75
  9
$DIMRND
 40
0.0
  9
$DIMDLE
 40
0.0
  9
$DIMEXE
 40
1.0
  9
$DIMTP
 40
0.0
  9
$DIMTM
 40
0.0
  9
$DIMTXT
 40
3.5
  9
$DIMCEN
 40
2.5
  9
$DIMTSZ
 40
0.0
  9
$DIMTOL
 70
     0
  9
$DIMLIM
 70
     0
  9
$DIMTIH
 70
     1
  9
$DIMTOH
 70
     1
  9
$DIMSE1
 70
     0
  9
$DIMSE2
 70
     0
  9
$DIMTAD
 70
     1
  9
$DIMZIN
 70
     0
  9
$DIMBLK
  1

  9
$DIMASO
 70
     1
  9
$DIMSHO
 70
     1
  9
$DIMPOST
  1

  9
$DIMAPOST
  1

  9
$DIMALT
 70
     0
  9
$DIMALTD
 70
     3
  9
$DIMALTF
 40
0.0393700787
  9
$DIMLFAC
 40
1.0
  9
$DIMTOFL
 70
     1
  9
$DIMTVP
 40
0.0
  9
$DIMTIX
 70
     0
  9
$DIMSOXD
 70
     0
  9
$DIMSAH
 70
     0
  9
$DIMBLK1
  1

  9
$DIMBLK2
  1

  9
$DIMSTYLE
  2
ISO-25
  9
$DIMCLRD
 70
     0
  9
$DIMCLRE
 70
     0
  9
$DIMCLRT
 70
     0
  9
$DIMTFAC
 40
1.0
  9
$DIMGAP
 40
1.524
  9
$DIMJUST
 70
     0
  9
$DIMSD1
 70
     0
  9
$DIMSD2
 70
     0
  9
$DIMTOLJ
 70
     0
  9
$DIMTZIN
 70
     0
  9
$DIMALTZ
 70
     0
  9
$DIMALTTZ
 70
     0
  9
$DIMUPT
 70
     0
  9
$DIMDEC
 70
     2
  9
$DIMTDEC
 70
     2
  9
$DIMALTU
 70
     2
  9
$DIMALTTD
 70
     3
  9
$DIMTXSTY
  7
Standard
  9
$DIMAUNIT
 70
     0
  9
$DIMADEC
 70
     2
  9
$DIMALTRND
 40
0.0
  9
$DIMAZIN
 70
     0
  9
$DIMDSEP
 70
    44
  9
$DIMATFIT
 70
     3
  9
$DIMFRAC
 70
     0
  9
$DIMLDRBLK
  1

  9
$DIMLUNIT
 70
     2
  9
$DIMLWD
 70
    -2
  9
$DIMLWE
 70
    -2
  9
$DIMTMOVE
 70
     0
  9
$LUNITS
 70
     2
  9
$LUPREC
 70
     2
  9
$SKETCHINC
 40
1.0
  9
$FILLETRAD
 40
10.0
  9
$AUNITS
 70
     0
  9
$AUPREC
 70
     2
  9
$MENU
  1
.
  9
$ELEVATION
 40
0.0
  9
$PELEVATION
 40
0.0
  9
$THICKNESS
 40
0.0
  9
$LIMCHECK
 70
     0
  9
$CHAMFERA
 40
0.0
  9
$CHAMFERB
 40
0.0
  9
$CHAMFERC
 40
0.0
  9
$CHAMFERD
 40
0.0
  9
$SKPOLY
 70
     0
  9
$TDCREATE
 40
2458222.561674792
  9
$TDUCREATE
 40
2458222.478341458
  9
$TDUPDATE
 40
2458222.561678576
  9
$TDUUPDATE
 40
2458222.478345243
  9
$TDINDWG
 40
0.0000000116
  9
$TDUSRTIMER
 40
0.0000000116
  9
$USRTIMER
 70
     1
  9
$ANGBASE
 50
0.0
  9
$ANGDIR
 70
     0
  9
$PDMODE
 70
     0
  9
$PDSIZE
 40
-1.0
  9
$PLINEWID
 40
0.0
  9
$SPLFRAME
 70
     0
  9
$SPLINETYPE
 70
     6
  9
$SPLINESEGS
 70
     8
  9
$HANDSEED
  5
405
  9
$SURFTAB1
 70
     6
  9
$SURFTAB2
 70
     6
  9
$SURFTYPE
 70
     6
  9
$SURFU
 70
     6
  9
$SURFV
 70
     6
  9
$UCSBASE
  2

  9
$UCSNAME
  2

  9
$UCSORG
 10
0.0
 20
0.0
 30
0.0
  9
$UCSXDIR
 10
1.0
 20
0.0
 30
0.0
  9
$UCSYDIR
 10
0.0
 20
1.0
 30
0.0
  9
$UCSORTHOREF
  2

  9
$UCSORTHOVIEW
 70
     0
  9
$UCSORGTOP
 10
0.0
 20
0.0
 30
0.0
  9
$UCSORGBOTTOM
 10
0.0
 20
0.0
 30
0.0
  9
$UCSORGLEFT
 10
0.0
 20
0.0
 30
0.0
  9
$UCSORGRIGHT
 10
0.0
 20
0.0
 30
0.0
  9
$UCSORGFRONT
 10
0.0
 20
0.0
 30
0.0
  9
$UCSORGBACK
 10
0.0
 20
0.0
 30
0.0
  9
$PUCSBASE
  2

  9
$PUCSNAME
  2

  9
$PUCSORG
 10
0.0
 20
0.0
 30
0.0
  9
$PUCSXDIR
 10
1.0
 20
0.0
 30
0.0
  9
$PUCSYDIR
 10
0.0
 20
1.0
 30
0.0
  9
$PUCSORTHOREF
  2

  9
$PUCSORTHOVIEW
 70
     0
  9
$PUCSORGTOP
 10
0.0
 20
0.0
 30
0.0
  9
$PUCSORGBOTTOM
 10
0.0
 20
0.0
 30
0.0
  9
$PUCSORGLEFT
 10
0.0
 20
0.0
 30
0.0
  9
$PUCSORGRIGHT
 10
0.0
 20
0.0
 30
0.0
  9
$PUCSORGFRONT
 10
0.0
 20
0.0
 30
0.0
  9
$PUCSORGBACK
 10
0.0
 20
0.0
 30
0.0
  9
$USERI1
 70
     0
  9
$USERI2
 70
     0
  9
$USERI3
 70
     0
  9
$USERI4
 70
     0
  9
$USERI5
 70
     0
  9
$USERR1
 40
0.0
  9
$USERR2
 40
0.0
  9
$USERR3
 40
0.0
  9
$USERR4
 40
0.0
  9
$USERR5
 40
0.0
  9
$WORLDVIEW
 70
     1
  9
$SHADEDGE
 70
     3
  9
$SHADEDIF
 70
    70
  9
$TILEMODE
 70
     1
  9
$MAXACTVP
 70
    64
  9
$PINSBASE
 10
0.0
 20
0.0
 30
0.0
  9
$PLIMCHECK
 70
     0
  9
$PEXTMIN
 10
1.0000000000E+20
 20
1.0000000000E+20
 30
1.0000000000E+20
  9
$PEXTMAX
 10
-1.0000000000E+20
 20
-1.0000000000E+20
 30
-1.0000000000E+20
  9
$PLIMMIN
 10
0.0
 20
0.0
  9
$PLIMMAX
 10
420.0
 20
297.0
  9
$UNITMODE
 70
     0
  9
$VISRETAIN
 70
     1
  9
$PLINEGEN
 70
     0
  9
$PSLTSCALE
 70
     1
  9
$TREEDEPTH
 70
  3020
  9
$CMLSTYLE
  2
Standard
  9
$CMLJUST
 70
     0
  9
$CMLSCALE
 40
20.0
  9
$PROXYGRAPHICS
 70
     1
  9
$MEASUREMENT
 70
     1
  9
$CELWEIGHT
370
    -1
  9
$ENDCAPS
280
     0
  9
$JOINSTYLE
280
     0
  9
$LWDISPLAY
290
     1
  9
$INSUNITS
 70
     4
  9
$HYPERLINKBASE
  1

  9
$STYLESHEET
  1

  9
$XEDIT
290
     1
  9
$CEPSNTYPE
380
     0
  9
$PSTYLEMODE
290
     1
  9
$FINGERPRINTGUID
  2
{6A2C42E9-9118-4999-B751-242F1F44E731}
  9
$VERSIONGUID
  2
{FAEB1C32-E019-11D5-929B-00C0DF256EC4}
  9
$EXTNAMES
290
     1
  9
$PSVPSCALE
 40
0.0
  9
$OLESTARTUP
290
     0
  0
ENDSEC
  0
SECTION
  2
CLASSES
  0
CLASS
  1
ACDBDICTIONARYWDFLT
  2
AcDbDictionaryWithDefault
  3
ObjectDBX Classes
 90
        0
280
     0
281
     0
  0
CLASS
  1
VISUALSTYLE
  2
AcDbVisualStyle
  3
ObjectDBX Classes
 90
     4095
280
     0
281
     0
  0
CLASS
  1
MATERIAL
  2
AcDbMaterial
  3
ObjectDBX Classes
 90
     1153
280
     0
281
     0
  0
CLASS
  1
SCALE
  2
AcDbScale
  3
ObjectDBX Classes
 90
     1153
280
     0
281
     0
  0
CLASS
  1
TABLESTYLE
  2
AcDbTableStyle
  3
ObjectDBX Classes
 90
     4095
280
     0
281
     0
  0
CLASS
  1
MLEADERSTYLE
  2
AcDbMLeaderStyle
  3
ACDB_MLEADERSTYLE_CLASS
 90
     4095
280
     0
281
     0
  0
CLASS
  1
SUN
  2
AcDbSun
  3
SCENEOE
 90
     1153
280
     0
281
     0
  0
CLASS
  1
ACDBPLACEHOLDER
  2
AcDbPlaceHolder
  3
ObjectDBX Classes
 90
        0
280
     0
281
     0
  0
CLASS
  1
LAYOUT
  2
AcDbLayout
  3
ObjectDBX Classes
 90
        0
280
     0
281
     0
  0
ENDSEC
  0
SECTION
  2
TABLES
  0
TABLE
  2
VPORT
  5
8
330
0
100
AcDbSymbolTable
 70
     1
  0
VPORT
  5
29
330
8
100
AcDbSymbolTableRecord
100
AcDbViewportTableRecord
  2
*Active
 70
     0
 10
0.0
 20
0.0
 11
1.0
 21
1.0
 12
210.0
 22
148.5
 13
0.0
 23
0.0
 14
10.0
 24
10.0
 15
10.0
 25
10.0
 16
0.0
 26
0.0
 36
1.0
 17
0.0
 27
0.0
 37
0.0
 40
297.0
 41
1.4141414141
 42
50.0
 43
0.0
 44
0.0
 50
0.0
 51
0.0
 71
     0
 72
  2000
 73
     1
 74
     3
 75
     0
 76
     0
 77
     0
 78
     0
281
     0
 65
     1
110
0.0
120
0.0
130
0.0
111
1.0
121
0.0
131
0.0
112
0.0
122
1.0
132
0.0
 79
     0
146
0.0
  0
ENDTAB
  0
TABLE
  2
LTYPE
  5
5
330
0
100
AcDbSymbolTable
 70
     6
  0
LTYPE
  5
14
330
5
100
AcDbSymbolTableRecord
100
AcDbLinetypeTableRecord
  2
ByBlock
 70
     0
  3

 72
    65
 73
     0
 40
0.0
  0
LTYPE
  5
15
330
5
100
AcDbSymbolTableRecord
100
AcDbLinetypeTableRecord
  2
ByLayer
 70
     0
  3

 72
    65
 73
     0
 40
0.0
  0
LTYPE
  5
16
330
5
100
AcDbSymbolTableRecord
100
AcDbLinetypeTableRecord
  2
Continuous
 70
     0
  3
Solid line
 72
    65
 73
     0
 40
0.0
  0
LTYPE
  5
6E
330
5
100
AcDbSymbolTableRecord
100
AcDbLinetypeTableRecord
  2
HIDDEN
 70
     0
  3
Hidden __ __ __ __ __ __ __ __ __ __ __ __ __ __
 72
    65
 73
     2
 40
1.905
 49
1.27
 74
     0
 49
-0.635
 74
     0
  0
LTYPE
  5
6F
330
5
100
AcDbSymbolTableRecord
100
AcDbLinetypeTableRecord
  2
PHANTOM
 70
     0
  3
Phantom ______  __  __  ______  __  __  ______
 72
    65
 73
     6
 40
12.7
 49
6.35
 74
     0
 49
-1.27
 74
     0
 49
1.27
 74
     0
 49
-1.27
 74
     0
 49
1.27
 74
     0
 49
-1.27
 74
     0
  0
LTYPE
  5
70
330
5
100
AcDbSymbolTableRecord
100
AcDbLinetypeTableRecord
  2
CENTER
 70
     0
  3
Center ____ _ ____ _ ____ _ ____ _ ____ _ ____
 72
    65
 73
     4
 40
10.16
 49
6.35
 74
     0
 49
-1.27
 74
     0
 49
1.27
 74
     0
 49
-1.27
 74
     0
  0
LTYPE
  5
71
330
5
100
AcDbSymbolTableRecord
100
AcDbLinetypeTableRecord
  2
CENTERX2
 70
     0
  3
Center (2x) ________  __  ________  __  _____
 72
    65
 73
     4
 40
20.32
 49
12.7
 74
     0
 49
-2.54
 74
     0
 49
2.54
 74
     0
 49
-2.54
 74
     0
  0
LTYPE
  5
72
330
5
100
AcDbSymbolTableRecord
100
AcDbLinetypeTableRecord
  2
DOT2
 70
     0
  3
Dot (.5x) ........................................
 72
    65
 73
     2
 40
0.635
 49
0.0
 74
     0
 49
-0.635
 74
     0
  0
ENDTAB
  0
TABLE
  2
LAYER
  5
2
330
0
100
AcDbSymbolTable
 70
     3
  0
LAYER
  5
10
330
2
100
AcDbSymbolTableRecord
100
AcDbLayerTableRecord
  2
0
 70
     0
 62
     7
  6
Continuous
370
    -3
390
F
  0
LAYER
  5
73
330
2
100
AcDbSymbolTableRecord
100
AcDbLayerTableRecord
  2
FORMAT
 70
     0
 62
     7
  6
Continuous
370
    -3
390
F
  0
LAYER
  5
74
330
2
100
AcDbSymbolTableRecord
100
AcDbLayerTableRecord
  2
DIMENSIONS
 70
     0
 62
   176
  6
Continuous
370
    -3
390
F
  0
ENDTAB
  0
TABLE
  2
STYLE
  5
3
330
0
100
AcDbSymbolTable
 70
    15
  0
STYLE
  5
11
330
3
100
AcDbSymbolTableRecord
100
AcDbTextStyleTableRecord
  2
Standard
 70
     0
 40
0.0
 41
1.0
 50
0.0
 71
     0
 42
3.5
  3
txt
  4

  0
STYLE
  5
CF
330
3
100
AcDbSymbolTableRecord
100
AcDbTextStyleTableRecord
  2
SLDTEXTSTYLE0
 70
     0
 40
0.0
 41
0.75
 50
0.0
 71
     0
 42
3.5
  3
TXT
  4

  0
STYLE
  5
FF
330
3
100
AcDbSymbolTableRecord
100
AcDbTextStyleTableRecord
  2
SLDTEXTSTYLE1
 70
     0
 40
0.0
 41
1.0
 50
0.0
 71
     0
 42
3.5
  3
ISOCP
  4

  0
STYLE
  5
102
330
3
100
AcDbSymbolTableRecord
100
AcDbTextStyleTableRecord
  2
SLDTEXTSTYLE2
 70
     0
 40
0.0
 41
0.8
 50
0.0
 71
     0
 42
3.5
  3
ROMANT
  4

  0
STYLE
  5
104
330
3
100
AcDbSymbolTableRecord
100
AcDbTextStyleTableRecord
  2
SLDTEXTSTYLE3
 70
     0
 40
0.0
 41
0.8
 50
0.0
 71
     0
 42
3.5
  3
ISOCP
  4

  0
STYLE
  5
107
330
3
100
AcDbSymbolTableRecord
100
AcDbTextStyleTableRecord
  2
SLDTEXTSTYLE4
 70
     0
 40
0.0
 41
0.8
 50
0.0
 71
     0
 42
3.5
  3
ROMANS
  4

  0
STYLE
  5
10A
330
3
100
AcDbSymbolTableRecord
100
AcDbTextStyleTableRecord
  2
SLDTEXTSTYLE5
 70
     0
 40
0.0
 41
1.0
 50
0.0
 71
     0
 42
3.5
  3
ROMANT
  4

  0
STYLE
  5
10E
330
3
100
AcDbSymbolTableRecord
100
AcDbTextStyleTableRecord
  2
SLDTEXTSTYLE6
 70
     0
 40
0.0
 41
1.0
 50
0.0
 71
     0
 42
3.5
  3
ROMANS
  4

  0
STYLE
  5
110
330
3
100
AcDbSymbolTableRecord
100
AcDbTextStyleTableRecord
  2
SLDTEXTSTYLE7
 70
     0
 40
0.0
 41
0.65
 50
0.0
 71
     0
 42
3.5
  3
ROMANT
  4

  0
STYLE
  5
113
330
3
100
AcDbSymbolTableRecord
100
AcDbTextStyleTableRecord
  2
SLDTEXTSTYLE8
 70
     0
 40
0.0
 41
1.4461573214
 50
0.0
 71
     0
 42
3.5
  3
ISOCP
  4

  0
STYLE
  5
115
330
3
100
AcDbSymbolTableRecord
100
AcDbTextStyleTableRecord
  2
SLDTEXTSTYLE9
 70
     0
 40
0.0
 41
1.2944018369
 50
0.0
 71
     0
 42
3.5
  3
ISOCP
  4

  0
STYLE
  5
117
330
3
100
AcDbSymbolTableRecord
100
AcDbTextStyleTableRecord
  2
SLDTEXTSTYLE10
 70
     0
 40
0.0
 41
1.1473107191
 50
0.0
 71
     0
 42
3.5
  3
ISOCP
  4

  0
STYLE
  5
119
330
3
100
AcDbSymbolTableRecord
100
AcDbTextStyleTableRecord
  2
SLDTEXTSTYLE11
 70
     0
 40
0.0
 41
1.385903689
 50
0.0
 71
     0
 42
3.5
  3
ISOCP
  4

  0
STYLE
  5
120
330
3
100
AcDbSymbolTableRecord
100
AcDbTextStyleTableRecord
  2
SLDTEXTSTYLE12
 70
     0
 40
0.0
 41
1.2464610281
 50
0.0
 71
     0
 42
3.5
  3
ISOCP
  4

  0
STYLE
  5
123
330
3
100
AcDbSymbolTableRecord
100
AcDbTextStyleTableRecord
  2
SLDTEXTSTYLE13
 70
     0
 40
0.0
 41
1.0
 50
0.0
 71
     0
 42
3.5
  3
ROMAND
  4

  0
ENDTAB
  0
TABLE
  2
VIEW
  5
6
330
0
100
AcDbSymbolTable
 70
     0
  0
ENDTAB
  0
TABLE
  2
UCS
  5
7
330
0
100
AcDbSymbolTable
 70
     0
  0
ENDTAB
  0
TABLE
  2
APPID
  5
9
330
0
100
AcDbSymbolTable
 70
     1
  0
APPID
  5
12
330
9
100
AcDbSymbolTableRecord
100
AcDbRegAppTableRecord
  2
ACAD
 70
     0
  0
ENDTAB
  0
TABLE
  2
DIMSTYLE
  5
A
330
0
100
AcDbSymbolTable
 70
     4
100
AcDbDimStyleTable
  0
DIMSTYLE
105
27
330
A
100
AcDbSymbolTableRecord
100
AcDbDimStyleTableRecord
  2
ISO-25
 70
     0
 41
2.5
 42
0.625
 43
3.75
 44
1.25
 73
     0
 74
     0
 77
     1
 78
     8
140
2.5
141
2.5
143
0.0393700787
147
0.625
171
     3
172
     1
178
     0
271
     2
272
     2
274
     3
278
    44
283
     0
284
     8
340
11
  0
DIMSTYLE
105
133
102
{ACAD_REACTORS
330
132
330
13F
330
156
330
1D0
330
1E9
330
1F6
330
23D
330
247
330
251
330
25D
330
2BC
330
2CA
330
2FA
330
306
330
312
330
31E
330
32A
330
3A3
330
3BB
330
3C9
330
3F3
102
}
330
A
100
AcDbSymbolTableRecord
100
AcDbDimStyleTableRecord
  2
SLDDIMSTYLE0
 70
     0
 41
3.302
 44
0.0
 45
0.000000001
 73
     0
 74
     0
 77
     1
 78
    12
 79
     3
140
3.5
147
0.875
172
     1
173
     1
178
     0
271
     2
272
     2
276
     2
284
    12
289
     0
340
CF
  0
DIMSTYLE
105
14C
102
{ACAD_REACTORS
330
14B
330
162
330
16C
330
204
330
21D
330
227
330
232
330
2E2
330
334
330
33E
330
3D6
102
}
330
A
100
AcDbSymbolTableRecord
100
AcDbDimStyleTableRecord
  2
SLDDIMSTYLE1
 70
     0
 41
3.302
 44
0.0
 45
0.000000001
 73
     0
 74
     0
 77
     1
 78
    12
 79
     3
140
3.5
147
0.875
173
     1
178
     0
271
     2
272
     2
276
     2
284
    12
340
CF
  0
DIMSTYLE
105
1DD
102
{ACAD_REACTORS
330
1DC
330
2D6
330
3AF
102
}
330
A
100
AcDbSymbolTableRecord
100
AcDbDimStyleTableRecord
  2
SLDDIMSTYLE2
 70
     0
 41
3.302
 44
0.0
 73
     0
 74
     0
 77
     1
 78
    12
 79
     3
140
3.5
147
0.875
173
     1
178
     0
179
     2
272
     2
276
     2
284
    12
340
CF
  0
ENDTAB
  0
TABLE
  2
BLOCK_RECORD
  5
1
330
0
100
AcDbSymbolTable
 70
    57
  0
BLOCK_RECORD
  5
1F
330
1
100
AcDbSymbolTableRecord
100
AcDbBlockTableRecord
  2
*Model_Space
340
22
  0
BLOCK_RECORD
  5
1B
330
1
100
AcDbSymbolTableRecord
100
AcDbBlockTableRecord
  2
*Paper_Space
340
1E
  0
BLOCK_RECORD
  5
23
330
1
100
AcDbSymbolTableRecord
100
AcDbBlockTableRecord
  2
*Paper_Space0
340
26
  0
BLOCK_RECORD
  5
D1
330
1
100
AcDbSymbolTableRecord
100
AcDbBlockTableRecord
  2
SW_NOTE_0
340
0
102
{BLKREFS
331
D6
102
}
  0
BLOCK_RECORD
  5
D7
330
1
100
AcDbSymbolTableRecord
100
AcDbBlockTableRecord
  2
SW_NOTE_1
340
0
102
{BLKREFS
331
DC
102
}
  0
BLOCK_RECORD
  5
DD
330
1
100
AcDbSymbolTableRecord
100
AcDbBlockTableRecord
  2
SW_NOTE_2
340
0
102
{BLKREFS
331
E2
102
}
  0
BLOCK_RECORD
  5
134
330
1
100
AcDbSymbolTableRecord
100
AcDbBlockTableRecord
  2
_D
340
0
  0
BLOCK_RECORD
  5
140
330
1
100
AcDbSymbolTableRecord
100
AcDbBlockTableRecord
  2
_D_1
340
0
  0
BLOCK_RECORD
  5
14D
330
1
100
AcDbSymbolTableRecord
100
AcDbBlockTableRecord
  2
_D_2
340
0
  0
BLOCK_RECORD
  5
157
330
1
100
AcDbSymbolTableRecord
100
AcDbBlockTableRecord
  2
_D_3
340
0
  0
BLOCK_RECORD
  5
163
330
1
100
AcDbSymbolTableRecord
100
AcDbBlockTableRecord
  2
_D_4
340
0
  0
BLOCK_RECORD
  5
16D
330
1
100
AcDbSymbolTableRecord
100
AcDbBlockTableRecord
  2
_D_5
340
0
  0
BLOCK_RECORD
  5
176
330
1
100
AcDbSymbolTableRecord
100
AcDbBlockTableRecord
  2
SW_CENTERMARKSYMBOL_0
340
0
102
{BLKREFS
331
181
102
}
  0
BLOCK_RECORD
  5
182
330
1
100
AcDbSymbolTableRecord
100
AcDbBlockTableRecord
  2
SW_CENTERMARKSYMBOL_1
340
0
102
{BLKREFS
331
18D
102
}
  0
BLOCK_RECORD
  5
18E
330
1
100
AcDbSymbolTableRecord
100
AcDbBlockTableRecord
  2
SW_CENTERMARKSYMBOL_2
340
0
102
{BLKREFS
331
199
102
}
  0
BLOCK_RECORD
  5
19A
330
1
100
AcDbSymbolTableRecord
100
AcDbBlockTableRecord
  2
SW_CENTERMARKSYMBOL_3
340
0
102
{BLKREFS
331
1A5
102
}
  0
BLOCK_RECORD
  5
1AE
330
1
100
AcDbSymbolTableRecord
100
AcDbBlockTableRecord
  2
SW_DOWELSYMBOL_0
340
0
102
{BLKREFS
331
1B4
102
}
  0
BLOCK_RECORD
  5
1B5
330
1
100
AcDbSymbolTableRecord
100
AcDbBlockTableRecord
  2
SW_DOWELSYMBOL_1
340
0
102
{BLKREFS
331
1BB
102
}
  0
BLOCK_RECORD
  5
1D1
330
1
100
AcDbSymbolTableRecord
100
AcDbBlockTableRecord
  2
_D_6
340
0
  0
BLOCK_RECORD
  5
1DE
330
1
100
AcDbSymbolTableRecord
100
AcDbBlockTableRecord
  2
_D_7
340
0
  0
BLOCK_RECORD
  5
1EA
330
1
100
AcDbSymbolTableRecord
100
AcDbBlockTableRecord
  2
_D_8
340
0
  0
BLOCK_RECORD
  5
1F7
330
1
100
AcDbSymbolTableRecord
100
AcDbBlockTableRecord
  2
_D_9
340
0
  0
BLOCK_RECORD
  5
205
330
1
100
AcDbSymbolTableRecord
100
AcDbBlockTableRecord
  2
_D_10
340
0
  0
BLOCK_RECORD
  5
21E
330
1
100
AcDbSymbolTableRecord
100
AcDbBlockTableRecord
  2
_D_11
340
0
  0
BLOCK_RECORD
  5
228
330
1
100
AcDbSymbolTableRecord
100
AcDbBlockTableRecord
  2
_D_12
340
0
  0
BLOCK_RECORD
  5
233
330
1
100
AcDbSymbolTableRecord
100
AcDbBlockTableRecord
  2
_D_13
340
0
  0
BLOCK_RECORD
  5
23E
330
1
100
AcDbSymbolTableRecord
100
AcDbBlockTableRecord
  2
_D_14
340
0
  0
BLOCK_RECORD
  5
248
330
1
100
AcDbSymbolTableRecord
100
AcDbBlockTableRecord
  2
_D_15
340
0
  0
BLOCK_RECORD
  5
252
330
1
100
AcDbSymbolTableRecord
100
AcDbBlockTableRecord
  2
_D_16
340
0
  0
BLOCK_RECORD
  5
25E
330
1
100
AcDbSymbolTableRecord
100
AcDbBlockTableRecord
  2
_D_17
340
0
  0
BLOCK_RECORD
  5
267
330
1
100
AcDbSymbolTableRecord
100
AcDbBlockTableRecord
  2
SW_CENTERMARKSYMBOL_4
340
0
102
{BLKREFS
331
272
102
}
  0
BLOCK_RECORD
  5
273
330
1
100
AcDbSymbolTableRecord
100
AcDbBlockTableRecord
  2
SW_CENTERMARKSYMBOL_5
340
0
102
{BLKREFS
331
27E
102
}
  0
BLOCK_RECORD
  5
27F
330
1
100
AcDbSymbolTableRecord
100
AcDbBlockTableRecord
  2
SW_CENTERMARKSYMBOL_6
340
0
102
{BLKREFS
331
28A
102
}
  0
BLOCK_RECORD
  5
28B
330
1
100
AcDbSymbolTableRecord
100
AcDbBlockTableRecord
  2
SW_CENTERMARKSYMBOL_7
340
0
102
{BLKREFS
331
296
102
}
  0
BLOCK_RECORD
  5
29F
330
1
100
AcDbSymbolTableRecord
100
AcDbBlockTableRecord
  2
SW_DOWELSYMBOL_2
340
0
102
{BLKREFS
331
2A5
102
}
  0
BLOCK_RECORD
  5
2A6
330
1
100
AcDbSymbolTableRecord
100
AcDbBlockTableRecord
  2
SW_DOWELSYMBOL_3
340
0
102
{BLKREFS
331
2AC
102
}
  0
BLOCK_RECORD
  5
2BD
330
1
100
AcDbSymbolTableRecord
100
AcDbBlockTableRecord
  2
_D_18
340
0
  0
BLOCK_RECORD
  5
2CB
330
1
100
AcDbSymbolTableRecord
100
AcDbBlockTableRecord
  2
_D_19
340
0
  0
BLOCK_RECORD
  5
2D7
330
1
100
AcDbSymbolTableRecord
100
AcDbBlockTableRecord
  2
_D_20
340
0
  0
BLOCK_RECORD
  5
2E3
330
1
100
AcDbSymbolTableRecord
100
AcDbBlockTableRecord
  2
_D_21
340
0
  0
BLOCK_RECORD
  5
2FB
330
1
100
AcDbSymbolTableRecord
100
AcDbBlockTableRecord
  2
_D_22
340
0
  0
BLOCK_RECORD
  5
307
330
1
100
AcDbSymbolTableRecord
100
AcDbBlockTableRecord
  2
_D_23
340
0
  0
BLOCK_RECORD
  5
313
330
1
100
AcDbSymbolTableRecord
100
AcDbBlockTableRecord
  2
_D_24
340
0
  0
BLOCK_RECORD
  5
31F
330
1
100
AcDbSymbolTableRecord
100
AcDbBlockTableRecord
  2
_D_25
340
0
  0
BLOCK_RECORD
  5
32B
330
1
100
AcDbSymbolTableRecord
100
AcDbBlockTableRecord
  2
_D_26
340
0
  0
BLOCK_RECORD
  5
335
330
1
100
AcDbSymbolTableRecord
100
AcDbBlockTableRecord
  2
_D_27
340
0
  0
BLOCK_RECORD
  5
33F
330
1
100
AcDbSymbolTableRecord
100
AcDbBlockTableRecord
  2
_D_28
340
0
  0
BLOCK_RECORD
  5
348
330
1
100
AcDbSymbolTableRecord
100
AcDbBlockTableRecord
  2
SW_CENTERMARKSYMBOL_8
340
0
102
{BLKREFS
331
353
102
}
  0
BLOCK_RECORD
  5
354
330
1
100
AcDbSymbolTableRecord
100
AcDbBlockTableRecord
  2
SW_CENTERMARKSYMBOL_9
340
0
102
{BLKREFS
331
35F
102
}
  0
BLOCK_RECORD
  5
360
330
1
100
AcDbSymbolTableRecord
100
AcDbBlockTableRecord
  2
SW_CENTERMARKSYMBOL_10
340
0
102
{BLKREFS
331
36B
102
}
  0
BLOCK_RECORD
  5
36C
330
1
100
AcDbSymbolTableRecord
100
AcDbBlockTableRecord
  2
SW_CENTERMARKSYMBOL_11
340
0
102
{BLKREFS
331
377
102
}
  0
BLOCK_RECORD
  5
381
330
1
100
AcDbSymbolTableRecord
100
AcDbBlockTableRecord
  2
SW_DOWELSYMBOL_4
340
0
102
{BLKREFS
331
387
102
}
  0
BLOCK_RECORD
  5
388
330
1
100
AcDbSymbolTableRecord
100
AcDbBlockTableRecord
  2
SW_DOWELSYMBOL_5
340
0
102
{BLKREFS
331
38E
102
}
  0
BLOCK_RECORD
  5
3A4
330
1
100
AcDbSymbolTableRecord
100
AcDbBlockTableRecord
  2
_D_29
340
0
  0
BLOCK_RECORD
  5
3B0
330
1
100
AcDbSymbolTableRecord
100
AcDbBlockTableRecord
  2
_D_30
340
0
  0
BLOCK_RECORD
  5
3BC
330
1
100
AcDbSymbolTableRecord
100
AcDbBlockTableRecord
  2
_D_31
340
0
  0
BLOCK_RECORD
  5
3CA
330
1
100
AcDbSymbolTableRecord
100
AcDbBlockTableRecord
  2
_D_32
340
0
  0
BLOCK_RECORD
  5
3D7
330
1
100
AcDbSymbolTableRecord
100
AcDbBlockTableRecord
  2
_D_33
340
0
  0
BLOCK_RECORD
  5
3F4
330
1
100
AcDbSymbolTableRecord
100
AcDbBlockTableRecord
  2
_D_34
340
0
  0
ENDTAB
  0
ENDSEC
  0
SECTION
  2
BLOCKS
  0
BLOCK
  5
20
330
1F
100
AcDbEntity
  8
0
100
AcDbBlockBegin
  2
*Model_Space
 70
     0
 10
0.0
 20
0.0
 30
0.0
  3
*Model_Space
  1

  0
ENDBLK
  5
21
330
1F
100
AcDbEntity
  8
0
100
AcDbBlockEnd
  0
BLOCK
  5
1C
330
1B
100
AcDbEntity
 67
     1
  8
0
100
AcDbBlockBegin
  2
*Paper_Space
 70
     0
 10
0.0
 20
0.0
 30
0.0
  3
*Paper_Space
  1

  0
ENDBLK
  5
1D
330
1B
100
AcDbEntity
 67
     1
  8
0
100
AcDbBlockEnd
  0
BLOCK
  5
24
330
23
100
AcDbEntity
  8
0
100
AcDbBlockBegin
  2
*Paper_Space0
 70
     0
 10
0.0
 20
0.0
 30
0.0
  3
*Paper_Space0
  1

  0
ENDBLK
  5
25
330
23
100
AcDbEntity
  8
0
100
AcDbBlockEnd
  0
BLOCK
  5
D2
330
D1
100
AcDbEntity
  8
0
100
AcDbBlockBegin
  2
SW_NOTE_0
 70
     0
 10
0.0
 20
0.0
 30
0.0
  3
SW_NOTE_0
  1

  0
MTEXT
  5
D4
330
D1
100
AcDbEntity
  8
0
  6
Continuous
 62
     0
370
     0
100
AcDbMText
 10
0.0
 20
6.1391851107
 30
0.0
 40
4.7625
 41
0.0
 71
     1
 72
     1
  1
Rep: 21
  7
SLDTEXTSTYLE0
 73
     1
 44
1.0
  0
MTEXT
  5
D5
330
D1
100
AcDbEntity
  8
0
  6
Continuous
 62
     0
370
     0
100
AcDbMText
 10
0.0
 20
-1.2108149765
 30
0.0
 40
4.7625
 41
0.0
 71
     1
 72
     1
  1
Nombre: 1
  7
SLDTEXTSTYLE0
 73
     1
 44
1.0
  0
ENDBLK
  5
D3
330
D1
100
AcDbEntity
  8
0
100
AcDbBlockEnd
  0
BLOCK
  5
D8
330
D7
100
AcDbEntity
  8
0
100
AcDbBlockBegin
  2
SW_NOTE_1
 70
     0
 10
0.0
 20
0.0
 30
0.0
  3
SW_NOTE_1
  1

  0
MTEXT
  5
DA
330
D7
100
AcDbEntity
  8
0
  6
Continuous
 62
     0
370
     0
100
AcDbMText
 10
0.0
 20
6.1391851107
 30
0.0
 40
4.7625
 41
0.0
 71
     1
 72
     1
  1
Rep: 22
  7
SLDTEXTSTYLE0
 73
     1
 44
1.0
  0
MTEXT
  5
DB
330
D7
100
AcDbEntity
  8
0
  6
Continuous
 62
     0
370
     0
100
AcDbMText
 10
0.0
 20
-1.2108149765
 30
0.0
 40
4.7625
 41
0.0
 71
     1
 72
     1
  1
Nombre: 1
  7
SLDTEXTSTYLE0
 73
     1
 44
1.0
  0
ENDBLK
  5
D9
330
D7
100
AcDbEntity
  8
0
100
AcDbBlockEnd
  0
BLOCK
  5
DE
330
DD
100
AcDbEntity
  8
0
100
AcDbBlockBegin
  2
SW_NOTE_2
 70
     0
 10
0.0
 20
0.0
 30
0.0
  3
SW_NOTE_2
  1

  0
MTEXT
  5
E0
330
DD
100
AcDbEntity
  8
0
  6
Continuous
 62
     0
370
     0
100
AcDbMText
 10
0.0
 20
6.1391851107
 30
0.0
 40
4.7625
 41
0.0
 71
     1
 72
     1
  1
Rep: 29
  7
SLDTEXTSTYLE0
 73
     1
 44
1.0
  0
MTEXT
  5
E1
330
DD
100
AcDbEntity
  8
0
  6
Continuous
 62
     0
370
     0
100
AcDbMText
 10
0.0
 20
-1.2108149765
 30
0.0
 40
4.7625
 41
0.0
 71
     1
 72
     1
  1
Nombre: 1
  7
SLDTEXTSTYLE0
 73
     1
 44
1.0
  0
ENDBLK
  5
DF
330
DD
100
AcDbEntity
  8
0
100
AcDbBlockEnd
  0
BLOCK
  5
135
330
134
100
AcDbEntity
  8
0
100
AcDbBlockBegin
  2
_D
 70
     0
 10
0.0
 20
0.0
 30
0.0
  3
_D
  1

  0
SOLID
  5
137
330
134
100
AcDbEntity
  8
0
  6
Continuous
 62
     7
370
    18
100
AcDbTrace
 10
175.8282992665
 20
188.4178699267
 30
0.0
 11
175.3202992665
 21
185.1158699267
 31
0.0
 12
176.3362992665
 22
185.1158699267
 32
0.0
 13
176.3362992665
 23
185.1158699267
 33
0.0
  0
SOLID
  5
138
330
134
100
AcDbEntity
  8
0
  6
Continuous
 62
     7
370
    18
100
AcDbTrace
 10
175.8282992665
 20
198.4178699267
 30
0.0
 11
176.3362992665
 21
201.7198699267
 31
0.0
 12
175.3202992665
 22
201.7198699267
 32
0.0
 13
175.3202992665
 23
201.7198699267
 33
0.0
  0
LINE
  5
139
330
134
100
AcDbEntity
  8
0
  6
Continuous
 62
     7
370
    18
100
AcDbLine
 10
160.8282992665
 20
188.4178699267
 30
0.0
 11
176.8282992665
 21
188.4178699267
 31
0.0
  0
LINE
  5
13A
330
134
100
AcDbEntity
  8
0
  6
Continuous
 62
     7
370
    18
100
AcDbLine
 10
121.3282992665
 20
198.4178699267
 30
0.0
 11
176.8282992665
 21
198.4178699267
 31
0.0
  0
LINE
  5
13B
330
134
100
AcDbEntity
  8
0
  6
Continuous
 62
     7
370
    18
100
AcDbLine
 10
175.8282992665
 20
188.4178699267
 30
0.0
 11
175.8282992665
 21
182.0678699267
 31
0.0
  0
LINE
  5
13C
330
134
100
AcDbEntity
  8
0
  6
Continuous
 62
     7
370
    18
100
AcDbLine
 10
175.8282992665
 20
188.4178699267
 30
0.0
 11
175.8282992665
 21
198.4178699267
 31
0.0
  0
LINE
  5
13D
330
134
100
AcDbEntity
  8
0
  6
Continuous
 62
     7
370
    18
100
AcDbLine
 10
175.8282992665
 20
198.4178699267
 30
0.0
 11
175.8282992665
 21
204.7678699267
 31
0.0
  0
MTEXT
  5
13E
330
134
100
AcDbEntity
  8
0
  6
Continuous
 62
     7
370
    18
100
AcDbMText
 10
171.3165623519
 20
192.0465890335
 30
0.0
 40
3.5
 41
0.0
 71
     1
 72
     1
  1
10
  7
SLDTEXTSTYLE0
 11
6.123233995736766E-17
 21
1.0
 31
0.0
 73
     1
 44
1.0
  0
ENDBLK
  5
136
330
134
100
AcDbEntity
  8
0
100
AcDbBlockEnd
  0
BLOCK
  5
141
330
140
100
AcDbEntity
  8
0
100
AcDbBlockBegin
  2
_D_1
 70
     0
 10
0.0
 20
0.0
 30
0.0
  3
_D_1
  1

  0
SOLID
  5
143
330
140
100
AcDbEntity
  8
0
  6
Continuous
 62
     7
370
    18
100
AcDbTrace
 10
175.8282992665
 20
223.4178699267
 30
0.0
 11
176.3362992665
 21
226.7198699267
 31
0.0
 12
175.3202992665
 22
226.7198699267
 32
0.0
 13
175.3202992665
 23
226.7198699267
 33
0.0
  0
SOLID
  5
144
330
140
100
AcDbEntity
  8
0
  6
Continuous
 62
     7
370
    18
100
AcDbTrace
 10
175.8282992665
 20
213.4178699267
 30
0.0
 11
175.3202992665
 21
210.1158699267
 31
0.0
 12
176.3362992665
 22
210.1158699267
 32
0.0
 13
176.3362992665
 23
210.1158699267
 33
0.0
  0
LINE
  5
145
330
140
100
AcDbEntity
  8
0
  6
Continuous
 62
     7
370
    18
100
AcDbLine
 10
160.8282992665
 20
223.4178699267
 30
0.0
 11
176.8282992665
 21
223.4178699267
 31
0.0
  0
LINE
  5
146
330
140
100
AcDbEntity
  8
0
  6
Continuous
 62
     7
370
    18
100
AcDbLine
 10
121.6282992665
 20
213.4178699267
 30
0.0
 11
176.8282992665
 21
213.4178699267
 31
0.0
  0
LINE
  5
147
330
140
100
AcDbEntity
  8
0
  6
Continuous
 62
     7
370
    18
100
AcDbLine
 10
175.8282992665
 20
223.4178699267
 30
0.0
 11
175.8282992665
 21
229.7678699267
 31
0.0
  0
LINE
  5
148
330
140
100
AcDbEntity
  8
0
  6
Continuous
 62
     7
370
    18
100
AcDbLine
 10
175.8282992665
 20
223.4178699267
 30
0.0
 11
175.8282992665
 21
213.4178699267
 31
0.0
  0
LINE
  5
149
330
140
100
AcDbEntity
  8
0
  6
Continuous
 62
     7
370
    18
100
AcDbLine
 10
175.8282992665
 20
213.4178699267
 30
0.0
 11
175.8282992665
 21
207.0678699267
 31
0.0
  0
MTEXT
  5
14A
330
140
100
AcDbEntity
  8
0
  6
Continuous
 62
     7
370
    18
100
AcDbMText
 10
171.3165623519
 20
215.7695370982
 30
0.0
 40
3.5
 41
0.0
 71
     1
 72
     1
  1
10
  7
SLDTEXTSTYLE0
 11
-7.044195017643634E-15
 21
1.0
 31
0.0
 73
     1
 44
1.0
  0
ENDBLK
  5
142
330
140
100
AcDbEntity
  8
0
100
AcDbBlockEnd
  0
BLOCK
  5
14E
330
14D
100
AcDbEntity
  8
0
100
AcDbBlockBegin
  2
_D_2
 70
     0
 10
0.0
 20
0.0
 30
0.0
  3
_D_2
  1

  0
SOLID
  5
150
330
14D
100
AcDbEntity
  8
0
  6
Continuous
 62
     7
370
    18
100
AcDbTrace
 10
183.9069694981
 20
223.4178699267
 30
0.0
 11
183.3989694981
 21
220.1158699267
 31
0.0
 12
184.4149694981
 22
220.1158699267
 32
0.0
 13
184.4149694981
 23
220.1158699267
 33
0.0
  0
SOLID
  5
151
330
14D
100
AcDbEntity
  8
0
  6
Continuous
 62
     7
370
    18
100
AcDbTrace
 10
183.9069694981
 20
188.4178699267
 30
0.0
 11
184.4149694981
 21
191.7198699267
 31
0.0
 12
183.3989694981
 22
191.7198699267
 32
0.0
 13
183.3989694981
 23
191.7198699267
 33
0.0
  0
LINE
  5
152
330
14D
100
AcDbEntity
  8
0
  6
Continuous
 62
     7
370
    18
100
AcDbLine
 10
160.8282992665
 20
223.4178699267
 30
0.0
 11
184.9069694981
 21
223.4178699267
 31
0.0
  0
LINE
  5
153
330
14D
100
AcDbEntity
  8
0
  6
Continuous
 62
     7
370
    18
100
AcDbLine
 10
160.8282992665
 20
188.4178699267
 30
0.0
 11
184.9069694981
 21
188.4178699267
 31
0.0
  0
LINE
  5
154
330
14D
100
AcDbEntity
  8
0
  6
Continuous
 62
     7
370
    18
100
AcDbLine
 10
183.9069694981
 20
223.4178699267
 30
0.0
 11
183.9069694981
 21
188.4178699267
 31
0.0
  0
MTEXT
  5
155
330
14D
100
AcDbEntity
  8
0
  6
Continuous
 62
     7
370
    18
100
AcDbMText
 10
179.3952325835
 20
203.8012029394
 30
0.0
 40
3.5
 41
0.0
 71
     1
 72
     1
  1
35
  7
SLDTEXTSTYLE0
 11
-7.044195017643634E-15
 21
1.0
 31
0.0
 73
     1
 44
1.0
  0
ENDBLK
  5
14F
330
14D
100
AcDbEntity
  8
0
100
AcDbBlockEnd
  0
BLOCK
  5
158
330
157
100
AcDbEntity
  8
0
100
AcDbBlockBegin
  2
_D_3
 70
     0
 10
0.0
 20
0.0
 30
0.0
  3
_D_3
  1

  0
SOLID
  5
15A
330
157
100
AcDbEntity
  8
0
  6
Continuous
 62
     7
370
    18
100
AcDbTrace
 10
159.8282992665
 20
176.466478736
 30
0.0
 11
163.1302992665
 21
175.958478736
 31
0.0
 12
163.1302992665
 22
176.974478736
 32
0.0
 13
163.1302992665
 23
176.974478736
 33
0.0
  0
SOLID
  5
15B
330
157
100
AcDbEntity
  8
0
  6
Continuous
 62
     7
370
    18
100
AcDbTrace
 10
149.8282992665
 20
176.466478736
 30
0.0
 11
146.5262992665
 21
176.974478736
 31
0.0
 12
146.5262992665
 22
175.958478736
 32
0.0
 13
146.5262992665
 23
175.958478736
 33
0.0
  0
LINE
  5
15C
330
157
100
AcDbEntity
  8
0
  6
Continuous
 62
     7
370
    18
100
AcDbLine
 10
159.8282992665
 20
187.4178699267
 30
0.0
 11
159.8282992665
 21
175.466478736
 31
0.0
  0
LINE
  5
15D
330
157
100
AcDbEntity
  8
0
  6
Continuous
 62
     7
370
    18
100
AcDbLine
 10
149.8282992665
 20
206.9178699267
 30
0.0
 11
149.8282992665
 21
175.466478736
 31
0.0
  0
LINE
  5
15E
330
157
100
AcDbEntity
  8
0
  6
Continuous
 62
     7
370
    18
100
AcDbLine
 10
159.8282992665
 20
176.466478736
 30
0.0
 11
166.1782992665
 21
176.466478736
 31
0.0
  0
LINE
  5
15F
330
157
100
AcDbEntity
  8
0
  6
Continuous
 62
     7
370
    18
100
AcDbLine
 10
159.8282992665
 20
176.466478736
 30
0.0
 11
149.8282992665
 21
176.466478736
 31
0.0
  0
LINE
  5
160
330
157
100
AcDbEntity
  8
0
  6
Continuous
 62
     7
370
    18
100
AcDbLine
 10
149.8282992665
 20
176.466478736
 30
0.0
 11
143.4782992665
 21
176.466478736
 31
0.0
  0
MTEXT
  5
161
330
157
100
AcDbEntity
  8
0
  6
Continuous
 62
     7
370
    18
100
AcDbMText
 10
151.8274634133
 20
180.9782156505
 30
0.0
 40
3.5
 41
0.0
 71
     1
 72
     1
  1
10
  7
SLDTEXTSTYLE0
 73
     1
 44
1.0
  0
ENDBLK
  5
159
330
157
100
AcDbEntity
  8
0
100
AcDbBlockEnd
  0
BLOCK
  5
164
330
163
100
AcDbEntity
  8
0
100
AcDbBlockBegin
  2
_D_4
 70
     0
 10
0.0
 20
0.0
 30
0.0
  3
_D_4
  1

  0
SOLID
  5
166
330
163
100
AcDbEntity
  8
0
  6
Continuous
 62
     7
370
    18
100
AcDbTrace
 10
159.8282992665
 20
169.8411508981
 30
0.0
 11
156.5262992665
 21
170.3491508981
 31
0.0
 12
156.5262992665
 22
169.3331508981
 32
0.0
 13
156.5262992665
 23
169.3331508981
 33
0.0
  0
SOLID
  5
167
330
163
100
AcDbEntity
  8
0
  6
Continuous
 62
     7
370
    18
100
AcDbTrace
 10
114.8282992665
 20
169.8411508981
 30
0.0
 11
118.1302992665
 21
169.3331508981
 31
0.0
 12
118.1302992665
 22
170.3491508981
 32
0.0
 13
118.1302992665
 23
170.3491508981
 33
0.0
  0
LINE
  5
168
330
163
100
AcDbEntity
  8
0
  6
Continuous
 62
     7
370
    18
100
AcDbLine
 10
159.8282992665
 20
187.4178699267
 30
0.0
 11
159.8282992665
 21
168.8411508981
 31
0.0
  0
LINE
  5
169
330
163
100
AcDbEntity
  8
0
  6
Continuous
 62
     7
370
    18
100
AcDbLine
 10
114.8282992665
 20
206.6178699267
 30
0.0
 11
114.8282992665
 21
168.8411508981
 31
0.0
  0
LINE
  5
16A
330
163
100
AcDbEntity
  8
0
  6
Continuous
 62
     7
370
    18
100
AcDbLine
 10
159.8282992665
 20
169.8411508981
 30
0.0
 11
114.8282992665
 21
169.8411508981
 31
0.0
  0
MTEXT
  5
16B
330
163
100
AcDbEntity
  8
0
  6
Continuous
 62
     7
370
    18
100
AcDbMText
 10
135.5847241978
 20
174.3528878126
 30
0.0
 40
3.5
 41
0.0
 71
     1
 72
     1
  1
45
  7
SLDTEXTSTYLE0
 73
     1
 44
1.0
  0
ENDBLK
  5
165
330
163
100
AcDbEntity
  8
0
100
AcDbBlockEnd
  0
BLOCK
  5
16E
330
16D
100
AcDbEntity
  8
0
100
AcDbBlockBegin
  2
_D_5
 70
     0
 10
0.0
 20
0.0
 30
0.0
  3
_D_5
  1

  0
SOLID
  5
170
330
16D
100
AcDbEntity
  8
0
  6
Continuous
 62
     7
370
    18
100
AcDbTrace
 10
99.8282992665
 20
162.5746623017
 30
0.0
 11
103.1302992665
 21
162.0666623017
 31
0.0
 12
103.1302992665
 22
163.0826623017
 32
0.0
 13
103.1302992665
 23
163.0826623017
 33
0.0
  0
SOLID
  5
171
330
16D
100
AcDbEntity
  8
0
  6
Continuous
 62
     7
370
    18
100
AcDbTrace
 10
159.8282992665
 20
162.5746623017
 30
0.0
 11
156.5262992665
 21
163.0826623017
 31
0.0
 12
156.5262992665
 22
162.0666623017
 32
0.0
 13
156.5262992665
 23
162.0666623017
 33
0.0
  0
LINE
  5
172
330
16D
100
AcDbEntity
  8
0
  6
Continuous
 62
     7
370
    18
100
AcDbLine
 10
99.8282992665
 20
187.4178699267
 30
0.0
 11
99.8282992665
 21
161.5746623017
 31
0.0
  0
LINE
  5
173
330
16D
100
AcDbEntity
  8
0
  6
Continuous
 62
     7
370
    18
100
AcDbLine
 10
159.8282992665
 20
187.4178699267
 30
0.0
 11
159.8282992665
 21
161.5746623017
 31
0.0
  0
LINE
  5
174
330
16D
100
AcDbEntity
  8
0
  6
Continuous
 62
     7
370
    18
100
AcDbLine
 10
99.8282992665
 20
162.5746623017
 30
0.0
 11
159.8282992665
 21
162.5746623017
 31
0.0
  0
MTEXT
  5
175
330
16D
100
AcDbEntity
  8
0
  6
Continuous
 62
     7
370
    18
100
AcDbMText
 10
127.6770748428
 20
167.0863992162
 30
0.0
 40
3.5
 41
0.0
 71
     1
 72
     1
  1
60
  7
SLDTEXTSTYLE0
 73
     1
 44
1.0
  0
ENDBLK
  5
16F
330
16D
100
AcDbEntity
  8
0
100
AcDbBlockEnd
  0
BLOCK
  5
177
330
176
100
AcDbEntity
  8
0
100
AcDbBlockBegin
  2
SW_CENTERMARKSYMBOL_0
 70
     0
 10
0.0
 20
0.0
 30
0.0
  3
SW_CENTERMARKSYMBOL_0
  1

  0
LINE
  5
179
330
176
100
AcDbEntity
  8
0
  6
Continuous
 62
     0
370
     0
100
AcDbLine
 10
0.0
 20
0.0
 30
0.0
 11
0.0
 21
2.5
 31
0.0
  0
LINE
  5
17A
330
176
100
AcDbEntity
  8
0
  6
Continuous
 62
     0
370
     0
100
AcDbLine
 10
0.0
 20
0.0
 30
0.0
 11
-2.5
 21
0.0
 31
0.0
  0
LINE
  5
17B
330
176
100
AcDbEntity
  8
0
  6
Continuous
 62
     0
370
     0
100
AcDbLine
 10
0.0
 20
0.0
 30
0.0
 11
0.0
 21
-2.5
 31
0.0
  0
LINE
  5
17C
330
176
100
AcDbEntity
  8
0
  6
Continuous
 62
     0
370
     0
100
AcDbLine
 10
0.0
 20
0.0
 30
0.0
 11
2.5
 21
0.0
 31
0.0
  0
LINE
  5
17D
330
176
100
AcDbEntity
  8
0
  6
Continuous
 62
     0
370
     0
100
AcDbLine
 10
0.0
 20
5.0
 30
0.0
 11
0.0
 21
5.8
 31
0.0
  0
LINE
  5
17E
330
176
100
AcDbEntity
  8
0
  6
Continuous
 62
     0
370
     0
100
AcDbLine
 10
-5.0
 20
0.0
 30
0.0
 11
-5.8
 21
0.0
 31
0.0
  0
LINE
  5
17F
330
176
100
AcDbEntity
  8
0
  6
Continuous
 62
     0
370
     0
100
AcDbLine
 10
0.0
 20
-5.0
 30
0.0
 11
0.0
 21
-5.8
 31
0.0
  0
LINE
  5
180
330
176
100
AcDbEntity
  8
0
  6
Continuous
 62
     0
370
     0
100
AcDbLine
 10
5.0
 20
0.0
 30
0.0
 11
5.8
 21
0.0
 31
0.0
  0
ENDBLK
  5
178
330
176
100
AcDbEntity
  8
0
100
AcDbBlockEnd
  0
BLOCK
  5
183
330
182
100
AcDbEntity
  8
0
100
AcDbBlockBegin
  2
SW_CENTERMARKSYMBOL_1
 70
     0
 10
0.0
 20
0.0
 30
0.0
  3
SW_CENTERMARKSYMBOL_1
  1

  0
LINE
  5
185
330
182
100
AcDbEntity
  8
0
  6
Continuous
 62
     0
370
     0
100
AcDbLine
 10
0.0
 20
0.0
 30
0.0
 11
0.0
 21
2.5
 31
0.0
  0
LINE
  5
186
330
182
100
AcDbEntity
  8
0
  6
Continuous
 62
     0
370
     0
100
AcDbLine
 10
0.0
 20
0.0
 30
0.0
 11
-2.5
 21
0.0
 31
0.0
  0
LINE
  5
187
330
182
100
AcDbEntity
  8
0
  6
Continuous
 62
     0
370
     0
100
AcDbLine
 10
0.0
 20
0.0
 30
0.0
 11
0.0
 21
-2.5
 31
0.0
  0
LINE
  5
188
330
182
100
AcDbEntity
  8
0
  6
Continuous
 62
     0
370
     0
100
AcDbLine
 10
0.0
 20
0.0
 30
0.0
 11
2.5
 21
0.0
 31
0.0
  0
LINE
  5
189
330
182
100
AcDbEntity
  8
0
  6
Continuous
 62
     0
370
     0
100
AcDbLine
 10
0.0
 20
5.0
 30
0.0
 11
0.0
 21
5.8
 31
0.0
  0
LINE
  5
18A
330
182
100
AcDbEntity
  8
0
  6
Continuous
 62
     0
370
     0
100
AcDbLine
 10
-5.0
 20
0.0
 30
0.0
 11
-5.8
 21
0.0
 31
0.0
  0
LINE
  5
18B
330
182
100
AcDbEntity
  8
0
  6
Continuous
 62
     0
370
     0
100
AcDbLine
 10
0.0
 20
-5.0
 30
0.0
 11
0.0
 21
-5.8
 31
0.0
  0
LINE
  5
18C
330
182
100
AcDbEntity
  8
0
  6
Continuous
 62
     0
370
     0
100
AcDbLine
 10
5.0
 20
0.0
 30
0.0
 11
5.8
 21
0.0
 31
0.0
  0
ENDBLK
  5
184
330
182
100
AcDbEntity
  8
0
100
AcDbBlockEnd
  0
BLOCK
  5
18F
330
18E
100
AcDbEntity
  8
0
100
AcDbBlockBegin
  2
SW_CENTERMARKSYMBOL_2
 70
     0
 10
0.0
 20
0.0
 30
0.0
  3
SW_CENTERMARKSYMBOL_2
  1

  0
LINE
  5
191
330
18E
100
AcDbEntity
  8
0
  6
Continuous
 62
     0
370
     0
100
AcDbLine
 10
0.0
 20
0.0
 30
0.0
 11
0.0
 21
2.5
 31
0.0
  0
LINE
  5
192
330
18E
100
AcDbEntity
  8
0
  6
Continuous
 62
     0
370
     0
100
AcDbLine
 10
0.0
 20
0.0
 30
0.0
 11
-2.5
 21
0.0
 31
0.0
  0
LINE
  5
193
330
18E
100
AcDbEntity
  8
0
  6
Continuous
 62
     0
370
     0
100
AcDbLine
 10
0.0
 20
0.0
 30
0.0
 11
0.0
 21
-2.5
 31
0.0
  0
LINE
  5
194
330
18E
100
AcDbEntity
  8
0
  6
Continuous
 62
     0
370
     0
100
AcDbLine
 10
0.0
 20
0.0
 30
0.0
 11
2.5
 21
0.0
 31
0.0
  0
LINE
  5
195
330
18E
100
AcDbEntity
  8
0
  6
Continuous
 62
     0
370
     0
100
AcDbLine
 10
0.0
 20
5.0
 30
0.0
 11
0.0
 21
5.5
 31
0.0
  0
LINE
  5
196
330
18E
100
AcDbEntity
  8
0
  6
Continuous
 62
     0
370
     0
100
AcDbLine
 10
-5.0
 20
0.0
 30
0.0
 11
-5.5
 21
0.0
 31
0.0
  0
LINE
  5
197
330
18E
100
AcDbEntity
  8
0
  6
Continuous
 62
     0
370
     0
100
AcDbLine
 10
0.0
 20
-5.0
 30
0.0
 11
0.0
 21
-5.5
 31
0.0
  0
LINE
  5
198
330
18E
100
AcDbEntity
  8
0
  6
Continuous
 62
     0
370
     0
100
AcDbLine
 10
5.0
 20
0.0
 30
0.0
 11
5.5
 21
0.0
 31
0.0
  0
ENDBLK
  5
190
330
18E
100
AcDbEntity
  8
0
100
AcDbBlockEnd
  0
BLOCK
  5
19B
330
19A
100
AcDbEntity
  8
0
100
AcDbBlockBegin
  2
SW_CENTERMARKSYMBOL_3
 70
     0
 10
0.0
 20
0.0
 30
0.0
  3
SW_CENTERMARKSYMBOL_3
  1

  0
LINE
  5
19D
330
19A
100
AcDbEntity
  8
0
  6
Continuous
 62
     0
370
     0
100
AcDbLine
 10
0.0
 20
0.0
 30
0.0
 11
0.0
 21
2.5
 31
0.0
  0
LINE
  5
19E
330
19A
100
AcDbEntity
  8
0
  6
Continuous
 62
     0
370
     0
100
AcDbLine
 10
0.0
 20
0.0
 30
0.0
 11
-2.5
 21
0.0
 31
0.0
  0
LINE
  5
19F
330
19A
100
AcDbEntity
  8
0
  6
Continuous
 62
     0
370
     0
100
AcDbLine
 10
0.0
 20
0.0
 30
0.0
 11
0.0
 21
-2.5
 31
0.0
  0
LINE
  5
1A0
330
19A
100
AcDbEntity
  8
0
  6
Continuous
 62
     0
370
     0
100
AcDbLine
 10
0.0
 20
0.0
 30
0.0
 11
2.5
 21
0.0
 31
0.0
  0
LINE
  5
1A1
330
19A
100
AcDbEntity
  8
0
  6
Continuous
 62
     0
370
     0
100
AcDbLine
 10
0.0
 20
5.0
 30
0.0
 11
0.0
 21
5.5
 31
0.0
  0
LINE
  5
1A2
330
19A
100
AcDbEntity
  8
0
  6
Continuous
 62
     0
370
     0
100
AcDbLine
 10
-5.0
 20
0.0
 30
0.0
 11
-5.5
 21
0.0
 31
0.0
  0
LINE
  5
1A3
330
19A
100
AcDbEntity
  8
0
  6
Continuous
 62
     0
370
     0
100
AcDbLine
 10
0.0
 20
-5.0
 30
0.0
 11
0.0
 21
-5.5
 31
0.0
  0
LINE
  5
1A4
330
19A
100
AcDbEntity
  8
0
  6
Continuous
 62
     0
370
     0
100
AcDbLine
 10
5.0
 20
0.0
 30
0.0
 11
5.5
 21
0.0
 31
0.0
  0
ENDBLK
  5
19C
330
19A
100
AcDbEntity
  8
0
100
AcDbBlockEnd
  0
BLOCK
  5
1AF
330
1AE
100
AcDbEntity
  8
0
100
AcDbBlockBegin
  2
SW_DOWELSYMBOL_0
 70
     0
 10
0.0
 20
0.0
 30
0.0
  3
SW_DOWELSYMBOL_0
  1

  0
CIRCLE
  5
1B1
330
1AE
100
AcDbEntity
  8
0
  6
Continuous
 62
     0
370
     0
100
AcDbCircle
 10
0.0
 20
0.0
 30
0.0
 40
3.000000000000003
  0
HATCH
  5
1B2
330
1AE
100
AcDbEntity
  8
0
  6
Continuous
 62
     0
370
     0
100
AcDbHatch
 10
0.0
 20
0.0
 30
0.0
210
0.0
220
0.0
230
1.0
  2
SOLID
 70
     1
 71
     0
 91
        1
 92
        0
 93
        3
 72
     2
 10
0.0
 20
0.0
 40
3.000000000000003
 50
0.0
 51
90.0
 73
     1
 72
     1
 10
0.0
 20
3.000000000000003
 11
0.0
 21
0.0
 72
     1
 10
0.0
 20
0.0
 11
3.000000000000003
 21
0.0
 97
        0
 75
     0
 76
     1
 98
        1
 10
0.0
 20
0.0
  0
HATCH
  5
1B3
330
1AE
100
AcDbEntity
  8
0
  6
Continuous
 62
     0
370
     0
100
AcDbHatch
 10
0.0
 20
0.0
 30
0.0
210
0.0
220
0.0
230
1.0
  2
SOLID
 70
     1
 71
     0
 91
        1
 92
        0
 93
        3
 72
     2
 10
0.0
 20
0.0
 40
3.000000000000003
 50
180.0
 51
270.0000000000008
 73
     1
 72
     1
 10
0.0
 20
-3.000000000000003
 11
0.0
 21
0.0
 72
     1
 10
0.0
 20
0.0
 11
-3.000000000000003
 21
0.0
 97
        0
 75
     0
 76
     1
 98
        1
 10
0.0
 20
0.0
  0
ENDBLK
  5
1B0
330
1AE
100
AcDbEntity
  8
0
100
AcDbBlockEnd
  0
BLOCK
  5
1B6
330
1B5
100
AcDbEntity
  8
0
100
AcDbBlockBegin
  2
SW_DOWELSYMBOL_1
 70
     0
 10
0.0
 20
0.0
 30
0.0
  3
SW_DOWELSYMBOL_1
  1

  0
CIRCLE
  5
1B8
330
1B5
100
AcDbEntity
  8
0
  6
Continuous
 62
     0
370
     0
100
AcDbCircle
 10
0.0
 20
0.0
 30
0.0
 40
3.000000000000003
  0
HATCH
  5
1B9
330
1B5
100
AcDbEntity
  8
0
  6
Continuous
 62
     0
370
     0
100
AcDbHatch
 10
0.0
 20
0.0
 30
0.0
210
0.0
220
0.0
230
1.0
  2
SOLID
 70
     1
 71
     0
 91
        1
 92
        0
 93
        3
 72
     2
 10
0.0
 20
0.0
 40
3.000000000000003
 50
0.0
 51
90.0
 73
     1
 72
     1
 10
0.0
 20
3.000000000000003
 11
0.0
 21
0.0
 72
     1
 10
0.0
 20
0.0
 11
3.000000000000003
 21
0.0
 97
        0
 75
     0
 76
     1
 98
        1
 10
0.0
 20
0.0
  0
HATCH
  5
1BA
330
1B5
100
AcDbEntity
  8
0
  6
Continuous
 62
     0
370
     0
100
AcDbHatch
 10
0.0
 20
0.0
 30
0.0
210
0.0
220
0.0
230
1.0
  2
SOLID
 70
     1
 71
     0
 91
        1
 92
        0
 93
        3
 72
     2
 10
0.0
 20
0.0
 40
3.000000000000003
 50
180.0
 51
270.0000000000008
 73
     1
 72
     1
 10
0.0
 20
-3.000000000000003
 11
0.0
 21
0.0
 72
     1
 10
0.0
 20
0.0
 11
-3.000000000000003
 21
0.0
 97
        0
 75
     0
 76
     1
 98
        1
 10
0.0
 20
0.0
  0
ENDBLK
  5
1B7
330
1B5
100
AcDbEntity
  8
0
100
AcDbBlockEnd
  0
BLOCK
  5
1D2
330
1D1
100
AcDbEntity
  8
0
100
AcDbBlockBegin
  2
_D_6
 70
     0
 10
0.0
 20
0.0
 30
0.0
  3
_D_6
  1

  0
SOLID
  5
1D4
330
1D1
100
AcDbEntity
  8
0
  6
Continuous
 62
     7
370
    18
100
AcDbTrace
 10
89.8282992665
 20
263.5757499317
 30
0.0
 11
90.3362992665
 21
266.8777499317
 31
0.0
 12
89.3202992665
 22
266.8777499317
 32
0.0
 13
89.3202992665
 23
266.8777499317
 33
0.0
  0
SOLID
  5
1D5
330
1D1
100
AcDbEntity
  8
0
  6
Continuous
 62
     7
370
    18
100
AcDbTrace
 10
89.8282992665
 20
259.5757499317
 30
0.0
 11
89.3202992665
 21
256.2737499317
 31
0.0
 12
90.3362992665
 22
256.2737499317
 32
0.0
 13
90.3362992665
 23
256.2737499317
 33
0.0
  0
LINE
  5
1D6
330
1D1
100
AcDbEntity
  8
0
  6
Continuous
 62
     7
370
    18
100
AcDbLine
 10
98.8282992665
 20
263.5757499317
 30
0.0
 11
88.8282992665
 21
263.5757499317
 31
0.0
  0
LINE
  5
1D7
330
1D1
100
AcDbEntity
  8
0
  6
Continuous
 62
     7
370
    18
100
AcDbLine
 10
98.8282992665
 20
259.5757499317
 30
0.0
 11
88.8282992665
 21
259.5757499317
 31
0.0
  0
LINE
  5
1D8
330
1D1
100
AcDbEntity
  8
0
  6
Continuous
 62
     7
370
    18
100
AcDbLine
 10
89.8282992665
 20
263.5757499317
 30
0.0
 11
89.8282992665
 21
269.9257499317
 31
0.0
  0
LINE
  5
1D9
330
1D1
100
AcDbEntity
  8
0
  6
Continuous
 62
     7
370
    18
100
AcDbLine
 10
89.8282992665
 20
263.5757499317
 30
0.0
 11
89.8282992665
 21
259.5757499317
 31
0.0
  0
LINE
  5
1DA
330
1D1
100
AcDbEntity
  8
0
  6
Continuous
 62
     7
370
    18
100
AcDbLine
 10
89.8282992665
 20
259.5757499317
 30
0.0
 11
89.8282992665
 21
248.2826943349
 31
0.0
  0
MTEXT
  5
1DB
330
1D1
100
AcDbEntity
  8
0
  6
Continuous
 62
     7
370
    18
100
AcDbMText
 10
85.3165623519
 20
248.2826943349
 30
0.0
 40
3.5
 41
0.0
 71
     1
 72
     1
  1
4
  7
SLDTEXTSTYLE0
 11
-7.044195017643634E-15
 21
1.0
 31
0.0
 73
     1
 44
1.0
  0
ENDBLK
  5
1D3
330
1D1
100
AcDbEntity
  8
0
100
AcDbBlockEnd
  0
BLOCK
  5
1DF
330
1DE
100
AcDbEntity
  8
0
100
AcDbBlockBegin
  2
_D_7
 70
     0
 10
0.0
 20
0.0
 30
0.0
  3
_D_7
  1

  0
ARC
  5
1E1
330
1DE
100
AcDbEntity
  8
0
  6
Continuous
 62
     7
370
    18
100
AcDbCircle
 10
99.8282992665
 20
263.5757499317
 30
0.0
 40
16.97417796645408
100
AcDbArc
 50
60.0
 51
90.0
  0
ARC
  5
1E2
330
1DE
100
AcDbEntity
  8
0
  6
Continuous
 62
     7
370
    18
100
AcDbCircle
 10
99.8282992665
 20
263.5757499317
 30
0.0
 40
16.97417796645409
100
AcDbArc
 50
38.8818537202
 51
60.0
  0
ARC
  5
1E3
330
1DE
100
AcDbEntity
  8
0
  6
Continuous
 62
     7
370
    18
100
AcDbCircle
 10
99.8282992665
 20
263.5757499317
 30
0.0
 40
16.97417796645408
100
AcDbArc
 50
90.0
 51
111.1181462798
  0
SOLID
  5
1E4
330
1DE
100
AcDbEntity
  8
0
  6
Continuous
 62
     7
370
    18
100
AcDbTrace
 10
108.3153882497
 20
278.275819259
 30
0.0
 11
110.7084316011
 21
275.9445939334
 31
0.0
 12
111.2984857636
 22
276.771692528
 32
0.0
 13
111.2984857636
 23
276.771692528
 33
0.0
  0
SOLID
  5
1E5
330
1DE
100
AcDbEntity
  8
0
  6
Continuous
 62
     7
370
    18
100
AcDbTrace
 10
99.8282992665
 20
280.5499278981
 30
0.0
 11
96.4927976721
 21
280.7388646955
 31
0.0
 12
96.5902502691
 22
279.7275492199
 32
0.0
 13
96.5902502691
 23
279.7275492199
 33
0.0
  0
LINE
  5
1E6
330
1DE
100
AcDbEntity
  8
0
  6
Continuous
 62
     7
370
    18
100
AcDbLine
 10
102.3490252087
 20
267.9417753354
 30
0.0
 11
108.8153882497
 21
279.1418446627
 31
0.0
  0
LINE
  5
1E7
330
1DE
100
AcDbEntity
  8
0
  6
Continuous
 62
     7
370
    18
100
AcDbLine
 10
99.8282992665
 20
264.5757499317
 30
0.0
 11
99.8282992665
 21
281.5499278981
 31
0.0
  0
MTEXT
  5
1E8
330
1DE
100
AcDbEntity
  8
0
  6
Continuous
 62
     7
370
    18
100
AcDbMText
 10
101.9118841279
 20
285.2480756477
 30
0.0
 40
3.5
 41
0.0
 71
     1
 72
     1
  1
30°
  7
SLDTEXTSTYLE0
 11
0.9668495466458218
 21
-0.2553467331899291
 31
0.0
 73
     1
 44
1.0
  0
ENDBLK
  5
1E0
330
1DE
100
AcDbEntity
  8
0
100
AcDbBlockEnd
  0
BLOCK
  5
1EB
330
1EA
100
AcDbEntity
  8
0
100
AcDbBlockBegin
  2
_D_8
 70
     0
 10
0.0
 20
0.0
 30
0.0
  3
_D_8
  1

  0
SOLID
  5
1ED
330
1EA
100
AcDbEntity
  8
0
  6
Continuous
 62
     7
370
    18
100
AcDbTrace
 10
111.5282992665
 20
249.5757499317
 30
0.0
 11
108.2262992665
 21
250.0837499317
 31
0.0
 12
108.2262992665
 22
249.0677499317
 32
0.0
 13
108.2262992665
 23
249.0677499317
 33
0.0
  0
SOLID
  5
1EE
330
1EA
100
AcDbEntity
  8
0
  6
Continuous
 62
     7
370
    18
100
AcDbTrace
 10
118.1282992665
 20
249.5757499317
 30
0.0
 11
121.4302992665
 21
249.0677499317
 31
0.0
 12
121.4302992665
 22
250.0837499317
 32
0.0
 13
121.4302992665
 23
250.0837499317
 33
0.0
  0
LINE
  5
1EF
330
1EA
100
AcDbEntity
  8
0
  6
Continuous
 62
     7
370
    18
100
AcDbLine
 10
111.5282992665
 20
258.5757499317
 30
0.0
 11
111.5282992665
 21
248.5757499317
 31
0.0
  0
LINE
  5
1F0
330
1EA
100
AcDbEntity
  8
0
  6
Continuous
 62
     7
370
    18
100
AcDbLine
 10
118.1282992665
 20
258.5757499317
 30
0.0
 11
118.1282992665
 21
248.5757499317
 31
0.0
  0
LINE
  5
1F1
330
1EA
100
AcDbEntity
  8
0
  6
Continuous
 62
     7
370
    18
100
AcDbLine
 10
111.5282992665
 20
249.5757499317
 30
0.0
 11
94.1777664608
 21
249.5757499317
 31
0.0
  0
LINE
  5
1F2
330
1EA
100
AcDbEntity
  8
0
  6
Continuous
 62
     7
370
    18
100
AcDbLine
 10
111.5282992665
 20
249.5757499317
 30
0.0
 11
118.1282992665
 21
249.5757499317
 31
0.0
  0
LINE
  5
1F3
330
1EA
100
AcDbEntity
  8
0
  6
Continuous
 62
     7
370
    18
100
AcDbLine
 10
118.1282992665
 20
249.5757499317
 30
0.0
 11
124.4782992665
 21
249.5757499317
 31
0.0
  0
MTEXT
  5
1F4
330
1EA
100
AcDbEntity
  8
0
  6
Continuous
 62
     7
370
    18
100
AcDbMText
 10
94.1777664608
 20
254.0874870209
 30
0.0
 40
3.5
 41
0.0
 71
     1
 72
     1
  1
%%c
  7
SLDTEXTSTYLE0
 73
     1
 44
1.0
  0
MTEXT
  5
1F5
330
1EA
100
AcDbEntity
  8
0
  6
Continuous
 62
     7
370
    18
100
AcDbMText
 10
99.4562038592
 20
254.1409591975
 30
0.0
 40
3.5
 41
0.0
 71
     1
 72
     1
  1
6,60
  7
SLDTEXTSTYLE0
 73
     1
 44
1.0
  0
ENDBLK
  5
1EC
330
1EA
100
AcDbEntity
  8
0
100
AcDbBlockEnd
  0
BLOCK
  5
1F8
330
1F7
100
AcDbEntity
  8
0
100
AcDbBlockBegin
  2
_D_9
 70
     0
 10
0.0
 20
0.0
 30
0.0
  3
_D_9
  1

  0
SOLID
  5
1FA
330
1F7
100
AcDbEntity
  8
0
  6
Continuous
 62
     7
370
    18
100
AcDbTrace
 10
146.8282992665
 20
249.5757499317
 30
0.0
 11
143.5262992665
 21
250.0837499317
 31
0.0
 12
143.5262992665
 22
249.0677499317
 32
0.0
 13
143.5262992665
 23
249.0677499317
 33
0.0
  0
SOLID
  5
1FB
330
1F7
100
AcDbEntity
  8
0
  6
Continuous
 62
     7
370
    18
100
AcDbTrace
 10
152.8282992665
 20
249.5757499317
 30
0.0
 11
156.1302992665
 21
249.0677499317
 31
0.0
 12
156.1302992665
 22
250.0837499317
 32
0.0
 13
156.1302992665
 23
250.0837499317
 33
0.0
  0
LINE
  5
1FC
330
1F7
100
AcDbEntity
  8
0
  6
Continuous
 62
     7
370
    18
100
AcDbLine
 10
146.8282992665
 20
258.5757499317
 30
0.0
 11
146.8282992665
 21
248.5757499317
 31
0.0
  0
LINE
  5
1FD
330
1F7
100
AcDbEntity
  8
0
  6
Continuous
 62
     7
370
    18
100
AcDbLine
 10
152.8282992665
 20
258.5757499317
 30
0.0
 11
152.8282992665
 21
248.5757499317
 31
0.0
  0
LINE
  5
1FE
330
1F7
100
AcDbEntity
  8
0
  6
Continuous
 62
     7
370
    18
100
AcDbLine
 10
146.8282992665
 20
249.5757499317
 30
0.0
 11
140.4782992665
 21
249.5757499317
 31
0.0
  0
LINE
  5
1FF
330
1F7
100
AcDbEntity
  8
0
  6
Continuous
 62
     7
370
    18
100
AcDbLine
 10
146.8282992665
 20
249.5757499317
 30
0.0
 11
152.8282992665
 21
249.5757499317
 31
0.0
  0
LINE
  5
200
330
1F7
100
AcDbEntity
  8
0
  6
Continuous
 62
     7
370
    18
100
AcDbLine
 10
152.8282992665
 20
249.5757499317
 30
0.0
 11
164.8576882912
 21
249.5757499317
 31
0.0
  0
MTEXT
  5
201
330
1F7
100
AcDbEntity
  8
0
  6
Continuous
 62
     7
370
    18
100
AcDbMText
 10
151.2181394977
 20
254.0874870209
 30
0.0
 40
3.5
 41
0.0
 71
     1
 72
     1
  1
%%c
  7
SLDTEXTSTYLE0
 73
     1
 44
1.0
  0
MTEXT
  5
202
330
1F7
100
AcDbEntity
  8
0
  6
Continuous
 62
     7
370
    18
100
AcDbMText
 10
156.4965768961
 20
254.1409591975
 30
0.0
 40
3.5
 41
0.0
 71
     1
 72
     1
  1
6
  7
SLDTEXTSTYLE0
 73
     1
 44
1.0
  0
MTEXT
  5
203
330
1F7
100
AcDbEntity
  8
0
  6
Continuous
 62
     7
370
    18
100
AcDbMText
 10
159.0826883225
 20
254.1409591975
 30
0.0
 40
3.5
 41
0.0
 71
     1
 72
     1
  1
H7
  7
SLDTEXTSTYLE0
 73
     1
 44
1.0
  0
ENDBLK
  5
1F9
330
1F7
100
AcDbEntity
  8
0
100
AcDbBlockEnd
  0
BLOCK
  5
206
330
205
100
AcDbEntity
  8
0
100
AcDbBlockBegin
  2
_D_10
 70
     0
 10
0.0
 20
0.0
 30
0.0
  3
_D_10
  1

  0
SOLID
  5
208
330
205
100
AcDbEntity
  8
0
  6
Continuous
 62
     7
370
    18
100
AcDbTrace
 10
173.0280149614
 20
259.5757499317
 30
0.0
 11
173.5360149614
 21
262.8777499317
 31
0.0
 12
172.5200149614
 22
262.8777499317
 32
0.0
 13
172.5200149614
 23
262.8777499317
 33
0.0
  0
SOLID
  5
209
330
205
100
AcDbEntity
  8
0
  6
Continuous
 62
     7
370
    18
100
AcDbTrace
 10
173.0280149614
 20
267.0757499317
 30
0.0
 11
172.5200149614
 21
263.7737499317
 31
0.0
 12
173.5360149614
 22
263.7737499317
 32
0.0
 13
173.5360149614
 23
263.7737499317
 33
0.0
  0
LINE
  5
20A
330
205
100
AcDbEntity
  8
0
  6
Continuous
 62
     7
370
    18
100
AcDbLine
 10
160.8282992665
 20
259.5757499317
 30
0.0
 11
174.0280149614
 21
259.5757499317
 31
0.0
  0
LINE
  5
20B
330
205
100
AcDbEntity
  8
0
  6
Continuous
 62
     7
370
    18
100
AcDbLine
 10
160.8282992665
 20
267.0757499317
 30
0.0
 11
174.0280149614
 21
267.0757499317
 31
0.0
  0
LINE
  5
20C
330
205
100
AcDbEntity
  8
0
  6
Continuous
 62
     7
370
    18
100
AcDbLine
 10
173.0280149614
 20
259.5757499317
 30
0.0
 11
173.0280149614
 21
267.0757499317
 31
0.0
  0
LINE
  5
20D
330
205
100
AcDbEntity
  8
0
  6
Continuous
 62
     7
370
    18
100
AcDbLine
 10
173.0280149614
 20
267.0757499317
 30
0.0
 11
173.0280149614
 21
279.5824905081
 31
0.0
  0
MTEXT
  5
20E
330
205
100
AcDbEntity
  8
0
  6
Continuous
 62
     7
370
    18
100
AcDbMText
 10
168.5162780468
 20
270.5311014472
 30
0.0
 40
3.5
 41
0.0
 71
     1
 72
     1
  1
7,50
  7
SLDTEXTSTYLE0
 11
6.123233995736766E-17
 21
1.0
 31
0.0
 73
     1
 44
1.0
  0
ENDBLK
  5
207
330
205
100
AcDbEntity
  8
0
100
AcDbBlockEnd
  0
BLOCK
  5
21F
330
21E
100
AcDbEntity
  8
0
100
AcDbBlockBegin
  2
_D_11
 70
     0
 10
0.0
 20
0.0
 30
0.0
  3
_D_11
  1

  0
SOLID
  5
221
330
21E
100
AcDbEntity
  8
0
  6
Continuous
 62
     7
370
    18
100
AcDbTrace
 10
375.9404645477
 20
121.5861858191
 30
0.0
 11
376.4484645477
 21
124.8881858191
 31
0.0
 12
375.4324645477
 22
124.8881858191
 32
0.0
 13
375.4324645477
 23
124.8881858191
 33
0.0
  0
SOLID
  5
222
330
21E
100
AcDbEntity
  8
0
  6
Continuous
 62
     7
370
    18
100
AcDbTrace
 10
375.9404645477
 20
181.5861858191
 30
0.0
 11
375.4324645477
 21
178.2841858191
 31
0.0
 12
376.4484645477
 22
178.2841858191
 32
0.0
 13
376.4484645477
 23
178.2841858191
 33
0.0
  0
LINE
  5
223
330
21E
100
AcDbEntity
  8
0
  6
Continuous
 62
     7
370
    18
100
AcDbLine
 10
354.9404645477
 20
121.5861858191
 30
0.0
 11
376.9404645477
 21
121.5861858191
 31
0.0
  0
LINE
  5
224
330
21E
100
AcDbEntity
  8
0
  6
Continuous
 62
     7
370
    18
100
AcDbLine
 10
354.9404645477
 20
181.5861858191
 30
0.0
 11
376.9404645477
 21
181.5861858191
 31
0.0
  0
LINE
  5
225
330
21E
100
AcDbEntity
  8
0
  6
Continuous
 62
     7
370
    18
100
AcDbLine
 10
375.9404645477
 20
121.5861858191
 30
0.0
 11
375.9404645477
 21
181.5861858191
 31
0.0
  0
MTEXT
  5
226
330
21E
100
AcDbEntity
  8
0
  6
Continuous
 62
     7
370
    18
100
AcDbMText
 10
371.4287276331
 20
149.2018611058
 30
0.0
 40
3.5
 41
0.0
 71
     1
 72
     1
  1
60
  7
SLDTEXTSTYLE0
 11
6.123233995736766E-17
 21
1.0
 31
0.0
 73
     1
 44
1.0
  0
ENDBLK
  5
220
330
21E
100
AcDbEntity
  8
0
100
AcDbBlockEnd
  0
BLOCK
  5
229
330
228
100
AcDbEntity
  8
0
100
AcDbBlockBegin
  2
_D_12
 70
     0
 10
0.0
 20
0.0
 30
0.0
  3
_D_12
  1

  0
SOLID
  5
22B
330
228
100
AcDbEntity
  8
0
  6
Continuous
 62
     7
370
    18
100
AcDbTrace
 10
323.9404645477
 20
181.5861858191
 30
0.0
 11
323.4324645477
 21
178.2841858191
 31
0.0
 12
324.4484645477
 22
178.2841858191
 32
0.0
 13
324.4484645477
 23
178.2841858191
 33
0.0
  0
SOLID
  5
22C
330
228
100
AcDbEntity
  8
0
  6
Continuous
 62
     7
370
    18
100
AcDbTrace
 10
323.9404645477
 20
173.5861858191
 30
0.0
 11
324.4484645477
 21
176.8881858191
 31
0.0
 12
323.4324645477
 22
176.8881858191
 32
0.0
 13
323.4324645477
 23
176.8881858191
 33
0.0
  0
LINE
  5
22D
330
228
100
AcDbEntity
  8
0
  6
Continuous
 62
     7
370
    18
100
AcDbLine
 10
332.9404645477
 20
181.5861858191
 30
0.0
 11
322.9404645477
 21
181.5861858191
 31
0.0
  0
LINE
  5
22E
330
228
100
AcDbEntity
  8
0
  6
Continuous
 62
     7
370
    18
100
AcDbLine
 10
336.1404645477
 20
173.5861858191
 30
0.0
 11
322.9404645477
 21
173.5861858191
 31
0.0
  0
LINE
  5
22F
330
228
100
AcDbEntity
  8
0
  6
Continuous
 62
     7
370
    18
100
AcDbLine
 10
323.9404645477
 20
181.5861858191
 30
0.0
 11
323.9404645477
 21
188.0542853732
 31
0.0
  0
LINE
  5
230
330
228
100
AcDbEntity
  8
0
  6
Continuous
 62
     7
370
    18
100
AcDbLine
 10
323.9404645477
 20
181.5861858191
 30
0.0
 11
323.9404645477
 21
173.5861858191
 31
0.0
  0
MTEXT
  5
231
330
228
100
AcDbEntity
  8
0
  6
Continuous
 62
     7
370
    18
100
AcDbMText
 10
319.4287276331
 20
185.4681741796
 30
0.0
 40
3.5
 41
0.0
 71
     1
 72
     1
  1
8
  7
SLDTEXTSTYLE0
 11
-7.044195017643634E-15
 21
1.0
 31
0.0
 73
     1
 44
1.0
  0
ENDBLK
  5
22A
330
228
100
AcDbEntity
  8
0
100
AcDbBlockEnd
  0
BLOCK
  5
234
330
233
100
AcDbEntity
  8
0
100
AcDbBlockBegin
  2
_D_13
 70
     0
 10
0.0
 20
0.0
 30
0.0
  3
_D_13
  1

  0
SOLID
  5
236
330
233
100
AcDbEntity
  8
0
  6
Continuous
 62
     7
370
    18
100
AcDbTrace
 10
323.9404645477
 20
129.5861858191
 30
0.0
 11
323.4324645477
 21
126.2841858191
 31
0.0
 12
324.4484645477
 22
126.2841858191
 32
0.0
 13
324.4484645477
 23
126.2841858191
 33
0.0
  0
SOLID
  5
237
330
233
100
AcDbEntity
  8
0
  6
Continuous
 62
     7
370
    18
100
AcDbTrace
 10
323.9404645477
 20
121.5861858191
 30
0.0
 11
324.4484645477
 21
124.8881858191
 31
0.0
 12
323.4324645477
 22
124.8881858191
 32
0.0
 13
323.4324645477
 23
124.8881858191
 33
0.0
  0
LINE
  5
238
330
233
100
AcDbEntity
  8
0
  6
Continuous
 62
     7
370
    18
100
AcDbLine
 10
336.1404645477
 20
129.5861858191
 30
0.0
 11
322.9404645477
 21
129.5861858191
 31
0.0
  0
LINE
  5
239
330
233
100
AcDbEntity
  8
0
  6
Continuous
 62
     7
370
    18
100
AcDbLine
 10
332.9404645477
 20
121.5861858191
 30
0.0
 11
322.9404645477
 21
121.5861858191
 31
0.0
  0
LINE
  5
23A
330
233
100
AcDbEntity
  8
0
  6
Continuous
 62
     7
370
    18
100
AcDbLine
 10
323.9404645477
 20
129.5861858191
 30
0.0
 11
323.9404645477
 21
121.5861858191
 31
0.0
  0
LINE
  5
23B
330
233
100
AcDbEntity
  8
0
  6
Continuous
 62
     7
370
    18
100
AcDbLine
 10
323.9404645477
 20
121.5861858191
 30
0.0
 11
323.9404645477
 21
114.6917552215
 31
0.0
  0
MTEXT
  5
23C
330
233
100
AcDbEntity
  8
0
  6
Continuous
 62
     7
370
    18
100
AcDbMText
 10
319.4287276331
 20
114.6917552215
 30
0.0
 40
3.5
 41
0.0
 71
     1
 72
     1
  1
8
  7
SLDTEXTSTYLE0
 11
-7.044195017643634E-15
 21
1.0
 31
0.0
 73
     1
 44
1.0
  0
ENDBLK
  5
235
330
233
100
AcDbEntity
  8
0
100
AcDbBlockEnd
  0
BLOCK
  5
23F
330
23E
100
AcDbEntity
  8
0
100
AcDbBlockBegin
  2
_D_14
 70
     0
 10
0.0
 20
0.0
 30
0.0
  3
_D_14
  1

  0
SOLID
  5
241
330
23E
100
AcDbEntity
  8
0
  6
Continuous
 62
     7
370
    18
100
AcDbTrace
 10
317.9404645477
 20
121.5861858191
 30
0.0
 11
318.4484645477
 21
124.8881858191
 31
0.0
 12
317.4324645477
 22
124.8881858191
 32
0.0
 13
317.4324645477
 23
124.8881858191
 33
0.0
  0
SOLID
  5
242
330
23E
100
AcDbEntity
  8
0
  6
Continuous
 62
     7
370
    18
100
AcDbTrace
 10
317.9404645477
 20
141.5861858191
 30
0.0
 11
317.4324645477
 21
138.2841858191
 31
0.0
 12
318.4484645477
 22
138.2841858191
 32
0.0
 13
318.4484645477
 23
138.2841858191
 33
0.0
  0
LINE
  5
243
330
23E
100
AcDbEntity
  8
0
  6
Continuous
 62
     7
370
    18
100
AcDbLine
 10
332.9404645477
 20
121.5861858191
 30
0.0
 11
316.9404645477
 21
121.5861858191
 31
0.0
  0
LINE
  5
244
330
23E
100
AcDbEntity
  8
0
  6
Continuous
 62
     7
370
    18
100
AcDbLine
 10
336.4404645477
 20
141.5861858191
 30
0.0
 11
316.9404645477
 21
141.5861858191
 31
0.0
  0
LINE
  5
245
330
23E
100
AcDbEntity
  8
0
  6
Continuous
 62
     7
370
    18
100
AcDbLine
 10
317.9404645477
 20
121.5861858191
 30
0.0
 11
317.9404645477
 21
141.5861858191
 31
0.0
  0
MTEXT
  5
246
330
23E
100
AcDbEntity
  8
0
  6
Continuous
 62
     7
370
    18
100
AcDbMText
 10
313.4287276331
 20
129.9523003756
 30
0.0
 40
3.5
 41
0.0
 71
     1
 72
     1
  1
20
  7
SLDTEXTSTYLE0
 11
6.123233995736766E-17
 21
1.0
 31
0.0
 73
     1
 44
1.0
  0
ENDBLK
  5
240
330
23E
100
AcDbEntity
  8
0
100
AcDbBlockEnd
  0
BLOCK
  5
249
330
248
100
AcDbEntity
  8
0
100
AcDbBlockBegin
  2
_D_15
 70
     0
 10
0.0
 20
0.0
 30
0.0
  3
_D_15
  1

  0
SOLID
  5
24B
330
248
100
AcDbEntity
  8
0
  6
Continuous
 62
     7
370
    18
100
AcDbTrace
 10
317.9404645477
 20
181.5861858191
 30
0.0
 11
317.4324645477
 21
178.2841858191
 31
0.0
 12
318.4484645477
 22
178.2841858191
 32
0.0
 13
318.4484645477
 23
178.2841858191
 33
0.0
  0
SOLID
  5
24C
330
248
100
AcDbEntity
  8
0
  6
Continuous
 62
     7
370
    18
100
AcDbTrace
 10
317.9404645477
 20
161.5861858191
 30
0.0
 11
318.4484645477
 21
164.8881858191
 31
0.0
 12
317.4324645477
 22
164.8881858191
 32
0.0
 13
317.4324645477
 23
164.8881858191
 33
0.0
  0
LINE
  5
24D
330
248
100
AcDbEntity
  8
0
  6
Continuous
 62
     7
370
    18
100
AcDbLine
 10
332.9404645477
 20
181.5861858191
 30
0.0
 11
316.9404645477
 21
181.5861858191
 31
0.0
  0
LINE
  5
24E
330
248
100
AcDbEntity
  8
0
  6
Continuous
 62
     7
370
    18
100
AcDbLine
 10
336.4404645477
 20
161.5861858191
 30
0.0
 11
316.9404645477
 21
161.5861858191
 31
0.0
  0
LINE
  5
24F
330
248
100
AcDbEntity
  8
0
  6
Continuous
 62
     7
370
    18
100
AcDbLine
 10
317.9404645477
 20
181.5861858191
 30
0.0
 11
317.9404645477
 21
161.5861858191
 31
0.0
  0
MTEXT
  5
250
330
248
100
AcDbEntity
  8
0
  6
Continuous
 62
     7
370
    18
100
AcDbMText
 10
313.4287276331
 20
171.531817222
 30
0.0
 40
3.5
 41
0.0
 71
     1
 72
     1
  1
20
  7
SLDTEXTSTYLE0
 11
-7.044195017643634E-15
 21
1.0
 31
0.0
 73
     1
 44
1.0
  0
ENDBLK
  5
24A
330
248
100
AcDbEntity
  8
0
100
AcDbBlockEnd
  0
BLOCK
  5
253
330
252
100
AcDbEntity
  8
0
100
AcDbBlockBegin
  2
_D_16
 70
     0
 10
0.0
 20
0.0
 30
0.0
  3
_D_16
  1

  0
SOLID
  5
255
330
252
100
AcDbEntity
  8
0
  6
Continuous
 62
     7
370
    18
100
AcDbTrace
 10
333.9404645477
 20
108.0338687254
 30
0.0
 11
330.6384645477
 21
108.5418687254
 31
0.0
 12
330.6384645477
 22
107.5258687254
 32
0.0
 13
330.6384645477
 23
107.5258687254
 33
0.0
  0
SOLID
  5
256
330
252
100
AcDbEntity
  8
0
  6
Continuous
 62
     7
370
    18
100
AcDbTrace
 10
342.9404645477
 20
108.0338687254
 30
0.0
 11
346.2424645477
 21
107.5258687254
 31
0.0
 12
346.2424645477
 22
108.5418687254
 32
0.0
 13
346.2424645477
 23
108.5418687254
 33
0.0
  0
LINE
  5
257
330
252
100
AcDbEntity
  8
0
  6
Continuous
 62
     7
370
    18
100
AcDbLine
 10
333.9404645477
 20
120.5861858191
 30
0.0
 11
333.9404645477
 21
107.0338687254
 31
0.0
  0
LINE
  5
258
330
252
100
AcDbEntity
  8
0
  6
Continuous
 62
     7
370
    18
100
AcDbLine
 10
342.9404645477
 20
166.7861858191
 30
0.0
 11
342.9404645477
 21
107.0338687254
 31
0.0
  0
LINE
  5
259
330
252
100
AcDbEntity
  8
0
  6
Continuous
 62
     7
370
    18
100
AcDbLine
 10
333.9404645477
 20
108.0338687254
 30
0.0
 11
327.5904645477
 21
108.0338687254
 31
0.0
  0
LINE
  5
25A
330
252
100
AcDbEntity
  8
0
  6
Continuous
 62
     7
370
    18
100
AcDbLine
 10
333.9404645477
 20
108.0338687254
 30
0.0
 11
342.9404645477
 21
108.0338687254
 31
0.0
  0
LINE
  5
25B
330
252
100
AcDbEntity
  8
0
  6
Continuous
 62
     7
370
    18
100
AcDbLine
 10
342.9404645477
 20
108.0338687254
 30
0.0
 11
349.2904645477
 21
108.0338687254
 31
0.0
  0
MTEXT
  5
25C
330
252
100
AcDbEntity
  8
0
  6
Continuous
 62
     7
370
    18
100
AcDbMText
 10
336.7880409829
 20
112.54560564
 30
0.0
 40
3.5
 41
0.0
 71
     1
 72
     1
  1
9
  7
SLDTEXTSTYLE0
 73
     1
 44
1.0
  0
ENDBLK
  5
254
330
252
100
AcDbEntity
  8
0
100
AcDbBlockEnd
  0
BLOCK
  5
25F
330
25E
100
AcDbEntity
  8
0
100
AcDbBlockBegin
  2
_D_17
 70
     0
 10
0.0
 20
0.0
 30
0.0
  3
_D_17
  1

  0
SOLID
  5
261
330
25E
100
AcDbEntity
  8
0
  6
Continuous
 62
     7
370
    18
100
AcDbTrace
 10
353.9404645477
 20
99.5861858191
 30
0.0
 11
350.6384645477
 21
100.0941858191
 31
0.0
 12
350.6384645477
 22
99.0781858191
 32
0.0
 13
350.6384645477
 23
99.0781858191
 33
0.0
  0
SOLID
  5
262
330
25E
100
AcDbEntity
  8
0
  6
Continuous
 62
     7
370
    18
100
AcDbTrace
 10
333.9404645477
 20
99.5861858191
 30
0.0
 11
337.2424645477
 21
99.0781858191
 31
0.0
 12
337.2424645477
 22
100.0941858191
 32
0.0
 13
337.2424645477
 23
100.0941858191
 33
0.0
  0
LINE
  5
263
330
25E
100
AcDbEntity
  8
0
  6
Continuous
 62
     7
370
    18
100
AcDbLine
 10
353.9404645477
 20
120.5861858191
 30
0.0
 11
353.9404645477
 21
98.5861858191
 31
0.0
  0
LINE
  5
264
330
25E
100
AcDbEntity
  8
0
  6
Continuous
 62
     7
370
    18
100
AcDbLine
 10
333.9404645477
 20
120.5861858191
 30
0.0
 11
333.9404645477
 21
98.5861858191
 31
0.0
  0
LINE
  5
265
330
25E
100
AcDbEntity
  8
0
  6
Continuous
 62
     7
370
    18
100
AcDbLine
 10
353.9404645477
 20
99.5861858191
 30
0.0
 11
333.9404645477
 21
99.5861858191
 31
0.0
  0
MTEXT
  5
266
330
25E
100
AcDbEntity
  8
0
  6
Continuous
 62
     7
370
    18
100
AcDbMText
 10
341.3604344711
 20
104.0979227336
 30
0.0
 40
3.5
 41
0.0
 71
     1
 72
     1
  1
20
  7
SLDTEXTSTYLE0
 73
     1
 44
1.0
  0
ENDBLK
  5
260
330
25E
100
AcDbEntity
  8
0
100
AcDbBlockEnd
  0
BLOCK
  5
268
330
267
100
AcDbEntity
  8
0
100
AcDbBlockBegin
  2
SW_CENTERMARKSYMBOL_4
 70
     0
 10
0.0
 20
0.0
 30
0.0
  3
SW_CENTERMARKSYMBOL_4
  1

  0
LINE
  5
26A
330
267
100
AcDbEntity
  8
0
  6
Continuous
 62
     0
370
     0
100
AcDbLine
 10
0.0
 20
0.0
 30
0.0
 11
0.0
 21
2.5
 31
0.0
  0
LINE
  5
26B
330
267
100
AcDbEntity
  8
0
  6
Continuous
 62
     0
370
     0
100
AcDbLine
 10
0.0
 20
0.0
 30
0.0
 11
-2.5
 21
0.0
 31
0.0
  0
LINE
  5
26C
330
267
100
AcDbEntity
  8
0
  6
Continuous
 62
     0
370
     0
100
AcDbLine
 10
0.0
 20
0.0
 30
0.0
 11
0.0
 21
-2.5
 31
0.0
  0
LINE
  5
26D
330
267
100
AcDbEntity
  8
0
  6
Continuous
 62
     0
370
     0
100
AcDbLine
 10
0.0
 20
0.0
 30
0.0
 11
2.5
 21
0.0
 31
0.0
  0
LINE
  5
26E
330
267
100
AcDbEntity
  8
0
  6
Continuous
 62
     0
370
     0
100
AcDbLine
 10
0.0
 20
5.0
 30
0.0
 11
0.0
 21
5.8
 31
0.0
  0
LINE
  5
26F
330
267
100
AcDbEntity
  8
0
  6
Continuous
 62
     0
370
     0
100
AcDbLine
 10
-5.0
 20
0.0
 30
0.0
 11
-5.8
 21
0.0
 31
0.0
  0
LINE
  5
270
330
267
100
AcDbEntity
  8
0
  6
Continuous
 62
     0
370
     0
100
AcDbLine
 10
0.0
 20
-5.0
 30
0.0
 11
0.0
 21
-5.8
 31
0.0
  0
LINE
  5
271
330
267
100
AcDbEntity
  8
0
  6
Continuous
 62
     0
370
     0
100
AcDbLine
 10
5.0
 20
0.0
 30
0.0
 11
5.8
 21
0.0
 31
0.0
  0
ENDBLK
  5
269
330
267
100
AcDbEntity
  8
0
100
AcDbBlockEnd
  0
BLOCK
  5
274
330
273
100
AcDbEntity
  8
0
100
AcDbBlockBegin
  2
SW_CENTERMARKSYMBOL_5
 70
     0
 10
0.0
 20
0.0
 30
0.0
  3
SW_CENTERMARKSYMBOL_5
  1

  0
LINE
  5
276
330
273
100
AcDbEntity
  8
0
  6
Continuous
 62
     0
370
     0
100
AcDbLine
 10
0.0
 20
0.0
 30
0.0
 11
0.0
 21
2.5
 31
0.0
  0
LINE
  5
277
330
273
100
AcDbEntity
  8
0
  6
Continuous
 62
     0
370
     0
100
AcDbLine
 10
0.0
 20
0.0
 30
0.0
 11
-2.5
 21
0.0
 31
0.0
  0
LINE
  5
278
330
273
100
AcDbEntity
  8
0
  6
Continuous
 62
     0
370
     0
100
AcDbLine
 10
0.0
 20
0.0
 30
0.0
 11
0.0
 21
-2.5
 31
0.0
  0
LINE
  5
279
330
273
100
AcDbEntity
  8
0
  6
Continuous
 62
     0
370
     0
100
AcDbLine
 10
0.0
 20
0.0
 30
0.0
 11
2.5
 21
0.0
 31
0.0
  0
LINE
  5
27A
330
273
100
AcDbEntity
  8
0
  6
Continuous
 62
     0
370
     0
100
AcDbLine
 10
0.0
 20
5.0
 30
0.0
 11
0.0
 21
5.8
 31
0.0
  0
LINE
  5
27B
330
273
100
AcDbEntity
  8
0
  6
Continuous
 62
     0
370
     0
100
AcDbLine
 10
-5.0
 20
0.0
 30
0.0
 11
-5.8
 21
0.0
 31
0.0
  0
LINE
  5
27C
330
273
100
AcDbEntity
  8
0
  6
Continuous
 62
     0
370
     0
100
AcDbLine
 10
0.0
 20
-5.0
 30
0.0
 11
0.0
 21
-5.8
 31
0.0
  0
LINE
  5
27D
330
273
100
AcDbEntity
  8
0
  6
Continuous
 62
     0
370
     0
100
AcDbLine
 10
5.0
 20
0.0
 30
0.0
 11
5.8
 21
0.0
 31
0.0
  0
ENDBLK
  5
275
330
273
100
AcDbEntity
  8
0
100
AcDbBlockEnd
  0
BLOCK
  5
280
330
27F
100
AcDbEntity
  8
0
100
AcDbBlockBegin
  2
SW_CENTERMARKSYMBOL_6
 70
     0
 10
0.0
 20
0.0
 30
0.0
  3
SW_CENTERMARKSYMBOL_6
  1

  0
LINE
  5
282
330
27F
100
AcDbEntity
  8
0
  6
Continuous
 62
     0
370
     0
100
AcDbLine
 10
0.0
 20
0.0
 30
0.0
 11
0.0
 21
2.5
 31
0.0
  0
LINE
  5
283
330
27F
100
AcDbEntity
  8
0
  6
Continuous
 62
     0
370
     0
100
AcDbLine
 10
0.0
 20
0.0
 30
0.0
 11
-2.5
 21
0.0
 31
0.0
  0
LINE
  5
284
330
27F
100
AcDbEntity
  8
0
  6
Continuous
 62
     0
370
     0
100
AcDbLine
 10
0.0
 20
0.0
 30
0.0
 11
0.0
 21
-2.5
 31
0.0
  0
LINE
  5
285
330
27F
100
AcDbEntity
  8
0
  6
Continuous
 62
     0
370
     0
100
AcDbLine
 10
0.0
 20
0.0
 30
0.0
 11
2.5
 21
0.0
 31
0.0
  0
LINE
  5
286
330
27F
100
AcDbEntity
  8
0
  6
Continuous
 62
     0
370
     0
100
AcDbLine
 10
0.0
 20
5.0
 30
0.0
 11
0.0
 21
5.5
 31
0.0
  0
LINE
  5
287
330
27F
100
AcDbEntity
  8
0
  6
Continuous
 62
     0
370
     0
100
AcDbLine
 10
-5.0
 20
0.0
 30
0.0
 11
-5.5
 21
0.0
 31
0.0
  0
LINE
  5
288
330
27F
100
AcDbEntity
  8
0
  6
Continuous
 62
     0
370
     0
100
AcDbLine
 10
0.0
 20
-5.0
 30
0.0
 11
0.0
 21
-5.5
 31
0.0
  0
LINE
  5
289
330
27F
100
AcDbEntity
  8
0
  6
Continuous
 62
     0
370
     0
100
AcDbLine
 10
5.0
 20
0.0
 30
0.0
 11
5.5
 21
0.0
 31
0.0
  0
ENDBLK
  5
281
330
27F
100
AcDbEntity
  8
0
100
AcDbBlockEnd
  0
BLOCK
  5
28C
330
28B
100
AcDbEntity
  8
0
100
AcDbBlockBegin
  2
SW_CENTERMARKSYMBOL_7
 70
     0
 10
0.0
 20
0.0
 30
0.0
  3
SW_CENTERMARKSYMBOL_7
  1

  0
LINE
  5
28E
330
28B
100
AcDbEntity
  8
0
  6
Continuous
 62
     0
370
     0
100
AcDbLine
 10
0.0
 20
0.0
 30
0.0
 11
0.0
 21
2.5
 31
0.0
  0
LINE
  5
28F
330
28B
100
AcDbEntity
  8
0
  6
Continuous
 62
     0
370
     0
100
AcDbLine
 10
0.0
 20
0.0
 30
0.0
 11
-2.5
 21
0.0
 31
0.0
  0
LINE
  5
290
330
28B
100
AcDbEntity
  8
0
  6
Continuous
 62
     0
370
     0
100
AcDbLine
 10
0.0
 20
0.0
 30
0.0
 11
0.0
 21
-2.5
 31
0.0
  0
LINE
  5
291
330
28B
100
AcDbEntity
  8
0
  6
Continuous
 62
     0
370
     0
100
AcDbLine
 10
0.0
 20
0.0
 30
0.0
 11
2.5
 21
0.0
 31
0.0
  0
LINE
  5
292
330
28B
100
AcDbEntity
  8
0
  6
Continuous
 62
     0
370
     0
100
AcDbLine
 10
0.0
 20
5.0
 30
0.0
 11
0.0
 21
5.5
 31
0.0
  0
LINE
  5
293
330
28B
100
AcDbEntity
  8
0
  6
Continuous
 62
     0
370
     0
100
AcDbLine
 10
-5.0
 20
0.0
 30
0.0
 11
-5.5
 21
0.0
 31
0.0
  0
LINE
  5
294
330
28B
100
AcDbEntity
  8
0
  6
Continuous
 62
     0
370
     0
100
AcDbLine
 10
0.0
 20
-5.0
 30
0.0
 11
0.0
 21
-5.5
 31
0.0
  0
LINE
  5
295
330
28B
100
AcDbEntity
  8
0
  6
Continuous
 62
     0
370
     0
100
AcDbLine
 10
5.0
 20
0.0
 30
0.0
 11
5.5
 21
0.0
 31
0.0
  0
ENDBLK
  5
28D
330
28B
100
AcDbEntity
  8
0
100
AcDbBlockEnd
  0
BLOCK
  5
2A0
330
29F
100
AcDbEntity
  8
0
100
AcDbBlockBegin
  2
SW_DOWELSYMBOL_2
 70
     0
 10
0.0
 20
0.0
 30
0.0
  3
SW_DOWELSYMBOL_2
  1

  0
CIRCLE
  5
2A2
330
29F
100
AcDbEntity
  8
0
  6
Continuous
 62
     0
370
     0
100
AcDbCircle
 10
0.0
 20
0.0
 30
0.0
 40
3.000000000000003
  0
HATCH
  5
2A3
330
29F
100
AcDbEntity
  8
0
  6
Continuous
 62
     0
370
     0
100
AcDbHatch
 10
0.0
 20
0.0
 30
0.0
210
0.0
220
0.0
230
1.0
  2
SOLID
 70
     1
 71
     0
 91
        1
 92
        0
 93
        3
 72
     2
 10
0.0
 20
0.0
 40
3.000000000000003
 50
0.0
 51
90.0
 73
     1
 72
     1
 10
0.0
 20
3.000000000000003
 11
0.0
 21
0.0
 72
     1
 10
0.0
 20
0.0
 11
3.000000000000003
 21
0.0
 97
        0
 75
     0
 76
     1
 98
        1
 10
0.0
 20
0.0
  0
HATCH
  5
2A4
330
29F
100
AcDbEntity
  8
0
  6
Continuous
 62
     0
370
     0
100
AcDbHatch
 10
0.0
 20
0.0
 30
0.0
210
0.0
220
0.0
230
1.0
  2
SOLID
 70
     1
 71
     0
 91
        1
 92
        0
 93
        3
 72
     2
 10
0.0
 20
0.0
 40
3.000000000000003
 50
180.0
 51
270.0000000000008
 73
     1
 72
     1
 10
0.0
 20
-3.000000000000003
 11
0.0
 21
0.0
 72
     1
 10
0.0
 20
0.0
 11
-3.000000000000003
 21
0.0
 97
        0
 75
     0
 76
     1
 98
        1
 10
0.0
 20
0.0
  0
ENDBLK
  5
2A1
330
29F
100
AcDbEntity
  8
0
100
AcDbBlockEnd
  0
BLOCK
  5
2A7
330
2A6
100
AcDbEntity
  8
0
100
AcDbBlockBegin
  2
SW_DOWELSYMBOL_3
 70
     0
 10
0.0
 20
0.0
 30
0.0
  3
SW_DOWELSYMBOL_3
  1

  0
CIRCLE
  5
2A9
330
2A6
100
AcDbEntity
  8
0
  6
Continuous
 62
     0
370
     0
100
AcDbCircle
 10
0.0
 20
0.0
 30
0.0
 40
3.000000000000003
  0
HATCH
  5
2AA
330
2A6
100
AcDbEntity
  8
0
  6
Continuous
 62
     0
370
     0
100
AcDbHatch
 10
0.0
 20
0.0
 30
0.0
210
0.0
220
0.0
230
1.0
  2
SOLID
 70
     1
 71
     0
 91
        1
 92
        0
 93
        3
 72
     2
 10
0.0
 20
0.0
 40
3.000000000000003
 50
0.0
 51
90.0
 73
     1
 72
     1
 10
0.0
 20
3.000000000000003
 11
0.0
 21
0.0
 72
     1
 10
0.0
 20
0.0
 11
3.000000000000003
 21
0.0
 97
        0
 75
     0
 76
     1
 98
        1
 10
0.0
 20
0.0
  0
HATCH
  5
2AB
330
2A6
100
AcDbEntity
  8
0
  6
Continuous
 62
     0
370
     0
100
AcDbHatch
 10
0.0
 20
0.0
 30
0.0
210
0.0
220
0.0
230
1.0
  2
SOLID
 70
     1
 71
     0
 91
        1
 92
        0
 93
        3
 72
     2
 10
0.0
 20
0.0
 40
3.000000000000003
 50
180.0
 51
270.0000000000008
 73
     1
 72
     1
 10
0.0
 20
-3.000000000000003
 11
0.0
 21
0.0
 72
     1
 10
0.0
 20
0.0
 11
-3.000000000000003
 21
0.0
 97
        0
 75
     0
 76
     1
 98
        1
 10
0.0
 20
0.0
  0
ENDBLK
  5
2A8
330
2A6
100
AcDbEntity
  8
0
100
AcDbBlockEnd
  0
BLOCK
  5
2BE
330
2BD
100
AcDbEntity
  8
0
100
AcDbBlockBegin
  2
_D_18
 70
     0
 10
0.0
 20
0.0
 30
0.0
  3
_D_18
  1

  0
SOLID
  5
2C0
330
2BD
100
AcDbEntity
  8
0
  6
Continuous
 62
     7
370
    18
100
AcDbTrace
 10
339.9404645477
 20
224.5956559073
 30
0.0
 11
336.6384645477
 21
225.1036559073
 31
0.0
 12
336.6384645477
 22
224.0876559073
 32
0.0
 13
336.6384645477
 23
224.0876559073
 33
0.0
  0
SOLID
  5
2C1
330
2BD
100
AcDbEntity
  8
0
  6
Continuous
 62
     7
370
    18
100
AcDbTrace
 10
345.9404645477
 20
224.5956559073
 30
0.0
 11
349.2424645477
 21
224.0876559073
 31
0.0
 12
349.2424645477
 22
225.1036559073
 32
0.0
 13
349.2424645477
 23
225.1036559073
 33
0.0
  0
LINE
  5
2C2
330
2BD
100
AcDbEntity
  8
0
  6
Continuous
 62
     7
370
    18
100
AcDbLine
 10
339.9404645477
 20
237.5836672549
 30
0.0
 11
339.9404645477
 21
223.5956559073
 31
0.0
  0
LINE
  5
2C3
330
2BD
100
AcDbEntity
  8
0
  6
Continuous
 62
     7
370
    18
100
AcDbLine
 10
345.9404645477
 20
237.5836672549
 30
0.0
 11
345.9404645477
 21
223.5956559073
 31
0.0
  0
LINE
  5
2C4
330
2BD
100
AcDbEntity
  8
0
  6
Continuous
 62
     7
370
    18
100
AcDbLine
 10
339.9404645477
 20
224.5956559073
 30
0.0
 11
319.4070735778
 21
224.5956559073
 31
0.0
  0
LINE
  5
2C5
330
2BD
100
AcDbEntity
  8
0
  6
Continuous
 62
     7
370
    18
100
AcDbLine
 10
339.9404645477
 20
224.5956559073
 30
0.0
 11
345.9404645477
 21
224.5956559073
 31
0.0
  0
LINE
  5
2C6
330
2BD
100
AcDbEntity
  8
0
  6
Continuous
 62
     7
370
    18
100
AcDbLine
 10
345.9404645477
 20
224.5956559073
 30
0.0
 11
352.2904645477
 21
224.5956559073
 31
0.0
  0
MTEXT
  5
2C7
330
2BD
100
AcDbEntity
  8
0
  6
Continuous
 62
     7
370
    18
100
AcDbMText
 10
319.4070735778
 20
229.1073929965
 30
0.0
 40
3.5
 41
0.0
 71
     1
 72
     1
  1
%%c
  7
SLDTEXTSTYLE0
 73
     1
 44
1.0
  0
MTEXT
  5
2C8
330
2BD
100
AcDbEntity
  8
0
  6
Continuous
 62
     7
370
    18
100
AcDbMText
 10
324.6855109762
 20
229.1608651732
 30
0.0
 40
3.5
 41
0.0
 71
     1
 72
     1
  1
6
  7
SLDTEXTSTYLE0
 73
     1
 44
1.0
  0
MTEXT
  5
2C9
330
2BD
100
AcDbEntity
  8
0
  6
Continuous
 62
     7
370
    18
100
AcDbMText
 10
328.5841224025
 20
229.1608651732
 30
0.0
 40
3.5
 41
0.0
 71
     1
 72
     1
  1
H7
  7
SLDTEXTSTYLE0
 73
     1
 44
1.0
  0
ENDBLK
  5
2BF
330
2BD
100
AcDbEntity
  8
0
100
AcDbBlockEnd
  0
BLOCK
  5
2CC
330
2CB
100
AcDbEntity
  8
0
100
AcDbBlockBegin
  2
_D_19
 70
     0
 10
0.0
 20
0.0
 30
0.0
  3
_D_19
  1

  0
SOLID
  5
2CE
330
2CB
100
AcDbEntity
  8
0
  6
Continuous
 62
     7
370
    18
100
AcDbTrace
 10
361.198759216
 20
238.5836672549
 30
0.0
 11
360.690759216
 21
235.2816672549
 31
0.0
 12
361.706759216
 22
235.2816672549
 32
0.0
 13
361.706759216
 23
235.2816672549
 33
0.0
  0
SOLID
  5
2CF
330
2CB
100
AcDbEntity
  8
0
  6
Continuous
 62
     7
370
    18
100
AcDbTrace
 10
361.198759216
 20
242.5836672549
 30
0.0
 11
361.706759216
 21
245.8856672549
 31
0.0
 12
360.690759216
 22
245.8856672549
 32
0.0
 13
360.690759216
 23
245.8856672549
 33
0.0
  0
LINE
  5
2D0
330
2CB
100
AcDbEntity
  8
0
  6
Continuous
 62
     7
370
    18
100
AcDbLine
 10
354.9404645477
 20
238.5836672549
 30
0.0
 11
362.198759216
 21
238.5836672549
 31
0.0
  0
LINE
  5
2D1
330
2CB
100
AcDbEntity
  8
0
  6
Continuous
 62
     7
370
    18
100
AcDbLine
 10
354.9404645477
 20
242.5836672549
 30
0.0
 11
362.198759216
 21
242.5836672549
 31
0.0
  0
LINE
  5
2D2
330
2CB
100
AcDbEntity
  8
0
  6
Continuous
 62
     7
370
    18
100
AcDbLine
 10
361.198759216
 20
238.5836672549
 30
0.0
 11
361.198759216
 21
227.2906116582
 31
0.0
  0
LINE
  5
2D3
330
2CB
100
AcDbEntity
  8
0
  6
Continuous
 62
     7
370
    18
100
AcDbLine
 10
361.198759216
 20
238.5836672549
 30
0.0
 11
361.198759216
 21
242.5836672549
 31
0.0
  0
LINE
  5
2D4
330
2CB
100
AcDbEntity
  8
0
  6
Continuous
 62
     7
370
    18
100
AcDbLine
 10
361.198759216
 20
242.5836672549
 30
0.0
 11
361.198759216
 21
248.9336672549
 31
0.0
  0
MTEXT
  5
2D5
330
2CB
100
AcDbEntity
  8
0
  6
Continuous
 62
     7
370
    18
100
AcDbMText
 10
356.6870223015
 20
227.2906116582
 30
0.0
 40
3.5
 41
0.0
 71
     1
 72
     1
  1
4
  7
SLDTEXTSTYLE0
 11
6.123233995736766E-17
 21
1.0
 31
0.0
 73
     1
 44
1.0
  0
ENDBLK
  5
2CD
330
2CB
100
AcDbEntity
  8
0
100
AcDbBlockEnd
  0
BLOCK
  5
2D8
330
2D7
100
AcDbEntity
  8
0
100
AcDbBlockBegin
  2
_D_20
 70
     0
 10
0.0
 20
0.0
 30
0.0
  3
_D_20
  1

  0
ARC
  5
2DA
330
2D7
100
AcDbEntity
  8
0
  6
Continuous
 62
     7
370
    18
100
AcDbCircle
 10
353.9404645477
 20
242.5836672549
 30
0.0
 40
19.99485415149599
100
AcDbArc
 50
90.0
 51
120.0
  0
ARC
  5
2DB
330
2D7
100
AcDbEntity
  8
0
  6
Continuous
 62
     7
370
    18
100
AcDbCircle
 10
353.9404645477
 20
242.5836672549
 30
0.0
 40
19.99485415149599
100
AcDbArc
 50
71.9981897038
 51
90.0
  0
ARC
  5
2DC
330
2D7
100
AcDbEntity
  8
0
  6
Continuous
 62
     7
370
    18
100
AcDbCircle
 10
353.9404645477
 20
242.5836672549
 30
0.0
 40
19.99485415149601
100
AcDbArc
 50
120.0
 51
138.0018102962
  0
SOLID
  5
2DD
330
2D7
100
AcDbEntity
  8
0
  6
Continuous
 62
     7
370
    18
100
AcDbTrace
 10
353.9404645477
 20
262.5785214064
 30
0.0
 11
357.1898900425
 21
261.8023114131
 31
0.0
 12
357.2729392661
 22
262.8149114459
 32
0.0
 13
357.2729392661
 23
262.8149114459
 33
0.0
  0
SOLID
  5
2DE
330
2D7
100
AcDbEntity
  8
0
  6
Continuous
 62
     7
370
    18
100
AcDbTrace
 10
343.9430374719
 20
259.8997188951
 30
0.0
 11
340.9388346885
 21
258.4382013152
 31
0.0
 12
341.5170574424
 22
257.6027885748
 32
0.0
 13
341.5170574424
 23
257.6027885748
 33
0.0
  0
LINE
  5
2DF
330
2D7
100
AcDbEntity
  8
0
  6
Continuous
 62
     7
370
    18
100
AcDbLine
 10
353.9404645477
 20
243.5836672549
 30
0.0
 11
353.9404645477
 21
263.5785214064
 31
0.0
  0
LINE
  5
2E0
330
2D7
100
AcDbEntity
  8
0
  6
Continuous
 62
     7
370
    18
100
AcDbLine
 10
351.4197386055
 20
246.9496926587
 30
0.0
 11
343.4430374719
 21
260.7657442989
 31
0.0
  0
MTEXT
  5
2E1
330
2D7
100
AcDbEntity
  8
0
  6
Continuous
 62
     7
370
    18
100
AcDbMText
 10
345.0896922728
 20
265.7055903013
 30
0.0
 40
3.5
 41
0.0
 71
     1
 72
     1
  1
30°
  7
SLDTEXTSTYLE0
 11
0.9752509246755893
 21
0.2211009586578224
 31
0.0
 73
     1
 44
1.0
  0
ENDBLK
  5
2D9
330
2D7
100
AcDbEntity
  8
0
100
AcDbBlockEnd
  0
BLOCK
  5
2E4
330
2E3
100
AcDbEntity
  8
0
100
AcDbBlockBegin
  2
_D_21
 70
     0
 10
0.0
 20
0.0
 30
0.0
  3
_D_21
  1

  0
SOLID
  5
2E6
330
2E3
100
AcDbEntity
  8
0
  6
Continuous
 62
     7
370
    18
100
AcDbTrace
 10
320.8913588097
 20
246.0836672549
 30
0.0
 11
320.3833588097
 21
242.7816672549
 31
0.0
 12
321.3993588097
 22
242.7816672549
 32
0.0
 13
321.3993588097
 23
242.7816672549
 33
0.0
  0
SOLID
  5
2E7
330
2E3
100
AcDbEntity
  8
0
  6
Continuous
 62
     7
370
    18
100
AcDbTrace
 10
320.8913588097
 20
238.5836672549
 30
0.0
 11
321.3993588097
 21
241.8856672549
 31
0.0
 12
320.3833588097
 22
241.8856672549
 32
0.0
 13
320.3833588097
 23
241.8856672549
 33
0.0
  0
LINE
  5
2E8
330
2E3
100
AcDbEntity
  8
0
  6
Continuous
 62
     7
370
    18
100
AcDbLine
 10
332.9404645477
 20
246.0836672549
 30
0.0
 11
319.8913588097
 21
246.0836672549
 31
0.0
  0
LINE
  5
2E9
330
2E3
100
AcDbEntity
  8
0
  6
Continuous
 62
     7
370
    18
100
AcDbLine
 10
332.9404645477
 20
238.5836672549
 30
0.0
 11
319.8913588097
 21
238.5836672549
 31
0.0
  0
LINE
  5
2EA
330
2E3
100
AcDbEntity
  8
0
  6
Continuous
 62
     7
370
    18
100
AcDbLine
 10
320.8913588097
 20
246.0836672549
 30
0.0
 11
320.8913588097
 21
260.6093617854
 31
0.0
  0
LINE
  5
2EB
330
2E3
100
AcDbEntity
  8
0
  6
Continuous
 62
     7
370
    18
100
AcDbLine
 10
320.8913588097
 20
246.0836672549
 30
0.0
 11
320.8913588097
 21
238.5836672549
 31
0.0
  0
MTEXT
  5
2EC
330
2E3
100
AcDbEntity
  8
0
  6
Continuous
 62
     7
370
    18
100
AcDbMText
 10
316.3796218951
 20
251.5579727245
 30
0.0
 40
3.5
 41
0.0
 71
     1
 72
     1
  1
7,50
  7
SLDTEXTSTYLE0
 11
-7.044195017643634E-15
 21
1.0
 31
0.0
 73
     1
 44
1.0
  0
ENDBLK
  5
2E5
330
2E3
100
AcDbEntity
  8
0
100
AcDbBlockEnd
  0
BLOCK
  5
2FC
330
2FB
100
AcDbEntity
  8
0
100
AcDbBlockBegin
  2
_D_22
 70
     0
 10
0.0
 20
0.0
 30
0.0
  3
_D_22
  1

  0
SOLID
  5
2FE
330
2FB
100
AcDbEntity
  8
0
  6
Continuous
 62
     7
370
    18
100
AcDbTrace
 10
146.5655933983
 20
77.7861522783
 30
0.0
 11
146.0575933983
 21
74.4841522783
 31
0.0
 12
147.0735933983
 22
74.4841522783
 32
0.0
 13
147.0735933983
 23
74.4841522783
 33
0.0
  0
SOLID
  5
2FF
330
2FB
100
AcDbEntity
  8
0
  6
Continuous
 62
     7
370
    18
100
AcDbTrace
 10
146.5655933983
 20
82.7861522783
 30
0.0
 11
147.0735933983
 21
86.0881522783
 31
0.0
 12
146.0575933983
 22
86.0881522783
 32
0.0
 13
146.0575933983
 23
86.0881522783
 33
0.0
  0
LINE
  5
300
330
2FB
100
AcDbEntity
  8
0
  6
Continuous
 62
     7
370
    18
100
AcDbLine
 10
112.0655933983
 20
77.7861522783
 30
0.0
 11
147.5655933983
 21
77.7861522783
 31
0.0
  0
LINE
  5
301
330
2FB
100
AcDbEntity
  8
0
  6
Continuous
 62
     7
370
    18
100
AcDbLine
 10
125.5655933983
 20
82.7861522783
 30
0.0
 11
147.5655933983
 21
82.7861522783
 31
0.0
  0
LINE
  5
302
330
2FB
100
AcDbEntity
  8
0
  6
Continuous
 62
     7
370
    18
100
AcDbLine
 10
146.5655933983
 20
77.7861522783
 30
0.0
 11
146.5655933983
 21
71.4361522783
 31
0.0
  0
LINE
  5
303
330
2FB
100
AcDbEntity
  8
0
  6
Continuous
 62
     7
370
    18
100
AcDbLine
 10
146.5655933983
 20
77.7861522783
 30
0.0
 11
146.5655933983
 21
82.7861522783
 31
0.0
  0
LINE
  5
304
330
2FB
100
AcDbEntity
  8
0
  6
Continuous
 62
     7
370
    18
100
AcDbLine
 10
146.5655933983
 20
82.7861522783
 30
0.0
 11
146.5655933983
 21
94.079207875
 31
0.0
  0
MTEXT
  5
305
330
2FB
100
AcDbEntity
  8
0
  6
Continuous
 62
     7
370
    18
100
AcDbMText
 10
142.0538564837
 20
91.4930966815
 30
0.0
 40
3.5
 41
0.0
 71
     1
 72
     1
  1
5
  7
SLDTEXTSTYLE0
 11
2.832769448823990E-16
 21
1.0
 31
0.0
 73
     1
 44
1.0
  0
ENDBLK
  5
2FD
330
2FB
100
AcDbEntity
  8
0
100
AcDbBlockEnd
  0
BLOCK
  5
308
330
307
100
AcDbEntity
  8
0
100
AcDbBlockBegin
  2
_D_23
 70
     0
 10
0.0
 20
0.0
 30
0.0
  3
_D_23
  1

  0
SOLID
  5
30A
330
307
100
AcDbEntity
  8
0
  6
Continuous
 62
     7
370
    18
100
AcDbTrace
 10
146.5655933983
 20
63.7861522783
 30
0.0
 11
147.0735933983
 21
67.0881522783
 31
0.0
 12
146.0575933983
 22
67.0881522783
 32
0.0
 13
146.0575933983
 23
67.0881522783
 33
0.0
  0
SOLID
  5
30B
330
307
100
AcDbEntity
  8
0
  6
Continuous
 62
     7
370
    18
100
AcDbTrace
 10
146.5655933983
 20
58.7861522783
 30
0.0
 11
146.0575933983
 21
55.4841522783
 31
0.0
 12
147.0735933983
 22
55.4841522783
 32
0.0
 13
147.0735933983
 23
55.4841522783
 33
0.0
  0
LINE
  5
30C
330
307
100
AcDbEntity
  8
0
  6
Continuous
 62
     7
370
    18
100
AcDbLine
 10
112.0655933983
 20
63.7861522783
 30
0.0
 11
147.5655933983
 21
63.7861522783
 31
0.0
  0
LINE
  5
30D
330
307
100
AcDbEntity
  8
0
  6
Continuous
 62
     7
370
    18
100
AcDbLine
 10
125.5655933983
 20
58.7861522783
 30
0.0
 11
147.5655933983
 21
58.7861522783
 31
0.0
  0
LINE
  5
30E
330
307
100
AcDbEntity
  8
0
  6
Continuous
 62
     7
370
    18
100
AcDbLine
 10
146.5655933983
 20
63.7861522783
 30
0.0
 11
146.5655933983
 21
70.1361522783
 31
0.0
  0
LINE
  5
30F
330
307
100
AcDbEntity
  8
0
  6
Continuous
 62
     7
370
    18
100
AcDbLine
 10
146.5655933983
 20
63.7861522783
 30
0.0
 11
146.5655933983
 21
58.7861522783
 31
0.0
  0
LINE
  5
310
330
307
100
AcDbEntity
  8
0
  6
Continuous
 62
     7
370
    18
100
AcDbLine
 10
146.5655933983
 20
58.7861522783
 30
0.0
 11
146.5655933983
 21
51.6991839047
 31
0.0
  0
MTEXT
  5
311
330
307
100
AcDbEntity
  8
0
  6
Continuous
 62
     7
370
    18
100
AcDbMText
 10
142.0538564837
 20
51.6991839047
 30
0.0
 40
3.5
 41
0.0
 71
     1
 72
     1
  1
5
  7
SLDTEXTSTYLE0
 11
-7.044195017643634E-15
 21
1.0
 31
0.0
 73
     1
 44
1.0
  0
ENDBLK
  5
309
330
307
100
AcDbEntity
  8
0
100
AcDbBlockEnd
  0
BLOCK
  5
314
330
313
100
AcDbEntity
  8
0
100
AcDbBlockBegin
  2
_D_24
 70
     0
 10
0.0
 20
0.0
 30
0.0
  3
_D_24
  1

  0
SOLID
  5
316
330
313
100
AcDbEntity
  8
0
  6
Continuous
 62
     7
370
    18
100
AcDbTrace
 10
158.5655933983
 20
82.7861522783
 30
0.0
 11
158.0575933983
 21
79.4841522783
 31
0.0
 12
159.0735933983
 22
79.4841522783
 32
0.0
 13
159.0735933983
 23
79.4841522783
 33
0.0
  0
SOLID
  5
317
330
313
100
AcDbEntity
  8
0
  6
Continuous
 62
     7
370
    18
100
AcDbTrace
 10
158.5655933983
 20
58.7861522783
 30
0.0
 11
159.0735933983
 21
62.0881522783
 31
0.0
 12
158.0575933983
 22
62.0881522783
 32
0.0
 13
158.0575933983
 23
62.0881522783
 33
0.0
  0
LINE
  5
318
330
313
100
AcDbEntity
  8
0
  6
Continuous
 62
     7
370
    18
100
AcDbLine
 10
125.5655933983
 20
82.7861522783
 30
0.0
 11
159.5655933983
 21
82.7861522783
 31
0.0
  0
LINE
  5
319
330
313
100
AcDbEntity
  8
0
  6
Continuous
 62
     7
370
    18
100
AcDbLine
 10
125.5655933983
 20
58.7861522783
 30
0.0
 11
159.5655933983
 21
58.7861522783
 31
0.0
  0
LINE
  5
31A
330
313
100
AcDbEntity
  8
0
  6
Continuous
 62
     7
370
    18
100
AcDbLine
 10
158.5655933983
 20
82.7861522783
 30
0.0
 11
158.5655933983
 21
58.7861522783
 31
0.0
  0
MTEXT
  5
31B
330
313
100
AcDbEntity
  8
0
  6
Continuous
 62
     7
370
    18
100
AcDbMText
 10
154.0538564837
 20
65.3472656171
 30
0.0
 40
3.5
 41
0.0
 71
     1
 72
     1
  1
=
  7
SLDTEXTSTYLE0
 11
-7.044195017643634E-15
 21
1.0
 31
0.0
 73
     1
 44
1.0
  0
MTEXT
  5
31C
330
313
100
AcDbEntity
  8
0
  6
Continuous
 62
     7
370
    18
100
AcDbMText
 10
154.0538564837
 20
68.176432212
 30
0.0
 40
3.5
 41
0.0
 71
     1
 72
     1
  1
24
  7
SLDTEXTSTYLE0
 11
-7.044195017643634E-15
 21
1.0
 31
0.0
 73
     1
 44
1.0
  0
MTEXT
  5
31D
330
313
100
AcDbEntity
  8
0
  6
Continuous
 62
     7
370
    18
100
AcDbMText
 10
154.0538564837
 20
73.3486545991
 30
0.0
 40
3.5
 41
0.0
 71
     1
 72
     1
  1
=
  7
SLDTEXTSTYLE0
 11
-7.044195017643634E-15
 21
1.0
 31
0.0
 73
     1
 44
1.0
  0
ENDBLK
  5
315
330
313
100
AcDbEntity
  8
0
100
AcDbBlockEnd
  0
BLOCK
  5
320
330
31F
100
AcDbEntity
  8
0
100
AcDbBlockBegin
  2
_D_25
 70
     0
 10
0.0
 20
0.0
 30
0.0
  3
_D_25
  1

  0
SOLID
  5
322
330
31F
100
AcDbEntity
  8
0
  6
Continuous
 62
     7
370
    18
100
AcDbTrace
 10
124.5655933983
 20
48.7861522783
 30
0.0
 11
127.8675933983
 21
48.2781522783
 31
0.0
 12
127.8675933983
 22
49.2941522783
 32
0.0
 13
127.8675933983
 23
49.2941522783
 33
0.0
  0
SOLID
  5
323
330
31F
100
AcDbEntity
  8
0
  6
Continuous
 62
     7
370
    18
100
AcDbTrace
 10
116.5655933983
 20
48.7861522783
 30
0.0
 11
113.2635933983
 21
49.2941522783
 31
0.0
 12
113.2635933983
 22
48.2781522783
 32
0.0
 13
113.2635933983
 23
48.2781522783
 33
0.0
  0
LINE
  5
324
330
31F
100
AcDbEntity
  8
0
  6
Continuous
 62
     7
370
    18
100
AcDbLine
 10
124.5655933983
 20
57.7861522783
 30
0.0
 11
124.5655933983
 21
47.7861522783
 31
0.0
  0
LINE
  5
325
330
31F
100
AcDbEntity
  8
0
  6
Continuous
 62
     7
370
    18
100
AcDbLine
 10
116.5655933983
 20
64.1611522783
 30
0.0
 11
116.5655933983
 21
47.7861522783
 31
0.0
  0
LINE
  5
326
330
31F
100
AcDbEntity
  8
0
  6
Continuous
 62
     7
370
    18
100
AcDbLine
 10
124.5655933983
 20
48.7861522783
 30
0.0
 11
130.9155933983
 21
48.7861522783
 31
0.0
  0
LINE
  5
327
330
31F
100
AcDbEntity
  8
0
  6
Continuous
 62
     7
370
    18
100
AcDbLine
 10
124.5655933983
 20
48.7861522783
 30
0.0
 11
116.5655933983
 21
48.7861522783
 31
0.0
  0
LINE
  5
328
330
31F
100
AcDbEntity
  8
0
  6
Continuous
 62
     7
370
    18
100
AcDbLine
 10
116.5655933983
 20
48.7861522783
 30
0.0
 11
110.2155933983
 21
48.7861522783
 31
0.0
  0
MTEXT
  5
329
330
31F
100
AcDbEntity
  8
0
  6
Continuous
 62
     7
370
    18
100
AcDbMText
 10
119.1781381536
 20
53.2978891929
 30
0.0
 40
3.5
 41
0.0
 71
     1
 72
     1
  1
8
  7
SLDTEXTSTYLE0
 73
     1
 44
1.0
  0
ENDBLK
  5
321
330
31F
100
AcDbEntity
  8
0
100
AcDbBlockEnd
  0
BLOCK
  5
32C
330
32B
100
AcDbEntity
  8
0
100
AcDbBlockBegin
  2
_D_26
 70
     0
 10
0.0
 20
0.0
 30
0.0
  3
_D_26
  1

  0
SOLID
  5
32E
330
32B
100
AcDbEntity
  8
0
  6
Continuous
 62
     7
370
    18
100
AcDbTrace
 10
124.5655933983
 20
41.2853850073
 30
0.0
 11
121.2635933983
 21
41.7933850073
 31
0.0
 12
121.2635933983
 22
40.7773850073
 32
0.0
 13
121.2635933983
 23
40.7773850073
 33
0.0
  0
SOLID
  5
32F
330
32B
100
AcDbEntity
  8
0
  6
Continuous
 62
     7
370
    18
100
AcDbTrace
 10
105.5655933983
 20
41.2853850073
 30
0.0
 11
108.8675933983
 21
40.7773850073
 31
0.0
 12
108.8675933983
 22
41.7933850073
 32
0.0
 13
108.8675933983
 23
41.7933850073
 33
0.0
  0
LINE
  5
330
330
32B
100
AcDbEntity
  8
0
  6
Continuous
 62
     7
370
    18
100
AcDbLine
 10
124.5655933983
 20
57.7861522783
 30
0.0
 11
124.5655933983
 21
40.2853850073
 31
0.0
  0
LINE
  5
331
330
32B
100
AcDbEntity
  8
0
  6
Continuous
 62
     7
370
    18
100
AcDbLine
 10
105.5655933983
 20
71.2861522783
 30
0.0
 11
105.5655933983
 21
40.2853850073
 31
0.0
  0
LINE
  5
332
330
32B
100
AcDbEntity
  8
0
  6
Continuous
 62
     7
370
    18
100
AcDbLine
 10
124.5655933983
 20
41.2853850073
 30
0.0
 11
105.5655933983
 21
41.2853850073
 31
0.0
  0
MTEXT
  5
333
330
32B
100
AcDbEntity
  8
0
  6
Continuous
 62
     7
370
    18
100
AcDbMText
 10
111.8410298034
 20
45.7971219218
 30
0.0
 40
3.5
 41
0.0
 71
     1
 72
     1
  1
19
  7
SLDTEXTSTYLE0
 73
     1
 44
1.0
  0
ENDBLK
  5
32D
330
32B
100
AcDbEntity
  8
0
100
AcDbBlockEnd
  0
BLOCK
  5
336
330
335
100
AcDbEntity
  8
0
100
AcDbBlockBegin
  2
_D_27
 70
     0
 10
0.0
 20
0.0
 30
0.0
  3
_D_27
  1

  0
SOLID
  5
338
330
335
100
AcDbEntity
  8
0
  6
Continuous
 62
     7
370
    18
100
AcDbTrace
 10
124.5655933983
 20
34.4171432419
 30
0.0
 11
121.2635933983
 21
34.9251432419
 31
0.0
 12
121.2635933983
 22
33.9091432419
 32
0.0
 13
121.2635933983
 23
33.9091432419
 33
0.0
  0
SOLID
  5
339
330
335
100
AcDbEntity
  8
0
  6
Continuous
 62
     7
370
    18
100
AcDbTrace
 10
94.5655933983
 20
34.4171432419
 30
0.0
 11
97.8675933983
 21
33.9091432419
 31
0.0
 12
97.8675933983
 22
34.9251432419
 32
0.0
 13
97.8675933983
 23
34.9251432419
 33
0.0
  0
LINE
  5
33A
330
335
100
AcDbEntity
  8
0
  6
Continuous
 62
     7
370
    18
100
AcDbLine
 10
124.5655933983
 20
57.7861522783
 30
0.0
 11
124.5655933983
 21
33.4171432419
 31
0.0
  0
LINE
  5
33B
330
335
100
AcDbEntity
  8
0
  6
Continuous
 62
     7
370
    18
100
AcDbLine
 10
94.5655933983
 20
64.1611522783
 30
0.0
 11
94.5655933983
 21
33.4171432419
 31
0.0
  0
LINE
  5
33C
330
335
100
AcDbEntity
  8
0
  6
Continuous
 62
     7
370
    18
100
AcDbLine
 10
124.5655933983
 20
34.4171432419
 30
0.0
 11
94.5655933983
 21
34.4171432419
 31
0.0
  0
MTEXT
  5
33D
330
335
100
AcDbEntity
  8
0
  6
Continuous
 62
     7
370
    18
100
AcDbMText
 10
107.4453550735
 20
38.9288801565
 30
0.0
 40
3.5
 41
0.0
 71
     1
 72
     1
  1
30
  7
SLDTEXTSTYLE0
 73
     1
 44
1.0
  0
ENDBLK
  5
337
330
335
100
AcDbEntity
  8
0
100
AcDbBlockEnd
  0
BLOCK
  5
340
330
33F
100
AcDbEntity
  8
0
100
AcDbBlockBegin
  2
_D_28
 70
     0
 10
0.0
 20
0.0
 30
0.0
  3
_D_28
  1

  0
SOLID
  5
342
330
33F
100
AcDbEntity
  8
0
  6
Continuous
 62
     7
370
    18
100
AcDbTrace
 10
124.5655933983
 20
27.5489014765
 30
0.0
 11
121.2635933983
 21
28.0569014765
 31
0.0
 12
121.2635933983
 22
27.0409014765
 32
0.0
 13
121.2635933983
 23
27.0409014765
 33
0.0
  0
SOLID
  5
343
330
33F
100
AcDbEntity
  8
0
  6
Continuous
 62
     7
370
    18
100
AcDbTrace
 10
84.5655933983
 20
27.5489014765
 30
0.0
 11
87.8675933983
 21
27.0409014765
 31
0.0
 12
87.8675933983
 22
28.0569014765
 32
0.0
 13
87.8675933983
 23
28.0569014765
 33
0.0
  0
LINE
  5
344
330
33F
100
AcDbEntity
  8
0
  6
Continuous
 62
     7
370
    18
100
AcDbLine
 10
124.5655933983
 20
57.7861522783
 30
0.0
 11
124.5655933983
 21
26.5489014765
 31
0.0
  0
LINE
  5
345
330
33F
100
AcDbEntity
  8
0
  6
Continuous
 62
     7
370
    18
100
AcDbLine
 10
84.5655933983
 20
57.7861522783
 30
0.0
 11
84.5655933983
 21
26.5489014765
 31
0.0
  0
LINE
  5
346
330
33F
100
AcDbEntity
  8
0
  6
Continuous
 62
     7
370
    18
100
AcDbLine
 10
124.5655933983
 20
27.5489014765
 30
0.0
 11
84.5655933983
 21
27.5489014765
 31
0.0
  0
MTEXT
  5
347
330
33F
100
AcDbEntity
  8
0
  6
Continuous
 62
     7
370
    18
100
AcDbMText
 10
102.6375858378
 20
32.0606383911
 30
0.0
 40
3.5
 41
0.0
 71
     1
 72
     1
  1
40
  7
SLDTEXTSTYLE0
 73
     1
 44
1.0
  0
ENDBLK
  5
341
330
33F
100
AcDbEntity
  8
0
100
AcDbBlockEnd
  0
BLOCK
  5
349
330
348
100
AcDbEntity
  8
0
100
AcDbBlockBegin
  2
SW_CENTERMARKSYMBOL_8
 70
     0
 10
0.0
 20
0.0
 30
0.0
  3
SW_CENTERMARKSYMBOL_8
  1

  0
LINE
  5
34B
330
348
100
AcDbEntity
  8
0
  6
Continuous
 62
     0
370
     0
100
AcDbLine
 10
0.0
 20
0.0
 30
0.0
 11
0.0
 21
2.5
 31
0.0
  0
LINE
  5
34C
330
348
100
AcDbEntity
  8
0
  6
Continuous
 62
     0
370
     0
100
AcDbLine
 10
0.0
 20
0.0
 30
0.0
 11
-2.5
 21
0.0
 31
0.0
  0
LINE
  5
34D
330
348
100
AcDbEntity
  8
0
  6
Continuous
 62
     0
370
     0
100
AcDbLine
 10
0.0
 20
0.0
 30
0.0
 11
0.0
 21
-2.5
 31
0.0
  0
LINE
  5
34E
330
348
100
AcDbEntity
  8
0
  6
Continuous
 62
     0
370
     0
100
AcDbLine
 10
0.0
 20
0.0
 30
0.0
 11
2.5
 21
0.0
 31
0.0
  0
LINE
  5
34F
330
348
100
AcDbEntity
  8
0
  6
Continuous
 62
     0
370
     0
100
AcDbLine
 10
0.0
 20
5.0
 30
0.0
 11
0.0
 21
5.625
 31
0.0
  0
LINE
  5
350
330
348
100
AcDbEntity
  8
0
  6
Continuous
 62
     0
370
     0
100
AcDbLine
 10
-5.0
 20
0.0
 30
0.0
 11
-5.625
 21
0.0
 31
0.0
  0
LINE
  5
351
330
348
100
AcDbEntity
  8
0
  6
Continuous
 62
     0
370
     0
100
AcDbLine
 10
0.0
 20
-5.0
 30
0.0
 11
0.0
 21
-5.625
 31
0.0
  0
LINE
  5
352
330
348
100
AcDbEntity
  8
0
  6
Continuous
 62
     0
370
     0
100
AcDbLine
 10
5.0
 20
0.0
 30
0.0
 11
5.625
 21
0.0
 31
0.0
  0
ENDBLK
  5
34A
330
348
100
AcDbEntity
  8
0
100
AcDbBlockEnd
  0
BLOCK
  5
355
330
354
100
AcDbEntity
  8
0
100
AcDbBlockBegin
  2
SW_CENTERMARKSYMBOL_9
 70
     0
 10
0.0
 20
0.0
 30
0.0
  3
SW_CENTERMARKSYMBOL_9
  1

  0
LINE
  5
357
330
354
100
AcDbEntity
  8
0
  6
Continuous
 62
     0
370
     0
100
AcDbLine
 10
0.0
 20
0.0
 30
0.0
 11
0.0
 21
2.5
 31
0.0
  0
LINE
  5
358
330
354
100
AcDbEntity
  8
0
  6
Continuous
 62
     0
370
     0
100
AcDbLine
 10
0.0
 20
0.0
 30
0.0
 11
-2.5
 21
0.0
 31
0.0
  0
LINE
  5
359
330
354
100
AcDbEntity
  8
0
  6
Continuous
 62
     0
370
     0
100
AcDbLine
 10
0.0
 20
0.0
 30
0.0
 11
0.0
 21
-2.5
 31
0.0
  0
LINE
  5
35A
330
354
100
AcDbEntity
  8
0
  6
Continuous
 62
     0
370
     0
100
AcDbLine
 10
0.0
 20
0.0
 30
0.0
 11
2.5
 21
0.0
 31
0.0
  0
LINE
  5
35B
330
354
100
AcDbEntity
  8
0
  6
Continuous
 62
     0
370
     0
100
AcDbLine
 10
0.0
 20
5.0
 30
0.0
 11
0.0
 21
5.5
 31
0.0
  0
LINE
  5
35C
330
354
100
AcDbEntity
  8
0
  6
Continuous
 62
     0
370
     0
100
AcDbLine
 10
-5.0
 20
0.0
 30
0.0
 11
-5.5
 21
0.0
 31
0.0
  0
LINE
  5
35D
330
354
100
AcDbEntity
  8
0
  6
Continuous
 62
     0
370
     0
100
AcDbLine
 10
0.0
 20
-5.0
 30
0.0
 11
0.0
 21
-5.5
 31
0.0
  0
LINE
  5
35E
330
354
100
AcDbEntity
  8
0
  6
Continuous
 62
     0
370
     0
100
AcDbLine
 10
5.0
 20
0.0
 30
0.0
 11
5.5
 21
0.0
 31
0.0
  0
ENDBLK
  5
356
330
354
100
AcDbEntity
  8
0
100
AcDbBlockEnd
  0
BLOCK
  5
361
330
360
100
AcDbEntity
  8
0
100
AcDbBlockBegin
  2
SW_CENTERMARKSYMBOL_10
 70
     0
 10
0.0
 20
0.0
 30
0.0
  3
SW_CENTERMARKSYMBOL_10
  1

  0
LINE
  5
363
330
360
100
AcDbEntity
  8
0
  6
Continuous
 62
     0
370
     0
100
AcDbLine
 10
0.0
 20
0.0
 30
0.0
 11
0.0
 21
2.5
 31
0.0
  0
LINE
  5
364
330
360
100
AcDbEntity
  8
0
  6
Continuous
 62
     0
370
     0
100
AcDbLine
 10
0.0
 20
0.0
 30
0.0
 11
-2.5
 21
0.0
 31
0.0
  0
LINE
  5
365
330
360
100
AcDbEntity
  8
0
  6
Continuous
 62
     0
370
     0
100
AcDbLine
 10
0.0
 20
0.0
 30
0.0
 11
0.0
 21
-2.5
 31
0.0
  0
LINE
  5
366
330
360
100
AcDbEntity
  8
0
  6
Continuous
 62
     0
370
     0
100
AcDbLine
 10
0.0
 20
0.0
 30
0.0
 11
2.5
 21
0.0
 31
0.0
  0
LINE
  5
367
330
360
100
AcDbEntity
  8
0
  6
Continuous
 62
     0
370
     0
100
AcDbLine
 10
0.0
 20
5.0
 30
0.0
 11
0.0
 21
5.625
 31
0.0
  0
LINE
  5
368
330
360
100
AcDbEntity
  8
0
  6
Continuous
 62
     0
370
     0
100
AcDbLine
 10
-5.0
 20
0.0
 30
0.0
 11
-5.625
 21
0.0
 31
0.0
  0
LINE
  5
369
330
360
100
AcDbEntity
  8
0
  6
Continuous
 62
     0
370
     0
100
AcDbLine
 10
0.0
 20
-5.0
 30
0.0
 11
0.0
 21
-5.625
 31
0.0
  0
LINE
  5
36A
330
360
100
AcDbEntity
  8
0
  6
Continuous
 62
     0
370
     0
100
AcDbLine
 10
5.0
 20
0.0
 30
0.0
 11
5.625
 21
0.0
 31
0.0
  0
ENDBLK
  5
362
330
360
100
AcDbEntity
  8
0
100
AcDbBlockEnd
  0
BLOCK
  5
36D
330
36C
100
AcDbEntity
  8
0
100
AcDbBlockBegin
  2
SW_CENTERMARKSYMBOL_11
 70
     0
 10
0.0
 20
0.0
 30
0.0
  3
SW_CENTERMARKSYMBOL_11
  1

  0
LINE
  5
36F
330
36C
100
AcDbEntity
  8
0
  6
Continuous
 62
     0
370
     0
100
AcDbLine
 10
0.0
 20
0.0
 30
0.0
 11
0.0
 21
2.5
 31
0.0
  0
LINE
  5
370
330
36C
100
AcDbEntity
  8
0
  6
Continuous
 62
     0
370
     0
100
AcDbLine
 10
0.0
 20
0.0
 30
0.0
 11
-2.5
 21
0.0
 31
0.0
  0
LINE
  5
371
330
36C
100
AcDbEntity
  8
0
  6
Continuous
 62
     0
370
     0
100
AcDbLine
 10
0.0
 20
0.0
 30
0.0
 11
0.0
 21
-2.5
 31
0.0
  0
LINE
  5
372
330
36C
100
AcDbEntity
  8
0
  6
Continuous
 62
     0
370
     0
100
AcDbLine
 10
0.0
 20
0.0
 30
0.0
 11
2.5
 21
0.0
 31
0.0
  0
LINE
  5
373
330
36C
100
AcDbEntity
  8
0
  6
Continuous
 62
     0
370
     0
100
AcDbLine
 10
0.0
 20
5.0
 30
0.0
 11
0.0
 21
5.5
 31
0.0
  0
LINE
  5
374
330
36C
100
AcDbEntity
  8
0
  6
Continuous
 62
     0
370
     0
100
AcDbLine
 10
-5.0
 20
0.0
 30
0.0
 11
-5.5
 21
0.0
 31
0.0
  0
LINE
  5
375
330
36C
100
AcDbEntity
  8
0
  6
Continuous
 62
     0
370
     0
100
AcDbLine
 10
0.0
 20
-5.0
 30
0.0
 11
0.0
 21
-5.5
 31
0.0
  0
LINE
  5
376
330
36C
100
AcDbEntity
  8
0
  6
Continuous
 62
     0
370
     0
100
AcDbLine
 10
5.0
 20
0.0
 30
0.0
 11
5.5
 21
0.0
 31
0.0
  0
ENDBLK
  5
36E
330
36C
100
AcDbEntity
  8
0
100
AcDbBlockEnd
  0
BLOCK
  5
382
330
381
100
AcDbEntity
  8
0
100
AcDbBlockBegin
  2
SW_DOWELSYMBOL_4
 70
     0
 10
0.0
 20
0.0
 30
0.0
  3
SW_DOWELSYMBOL_4
  1

  0
CIRCLE
  5
384
330
381
100
AcDbEntity
  8
0
  6
Continuous
 62
     0
370
     0
100
AcDbCircle
 10
0.0
 20
0.0
 30
0.0
 40
3.000000000000003
  0
HATCH
  5
385
330
381
100
AcDbEntity
  8
0
  6
Continuous
 62
     0
370
     0
100
AcDbHatch
 10
0.0
 20
0.0
 30
0.0
210
0.0
220
0.0
230
1.0
  2
SOLID
 70
     1
 71
     0
 91
        1
 92
        0
 93
        3
 72
     2
 10
0.0
 20
0.0
 40
3.000000000000003
 50
0.0
 51
90.0
 73
     1
 72
     1
 10
0.0
 20
3.000000000000003
 11
0.0
 21
0.0
 72
     1
 10
0.0
 20
0.0
 11
3.000000000000003
 21
0.0
 97
        0
 75
     0
 76
     1
 98
        1
 10
0.0
 20
0.0
  0
HATCH
  5
386
330
381
100
AcDbEntity
  8
0
  6
Continuous
 62
     0
370
     0
100
AcDbHatch
 10
0.0
 20
0.0
 30
0.0
210
0.0
220
0.0
230
1.0
  2
SOLID
 70
     1
 71
     0
 91
        1
 92
        0
 93
        3
 72
     2
 10
0.0
 20
0.0
 40
3.000000000000003
 50
180.0
 51
270.0000000000008
 73
     1
 72
     1
 10
0.0
 20
-3.000000000000003
 11
0.0
 21
0.0
 72
     1
 10
0.0
 20
0.0
 11
-3.000000000000003
 21
0.0
 97
        0
 75
     0
 76
     1
 98
        1
 10
0.0
 20
0.0
  0
ENDBLK
  5
383
330
381
100
AcDbEntity
  8
0
100
AcDbBlockEnd
  0
BLOCK
  5
389
330
388
100
AcDbEntity
  8
0
100
AcDbBlockBegin
  2
SW_DOWELSYMBOL_5
 70
     0
 10
0.0
 20
0.0
 30
0.0
  3
SW_DOWELSYMBOL_5
  1

  0
CIRCLE
  5
38B
330
388
100
AcDbEntity
  8
0
  6
Continuous
 62
     0
370
     0
100
AcDbCircle
 10
0.0
 20
0.0
 30
0.0
 40
3.000000000000003
  0
HATCH
  5
38C
330
388
100
AcDbEntity
  8
0
  6
Continuous
 62
     0
370
     0
100
AcDbHatch
 10
0.0
 20
0.0
 30
0.0
210
0.0
220
0.0
230
1.0
  2
SOLID
 70
     1
 71
     0
 91
        1
 92
        0
 93
        3
 72
     2
 10
0.0
 20
0.0
 40
3.000000000000003
 50
0.0
 51
90.0
 73
     1
 72
     1
 10
0.0
 20
3.000000000000003
 11
0.0
 21
0.0
 72
     1
 10
0.0
 20
0.0
 11
3.000000000000003
 21
0.0
 97
        0
 75
     0
 76
     1
 98
        1
 10
0.0
 20
0.0
  0
HATCH
  5
38D
330
388
100
AcDbEntity
  8
0
  6
Continuous
 62
     0
370
     0
100
AcDbHatch
 10
0.0
 20
0.0
 30
0.0
210
0.0
220
0.0
230
1.0
  2
SOLID
 70
     1
 71
     0
 91
        1
 92
        0
 93
        3
 72
     2
 10
0.0
 20
0.0
 40
3.000000000000003
 50
180.0
 51
270.0000000000008
 73
     1
 72
     1
 10
0.0
 20
-3.000000000000003
 11
0.0
 21
0.0
 72
     1
 10
0.0
 20
0.0
 11
-3.000000000000003
 21
0.0
 97
        0
 75
     0
 76
     1
 98
        1
 10
0.0
 20
0.0
  0
ENDBLK
  5
38A
330
388
100
AcDbEntity
  8
0
100
AcDbBlockEnd
  0
BLOCK
  5
3A5
330
3A4
100
AcDbEntity
  8
0
100
AcDbBlockBegin
  2
_D_29
 70
     0
 10
0.0
 20
0.0
 30
0.0
  3
_D_29
  1

  0
SOLID
  5
3A7
330
3A4
100
AcDbEntity
  8
0
  6
Continuous
 62
     7
370
    18
100
AcDbTrace
 10
74.5655933983
 20
116.9322598148
 30
0.0
 11
74.0575933983
 21
113.6302598148
 31
0.0
 12
75.0735933983
 22
113.6302598148
 32
0.0
 13
75.0735933983
 23
113.6302598148
 33
0.0
  0
SOLID
  5
3A8
330
3A4
100
AcDbEntity
  8
0
  6
Continuous
 62
     7
370
    18
100
AcDbTrace
 10
74.5655933983
 20
120.9322598148
 30
0.0
 11
75.0735933983
 21
124.2342598148
 31
0.0
 12
74.0575933983
 22
124.2342598148
 32
0.0
 13
74.0575933983
 23
124.2342598148
 33
0.0
  0
LINE
  5
3A9
330
3A4
100
AcDbEntity
  8
0
  6
Continuous
 62
     7
370
    18
100
AcDbLine
 10
83.5655933983
 20
116.9322598148
 30
0.0
 11
73.5655933983
 21
116.9322598148
 31
0.0
  0
LINE
  5
3AA
330
3A4
100
AcDbEntity
  8
0
  6
Continuous
 62
     7
370
    18
100
AcDbLine
 10
83.5655933983
 20
120.9322598148
 30
0.0
 11
73.5655933983
 21
120.9322598148
 31
0.0
  0
LINE
  5
3AB
330
3A4
100
AcDbEntity
  8
0
  6
Continuous
 62
     7
370
    18
100
AcDbLine
 10
74.5655933983
 20
116.9322598148
 30
0.0
 11
74.5655933983
 21
110.177547272
 31
0.0
  0
LINE
  5
3AC
330
3A4
100
AcDbEntity
  8
0
  6
Continuous
 62
     7
370
    18
100
AcDbLine
 10
74.5655933983
 20
116.9322598148
 30
0.0
 11
74.5655933983
 21
120.9322598148
 31
0.0
  0
LINE
  5
3AD
330
3A4
100
AcDbEntity
  8
0
  6
Continuous
 62
     7
370
    18
100
AcDbLine
 10
74.5655933983
 20
120.9322598148
 30
0.0
 11
74.5655933983
 21
127.2822598148
 31
0.0
  0
MTEXT
  5
3AE
330
3A4
100
AcDbEntity
  8
0
  6
Continuous
 62
     7
370
    18
100
AcDbMText
 10
70.0538564837
 20
110.177547272
 30
0.0
 40
3.5
 41
0.0
 71
     1
 72
     1
  1
4
  7
SLDTEXTSTYLE0
 11
6.123233995736766E-17
 21
1.0
 31
0.0
 73
     1
 44
1.0
  0
ENDBLK
  5
3A6
330
3A4
100
AcDbEntity
  8
0
100
AcDbBlockEnd
  0
BLOCK
  5
3B1
330
3B0
100
AcDbEntity
  8
0
100
AcDbBlockBegin
  2
_D_30
 70
     0
 10
0.0
 20
0.0
 30
0.0
  3
_D_30
  1

  0
ARC
  5
3B3
330
3B0
100
AcDbEntity
  8
0
  6
Continuous
 62
     7
370
    18
100
AcDbCircle
 10
84.5655933983
 20
120.9322598148
 30
0.0
 40
17.09582468264958
100
AcDbArc
 50
60.0
 51
90.0
  0
ARC
  5
3B4
330
3B0
100
AcDbEntity
  8
0
  6
Continuous
 62
     7
370
    18
100
AcDbCircle
 10
84.5655933983
 20
120.9322598148
 30
0.0
 40
17.09582468264959
100
AcDbArc
 50
39.0277453397
 51
60.0
  0
ARC
  5
3B5
330
3B0
100
AcDbEntity
  8
0
  6
Continuous
 62
     7
370
    18
100
AcDbCircle
 10
84.5655933983
 20
120.9322598148
 30
0.0
 40
17.0958246826496
100
AcDbArc
 50
90.0
 51
110.9722546603
  0
SOLID
  5
3B6
330
3B0
100
AcDbEntity
  8
0
  6
Continuous
 62
     7
370
    18
100
AcDbTrace
 10
93.1135057396
 20
135.7376782886
 30
0.0
 11
95.5081035714
 21
133.4080497294
 31
0.0
 12
96.0976058975
 22
134.2355417278
 32
0.0
 13
96.0976058975
 23
134.2355417278
 33
0.0
  0
SOLID
  5
3B7
330
3B0
100
AcDbEntity
  8
0
  6
Continuous
 62
     7
370
    18
100
AcDbTrace
 10
84.5655933983
 20
138.0280844975
 30
0.0
 11
81.2302185736
 21
138.2192461548
 31
0.0
 12
81.3269965645
 22
137.2078658997
 32
0.0
 13
81.3269965645
 23
137.2078658997
 33
0.0
  0
LINE
  5
3B8
330
3B0
100
AcDbEntity
  8
0
  6
Continuous
 62
     7
370
    18
100
AcDbLine
 10
87.0863193404
 20
125.2982852186
 30
0.0
 11
93.6135057396
 21
136.6037036924
 31
0.0
  0
LINE
  5
3B9
330
3B0
100
AcDbEntity
  8
0
  6
Continuous
 62
     7
370
    18
100
AcDbLine
 10
84.5655933983
 20
121.9322598148
 30
0.0
 11
84.5655933983
 21
139.0280844975
 31
0.0
  0
MTEXT
  5
3BA
330
3B0
100
AcDbEntity
  8
0
  6
Continuous
 62
     7
370
    18
100
AcDbMText
 10
86.865506153
 20
142.7034244378
 30
0.0
 40
3.5
 41
0.0
 71
     1
 72
     1
  1
30°
  7
SLDTEXTSTYLE0
 11
0.9646426253471656
 21
-0.2635613882254528
 31
0.0
 73
     1
 44
1.0
  0
ENDBLK
  5
3B2
330
3B0
100
AcDbEntity
  8
0
100
AcDbBlockEnd
  0
BLOCK
  5
3BD
330
3BC
100
AcDbEntity
  8
0
100
AcDbBlockBegin
  2
_D_31
 70
     0
 10
0.0
 20
0.0
 30
0.0
  3
_D_31
  1

  0
SOLID
  5
3BF
330
3BC
100
AcDbEntity
  8
0
  6
Continuous
 62
     7
370
    18
100
AcDbTrace
 10
102.5655933983
 20
106.9322598148
 30
0.0
 11
99.2635933983
 21
107.4402598148
 31
0.0
 12
99.2635933983
 22
106.4242598148
 32
0.0
 13
99.2635933983
 23
106.4242598148
 33
0.0
  0
SOLID
  5
3C0
330
3BC
100
AcDbEntity
  8
0
  6
Continuous
 62
     7
370
    18
100
AcDbTrace
 10
108.5655933983
 20
106.9322598148
 30
0.0
 11
111.8675933983
 21
106.4242598148
 31
0.0
 12
111.8675933983
 22
107.4402598148
 32
0.0
 13
111.8675933983
 23
107.4402598148
 33
0.0
  0
LINE
  5
3C1
330
3BC
100
AcDbEntity
  8
0
  6
Continuous
 62
     7
370
    18
100
AcDbLine
 10
102.5655933983
 20
115.9322598148
 30
0.0
 11
102.5655933983
 21
105.9322598148
 31
0.0
  0
LINE
  5
3C2
330
3BC
100
AcDbEntity
  8
0
  6
Continuous
 62
     7
370
    18
100
AcDbLine
 10
108.5655933983
 20
115.9322598148
 30
0.0
 11
108.5655933983
 21
105.9322598148
 31
0.0
  0
LINE
  5
3C3
330
3BC
100
AcDbEntity
  8
0
  6
Continuous
 62
     7
370
    18
100
AcDbLine
 10
102.5655933983
 20
106.9322598148
 30
0.0
 11
87.3984193556
 21
106.9322598148
 31
0.0
  0
LINE
  5
3C4
330
3BC
100
AcDbEntity
  8
0
  6
Continuous
 62
     7
370
    18
100
AcDbLine
 10
102.5655933983
 20
106.9322598148
 30
0.0
 11
108.5655933983
 21
106.9322598148
 31
0.0
  0
LINE
  5
3C5
330
3BC
100
AcDbEntity
  8
0
  6
Continuous
 62
     7
370
    18
100
AcDbLine
 10
108.5655933983
 20
106.9322598148
 30
0.0
 11
114.9155933983
 21
106.9322598148
 31
0.0
  0
MTEXT
  5
3C6
330
3BC
100
AcDbEntity
  8
0
  6
Continuous
 62
     7
370
    18
100
AcDbMText
 10
87.3984193556
 20
111.443996904
 30
0.0
 40
3.5
 41
0.0
 71
     1
 72
     1
  1
%%c
  7
SLDTEXTSTYLE0
 73
     1
 44
1.0
  0
MTEXT
  5
3C7
330
3BC
100
AcDbEntity
  8
0
  6
Continuous
 62
     7
370
    18
100
AcDbMText
 10
92.6768567539
 20
111.4974690807
 30
0.0
 40
3.5
 41
0.0
 71
     1
 72
     1
  1
6
  7
SLDTEXTSTYLE0
 73
     1
 44
1.0
  0
MTEXT
  5
3C8
330
3BC
100
AcDbEntity
  8
0
  6
Continuous
 62
     7
370
    18
100
AcDbMText
 10
95.2629681803
 20
111.4974690807
 30
0.0
 40
3.5
 41
0.0
 71
     1
 72
     1
  1
H7
  7
SLDTEXTSTYLE0
 73
     1
 44
1.0
  0
ENDBLK
  5
3BE
330
3BC
100
AcDbEntity
  8
0
100
AcDbBlockEnd
  0
BLOCK
  5
3CB
330
3CA
100
AcDbEntity
  8
0
100
AcDbBlockBegin
  2
_D_32
 70
     0
 10
0.0
 20
0.0
 30
0.0
  3
_D_32
  1

  0
SOLID
  5
3CD
330
3CA
100
AcDbEntity
  8
0
  6
Continuous
 62
     7
370
    18
100
AcDbTrace
 10
113.4405933983
 20
134.4322598148
 30
0.0
 11
110.1385933983
 21
134.9402598148
 31
0.0
 12
110.1385933983
 22
133.9242598148
 32
0.0
 13
110.1385933983
 23
133.9242598148
 33
0.0
  0
SOLID
  5
3CE
330
3CA
100
AcDbEntity
  8
0
  6
Continuous
 62
     7
370
    18
100
AcDbTrace
 10
119.6905933983
 20
134.4322598148
 30
0.0
 11
122.9925933983
 21
133.9242598148
 31
0.0
 12
122.9925933983
 22
134.9402598148
 32
0.0
 13
122.9925933983
 23
134.9402598148
 33
0.0
  0
LINE
  5
3CF
330
3CA
100
AcDbEntity
  8
0
  6
Continuous
 62
     7
370
    18
100
AcDbLine
 10
113.4405933983
 20
125.4322598148
 30
0.0
 11
113.4405933983
 21
135.4322598148
 31
0.0
  0
LINE
  5
3D0
330
3CA
100
AcDbEntity
  8
0
  6
Continuous
 62
     7
370
    18
100
AcDbLine
 10
119.6905933983
 20
125.4322598148
 30
0.0
 11
119.6905933983
 21
135.4322598148
 31
0.0
  0
LINE
  5
3D1
330
3CA
100
AcDbEntity
  8
0
  6
Continuous
 62
     7
370
    18
100
AcDbLine
 10
113.4405933983
 20
134.4322598148
 30
0.0
 11
107.0905933983
 21
134.4322598148
 31
0.0
  0
LINE
  5
3D2
330
3CA
100
AcDbEntity
  8
0
  6
Continuous
 62
     7
370
    18
100
AcDbLine
 10
113.4405933983
 20
134.4322598148
 30
0.0
 11
119.6905933983
 21
134.4322598148
 31
0.0
  0
LINE
  5
3D3
330
3CA
100
AcDbEntity
  8
0
  6
Continuous
 62
     7
370
    18
100
AcDbLine
 10
119.6905933983
 20
134.4322598148
 30
0.0
 11
134.6730547797
 21
134.4322598148
 31
0.0
  0
MTEXT
  5
3D4
330
3CA
100
AcDbEntity
  8
0
  6
Continuous
 62
     7
370
    18
100
AcDbMText
 10
120.3432273891
 20
138.943996904
 30
0.0
 40
3.5
 41
0.0
 71
     1
 72
     1
  1
%%c
  7
SLDTEXTSTYLE0
 73
     1
 44
1.0
  0
MTEXT
  5
3D5
330
3CA
100
AcDbEntity
  8
0
  6
Continuous
 62
     7
370
    18
100
AcDbMText
 10
125.6216647874
 20
138.9974690807
 30
0.0
 40
3.5
 41
0.0
 71
     1
 72
     1
  1
6,25
  7
SLDTEXTSTYLE0
 73
     1
 44
1.0
  0
ENDBLK
  5
3CC
330
3CA
100
AcDbEntity
  8
0
100
AcDbBlockEnd
  0
BLOCK
  5
3D8
330
3D7
100
AcDbEntity
  8
0
100
AcDbBlockBegin
  2
_D_33
 70
     0
 10
0.0
 20
0.0
 30
0.0
  3
_D_33
  1

  0
SOLID
  5
3DA
330
3D7
100
AcDbEntity
  8
0
  6
Continuous
 62
     7
370
    18
100
AcDbTrace
 10
138.6777944655
 20
116.9322598148
 30
0.0
 11
139.1857944655
 21
120.2342598148
 31
0.0
 12
138.1697944655
 22
120.2342598148
 32
0.0
 13
138.1697944655
 23
120.2342598148
 33
0.0
  0
SOLID
  5
3DB
330
3D7
100
AcDbEntity
  8
0
  6
Continuous
 62
     7
370
    18
100
AcDbTrace
 10
138.6777944655
 20
124.4322598148
 30
0.0
 11
138.1697944655
 21
121.1302598148
 31
0.0
 12
139.1857944655
 22
121.1302598148
 32
0.0
 13
139.1857944655
 23
121.1302598148
 33
0.0
  0
LINE
  5
3DC
330
3D7
100
AcDbEntity
  8
0
  6
Continuous
 62
     7
370
    18
100
AcDbLine
 10
125.5655933983
 20
116.9322598148
 30
0.0
 11
139.6777944655
 21
116.9322598148
 31
0.0
  0
LINE
  5
3DD
330
3D7
100
AcDbEntity
  8
0
  6
Continuous
 62
     7
370
    18
100
AcDbLine
 10
125.5655933983
 20
124.4322598148
 30
0.0
 11
139.6777944655
 21
124.4322598148
 31
0.0
  0
LINE
  5
3DE
330
3D7
100
AcDbEntity
  8
0
  6
Continuous
 62
     7
370
    18
100
AcDbLine
 10
138.6777944655
 20
116.9322598148
 30
0.0
 11
138.6777944655
 21
104.9737930358
 31
0.0
  0
LINE
  5
3DF
330
3D7
100
AcDbEntity
  8
0
  6
Continuous
 62
     7
370
    18
100
AcDbLine
 10
138.6777944655
 20
116.9322598148
 30
0.0
 11
138.6777944655
 21
124.4322598148
 31
0.0
  0
MTEXT
  5
3E0
330
3D7
100
AcDbEntity
  8
0
  6
Continuous
 62
     7
370
    18
100
AcDbMText
 10
134.166057551
 20
104.9737930358
 30
0.0
 40
3.5
 41
0.0
 71
     1
 72
     1
  1
7,50
  7
SLDTEXTSTYLE0
 11
6.123233995736766E-17
 21
1.0
 31
0.0
 73
     1
 44
1.0
  0
ENDBLK
  5
3D9
330
3D7
100
AcDbEntity
  8
0
100
AcDbBlockEnd
  0
BLOCK
  5
3F5
330
3F4
100
AcDbEntity
  8
0
100
AcDbBlockBegin
  2
_D_34
 70
     0
 10
0.0
 20
0.0
 30
0.0
  3
_D_34
  1

  0
SOLID
  5
3F7
330
3F4
100
AcDbEntity
  8
0
  6
Continuous
 62
     7
370
    18
100
AcDbTrace
 10
247.1304133815
 20
176.8861858191
 30
0.0
 11
247.6384133815
 21
180.1881858191
 31
0.0
 12
246.6224133815
 22
180.1881858191
 32
0.0
 13
246.6224133815
 23
180.1881858191
 33
0.0
  0
SOLID
  5
3F8
330
3F4
100
AcDbEntity
  8
0
  6
Continuous
 62
     7
370
    18
100
AcDbTrace
 10
247.1304133815
 20
170.2861858191
 30
0.0
 11
246.6224133815
 21
166.9841858191
 31
0.0
 12
247.6384133815
 22
166.9841858191
 32
0.0
 13
247.6384133815
 23
166.9841858191
 33
0.0
  0
LINE
  5
3F9
330
3F4
100
AcDbEntity
  8
0
  6
Continuous
 62
     7
370
    18
100
AcDbLine
 10
257.5025077484
 20
176.8861858191
 30
0.0
 11
246.1304133815
 21
176.8861858191
 31
0.0
  0
LINE
  5
3FA
330
3F4
100
AcDbEntity
  8
0
  6
Continuous
 62
     7
370
    18
100
AcDbLine
 10
257.5025077484
 20
170.2861858191
 30
0.0
 11
246.1304133815
 21
170.2861858191
 31
0.0
  0
LINE
  5
3FB
330
3F4
100
AcDbEntity
  8
0
  6
Continuous
 62
     7
370
    18
100
AcDbLine
 10
247.1304133815
 20
176.8861858191
 30
0.0
 11
247.1304133815
 21
192.049471768
 31
0.0
  0
LINE
  5
3FC
330
3F4
100
AcDbEntity
  8
0
  6
Continuous
 62
     7
370
    18
100
AcDbLine
 10
247.1304133815
 20
176.8861858191
 30
0.0
 11
247.1304133815
 21
170.2861858191
 31
0.0
  0
LINE
  5
3FD
330
3F4
100
AcDbEntity
  8
0
  6
Continuous
 62
     7
370
    18
100
AcDbLine
 10
247.1304133815
 20
170.2861858191
 30
0.0
 11
247.1304133815
 21
163.9361858191
 31
0.0
  0
MTEXT
  5
3FE
330
3F4
100
AcDbEntity
  8
0
  6
Continuous
 62
     7
370
    18
100
AcDbMText
 10
242.6186762923
 20
177.7196443773
 30
0.0
 40
3.5
 41
0.0
 71
     1
 72
     1
  1
%%c
  7
SLDTEXTSTYLE0
 11
-7.044195017643634E-15
 21
1.0
 31
0.0
 73
     1
 44
1.0
  0
MTEXT
  5
3FF
330
3F4
100
AcDbEntity
  8
0
  6
Continuous
 62
     7
370
    18
100
AcDbMText
 10
242.5652041156
 20
182.9980817757
 30
0.0
 40
3.5
 41
0.0
 71
     1
 72
     1
  1
6,60
  7
SLDTEXTSTYLE0
 11
-7.044195017643634E-15
 21
1.0
 31
0.0
 73
     1
 44
1.0
  0
ENDBLK
  5
3F6
330
3F4
100
AcDbEntity
  8
0
100
AcDbBlockEnd
  0
ENDSEC
  0
SECTION
  2
ENTITIES
  0
LINE
  5
75
330
1F
100
AcDbEntity
  8
0
  6
Continuous
 62
     7
370
    18
100
AcDbLine
 10
215.0
 20
282.0
 30
0.0
 11
215.0
 21
67.1108208829
 31
0.0
  0
LINE
  5
76
330
1F
100
AcDbEntity
  8
0
  6
Continuous
 62
     7
370
    18
100
AcDbLine
 10
25.0
 20
148.5
 30
0.0
 11
215.0
 21
148.5
 31
0.0
  0
LINE
  5
77
330
1F
100
AcDbEntity
  8
DIMENSIONS
100
AcDbLine
 10
409.5
 20
49.5
 30
0.0
 11
345.5
 21
49.5
 31
0.0
  0
LINE
  5
78
330
1F
100
AcDbEntity
  8
DIMENSIONS
100
AcDbLine
 10
345.5
 20
49.5
 30
0.0
 11
345.5
 21
64.5
 31
0.0
  0
LINE
  5
79
330
1F
100
AcDbEntity
  8
DIMENSIONS
100
AcDbLine
 10
345.5
 20
64.5
 30
0.0
 11
409.5
 21
64.5
 31
0.0
  0
LINE
  5
7A
330
1F
100
AcDbEntity
  8
DIMENSIONS
100
AcDbLine
 10
409.5
 20
64.5
 30
0.0
 11
409.5
 21
49.5
 31
0.0
  0
LINE
  5
7B
330
1F
100
AcDbEntity
  8
DIMENSIONS
 62
     1
100
AcDbLine
 10
409.5
 20
49.5
 30
0.0
 11
345.5
 21
49.5
 31
0.0
  0
LINE
  5
7C
330
1F
100
AcDbEntity
  8
DIMENSIONS
 62
     1
100
AcDbLine
 10
345.5
 20
49.5
 30
0.0
 11
345.5
 21
64.5
 31
0.0
  0
LINE
  5
7D
330
1F
100
AcDbEntity
  8
DIMENSIONS
 62
     1
100
AcDbLine
 10
345.5
 20
64.5
 30
0.0
 11
409.5
 21
64.5
 31
0.0
  0
LINE
  5
7E
330
1F
100
AcDbEntity
  8
DIMENSIONS
 62
     1
100
AcDbLine
 10
409.5
 20
64.5
 30
0.0
 11
409.5
 21
49.5
 31
0.0
  0
LINE
  5
7F
330
1F
100
AcDbEntity
  8
DIMENSIONS
 62
     6
100
AcDbLine
 10
409.4
 20
39.4
 30
0.0
 11
332.9840899969
 21
39.4
 31
0.0
  0
LINE
  5
80
330
1F
100
AcDbEntity
  8
DIMENSIONS
 62
     6
100
AcDbLine
 10
332.9840899969
 20
39.4
 30
0.0
 11
332.9840899969
 21
10.6
 31
0.0
  0
LINE
  5
81
330
1F
100
AcDbEntity
  8
DIMENSIONS
 62
     6
100
AcDbLine
 10
332.9840899969
 20
10.6
 30
0.0
 11
409.4
 21
10.6
 31
0.0
  0
LINE
  5
82
330
1F
100
AcDbEntity
  8
DIMENSIONS
 62
     6
100
AcDbLine
 10
409.4
 20
10.6
 30
0.0
 11
409.4
 21
39.4
 31
0.0
  0
LINE
  5
83
330
1F
100
AcDbEntity
  8
DIMENSIONS
 62
     6
100
AcDbLine
 10
409.6
 20
39.6
 30
0.0
 11
332.7840899969
 21
39.6
 31
0.0
  0
LINE
  5
84
330
1F
100
AcDbEntity
  8
DIMENSIONS
 62
     6
100
AcDbLine
 10
332.7840899969
 20
39.6
 30
0.0
 11
332.7840899969
 21
10.4
 31
0.0
  0
LINE
  5
85
330
1F
100
AcDbEntity
  8
DIMENSIONS
 62
     6
100
AcDbLine
 10
332.7840899969
 20
10.4
 30
0.0
 11
409.6
 21
10.4
 31
0.0
  0
LINE
  5
86
330
1F
100
AcDbEntity
  8
DIMENSIONS
 62
     6
100
AcDbLine
 10
409.6
 20
10.4
 30
0.0
 11
409.6
 21
39.6
 31
0.0
  0
LINE
  5
87
330
1F
100
AcDbEntity
  8
DIMENSIONS
 62
     6
100
AcDbLine
 10
409.8
 20
39.8
 30
0.0
 11
332.5840899969
 21
39.8
 31
0.0
  0
LINE
  5
88
330
1F
100
AcDbEntity
  8
DIMENSIONS
 62
     6
100
AcDbLine
 10
332.5840899969
 20
39.8
 30
0.0
 11
332.5840899969
 21
10.2
 31
0.0
  0
LINE
  5
89
330
1F
100
AcDbEntity
  8
DIMENSIONS
 62
     6
100
AcDbLine
 10
332.5840899969
 20
10.2
 30
0.0
 11
409.8
 21
10.2
 31
0.0
  0
LINE
  5
8A
330
1F
100
AcDbEntity
  8
DIMENSIONS
 62
     6
100
AcDbLine
 10
409.8
 20
10.2
 30
0.0
 11
409.8
 21
39.8
 31
0.0
  0
LINE
  5
8B
330
1F
100
AcDbEntity
  8
DIMENSIONS
 62
     6
100
AcDbLine
 10
410.0
 20
40.0
 30
0.0
 11
332.3840899969
 21
40.0
 31
0.0
  0
LINE
  5
8C
330
1F
100
AcDbEntity
  8
DIMENSIONS
 62
     6
100
AcDbLine
 10
210.0
 20
10.0
 30
0.0
 11
410.0
 21
10.0
 31
0.0
  0
LINE
  5
8D
330
1F
100
AcDbEntity
  8
DIMENSIONS
 62
     1
100
AcDbLine
 10
410.0
 20
65.0
 30
0.0
 11
308.0
 21
65.0
 31
0.0
  0
LINE
  5
8E
330
1F
100
AcDbEntity
  8
DIMENSIONS
 62
     1
100
AcDbLine
 10
210.0
 20
49.0
 30
0.0
 11
410.0
 21
49.0
 31
0.0
  0
LINE
  5
8F
330
1F
100
AcDbEntity
  8
DIMENSIONS
 62
     3
100
AcDbLine
 10
308.0
 20
57.0
 30
0.0
 11
210.0
 21
57.0
 31
0.0
  0
LINE
  5
90
330
1F
100
AcDbEntity
  8
DIMENSIONS
 62
     1
100
AcDbLine
 10
332.3840899969
 20
20.0
 30
0.0
 11
210.0
 21
20.0
 31
0.0
  0
LINE
  5
91
330
1F
100
AcDbEntity
  8
DIMENSIONS
 62
     1
100
AcDbLine
 10
332.3840899969
 20
40.0
 30
0.0
 11
210.0
 21
40.0
 31
0.0
  0
LINE
  5
92
330
1F
100
AcDbEntity
  8
DIMENSIONS
 62
     3
100
AcDbLine
 10
210.0
 20
53.0
 30
0.0
 11
308.0
 21
53.0
 31
0.0
  0
LINE
  5
93
330
1F
100
AcDbEntity
  8
DIMENSIONS
 62
     3
100
AcDbLine
 10
210.0
 20
61.0
 30
0.0
 11
308.0
 21
61.0
 31
0.0
  0
LINE
  5
94
330
1F
100
AcDbEntity
  8
DIMENSIONS
 62
     3
100
AcDbLine
 10
308.0
 20
65.0
 30
0.0
 11
210.0
 21
65.0
 31
0.0
  0
LINE
  5
95
330
1F
100
AcDbEntity
  8
DIMENSIONS
 62
     6
100
AcDbLine
 10
210.0
 20
65.0
 30
0.0
 11
210.0
 21
10.0
 31
0.0
  0
LINE
  5
96
330
1F
100
AcDbEntity
  8
DIMENSIONS
  6
CENTERX2
 62
     3
100
AcDbLine
 10
287.9464559643
 20
44.5
 30
0.0
 11
306.2011144836
 21
44.5
 31
0.0
  0
LINE
  5
97
330
1F
100
AcDbEntity
  8
DIMENSIONS
 62
     7
100
AcDbLine
 10
289.2436794306
 20
42.5
 30
0.0
 11
296.2436794306
 21
41.25
 31
0.0
  0
LINE
  5
98
330
1F
100
AcDbEntity
  8
DIMENSIONS
 62
     7
100
AcDbLine
 10
296.2436794306
 20
47.75
 30
0.0
 11
289.2436794306
 21
46.5
 31
0.0
  0
LINE
  5
99
330
1F
100
AcDbEntity
  8
DIMENSIONS
 62
     1
100
AcDbLine
 10
282.7915398845
 20
20.0
 30
0.0
 11
282.7915398845
 21
10.0
 31
0.0
  0
LINE
  5
9A
330
1F
100
AcDbEntity
  8
DIMENSIONS
 62
     3
100
AcDbLine
 10
239.0
 20
49.0
 30
0.0
 11
239.0
 21
65.0
 31
0.0
  0
LINE
  5
9B
330
1F
100
AcDbEntity
  8
DIMENSIONS
 62
     3
100
AcDbLine
 10
233.0
 20
49.0
 30
0.0
 11
233.0
 21
65.0
 31
0.0
  0
LINE
  5
9C
330
1F
100
AcDbEntity
  8
DIMENSIONS
 62
     3
100
AcDbLine
 10
219.0
 20
49.0
 30
0.0
 11
219.0
 21
65.0
 31
0.0
  0
LINE
  5
9D
330
1F
100
AcDbEntity
  8
DIMENSIONS
 62
     1
100
AcDbLine
 10
241.0
 20
49.0
 30
0.0
 11
241.0
 21
40.0
 31
0.0
  0
LINE
  5
9E
330
1F
100
AcDbEntity
  8
DIMENSIONS
 62
     1
100
AcDbLine
 10
260.7306942372
 20
49.0
 30
0.0
 11
260.7306942372
 21
40.0
 31
0.0
  0
LINE
  5
9F
330
1F
100
AcDbEntity
  8
DIMENSIONS
 62
     7
100
AcDbLine
 10
289.2436794306
 20
46.5
 30
0.0
 11
289.2436794306
 21
42.5
 31
0.0
  0
LINE
  5
A0
330
1F
100
AcDbEntity
  8
DIMENSIONS
 62
     1
100
AcDbLine
 10
285.6203361042
 20
49.0
 30
0.0
 11
285.6203361042
 21
40.0
 31
0.0
  0
LINE
  5
A1
330
1F
100
AcDbEntity
  8
DIMENSIONS
 62
     6
100
AcDbLine
 10
332.3840899969
 20
40.0
 30
0.0
 11
332.3840899969
 21
10.0
 31
0.0
  0
LINE
  5
A2
330
1F
100
AcDbEntity
  8
DIMENSIONS
 62
     1
100
AcDbLine
 10
308.0
 20
20.0
 30
0.0
 11
308.0
 21
10.0
 31
0.0
  0
LINE
  5
A3
330
1F
100
AcDbEntity
  8
DIMENSIONS
 62
     1
100
AcDbLine
 10
308.0
 20
49.0
 30
0.0
 11
308.0
 21
65.0
 31
0.0
  0
LINE
  5
A4
330
1F
100
AcDbEntity
  8
DIMENSIONS
 62
     1
100
AcDbLine
 10
308.0
 20
49.0
 30
0.0
 11
308.0
 21
40.0
 31
0.0
  0
LINE
  5
A5
330
1F
100
AcDbEntity
  8
DIMENSIONS
  6
CENTERX2
 62
     3
100
AcDbLine
 10
301.9339320285
 20
48.3479779213
 30
0.0
 11
301.9339320285
 21
40.5133183928
 31
0.0
  0
LINE
  5
A6
330
1F
100
AcDbEntity
  8
DIMENSIONS
 62
     7
100
AcDbLine
 10
296.2436794306
 20
41.25
 30
0.0
 11
296.2436794306
 21
47.75
 31
0.0
  0
LINE
  5
A7
330
1F
100
AcDbEntity
  8
DIMENSIONS
 62
     1
100
AcDbLine
 10
345.0
 20
49.0
 30
0.0
 11
345.0
 21
65.0
 31
0.0
  0
LINE
  5
A8
330
1F
100
AcDbEntity
  8
DIMENSIONS
 62
     6
100
AcDbLine
 10
410.0
 20
10.0
 30
0.0
 11
410.0
 21
65.0
 31
0.0
  0
LINE
  5
A9
330
1F
100
AcDbEntity
  8
0
  6
Continuous
 62
     7
370
    70
100
AcDbLine
 10
20.0
 20
10.0
 30
0.0
 11
20.0
 21
287.0
 31
0.0
  0
LINE
  5
AA
330
1F
100
AcDbEntity
  8
0
  6
Continuous
 62
     7
370
    70
100
AcDbLine
 10
20.0
 20
287.0
 30
0.0
 11
410.0
 21
287.0
 31
0.0
  0
LINE
  5
AB
330
1F
100
AcDbEntity
  8
0
  6
Continuous
 62
     7
370
    70
100
AcDbLine
 10
410.0
 20
287.0
 30
0.0
 11
410.0
 21
10.0
 31
0.0
  0
LINE
  5
AC
330
1F
100
AcDbEntity
  8
0
  6
Continuous
 62
     7
370
    70
100
AcDbLine
 10
410.0
 20
10.0
 30
0.0
 11
20.0
 21
10.0
 31
0.0
  0
LINE
  5
AD
330
1F
100
AcDbEntity
  8
0
  6
Continuous
 62
     7
370
    70
100
AcDbLine
 10
15.0
 20
5.0
 30
0.0
 11
15.0
 21
292.0
 31
0.0
  0
LINE
  5
AE
330
1F
100
AcDbEntity
  8
0
  6
Continuous
 62
     7
370
    70
100
AcDbLine
 10
15.0
 20
292.0
 30
0.0
 11
415.0
 21
292.0
 31
0.0
  0
LINE
  5
AF
330
1F
100
AcDbEntity
  8
0
  6
Continuous
 62
     7
370
    70
100
AcDbLine
 10
415.0
 20
292.0
 30
0.0
 11
415.0
 21
5.0
 31
0.0
  0
LINE
  5
B0
330
1F
100
AcDbEntity
  8
0
  6
Continuous
 62
     7
370
    70
100
AcDbLine
 10
415.0
 20
5.0
 30
0.0
 11
15.0
 21
5.0
 31
0.0
  0
LINE
  5
B1
330
1F
100
AcDbEntity
  8
0
  6
Continuous
 62
     7
370
    35
100
AcDbLine
 10
15.0
 20
148.5
 30
0.0
 11
25.0
 21
148.5
 31
0.0
  0
LINE
  5
B2
330
1F
100
AcDbEntity
  8
0
  6
Continuous
 62
     7
370
    35
100
AcDbLine
 10
215.0
 20
292.0
 30
0.0
 11
215.0
 21
282.0
 31
0.0
  0
LINE
  5
B3
330
1F
100
AcDbEntity
  8
0
  6
Continuous
 62
     7
370
    35
100
AcDbLine
 10
415.0
 20
148.5
 30
0.0
 11
405.0
 21
148.5
 31
0.0
  0
LINE
  5
B4
330
1F
100
AcDbEntity
  8
0
  6
Continuous
 62
     7
370
    35
100
AcDbLine
 10
215.0
 20
5.0
 30
0.0
 11
215.0
 21
15.0
 31
0.0
  0
LINE
  5
B5
330
1F
100
AcDbEntity
  8
0
  6
Continuous
 62
     7
370
    35
100
AcDbLine
 10
20.0
 20
48.5
 30
0.0
 11
15.0
 21
48.5
 31
0.0
  0
LINE
  5
B6
330
1F
100
AcDbEntity
  8
0
  6
Continuous
 62
     7
370
    35
100
AcDbLine
 10
410.0
 20
48.5
 30
0.0
 11
415.0
 21
48.5
 31
0.0
  0
LINE
  5
B7
330
1F
100
AcDbEntity
  8
0
  6
Continuous
 62
     7
370
    35
100
AcDbLine
 10
20.0
 20
98.5
 30
0.0
 11
15.0
 21
98.5
 31
0.0
  0
LINE
  5
B8
330
1F
100
AcDbEntity
  8
0
  6
Continuous
 62
     7
370
    35
100
AcDbLine
 10
410.0
 20
98.5
 30
0.0
 11
415.0
 21
98.5
 31
0.0
  0
LINE
  5
B9
330
1F
100
AcDbEntity
  8
0
  6
Continuous
 62
     7
370
    35
100
AcDbLine
 10
20.0
 20
148.5
 30
0.0
 11
15.0
 21
148.5
 31
0.0
  0
LINE
  5
BA
330
1F
100
AcDbEntity
  8
0
  6
Continuous
 62
     7
370
    35
100
AcDbLine
 10
410.0
 20
148.5
 30
0.0
 11
415.0
 21
148.5
 31
0.0
  0
LINE
  5
BB
330
1F
100
AcDbEntity
  8
0
  6
Continuous
 62
     7
370
    35
100
AcDbLine
 10
20.0
 20
198.5
 30
0.0
 11
15.0
 21
198.5
 31
0.0
  0
LINE
  5
BC
330
1F
100
AcDbEntity
  8
0
  6
Continuous
 62
     7
370
    35
100
AcDbLine
 10
410.0
 20
198.5
 30
0.0
 11
415.0
 21
198.5
 31
0.0
  0
LINE
  5
BD
330
1F
100
AcDbEntity
  8
0
  6
Continuous
 62
     7
370
    35
100
AcDbLine
 10
20.0
 20
248.5
 30
0.0
 11
15.0
 21
248.5
 31
0.0
  0
LINE
  5
BE
330
1F
100
AcDbEntity
  8
0
  6
Continuous
 62
     7
370
    35
100
AcDbLine
 10
410.0
 20
248.5
 30
0.0
 11
415.0
 21
248.5
 31
0.0
  0
LINE
  5
BF
330
1F
100
AcDbEntity
  8
0
  6
Continuous
 62
     7
370
    35
100
AcDbLine
 10
65.0
 20
287.0
 30
0.0
 11
65.0
 21
292.0
 31
0.0
  0
LINE
  5
C0
330
1F
100
AcDbEntity
  8
0
  6
Continuous
 62
     7
370
    35
100
AcDbLine
 10
65.0
 20
10.0
 30
0.0
 11
65.0
 21
5.0
 31
0.0
  0
LINE
  5
C1
330
1F
100
AcDbEntity
  8
0
  6
Continuous
 62
     7
370
    35
100
AcDbLine
 10
115.0
 20
287.0
 30
0.0
 11
115.0
 21
292.0
 31
0.0
  0
LINE
  5
C2
330
1F
100
AcDbEntity
  8
0
  6
Continuous
 62
     7
370
    35
100
AcDbLine
 10
115.0
 20
10.0
 30
0.0
 11
115.0
 21
5.0
 31
0.0
  0
LINE
  5
C3
330
1F
100
AcDbEntity
  8
0
  6
Continuous
 62
     7
370
    35
100
AcDbLine
 10
165.0
 20
287.0
 30
0.0
 11
165.0
 21
292.0
 31
0.0
  0
LINE
  5
C4
330
1F
100
AcDbEntity
  8
0
  6
Continuous
 62
     7
370
    35
100
AcDbLine
 10
165.0
 20
10.0
 30
0.0
 11
165.0
 21
5.0
 31
0.0
  0
LINE
  5
C5
330
1F
100
AcDbEntity
  8
0
  6
Continuous
 62
     7
370
    35
100
AcDbLine
 10
215.0
 20
287.0
 30
0.0
 11
215.0
 21
292.0
 31
0.0
  0
LINE
  5
C6
330
1F
100
AcDbEntity
  8
0
  6
Continuous
 62
     7
370
    35
100
AcDbLine
 10
215.0
 20
10.0
 30
0.0
 11
215.0
 21
5.0
 31
0.0
  0
LINE
  5
C7
330
1F
100
AcDbEntity
  8
0
  6
Continuous
 62
     7
370
    35
100
AcDbLine
 10
265.0
 20
287.0
 30
0.0
 11
265.0
 21
292.0
 31
0.0
  0
LINE
  5
C8
330
1F
100
AcDbEntity
  8
0
  6
Continuous
 62
     7
370
    35
100
AcDbLine
 10
265.0
 20
10.0
 30
0.0
 11
265.0
 21
5.0
 31
0.0
  0
LINE
  5
C9
330
1F
100
AcDbEntity
  8
0
  6
Continuous
 62
     7
370
    35
100
AcDbLine
 10
315.0
 20
287.0
 30
0.0
 11
315.0
 21
292.0
 31
0.0
  0
LINE
  5
CA
330
1F
100
AcDbEntity
  8
0
  6
Continuous
 62
     7
370
    35
100
AcDbLine
 10
315.0
 20
10.0
 30
0.0
 11
315.0
 21
5.0
 31
0.0
  0
LINE
  5
CB
330
1F
100
AcDbEntity
  8
0
  6
Continuous
 62
     7
370
    35
100
AcDbLine
 10
365.0
 20
287.0
 30
0.0
 11
365.0
 21
292.0
 31
0.0
  0
LINE
  5
CC
330
1F
100
AcDbEntity
  8
0
  6
Continuous
 62
     7
370
    35
100
AcDbLine
 10
365.0
 20
10.0
 30
0.0
 11
365.0
 21
5.0
 31
0.0
  0
CIRCLE
  5
CD
330
1F
100
AcDbEntity
  8
DIMENSIONS
 62
     7
100
AcDbCircle
 10
301.9339320285
 20
44.5
 30
0.0
 40
2.0
  0
CIRCLE
  5
CE
330
1F
100
AcDbEntity
  8
DIMENSIONS
 62
     7
100
AcDbCircle
 10
301.9339320285
 20
44.5
 30
0.0
 40
3.25
  0
MTEXT
  5
D0
330
1F
100
AcDbEntity
  8
0
  6
Continuous
 62
     7
370
     0
100
AcDbMText
 10
361.7071653097
 20
78.9668770006
 30
0.0
 40
4.7625
 41
0.0
 71
     1
 72
     1
  1
Rep: 21-22-29
  7
SLDTEXTSTYLE0
 73
     1
 44
1.0
  0
INSERT
  5
D6
330
1F
100
AcDbEntity
  8
0
  6
Continuous
 62
     7
370
     0
100
AcDbBlockReference
  2
SW_NOTE_0
 10
38.5712701895
 20
210.159417257
 30
0.0
  0
INSERT
  5
DC
330
1F
100
AcDbEntity
  8
0
  6
Continuous
 62
     7
370
     0
100
AcDbBlockReference
  2
SW_NOTE_1
 10
241.0849330077
 20
217.5094178099
 30
0.0
  0
INSERT
  5
E2
330
1F
100
AcDbEntity
  8
0
  6
Continuous
 62
     7
370
     0
100
AcDbBlockReference
  2
SW_NOTE_2
 10
172.8431995151
 20
131.4918633698
 30
0.0
  0
MTEXT
  5
E3
330
1F
100
AcDbEntity
  8
0
  6
Continuous
 62
     7
370
     0
100
AcDbMText
 10
17.3396881428
 20
31.723057513
 30
0.0
 40
3.96875
 41
0.0
 71
     2
 72
     1
  1
A
  7
SLDTEXTSTYLE0
 73
     1
 44
1.0
  0
MTEXT
  5
E4
330
1F
100
AcDbEntity
  8
0
  6
Continuous
 62
     7
370
     0
100
AcDbMText
 10
412.3396881428
 20
31.723057513
 30
0.0
 40
3.96875
 41
0.0
 71
     2
 72
     1
  1
A
  7
SLDTEXTSTYLE0
 73
     1
 44
1.0
  0
MTEXT
  5
E5
330
1F
100
AcDbEntity
  8
0
  6
Continuous
 62
     7
370
     0
100
AcDbMText
 10
17.4706018241
 20
75.973057513
 30
0.0
 40
3.96875
 41
0.0
 71
     2
 72
     1
  1
B
  7
SLDTEXTSTYLE0
 73
     1
 44
1.0
  0
MTEXT
  5
E6
330
1F
100
AcDbEntity
  8
0
  6
Continuous
 62
     7
370
     0
100
AcDbMText
 10
412.4706018241
 20
75.973057513
 30
0.0
 40
3.96875
 41
0.0
 71
     2
 72
     1
  1
B
  7
SLDTEXTSTYLE0
 73
     1
 44
1.0
  0
MTEXT
  5
E7
330
1F
100
AcDbEntity
  8
0
  6
Continuous
 62
     7
370
     0
100
AcDbMText
 10
17.458658902
 20
125.973057513
 30
0.0
 40
3.96875
 41
0.0
 71
     2
 72
     1
  1
C
  7
SLDTEXTSTYLE0
 73
     1
 44
1.0
  0
MTEXT
  5
E8
330
1F
100
AcDbEntity
  8
0
  6
Continuous
 62
     7
370
     0
100
AcDbMText
 10
412.458658902
 20
125.973057513
 30
0.0
 40
3.96875
 41
0.0
 71
     2
 72
     1
  1
C
  7
SLDTEXTSTYLE0
 73
     1
 44
1.0
  0
MTEXT
  5
E9
330
1F
100
AcDbEntity
  8
0
  6
Continuous
 62
     7
370
     0
100
AcDbMText
 10
17.4526872821
 20
175.973057513
 30
0.0
 40
3.96875
 41
0.0
 71
     2
 72
     1
  1
D
  7
SLDTEXTSTYLE0
 73
     1
 44
1.0
  0
MTEXT
  5
EA
330
1F
100
AcDbEntity
  8
0
  6
Continuous
 62
     7
370
     0
100
AcDbMText
 10
412.4526872821
 20
175.973057513
 30
0.0
 40
3.96875
 41
0.0
 71
     2
 72
     1
  1
D
  7
SLDTEXTSTYLE0
 73
     1
 44
1.0
  0
MTEXT
  5
EB
330
1F
100
AcDbEntity
  8
0
  6
Continuous
 62
     7
370
     0
100
AcDbMText
 10
17.5078089051
 20
225.973057513
 30
0.0
 40
3.96875
 41
0.0
 71
     2
 72
     1
  1
E
  7
SLDTEXTSTYLE0
 73
     1
 44
1.0
  0
MTEXT
  5
EC
330
1F
100
AcDbEntity
  8
0
  6
Continuous
 62
     7
370
     0
100
AcDbMText
 10
412.5078089051
 20
225.973057513
 30
0.0
 40
3.96875
 41
0.0
 71
     2
 72
     1
  1
E
  7
SLDTEXTSTYLE0
 73
     1
 44
1.0
  0
MTEXT
  5
ED
330
1F
100
AcDbEntity
  8
0
  6
Continuous
 62
     7
370
     0
100
AcDbMText
 10
17.4577402091
 20
270.223057513
 30
0.0
 40
3.96875
 41
0.0
 71
     2
 72
     1
  1
F
  7
SLDTEXTSTYLE0
 73
     1
 44
1.0
  0
MTEXT
  5
EE
330
1F
100
AcDbEntity
  8
0
  6
Continuous
 62
     7
370
     0
100
AcDbMText
 10
412.4577402091
 20
270.223057513
 30
0.0
 40
3.96875
 41
0.0
 71
     2
 72
     1
  1
F
  7
SLDTEXTSTYLE0
 73
     1
 44
1.0
  0
MTEXT
  5
EF
330
1F
100
AcDbEntity
  8
0
  6
Continuous
 62
     7
370
     0
100
AcDbMText
 10
42.4600369465
 20
9.973057513
 30
0.0
 40
3.96875
 41
0.0
 71
     2
 72
     1
  1
8
  7
SLDTEXTSTYLE0
 73
     1
 44
1.0
  0
MTEXT
  5
F0
330
1F
100
AcDbEntity
  8
0
  6
Continuous
 62
     7
370
     0
100
AcDbMText
 10
42.4600369465
 20
291.973057513
 30
0.0
 40
3.96875
 41
0.0
 71
     2
 72
     1
  1
8
  7
SLDTEXTSTYLE0
 73
     1
 44
1.0
  0
MTEXT
  5
F1
330
1F
100
AcDbEntity
  8
0
  6
Continuous
 62
     7
370
     0
100
AcDbMText
 10
89.9600369465
 20
9.973057513
 30
0.0
 40
3.96875
 41
0.0
 71
     2
 72
     1
  1
7
  7
SLDTEXTSTYLE0
 73
     1
 44
1.0
  0
MTEXT
  5
F2
330
1F
100
AcDbEntity
  8
0
  6
Continuous
 62
     7
370
     0
100
AcDbMText
 10
89.9600369465
 20
291.973057513
 30
0.0
 40
3.96875
 41
0.0
 71
     2
 72
     1
  1
7
  7
SLDTEXTSTYLE0
 73
     1
 44
1.0
  0
MTEXT
  5
F3
330
1F
100
AcDbEntity
  8
0
  6
Continuous
 62
     7
370
     0
100
AcDbMText
 10
139.9600369465
 20
9.973057513
 30
0.0
 40
3.96875
 41
0.0
 71
     2
 72
     1
  1
6
  7
SLDTEXTSTYLE0
 73
     1
 44
1.0
  0
MTEXT
  5
F4
330
1F
100
AcDbEntity
  8
0
  6
Continuous
 62
     7
370
     0
100
AcDbMText
 10
139.9600369465
 20
291.973057513
 30
0.0
 40
3.96875
 41
0.0
 71
     2
 72
     1
  1
6
  7
SLDTEXTSTYLE0
 73
     1
 44
1.0
  0
MTEXT
  5
F5
330
1F
100
AcDbEntity
  8
0
  6
Continuous
 62
     7
370
     0
100
AcDbMText
 10
189.9600369465
 20
9.973057513
 30
0.0
 40
3.96875
 41
0.0
 71
     2
 72
     1
  1
5
  7
SLDTEXTSTYLE0
 73
     1
 44
1.0
  0
MTEXT
  5
F6
330
1F
100
AcDbEntity
  8
0
  6
Continuous
 62
     7
370
     0
100
AcDbMText
 10
189.9600369465
 20
291.973057513
 30
0.0
 40
3.96875
 41
0.0
 71
     2
 72
     1
  1
5
  7
SLDTEXTSTYLE0
 73
     1
 44
1.0
  0
MTEXT
  5
F7
330
1F
100
AcDbEntity
  8
0
  6
Continuous
 62
     7
370
     0
100
AcDbMText
 10
239.9600369465
 20
9.973057513
 30
0.0
 40
3.96875
 41
0.0
 71
     2
 72
     1
  1
4
  7
SLDTEXTSTYLE0
 73
     1
 44
1.0
  0
MTEXT
  5
F8
330
1F
100
AcDbEntity
  8
0
  6
Continuous
 62
     7
370
     0
100
AcDbMText
 10
239.9600369465
 20
291.973057513
 30
0.0
 40
3.96875
 41
0.0
 71
     2
 72
     1
  1
4
  7
SLDTEXTSTYLE0
 73
     1
 44
1.0
  0
MTEXT
  5
F9
330
1F
100
AcDbEntity
  8
0
  6
Continuous
 62
     7
370
     0
100
AcDbMText
 10
289.9600369465
 20
9.973057513
 30
0.0
 40
3.96875
 41
0.0
 71
     2
 72
     1
  1
3
  7
SLDTEXTSTYLE0
 73
     1
 44
1.0
  0
MTEXT
  5
FA
330
1F
100
AcDbEntity
  8
0
  6
Continuous
 62
     7
370
     0
100
AcDbMText
 10
289.9600369465
 20
291.973057513
 30
0.0
 40
3.96875
 41
0.0
 71
     2
 72
     1
  1
3
  7
SLDTEXTSTYLE0
 73
     1
 44
1.0
  0
MTEXT
  5
FB
330
1F
100
AcDbEntity
  8
0
  6
Continuous
 62
     7
370
     0
100
AcDbMText
 10
339.9600369465
 20
9.973057513
 30
0.0
 40
3.96875
 41
0.0
 71
     2
 72
     1
  1
2
  7
SLDTEXTSTYLE0
 73
     1
 44
1.0
  0
MTEXT
  5
FC
330
1F
100
AcDbEntity
  8
0
  6
Continuous
 62
     7
370
     0
100
AcDbMText
 10
339.9600369465
 20
291.973057513
 30
0.0
 40
3.96875
 41
0.0
 71
     2
 72
     1
  1
2
  7
SLDTEXTSTYLE0
 73
     1
 44
1.0
  0
MTEXT
  5
FD
330
1F
100
AcDbEntity
  8
0
  6
Continuous
 62
     7
370
     0
100
AcDbMText
 10
387.4600369465
 20
9.973057513
 30
0.0
 40
3.96875
 41
0.0
 71
     2
 72
     1
  1
1
  7
SLDTEXTSTYLE0
 73
     1
 44
1.0
  0
MTEXT
  5
FE
330
1F
100
AcDbEntity
  8
0
  6
Continuous
 62
     7
370
     0
100
AcDbMText
 10
387.4600369465
 20
291.973057513
 30
0.0
 40
3.96875
 41
0.0
 71
     2
 72
     1
  1
1
  7
SLDTEXTSTYLE0
 73
     1
 44
1.0
  0
MTEXT
  5
100
330
1F
100
AcDbEntity
  8
DIMENSIONS
100
AcDbMText
 10
214.6027253142
 20
27.5635148766
 30
0.0
 40
5.0
 41
0.0
 71
     1
 72
     1
  1
Matière: XC90
  7
SLDTEXTSTYLE1
 73
     1
 44
1.0
  0
MTEXT
  5
101
330
1F
100
AcDbEntity
  8
DIMENSIONS
100
AcDbMText
 10
214.6027253142
 20
36.1065810661
 30
0.0
 40
5.0
 41
0.0
 71
     1
 72
     1
  1
0100760102-OP20A-GUIDE-A
  7
SLDTEXTSTYLE1
 73
     1
 44
1.0
  0
MTEXT
  5
103
330
1F
100
AcDbEntity
  8
DIMENSIONS
100
AcDbMText
 10
369.5707948969
 20
33.5948758245
 30
0.0
 40
4.0
 41
0.0
 71
     2
 72
     1
  1
BEOS
  7
SLDTEXTSTYLE2
 73
     1
 44
1.0
  0
MTEXT
  5
105
330
1F
100
AcDbEntity
  8
DIMENSIONS
100
AcDbMText
 10
392.3724789768
 20
14.0971965899
 30
0.0
 40
2.0
 41
0.0
 71
     2
 72
     1
  1
Email : beos76@orange.fr
  7
SLDTEXTSTYLE3
 73
     1
 44
1.0
  0
MTEXT
  5
106
330
1F
100
AcDbEntity
  8
DIMENSIONS
100
AcDbMText
 10
346.0
 20
59.1258943396
 30
0.0
 40
5.0
 41
0.0
 71
     1
 72
     1
  1
Cde.
  7
SLDTEXTSTYLE2
 73
     1
 44
1.0
  0
MTEXT
  5
108
330
1F
100
AcDbEntity
  8
DIMENSIONS
100
AcDbMText
 10
309.2208712864
 20
45.598408559
 30
0.0
 40
1.7276751971
 41
0.0
 71
     1
 72
     1
  1
Dessiné par:
  7
SLDTEXTSTYLE4
 73
     1
 44
1.0
  0
MTEXT
  5
109
330
1F
100
AcDbEntity
  8
DIMENSIONS
100
AcDbMText
 10
326.4195026798
 20
58.7007155648
 30
0.0
 40
4.0
 41
0.0
 71
     2
 72
     1
  1
DEFI-Group
  7
SLDTEXTSTYLE2
 73
     1
 44
1.0
  0
MTEXT
  5
10B
330
1F
100
AcDbEntity
  8
DIMENSIONS
100
AcDbMText
 10
327.3551528431
 20
45.4199710251
 30
0.0
 40
2.5
 41
0.0
 71
     1
 72
     1
  1
jc-seraffin
  7
SLDTEXTSTYLE5
 73
     1
 44
1.0
  0
MTEXT
  5
10C
330
1F
100
AcDbEntity
  8
DIMENSIONS
100
AcDbMText
 10
344.3602706231
 20
14.4285775677
 30
0.0
 40
2.0
 41
0.0
 71
     2
 72
     1
  1
Tel. : 06-79-99-54-55
  7
SLDTEXTSTYLE3
 73
     1
 44
1.0
  0
MTEXT
  5
10D
330
1F
100
AcDbEntity
  8
DIMENSIONS
100
AcDbMText
 10
296.1939384288
 20
16.9513842137
 30
0.0
 40
4.0
 41
0.0
 71
     1
 72
     1
  1
OR
  7
SLDTEXTSTYLE5
 73
     1
 44
1.0
  0
MTEXT
  5
10F
330
1F
100
AcDbEntity
  8
DIMENSIONS
100
AcDbMText
 10
309.0341104783
 20
15.598408559
 30
0.0
 40
1.7276751971
 41
0.0
 71
     1
 72
     1
  1
PL:
  7
SLDTEXTSTYLE6
 73
     1
 44
1.0
  0
MTEXT
  5
111
330
1F
100
AcDbEntity
  8
DIMENSIONS
100
AcDbMText
 10
316.6508932625
 20
17.1730450679
 30
0.0
 40
4.0
 41
0.0
 71
     1
 72
     1
  1
1-1
  7
SLDTEXTSTYLE7
 73
     1
 44
1.0
  0
MTEXT
  5
112
330
1F
100
AcDbEntity
  8
DIMENSIONS
100
AcDbMText
 10
261.9515655236
 20
45.598408559
 30
0.0
 40
1.7276751971
 41
0.0
 71
     1
 72
     1
  1
Tol Gén:
  7
SLDTEXTSTYLE4
 73
     1
 44
1.0
  0
MTEXT
  5
114
330
1F
100
AcDbEntity
  8
DIMENSIONS
100
AcDbMText
 10
267.4891856546
 20
51.3475100145
 30
0.0
 40
1.5670523329
 41
0.0
 71
     1
 72
     1
  1
Modification
  7
SLDTEXTSTYLE8
 73
     1
 44
1.0
  0
MTEXT
  5
116
330
1F
100
AcDbEntity
  8
DIMENSIONS
100
AcDbMText
 10
241.9106589191
 20
45.5599112198
 30
0.0
 40
1.8140589569
 41
0.0
 71
     1
 72
     1
  1
ECH:
  7
SLDTEXTSTYLE9
 73
     1
 44
1.0
  0
MTEXT
  5
118
330
1F
100
AcDbEntity
  8
DIMENSIONS
100
AcDbMText
 10
223.8240656909
 20
51.2833428182
 30
0.0
 40
1.4924307933
 41
0.0
 71
     1
 72
     1
  1
Date
  7
SLDTEXTSTYLE10
 73
     1
 44
1.0
  0
MTEXT
  5
11A
330
1F
100
AcDbEntity
  8
DIMENSIONS
100
AcDbMText
 10
234.2544584761
 20
51.2833428182
 30
0.0
 40
1.4924307933
 41
0.0
 71
     1
 72
     1
  1
Ind
  7
SLDTEXTSTYLE11
 73
     1
 44
1.0
  0
MTEXT
  5
11B
330
1F
100
AcDbEntity
  8
DIMENSIONS
100
AcDbMText
 10
221.5328904105
 20
45.2534731211
 30
0.0
 40
2.5
 41
0.0
 71
     1
 72
     1
  1
03/04/2018
  7
SLDTEXTSTYLE1
 73
     1
 44
1.0
  0
MTEXT
  5
11C
330
1F
100
AcDbEntity
  8
DIMENSIONS
100
AcDbMText
 10
249.6197693968
 20
45.2403548954
 30
0.0
 40
2.5
 41
0.0
 71
     1
 72
     1
  1
1:1
  7
SLDTEXTSTYLE1
 73
     1
 44
1.0
  0
MTEXT
  5
11D
330
1F
100
AcDbEntity
  8
DIMENSIONS
100
AcDbMText
 10
283.8256503628
 20
15.598408559
 30
0.0
 40
1.7276751971
 41
0.0
 71
     1
 72
     1
  1
Ind:
  7
SLDTEXTSTYLE6
 73
     1
 44
1.0
  0
MTEXT
  5
11E
330
1F
100
AcDbEntity
  8
DIMENSIONS
100
AcDbMText
 10
217.3367318739
 20
16.9513842137
 30
0.0
 40
4.0
 41
0.0
 71
     1
 72
     1
  1
BRACKETS
  7
SLDTEXTSTYLE5
 73
     1
 44
1.0
  0
MTEXT
  5
11F
330
1F
100
AcDbEntity
  8
DIMENSIONS
100
AcDbMText
 10
211.0341104783
 20
45.598408559
 30
0.0
 40
1.7276751971
 41
0.0
 71
     1
 72
     1
  1
DATE:
  7
SLDTEXTSTYLE6
 73
     1
 44
1.0
  0
MTEXT
  5
121
330
1F
100
AcDbEntity
  8
DIMENSIONS
100
AcDbMText
 10
211.6550978321
 20
51.3475100145
 30
0.0
 40
1.5670523329
 41
0.0
 71
     1
 72
     1
  1
Visa
  7
SLDTEXTSTYLE12
 73
     1
 44
1.0
  0
MTEXT
  5
122
330
1F
100
AcDbEntity
  8
DIMENSIONS
100
AcDbMText
 10
211.0341104783
 20
15.598408559
 30
0.0
 40
1.7276751971
 41
0.0
 71
     1
 72
     1
  1
Ref:
  7
SLDTEXTSTYLE6
 73
     1
 44
1.0
  0
MTEXT
  5
124
330
1F
100
AcDbEntity
  8
DIMENSIONS
100
AcDbMText
 10
370.9092356873
 20
24.448350257
 30
0.0
 40
2.5
 41
0.0
 71
     2
 72
     1
  1
3 rue de NEUFCHATEL
  7
SLDTEXTSTYLE13
 73
     1
 44
1.0
  0
MTEXT
  5
125
330
1F
100
AcDbEntity
  8
DIMENSIONS
100
AcDbMText
 10
370.9025425888
 20
19.6232446981
 30
0.0
 40
2.5
 41
0.0
 71
     2
 72
     1
  1
76510 St. NICOLAS D'ALIERMONT
  7
SLDTEXTSTYLE13
 73
     1
 44
1.0
  0
MTEXT
  5
126
330
1F
100
AcDbEntity
  8
DIMENSIONS
100
AcDbMText
 10
364.7704755208
 20
59.9398349857
 30
0.0
 40
5.2916666667
 41
0.0
 71
     1
 72
     1
  1
010076 01 02
  7
SLDTEXTSTYLE7
 73
     1
 44
1.0
  0
LINE
  5
127
330
1F
100
AcDbEntity
  8
0
  6
Continuous
 62
     7
370
    25
100
AcDbLine
 10
101.8490236068
 20
188.4178681385
 30
0.0
 11
101.8490236068
 21
223.4178701502
 31
0.0
  0
LINE
  5
128
330
1F
100
AcDbEntity
  8
0
  6
Continuous
 62
     7
370
    25
100
AcDbLine
 10
101.8490236068
 20
223.4178701502
 30
0.0
 11
159.8282944227
 21
223.4178701502
 31
0.0
  0
LINE
  5
129
330
1F
100
AcDbEntity
  8
0
  6
Continuous
 62
     7
370
    25
100
AcDbLine
 10
159.8282944227
 20
223.4178701502
 30
0.0
 11
159.8282944227
 21
188.4178681385
 31
0.0
  0
LINE
  5
12A
330
1F
100
AcDbEntity
  8
0
  6
Continuous
 62
     7
370
    25
100
AcDbLine
 10
159.8282944227
 20
188.4178681385
 30
0.0
 11
101.8490236068
 21
188.4178681385
 31
0.0
  0
CIRCLE
  5
12B
330
1F
100
AcDbEntity
  8
0
  6
Continuous
 62
     7
370
    25
100
AcDbCircle
 10
114.8282992665
 20
198.4178699267
 30
0.0
 40
3.0
  0
CIRCLE
  5
12C
330
1F
100
AcDbEntity
  8
0
  6
Continuous
 62
     7
370
    25
100
AcDbCircle
 10
149.8282992665
 20
213.4178699267
 30
0.0
 40
3.0
  0
CIRCLE
  5
12D
330
1F
100
AcDbEntity
  8
0
  6
Continuous
 62
     7
370
    25
100
AcDbCircle
 10
114.8282992665
 20
213.4178699267
 30
0.0
 40
3.299999999999983
  0
CIRCLE
  5
12E
330
1F
100
AcDbEntity
  8
0
  6
Continuous
 62
     7
370
    25
100
AcDbCircle
 10
149.8282992665
 20
198.4178699267
 30
0.0
 40
3.299999999999983
  0
LINE
  5
12F
330
1F
100
AcDbEntity
  8
0
  6
Continuous
 62
     7
370
    25
100
AcDbLine
 10
99.8282994891
 20
223.4178701502
 30
0.0
 11
99.8282994891
 21
188.4178681385
 31
0.0
  0
LINE
  5
130
330
1F
100
AcDbEntity
  8
0
  6
Continuous
 62
     7
370
    25
100
AcDbLine
 10
99.8282994891
 20
188.4178681385
 30
0.0
 11
101.8490236068
 21
188.4178681385
 31
0.0
  0
LINE
  5
131
330
1F
100
AcDbEntity
  8
0
  6
Continuous
 62
     7
370
    25
100
AcDbLine
 10
101.8490236068
 20
223.4178701502
 30
0.0
 11
99.8282994891
 21
223.4178701502
 31
0.0
  0
DIMENSION
  5
132
330
1F
100
AcDbEntity
  8
0
  6
Continuous
 62
     7
370
    18
100
AcDbDimension
  2
_D
 10
175.8282992665
 20
198.4178699267
 30
0.0
 11
175.8282992665
 21
194.632700227
 31
0.0
 70
   160
  1
<>
 71
     2
 42
-1.0
  3
SLDDIMSTYLE0
100
AcDbAlignedDimension
 13
159.8282992665
 23
188.4178699267
 33
0.0
 14
120.3282992665
 24
198.4178699267
 34
0.0
 50
90.0
100
AcDbRotatedDimension
  0
DIMENSION
  5
13F
330
1F
100
AcDbEntity
  8
0
  6
Continuous
 62
     7
370
    18
100
AcDbDimension
  2
_D_1
 10
175.8282992665
 20
213.4178699267
 30
0.0
 11
175.8282992665
 21
218.3556482917
 31
0.0
 70
   160
  1
<>
 71
     2
 42
-1.0
  3
SLDDIMSTYLE0
100
AcDbAlignedDimension
 13
159.8282992665
 23
223.4178699267
 33
0.0
 14
120.6282992665
 24
213.4178699267
 34
0.0
 50
90.0
100
AcDbRotatedDimension
  0
DIMENSION
  5
14B
330
1F
100
AcDbEntity
  8
0
  6
Continuous
 62
     7
370
    18
100
AcDbDimension
  2
_D_2
 10
183.9069694981
 20
188.4178699267
 30
0.0
 11
183.9069694981
 21
206.3873141329
 31
0.0
 70
   160
  1
<>
 71
     2
 42
-1.0
  3
SLDDIMSTYLE1
100
AcDbAlignedDimension
 13
159.8282992665
 23
223.4178699267
 33
0.0
 14
159.8282992665
 24
188.4178699267
 34
0.0
 50
90.0
100
AcDbRotatedDimension
  0
DIMENSION
  5
156
330
1F
100
AcDbEntity
  8
0
  6
Continuous
 62
     7
370
    18
100
AcDbDimension
  2
_D_3
 10
149.8282992665
 20
176.466478736
 30
0.0
 11
154.4135746068
 21
176.466478736
 31
0.0
 70
   160
  1
<>
 71
     2
 42
-1.0
  3
SLDDIMSTYLE0
100
AcDbAlignedDimension
 13
159.8282992665
 23
188.4178699267
 33
0.0
 14
149.8282992665
 24
207.9178699267
 34
0.0
100
AcDbRotatedDimension
  0
DIMENSION
  5
162
330
1F
100
AcDbEntity
  8
0
  6
Continuous
 62
     7
370
    18
100
AcDbDimension
  2
_D_4
 10
114.8282992665
 20
169.8411508981
 30
0.0
 11
138.1708353913
 21
169.8411508981
 31
0.0
 70
   160
  1
<>
 71
     2
 42
-1.0
  3
SLDDIMSTYLE1
100
AcDbAlignedDimension
 13
159.8282992665
 23
188.4178699267
 33
0.0
 14
114.8282992665
 24
207.6178699267
 34
0.0
100
AcDbRotatedDimension
  0
DIMENSION
  5
16C
330
1F
100
AcDbEntity
  8
0
  6
Continuous
 62
     7
370
    18
100
AcDbDimension
  2
_D_5
 10
159.8282992665
 20
162.5746623017
 30
0.0
 11
130.2631860364
 21
162.5746623017
 31
0.0
 70
   160
  1
<>
 71
     2
 42
-1.0
  3
SLDDIMSTYLE1
100
AcDbAlignedDimension
 13
99.8282992665
 23
188.4178699267
 33
0.0
 14
159.8282992665
 24
188.4178699267
 34
0.0
100
AcDbRotatedDimension
  0
INSERT
  5
181
330
1F
100
AcDbEntity
  8
0
  6
Continuous
 62
     7
370
     0
100
AcDbBlockReference
  2
SW_CENTERMARKSYMBOL_0
 10
149.8282992665
 20
198.4178699267
 30
0.0
  0
INSERT
  5
18D
330
1F
100
AcDbEntity
  8
0
  6
Continuous
 62
     7
370
     0
100
AcDbBlockReference
  2
SW_CENTERMARKSYMBOL_1
 10
114.8282992665
 20
213.4178699267
 30
0.0
  0
INSERT
  5
199
330
1F
100
AcDbEntity
  8
0
  6
Continuous
 62
     7
370
     0
100
AcDbBlockReference
  2
SW_CENTERMARKSYMBOL_2
 10
114.8282992665
 20
198.4178699267
 30
0.0
  0
INSERT
  5
1A5
330
1F
100
AcDbEntity
  8
0
  6
Continuous
 62
     7
370
     0
100
AcDbBlockReference
  2
SW_CENTERMARKSYMBOL_3
 10
149.8282992665
 20
213.4178699267
 30
0.0
  0
LINE
  5
1A6
330
1F
100
AcDbEntity
  8
0
  6
PHANTOM
 62
     7
370
    35
100
AcDbLine
 10
153.9157992665
 20
213.4178699267
 30
0.0
 11
166.6157992665
 21
213.4178699267
 31
0.0
  0
LINE
  5
1A7
330
1F
100
AcDbEntity
  8
0
  6
PHANTOM
 62
     7
370
    35
100
AcDbLine
 10
93.0407992665
 20
213.4178699267
 30
0.0
 11
105.7471492665
 21
213.4178699267
 31
0.0
  0
LINE
  5
1A8
330
1F
100
AcDbEntity
  8
0
  6
Continuous
 62
     7
370
    35
100
AcDbLine
 10
165.0282992665
 20
200.7178699267
 30
0.0
 11
165.0282992665
 21
213.4178699267
 31
0.0
  0
SOLID
  5
1A9
330
1F
100
AcDbEntity
  8
0
  6
Continuous
 62
     7
370
    35
100
AcDbTrace
 10
165.0282992665
 20
213.4178699267
 30
0.0
 11
164.0122992665
 21
207.0678699267
 31
0.0
 12
166.0442992665
 22
207.0678699267
 32
0.0
 13
166.0442992665
 23
207.0678699267
 33
0.0
  0
LINE
  5
1AA
330
1F
100
AcDbEntity
  8
0
  6
Continuous
 62
     7
370
    35
100
AcDbLine
 10
94.6282992665
 20
200.7178699267
 30
0.0
 11
94.6282992665
 21
213.4178699267
 31
0.0
  0
SOLID
  5
1AB
330
1F
100
AcDbEntity
  8
0
  6
Continuous
 62
     7
370
    35
100
AcDbTrace
 10
94.6282992665
 20
213.4178699267
 30
0.0
 11
93.6122992665
 21
207.0678699267
 31
0.0
 12
95.6442992665
 22
207.0678699267
 32
0.0
 13
95.6442992665
 23
207.0678699267
 33
0.0
  0
MTEXT
  5
1AC
330
1F
100
AcDbEntity
  8
0
  6
Continuous
 62
     7
100
AcDbMText
 10
166.408673713
 20
206.276822214
 30
0.0
 40
3.5
 41
0.0
 71
     1
 72
     1
  1
A
  7
SLDTEXTSTYLE0
 73
     1
 44
1.0
  0
MTEXT
  5
1AD
330
1F
100
AcDbEntity
  8
0
  6
Continuous
 62
     7
100
AcDbMText
 10
89.7969887039
 20
206.276822214
 30
0.0
 40
3.5
 41
0.0
 71
     1
 72
     1
  1
A
  7
SLDTEXTSTYLE0
 73
     1
 44
1.0
  0
INSERT
  5
1B4
330
1F
100
AcDbEntity
  8
0
  6
Continuous
 62
     7
370
     0
100
AcDbBlockReference
  2
SW_DOWELSYMBOL_0
 10
149.8282992665
 20
213.4178699267
 30
0.0
  0
INSERT
  5
1BB
330
1F
100
AcDbEntity
  8
0
  6
Continuous
 62
     7
370
     0
100
AcDbBlockReference
  2
SW_DOWELSYMBOL_1
 10
114.8282992665
 20
198.4178699267
 30
0.0
  0
LINE
  5
1BC
330
1F
100
AcDbEntity
  8
0
  6
Continuous
 62
     7
370
    25
100
AcDbLine
 10
111.5282963777
 20
259.5757499317
 30
0.0
 11
118.1282963419
 21
259.5757499317
 31
0.0
  0
LINE
  5
1BD
330
1F
100
AcDbEntity
  8
0
  6
Continuous
 62
     7
370
    25
100
AcDbLine
 10
111.5282963777
 20
259.5757499317
 30
0.0
 11
111.5282963777
 21
267.075749764
 31
0.0
  0
LINE
  5
1BE
330
1F
100
AcDbEntity
  8
0
  6
Continuous
 62
     7
370
    25
100
AcDbLine
 10
111.5282963777
 20
267.075749764
 30
0.0
 11
118.1282963419
 21
267.075749764
 31
0.0
  0
LINE
  5
1BF
330
1F
100
AcDbEntity
  8
0
  6
Continuous
 62
     7
370
    25
100
AcDbLine
 10
118.1282963419
 20
267.075749764
 30
0.0
 11
118.1282963419
 21
259.5757499317
 31
0.0
  0
LINE
  5
1C0
330
1F
100
AcDbEntity
  8
0
  6
Continuous
 62
     7
370
    25
100
AcDbLine
 10
146.8282978797
 20
259.5757499317
 30
0.0
 11
152.8283025885
 21
259.5757499317
 31
0.0
  0
LINE
  5
1C1
330
1F
100
AcDbEntity
  8
0
  6
Continuous
 62
     7
370
    25
100
AcDbLine
 10
146.8282978797
 20
259.5757499317
 30
0.0
 11
146.8282978797
 21
267.075749764
 31
0.0
  0
LINE
  5
1C2
330
1F
100
AcDbEntity
  8
0
  6
Continuous
 62
     7
370
    25
100
AcDbLine
 10
146.8282978797
 20
267.075749764
 30
0.0
 11
152.8283025885
 21
267.075749764
 31
0.0
  0
LINE
  5
1C3
330
1F
100
AcDbEntity
  8
0
  6
Continuous
 62
     7
370
    25
100
AcDbLine
 10
152.8283025885
 20
267.075749764
 30
0.0
 11
152.8283025885
 21
259.5757499317
 31
0.0
  0
LINE
  5
1C4
330
1F
100
AcDbEntity
  8
0
  6
Continuous
 62
     7
370
    25
100
AcDbLine
 10
146.8282978797
 20
267.075749764
 30
0.0
 11
118.1282963419
 21
267.075749764
 31
0.0
  0
LINE
  5
1C5
330
1F
100
AcDbEntity
  8
0
  6
Continuous
 62
     7
370
    25
100
AcDbLine
 10
146.8282978797
 20
259.5757499317
 30
0.0
 11
118.1282963419
 21
259.5757499317
 31
0.0
  0
LINE
  5
1C6
330
1F
100
AcDbEntity
  8
0
  6
Continuous
 62
     7
370
    25
100
AcDbLine
 10
111.5282963777
 20
267.075749764
 30
0.0
 11
101.8490236068
 21
267.075749764
 31
0.0
  0
LINE
  5
1C7
330
1F
100
AcDbEntity
  8
0
  6
Continuous
 62
     7
370
    25
100
AcDbLine
 10
99.8282994891
 20
263.5757501216
 30
0.0
 11
99.8282994891
 21
259.5757499317
 31
0.0
  0
LINE
  5
1C8
330
1F
100
AcDbEntity
  8
0
  6
Continuous
 62
     7
370
    25
100
AcDbLine
 10
99.8282994891
 20
263.5757501216
 30
0.0
 11
101.8490236068
 21
267.075749764
 31
0.0
  0
LINE
  5
1C9
330
1F
100
AcDbEntity
  8
0
  6
Continuous
 62
     7
370
    25
100
AcDbLine
 10
111.5282963777
 20
259.5757499317
 30
0.0
 11
99.8282994891
 21
259.5757499317
 31
0.0
  0
LINE
  5
1CA
330
1F
100
AcDbEntity
  8
0
  6
Continuous
 62
     7
370
    25
100
AcDbLine
 10
159.8282944227
 20
267.075749764
 30
0.0
 11
152.8283025885
 21
267.075749764
 31
0.0
  0
LINE
  5
1CB
330
1F
100
AcDbEntity
  8
0
  6
Continuous
 62
     7
370
    25
100
AcDbLine
 10
159.8282944227
 20
259.5757499317
 30
0.0
 11
159.8282944227
 21
267.075749764
 31
0.0
  0
LINE
  5
1CC
330
1F
100
AcDbEntity
  8
0
  6
Continuous
 62
     7
370
    25
100
AcDbLine
 10
159.8282944227
 20
259.5757499317
 30
0.0
 11
152.8283025885
 21
259.5757499317
 31
0.0
  0
HATCH
  5
1CD
330
1F
100
AcDbEntity
  8
0
  6
Continuous
 62
     7
370
    18
100
AcDbHatch
 10
0.0
 20
0.0
 30
0.0
210
0.0
220
0.0
230
1.0
  2
ANSI31
 70
     0
 71
     0
 91
        1
 92
        0
 93
        5
 72
     1
 10
101.8490252086673
 20
267.0757499316576
 11
99.82829926650365
 21
263.5757499316576
 72
     1
 10
99.82829926650365
 20
263.5757499316576
 11
99.82829926650365
 21
259.5757499316576
 72
     1
 10
99.82829926650365
 20
259.5757499316576
 11
111.5282992665037
 21
259.5757499316576
 72
     1
 10
111.5282992665037
 20
259.5757499316576
 11
111.5282992665037
 21
267.0757499316576
 72
     1
 10
111.5282992665037
 20
267.0757499316576
 11
101.8490252086673
 21
267.0757499316576
 97
        0
 75
     0
 76
     1
 52
0.0
 41
1.0
 77
     0
 78
     1
 53
45.0
 43
0.0
 44
0.0
 45
-2.245064030267288
 46
2.245064030267288
 79
     0
 98
        1
 10
0.0
 20
0.0
  0
HATCH
  5
1CE
330
1F
100
AcDbEntity
  8
0
  6
Continuous
 62
     7
370
    18
100
AcDbHatch
 10
0.0
 20
0.0
 30
0.0
210
0.0
220
0.0
230
1.0
  2
ANSI31
 70
     0
 71
     0
 91
        1
 92
        0
 93
        4
 72
     1
 10
152.8282992665036
 20
259.5757499316576
 11
159.8282992665036
 21
259.5757499316576
 72
     1
 10
159.8282992665036
 20
259.5757499316576
 11
159.8282992665036
 21
267.0757499316576
 72
     1
 10
159.8282992665036
 20
267.0757499316576
 11
152.8282992665036
 21
267.0757499316576
 72
     1
 10
152.8282992665036
 20
267.0757499316576
 11
152.8282992665036
 21
259.5757499316576
 97
        0
 75
     0
 76
     1
 52
0.0
 41
1.0
 77
     0
 78
     1
 53
45.0
 43
0.0
 44
0.0
 45
-2.245064030267288
 46
2.245064030267288
 79
     0
 98
        1
 10
0.0
 20
0.0
  0
HATCH
  5
1CF
330
1F
100
AcDbEntity
  8
0
  6
Continuous
 62
     7
370
    18
100
AcDbHatch
 10
0.0
 20
0.0
 30
0.0
210
0.0
220
0.0
230
1.0
  2
ANSI31
 70
     0
 71
     0
 91
        1
 92
        0
 93
        4
 72
     1
 10
146.8282992665036
 20
267.0757499316576
 11
118.1282992665036
 21
267.0757499316576
 72
     1
 10
118.1282992665036
 20
267.0757499316576
 11
118.1282992665036
 21
259.5757499316576
 72
     1
 10
118.1282992665036
 20
259.5757499316576
 11
146.8282992665036
 21
259.5757499316576
 72
     1
 10
146.8282992665036
 20
259.5757499316576
 11
146.8282992665036
 21
267.0757499316576
 97
        0
 75
     0
 76
     1
 52
0.0
 41
1.0
 77
     0
 78
     1
 53
45.0
 43
0.0
 44
0.0
 45
-2.245064030267288
 46
2.245064030267288
 79
     0
 98
        1
 10
0.0
 20
0.0
  0
DIMENSION
  5
1D0
330
1F
100
AcDbEntity
  8
0
  6
Continuous
 62
     7
370
    18
100
AcDbDimension
  2
_D_6
 10
89.8282992665
 20
259.5757499317
 30
0.0
 11
89.8282992665
 21
249.5757499317
 31
0.0
 70
   160
  1
<>
 71
     2
 42
-1.0
  3
SLDDIMSTYLE0
100
AcDbAlignedDimension
 13
99.8282992665
 23
263.5757499317
 33
0.0
 14
99.8282992665
 24
259.5757499317
 34
0.0
 50
90.0
100
AcDbRotatedDimension
  0
DIMENSION
  5
1DC
330
1F
100
AcDbEntity
  8
0
  6
Continuous
 62
     7
370
    18
100
AcDbDimension
  2
_D_7
 10
99.8282992665
 20
263.5757499317
 30
0.0
 11
104.1626001588
 21
279.9872262032
 31
0.0
 70
   162
  1
<>
 71
     1
 42
-1.0
  3
SLDDIMSTYLE2
100
AcDb2LineAngularDimension
 13
99.8282992665
 23
263.5757499317
 33
0.0
 14
101.8490252087
 24
267.0757499317
 34
0.0
 15
99.8282992665
 25
259.5757499317
 35
0.0
 16
104.2215397992
 26
279.9715468095
 36
0.0
  0
DIMENSION
  5
1E9
330
1F
100
AcDbEntity
  8
0
  6
Continuous
 62
     7
370
    18
100
AcDbDimension
  2
_D_8
 10
118.1282992665
 20
249.5757499317
 30
0.0
 11
101.3426801561
 21
249.5757499317
 31
0.0
 70
   160
  1
%%c<>
 71
     2
 42
-1.0
  3
SLDDIMSTYLE0
100
AcDbAlignedDimension
 13
111.5282992665
 23
259.5757499317
 33
0.0
 14
118.1282992665
 24
259.5757499317
 34
0.0
100
AcDbRotatedDimension
  0
DIMENSION
  5
1F6
330
1F
100
AcDbEntity
  8
0
  6
Continuous
 62
     7
370
    18
100
AcDbDimension
  2
_D_9
 10
152.8282992665
 20
249.5757499317
 30
0.0
 11
158.0379138945
 21
249.5757499317
 31
0.0
 70
   160
  1
%%c<>H7
 71
     2
 42
-1.0
  3
SLDDIMSTYLE0
100
AcDbAlignedDimension
 13
146.8282992665
 23
259.5757499317
 33
0.0
 14
152.8282992665
 24
259.5757499317
 34
0.0
100
AcDbRotatedDimension
  0
DIMENSION
  5
204
330
1F
100
AcDbEntity
  8
0
  6
Continuous
 62
     7
370
    18
100
AcDbDimension
  2
_D_10
 10
173.0280149614
 20
267.0757499317
 30
0.0
 11
173.0280149614
 21
275.0567959777
 31
0.0
 70
   160
  1
<>
 71
     2
 42
-1.0
  3
SLDDIMSTYLE1
100
AcDbAlignedDimension
 13
159.8282992665
 23
259.5757499317
 33
0.0
 14
159.8282992665
 24
267.0757499317
 34
0.0
 50
90.0
100
AcDbRotatedDimension
  0
MTEXT
  5
20F
330
1F
100
AcDbEntity
  8
0
  6
Continuous
 62
     7
370
     0
100
AcDbMText
 10
47.1063743936
 20
278.5428386444
 30
0.0
 40
3.5
 41
0.0
 71
     2
 72
     1
  1
COUPE A-A
  7
SLDTEXTSTYLE0
 73
     1
 44
1.0
  0
LINE
  5
210
330
1F
100
AcDbEntity
  8
0
  6
CENTERX2
 62
     7
370
    18
100
AcDbLine
 10
114.8282992665
 20
269.0757499317
 30
0.0
 11
114.8282992665
 21
257.5757499317
 31
0.0
  0
LINE
  5
211
330
1F
100
AcDbEntity
  8
0
  6
CENTERX2
 62
     7
370
    18
100
AcDbLine
 10
149.8282992665
 20
269.0757499317
 30
0.0
 11
149.8282992665
 21
257.5757499317
 31
0.0
  0
LINE
  5
212
330
1F
100
AcDbEntity
  8
0
  6
Continuous
 62
     7
370
    25
100
AcDbLine
 10
351.9197386055
 20
181.5861858191
 30
0.0
 11
351.9197386055
 21
121.5861858191
 31
0.0
  0
LINE
  5
213
330
1F
100
AcDbEntity
  8
0
  6
Continuous
 62
     7
370
    25
100
AcDbLine
 10
351.9197386055
 20
121.5861858191
 30
0.0
 11
333.9404645477
 21
121.5861858191
 31
0.0
  0
LINE
  5
214
330
1F
100
AcDbEntity
  8
0
  6
Continuous
 62
     7
370
    25
100
AcDbLine
 10
333.9404645477
 20
121.5861858191
 30
0.0
 11
333.9404645477
 21
181.5861858191
 31
0.0
  0
LINE
  5
215
330
1F
100
AcDbEntity
  8
0
  6
Continuous
 62
     7
370
    25
100
AcDbLine
 10
333.9404645477
 20
181.5861858191
 30
0.0
 11
351.9197386055
 21
181.5861858191
 31
0.0
  0
CIRCLE
  5
216
330
1F
100
AcDbEntity
  8
0
  6
Continuous
 62
     7
370
    25
100
AcDbCircle
 10
342.9404645477
 20
141.5861858191
 30
0.0
 40
3.000000000000057
  0
CIRCLE
  5
217
330
1F
100
AcDbEntity
  8
0
  6
Continuous
 62
     7
370
    25
100
AcDbCircle
 10
342.9404645477
 20
161.5861858191
 30
0.0
 40
3.000000000000057
  0
CIRCLE
  5
218
330
1F
100
AcDbEntity
  8
0
  6
Continuous
 62
     7
370
    25
100
AcDbCircle
 10
342.9404645477
 20
173.5861858191
 30
0.0
 40
3.300000000000011
  0
CIRCLE
  5
219
330
1F
100
AcDbEntity
  8
0
  6
Continuous
 62
     7
370
    25
100
AcDbCircle
 10
342.9404645477
 20
129.5861858191
 30
0.0
 40
3.300000000000011
  0
LINE
  5
21A
330
1F
100
AcDbEntity
  8
0
  6
Continuous
 62
     7
370
    25
100
AcDbLine
 10
353.9404645477
 20
121.5861858191
 30
0.0
 11
353.9404645477
 21
181.5861858191
 31
0.0
  0
LINE
  5
21B
330
1F
100
AcDbEntity
  8
0
  6
Continuous
 62
     7
370
    25
100
AcDbLine
 10
353.9404645477
 20
181.5861858191
 30
0.0
 11
351.9197386055
 21
181.5861858191
 31
0.0
  0
LINE
  5
21C
330
1F
100
AcDbEntity
  8
0
  6
Continuous
 62
     7
370
    25
100
AcDbLine
 10
351.9197386055
 20
121.5861858191
 30
0.0
 11
353.9404645477
 21
121.5861858191
 31
0.0
  0
DIMENSION
  5
21D
330
1F
100
AcDbEntity
  8
0
  6
Continuous
 62
     7
370
    18
100
AcDbDimension
  2
_D_11
 10
375.9404645477
 20
181.5861858191
 30
0.0
 11
375.9404645477
 21
151.7879722993
 31
0.0
 70
   160
  1
<>
 71
     2
 42
-1.0
  3
SLDDIMSTYLE1
100
AcDbAlignedDimension
 13
353.9404645477
 23
121.5861858191
 33
0.0
 14
353.9404645477
 24
181.5861858191
 34
0.0
 50
90.0
100
AcDbRotatedDimension
  0
DIMENSION
  5
227
330
1F
100
AcDbEntity
  8
0
  6
Continuous
 62
     7
370
    18
100
AcDbDimension
  2
_D_12
 10
323.9404645477
 20
173.5861858191
 30
0.0
 11
323.9404645477
 21
186.7612297764
 31
0.0
 70
   160
  1
<>
 71
     2
 42
-1.0
  3
SLDDIMSTYLE1
100
AcDbAlignedDimension
 13
333.9404645477
 23
181.5861858191
 33
0.0
 14
337.1404645477
 24
173.5861858191
 34
0.0
 50
90.0
100
AcDbRotatedDimension
  0
DIMENSION
  5
232
330
1F
100
AcDbEntity
  8
0
  6
Continuous
 62
     7
370
    18
100
AcDbDimension
  2
_D_13
 10
323.9404645477
 20
121.5861858191
 30
0.0
 11
323.9404645477
 21
115.9848108183
 31
0.0
 70
   160
  1
<>
 71
     2
 42
-1.0
  3
SLDDIMSTYLE1
100
AcDbAlignedDimension
 13
337.1404645477
 23
129.5861858191
 33
0.0
 14
333.9404645477
 24
121.5861858191
 34
0.0
 50
90.0
100
AcDbRotatedDimension
  0
DIMENSION
  5
23D
330
1F
100
AcDbEntity
  8
0
  6
Continuous
 62
     7
370
    18
100
AcDbDimension
  2
_D_14
 10
317.9404645477
 20
141.5861858191
 30
0.0
 11
317.9404645477
 21
132.5384115691
 31
0.0
 70
   160
  1
<>
 71
     2
 42
-1.0
  3
SLDDIMSTYLE0
100
AcDbAlignedDimension
 13
333.9404645477
 23
121.5861858191
 33
0.0
 14
337.4404645477
 24
141.5861858191
 34
0.0
 50
90.0
100
AcDbRotatedDimension
  0
DIMENSION
  5
247
330
1F
100
AcDbEntity
  8
0
  6
Continuous
 62
     7
370
    18
100
AcDbDimension
  2
_D_15
 10
317.9404645477
 20
161.5861858191
 30
0.0
 11
317.9404645477
 21
174.1179284156
 31
0.0
 70
   160
  1
<>
 71
     2
 42
-1.0
  3
SLDDIMSTYLE0
100
AcDbAlignedDimension
 13
333.9404645477
 23
181.5861858191
 33
0.0
 14
337.4404645477
 24
161.5861858191
 34
0.0
 50
90.0
100
AcDbRotatedDimension
  0
DIMENSION
  5
251
330
1F
100
AcDbEntity
  8
0
  6
Continuous
 62
     7
370
    18
100
AcDbDimension
  2
_D_16
 10
342.9404645477
 20
108.0338687254
 30
0.0
 11
338.0810965797
 21
108.0338687254
 31
0.0
 70
   160
  1
<>
 71
     2
 42
-1.0
  3
SLDDIMSTYLE0
100
AcDbAlignedDimension
 13
333.9404645477
 23
121.5861858191
 33
0.0
 14
342.9404645477
 24
167.7861858191
 34
0.0
100
AcDbRotatedDimension
  0
DIMENSION
  5
25D
330
1F
100
AcDbEntity
  8
0
  6
Continuous
 62
     7
370
    18
100
AcDbDimension
  2
_D_17
 10
333.9404645477
 20
99.5861858191
 30
0.0
 11
343.9465456646
 21
99.5861858191
 31
0.0
 70
   160
  1
<>
 71
     2
 42
-1.0
  3
SLDDIMSTYLE0
100
AcDbAlignedDimension
 13
353.9404645477
 23
121.5861858191
 33
0.0
 14
333.9404645477
 24
121.5861858191
 34
0.0
100
AcDbRotatedDimension
  0
INSERT
  5
272
330
1F
100
AcDbEntity
  8
0
  6
Continuous
 62
     7
370
     0
100
AcDbBlockReference
  2
SW_CENTERMARKSYMBOL_4
 10
342.9404645477
 20
129.5861858191
 30
0.0
  0
INSERT
  5
27E
330
1F
100
AcDbEntity
  8
0
  6
Continuous
 62
     7
370
     0
100
AcDbBlockReference
  2
SW_CENTERMARKSYMBOL_5
 10
342.9404645477
 20
173.5861858191
 30
0.0
  0
INSERT
  5
28A
330
1F
100
AcDbEntity
  8
0
  6
Continuous
 62
     7
370
     0
100
AcDbBlockReference
  2
SW_CENTERMARKSYMBOL_6
 10
342.9404645477
 20
141.5861858191
 30
0.0
  0
INSERT
  5
296
330
1F
100
AcDbEntity
  8
0
  6
Continuous
 62
     7
370
     0
100
AcDbBlockReference
  2
SW_CENTERMARKSYMBOL_7
 10
342.9404645477
 20
161.5861858191
 30
0.0
  0
LINE
  5
297
330
1F
100
AcDbEntity
  8
0
  6
PHANTOM
 62
     7
370
    35
100
AcDbLine
 10
343.2279645477
 20
161.5861858191
 30
0.0
 11
355.9279645477
 21
161.5861858191
 31
0.0
  0
LINE
  5
298
330
1F
100
AcDbEntity
  8
0
  6
PHANTOM
 62
     7
370
    35
100
AcDbLine
 10
331.9529645477
 20
161.5861858191
 30
0.0
 11
344.6593145477
 21
161.5861858191
 31
0.0
  0
LINE
  5
299
330
1F
100
AcDbEntity
  8
0
  6
Continuous
 62
     7
370
    35
100
AcDbLine
 10
354.3404645477
 20
148.8861858191
 30
0.0
 11
354.3404645477
 21
161.5861858191
 31
0.0
  0
SOLID
  5
29A
330
1F
100
AcDbEntity
  8
0
  6
Continuous
 62
     7
370
    35
100
AcDbTrace
 10
354.3404645477
 20
161.5861858191
 30
0.0
 11
353.3244645477
 21
155.2361858191
 31
0.0
 12
355.3564645477
 22
155.2361858191
 32
0.0
 13
355.3564645477
 23
155.2361858191
 33
0.0
  0
LINE
  5
29B
330
1F
100
AcDbEntity
  8
0
  6
Continuous
 62
     7
370
    35
100
AcDbLine
 10
333.5404645477
 20
148.8861858191
 30
0.0
 11
333.5404645477
 21
161.5861858191
 31
0.0
  0
SOLID
  5
29C
330
1F
100
AcDbEntity
  8
0
  6
Continuous
 62
     7
370
    35
100
AcDbTrace
 10
333.5404645477
 20
161.5861858191
 30
0.0
 11
332.5244645477
 21
155.2361858191
 31
0.0
 12
334.5564645477
 22
155.2361858191
 32
0.0
 13
334.5564645477
 23
155.2361858191
 33
0.0
  0
MTEXT
  5
29D
330
1F
100
AcDbEntity
  8
0
  6
Continuous
 62
     7
100
AcDbMText
 10
355.4122395121
 20
154.4451381064
 30
0.0
 40
3.5
 41
0.0
 71
     1
 72
     1
  1
B
  7
SLDTEXTSTYLE0
 73
     1
 44
1.0
  0
MTEXT
  5
29E
330
1F
100
AcDbEntity
  8
0
  6
Continuous
 62
     7
100
AcDbMText
 10
329.7892521721
 20
154.4451381064
 30
0.0
 40
3.5
 41
0.0
 71
     1
 72
     1
  1
B
  7
SLDTEXTSTYLE0
 73
     1
 44
1.0
  0
INSERT
  5
2A5
330
1F
100
AcDbEntity
  8
0
  6
Continuous
 62
     7
370
     0
100
AcDbBlockReference
  2
SW_DOWELSYMBOL_2
 10
342.9404645477
 20
161.5861858191
 30
0.0
  0
INSERT
  5
2AC
330
1F
100
AcDbEntity
  8
0
  6
Continuous
 62
     7
370
     0
100
AcDbBlockReference
  2
SW_DOWELSYMBOL_3
 10
342.9404645477
 20
141.5861858191
 30
0.0
  0
LINE
  5
2AD
330
1F
100
AcDbEntity
  8
0
  6
Continuous
 62
     7
370
    25
100
AcDbLine
 10
345.9404645477
 20
238.5836672549
 30
0.0
 11
353.9404645477
 21
238.5836672549
 31
0.0
  0
LINE
  5
2AE
330
1F
100
AcDbEntity
  8
0
  6
Continuous
 62
     7
370
    25
100
AcDbLine
 10
345.9404645477
 20
246.0836672549
 30
0.0
 11
345.9404645477
 21
238.5836672549
 31
0.0
  0
LINE
  5
2AF
330
1F
100
AcDbEntity
  8
0
  6
Continuous
 62
     7
370
    25
100
AcDbLine
 10
345.9404645477
 20
246.0836672549
 30
0.0
 11
351.9197386055
 21
246.0836672549
 31
0.0
  0
LINE
  5
2B0
330
1F
100
AcDbEntity
  8
0
  6
Continuous
 62
     7
370
    25
100
AcDbLine
 10
351.9197386055
 20
246.0836672549
 30
0.0
 11
353.9404645477
 21
242.5836672549
 31
0.0
  0
LINE
  5
2B1
330
1F
100
AcDbEntity
  8
0
  6
Continuous
 62
     7
370
    25
100
AcDbLine
 10
353.9404645477
 20
238.5836672549
 30
0.0
 11
353.9404645477
 21
242.5836672549
 31
0.0
  0
LINE
  5
2B2
330
1F
100
AcDbEntity
  8
0
  6
Continuous
 62
     7
370
    25
100
AcDbLine
 10
339.9404645477
 20
238.5836672549
 30
0.0
 11
339.9404645477
 21
246.0836672549
 31
0.0
  0
LINE
  5
2B3
330
1F
100
AcDbEntity
  8
0
  6
Continuous
 62
     7
370
    25
100
AcDbLine
 10
333.9404645477
 20
246.0836672549
 30
0.0
 11
339.9404645477
 21
246.0836672549
 31
0.0
  0
LINE
  5
2B4
330
1F
100
AcDbEntity
  8
0
  6
Continuous
 62
     7
370
    25
100
AcDbLine
 10
333.9404645477
 20
238.5836672549
 30
0.0
 11
339.9404645477
 21
238.5836672549
 31
0.0
  0
LINE
  5
2B5
330
1F
100
AcDbEntity
  8
0
  6
Continuous
 62
     7
370
    25
100
AcDbLine
 10
333.9404645477
 20
246.0836672549
 30
0.0
 11
333.9404645477
 21
238.5836672549
 31
0.0
  0
LINE
  5
2B6
330
1F
100
AcDbEntity
  8
0
  6
Continuous
 62
     7
370
    25
100
AcDbLine
 10
339.9404645477
 20
246.0836672549
 30
0.0
 11
345.9404645477
 21
246.0836672549
 31
0.0
  0
LINE
  5
2B7
330
1F
100
AcDbEntity
  8
0
  6
Continuous
 62
     7
370
    25
100
AcDbLine
 10
339.9404645477
 20
238.5836672549
 30
0.0
 11
345.9404645477
 21
238.5836672549
 31
0.0
  0
LINE
  5
2B8
330
1F
100
AcDbEntity
  8
0
  6
HIDDEN
 62
     7
370
    18
100
AcDbLine
 10
339.6404645477
 20
246.0836672549
 30
0.0
 11
339.6404645477
 21
238.5836672549
 31
0.0
  0
LINE
  5
2B9
330
1F
100
AcDbEntity
  8
0
  6
HIDDEN
 62
     7
370
    18
100
AcDbLine
 10
346.2404645477
 20
238.5836672549
 30
0.0
 11
346.2404645477
 21
246.0836672549
 31
0.0
  0
HATCH
  5
2BA
330
1F
100
AcDbEntity
  8
0
  6
Continuous
 62
     7
370
    18
100
AcDbHatch
 10
0.0
 20
0.0
 30
0.0
210
0.0
220
0.0
230
1.0
  2
ANSI31
 70
     0
 71
     0
 91
        1
 92
        0
 93
        4
 72
     1
 10
339.9404645476772
 20
246.0836672549461
 11
333.9404645476772
 21
246.0836672549461
 72
     1
 10
333.9404645476772
 20
246.0836672549461
 11
333.9404645476772
 21
238.5836672549461
 72
     1
 10
333.9404645476772
 20
238.5836672549461
 11
339.9404645476772
 21
238.5836672549461
 72
     1
 10
339.9404645476772
 20
238.5836672549461
 11
339.9404645476772
 21
246.0836672549461
 97
        0
 75
     0
 76
     1
 52
0.0
 41
1.0
 77
     0
 78
     1
 53
45.0
 43
0.0
 44
0.0
 45
-2.245064030267288
 46
2.245064030267288
 79
     0
 98
        1
 10
0.0
 20
0.0
  0
HATCH
  5
2BB
330
1F
100
AcDbEntity
  8
0
  6
Continuous
 62
     7
370
    18
100
AcDbHatch
 10
0.0
 20
0.0
 30
0.0
210
0.0
220
0.0
230
1.0
  2
ANSI31
 70
     0
 71
     0
 91
        1
 92
        0
 93
        5
 72
     1
 10
353.9404645476772
 20
242.5836672549461
 11
351.9197386055135
 21
246.0836672549461
 72
     1
 10
351.9197386055135
 20
246.0836672549461
 11
345.9404645476772
 21
246.0836672549461
 72
     1
 10
345.9404645476772
 20
246.0836672549461
 11
345.9404645476772
 21
238.5836672549461
 72
     1
 10
345.9404645476772
 20
238.5836672549461
 11
353.9404645476772
 21
238.5836672549461
 72
     1
 10
353.9404645476772
 20
238.5836672549461
 11
353.9404645476772
 21
242.5836672549461
 97
        0
 75
     0
 76
     1
 52
0.0
 41
1.0
 77
     0
 78
     1
 53
45.0
 43
0.0
 44
0.0
 45
-2.245064030267288
 46
2.245064030267288
 79
     0
 98
        1
 10
0.0
 20
0.0
  0
DIMENSION
  5
2BC
330
1F
100
AcDbEntity
  8
0
  6
Continuous
 62
     7
370
    18
100
AcDbDimension
  2
_D_18
 10
345.9404645477
 20
224.5956559073
 30
0.0
 11
326.8733758311
 21
224.5956559073
 31
0.0
 70
   160
  1
%%c<> H7
 71
     2
 42
-1.0
  3
SLDDIMSTYLE0
100
AcDbAlignedDimension
 13
339.9404645477
 23
238.5836672549
 33
0.0
 14
345.9404645477
 24
238.5836672549
 34
0.0
100
AcDbRotatedDimension
  0
DIMENSION
  5
2CA
330
1F
100
AcDbEntity
  8
0
  6
Continuous
 62
     7
370
    18
100
AcDbDimension
  2
_D_19
 10
361.198759216
 20
242.5836672549
 30
0.0
 11
361.198759216
 21
228.5836672549
 31
0.0
 70
   160
  1
<>
 71
     2
 42
-1.0
  3
SLDDIMSTYLE0
100
AcDbAlignedDimension
 13
353.9404645477
 23
238.5836672549
 33
0.0
 14
353.9404645477
 24
242.5836672549
 34
0.0
 50
90.0
100
AcDbRotatedDimension
  0
DIMENSION
  5
2D6
330
1F
100
AcDbEntity
  8
0
  6
Continuous
 62
     7
370
    18
100
AcDbDimension
  2
_D_20
 10
353.9404645477
 20
238.5836672549
 30
0.0
 11
349.5195831266
 21
262.0836672549
 31
0.0
 70
   162
  1
<>
 71
     1
 42
-1.0
  3
SLDDIMSTYLE2
100
AcDb2LineAngularDimension
 13
351.9197386055
 23
246.0836672549
 33
0.0
 14
353.9404645477
 24
242.5836672549
 34
0.0
 15
353.9404645477
 25
242.5836672549
 35
0.0
 16
348.7654154892
 26
261.8972132728
 36
0.0
  0
DIMENSION
  5
2E2
330
1F
100
AcDbEntity
  8
0
  6
Continuous
 62
     7
370
    18
100
AcDbDimension
  2
_D_21
 10
320.8913588097
 20
238.5836672549
 30
0.0
 11
320.8913588097
 21
256.0836672549
 31
0.0
 70
   160
  1
<>
 71
     2
 42
-1.0
  3
SLDDIMSTYLE1
100
AcDbAlignedDimension
 13
333.9404645477
 23
246.0836672549
 33
0.0
 14
333.9404645477
 24
238.5836672549
 34
0.0
 50
90.0
100
AcDbRotatedDimension
  0
MTEXT
  5
2ED
330
1F
100
AcDbEntity
  8
0
  6
Continuous
 62
     7
370
     0
100
AcDbMText
 10
385.1965340089
 20
270.6007238753
 30
0.0
 40
3.5
 41
0.0
 71
     2
 72
     1
  1
COUPE B-B
  7
SLDTEXTSTYLE0
 73
     1
 44
1.0
  0
LINE
  5
2EE
330
1F
100
AcDbEntity
  8
0
  6
CENTERX2
 62
     7
370
    18
100
AcDbLine
 10
342.9404645477
 20
248.0836672549
 30
0.0
 11
342.9404645477
 21
236.5836672549
 31
0.0
  0
LINE
  5
2EF
330
1F
100
AcDbEntity
  8
0
  6
Continuous
 62
     7
370
    25
100
AcDbLine
 10
86.5863193404
 20
58.7861522783
 30
0.0
 11
86.5863193404
 21
82.7861522783
 31
0.0
  0
CIRCLE
  5
2F0
330
1F
100
AcDbEntity
  8
0
  6
Continuous
 62
     7
370
    25
100
AcDbCircle
 10
94.5655933983
 20
70.7861522783
 30
0.0
 40
3.125000000000014
  0
CIRCLE
  5
2F1
330
1F
100
AcDbEntity
  8
0
  6
Continuous
 62
     7
370
    25
100
AcDbCircle
 10
105.5655933983
 20
63.7861522783
 30
0.0
 40
3.0
  0
CIRCLE
  5
2F2
330
1F
100
AcDbEntity
  8
0
  6
Continuous
 62
     7
370
    25
100
AcDbCircle
 10
116.5655933983
 20
70.7861522783
 30
0.0
 40
3.125
  0
LINE
  5
2F3
330
1F
100
AcDbEntity
  8
0
  6
Continuous
 62
     7
370
    25
100
AcDbLine
 10
124.5655933983
 20
58.7861522783
 30
0.0
 11
86.5863193404
 21
58.7861522783
 31
0.0
  0
LINE
  5
2F4
330
1F
100
AcDbEntity
  8
0
  6
Continuous
 62
     7
370
    25
100
AcDbLine
 10
124.5655933983
 20
82.7861522783
 30
0.0
 11
124.5655933983
 21
58.7861522783
 31
0.0
  0
LINE
  5
2F5
330
1F
100
AcDbEntity
  8
0
  6
Continuous
 62
     7
370
    25
100
AcDbLine
 10
86.5863193404
 20
82.7861522783
 30
0.0
 11
124.5655933983
 21
82.7861522783
 31
0.0
  0
CIRCLE
  5
2F6
330
1F
100
AcDbEntity
  8
0
  6
Continuous
 62
     7
370
    25
100
AcDbCircle
 10
105.5655933983
 20
77.7861522783
 30
0.0
 40
3.0
  0
LINE
  5
2F7
330
1F
100
AcDbEntity
  8
0
  6
Continuous
 62
     7
370
    25
100
AcDbLine
 10
84.5655933983
 20
82.7861522783
 30
0.0
 11
84.5655933983
 21
58.7861522783
 31
0.0
  0
LINE
  5
2F8
330
1F
100
AcDbEntity
  8
0
  6
Continuous
 62
     7
370
    25
100
AcDbLine
 10
84.5655933983
 20
58.7861522783
 30
0.0
 11
86.5863193404
 21
58.7861522783
 31
0.0
  0
LINE
  5
2F9
330
1F
100
AcDbEntity
  8
0
  6
Continuous
 62
     7
370
    25
100
AcDbLine
 10
86.5863193404
 20
82.7861522783
 30
0.0
 11
84.5655933983
 21
82.7861522783
 31
0.0
  0
DIMENSION
  5
2FA
330
1F
100
AcDbEntity
  8
0
  6
Continuous
 62
     7
370
    18
100
AcDbDimension
  2
_D_22
 10
146.5655933983
 20
82.7861522783
 30
0.0
 11
146.5655933983
 21
92.7861522783
 31
0.0
 70
   160
  1
<>
 71
     2
 42
-1.0
  3
SLDDIMSTYLE0
100
AcDbAlignedDimension
 13
111.0655933983
 23
77.7861522783
 33
0.0
 14
124.5655933983
 24
82.7861522783
 34
0.0
 50
90.0
100
AcDbRotatedDimension
  0
DIMENSION
  5
306
330
1F
100
AcDbEntity
  8
0
  6
Continuous
 62
     7
370
    18
100
AcDbDimension
  2
_D_23
 10
146.5655933983
 20
58.7861522783
 30
0.0
 11
146.5655933983
 21
52.9922395015
 31
0.0
 70
   160
  1
<>
 71
     2
 42
-1.0
  3
SLDDIMSTYLE0
100
AcDbAlignedDimension
 13
111.0655933983
 23
63.7861522783
 33
0.0
 14
124.5655933983
 24
58.7861522783
 34
0.0
 50
90.0
100
AcDbRotatedDimension
  0
DIMENSION
  5
312
330
1F
100
AcDbEntity
  8
0
  6
Continuous
 62
     7
370
    18
100
AcDbDimension
  2
_D_24
 10
158.5655933983
 20
58.7861522783
 30
0.0
 11
158.5655933983
 21
70.7625431727
 31
0.0
 70
   160
  1
=<>=
 71
     2
 42
-1.0
  3
SLDDIMSTYLE0
100
AcDbAlignedDimension
 13
124.5655933983
 23
82.7861522783
 33
0.0
 14
124.5655933983
 24
58.7861522783
 34
0.0
 50
90.0
100
AcDbRotatedDimension
  0
DIMENSION
  5
31E
330
1F
100
AcDbEntity
  8
0
  6
Continuous
 62
     7
370
    18
100
AcDbDimension
  2
_D_25
 10
116.5655933983
 20
48.7861522783
 30
0.0
 11
120.4711937504
 21
48.7861522783
 31
0.0
 70
   160
  1
<>
 71
     2
 42
-1.0
  3
SLDDIMSTYLE0
100
AcDbAlignedDimension
 13
124.5655933983
 23
58.7861522783
 33
0.0
 14
116.5655933983
 24
65.1611522783
 34
0.0
100
AcDbRotatedDimension
  0
DIMENSION
  5
32A
330
1F
100
AcDbEntity
  8
0
  6
Continuous
 62
     7
370
    18
100
AcDbDimension
  2
_D_26
 10
105.5655933983
 20
41.2853850073
 30
0.0
 11
114.4271409969
 21
41.2853850073
 31
0.0
 70
   160
  1
<>
 71
     2
 42
-1.0
  3
SLDDIMSTYLE0
100
AcDbAlignedDimension
 13
124.5655933983
 23
58.7861522783
 33
0.0
 14
105.5655933983
 24
72.2861522783
 34
0.0
100
AcDbRotatedDimension
  0
DIMENSION
  5
334
330
1F
100
AcDbEntity
  8
0
  6
Continuous
 62
     7
370
    18
100
AcDbDimension
  2
_D_27
 10
94.5655933983
 20
34.4171432419
 30
0.0
 11
110.0314662671
 21
34.4171432419
 31
0.0
 70
   160
  1
<>
 71
     2
 42
-1.0
  3
SLDDIMSTYLE1
100
AcDbAlignedDimension
 13
124.5655933983
 23
58.7861522783
 33
0.0
 14
94.5655933983
 24
65.1611522783
 34
0.0
100
AcDbRotatedDimension
  0
DIMENSION
  5
33E
330
1F
100
AcDbEntity
  8
0
  6
Continuous
 62
     7
370
    18
100
AcDbDimension
  2
_D_28
 10
84.5655933983
 20
27.5489014765
 30
0.0
 11
105.2236970313
 21
27.5489014765
 31
0.0
 70
   160
  1
<>
 71
     2
 42
-1.0
  3
SLDDIMSTYLE1
100
AcDbAlignedDimension
 13
124.5655933983
 23
58.7861522783
 33
0.0
 14
84.5655933983
 24
58.7861522783
 34
0.0
100
AcDbRotatedDimension
  0
INSERT
  5
353
330
1F
100
AcDbEntity
  8
0
  6
Continuous
 62
     7
370
     0
100
AcDbBlockReference
  2
SW_CENTERMARKSYMBOL_8
 10
94.5655933983
 20
70.7861522783
 30
0.0
  0
INSERT
  5
35F
330
1F
100
AcDbEntity
  8
0
  6
Continuous
 62
     7
370
     0
100
AcDbBlockReference
  2
SW_CENTERMARKSYMBOL_9
 10
105.5655933983
 20
63.7861522783
 30
0.0
  0
INSERT
  5
36B
330
1F
100
AcDbEntity
  8
0
  6
Continuous
 62
     7
370
     0
100
AcDbBlockReference
  2
SW_CENTERMARKSYMBOL_10
 10
116.5655933983
 20
70.7861522783
 30
0.0
  0
INSERT
  5
377
330
1F
100
AcDbEntity
  8
0
  6
Continuous
 62
     7
370
     0
100
AcDbBlockReference
  2
SW_CENTERMARKSYMBOL_11
 10
105.5655933983
 20
77.7861522783
 30
0.0
  0
LINE
  5
378
330
1F
100
AcDbEntity
  8
0
  6
PHANTOM
 62
     7
370
    35
100
AcDbLine
 10
111.1303849495
 20
77.7861522783
 30
0.0
 11
79.7655933983
 21
77.7861522783
 31
0.0
  0
LINE
  5
379
330
1F
100
AcDbEntity
  8
0
  6
PHANTOM
 62
     7
370
    35
100
AcDbLine
 10
111.1303849495
 20
77.7861522783
 30
0.0
 11
111.1303849495
 21
70.7861522783
 31
0.0
  0
LINE
  5
37A
330
1F
100
AcDbEntity
  8
0
  6
PHANTOM
 62
     7
370
    35
100
AcDbLine
 10
111.1303849495
 20
70.7861522783
 30
0.0
 11
129.3655933983
 21
70.7861522783
 31
0.0
  0
LINE
  5
37B
330
1F
100
AcDbEntity
  8
0
  6
Continuous
 62
     7
370
    35
100
AcDbLine
 10
81.7655933983
 20
65.0861522783
 30
0.0
 11
81.7655933983
 21
77.7861522783
 31
0.0
  0
SOLID
  5
37C
330
1F
100
AcDbEntity
  8
0
  6
Continuous
 62
     7
370
    35
100
AcDbTrace
 10
81.7655933983
 20
77.7861522783
 30
0.0
 11
80.7495933983
 21
71.4361522783
 31
0.0
 12
82.7815933983
 22
71.4361522783
 32
0.0
 13
82.7815933983
 23
71.4361522783
 33
0.0
  0
LINE
  5
37D
330
1F
100
AcDbEntity
  8
0
  6
Continuous
 62
     7
370
    35
100
AcDbLine
 10
127.3655933983
 20
58.0861522783
 30
0.0
 11
127.3655933983
 21
70.7861522783
 31
0.0
  0
SOLID
  5
37E
330
1F
100
AcDbEntity
  8
0
  6
Continuous
 62
     7
370
    35
100
AcDbTrace
 10
127.3655933983
 20
70.7861522783
 30
0.0
 11
126.3495933983
 21
64.4361522783
 31
0.0
 12
128.3815933983
 22
64.4361522783
 32
0.0
 13
128.3815933983
 23
64.4361522783
 33
0.0
  0
MTEXT
  5
37F
330
1F
100
AcDbEntity
  8
0
  6
Continuous
 62
     7
100
AcDbMText
 10
76.4547371675
 20
70.6451045656
 30
0.0
 40
3.5
 41
0.0
 71
     1
 72
     1
  1
C
  7
SLDTEXTSTYLE0
 73
     1
 44
1.0
  0
MTEXT
  5
380
330
1F
100
AcDbEntity
  8
0
  6
Continuous
 62
     7
100
AcDbMText
 10
128.8829808928
 20
63.6451045656
 30
0.0
 40
3.5
 41
0.0
 71
     1
 72
     1
  1
C
  7
SLDTEXTSTYLE0
 73
     1
 44
1.0
  0
INSERT
  5
387
330
1F
100
AcDbEntity
  8
0
  6
Continuous
 62
     7
370
     0
100
AcDbBlockReference
  2
SW_DOWELSYMBOL_4
 10
105.5655933983
 20
63.7861522783
 30
0.0
  0
INSERT
  5
38E
330
1F
100
AcDbEntity
  8
0
  6
Continuous
 62
     7
370
     0
100
AcDbBlockReference
  2
SW_DOWELSYMBOL_5
 10
105.5655933983
 20
77.7861522783
 30
0.0
  0
LINE
  5
38F
330
1F
100
AcDbEntity
  8
0
  6
Continuous
 62
     7
370
    25
100
AcDbLine
 10
102.5655933983
 20
124.4322598148
 30
0.0
 11
102.5655933983
 21
116.9322598148
 31
0.0
  0
LINE
  5
390
330
1F
100
AcDbEntity
  8
0
  6
Continuous
 62
     7
370
    25
100
AcDbLine
 10
84.5655933983
 20
116.9322598148
 30
0.0
 11
102.5655933983
 21
116.9322598148
 31
0.0
  0
LINE
  5
391
330
1F
100
AcDbEntity
  8
0
  6
Continuous
 62
     7
370
    25
100
AcDbLine
 10
86.5863193404
 20
124.4322598148
 30
0.0
 11
84.5655933983
 21
120.9322598148
 31
0.0
  0
LINE
  5
392
330
1F
100
AcDbEntity
  8
0
  6
Continuous
 62
     7
370
    25
100
AcDbLine
 10
86.5863193404
 20
124.4322598148
 30
0.0
 11
102.5655933983
 21
124.4322598148
 31
0.0
  0
LINE
  5
393
330
1F
100
AcDbEntity
  8
0
  6
Continuous
 62
     7
370
    25
100
AcDbLine
 10
84.5655933983
 20
116.9322598148
 30
0.0
 11
84.5655933983
 21
120.9322598148
 31
0.0
  0
LINE
  5
394
330
1F
100
AcDbEntity
  8
0
  6
Continuous
 62
     7
370
    25
100
AcDbLine
 10
108.5655933983
 20
116.9322598148
 30
0.0
 11
108.5655933983
 21
124.4322598148
 31
0.0
  0
LINE
  5
395
330
1F
100
AcDbEntity
  8
0
  6
Continuous
 62
     7
370
    25
100
AcDbLine
 10
102.5655933983
 20
116.9322598148
 30
0.0
 11
108.5655933983
 21
116.9322598148
 31
0.0
  0
LINE
  5
396
330
1F
100
AcDbEntity
  8
0
  6
Continuous
 62
     7
370
    25
100
AcDbLine
 10
102.5655933983
 20
124.4322598148
 30
0.0
 11
108.5655933983
 21
124.4322598148
 31
0.0
  0
LINE
  5
397
330
1F
100
AcDbEntity
  8
0
  6
Continuous
 62
     7
370
    25
100
AcDbLine
 10
113.4405933983
 20
116.9322598148
 30
0.0
 11
113.4405933983
 21
124.4322598148
 31
0.0
  0
LINE
  5
398
330
1F
100
AcDbEntity
  8
0
  6
Continuous
 62
     7
370
    25
100
AcDbLine
 10
113.4405933983
 20
124.4322598148
 30
0.0
 11
119.6905933983
 21
124.4322598148
 31
0.0
  0
LINE
  5
399
330
1F
100
AcDbEntity
  8
0
  6
Continuous
 62
     7
370
    25
100
AcDbLine
 10
119.6905933983
 20
124.4322598148
 30
0.0
 11
119.6905933983
 21
116.9322598148
 31
0.0
  0
LINE
  5
39A
330
1F
100
AcDbEntity
  8
0
  6
Continuous
 62
     7
370
    25
100
AcDbLine
 10
113.4405933983
 20
116.9322598148
 30
0.0
 11
119.6905933983
 21
116.9322598148
 31
0.0
  0
LINE
  5
39B
330
1F
100
AcDbEntity
  8
0
  6
Continuous
 62
     7
370
    25
100
AcDbLine
 10
108.5655933983
 20
124.4322598148
 30
0.0
 11
113.4405933983
 21
124.4322598148
 31
0.0
  0
LINE
  5
39C
330
1F
100
AcDbEntity
  8
0
  6
Continuous
 62
     7
370
    25
100
AcDbLine
 10
108.5655933983
 20
116.9322598148
 30
0.0
 11
113.4405933983
 21
116.9322598148
 31
0.0
  0
LINE
  5
39D
330
1F
100
AcDbEntity
  8
0
  6
Continuous
 62
     7
370
    25
100
AcDbLine
 10
124.5655933983
 20
124.4322598148
 30
0.0
 11
119.6905933983
 21
124.4322598148
 31
0.0
  0
LINE
  5
39E
330
1F
100
AcDbEntity
  8
0
  6
Continuous
 62
     7
370
    25
100
AcDbLine
 10
124.5655933983
 20
116.9322598148
 30
0.0
 11
124.5655933983
 21
124.4322598148
 31
0.0
  0
LINE
  5
39F
330
1F
100
AcDbEntity
  8
0
  6
Continuous
 62
     7
370
    25
100
AcDbLine
 10
124.5655933983
 20
116.9322598148
 30
0.0
 11
119.6905933983
 21
116.9322598148
 31
0.0
  0
HATCH
  5
3A0
330
1F
100
AcDbEntity
  8
0
  6
Continuous
 62
     7
370
    18
100
AcDbHatch
 10
0.0
 20
0.0
 30
0.0
210
0.0
220
0.0
230
1.0
  2
ANSI31
 70
     0
 71
     0
 91
        1
 92
        0
 93
        4
 72
     1
 10
113.4405933982664
 20
124.4322598148158
 11
108.5655933982664
 21
124.4322598148158
 72
     1
 10
108.5655933982664
 20
124.4322598148158
 11
108.5655933982664
 21
116.9322598148158
 72
     1
 10
108.5655933982664
 20
116.9322598148158
 11
113.4405933982664
 21
116.9322598148158
 72
     1
 10
113.4405933982664
 20
116.9322598148158
 11
113.4405933982664
 21
124.4322598148158
 97
        0
 75
     0
 76
     1
 52
0.0
 41
1.0
 77
     0
 78
     1
 53
45.0
 43
0.0
 44
0.0
 45
-2.245064030267288
 46
2.245064030267288
 79
     0
 98
        1
 10
0.0
 20
0.0
  0
HATCH
  5
3A1
330
1F
100
AcDbEntity
  8
0
  6
Continuous
 62
     7
370
    18
100
AcDbHatch
 10
0.0
 20
0.0
 30
0.0
210
0.0
220
0.0
230
1.0
  2
ANSI31
 70
     0
 71
     0
 91
        1
 92
        0
 93
        5
 72
     1
 10
102.5655933982664
 20
124.4322598148158
 11
86.58631934043008
 21
124.4322598148158
 72
     1
 10
86.58631934043008
 20
124.4322598148158
 11
84.5655933982664
 21
120.9322598148158
 72
     1
 10
84.5655933982664
 20
120.9322598148158
 11
84.5655933982664
 21
116.9322598148158
 72
     1
 10
84.5655933982664
 20
116.9322598148158
 11
102.5655933982664
 21
116.9322598148158
 72
     1
 10
102.5655933982664
 20
116.9322598148158
 11
102.5655933982664
 21
124.4322598148158
 97
        0
 75
     0
 76
     1
 52
0.0
 41
1.0
 77
     0
 78
     1
 53
45.0
 43
0.0
 44
0.0
 45
-2.245064030267288
 46
2.245064030267288
 79
     0
 98
        1
 10
0.0
 20
0.0
  0
HATCH
  5
3A2
330
1F
100
AcDbEntity
  8
0
  6
Continuous
 62
     7
370
    18
100
AcDbHatch
 10
0.0
 20
0.0
 30
0.0
210
0.0
220
0.0
230
1.0
  2
ANSI31
 70
     0
 71
     0
 91
        1
 92
        0
 93
        4
 72
     1
 10
119.6905933982664
 20
116.9322598148158
 11
124.5655933982664
 21
116.9322598148158
 72
     1
 10
124.5655933982664
 20
116.9322598148158
 11
124.5655933982664
 21
124.4322598148158
 72
     1
 10
124.5655933982664
 20
124.4322598148158
 11
119.6905933982664
 21
124.4322598148158
 72
     1
 10
119.6905933982664
 20
124.4322598148158
 11
119.6905933982664
 21
116.9322598148158
 97
        0
 75
     0
 76
     1
 52
0.0
 41
1.0
 77
     0
 78
     1
 53
45.0
 43
0.0
 44
0.0
 45
-2.245064030267288
 46
2.245064030267288
 79
     0
 98
        1
 10
0.0
 20
0.0
  0
DIMENSION
  5
3A3
330
1F
100
AcDbEntity
  8
0
  6
Continuous
 62
     7
370
    18
100
AcDbDimension
  2
_D_29
 10
74.5655933983
 20
120.9322598148
 30
0.0
 11
74.5655933983
 21
111.4706028688
 31
0.0
 70
   160
  1
<>
 71
     2
 42
-1.0
  3
SLDDIMSTYLE0
100
AcDbAlignedDimension
 13
84.5655933983
 23
116.9322598148
 33
0.0
 14
84.5655933983
 24
120.9322598148
 34
0.0
 50
90.0
100
AcDbRotatedDimension
  0
DIMENSION
  5
3AF
330
1F
100
AcDbEntity
  8
0
  6
Continuous
 62
     7
370
    18
100
AcDbDimension
  2
_D_30
 10
84.5655933983
 20
116.9322598148
 30
0.0
 11
89.0713926845
 21
137.4236210192
 31
0.0
 70
   162
  1
<>
 71
     1
 42
-1.0
  3
SLDDIMSTYLE2
100
AcDb2LineAngularDimension
 13
86.5863193404
 23
124.4322598148
 33
0.0
 14
84.5655933983
 24
120.9322598148
 34
0.0
 15
84.5655933983
 25
120.9322598148
 35
0.0
 16
88.9903184179
 26
137.4455583975
 36
0.0
  0
DIMENSION
  5
3BB
330
1F
100
AcDbEntity
  8
0
  6
Continuous
 62
     7
370
    18
100
AcDbDimension
  2
_D_31
 10
108.5655933983
 20
106.9322598148
 30
0.0
 11
94.2181937523
 21
106.9322598148
 31
0.0
 70
   160
  1
%%c<>H7
 71
     2
 42
-1.0
  3
SLDDIMSTYLE0
100
AcDbAlignedDimension
 13
102.5655933983
 23
116.9322598148
 33
0.0
 14
108.5655933983
 24
116.9322598148
 34
0.0
100
AcDbRotatedDimension
  0
DIMENSION
  5
3C9
330
1F
100
AcDbEntity
  8
0
  6
Continuous
 62
     7
370
    18
100
AcDbDimension
  2
_D_32
 10
119.6905933983
 20
134.4322598148
 30
0.0
 11
127.5081410844
 21
134.4322598148
 31
0.0
 70
   160
  1
%%c<>
 71
     2
 42
-1.0
  3
SLDDIMSTYLE0
100
AcDbAlignedDimension
 13
113.4405933983
 23
124.4322598148
 33
0.0
 14
119.6905933983
 24
124.4322598148
 34
0.0
100
AcDbRotatedDimension
  0
DIMENSION
  5
3D6
330
1F
100
AcDbEntity
  8
0
  6
Continuous
 62
     7
370
    18
100
AcDbDimension
  2
_D_33
 10
138.6777944655
 20
124.4322598148
 30
0.0
 11
138.6777944655
 21
109.4994875662
 31
0.0
 70
   160
  1
<>
 71
     2
 42
-1.0
  3
SLDDIMSTYLE1
100
AcDbAlignedDimension
 13
124.5655933983
 23
116.9322598148
 33
0.0
 14
124.5655933983
 24
124.4322598148
 34
0.0
 50
90.0
100
AcDbRotatedDimension
  0
MTEXT
  5
3E1
330
1F
100
AcDbEntity
  8
0
  6
Continuous
 62
     7
370
     0
100
AcDbMText
 10
51.2875196964
 20
139.4187023995
 30
0.0
 40
3.5
 41
0.0
 71
     2
 72
     1
  1
COUPE C-C
  7
SLDTEXTSTYLE0
 73
     1
 44
1.0
  0
LINE
  5
3E2
330
1F
100
AcDbEntity
  8
0
  6
CENTERX2
 62
     7
370
    18
100
AcDbLine
 10
105.5655933983
 20
114.9322598148
 30
0.0
 11
105.5655933983
 21
126.4322598148
 31
0.0
  0
LINE
  5
3E3
330
1F
100
AcDbEntity
  8
0
  6
CENTERX2
 62
     7
370
    18
100
AcDbLine
 10
116.5655933983
 20
126.4322598148
 30
0.0
 11
116.5655933983
 21
114.9322598148
 31
0.0
  0
LINE
  5
3E4
330
1F
100
AcDbEntity
  8
0
  6
Continuous
 62
     7
370
    25
100
AcDbLine
 10
262.0025077484
 20
121.5861858191
 30
0.0
 11
262.0025077484
 21
181.5861858191
 31
0.0
  0
LINE
  5
3E5
330
1F
100
AcDbEntity
  8
0
  6
Continuous
 62
     7
370
    25
100
AcDbLine
 10
262.0025077484
 20
181.5861858191
 30
0.0
 11
266.0025077484
 21
181.5861858191
 31
0.0
  0
LINE
  5
3E6
330
1F
100
AcDbEntity
  8
0
  6
Continuous
 62
     7
370
    25
100
AcDbLine
 10
266.0025077484
 20
181.5861858191
 30
0.0
 11
266.0025077484
 21
121.5861858191
 31
0.0
  0
LINE
  5
3E7
330
1F
100
AcDbEntity
  8
0
  6
Continuous
 62
     7
370
    25
100
AcDbLine
 10
262.0025077484
 20
121.5861858191
 30
0.0
 11
266.0025077484
 21
121.5861858191
 31
0.0
  0
LINE
  5
3E8
330
1F
100
AcDbEntity
  8
0
  6
Continuous
 62
     7
370
    25
100
AcDbLine
 10
258.5025077484
 20
181.5861858191
 30
0.0
 11
258.5025077484
 21
121.5861858191
 31
0.0
  0
LINE
  5
3E9
330
1F
100
AcDbEntity
  8
0
  6
Continuous
 62
     7
370
    25
100
AcDbLine
 10
258.5025077484
 20
121.5861858191
 30
0.0
 11
262.0025077484
 21
121.5861858191
 31
0.0
  0
LINE
  5
3EA
330
1F
100
AcDbEntity
  8
0
  6
Continuous
 62
     7
370
    25
100
AcDbLine
 10
262.0025077484
 20
181.5861858191
 30
0.0
 11
258.5025077484
 21
181.5861858191
 31
0.0
  0
LINE
  5
3EB
330
1F
100
AcDbEntity
  8
0
  6
HIDDEN
 62
     7
370
    18
100
AcDbLine
 10
258.5025077484
 20
126.2861858191
 30
0.0
 11
266.0025077484
 21
126.2861858191
 31
0.0
  0
LINE
  5
3EC
330
1F
100
AcDbEntity
  8
0
  6
HIDDEN
 62
     7
370
    18
100
AcDbLine
 10
266.0025077484
 20
132.8861858191
 30
0.0
 11
258.5025077484
 21
132.8861858191
 31
0.0
  0
LINE
  5
3ED
330
1F
100
AcDbEntity
  8
0
  6
HIDDEN
 62
     7
370
    18
100
AcDbLine
 10
258.5025077484
 20
170.2861858191
 30
0.0
 11
266.0025077484
 21
170.2861858191
 31
0.0
  0
LINE
  5
3EE
330
1F
100
AcDbEntity
  8
0
  6
HIDDEN
 62
     7
370
    18
100
AcDbLine
 10
266.0025077484
 20
176.8861858191
 30
0.0
 11
258.5025077484
 21
176.8861858191
 31
0.0
  0
LINE
  5
3EF
330
1F
100
AcDbEntity
  8
0
  6
HIDDEN
 62
     7
370
    18
100
AcDbLine
 10
258.5025077484
 20
138.5861858191
 30
0.0
 11
266.0025077484
 21
138.5861858191
 31
0.0
  0
LINE
  5
3F0
330
1F
100
AcDbEntity
  8
0
  6
HIDDEN
 62
     7
370
    18
100
AcDbLine
 10
266.0025077484
 20
144.5861858191
 30
0.0
 11
258.5025077484
 21
144.5861858191
 31
0.0
  0
LINE
  5
3F1
330
1F
100
AcDbEntity
  8
0
  6
HIDDEN
 62
     7
370
    18
100
AcDbLine
 10
258.5025077484
 20
158.5861858191
 30
0.0
 11
266.0025077484
 21
158.5861858191
 31
0.0
  0
LINE
  5
3F2
330
1F
100
AcDbEntity
  8
0
  6
HIDDEN
 62
     7
370
    18
100
AcDbLine
 10
266.0025077484
 20
164.5861858191
 30
0.0
 11
258.5025077484
 21
164.5861858191
 31
0.0
  0
DIMENSION
  5
3F3
330
1F
100
AcDbEntity
  8
0
  6
Continuous
 62
     7
370
    18
100
AcDbDimension
  2
_D_34
 10
247.1304133815
 20
170.2861858191
 30
0.0
 11
247.1304133815
 21
184.8845580726
 31
0.0
 70
   160
  1
%%c<>
 71
     2
 42
-1.0
  3
SLDDIMSTYLE0
100
AcDbAlignedDimension
 13
258.5025077484
 23
176.8861858191
 33
0.0
 14
258.5025077484
 24
170.2861858191
 34
0.0
 50
90.0
100
AcDbRotatedDimension
  0
LINE
  5
400
330
1F
100
AcDbEntity
  8
0
  6
CENTERX2
 62
     7
370
    18
100
AcDbLine
 10
256.5025077484
 20
173.5861858191
 30
0.0
 11
268.0025077484
 21
173.5861858191
 31
0.0
  0
LINE
  5
401
330
1F
100
AcDbEntity
  8
0
  6
CENTERX2
 62
     7
370
    18
100
AcDbLine
 10
268.0025077484
 20
161.5861858191
 30
0.0
 11
256.5025077484
 21
161.5861858191
 31
0.0
  0
LINE
  5
402
330
1F
100
AcDbEntity
  8
0
  6
CENTERX2
 62
     7
370
    18
100
AcDbLine
 10
268.0025077484
 20
141.5861858191
 30
0.0
 11
256.5025077484
 21
141.5861858191
 31
0.0
  0
LINE
  5
403
330
1F
100
AcDbEntity
  8
0
  6
CENTERX2
 62
     7
370
    18
100
AcDbLine
 10
268.0025077484
 20
173.5861858191
 30
0.0
 11
256.5025077484
 21
173.5861858191
 31
0.0
  0
LINE
  5
404
330
1F
100
AcDbEntity
  8
0
  6
CENTERX2
 62
     7
370
    18
100
AcDbLine
 10
268.0025077484
 20
129.5861858191
 30
0.0
 11
256.5025077484
 21
129.5861858191
 31
0.0
  0
ENDSEC
  0
SECTION
  2
OBJECTS
  0
DICTIONARY
  5
C
330
0
100
AcDbDictionary
281
     1
  3
ACAD_GROUP
350
D
  3
ACAD_LAYOUT
350
1A
  3
ACAD_MLINESTYLE
350
17
  3
ACAD_PLOTSETTINGS
350
19
  3
ACAD_PLOTSTYLENAME
350
E
  3
ACAD_SCALELIST
350
47
  0
DICTIONARY
  5
D
102
{ACAD_REACTORS
330
C
102
}
330
C
100
AcDbDictionary
281
     1
  0
DICTIONARY
  5
1A
102
{ACAD_REACTORS
330
C
102
}
330
C
100
AcDbDictionary
281
     1
  3
Layout1
350
1E
  3
Layout2
350
26
  3
Model
350
22
  0
DICTIONARY
  5
17
102
{ACAD_REACTORS
330
C
102
}
330
C
100
AcDbDictionary
281
     1
  3
Standard
350
18
  0
DICTIONARY
  5
19
102
{ACAD_REACTORS
330
C
102
}
330
C
100
AcDbDictionary
281
     1
  0
ACDBDICTIONARYWDFLT
  5
E
102
{ACAD_REACTORS
330
C
102
}
330
C
100
AcDbDictionary
281
     1
  3
Normal
350
F
100
AcDbDictionaryWithDefault
340
F
  0
DICTIONARY
  5
47
102
{ACAD_REACTORS
330
C
102
}
330
C
100
AcDbDictionary
281
     1
  3
A0
350
48
  3
A1
350
49
  3
A2
350
4A
  3
A3
350
4B
  3
A4
350
4C
  3
A5
350
4D
  3
A6
350
4E
  3
A7
350
4F
  3
A8
350
50
  3
A9
350
51
  3
B0
350
52
  3
B1
350
53
  3
B2
350
54
  3
B3
350
55
  3
B4
350
56
  3
B5
350
57
  3
B6
350
58
  3
B7
350
59
  3
B8
350
5A
  3
B9
350
5B
  3
C0
350
5C
  3
C1
350
5D
  3
C2
350
5E
  3
C3
350
5F
  3
C4
350
60
  3
C5
350
61
  3
C6
350
62
  3
C7
350
63
  3
C8
350
64
  3
C9
350
65
  3
D0
350
66
  3
D1
350
67
  3
D2
350
68
  0
LAYOUT
  5
1E
102
{ACAD_REACTORS
330
1A
102
}
330
1A
100
AcDbPlotSettings
  1

  2
none_device
  4

  6

 40
0.0
 41
0.0
 42
0.0
 43
0.0
 44
0.0
 45
0.0
 46
0.0
 47
0.0
 48
0.0
 49
0.0
140
0.0
141
0.0
142
1.0
143
1.0
 70
   688
 72
     1
 73
     0
 74
     5
  7

 75
    16
147
1.0
148
0.0
149
0.0
100
AcDbLayout
  1
Layout1
 70
     1
 71
     1
 10
0.0
 20
0.0
 11
420.0
 21
297.0
 12
0.0
 22
0.0
 32
0.0
 14
1.0000000000E+20
 24
1.0000000000E+20
 34
1.0000000000E+20
 15
-1.0000000000E+20
 25
-1.0000000000E+20
 35
-1.0000000000E+20
146
0.0
 13
0.0
 23
0.0
 33
0.0
 16
1.0
 26
0.0
 36
0.0
 17
0.0
 27
1.0
 37
0.0
 76
     0
330
1B
  0
LAYOUT
  5
26
102
{ACAD_REACTORS
330
1A
102
}
330
1A
100
AcDbPlotSettings
  1

  2
none_device
  4

  6

 40
0.0
 41
0.0
 42
0.0
 43
0.0
 44
0.0
 45
0.0
 46
0.0
 47
0.0
 48
0.0
 49
0.0
140
0.0
141
0.0
142
1.0
143
1.0
 70
   688
 72
     1
 73
     0
 74
     5
  7

 75
    16
147
1.0
148
0.0
149
0.0
100
AcDbLayout
  1
Layout2
 70
     1
 71
     2
 10
0.0
 20
0.0
 11
0.0
 21
0.0
 12
0.0
 22
0.0
 32
0.0
 14
0.0
 24
0.0
 34
0.0
 15
0.0
 25
0.0
 35
0.0
146
0.0
 13
0.0
 23
0.0
 33
0.0
 16
1.0
 26
0.0
 36
0.0
 17
0.0
 27
1.0
 37
0.0
 76
     0
330
23
  0
LAYOUT
  5
22
102
{ACAD_REACTORS
330
1A
102
}
330
1A
100
AcDbPlotSettings
  1

  2
none_device
  4
Letter_(8.50_x_11.00_Inches)
  6

 40
6.35
 41
6.35
 42
6.35000508
 43
6.35000508
 44
215.9
 45
279.4
 46
0.0
 47
0.0
 48
0.0
 49
0.0
140
0.0
141
0.0
142
1.0
143
1.0
 70
  1712
 72
     1
 73
     0
 74
     0
  7

 75
     0
147
1.0
148
0.0
149
0.0
100
AcDbLayout
  1
Model
 70
     1
 71
     0
 10
0.0
 20
0.0
 11
420.0
 21
297.0
 12
0.0
 22
0.0
 32
0.0
 14
0.0
 24
0.0
 34
0.0
 15
420.0
 25
297.0
 35
0.0
146
0.0
 13
0.0
 23
0.0
 33
0.0
 16
1.0
 26
0.0
 36
0.0
 17
0.0
 27
1.0
 37
0.0
 76
     0
330
1F
331
29
  0
MLINESTYLE
  5
18
102
{ACAD_REACTORS
330
17
102
}
330
17
100
AcDbMlineStyle
  2
Standard
 70
     0
  3

 62
   256
 51
90.0
 52
90.0
 71
     2
 49
0.5
 62
   256
  6
BYLAYER
 49
-0.5
 62
   256
  6
BYLAYER
  0
ACDBPLACEHOLDER
  5
F
102
{ACAD_REACTORS
330
E
102
}
330
E
  0
SCALE
  5
48
102
{ACAD_REACTORS
330
47
102
}
330
47
100
AcDbScale
 70
     0
300
1:1
140
1.0
141
1.0
290
     1
  0
SCALE
  5
49
102
{ACAD_REACTORS
330
47
102
}
330
47
100
AcDbScale
 70
     0
300
1:2
140
1.0
141
2.0
290
     0
  0
SCALE
  5
4A
102
{ACAD_REACTORS
330
47
102
}
330
47
100
AcDbScale
 70
     0
300
1:4
140
1.0
141
4.0
290
     0
  0
SCALE
  5
4B
102
{ACAD_REACTORS
330
47
102
}
330
47
100
AcDbScale
 70
     0
300
1:5
140
1.0
141
5.0
290
     0
  0
SCALE
  5
4C
102
{ACAD_REACTORS
330
47
102
}
330
47
100
AcDbScale
 70
     0
300
1:8
140
1.0
141
8.0
290
     0
  0
SCALE
  5
4D
102
{ACAD_REACTORS
330
47
102
}
330
47
100
AcDbScale
 70
     0
300
1:10
140
1.0
141
10.0
290
     0
  0
SCALE
  5
4E
102
{ACAD_REACTORS
330
47
102
}
330
47
100
AcDbScale
 70
     0
300
1:16
140
1.0
141
16.0
290
     0
  0
SCALE
  5
4F
102
{ACAD_REACTORS
330
47
102
}
330
47
100
AcDbScale
 70
     0
300
1:20
140
1.0
141
20.0
290
     0
  0
SCALE
  5
50
102
{ACAD_REACTORS
330
47
102
}
330
47
100
AcDbScale
 70
     0
300
1:30
140
1.0
141
30.0
290
     0
  0
SCALE
  5
51
102
{ACAD_REACTORS
330
47
102
}
330
47
100
AcDbScale
 70
     0
300
1:40
140
1.0
141
40.0
290
     0
  0
SCALE
  5
52
102
{ACAD_REACTORS
330
47
102
}
330
47
100
AcDbScale
 70
     0
300
1:50
140
1.0
141
50.0
290
     0
  0
SCALE
  5
53
102
{ACAD_REACTORS
330
47
102
}
330
47
100
AcDbScale
 70
     0
300
1:100
140
1.0
141
100.0
290
     0
  0
SCALE
  5
54
102
{ACAD_REACTORS
330
47
102
}
330
47
100
AcDbScale
 70
     0
300
2:1
140
2.0
141
1.0
290
     0
  0
SCALE
  5
55
102
{ACAD_REACTORS
330
47
102
}
330
47
100
AcDbScale
 70
     0
300
4:1
140
4.0
141
1.0
290
     0
  0
SCALE
  5
56
102
{ACAD_REACTORS
330
47
102
}
330
47
100
AcDbScale
 70
     0
300
8:1
140
8.0
141
1.0
290
     0
  0
SCALE
  5
57
102
{ACAD_REACTORS
330
47
102
}
330
47
100
AcDbScale
 70
     0
300
10:1
140
10.0
141
1.0
290
     0
  0
SCALE
  5
58
102
{ACAD_REACTORS
330
47
102
}
330
47
100
AcDbScale
 70
     0
300
100:1
140
100.0
141
1.0
290
     0
  0
SCALE
  5
59
102
{ACAD_REACTORS
330
47
102
}
330
47
100
AcDbScale
 70
     0
300
1/128" = 1'-0"
140
0.0078125
141
12.0
290
     0
  0
SCALE
  5
5A
102
{ACAD_REACTORS
330
47
102
}
330
47
100
AcDbScale
 70
     0
300
1/64" = 1'-0"
140
0.015625
141
12.0
290
     0
  0
SCALE
  5
5B
102
{ACAD_REACTORS
330
47
102
}
330
47
100
AcDbScale
 70
     0
300
1/32" = 1'-0"
140
0.03125
141
12.0
290
     0
  0
SCALE
  5
5C
102
{ACAD_REACTORS
330
47
102
}
330
47
100
AcDbScale
 70
     0
300
1/16" = 1'-0"
140
0.0625
141
12.0
290
     0
  0
SCALE
  5
5D
102
{ACAD_REACTORS
330
47
102
}
330
47
100
AcDbScale
 70
     0
300
3/32" = 1'-0"
140
0.09375
141
12.0
290
     0
  0
SCALE
  5
5E
102
{ACAD_REACTORS
330
47
102
}
330
47
100
AcDbScale
 70
     0
300
1/8" = 1'-0"
140
0.125
141
12.0
290
     0
  0
SCALE
  5
5F
102
{ACAD_REACTORS
330
47
102
}
330
47
100
AcDbScale
 70
     0
300
3/16" = 1'-0"
140
0.1875
141
12.0
290
     0
  0
SCALE
  5
60
102
{ACAD_REACTORS
330
47
102
}
330
47
100
AcDbScale
 70
     0
300
1/4" = 1'-0"
140
0.25
141
12.0
290
     0
  0
SCALE
  5
61
102
{ACAD_REACTORS
330
47
102
}
330
47
100
AcDbScale
 70
     0
300
3/8" = 1'-0"
140
0.375
141
12.0
290
     0
  0
SCALE
  5
62
102
{ACAD_REACTORS
330
47
102
}
330
47
100
AcDbScale
 70
     0
300
1/2" = 1'-0"
140
0.5
141
12.0
290
     0
  0
SCALE
  5
63
102
{ACAD_REACTORS
330
47
102
}
330
47
100
AcDbScale
 70
     0
300
3/4" = 1'-0"
140
0.75
141
12.0
290
     0
  0
SCALE
  5
64
102
{ACAD_REACTORS
330
47
102
}
330
47
100
AcDbScale
 70
     0
300
1" = 1'-0"
140
1.0
141
12.0
290
     0
  0
SCALE
  5
65
102
{ACAD_REACTORS
330
47
102
}
330
47
100
AcDbScale
 70
     0
300
1-1/2" = 1'-0"
140
1.5
141
12.0
290
     0
  0
SCALE
  5
66
102
{ACAD_REACTORS
330
47
102
}
330
47
100
AcDbScale
 70
     0
300
3" = 1'-0"
140
3.0
141
12.0
290
     0
  0
SCALE
  5
67
102
{ACAD_REACTORS
330
47
102
}
330
47
100
AcDbScale
 70
     0
300
6" = 1'-0"
140
6.0
141
12.0
290
     0
  0
SCALE
  5
68
102
{ACAD_REACTORS
330
47
102
}
330
47
100
AcDbScale
 70
     0
300
1'-0" = 1'-0"
140
12.0
141
12.0
290
     0
  0
ENDSEC
  0
EOF
