  0
SECTION
  2
HEADER
  9
$ACADVER
  1
AC1015
  9
$ACADMAINTVER
 70
     6
  9
$DWGCODEPAGE
  3
ANSI_1252
  9
$INSBASE
 10
0.0
 20
0.0
 30
0.0
  9
$EXTMIN
 10
0.0
 20
0.0
 30
0.0
  9
$EXTMAX
 10
210.0
 20
297.0
 30
0.0
  9
$LIMMIN
 10
0.0
 20
0.0
  9
$LIMMAX
 10
210.0
 20
297.0
  9
$ORTHOMODE
 70
     0
  9
$REGENMODE
 70
     1
  9
$FILLMODE
 70
     1
  9
$QTEXTMODE
 70
     0
  9
$MIRRTEXT
 70
     1
  9
$LTSCALE
 40
1.0
  9
$ATTMODE
 70
     1
  9
$TEXTSIZE
 40
3.5
  9
$TRACEWID
 40
1.0
  9
$TEXTSTYLE
  7
Standard
  9
$CLAYER
  8
0
  9
$CELTYPE
  6
ByLayer
  9
$CECOLOR
 62
   256
  9
$CELTSCALE
 40
1.0
  9
$DISPSILH
 70
     0
  9
$DIMSCALE
 40
1.0
  9
$DIMASZ
 40
3.302
  9
$DIMEXO
 40
1.0
  9
$DIMDLI
 40
3.75
  9
$DIMRND
 40
0.0
  9
$DIMDLE
 40
0.0
  9
$DIMEXE
 40
1.0
  9
$DIMTP
 40
0.0
  9
$DIMTM
 40
0.0
  9
$DIMTXT
 40
3.5
  9
$DIMCEN
 40
2.5
  9
$DIMTSZ
 40
0.0
  9
$DIMTOL
 70
     0
  9
$DIMLIM
 70
     0
  9
$DIMTIH
 70
     1
  9
$DIMTOH
 70
     1
  9
$DIMSE1
 70
     0
  9
$DIMSE2
 70
     0
  9
$DIMTAD
 70
     1
  9
$DIMZIN
 70
     0
  9
$DIMBLK
  1

  9
$DIMASO
 70
     1
  9
$DIMSHO
 70
     1
  9
$DIMPOST
  1

  9
$DIMAPOST
  1

  9
$DIMALT
 70
     0
  9
$DIMALTD
 70
     3
  9
$DIMALTF
 40
0.0393700787
  9
$DIMLFAC
 40
1.0
  9
$DIMTOFL
 70
     1
  9
$DIMTVP
 40
0.0
  9
$DIMTIX
 70
     0
  9
$DIMSOXD
 70
     0
  9
$DIMSAH
 70
     0
  9
$DIMBLK1
  1

  9
$DIMBLK2
  1

  9
$DIMSTYLE
  2
ISO-25
  9
$DIMCLRD
 70
     0
  9
$DIMCLRE
 70
     0
  9
$DIMCLRT
 70
     0
  9
$DIMTFAC
 40
1.0
  9
$DIMGAP
 40
1.524
  9
$DIMJUST
 70
     0
  9
$DIMSD1
 70
     0
  9
$DIMSD2
 70
     0
  9
$DIMTOLJ
 70
     0
  9
$DIMTZIN
 70
     0
  9
$DIMALTZ
 70
     0
  9
$DIMALTTZ
 70
     0
  9
$DIMUPT
 70
     0
  9
$DIMDEC
 70
     2
  9
$DIMTDEC
 70
     2
  9
$DIMALTU
 70
     2
  9
$DIMALTTD
 70
     3
  9
$DIMTXSTY
  7
Standard
  9
$DIMAUNIT
 70
     0
  9
$DIMADEC
 70
     2
  9
$DIMALTRND
 40
0.0
  9
$DIMAZIN
 70
     0
  9
$DIMDSEP
 70
    44
  9
$DIMATFIT
 70
     3
  9
$DIMFRAC
 70
     0
  9
$DIMLDRBLK
  1

  9
$DIMLUNIT
 70
     2
  9
$DIMLWD
 70
    -2
  9
$DIMLWE
 70
    -2
  9
$DIMTMOVE
 70
     0
  9
$LUNITS
 70
     2
  9
$LUPREC
 70
     2
  9
$SKETCHINC
 40
1.0
  9
$FILLETRAD
 40
10.0
  9
$AUNITS
 70
     0
  9
$AUPREC
 70
     2
  9
$MENU
  1
.
  9
$ELEVATION
 40
0.0
  9
$PELEVATION
 40
0.0
  9
$THICKNESS
 40
0.0
  9
$LIMCHECK
 70
     0
  9
$CHAMFERA
 40
0.0
  9
$CHAMFERB
 40
0.0
  9
$CHAMFERC
 40
0.0
  9
$CHAMFERD
 40
0.0
  9
$SKPOLY
 70
     0
  9
$TDCREATE
 40
2458221.404890567
  9
$TDUCREATE
 40
2458221.321557234
  9
$TDUPDATE
 40
2458221.404892373
  9
$TDUUPDATE
 40
2458221.321559039
  9
$TDINDWG
 40
0.0000000116
  9
$TDUSRTIMER
 40
0.0000000116
  9
$USRTIMER
 70
     1
  9
$ANGBASE
 50
0.0
  9
$ANGDIR
 70
     0
  9
$PDMODE
 70
     0
  9
$PDSIZE
 40
-1.0
  9
$PLINEWID
 40
0.0
  9
$SPLFRAME
 70
     0
  9
$SPLINETYPE
 70
     6
  9
$SPLINESEGS
 70
     8
  9
$HANDSEED
  5
21C
  9
$SURFTAB1
 70
     6
  9
$SURFTAB2
 70
     6
  9
$SURFTYPE
 70
     6
  9
$SURFU
 70
     6
  9
$SURFV
 70
     6
  9
$UCSBASE
  2

  9
$UCSNAME
  2

  9
$UCSORG
 10
0.0
 20
0.0
 30
0.0
  9
$UCSXDIR
 10
1.0
 20
0.0
 30
0.0
  9
$UCSYDIR
 10
0.0
 20
1.0
 30
0.0
  9
$UCSORTHOREF
  2

  9
$UCSORTHOVIEW
 70
     0
  9
$UCSORGTOP
 10
0.0
 20
0.0
 30
0.0
  9
$UCSORGBOTTOM
 10
0.0
 20
0.0
 30
0.0
  9
$UCSORGLEFT
 10
0.0
 20
0.0
 30
0.0
  9
$UCSORGRIGHT
 10
0.0
 20
0.0
 30
0.0
  9
$UCSORGFRONT
 10
0.0
 20
0.0
 30
0.0
  9
$UCSORGBACK
 10
0.0
 20
0.0
 30
0.0
  9
$PUCSBASE
  2

  9
$PUCSNAME
  2

  9
$PUCSORG
 10
0.0
 20
0.0
 30
0.0
  9
$PUCSXDIR
 10
1.0
 20
0.0
 30
0.0
  9
$PUCSYDIR
 10
0.0
 20
1.0
 30
0.0
  9
$PUCSORTHOREF
  2

  9
$PUCSORTHOVIEW
 70
     0
  9
$PUCSORGTOP
 10
0.0
 20
0.0
 30
0.0
  9
$PUCSORGBOTTOM
 10
0.0
 20
0.0
 30
0.0
  9
$PUCSORGLEFT
 10
0.0
 20
0.0
 30
0.0
  9
$PUCSORGRIGHT
 10
0.0
 20
0.0
 30
0.0
  9
$PUCSORGFRONT
 10
0.0
 20
0.0
 30
0.0
  9
$PUCSORGBACK
 10
0.0
 20
0.0
 30
0.0
  9
$USERI1
 70
     0
  9
$USERI2
 70
     0
  9
$USERI3
 70
     0
  9
$USERI4
 70
     0
  9
$USERI5
 70
     0
  9
$USERR1
 40
0.0
  9
$USERR2
 40
0.0
  9
$USERR3
 40
0.0
  9
$USERR4
 40
0.0
  9
$USERR5
 40
0.0
  9
$WORLDVIEW
 70
     1
  9
$SHADEDGE
 70
     3
  9
$SHADEDIF
 70
    70
  9
$TILEMODE
 70
     1
  9
$MAXACTVP
 70
    64
  9
$PINSBASE
 10
0.0
 20
0.0
 30
0.0
  9
$PLIMCHECK
 70
     0
  9
$PEXTMIN
 10
1.0000000000E+20
 20
1.0000000000E+20
 30
1.0000000000E+20
  9
$PEXTMAX
 10
-1.0000000000E+20
 20
-1.0000000000E+20
 30
-1.0000000000E+20
  9
$PLIMMIN
 10
0.0
 20
0.0
  9
$PLIMMAX
 10
420.0
 20
297.0
  9
$UNITMODE
 70
     0
  9
$VISRETAIN
 70
     1
  9
$PLINEGEN
 70
     0
  9
$PSLTSCALE
 70
     1
  9
$TREEDEPTH
 70
  3020
  9
$CMLSTYLE
  2
Standard
  9
$CMLJUST
 70
     0
  9
$CMLSCALE
 40
20.0
  9
$PROXYGRAPHICS
 70
     1
  9
$MEASUREMENT
 70
     1
  9
$CELWEIGHT
370
    -1
  9
$ENDCAPS
280
     0
  9
$JOINSTYLE
280
     0
  9
$LWDISPLAY
290
     1
  9
$INSUNITS
 70
     4
  9
$HYPERLINKBASE
  1

  9
$STYLESHEET
  1

  9
$XEDIT
290
     1
  9
$CEPSNTYPE
380
     0
  9
$PSTYLEMODE
290
     1
  9
$FINGERPRINTGUID
  2
{4D5E7BFC-C98C-40CF-B868-248B4C734C1D}
  9
$VERSIONGUID
  2
{FAEB1C32-E019-11D5-929B-00C0DF256EC4}
  9
$EXTNAMES
290
     1
  9
$PSVPSCALE
 40
0.0
  9
$OLESTARTUP
290
     0
  0
ENDSEC
  0
SECTION
  2
CLASSES
  0
CLASS
  1
ACDBDICTIONARYWDFLT
  2
AcDbDictionaryWithDefault
  3
ObjectDBX Classes
 90
        0
280
     0
281
     0
  0
CLASS
  1
VISUALSTYLE
  2
AcDbVisualStyle
  3
ObjectDBX Classes
 90
     4095
280
     0
281
     0
  0
CLASS
  1
MATERIAL
  2
AcDbMaterial
  3
ObjectDBX Classes
 90
     1153
280
     0
281
     0
  0
CLASS
  1
SCALE
  2
AcDbScale
  3
ObjectDBX Classes
 90
     1153
280
     0
281
     0
  0
CLASS
  1
TABLESTYLE
  2
AcDbTableStyle
  3
ObjectDBX Classes
 90
     4095
280
     0
281
     0
  0
CLASS
  1
MLEADERSTYLE
  2
AcDbMLeaderStyle
  3
ACDB_MLEADERSTYLE_CLASS
 90
     4095
280
     0
281
     0
  0
CLASS
  1
SUN
  2
AcDbSun
  3
SCENEOE
 90
     1153
280
     0
281
     0
  0
CLASS
  1
ACDBPLACEHOLDER
  2
AcDbPlaceHolder
  3
ObjectDBX Classes
 90
        0
280
     0
281
     0
  0
CLASS
  1
LAYOUT
  2
AcDbLayout
  3
ObjectDBX Classes
 90
        0
280
     0
281
     0
  0
ENDSEC
  0
SECTION
  2
TABLES
  0
TABLE
  2
VPORT
  5
8
330
0
100
AcDbSymbolTable
 70
     1
  0
VPORT
  5
29
330
8
100
AcDbSymbolTableRecord
100
AcDbViewportTableRecord
  2
*Active
 70
     0
 10
0.0
 20
0.0
 11
1.0
 21
1.0
 12
105.0
 22
148.5
 13
0.0
 23
0.0
 14
10.0
 24
10.0
 15
10.0
 25
10.0
 16
0.0
 26
0.0
 36
1.0
 17
0.0
 27
0.0
 37
0.0
 40
297.0
 41
0.7070707071
 42
50.0
 43
0.0
 44
0.0
 50
0.0
 51
0.0
 71
     0
 72
  2000
 73
     1
 74
     3
 75
     0
 76
     0
 77
     0
 78
     0
281
     0
 65
     1
110
0.0
120
0.0
130
0.0
111
1.0
121
0.0
131
0.0
112
0.0
122
1.0
132
0.0
 79
     0
146
0.0
  0
ENDTAB
  0
TABLE
  2
LTYPE
  5
5
330
0
100
AcDbSymbolTable
 70
     6
  0
LTYPE
  5
14
330
5
100
AcDbSymbolTableRecord
100
AcDbLinetypeTableRecord
  2
ByBlock
 70
     0
  3

 72
    65
 73
     0
 40
0.0
  0
LTYPE
  5
15
330
5
100
AcDbSymbolTableRecord
100
AcDbLinetypeTableRecord
  2
ByLayer
 70
     0
  3

 72
    65
 73
     0
 40
0.0
  0
LTYPE
  5
16
330
5
100
AcDbSymbolTableRecord
100
AcDbLinetypeTableRecord
  2
Continuous
 70
     0
  3
Solid line
 72
    65
 73
     0
 40
0.0
  0
LTYPE
  5
6E
330
5
100
AcDbSymbolTableRecord
100
AcDbLinetypeTableRecord
  2
HIDDEN
 70
     0
  3
Hidden __ __ __ __ __ __ __ __ __ __ __ __ __ __
 72
    65
 73
     2
 40
1.905
 49
1.27
 74
     0
 49
-0.635
 74
     0
  0
LTYPE
  5
6F
330
5
100
AcDbSymbolTableRecord
100
AcDbLinetypeTableRecord
  2
PHANTOM
 70
     0
  3
Phantom ______  __  __  ______  __  __  ______
 72
    65
 73
     6
 40
12.7
 49
6.35
 74
     0
 49
-1.27
 74
     0
 49
1.27
 74
     0
 49
-1.27
 74
     0
 49
1.27
 74
     0
 49
-1.27
 74
     0
  0
LTYPE
  5
70
330
5
100
AcDbSymbolTableRecord
100
AcDbLinetypeTableRecord
  2
CENTER
 70
     0
  3
Center ____ _ ____ _ ____ _ ____ _ ____ _ ____
 72
    65
 73
     4
 40
10.16
 49
6.35
 74
     0
 49
-1.27
 74
     0
 49
1.27
 74
     0
 49
-1.27
 74
     0
  0
LTYPE
  5
71
330
5
100
AcDbSymbolTableRecord
100
AcDbLinetypeTableRecord
  2
CENTERX2
 70
     0
  3
Center (2x) ________  __  ________  __  _____
 72
    65
 73
     4
 40
20.32
 49
12.7
 74
     0
 49
-2.54
 74
     0
 49
2.54
 74
     0
 49
-2.54
 74
     0
  0
LTYPE
  5
72
330
5
100
AcDbSymbolTableRecord
100
AcDbLinetypeTableRecord
  2
DOT2
 70
     0
  3
Dot (.5x) ........................................
 72
    65
 73
     2
 40
0.635
 49
0.0
 74
     0
 49
-0.635
 74
     0
  0
ENDTAB
  0
TABLE
  2
LAYER
  5
2
330
0
100
AcDbSymbolTable
 70
     3
  0
LAYER
  5
10
330
2
100
AcDbSymbolTableRecord
100
AcDbLayerTableRecord
  2
0
 70
     0
 62
     7
  6
Continuous
370
    -3
390
F
  0
LAYER
  5
73
330
2
100
AcDbSymbolTableRecord
100
AcDbLayerTableRecord
  2
FORMAT
 70
     0
 62
     7
  6
Continuous
370
    -3
390
F
  0
LAYER
  5
74
330
2
100
AcDbSymbolTableRecord
100
AcDbLayerTableRecord
  2
DIMENSIONS
 70
     0
 62
   176
  6
Continuous
370
    -3
390
F
  0
ENDTAB
  0
TABLE
  2
STYLE
  5
3
330
0
100
AcDbSymbolTable
 70
    15
  0
STYLE
  5
11
330
3
100
AcDbSymbolTableRecord
100
AcDbTextStyleTableRecord
  2
Standard
 70
     0
 40
0.0
 41
1.0
 50
0.0
 71
     0
 42
3.5
  3
txt
  4

  0
STYLE
  5
C9
330
3
100
AcDbSymbolTableRecord
100
AcDbTextStyleTableRecord
  2
SLDTEXTSTYLE0
 70
     0
 40
0.0
 41
0.75
 50
0.0
 71
     0
 42
3.5
  3
TXT
  4

  0
STYLE
  5
CD
330
3
100
AcDbSymbolTableRecord
100
AcDbTextStyleTableRecord
  2
SLDTEXTSTYLE1
 70
     0
 40
0.0
 41
1.0
 50
0.0
 71
     0
 42
3.5
  3
ISOCP
  4

  0
STYLE
  5
D0
330
3
100
AcDbSymbolTableRecord
100
AcDbTextStyleTableRecord
  2
SLDTEXTSTYLE2
 70
     0
 40
0.0
 41
0.8
 50
0.0
 71
     0
 42
3.5
  3
ROMANT
  4

  0
STYLE
  5
D2
330
3
100
AcDbSymbolTableRecord
100
AcDbTextStyleTableRecord
  2
SLDTEXTSTYLE3
 70
     0
 40
0.0
 41
0.8
 50
0.0
 71
     0
 42
3.5
  3
ISOCP
  4

  0
STYLE
  5
D5
330
3
100
AcDbSymbolTableRecord
100
AcDbTextStyleTableRecord
  2
SLDTEXTSTYLE4
 70
     0
 40
0.0
 41
0.8
 50
0.0
 71
     0
 42
3.5
  3
ROMANS
  4

  0
STYLE
  5
D8
330
3
100
AcDbSymbolTableRecord
100
AcDbTextStyleTableRecord
  2
SLDTEXTSTYLE5
 70
     0
 40
0.0
 41
1.0
 50
0.0
 71
     0
 42
3.5
  3
ROMANT
  4

  0
STYLE
  5
DC
330
3
100
AcDbSymbolTableRecord
100
AcDbTextStyleTableRecord
  2
SLDTEXTSTYLE6
 70
     0
 40
0.0
 41
1.0
 50
0.0
 71
     0
 42
3.5
  3
ROMANS
  4

  0
STYLE
  5
DE
330
3
100
AcDbSymbolTableRecord
100
AcDbTextStyleTableRecord
  2
SLDTEXTSTYLE7
 70
     0
 40
0.0
 41
0.65
 50
0.0
 71
     0
 42
3.5
  3
ROMANT
  4

  0
STYLE
  5
E1
330
3
100
AcDbSymbolTableRecord
100
AcDbTextStyleTableRecord
  2
SLDTEXTSTYLE8
 70
     0
 40
0.0
 41
1.4461573214
 50
0.0
 71
     0
 42
3.5
  3
ISOCP
  4

  0
STYLE
  5
E3
330
3
100
AcDbSymbolTableRecord
100
AcDbTextStyleTableRecord
  2
SLDTEXTSTYLE9
 70
     0
 40
0.0
 41
1.2944018369
 50
0.0
 71
     0
 42
3.5
  3
ISOCP
  4

  0
STYLE
  5
E5
330
3
100
AcDbSymbolTableRecord
100
AcDbTextStyleTableRecord
  2
SLDTEXTSTYLE10
 70
     0
 40
0.0
 41
1.1473107191
 50
0.0
 71
     0
 42
3.5
  3
ISOCP
  4

  0
STYLE
  5
E7
330
3
100
AcDbSymbolTableRecord
100
AcDbTextStyleTableRecord
  2
SLDTEXTSTYLE11
 70
     0
 40
0.0
 41
1.385903689
 50
0.0
 71
     0
 42
3.5
  3
ISOCP
  4

  0
STYLE
  5
EE
330
3
100
AcDbSymbolTableRecord
100
AcDbTextStyleTableRecord
  2
SLDTEXTSTYLE12
 70
     0
 40
0.0
 41
1.2464610281
 50
0.0
 71
     0
 42
3.5
  3
ISOCP
  4

  0
STYLE
  5
F1
330
3
100
AcDbSymbolTableRecord
100
AcDbTextStyleTableRecord
  2
SLDTEXTSTYLE13
 70
     0
 40
0.0
 41
1.0
 50
0.0
 71
     0
 42
3.5
  3
ROMAND
  4

  0
ENDTAB
  0
TABLE
  2
VIEW
  5
6
330
0
100
AcDbSymbolTable
 70
     0
  0
ENDTAB
  0
TABLE
  2
UCS
  5
7
330
0
100
AcDbSymbolTable
 70
     0
  0
ENDTAB
  0
TABLE
  2
APPID
  5
9
330
0
100
AcDbSymbolTable
 70
     1
  0
APPID
  5
12
330
9
100
AcDbSymbolTableRecord
100
AcDbRegAppTableRecord
  2
ACAD
 70
     0
  0
ENDTAB
  0
TABLE
  2
DIMSTYLE
  5
A
330
0
100
AcDbSymbolTable
 70
     5
100
AcDbDimStyleTable
  0
DIMSTYLE
105
27
330
A
100
AcDbSymbolTableRecord
100
AcDbDimStyleTableRecord
  2
ISO-25
 70
     0
 41
2.5
 42
0.625
 43
3.75
 44
1.25
 73
     0
 74
     0
 77
     1
 78
     8
140
2.5
141
2.5
143
0.0393700787
147
0.625
171
     3
172
     1
178
     0
271
     2
272
     2
274
     3
278
    44
283
     0
284
     8
340
11
  0
DIMSTYLE
105
11F
102
{ACAD_REACTORS
330
11E
330
181
330
18A
102
}
330
A
100
AcDbSymbolTableRecord
100
AcDbDimStyleTableRecord
  2
SLDDIMSTYLE0
 70
     0
 41
3.302
 44
0.0
 45
0.000000001
 73
     0
 74
     0
 77
     1
 78
    12
 79
     3
140
3.5
141
0.0
147
0.875
173
     1
178
     0
271
     2
272
     2
276
     2
284
    12
340
C9
  0
DIMSTYLE
105
128
102
{ACAD_REACTORS
330
127
330
13F
330
14A
330
154
330
176
330
1B4
330
1C0
330
1E4
330
1F8
102
}
330
A
100
AcDbSymbolTableRecord
100
AcDbDimStyleTableRecord
  2
SLDDIMSTYLE1
 70
     0
 41
3.302
 44
0.0
 45
0.000000001
 73
     0
 74
     0
 77
     1
 78
    12
 79
     3
140
3.5
147
0.875
173
     1
178
     0
271
     2
272
     2
276
     2
284
    12
340
C9
  0
DIMSTYLE
105
133
102
{ACAD_REACTORS
330
132
330
16A
330
1CC
330
1D8
330
1EE
102
}
330
A
100
AcDbSymbolTableRecord
100
AcDbDimStyleTableRecord
  2
SLDDIMSTYLE2
 70
     0
 41
3.302
 44
0.0
 45
0.000000001
 73
     0
 74
     0
 77
     1
 78
    12
 79
     3
140
3.5
147
0.875
172
     1
173
     1
178
     0
271
     2
272
     2
276
     2
284
    12
289
     0
340
C9
  0
DIMSTYLE
105
15F
102
{ACAD_REACTORS
330
15E
102
}
330
A
100
AcDbSymbolTableRecord
100
AcDbDimStyleTableRecord
  2
SLDDIMSTYLE3
 70
     0
 41
3.302
 44
0.0
 73
     0
 74
     0
 77
     1
 78
    12
 79
     3
140
3.5
147
0.875
173
     1
178
     0
179
     2
272
     2
276
     2
284
    12
340
C9
  0
ENDTAB
  0
TABLE
  2
BLOCK_RECORD
  5
1
330
0
100
AcDbSymbolTable
 70
    22
  0
BLOCK_RECORD
  5
1F
330
1
100
AcDbSymbolTableRecord
100
AcDbBlockTableRecord
  2
*Model_Space
340
22
  0
BLOCK_RECORD
  5
1B
330
1
100
AcDbSymbolTableRecord
100
AcDbBlockTableRecord
  2
*Paper_Space
340
1E
  0
BLOCK_RECORD
  5
23
330
1
100
AcDbSymbolTableRecord
100
AcDbBlockTableRecord
  2
*Paper_Space0
340
26
  0
BLOCK_RECORD
  5
C6
330
1
100
AcDbSymbolTableRecord
100
AcDbBlockTableRecord
  2
SW_NOTE_0
340
0
102
{BLKREFS
331
CC
102
}
  0
BLOCK_RECORD
  5
120
330
1
100
AcDbSymbolTableRecord
100
AcDbBlockTableRecord
  2
_D
340
0
  0
BLOCK_RECORD
  5
129
330
1
100
AcDbSymbolTableRecord
100
AcDbBlockTableRecord
  2
_D_1
340
0
  0
BLOCK_RECORD
  5
134
330
1
100
AcDbSymbolTableRecord
100
AcDbBlockTableRecord
  2
_D_2
340
0
  0
BLOCK_RECORD
  5
140
330
1
100
AcDbSymbolTableRecord
100
AcDbBlockTableRecord
  2
_D_3
340
0
  0
BLOCK_RECORD
  5
14B
330
1
100
AcDbSymbolTableRecord
100
AcDbBlockTableRecord
  2
_D_4
340
0
  0
BLOCK_RECORD
  5
155
330
1
100
AcDbSymbolTableRecord
100
AcDbBlockTableRecord
  2
_D_5
340
0
  0
BLOCK_RECORD
  5
160
330
1
100
AcDbSymbolTableRecord
100
AcDbBlockTableRecord
  2
_D_6
340
0
  0
BLOCK_RECORD
  5
16B
330
1
100
AcDbSymbolTableRecord
100
AcDbBlockTableRecord
  2
_D_7
340
0
  0
BLOCK_RECORD
  5
177
330
1
100
AcDbSymbolTableRecord
100
AcDbBlockTableRecord
  2
_D_8
340
0
  0
BLOCK_RECORD
  5
182
330
1
100
AcDbSymbolTableRecord
100
AcDbBlockTableRecord
  2
_D_9
340
0
  0
BLOCK_RECORD
  5
18B
330
1
100
AcDbSymbolTableRecord
100
AcDbBlockTableRecord
  2
_D_10
340
0
  0
BLOCK_RECORD
  5
1B5
330
1
100
AcDbSymbolTableRecord
100
AcDbBlockTableRecord
  2
_D_11
340
0
  0
BLOCK_RECORD
  5
1C1
330
1
100
AcDbSymbolTableRecord
100
AcDbBlockTableRecord
  2
_D_12
340
0
  0
BLOCK_RECORD
  5
1CD
330
1
100
AcDbSymbolTableRecord
100
AcDbBlockTableRecord
  2
_D_13
340
0
  0
BLOCK_RECORD
  5
1D9
330
1
100
AcDbSymbolTableRecord
100
AcDbBlockTableRecord
  2
_D_14
340
0
  0
BLOCK_RECORD
  5
1E5
330
1
100
AcDbSymbolTableRecord
100
AcDbBlockTableRecord
  2
_D_15
340
0
  0
BLOCK_RECORD
  5
1EF
330
1
100
AcDbSymbolTableRecord
100
AcDbBlockTableRecord
  2
_D_16
340
0
  0
BLOCK_RECORD
  5
1F9
330
1
100
AcDbSymbolTableRecord
100
AcDbBlockTableRecord
  2
_D_17
340
0
  0
BLOCK_RECORD
  5
202
330
1
100
AcDbSymbolTableRecord
100
AcDbBlockTableRecord
  2
SW_CENTERMARKSYMBOL_0
340
0
102
{BLKREFS
331
20D
102
}
  0
BLOCK_RECORD
  5
20E
330
1
100
AcDbSymbolTableRecord
100
AcDbBlockTableRecord
  2
SW_CENTERMARKSYMBOL_1
340
0
102
{BLKREFS
331
219
102
}
  0
ENDTAB
  0
ENDSEC
  0
SECTION
  2
BLOCKS
  0
BLOCK
  5
20
330
1F
100
AcDbEntity
  8
0
100
AcDbBlockBegin
  2
*Model_Space
 70
     0
 10
0.0
 20
0.0
 30
0.0
  3
*Model_Space
  1

  0
ENDBLK
  5
21
330
1F
100
AcDbEntity
  8
0
100
AcDbBlockEnd
  0
BLOCK
  5
1C
330
1B
100
AcDbEntity
 67
     1
  8
0
100
AcDbBlockBegin
  2
*Paper_Space
 70
     0
 10
0.0
 20
0.0
 30
0.0
  3
*Paper_Space
  1

  0
ENDBLK
  5
1D
330
1B
100
AcDbEntity
 67
     1
  8
0
100
AcDbBlockEnd
  0
BLOCK
  5
24
330
23
100
AcDbEntity
  8
0
100
AcDbBlockBegin
  2
*Paper_Space0
 70
     0
 10
0.0
 20
0.0
 30
0.0
  3
*Paper_Space0
  1

  0
ENDBLK
  5
25
330
23
100
AcDbEntity
  8
0
100
AcDbBlockEnd
  0
BLOCK
  5
C7
330
C6
100
AcDbEntity
  8
0
100
AcDbBlockBegin
  2
SW_NOTE_0
 70
     0
 10
0.0
 20
0.0
 30
0.0
  3
SW_NOTE_0
  1

  0
MTEXT
  5
CA
330
C6
100
AcDbEntity
  8
0
  6
Continuous
 62
     0
370
     0
100
AcDbMText
 10
0.0
 20
6.1391851107
 30
0.0
 40
4.7625
 41
0.0
 71
     1
 72
     1
  1
Rep: 19
  7
SLDTEXTSTYLE0
 73
     1
 44
1.0
  0
MTEXT
  5
CB
330
C6
100
AcDbEntity
  8
0
  6
Continuous
 62
     0
370
     0
100
AcDbMText
 10
0.0
 20
-1.2108149765
 30
0.0
 40
4.7625
 41
0.0
 71
     1
 72
     1
  1
Nombre: 1
  7
SLDTEXTSTYLE0
 73
     1
 44
1.0
  0
ENDBLK
  5
C8
330
C6
100
AcDbEntity
  8
0
100
AcDbBlockEnd
  0
BLOCK
  5
121
330
120
100
AcDbEntity
  8
0
100
AcDbBlockBegin
  2
_D
 70
     0
 10
0.0
 20
0.0
 30
0.0
  3
_D
  1

  0
SOLID
  5
123
330
120
100
AcDbEntity
  8
0
  6
Continuous
 62
     7
370
    18
100
AcDbTrace
 10
100.2762806364
 20
254.2843190238
 30
0.0
 11
102.8818965197
 21
252.1933781187
 31
0.0
 12
103.3898965197
 22
253.0732599289
 32
0.0
 13
103.3898965197
 23
253.0732599289
 33
0.0
  0
LINE
  5
124
330
120
100
AcDbEntity
  8
0
  6
Continuous
 62
     7
370
    18
100
AcDbLine
 10
100.2762806364
 20
254.2843190238
 30
0.0
 11
119.6000627858
 21
243.1277281981
 31
0.0
  0
LINE
  5
125
330
120
100
AcDbEntity
  8
0
  6
Continuous
 62
     7
370
    18
100
AcDbLine
 10
100.2762806364
 20
254.2843190238
 30
0.0
 11
98.5442298289
 21
255.2843190238
 31
0.0
  0
MTEXT
  5
126
330
120
100
AcDbEntity
  8
0
  6
Continuous
 62
     7
370
    18
100
AcDbMText
 10
117.1507872908
 20
249.7257367179
 30
0.0
 40
3.5
 41
0.0
 71
     1
 72
     1
  1
R2
  7
SLDTEXTSTYLE0
 11
0.8660254037844441
 21
-0.4999999999999905
 31
0.0
 73
     1
 44
1.0
  0
ENDBLK
  5
122
330
120
100
AcDbEntity
  8
0
100
AcDbBlockEnd
  0
BLOCK
  5
12A
330
129
100
AcDbEntity
  8
0
100
AcDbBlockBegin
  2
_D_1
 70
     0
 10
0.0
 20
0.0
 30
0.0
  3
_D_1
  1

  0
SOLID
  5
12C
330
129
100
AcDbEntity
  8
0
  6
Continuous
 62
     7
370
    18
100
AcDbTrace
 10
128.5442298289
 20
263.2835452323
 30
0.0
 11
128.0362298289
 21
259.9815452323
 31
0.0
 12
129.0522298289
 22
259.9815452323
 32
0.0
 13
129.0522298289
 23
259.9815452323
 33
0.0
  0
SOLID
  5
12D
330
129
100
AcDbEntity
  8
0
  6
Continuous
 62
     7
370
    18
100
AcDbTrace
 10
128.5442298289
 20
207.2835452323
 30
0.0
 11
129.0522298289
 21
210.5855452323
 31
0.0
 12
128.0362298289
 22
210.5855452323
 32
0.0
 13
128.0362298289
 23
210.5855452323
 33
0.0
  0
LINE
  5
12E
330
129
100
AcDbEntity
  8
0
  6
Continuous
 62
     7
370
    18
100
AcDbLine
 10
113.5442298289
 20
263.2835452323
 30
0.0
 11
129.5442298289
 21
263.2835452323
 31
0.0
  0
LINE
  5
12F
330
129
100
AcDbEntity
  8
0
  6
Continuous
 62
     7
370
    18
100
AcDbLine
 10
113.5442298289
 20
207.2835452323
 30
0.0
 11
129.5442298289
 21
207.2835452323
 31
0.0
  0
LINE
  5
130
330
129
100
AcDbEntity
  8
0
  6
Continuous
 62
     7
370
    18
100
AcDbLine
 10
128.5442298289
 20
263.2835452323
 30
0.0
 11
128.5442298289
 21
207.2835452323
 31
0.0
  0
MTEXT
  5
131
330
129
100
AcDbEntity
  8
0
  6
Continuous
 62
     7
370
    18
100
AcDbMText
 10
124.0324929143
 20
232.5810193602
 30
0.0
 40
3.5
 41
0.0
 71
     1
 72
     1
  1
56
  7
SLDTEXTSTYLE0
 11
-7.044195017643634E-15
 21
1.0
 31
0.0
 73
     1
 44
1.0
  0
ENDBLK
  5
12B
330
129
100
AcDbEntity
  8
0
100
AcDbBlockEnd
  0
BLOCK
  5
135
330
134
100
AcDbEntity
  8
0
100
AcDbBlockBegin
  2
_D_2
 70
     0
 10
0.0
 20
0.0
 30
0.0
  3
_D_2
  1

  0
SOLID
  5
137
330
134
100
AcDbEntity
  8
0
  6
Continuous
 62
     7
370
    18
100
AcDbTrace
 10
120.5680730489
 20
207.2835452323
 30
0.0
 11
120.0600730489
 21
203.9815452323
 31
0.0
 12
121.0760730489
 22
203.9815452323
 32
0.0
 13
121.0760730489
 23
203.9815452323
 33
0.0
  0
SOLID
  5
138
330
134
100
AcDbEntity
  8
0
  6
Continuous
 62
     7
370
    18
100
AcDbTrace
 10
120.5680730489
 20
223.2835452323
 30
0.0
 11
121.0760730489
 21
226.5855452323
 31
0.0
 12
120.0600730489
 22
226.5855452323
 32
0.0
 13
120.0600730489
 23
226.5855452323
 33
0.0
  0
LINE
  5
139
330
134
100
AcDbEntity
  8
0
  6
Continuous
 62
     7
370
    18
100
AcDbLine
 10
89.5442298289
 20
207.2835452323
 30
0.0
 11
121.5680730489
 21
207.2835452323
 31
0.0
  0
LINE
  5
13A
330
134
100
AcDbEntity
  8
0
  6
Continuous
 62
     7
370
    18
100
AcDbLine
 10
89.5442298289
 20
223.2835452323
 30
0.0
 11
121.5680730489
 21
223.2835452323
 31
0.0
  0
LINE
  5
13B
330
134
100
AcDbEntity
  8
0
  6
Continuous
 62
     7
370
    18
100
AcDbLine
 10
120.5680730489
 20
207.2835452323
 30
0.0
 11
120.5680730489
 21
200.9335452323
 31
0.0
  0
LINE
  5
13C
330
134
100
AcDbEntity
  8
0
  6
Continuous
 62
     7
370
    18
100
AcDbLine
 10
120.5680730489
 20
207.2835452323
 30
0.0
 11
120.5680730489
 21
223.2835452323
 31
0.0
  0
LINE
  5
13D
330
134
100
AcDbEntity
  8
0
  6
Continuous
 62
     7
370
    18
100
AcDbLine
 10
120.5680730489
 20
223.2835452323
 30
0.0
 11
120.5680730489
 21
229.6335452323
 31
0.0
  0
MTEXT
  5
13E
330
134
100
AcDbEntity
  8
0
  6
Continuous
 62
     7
370
    18
100
AcDbMText
 10
116.0563361343
 20
213.2479401013
 30
0.0
 40
3.5
 41
0.0
 71
     1
 72
     1
  1
16
  7
SLDTEXTSTYLE0
 11
6.123233995736766E-17
 21
1.0
 31
0.0
 73
     1
 44
1.0
  0
ENDBLK
  5
136
330
134
100
AcDbEntity
  8
0
100
AcDbBlockEnd
  0
BLOCK
  5
141
330
140
100
AcDbEntity
  8
0
100
AcDbBlockBegin
  2
_D_3
 70
     0
 10
0.0
 20
0.0
 30
0.0
  3
_D_3
  1

  0
SOLID
  5
143
330
140
100
AcDbEntity
  8
0
  6
Continuous
 62
     7
370
    18
100
AcDbTrace
 10
96.5442298289
 20
197.2835452323
 30
0.0
 11
93.2422298289
 21
197.7915452323
 31
0.0
 12
93.2422298289
 22
196.7755452323
 32
0.0
 13
93.2422298289
 23
196.7755452323
 33
0.0
  0
SOLID
  5
144
330
140
100
AcDbEntity
  8
0
  6
Continuous
 62
     7
370
    18
100
AcDbTrace
 10
88.5442298289
 20
197.2835452323
 30
0.0
 11
91.8462298289
 21
196.7755452323
 31
0.0
 12
91.8462298289
 22
197.7915452323
 32
0.0
 13
91.8462298289
 23
197.7915452323
 33
0.0
  0
LINE
  5
145
330
140
100
AcDbEntity
  8
0
  6
Continuous
 62
     7
370
    18
100
AcDbLine
 10
96.5442298289
 20
222.2835452323
 30
0.0
 11
96.5442298289
 21
196.2835452323
 31
0.0
  0
LINE
  5
146
330
140
100
AcDbEntity
  8
0
  6
Continuous
 62
     7
370
    18
100
AcDbLine
 10
88.5442298289
 20
222.2835452323
 30
0.0
 11
88.5442298289
 21
196.2835452323
 31
0.0
  0
LINE
  5
147
330
140
100
AcDbEntity
  8
0
  6
Continuous
 62
     7
370
    18
100
AcDbLine
 10
96.5442298289
 20
197.2835452323
 30
0.0
 11
106.21284202
 21
197.2835452323
 31
0.0
  0
LINE
  5
148
330
140
100
AcDbEntity
  8
0
  6
Continuous
 62
     7
370
    18
100
AcDbLine
 10
96.5442298289
 20
197.2835452323
 30
0.0
 11
88.5442298289
 21
197.2835452323
 31
0.0
  0
MTEXT
  5
149
330
140
100
AcDbEntity
  8
0
  6
Continuous
 62
     7
370
    18
100
AcDbMText
 10
99.3392306592
 20
201.7952821469
 30
0.0
 40
3.5
 41
0.0
 71
     1
 72
     1
  1
M8
  7
SLDTEXTSTYLE0
 73
     1
 44
1.0
  0
ENDBLK
  5
142
330
140
100
AcDbEntity
  8
0
100
AcDbBlockEnd
  0
BLOCK
  5
14C
330
14B
100
AcDbEntity
  8
0
100
AcDbBlockBegin
  2
_D_4
 70
     0
 10
0.0
 20
0.0
 30
0.0
  3
_D_4
  1

  0
SOLID
  5
14E
330
14B
100
AcDbEntity
  8
0
  6
Continuous
 62
     7
370
    18
100
AcDbTrace
 10
57.8056128461
 20
257.2835452323
 30
0.0
 11
57.2976128461
 21
253.9815452323
 31
0.0
 12
58.3136128461
 22
253.9815452323
 32
0.0
 13
58.3136128461
 23
253.9815452323
 33
0.0
  0
SOLID
  5
14F
330
14B
100
AcDbEntity
  8
0
  6
Continuous
 62
     7
370
    18
100
AcDbTrace
 10
57.8056128461
 20
207.2835452323
 30
0.0
 11
58.3136128461
 21
210.5855452323
 31
0.0
 12
57.2976128461
 22
210.5855452323
 32
0.0
 13
57.2976128461
 23
210.5855452323
 33
0.0
  0
LINE
  5
150
330
14B
100
AcDbEntity
  8
0
  6
Continuous
 62
     7
370
    18
100
AcDbLine
 10
69.5442298289
 20
257.2835452323
 30
0.0
 11
56.8056128461
 21
257.2835452323
 31
0.0
  0
LINE
  5
151
330
14B
100
AcDbEntity
  8
0
  6
Continuous
 62
     7
370
    18
100
AcDbLine
 10
69.5442298289
 20
207.2835452323
 30
0.0
 11
56.8056128461
 21
207.2835452323
 31
0.0
  0
LINE
  5
152
330
14B
100
AcDbEntity
  8
0
  6
Continuous
 62
     7
370
    18
100
AcDbLine
 10
57.8056128461
 20
257.2835452323
 30
0.0
 11
57.8056128461
 21
207.2835452323
 31
0.0
  0
MTEXT
  5
153
330
14B
100
AcDbEntity
  8
0
  6
Continuous
 62
     7
370
    18
100
AcDbMText
 10
53.2938759316
 20
228.6583655975
 30
0.0
 40
3.5
 41
0.0
 71
     1
 72
     1
  1
50
  7
SLDTEXTSTYLE0
 11
-7.044195017643634E-15
 21
1.0
 31
0.0
 73
     1
 44
1.0
  0
ENDBLK
  5
14D
330
14B
100
AcDbEntity
  8
0
100
AcDbBlockEnd
  0
BLOCK
  5
156
330
155
100
AcDbEntity
  8
0
100
AcDbBlockBegin
  2
_D_5
 70
     0
 10
0.0
 20
0.0
 30
0.0
  3
_D_5
  1

  0
SOLID
  5
158
330
155
100
AcDbEntity
  8
0
  6
Continuous
 62
     7
370
    18
100
AcDbTrace
 10
51.2211583159
 20
257.4835452323
 30
0.0
 11
50.7131583159
 21
254.1815452323
 31
0.0
 12
51.7291583159
 22
254.1815452323
 32
0.0
 13
51.7291583159
 23
254.1815452323
 33
0.0
  0
SOLID
  5
159
330
155
100
AcDbEntity
  8
0
  6
Continuous
 62
     7
370
    18
100
AcDbTrace
 10
51.2211583159
 20
207.2835452323
 30
0.0
 11
51.7291583159
 21
210.5855452323
 31
0.0
 12
50.7131583159
 22
210.5855452323
 32
0.0
 13
50.7131583159
 23
210.5855452323
 33
0.0
  0
LINE
  5
15A
330
155
100
AcDbEntity
  8
0
  6
Continuous
 62
     7
370
    18
100
AcDbLine
 10
76.0442298291
 20
257.4835452323
 30
0.0
 11
50.2211583159
 21
257.4835452323
 31
0.0
  0
LINE
  5
15B
330
155
100
AcDbEntity
  8
0
  6
Continuous
 62
     7
370
    18
100
AcDbLine
 10
69.5442298289
 20
207.2835452323
 30
0.0
 11
50.2211583159
 21
207.2835452323
 31
0.0
  0
LINE
  5
15C
330
155
100
AcDbEntity
  8
0
  6
Continuous
 62
     7
370
    18
100
AcDbLine
 10
51.2211583159
 20
257.4835452323
 30
0.0
 11
51.2211583159
 21
207.2835452323
 31
0.0
  0
MTEXT
  5
15D
330
155
100
AcDbEntity
  8
0
  6
Continuous
 62
     7
370
    18
100
AcDbMText
 10
46.7094214014
 20
225.4257265474
 30
0.0
 40
3.5
 41
0.0
 71
     1
 72
     1
  1
50,20
  7
SLDTEXTSTYLE0
 11
-7.044195017643634E-15
 21
1.0
 31
0.0
 73
     1
 44
1.0
  0
ENDBLK
  5
157
330
155
100
AcDbEntity
  8
0
100
AcDbBlockEnd
  0
BLOCK
  5
161
330
160
100
AcDbEntity
  8
0
100
AcDbBlockBegin
  2
_D_6
 70
     0
 10
0.0
 20
0.0
 30
0.0
  3
_D_6
  1

  0
ARC
  5
163
330
160
100
AcDbEntity
  8
0
  6
Continuous
 62
     7
370
    18
100
AcDbCircle
 10
78.7462317735
 20
257.2835452323
 30
0.0
 40
13.73199537494018
100
AcDbArc
 50
348.4652577252
 51
0.0
  0
ARC
  5
164
330
160
100
AcDbEntity
  8
0
  6
Continuous
 62
     7
370
    18
100
AcDbCircle
 10
78.7462317735
 20
257.2835452323
 30
0.0
 40
13.73199537494018
100
AcDbArc
 50
279.0230940486
 51
348.4652577252
  0
ARC
  5
165
330
160
100
AcDbEntity
  8
0
  6
Continuous
 62
     7
370
    18
100
AcDbCircle
 10
78.7462317735
 20
257.2835452323
 30
0.0
 40
13.73199537494018
100
AcDbArc
 50
0.0
 51
25.9032768175
  0
SOLID
  5
166
330
160
100
AcDbEntity
  8
0
  6
Continuous
 62
     7
370
    18
100
AcDbTrace
 10
92.2008907484
 20
254.5376667123
 30
0.0
 11
90.6820352051
 21
251.562041427
 31
0.0
 12
91.6466788998
 22
251.2431079821
 32
0.0
 13
91.6466788998
 23
251.2431079821
 33
0.0
  0
SOLID
  5
167
330
160
100
AcDbEntity
  8
0
  6
Continuous
 62
     7
370
    18
100
AcDbTrace
 10
92.4782271484
 20
257.2835452323
 30
0.0
 11
92.5939952203
 21
260.6223872102
 31
0.0
 12
91.5850592236
 22
260.5027872328
 32
0.0
 13
91.5850592236
 23
260.5027872328
 33
0.0
  0
LINE
  5
168
330
160
100
AcDbEntity
  8
0
  6
Continuous
 62
     7
370
    18
100
AcDbLine
 10
78.0442298291
 20
257.2835452323
 30
0.0
 11
93.4782271484
 21
257.2835452323
 31
0.0
  0
MTEXT
  5
169
330
160
100
AcDbEntity
  8
0
  6
Continuous
 62
     7
370
    18
100
AcDbMText
 10
78.5449814919
 20
245.8571154932
 30
0.0
 40
3.5
 41
0.0
 71
     1
 72
     1
  1
11,53°
  7
SLDTEXTSTYLE0
 11
0.8170780299805785
 21
0.5765270964343799
 31
0.0
 73
     1
 44
1.0
  0
ENDBLK
  5
162
330
160
100
AcDbEntity
  8
0
100
AcDbBlockEnd
  0
BLOCK
  5
16C
330
16B
100
AcDbEntity
  8
0
100
AcDbBlockBegin
  2
_D_7
 70
     0
 10
0.0
 20
0.0
 30
0.0
  3
_D_7
  1

  0
SOLID
  5
16E
330
16B
100
AcDbEntity
  8
0
  6
Continuous
 62
     7
370
    18
100
AcDbTrace
 10
77.0442298291
 20
266.6015918678
 30
0.0
 11
73.7422298291
 21
267.1095918678
 31
0.0
 12
73.7422298291
 22
266.0935918678
 32
0.0
 13
73.7422298291
 23
266.0935918678
 33
0.0
  0
SOLID
  5
16F
330
16B
100
AcDbEntity
  8
0
  6
Continuous
 62
     7
370
    18
100
AcDbTrace
 10
78.5442298291
 20
266.6015918678
 30
0.0
 11
81.8462298291
 21
266.0935918678
 31
0.0
 12
81.8462298291
 22
267.1095918678
 32
0.0
 13
81.8462298291
 23
267.1095918678
 33
0.0
  0
LINE
  5
170
330
16B
100
AcDbEntity
  8
0
  6
Continuous
 62
     7
370
    18
100
AcDbLine
 10
77.0442298291
 20
258.4835452323
 30
0.0
 11
77.0442298291
 21
267.6015918678
 31
0.0
  0
LINE
  5
171
330
16B
100
AcDbEntity
  8
0
  6
Continuous
 62
     7
370
    18
100
AcDbLine
 10
78.5442298291
 20
258.4835452323
 30
0.0
 11
78.5442298291
 21
267.6015918678
 31
0.0
  0
LINE
  5
172
330
16B
100
AcDbEntity
  8
0
  6
Continuous
 62
     7
370
    18
100
AcDbLine
 10
77.0442298291
 20
266.6015918678
 30
0.0
 11
67.701005349
 21
266.6015918678
 31
0.0
  0
LINE
  5
173
330
16B
100
AcDbEntity
  8
0
  6
Continuous
 62
     7
370
    18
100
AcDbLine
 10
77.0442298291
 20
266.6015918678
 30
0.0
 11
78.5442298291
 21
266.6015918678
 31
0.0
  0
LINE
  5
174
330
16B
100
AcDbEntity
  8
0
  6
Continuous
 62
     7
370
    18
100
AcDbLine
 10
78.5442298291
 20
266.6015918678
 30
0.0
 11
84.8942298291
 21
266.6015918678
 31
0.0
  0
MTEXT
  5
175
330
16B
100
AcDbEntity
  8
0
  6
Continuous
 62
     7
370
    18
100
AcDbMText
 10
67.701005349
 20
271.1133287823
 30
0.0
 40
3.5
 41
0.0
 71
     1
 72
     1
  1
1,50
  7
SLDTEXTSTYLE0
 73
     1
 44
1.0
  0
ENDBLK
  5
16D
330
16B
100
AcDbEntity
  8
0
100
AcDbBlockEnd
  0
BLOCK
  5
178
330
177
100
AcDbEntity
  8
0
100
AcDbBlockBegin
  2
_D_8
 70
     0
 10
0.0
 20
0.0
 30
0.0
  3
_D_8
  1

  0
SOLID
  5
17A
330
177
100
AcDbEntity
  8
0
  6
Continuous
 62
     7
370
    18
100
AcDbTrace
 10
70.5442298289
 20
276.6655186375
 30
0.0
 11
73.8462298289
 21
276.1575186375
 31
0.0
 12
73.8462298289
 22
277.1735186375
 32
0.0
 13
73.8462298289
 23
277.1735186375
 33
0.0
  0
SOLID
  5
17B
330
177
100
AcDbEntity
  8
0
  6
Continuous
 62
     7
370
    18
100
AcDbTrace
 10
78.5442298291
 20
276.6655186375
 30
0.0
 11
75.2422298291
 21
277.1735186375
 31
0.0
 12
75.2422298291
 22
276.1575186375
 32
0.0
 13
75.2422298291
 23
276.1575186375
 33
0.0
  0
LINE
  5
17C
330
177
100
AcDbEntity
  8
0
  6
Continuous
 62
     7
370
    18
100
AcDbLine
 10
70.5442298289
 20
258.2835452323
 30
0.0
 11
70.5442298289
 21
277.6655186375
 31
0.0
  0
LINE
  5
17D
330
177
100
AcDbEntity
  8
0
  6
Continuous
 62
     7
370
    18
100
AcDbLine
 10
78.5442298291
 20
256.2835452323
 30
0.0
 11
78.5442298291
 21
277.6655186375
 31
0.0
  0
LINE
  5
17E
330
177
100
AcDbEntity
  8
0
  6
Continuous
 62
     7
370
    18
100
AcDbLine
 10
70.5442298289
 20
276.6655186375
 30
0.0
 11
62.5716417254
 21
276.6655186375
 31
0.0
  0
LINE
  5
17F
330
177
100
AcDbEntity
  8
0
  6
Continuous
 62
     7
370
    18
100
AcDbLine
 10
70.5442298289
 20
276.6655186375
 30
0.0
 11
78.5442298291
 21
276.6655186375
 31
0.0
  0
MTEXT
  5
180
330
177
100
AcDbEntity
  8
0
  6
Continuous
 62
     7
370
    18
100
AcDbMText
 10
62.5716417254
 20
281.1772555521
 30
0.0
 40
3.5
 41
0.0
 71
     1
 72
     1
  1
8
  7
SLDTEXTSTYLE0
 73
     1
 44
1.0
  0
ENDBLK
  5
179
330
177
100
AcDbEntity
  8
0
100
AcDbBlockEnd
  0
BLOCK
  5
183
330
182
100
AcDbEntity
  8
0
100
AcDbBlockBegin
  2
_D_9
 70
     0
 10
0.0
 20
0.0
 30
0.0
  3
_D_9
  1

  0
ARC
  5
185
330
182
100
AcDbEntity
  8
0
  6
Continuous
 62
     7
370
    18
100
AcDbCircle
 10
78.5442298291
 20
255.2835452323
 30
0.0
 40
1.999999999999951
100
AcDbArc
 50
44.0036338327
 51
51.9002065481
  0
SOLID
  5
186
330
182
100
AcDbEntity
  8
0
  6
Continuous
 62
     7
370
    18
100
AcDbTrace
 10
79.2095830297
 20
257.1696271813
 30
0.0
 11
80.7871459789
 21
260.1145487662
 31
0.0
 12
79.8290163488
 22
260.4525481921
 32
0.0
 13
79.8290163488
 23
260.4525481921
 33
0.0
  0
LINE
  5
187
330
182
100
AcDbEntity
  8
0
  6
Continuous
 62
     7
370
    18
100
AcDbLine
 10
79.2095830297
 20
257.1696271813
 30
0.0
 11
87.5125772578
 21
280.7061902019
 31
0.0
  0
LINE
  5
188
330
182
100
AcDbEntity
  8
0
  6
Continuous
 62
     7
370
    18
100
AcDbLine
 10
79.2095830297
 20
257.1696271813
 30
0.0
 11
78.5442298291
 21
255.2835452323
 31
0.0
  0
MTEXT
  5
189
330
182
100
AcDbEntity
  8
0
  6
Continuous
 62
     7
370
    18
100
AcDbMText
 10
81.4714828104
 20
277.0897955926
 30
0.0
 40
3.5
 41
0.0
 71
     1
 72
     1
  1
R2
  7
SLDTEXTSTYLE0
 11
0.3326766002924001
 21
0.9430409745169563
 31
0.0
 73
     1
 44
1.0
  0
ENDBLK
  5
184
330
182
100
AcDbEntity
  8
0
100
AcDbBlockEnd
  0
BLOCK
  5
18C
330
18B
100
AcDbEntity
  8
0
100
AcDbBlockBegin
  2
_D_10
 70
     0
 10
0.0
 20
0.0
 30
0.0
  3
_D_10
  1

  0
SOLID
  5
18E
330
18B
100
AcDbEntity
  8
0
  6
Continuous
 62
     7
370
    18
100
AcDbTrace
 10
100.8371230477
 20
262.9906520135
 30
0.0
 11
98.861466701
 21
265.6847288498
 31
0.0
 12
98.1430462113
 22
264.9663083601
 32
0.0
 13
98.1430462113
 23
264.9663083601
 33
0.0
  0
LINE
  5
18F
330
18B
100
AcDbEntity
  8
0
  6
Continuous
 62
     7
370
    18
100
AcDbLine
 10
100.8371230477
 20
262.9906520135
 30
0.0
 11
93.390883732
 21
270.4368913291
 31
0.0
  0
LINE
  5
190
330
18B
100
AcDbEntity
  8
0
  6
Continuous
 62
     7
370
    18
100
AcDbLine
 10
100.8371230477
 20
262.9906520135
 30
0.0
 11
101.5442298289
 21
262.2835452323
 31
0.0
  0
MTEXT
  5
191
330
18B
100
AcDbEntity
  8
0
  6
Continuous
 62
     7
370
    18
100
AcDbMText
 10
96.4975118368
 20
273.5435194338
 30
0.0
 40
3.5
 41
0.0
 71
     1
 72
     1
  1
R1
  7
SLDTEXTSTYLE0
 11
0.7071067811865557
 21
-0.7071067811865394
 31
0.0
 73
     1
 44
1.0
  0
ENDBLK
  5
18D
330
18B
100
AcDbEntity
  8
0
100
AcDbBlockEnd
  0
BLOCK
  5
1B6
330
1B5
100
AcDbEntity
  8
0
100
AcDbBlockBegin
  2
_D_11
 70
     0
 10
0.0
 20
0.0
 30
0.0
  3
_D_11
  1

  0
SOLID
  5
1B8
330
1B5
100
AcDbEntity
  8
0
  6
Continuous
 62
     7
370
    18
100
AcDbTrace
 10
125.992947405
 20
153.6206525466
 30
0.0
 11
125.484947405
 21
150.3186525466
 31
0.0
 12
126.500947405
 22
150.3186525466
 32
0.0
 13
126.500947405
 23
150.3186525466
 33
0.0
  0
SOLID
  5
1B9
330
1B5
100
AcDbEntity
  8
0
  6
Continuous
 62
     7
370
    18
100
AcDbTrace
 10
125.992947405
 20
143.6206525466
 30
0.0
 11
126.500947405
 21
146.9226525466
 31
0.0
 12
125.484947405
 22
146.9226525466
 32
0.0
 13
125.484947405
 23
146.9226525466
 33
0.0
  0
LINE
  5
1BA
330
1B5
100
AcDbEntity
  8
0
  6
Continuous
 62
     7
370
    18
100
AcDbLine
 10
99.1443056452
 20
153.6206525466
 30
0.0
 11
126.992947405
 21
153.6206525466
 31
0.0
  0
LINE
  5
1BB
330
1B5
100
AcDbEntity
  8
0
  6
Continuous
 62
     7
370
    18
100
AcDbLine
 10
113.5442298289
 20
143.6206525466
 30
0.0
 11
126.992947405
 21
143.6206525466
 31
0.0
  0
LINE
  5
1BC
330
1B5
100
AcDbEntity
  8
0
  6
Continuous
 62
     7
370
    18
100
AcDbLine
 10
125.992947405
 20
153.6206525466
 30
0.0
 11
125.992947405
 21
171.9671812928
 31
0.0
  0
LINE
  5
1BD
330
1B5
100
AcDbEntity
  8
0
  6
Continuous
 62
     7
370
    18
100
AcDbLine
 10
125.992947405
 20
153.6206525466
 30
0.0
 11
125.992947405
 21
143.6206525466
 31
0.0
  0
MTEXT
  5
1BE
330
1B5
100
AcDbEntity
  8
0
  6
Continuous
 62
     7
370
    18
100
AcDbMText
 10
121.4812104904
 20
155.2741238005
 30
0.0
 40
3.5
 41
0.0
 71
     1
 72
     1
  1
10
  7
SLDTEXTSTYLE0
 11
-7.044195017643634E-15
 21
1.0
 31
0.0
 73
     1
 44
1.0
  0
MTEXT
  5
1BF
330
1B5
100
AcDbEntity
  8
0
  6
Continuous
 62
     7
370
    18
100
AcDbMText
 10
121.4812104904
 20
161.7588461875
 30
0.0
 40
3.5
 41
0.0
 71
     1
 72
     1
  1
à45°
  7
SLDTEXTSTYLE0
 11
-7.044195017643634E-15
 21
1.0
 31
0.0
 73
     1
 44
1.0
  0
ENDBLK
  5
1B7
330
1B5
100
AcDbEntity
  8
0
100
AcDbBlockEnd
  0
BLOCK
  5
1C2
330
1C1
100
AcDbEntity
  8
0
100
AcDbBlockBegin
  2
_D_12
 70
     0
 10
0.0
 20
0.0
 30
0.0
  3
_D_12
  1

  0
SOLID
  5
1C4
330
1C1
100
AcDbEntity
  8
0
  6
Continuous
 62
     7
370
    18
100
AcDbTrace
 10
125.992947405
 20
103.6206525466
 30
0.0
 11
126.500947405
 21
106.9226525466
 31
0.0
 12
125.484947405
 22
106.9226525466
 32
0.0
 13
125.484947405
 23
106.9226525466
 33
0.0
  0
SOLID
  5
1C5
330
1C1
100
AcDbEntity
  8
0
  6
Continuous
 62
     7
370
    18
100
AcDbTrace
 10
125.992947405
 20
113.6206525466
 30
0.0
 11
125.484947405
 21
110.3186525466
 31
0.0
 12
126.500947405
 22
110.3186525466
 32
0.0
 13
126.500947405
 23
110.3186525466
 33
0.0
  0
LINE
  5
1C6
330
1C1
100
AcDbEntity
  8
0
  6
Continuous
 62
     7
370
    18
100
AcDbLine
 10
99.1443056452
 20
103.6206525466
 30
0.0
 11
126.992947405
 21
103.6206525466
 31
0.0
  0
LINE
  5
1C7
330
1C1
100
AcDbEntity
  8
0
  6
Continuous
 62
     7
370
    18
100
AcDbLine
 10
113.5442298289
 20
113.6206525466
 30
0.0
 11
126.992947405
 21
113.6206525466
 31
0.0
  0
LINE
  5
1C8
330
1C1
100
AcDbEntity
  8
0
  6
Continuous
 62
     7
370
    18
100
AcDbLine
 10
125.992947405
 20
103.6206525466
 30
0.0
 11
125.992947405
 21
85.2741238005
 31
0.0
  0
LINE
  5
1C9
330
1C1
100
AcDbEntity
  8
0
  6
Continuous
 62
     7
370
    18
100
AcDbLine
 10
125.992947405
 20
103.6206525466
 30
0.0
 11
125.992947405
 21
113.6206525466
 31
0.0
  0
MTEXT
  5
1CA
330
1C1
100
AcDbEntity
  8
0
  6
Continuous
 62
     7
370
    18
100
AcDbMText
 10
121.4812104904
 20
85.2741238005
 30
0.0
 40
3.5
 41
0.0
 71
     1
 72
     1
  1
10
  7
SLDTEXTSTYLE0
 11
6.123233995736766E-17
 21
1.0
 31
0.0
 73
     1
 44
1.0
  0
MTEXT
  5
1CB
330
1C1
100
AcDbEntity
  8
0
  6
Continuous
 62
     7
370
    18
100
AcDbMText
 10
121.4812104904
 20
91.7588461875
 30
0.0
 40
3.5
 41
0.0
 71
     1
 72
     1
  1
à45°
  7
SLDTEXTSTYLE0
 11
6.123233995736766E-17
 21
1.0
 31
0.0
 73
     1
 44
1.0
  0
ENDBLK
  5
1C3
330
1C1
100
AcDbEntity
  8
0
100
AcDbBlockEnd
  0
BLOCK
  5
1CE
330
1CD
100
AcDbEntity
  8
0
100
AcDbBlockBegin
  2
_D_13
 70
     0
 10
0.0
 20
0.0
 30
0.0
  3
_D_13
  1

  0
SOLID
  5
1D0
330
1CD
100
AcDbEntity
  8
0
  6
Continuous
 62
     7
370
    18
100
AcDbTrace
 10
62.8845777025
 20
153.6206525466
 30
0.0
 11
63.3925777025
 21
156.9226525466
 31
0.0
 12
62.3765777025
 22
156.9226525466
 32
0.0
 13
62.3765777025
 23
156.9226525466
 33
0.0
  0
SOLID
  5
1D1
330
1CD
100
AcDbEntity
  8
0
  6
Continuous
 62
     7
370
    18
100
AcDbTrace
 10
62.8845777025
 20
141.6206525466
 30
0.0
 11
62.3765777025
 21
138.3186525466
 31
0.0
 12
63.3925777025
 22
138.3186525466
 32
0.0
 13
63.3925777025
 23
138.3186525466
 33
0.0
  0
LINE
  5
1D2
330
1CD
100
AcDbEntity
  8
0
  6
Continuous
 62
     7
370
    18
100
AcDbLine
 10
77.9441540127
 20
153.6206525466
 30
0.0
 11
61.8845777025
 21
153.6206525466
 31
0.0
  0
LINE
  5
1D3
330
1CD
100
AcDbEntity
  8
0
  6
Continuous
 62
     7
370
    18
100
AcDbLine
 10
91.5442298289
 20
141.6206525466
 30
0.0
 11
61.8845777025
 21
141.6206525466
 31
0.0
  0
LINE
  5
1D4
330
1CD
100
AcDbEntity
  8
0
  6
Continuous
 62
     7
370
    18
100
AcDbLine
 10
62.8845777025
 20
153.6206525466
 30
0.0
 11
62.8845777025
 21
159.9706525466
 31
0.0
  0
LINE
  5
1D5
330
1CD
100
AcDbEntity
  8
0
  6
Continuous
 62
     7
370
    18
100
AcDbLine
 10
62.8845777025
 20
153.6206525466
 30
0.0
 11
62.8845777025
 21
141.6206525466
 31
0.0
  0
LINE
  5
1D6
330
1CD
100
AcDbEntity
  8
0
  6
Continuous
 62
     7
370
    18
100
AcDbLine
 10
62.8845777025
 20
141.6206525466
 30
0.0
 11
62.8845777025
 21
135.2706525466
 31
0.0
  0
MTEXT
  5
1D7
330
1CD
100
AcDbEntity
  8
0
  6
Continuous
 62
     7
370
    18
100
AcDbMText
 10
58.3728407879
 20
144.5310073651
 30
0.0
 40
3.5
 41
0.0
 71
     1
 72
     1
  1
12
  7
SLDTEXTSTYLE0
 11
-7.044195017643634E-15
 21
1.0
 31
0.0
 73
     1
 44
1.0
  0
ENDBLK
  5
1CF
330
1CD
100
AcDbEntity
  8
0
100
AcDbBlockEnd
  0
BLOCK
  5
1DA
330
1D9
100
AcDbEntity
  8
0
100
AcDbBlockBegin
  2
_D_14
 70
     0
 10
0.0
 20
0.0
 30
0.0
  3
_D_14
  1

  0
SOLID
  5
1DC
330
1D9
100
AcDbEntity
  8
0
  6
Continuous
 62
     7
370
    18
100
AcDbTrace
 10
62.8845777025
 20
115.6206525466
 30
0.0
 11
63.3925777025
 21
118.9226525466
 31
0.0
 12
62.3765777025
 22
118.9226525466
 32
0.0
 13
62.3765777025
 23
118.9226525466
 33
0.0
  0
SOLID
  5
1DD
330
1D9
100
AcDbEntity
  8
0
  6
Continuous
 62
     7
370
    18
100
AcDbTrace
 10
62.8845777025
 20
103.6206525466
 30
0.0
 11
62.3765777025
 21
100.3186525466
 31
0.0
 12
63.3925777025
 22
100.3186525466
 32
0.0
 13
63.3925777025
 23
100.3186525466
 33
0.0
  0
LINE
  5
1DE
330
1D9
100
AcDbEntity
  8
0
  6
Continuous
 62
     7
370
    18
100
AcDbLine
 10
91.5442298289
 20
115.6206525466
 30
0.0
 11
61.8845777025
 21
115.6206525466
 31
0.0
  0
LINE
  5
1DF
330
1D9
100
AcDbEntity
  8
0
  6
Continuous
 62
     7
370
    18
100
AcDbLine
 10
77.9441540127
 20
103.6206525466
 30
0.0
 11
61.8845777025
 21
103.6206525466
 31
0.0
  0
LINE
  5
1E0
330
1D9
100
AcDbEntity
  8
0
  6
Continuous
 62
     7
370
    18
100
AcDbLine
 10
62.8845777025
 20
115.6206525466
 30
0.0
 11
62.8845777025
 21
121.9706525466
 31
0.0
  0
LINE
  5
1E1
330
1D9
100
AcDbEntity
  8
0
  6
Continuous
 62
     7
370
    18
100
AcDbLine
 10
62.8845777025
 20
115.6206525466
 30
0.0
 11
62.8845777025
 21
103.6206525466
 31
0.0
  0
LINE
  5
1E2
330
1D9
100
AcDbEntity
  8
0
  6
Continuous
 62
     7
370
    18
100
AcDbLine
 10
62.8845777025
 20
103.6206525466
 30
0.0
 11
62.8845777025
 21
97.2706525466
 31
0.0
  0
MTEXT
  5
1E3
330
1D9
100
AcDbEntity
  8
0
  6
Continuous
 62
     7
370
    18
100
AcDbMText
 10
58.3728407879
 20
106.3734728575
 30
0.0
 40
3.5
 41
0.0
 71
     1
 72
     1
  1
12
  7
SLDTEXTSTYLE0
 11
-7.044195017643634E-15
 21
1.0
 31
0.0
 73
     1
 44
1.0
  0
ENDBLK
  5
1DB
330
1D9
100
AcDbEntity
  8
0
100
AcDbBlockEnd
  0
BLOCK
  5
1E6
330
1E5
100
AcDbEntity
  8
0
100
AcDbBlockBegin
  2
_D_15
 70
     0
 10
0.0
 20
0.0
 30
0.0
  3
_D_15
  1

  0
SOLID
  5
1E8
330
1E5
100
AcDbEntity
  8
0
  6
Continuous
 62
     7
370
    18
100
AcDbTrace
 10
54.5442298289
 20
153.6206525466
 30
0.0
 11
54.0362298289
 21
150.3186525466
 31
0.0
 12
55.0522298289
 22
150.3186525466
 32
0.0
 13
55.0522298289
 23
150.3186525466
 33
0.0
  0
SOLID
  5
1E9
330
1E5
100
AcDbEntity
  8
0
  6
Continuous
 62
     7
370
    18
100
AcDbTrace
 10
54.5442298289
 20
103.6206525466
 30
0.0
 11
55.0522298289
 21
106.9226525466
 31
0.0
 12
54.0362298289
 22
106.9226525466
 32
0.0
 13
54.0362298289
 23
106.9226525466
 33
0.0
  0
LINE
  5
1EA
330
1E5
100
AcDbEntity
  8
0
  6
Continuous
 62
     7
370
    18
100
AcDbLine
 10
69.5442298289
 20
153.6206525466
 30
0.0
 11
53.5442298289
 21
153.6206525466
 31
0.0
  0
LINE
  5
1EB
330
1E5
100
AcDbEntity
  8
0
  6
Continuous
 62
     7
370
    18
100
AcDbLine
 10
69.5442298289
 20
103.6206525466
 30
0.0
 11
53.5442298289
 21
103.6206525466
 31
0.0
  0
LINE
  5
1EC
330
1E5
100
AcDbEntity
  8
0
  6
Continuous
 62
     7
370
    18
100
AcDbLine
 10
54.5442298289
 20
153.6206525466
 30
0.0
 11
54.5442298289
 21
103.6206525466
 31
0.0
  0
MTEXT
  5
1ED
330
1E5
100
AcDbEntity
  8
0
  6
Continuous
 62
     7
370
    18
100
AcDbMText
 10
50.0324929143
 20
126.2257036486
 30
0.0
 40
3.5
 41
0.0
 71
     1
 72
     1
  1
50
  7
SLDTEXTSTYLE0
 11
-7.044195017643634E-15
 21
1.0
 31
0.0
 73
     1
 44
1.0
  0
ENDBLK
  5
1E7
330
1E5
100
AcDbEntity
  8
0
100
AcDbBlockEnd
  0
BLOCK
  5
1F0
330
1EF
100
AcDbEntity
  8
0
100
AcDbBlockBegin
  2
_D_16
 70
     0
 10
0.0
 20
0.0
 30
0.0
  3
_D_16
  1

  0
SOLID
  5
1F2
330
1EF
100
AcDbEntity
  8
0
  6
Continuous
 62
     7
370
    18
100
AcDbTrace
 10
112.5442298289
 20
159.2347139765
 30
0.0
 11
109.2422298289
 21
159.7427139765
 31
0.0
 12
109.2422298289
 22
158.7267139765
 32
0.0
 13
109.2422298289
 23
158.7267139765
 33
0.0
  0
SOLID
  5
1F3
330
1EF
100
AcDbEntity
  8
0
  6
Continuous
 62
     7
370
    18
100
AcDbTrace
 10
92.5442298289
 20
159.2347139765
 30
0.0
 11
95.8462298289
 21
158.7267139765
 31
0.0
 12
95.8462298289
 22
159.7427139765
 32
0.0
 13
95.8462298289
 23
159.7427139765
 33
0.0
  0
LINE
  5
1F4
330
1EF
100
AcDbEntity
  8
0
  6
Continuous
 62
     7
370
    18
100
AcDbLine
 10
112.5442298289
 20
144.6206525466
 30
0.0
 11
112.5442298289
 21
160.2347139765
 31
0.0
  0
LINE
  5
1F5
330
1EF
100
AcDbEntity
  8
0
  6
Continuous
 62
     7
370
    18
100
AcDbLine
 10
92.5442298289
 20
116.6206525466
 30
0.0
 11
92.5442298289
 21
160.2347139765
 31
0.0
  0
LINE
  5
1F6
330
1EF
100
AcDbEntity
  8
0
  6
Continuous
 62
     7
370
    18
100
AcDbLine
 10
112.5442298289
 20
159.2347139765
 30
0.0
 11
92.5442298289
 21
159.2347139765
 31
0.0
  0
MTEXT
  5
1F7
330
1EF
100
AcDbEntity
  8
0
  6
Continuous
 62
     7
370
    18
100
AcDbMText
 10
100.6474810389
 20
163.7464508911
 30
0.0
 40
3.5
 41
0.0
 71
     1
 72
     1
  1
20
  7
SLDTEXTSTYLE0
 73
     1
 44
1.0
  0
ENDBLK
  5
1F1
330
1EF
100
AcDbEntity
  8
0
100
AcDbBlockEnd
  0
BLOCK
  5
1FA
330
1F9
100
AcDbEntity
  8
0
100
AcDbBlockBegin
  2
_D_17
 70
     0
 10
0.0
 20
0.0
 30
0.0
  3
_D_17
  1

  0
SOLID
  5
1FC
330
1F9
100
AcDbEntity
  8
0
  6
Continuous
 62
     7
370
    18
100
AcDbTrace
 10
112.5442298289
 20
166.582617581
 30
0.0
 11
109.2422298289
 21
167.090617581
 31
0.0
 12
109.2422298289
 22
166.074617581
 32
0.0
 13
109.2422298289
 23
166.074617581
 33
0.0
  0
SOLID
  5
1FD
330
1F9
100
AcDbEntity
  8
0
  6
Continuous
 62
     7
370
    18
100
AcDbTrace
 10
70.5442298289
 20
166.582617581
 30
0.0
 11
73.8462298289
 21
166.074617581
 31
0.0
 12
73.8462298289
 22
167.090617581
 32
0.0
 13
73.8462298289
 23
167.090617581
 33
0.0
  0
LINE
  5
1FE
330
1F9
100
AcDbEntity
  8
0
  6
Continuous
 62
     7
370
    18
100
AcDbLine
 10
112.5442298289
 20
144.6206525466
 30
0.0
 11
112.5442298289
 21
167.582617581
 31
0.0
  0
LINE
  5
1FF
330
1F9
100
AcDbEntity
  8
0
  6
Continuous
 62
     7
370
    18
100
AcDbLine
 10
70.5442298289
 20
154.6206525466
 30
0.0
 11
70.5442298289
 21
167.582617581
 31
0.0
  0
LINE
  5
200
330
1F9
100
AcDbEntity
  8
0
  6
Continuous
 62
     7
370
    18
100
AcDbLine
 10
112.5442298289
 20
166.582617581
 30
0.0
 11
70.5442298289
 21
166.582617581
 31
0.0
  0
MTEXT
  5
201
330
1F9
100
AcDbEntity
  8
0
  6
Continuous
 62
     7
370
    18
100
AcDbMText
 10
89.6900809269
 20
171.0943544956
 30
0.0
 40
3.5
 41
0.0
 71
     1
 72
     1
  1
42
  7
SLDTEXTSTYLE0
 73
     1
 44
1.0
  0
ENDBLK
  5
1FB
330
1F9
100
AcDbEntity
  8
0
100
AcDbBlockEnd
  0
BLOCK
  5
203
330
202
100
AcDbEntity
  8
0
100
AcDbBlockBegin
  2
SW_CENTERMARKSYMBOL_0
 70
     0
 10
0.0
 20
0.0
 30
0.0
  3
SW_CENTERMARKSYMBOL_0
  1

  0
LINE
  5
205
330
202
100
AcDbEntity
  8
0
  6
Continuous
 62
     0
370
     0
100
AcDbLine
 10
0.0
 20
0.0
 30
0.0
 11
0.0
 21
2.5
 31
0.0
  0
LINE
  5
206
330
202
100
AcDbEntity
  8
0
  6
Continuous
 62
     0
370
     0
100
AcDbLine
 10
0.0
 20
0.0
 30
0.0
 11
-2.5
 21
0.0
 31
0.0
  0
LINE
  5
207
330
202
100
AcDbEntity
  8
0
  6
Continuous
 62
     0
370
     0
100
AcDbLine
 10
0.0
 20
0.0
 30
0.0
 11
0.0
 21
-2.5
 31
0.0
  0
LINE
  5
208
330
202
100
AcDbEntity
  8
0
  6
Continuous
 62
     0
370
     0
100
AcDbLine
 10
0.0
 20
0.0
 30
0.0
 11
2.5
 21
0.0
 31
0.0
  0
LINE
  5
209
330
202
100
AcDbEntity
  8
0
  6
Continuous
 62
     0
370
     0
100
AcDbLine
 10
0.0
 20
5.0
 30
0.0
 11
0.0
 21
5.9
 31
0.0
  0
LINE
  5
20A
330
202
100
AcDbEntity
  8
0
  6
Continuous
 62
     0
370
     0
100
AcDbLine
 10
-5.0
 20
0.0
 30
0.0
 11
-5.9
 21
0.0
 31
0.0
  0
LINE
  5
20B
330
202
100
AcDbEntity
  8
0
  6
Continuous
 62
     0
370
     0
100
AcDbLine
 10
0.0
 20
-5.0
 30
0.0
 11
0.0
 21
-5.9
 31
0.0
  0
LINE
  5
20C
330
202
100
AcDbEntity
  8
0
  6
Continuous
 62
     0
370
     0
100
AcDbLine
 10
5.0
 20
0.0
 30
0.0
 11
5.9
 21
0.0
 31
0.0
  0
ENDBLK
  5
204
330
202
100
AcDbEntity
  8
0
100
AcDbBlockEnd
  0
BLOCK
  5
20F
330
20E
100
AcDbEntity
  8
0
100
AcDbBlockBegin
  2
SW_CENTERMARKSYMBOL_1
 70
     0
 10
0.0
 20
0.0
 30
0.0
  3
SW_CENTERMARKSYMBOL_1
  1

  0
LINE
  5
211
330
20E
100
AcDbEntity
  8
0
  6
Continuous
 62
     0
370
     0
100
AcDbLine
 10
0.0
 20
0.0
 30
0.0
 11
0.0
 21
2.5
 31
0.0
  0
LINE
  5
212
330
20E
100
AcDbEntity
  8
0
  6
Continuous
 62
     0
370
     0
100
AcDbLine
 10
0.0
 20
0.0
 30
0.0
 11
-2.5
 21
0.0
 31
0.0
  0
LINE
  5
213
330
20E
100
AcDbEntity
  8
0
  6
Continuous
 62
     0
370
     0
100
AcDbLine
 10
0.0
 20
0.0
 30
0.0
 11
0.0
 21
-2.5
 31
0.0
  0
LINE
  5
214
330
20E
100
AcDbEntity
  8
0
  6
Continuous
 62
     0
370
     0
100
AcDbLine
 10
0.0
 20
0.0
 30
0.0
 11
2.5
 21
0.0
 31
0.0
  0
LINE
  5
215
330
20E
100
AcDbEntity
  8
0
  6
Continuous
 62
     0
370
     0
100
AcDbLine
 10
0.0
 20
5.0
 30
0.0
 11
0.0
 21
5.9
 31
0.0
  0
LINE
  5
216
330
20E
100
AcDbEntity
  8
0
  6
Continuous
 62
     0
370
     0
100
AcDbLine
 10
-5.0
 20
0.0
 30
0.0
 11
-5.9
 21
0.0
 31
0.0
  0
LINE
  5
217
330
20E
100
AcDbEntity
  8
0
  6
Continuous
 62
     0
370
     0
100
AcDbLine
 10
0.0
 20
-5.0
 30
0.0
 11
0.0
 21
-5.9
 31
0.0
  0
LINE
  5
218
330
20E
100
AcDbEntity
  8
0
  6
Continuous
 62
     0
370
     0
100
AcDbLine
 10
5.0
 20
0.0
 30
0.0
 11
5.9
 21
0.0
 31
0.0
  0
ENDBLK
  5
210
330
20E
100
AcDbEntity
  8
0
100
AcDbBlockEnd
  0
ENDSEC
  0
SECTION
  2
ENTITIES
  0
LINE
  5
75
330
1F
100
AcDbEntity
  8
0
  6
Continuous
 62
     7
370
    35
100
AcDbLine
 10
20.0
 20
48.5
 30
0.0
 11
15.0
 21
48.5
 31
0.0
  0
LINE
  5
76
330
1F
100
AcDbEntity
  8
0
  6
Continuous
 62
     7
370
    35
100
AcDbLine
 10
200.0
 20
48.5
 30
0.0
 11
205.0
 21
48.5
 31
0.0
  0
LINE
  5
77
330
1F
100
AcDbEntity
  8
0
  6
Continuous
 62
     7
370
    35
100
AcDbLine
 10
20.0
 20
98.5
 30
0.0
 11
15.0
 21
98.5
 31
0.0
  0
LINE
  5
78
330
1F
100
AcDbEntity
  8
0
  6
Continuous
 62
     7
370
    35
100
AcDbLine
 10
200.0
 20
98.5
 30
0.0
 11
205.0
 21
98.5
 31
0.0
  0
LINE
  5
79
330
1F
100
AcDbEntity
  8
0
  6
Continuous
 62
     7
370
    35
100
AcDbLine
 10
20.0
 20
148.5
 30
0.0
 11
15.0
 21
148.5
 31
0.0
  0
LINE
  5
7A
330
1F
100
AcDbEntity
  8
0
  6
Continuous
 62
     7
370
    35
100
AcDbLine
 10
200.0
 20
148.5
 30
0.0
 11
205.0
 21
148.5
 31
0.0
  0
LINE
  5
7B
330
1F
100
AcDbEntity
  8
0
  6
Continuous
 62
     7
370
    35
100
AcDbLine
 10
20.0
 20
198.5
 30
0.0
 11
15.0
 21
198.5
 31
0.0
  0
LINE
  5
7C
330
1F
100
AcDbEntity
  8
0
  6
Continuous
 62
     7
370
    35
100
AcDbLine
 10
200.0
 20
198.5
 30
0.0
 11
205.0
 21
198.5
 31
0.0
  0
LINE
  5
7D
330
1F
100
AcDbEntity
  8
0
  6
Continuous
 62
     7
370
    35
100
AcDbLine
 10
20.0
 20
248.5
 30
0.0
 11
15.0
 21
248.5
 31
0.0
  0
LINE
  5
7E
330
1F
100
AcDbEntity
  8
0
  6
Continuous
 62
     7
370
    50
100
AcDbLine
 10
20.0
 20
65.25
 30
0.0
 11
20.0
 21
10.0
 31
0.0
  0
LINE
  5
7F
330
1F
100
AcDbEntity
  8
0
  6
Continuous
 62
     7
370
    35
100
AcDbLine
 10
200.0
 20
248.5
 30
0.0
 11
205.0
 21
248.5
 31
0.0
  0
LINE
  5
80
330
1F
100
AcDbEntity
  8
0
  6
Continuous
 62
     7
370
    35
100
AcDbLine
 10
60.0
 20
287.0
 30
0.0
 11
60.0
 21
292.0
 31
0.0
  0
LINE
  5
81
330
1F
100
AcDbEntity
  8
0
  6
Continuous
 62
     7
370
    35
100
AcDbLine
 10
60.0
 20
10.0
 30
0.0
 11
60.0
 21
5.0
 31
0.0
  0
LINE
  5
82
330
1F
100
AcDbEntity
  8
0
  6
Continuous
 62
     7
370
    35
100
AcDbLine
 10
110.0
 20
287.0
 30
0.0
 11
110.0
 21
292.0
 31
0.0
  0
LINE
  5
83
330
1F
100
AcDbEntity
  8
0
  6
Continuous
 62
     7
370
    35
100
AcDbLine
 10
110.0
 20
10.0
 30
0.0
 11
110.0
 21
5.0
 31
0.0
  0
LINE
  5
84
330
1F
100
AcDbEntity
  8
0
  6
Continuous
 62
     7
370
    35
100
AcDbLine
 10
160.0
 20
287.0
 30
0.0
 11
160.0
 21
292.0
 31
0.0
  0
LINE
  5
85
330
1F
100
AcDbEntity
  8
0
  6
Continuous
 62
     7
370
    35
100
AcDbLine
 10
160.0
 20
10.0
 30
0.0
 11
160.0
 21
5.0
 31
0.0
  0
LINE
  5
86
330
1F
100
AcDbEntity
  8
DIMENSIONS
100
AcDbLine
 10
199.5
 20
49.5
 30
0.0
 11
135.5
 21
49.5
 31
0.0
  0
LINE
  5
87
330
1F
100
AcDbEntity
  8
DIMENSIONS
100
AcDbLine
 10
135.5
 20
49.5
 30
0.0
 11
135.5
 21
64.5
 31
0.0
  0
LINE
  5
88
330
1F
100
AcDbEntity
  8
DIMENSIONS
100
AcDbLine
 10
135.5
 20
64.5
 30
0.0
 11
199.5
 21
64.5
 31
0.0
  0
LINE
  5
89
330
1F
100
AcDbEntity
  8
DIMENSIONS
100
AcDbLine
 10
199.5
 20
64.5
 30
0.0
 11
199.5
 21
49.5
 31
0.0
  0
LINE
  5
8A
330
1F
100
AcDbEntity
  8
DIMENSIONS
 62
     1
100
AcDbLine
 10
199.5
 20
49.5
 30
0.0
 11
135.5
 21
49.5
 31
0.0
  0
LINE
  5
8B
330
1F
100
AcDbEntity
  8
DIMENSIONS
 62
     1
100
AcDbLine
 10
135.5
 20
49.5
 30
0.0
 11
135.5
 21
64.5
 31
0.0
  0
LINE
  5
8C
330
1F
100
AcDbEntity
  8
DIMENSIONS
 62
     1
100
AcDbLine
 10
135.5
 20
64.5
 30
0.0
 11
199.5
 21
64.5
 31
0.0
  0
LINE
  5
8D
330
1F
100
AcDbEntity
  8
DIMENSIONS
 62
     1
100
AcDbLine
 10
199.5
 20
64.5
 30
0.0
 11
199.5
 21
49.5
 31
0.0
  0
LINE
  5
8E
330
1F
100
AcDbEntity
  8
DIMENSIONS
 62
     6
100
AcDbLine
 10
199.4
 20
39.4
 30
0.0
 11
122.9840899969
 21
39.4
 31
0.0
  0
LINE
  5
8F
330
1F
100
AcDbEntity
  8
DIMENSIONS
 62
     6
100
AcDbLine
 10
122.9840899969
 20
39.4
 30
0.0
 11
122.9840899969
 21
10.6
 31
0.0
  0
LINE
  5
90
330
1F
100
AcDbEntity
  8
DIMENSIONS
 62
     6
100
AcDbLine
 10
122.9840899969
 20
10.6
 30
0.0
 11
199.4
 21
10.6
 31
0.0
  0
LINE
  5
91
330
1F
100
AcDbEntity
  8
DIMENSIONS
 62
     6
100
AcDbLine
 10
199.4
 20
10.6
 30
0.0
 11
199.4
 21
39.4
 31
0.0
  0
LINE
  5
92
330
1F
100
AcDbEntity
  8
DIMENSIONS
 62
     6
100
AcDbLine
 10
199.6
 20
39.6
 30
0.0
 11
122.7840899969
 21
39.6
 31
0.0
  0
LINE
  5
93
330
1F
100
AcDbEntity
  8
DIMENSIONS
 62
     6
100
AcDbLine
 10
122.7840899969
 20
39.6
 30
0.0
 11
122.7840899969
 21
10.4
 31
0.0
  0
LINE
  5
94
330
1F
100
AcDbEntity
  8
DIMENSIONS
 62
     6
100
AcDbLine
 10
122.7840899969
 20
10.4
 30
0.0
 11
199.6
 21
10.4
 31
0.0
  0
LINE
  5
95
330
1F
100
AcDbEntity
  8
DIMENSIONS
 62
     6
100
AcDbLine
 10
199.6
 20
10.4
 30
0.0
 11
199.6
 21
39.6
 31
0.0
  0
LINE
  5
96
330
1F
100
AcDbEntity
  8
DIMENSIONS
 62
     6
100
AcDbLine
 10
199.8
 20
39.8
 30
0.0
 11
122.5840899969
 21
39.8
 31
0.0
  0
LINE
  5
97
330
1F
100
AcDbEntity
  8
DIMENSIONS
 62
     6
100
AcDbLine
 10
122.5840899969
 20
39.8
 30
0.0
 11
122.5840899969
 21
10.2
 31
0.0
  0
LINE
  5
98
330
1F
100
AcDbEntity
  8
DIMENSIONS
 62
     6
100
AcDbLine
 10
122.5840899969
 20
10.2
 30
0.0
 11
199.8
 21
10.2
 31
0.0
  0
LINE
  5
99
330
1F
100
AcDbEntity
  8
DIMENSIONS
 62
     6
100
AcDbLine
 10
199.8
 20
10.2
 30
0.0
 11
199.8
 21
39.8
 31
0.0
  0
LINE
  5
9A
330
1F
100
AcDbEntity
  8
DIMENSIONS
 62
     6
100
AcDbLine
 10
200.0
 20
40.0
 30
0.0
 11
122.3840899969
 21
40.0
 31
0.0
  0
LINE
  5
9B
330
1F
100
AcDbEntity
  8
DIMENSIONS
 62
     6
100
AcDbLine
 10
19.9247561269
 20
10.0
 30
0.0
 11
200.0
 21
10.0
 31
0.0
  0
LINE
  5
9C
330
1F
100
AcDbEntity
  8
DIMENSIONS
 62
     1
100
AcDbLine
 10
200.0
 20
65.0
 30
0.0
 11
98.0
 21
65.0
 31
0.0
  0
LINE
  5
9D
330
1F
100
AcDbEntity
  8
DIMENSIONS
 62
     1
100
AcDbLine
 10
20.0
 20
49.0
 30
0.0
 11
200.0
 21
49.0
 31
0.0
  0
LINE
  5
9E
330
1F
100
AcDbEntity
  8
DIMENSIONS
 62
     3
100
AcDbLine
 10
98.0
 20
57.0
 30
0.0
 11
20.0
 21
57.0
 31
0.0
  0
LINE
  5
9F
330
1F
100
AcDbEntity
  8
DIMENSIONS
 62
     1
100
AcDbLine
 10
122.3840899969
 20
20.0
 30
0.0
 11
20.0
 21
20.0
 31
0.0
  0
LINE
  5
A0
330
1F
100
AcDbEntity
  8
DIMENSIONS
 62
     1
100
AcDbLine
 10
122.3840899969
 20
40.0
 30
0.0
 11
20.0
 21
40.0
 31
0.0
  0
LINE
  5
A1
330
1F
100
AcDbEntity
  8
DIMENSIONS
 62
     3
100
AcDbLine
 10
20.0
 20
53.0
 30
0.0
 11
98.0
 21
53.0
 31
0.0
  0
LINE
  5
A2
330
1F
100
AcDbEntity
  8
DIMENSIONS
 62
     3
100
AcDbLine
 10
20.0
 20
61.0
 30
0.0
 11
98.0
 21
61.0
 31
0.0
  0
LINE
  5
A3
330
1F
100
AcDbEntity
  8
DIMENSIONS
 62
     3
100
AcDbLine
 10
98.0
 20
65.0
 30
0.0
 11
19.9247561269
 21
65.0
 31
0.0
  0
LINE
  5
A4
330
1F
100
AcDbEntity
  8
DIMENSIONS
 62
     6
100
AcDbLine
 10
19.9247561269
 20
65.0
 30
0.0
 11
19.9247561269
 21
10.0
 31
0.0
  0
LINE
  5
A5
330
1F
100
AcDbEntity
  8
DIMENSIONS
  6
CENTERX2
 62
     3
100
AcDbLine
 10
77.9464559643
 20
44.5
 30
0.0
 11
96.2011144836
 21
44.5
 31
0.0
  0
LINE
  5
A6
330
1F
100
AcDbEntity
  8
DIMENSIONS
 62
     7
100
AcDbLine
 10
79.2436794306
 20
42.5
 30
0.0
 11
86.2436794306
 21
41.25
 31
0.0
  0
LINE
  5
A7
330
1F
100
AcDbEntity
  8
DIMENSIONS
 62
     7
100
AcDbLine
 10
86.2436794306
 20
47.75
 30
0.0
 11
79.2436794306
 21
46.5
 31
0.0
  0
LINE
  5
A8
330
1F
100
AcDbEntity
  8
DIMENSIONS
 62
     1
100
AcDbLine
 10
72.7915398845
 20
20.0
 30
0.0
 11
72.7915398845
 21
10.0
 31
0.0
  0
LINE
  5
A9
330
1F
100
AcDbEntity
  8
DIMENSIONS
 62
     3
100
AcDbLine
 10
50.9664612172
 20
49.0
 30
0.0
 11
50.9664612172
 21
65.0
 31
0.0
  0
LINE
  5
AA
330
1F
100
AcDbEntity
  8
DIMENSIONS
 62
     3
100
AcDbLine
 10
41.4978231775
 20
49.0
 30
0.0
 11
41.4978231775
 21
65.0
 31
0.0
  0
LINE
  5
AB
330
1F
100
AcDbEntity
  8
DIMENSIONS
 62
     3
100
AcDbLine
 10
32.1924375179
 20
49.0
 30
0.0
 11
32.1924375179
 21
65.0
 31
0.0
  0
LINE
  5
AC
330
1F
100
AcDbEntity
  8
DIMENSIONS
 62
     1
100
AcDbLine
 10
36.1104946377
 20
49.0
 30
0.0
 11
36.1104946377
 21
40.0
 31
0.0
  0
LINE
  5
AD
330
1F
100
AcDbEntity
  8
DIMENSIONS
 62
     1
100
AcDbLine
 10
50.7306942372
 20
49.0
 30
0.0
 11
50.7306942372
 21
40.0
 31
0.0
  0
LINE
  5
AE
330
1F
100
AcDbEntity
  8
DIMENSIONS
 62
     7
100
AcDbLine
 10
79.2436794306
 20
46.5
 30
0.0
 11
79.2436794306
 21
42.5
 31
0.0
  0
LINE
  5
AF
330
1F
100
AcDbEntity
  8
DIMENSIONS
 62
     1
100
AcDbLine
 10
75.6203361042
 20
49.0
 30
0.0
 11
75.6203361042
 21
40.0
 31
0.0
  0
LINE
  5
B0
330
1F
100
AcDbEntity
  8
DIMENSIONS
 62
     6
100
AcDbLine
 10
122.3840899969
 20
40.0
 30
0.0
 11
122.3840899969
 21
10.0
 31
0.0
  0
LINE
  5
B1
330
1F
100
AcDbEntity
  8
DIMENSIONS
 62
     1
100
AcDbLine
 10
98.0
 20
20.0
 30
0.0
 11
98.0
 21
10.0
 31
0.0
  0
LINE
  5
B2
330
1F
100
AcDbEntity
  8
DIMENSIONS
 62
     1
100
AcDbLine
 10
98.0
 20
49.0
 30
0.0
 11
98.0
 21
65.0
 31
0.0
  0
LINE
  5
B3
330
1F
100
AcDbEntity
  8
DIMENSIONS
 62
     1
100
AcDbLine
 10
98.0
 20
49.0
 30
0.0
 11
98.0
 21
40.0
 31
0.0
  0
LINE
  5
B4
330
1F
100
AcDbEntity
  8
DIMENSIONS
  6
CENTERX2
 62
     3
100
AcDbLine
 10
91.9339320285
 20
48.3479779213
 30
0.0
 11
91.9339320285
 21
40.5133183928
 31
0.0
  0
LINE
  5
B5
330
1F
100
AcDbEntity
  8
DIMENSIONS
 62
     7
100
AcDbLine
 10
86.2436794306
 20
41.25
 30
0.0
 11
86.2436794306
 21
47.75
 31
0.0
  0
LINE
  5
B6
330
1F
100
AcDbEntity
  8
DIMENSIONS
 62
     1
100
AcDbLine
 10
135.0
 20
49.0
 30
0.0
 11
135.0
 21
65.0
 31
0.0
  0
LINE
  5
B7
330
1F
100
AcDbEntity
  8
DIMENSIONS
 62
     6
100
AcDbLine
 10
200.0
 20
10.0
 30
0.0
 11
200.0
 21
65.0
 31
0.0
  0
LINE
  5
B8
330
1F
100
AcDbEntity
  8
0
  6
Continuous
 62
     7
370
    70
100
AcDbLine
 10
20.0
 20
10.0
 30
0.0
 11
20.0
 21
287.0
 31
0.0
  0
LINE
  5
B9
330
1F
100
AcDbEntity
  8
0
  6
Continuous
 62
     7
370
    70
100
AcDbLine
 10
20.0
 20
287.0
 30
0.0
 11
200.0
 21
287.0
 31
0.0
  0
LINE
  5
BA
330
1F
100
AcDbEntity
  8
0
  6
Continuous
 62
     7
370
    70
100
AcDbLine
 10
200.0
 20
287.0
 30
0.0
 11
200.0
 21
10.0
 31
0.0
  0
LINE
  5
BB
330
1F
100
AcDbEntity
  8
0
  6
Continuous
 62
     7
370
    70
100
AcDbLine
 10
200.0
 20
10.0
 30
0.0
 11
20.0
 21
10.0
 31
0.0
  0
LINE
  5
BC
330
1F
100
AcDbEntity
  8
0
  6
Continuous
 62
     7
370
    70
100
AcDbLine
 10
15.0
 20
5.0
 30
0.0
 11
15.0
 21
292.0
 31
0.0
  0
LINE
  5
BD
330
1F
100
AcDbEntity
  8
0
  6
Continuous
 62
     7
370
    70
100
AcDbLine
 10
15.0
 20
292.0
 30
0.0
 11
205.0
 21
292.0
 31
0.0
  0
LINE
  5
BE
330
1F
100
AcDbEntity
  8
0
  6
Continuous
 62
     7
370
    70
100
AcDbLine
 10
205.0
 20
292.0
 30
0.0
 11
205.0
 21
5.0
 31
0.0
  0
LINE
  5
BF
330
1F
100
AcDbEntity
  8
0
  6
Continuous
 62
     7
370
    70
100
AcDbLine
 10
205.0
 20
5.0
 30
0.0
 11
15.0
 21
5.0
 31
0.0
  0
LINE
  5
C0
330
1F
100
AcDbEntity
  8
0
  6
Continuous
 62
     7
370
    35
100
AcDbLine
 10
14.999
 20
148.5
 30
0.0
 11
25.001
 21
148.5
 31
0.0
  0
LINE
  5
C1
330
1F
100
AcDbEntity
  8
0
  6
Continuous
 62
     7
370
    35
100
AcDbLine
 10
110.0
 20
292.001
 30
0.0
 11
110.0
 21
281.999
 31
0.0
  0
LINE
  5
C2
330
1F
100
AcDbEntity
  8
0
  6
Continuous
 62
     7
370
    35
100
AcDbLine
 10
205.001
 20
148.5
 30
0.0
 11
194.999
 21
148.5
 31
0.0
  0
LINE
  5
C3
330
1F
100
AcDbEntity
  8
0
  6
Continuous
 62
     7
370
    35
100
AcDbLine
 10
110.0
 20
4.999
 30
0.0
 11
110.0
 21
15.001
 31
0.0
  0
CIRCLE
  5
C4
330
1F
100
AcDbEntity
  8
DIMENSIONS
 62
     7
100
AcDbCircle
 10
91.9339320285
 20
44.5
 30
0.0
 40
2.0
  0
CIRCLE
  5
C5
330
1F
100
AcDbEntity
  8
DIMENSIONS
 62
     7
100
AcDbCircle
 10
91.9339320285
 20
44.5
 30
0.0
 40
3.249999999999972
  0
INSERT
  5
CC
330
1F
100
AcDbEntity
  8
0
  6
Continuous
 62
     7
370
     0
100
AcDbBlockReference
  2
SW_NOTE_0
 10
161.5665030756
 20
78.0230348081
 30
0.0
  0
MTEXT
  5
CE
330
1F
100
AcDbEntity
  8
DIMENSIONS
100
AcDbMText
 10
24.6027253142
 20
28.0531945892
 30
0.0
 40
4.7625
 41
0.0
 71
     1
 72
     1
  1
Matière: Z155CDV12.1   58/60Hrc
  7
SLDTEXTSTYLE1
 73
     1
 44
1.0
  0
MTEXT
  5
CF
330
1F
100
AcDbEntity
  8
DIMENSIONS
100
AcDbMText
 10
23.9105877188
 20
36.2514886021
 30
0.0
 40
3.7041666667
 41
0.0
 71
     1
 72
     1
  1
0100770102-OP20A-MATRICE DE CAMB-D
  7
SLDTEXTSTYLE1
 73
     1
 44
1.0
  0
MTEXT
  5
D1
330
1F
100
AcDbEntity
  8
DIMENSIONS
100
AcDbMText
 10
159.5707948969
 20
33.5948758245
 30
0.0
 40
4.0
 41
0.0
 71
     2
 72
     1
  1
BEOS
  7
SLDTEXTSTYLE2
 73
     1
 44
1.0
  0
MTEXT
  5
D3
330
1F
100
AcDbEntity
  8
DIMENSIONS
100
AcDbMText
 10
182.3724789768
 20
14.0971965899
 30
0.0
 40
2.0
 41
0.0
 71
     2
 72
     1
  1
Email : beos76@orange.fr
  7
SLDTEXTSTYLE3
 73
     1
 44
1.0
  0
MTEXT
  5
D4
330
1F
100
AcDbEntity
  8
DIMENSIONS
100
AcDbMText
 10
136.0
 20
59.1258943396
 30
0.0
 40
5.0
 41
0.0
 71
     1
 72
     1
  1
Cde.
  7
SLDTEXTSTYLE2
 73
     1
 44
1.0
  0
MTEXT
  5
D6
330
1F
100
AcDbEntity
  8
DIMENSIONS
100
AcDbMText
 10
99.2208712864
 20
45.598408559
 30
0.0
 40
1.7276751971
 41
0.0
 71
     1
 72
     1
  1
Dessiné par:
  7
SLDTEXTSTYLE4
 73
     1
 44
1.0
  0
MTEXT
  5
D7
330
1F
100
AcDbEntity
  8
DIMENSIONS
100
AcDbMText
 10
116.4195026798
 20
58.7007155648
 30
0.0
 40
4.0
 41
0.0
 71
     2
 72
     1
  1
DEFI-Group
  7
SLDTEXTSTYLE2
 73
     1
 44
1.0
  0
MTEXT
  5
D9
330
1F
100
AcDbEntity
  8
DIMENSIONS
100
AcDbMText
 10
117.3551528431
 20
45.4199710251
 30
0.0
 40
2.5
 41
0.0
 71
     1
 72
     1
  1
jc-seraffin
  7
SLDTEXTSTYLE5
 73
     1
 44
1.0
  0
MTEXT
  5
DA
330
1F
100
AcDbEntity
  8
DIMENSIONS
100
AcDbMText
 10
134.3602706231
 20
14.4285775677
 30
0.0
 40
2.0
 41
0.0
 71
     2
 72
     1
  1
Tel. : 06-79-99-54-55
  7
SLDTEXTSTYLE3
 73
     1
 44
1.0
  0
MTEXT
  5
DB
330
1F
100
AcDbEntity
  8
DIMENSIONS
100
AcDbMText
 10
86.1939384288
 20
16.9513842137
 30
0.0
 40
4.0
 41
0.0
 71
     1
 72
     1
  1
OR
  7
SLDTEXTSTYLE5
 73
     1
 44
1.0
  0
MTEXT
  5
DD
330
1F
100
AcDbEntity
  8
DIMENSIONS
100
AcDbMText
 10
99.0341104783
 20
15.598408559
 30
0.0
 40
1.7276751971
 41
0.0
 71
     1
 72
     1
  1
PL:
  7
SLDTEXTSTYLE6
 73
     1
 44
1.0
  0
MTEXT
  5
DF
330
1F
100
AcDbEntity
  8
DIMENSIONS
100
AcDbMText
 10
106.6508932625
 20
17.1730450679
 30
0.0
 40
4.0
 41
0.0
 71
     1
 72
     1
  1
1-1
  7
SLDTEXTSTYLE7
 73
     1
 44
1.0
  0
MTEXT
  5
E0
330
1F
100
AcDbEntity
  8
DIMENSIONS
100
AcDbMText
 10
51.9515655236
 20
45.598408559
 30
0.0
 40
1.7276751971
 41
0.0
 71
     1
 72
     1
  1
Tol Gén:
  7
SLDTEXTSTYLE4
 73
     1
 44
1.0
  0
MTEXT
  5
E2
330
1F
100
AcDbEntity
  8
DIMENSIONS
100
AcDbMText
 10
57.4891856546
 20
51.3475100145
 30
0.0
 40
1.5670523329
 41
0.0
 71
     1
 72
     1
  1
Modification
  7
SLDTEXTSTYLE8
 73
     1
 44
1.0
  0
MTEXT
  5
E4
330
1F
100
AcDbEntity
  8
DIMENSIONS
100
AcDbMText
 10
37.7877445989
 20
45.5599112376
 30
0.0
 40
1.8140589569
 41
0.0
 71
     1
 72
     1
  1
ECH:
  7
SLDTEXTSTYLE9
 73
     1
 44
1.0
  0
MTEXT
  5
E6
330
1F
100
AcDbEntity
  8
DIMENSIONS
100
AcDbMText
 10
34.0673608101
 20
51.2833428351
 30
0.0
 40
1.4924307933
 41
0.0
 71
     1
 72
     1
  1
Date
  7
SLDTEXTSTYLE10
 73
     1
 44
1.0
  0
MTEXT
  5
E8
330
1F
100
AcDbEntity
  8
DIMENSIONS
100
AcDbMText
 10
44.1712488353
 20
51.2833428351
 30
0.0
 40
1.4924307933
 41
0.0
 71
     1
 72
     1
  1
Ind
  7
SLDTEXTSTYLE11
 73
     1
 44
1.0
  0
MTEXT
  5
E9
330
1F
100
AcDbEntity
  8
DIMENSIONS
100
AcDbMText
 10
20.2860770275
 20
43.3681126945
 30
0.0
 40
2.38125
 41
0.0
 71
     1
 72
     1
  1
03/04/2018
  7
SLDTEXTSTYLE1
 73
     1
 44
1.0
  0
MTEXT
  5
EA
330
1F
100
AcDbEntity
  8
DIMENSIONS
100
AcDbMText
 10
45.2627479882
 20
44.7637159811
 30
0.0
 40
2.5
 41
0.0
 71
     1
 72
     1
  1
1:1
  7
SLDTEXTSTYLE1
 73
     1
 44
1.0
  0
MTEXT
  5
EB
330
1F
100
AcDbEntity
  8
DIMENSIONS
100
AcDbMText
 10
73.8256503628
 20
15.598408559
 30
0.0
 40
1.7276751971
 41
0.0
 71
     1
 72
     1
  1
Ind:
  7
SLDTEXTSTYLE6
 73
     1
 44
1.0
  0
MTEXT
  5
EC
330
1F
100
AcDbEntity
  8
DIMENSIONS
100
AcDbMText
 10
29.8386266785
 20
16.9513842137
 30
0.0
 40
4.0
 41
0.0
 71
     1
 72
     1
  1
BRACKETS
  7
SLDTEXTSTYLE5
 73
     1
 44
1.0
  0
MTEXT
  5
ED
330
1F
100
AcDbEntity
  8
DIMENSIONS
100
AcDbMText
 10
24.1564662763
 20
46.915259643
 30
0.0
 40
1.7276751971
 41
0.0
 71
     1
 72
     1
  1
DATE:
  7
SLDTEXTSTYLE6
 73
     1
 44
1.0
  0
MTEXT
  5
EF
330
1F
100
AcDbEntity
  8
DIMENSIONS
100
AcDbMText
 10
23.0411596113
 20
51.3475100145
 30
0.0
 40
1.5670523329
 41
0.0
 71
     1
 72
     1
  1
Visa
  7
SLDTEXTSTYLE12
 73
     1
 44
1.0
  0
MTEXT
  5
F0
330
1F
100
AcDbEntity
  8
DIMENSIONS
100
AcDbMText
 10
22.1680685928
 20
15.598408559
 30
0.0
 40
1.7276751971
 41
0.0
 71
     1
 72
     1
  1
Ref:
  7
SLDTEXTSTYLE6
 73
     1
 44
1.0
  0
MTEXT
  5
F2
330
1F
100
AcDbEntity
  8
DIMENSIONS
100
AcDbMText
 10
160.9092356873
 20
24.448350257
 30
0.0
 40
2.5
 41
0.0
 71
     2
 72
     1
  1
3 rue de NEUFCHATEL
  7
SLDTEXTSTYLE13
 73
     1
 44
1.0
  0
MTEXT
  5
F3
330
1F
100
AcDbEntity
  8
DIMENSIONS
100
AcDbMText
 10
160.9025425888
 20
19.6232446981
 30
0.0
 40
2.5
 41
0.0
 71
     2
 72
     1
  1
76510 St. NICOLAS D'ALIERMONT
  7
SLDTEXTSTYLE13
 73
     1
 44
1.0
  0
MTEXT
  5
F4
330
1F
100
AcDbEntity
  8
DIMENSIONS
100
AcDbMText
 10
155.472561952
 20
59.4398352874
 30
0.0
 40
5.2916666667
 41
0.0
 71
     1
 72
     1
  1
010077 01 02
  7
SLDTEXTSTYLE7
 73
     1
 44
1.0
  0
MTEXT
  5
F5
330
1F
100
AcDbEntity
  8
0
  6
Continuous
 62
     7
370
     0
100
AcDbMText
 10
17.3396881428
 20
31.81015409
 30
0.0
 40
3.96875
 41
0.0
 71
     2
 72
     1
  1
A
  7
SLDTEXTSTYLE0
 73
     1
 44
1.0
  0
MTEXT
  5
F6
330
1F
100
AcDbEntity
  8
0
  6
Continuous
 62
     7
370
     0
100
AcDbMText
 10
202.3396881428
 20
31.81015409
 30
0.0
 40
3.96875
 41
0.0
 71
     2
 72
     1
  1
A
  7
SLDTEXTSTYLE0
 73
     1
 44
1.0
  0
MTEXT
  5
F7
330
1F
100
AcDbEntity
  8
0
  6
Continuous
 62
     7
370
     0
100
AcDbMText
 10
17.4706018241
 20
76.06015409
 30
0.0
 40
3.96875
 41
0.0
 71
     2
 72
     1
  1
B
  7
SLDTEXTSTYLE0
 73
     1
 44
1.0
  0
MTEXT
  5
F8
330
1F
100
AcDbEntity
  8
0
  6
Continuous
 62
     7
370
     0
100
AcDbMText
 10
202.4706018241
 20
76.06015409
 30
0.0
 40
3.96875
 41
0.0
 71
     2
 72
     1
  1
B
  7
SLDTEXTSTYLE0
 73
     1
 44
1.0
  0
MTEXT
  5
F9
330
1F
100
AcDbEntity
  8
0
  6
Continuous
 62
     7
370
     0
100
AcDbMText
 10
17.458658902
 20
126.06015409
 30
0.0
 40
3.96875
 41
0.0
 71
     2
 72
     1
  1
C
  7
SLDTEXTSTYLE0
 73
     1
 44
1.0
  0
MTEXT
  5
FA
330
1F
100
AcDbEntity
  8
0
  6
Continuous
 62
     7
370
     0
100
AcDbMText
 10
202.458658902
 20
126.06015409
 30
0.0
 40
3.96875
 41
0.0
 71
     2
 72
     1
  1
C
  7
SLDTEXTSTYLE0
 73
     1
 44
1.0
  0
MTEXT
  5
FB
330
1F
100
AcDbEntity
  8
0
  6
Continuous
 62
     7
370
     0
100
AcDbMText
 10
17.4526872821
 20
176.06015409
 30
0.0
 40
3.96875
 41
0.0
 71
     2
 72
     1
  1
D
  7
SLDTEXTSTYLE0
 73
     1
 44
1.0
  0
MTEXT
  5
FC
330
1F
100
AcDbEntity
  8
0
  6
Continuous
 62
     7
370
     0
100
AcDbMText
 10
202.4526872821
 20
176.06015409
 30
0.0
 40
3.96875
 41
0.0
 71
     2
 72
     1
  1
D
  7
SLDTEXTSTYLE0
 73
     1
 44
1.0
  0
MTEXT
  5
FD
330
1F
100
AcDbEntity
  8
0
  6
Continuous
 62
     7
370
     0
100
AcDbMText
 10
17.5078089051
 20
226.06015409
 30
0.0
 40
3.96875
 41
0.0
 71
     2
 72
     1
  1
E
  7
SLDTEXTSTYLE0
 73
     1
 44
1.0
  0
MTEXT
  5
FE
330
1F
100
AcDbEntity
  8
0
  6
Continuous
 62
     7
370
     0
100
AcDbMText
 10
202.5078089051
 20
226.06015409
 30
0.0
 40
3.96875
 41
0.0
 71
     2
 72
     1
  1
E
  7
SLDTEXTSTYLE0
 73
     1
 44
1.0
  0
MTEXT
  5
FF
330
1F
100
AcDbEntity
  8
0
  6
Continuous
 62
     7
370
     0
100
AcDbMText
 10
17.4577402091
 20
270.31015409
 30
0.0
 40
3.96875
 41
0.0
 71
     2
 72
     1
  1
F
  7
SLDTEXTSTYLE0
 73
     1
 44
1.0
  0
MTEXT
  5
100
330
1F
100
AcDbEntity
  8
0
  6
Continuous
 62
     7
370
     0
100
AcDbMText
 10
202.4577402091
 20
270.31015409
 30
0.0
 40
3.96875
 41
0.0
 71
     2
 72
     1
  1
F
  7
SLDTEXTSTYLE0
 73
     1
 44
1.0
  0
MTEXT
  5
101
330
1F
100
AcDbEntity
  8
0
  6
Continuous
 62
     7
370
     0
100
AcDbMText
 10
39.9600369465
 20
10.06015409
 30
0.0
 40
3.96875
 41
0.0
 71
     2
 72
     1
  1
4
  7
SLDTEXTSTYLE0
 73
     1
 44
1.0
  0
MTEXT
  5
102
330
1F
100
AcDbEntity
  8
0
  6
Continuous
 62
     7
370
     0
100
AcDbMText
 10
39.9600369465
 20
292.06015409
 30
0.0
 40
3.96875
 41
0.0
 71
     2
 72
     1
  1
4
  7
SLDTEXTSTYLE0
 73
     1
 44
1.0
  0
MTEXT
  5
103
330
1F
100
AcDbEntity
  8
0
  6
Continuous
 62
     7
370
     0
100
AcDbMText
 10
84.9600369465
 20
10.06015409
 30
0.0
 40
3.96875
 41
0.0
 71
     2
 72
     1
  1
3
  7
SLDTEXTSTYLE0
 73
     1
 44
1.0
  0
MTEXT
  5
104
330
1F
100
AcDbEntity
  8
0
  6
Continuous
 62
     7
370
     0
100
AcDbMText
 10
84.9600369465
 20
292.06015409
 30
0.0
 40
3.96875
 41
0.0
 71
     2
 72
     1
  1
3
  7
SLDTEXTSTYLE0
 73
     1
 44
1.0
  0
MTEXT
  5
105
330
1F
100
AcDbEntity
  8
0
  6
Continuous
 62
     7
370
     0
100
AcDbMText
 10
134.9600369465
 20
10.06015409
 30
0.0
 40
3.96875
 41
0.0
 71
     2
 72
     1
  1
2
  7
SLDTEXTSTYLE0
 73
     1
 44
1.0
  0
MTEXT
  5
106
330
1F
100
AcDbEntity
  8
0
  6
Continuous
 62
     7
370
     0
100
AcDbMText
 10
134.9600369465
 20
292.06015409
 30
0.0
 40
3.96875
 41
0.0
 71
     2
 72
     1
  1
2
  7
SLDTEXTSTYLE0
 73
     1
 44
1.0
  0
MTEXT
  5
107
330
1F
100
AcDbEntity
  8
0
  6
Continuous
 62
     7
370
     0
100
AcDbMText
 10
179.9600369465
 20
10.06015409
 30
0.0
 40
3.96875
 41
0.0
 71
     2
 72
     1
  1
1
  7
SLDTEXTSTYLE0
 73
     1
 44
1.0
  0
MTEXT
  5
108
330
1F
100
AcDbEntity
  8
0
  6
Continuous
 62
     7
370
     0
100
AcDbMText
 10
179.9600369465
 20
292.06015409
 30
0.0
 40
3.96875
 41
0.0
 71
     2
 72
     1
  1
1
  7
SLDTEXTSTYLE0
 73
     1
 44
1.0
  0
LINE
  5
109
330
1F
100
AcDbEntity
  8
0
  6
Continuous
 62
     7
370
    25
100
AcDbLine
 10
102.5442298289
 20
263.2835452323
 30
0.0
 11
102.5442298289
 21
207.2835452323
 31
0.0
  0
LINE
  5
10A
330
1F
100
AcDbEntity
  8
0
  6
Continuous
 62
     7
370
    25
100
AcDbLine
 10
70.5442298289
 20
207.2835452323
 30
0.0
 11
102.5442298289
 21
207.2835452323
 31
0.0
  0
LINE
  5
10B
330
1F
100
AcDbEntity
  8
0
  6
Continuous
 62
     7
370
    25
100
AcDbLine
 10
77.0442298291
 20
257.4835452323
 30
0.0
 11
77.0442298291
 21
257.2835452323
 31
0.0
  0
LINE
  5
10C
330
1F
100
AcDbEntity
  8
0
  6
Continuous
 62
     7
370
    25
100
AcDbLine
 10
77.0442298291
 20
257.4835452323
 30
0.0
 11
78.5442298291
 21
257.4835452323
 31
0.0
  0
LINE
  5
10D
330
1F
100
AcDbEntity
  8
0
  6
Continuous
 62
     7
370
    25
100
AcDbLine
 10
78.5442298291
 20
257.4835452323
 30
0.0
 11
78.5442298291
 21
257.2835452323
 31
0.0
  0
ARC
  5
10E
330
1F
100
AcDbEntity
  8
0
  6
Continuous
 62
     7
370
    25
100
AcDbCircle
 10
78.5442298291
 20
255.2835452323
 30
0.0
 40
2.0
100
AcDbArc
 50
78.4652577252
 51
90.0
  0
LINE
  5
10F
330
1F
100
AcDbEntity
  8
0
  6
Continuous
 62
     7
370
    25
100
AcDbLine
 10
78.9441540127
 20
257.2431525009
 30
0.0
 11
98.1443056452
 21
253.3247117551
 31
0.0
  0
ARC
  5
110
330
1F
100
AcDbEntity
  8
0
  6
Continuous
 62
     7
370
    25
100
AcDbCircle
 10
98.5442298289
 20
255.2843190238
 30
0.0
 40
2.0
100
AcDbArc
 50
258.4652577252
 51
0.0
  0
LINE
  5
111
330
1F
100
AcDbEntity
  8
0
  6
Continuous
 62
     7
370
    25
100
AcDbLine
 10
100.5442298289
 20
255.2843190238
 30
0.0
 11
100.5442298289
 21
262.2835452323
 31
0.0
  0
ARC
  5
112
330
1F
100
AcDbEntity
  8
0
  6
Continuous
 62
     7
370
    25
100
AcDbCircle
 10
101.5442298289
 20
262.2835452323
 30
0.0
 40
1.0
100
AcDbArc
 50
90.0
 51
180.0
  0
LINE
  5
113
330
1F
100
AcDbEntity
  8
0
  6
Continuous
 62
     7
370
    25
100
AcDbLine
 10
101.5442298289
 20
263.2835452323
 30
0.0
 11
102.5442298289
 21
263.2835452323
 31
0.0
  0
LINE
  5
114
330
1F
100
AcDbEntity
  8
0
  6
Continuous
 62
     7
370
    25
100
AcDbLine
 10
70.5442298289
 20
257.2835452323
 30
0.0
 11
70.5442298289
 21
207.2835452323
 31
0.0
  0
LINE
  5
115
330
1F
100
AcDbEntity
  8
0
  6
Continuous
 62
     7
370
    25
100
AcDbLine
 10
70.5442298289
 20
257.2835452323
 30
0.0
 11
77.0442298291
 21
257.2835452323
 31
0.0
  0
LINE
  5
116
330
1F
100
AcDbEntity
  8
0
  6
Continuous
 62
     7
370
    25
100
AcDbLine
 10
102.5442298289
 20
263.2835452323
 30
0.0
 11
112.5442298289
 21
263.2835452323
 31
0.0
  0
LINE
  5
117
330
1F
100
AcDbEntity
  8
0
  6
Continuous
 62
     7
370
    25
100
AcDbLine
 10
112.5442298289
 20
263.2835452323
 30
0.0
 11
112.5442298289
 21
207.2835452323
 31
0.0
  0
LINE
  5
118
330
1F
100
AcDbEntity
  8
0
  6
Continuous
 62
     7
370
    25
100
AcDbLine
 10
102.5442298289
 20
207.2835452323
 30
0.0
 11
112.5442298289
 21
207.2835452323
 31
0.0
  0
LINE
  5
119
330
1F
100
AcDbEntity
  8
0
  6
HIDDEN
 62
     7
370
    18
100
AcDbLine
 10
95.9442298289
 20
229.5335452323
 30
0.0
 11
89.1442298289
 21
229.5335452323
 31
0.0
  0
LINE
  5
11A
330
1F
100
AcDbEntity
  8
0
  6
HIDDEN
 62
     7
370
    18
100
AcDbLine
 10
95.9442298289
 20
229.5335452323
 30
0.0
 11
92.5442298289
 21
231.576471337
 31
0.0
  0
LINE
  5
11B
330
1F
100
AcDbEntity
  8
0
  6
HIDDEN
 62
     7
370
    18
100
AcDbLine
 10
92.5442298289
 20
231.576471337
 30
0.0
 11
89.1442298289
 21
229.5335452323
 31
0.0
  0
LINE
  5
11C
330
1F
100
AcDbEntity
  8
0
  6
HIDDEN
 62
     7
370
    18
100
AcDbLine
 10
95.9442298289
 20
207.2835452323
 30
0.0
 11
95.9442298289
 21
229.5335452323
 31
0.0
  0
LINE
  5
11D
330
1F
100
AcDbEntity
  8
0
  6
HIDDEN
 62
     7
370
    18
100
AcDbLine
 10
89.1442298289
 20
229.5335452323
 30
0.0
 11
89.1442298289
 21
207.2835452323
 31
0.0
  0
DIMENSION
  5
11E
330
1F
100
AcDbEntity
  8
0
  6
Continuous
 62
     7
370
    18
100
AcDbDimension
  2
_D
 10
98.5442298289
 20
255.2843190238
 30
0.0
 11
117.4046915108
 21
244.3952421682
 31
0.0
 70
   164
  1
<>
 71
     1
 42
-1.0
  3
SLDDIMSTYLE0
100
AcDbRadialDimension
 15
100.2762806364
 25
254.2843190238
 35
0.0
 40
0.0
  0
DIMENSION
  5
127
330
1F
100
AcDbEntity
  8
0
  6
Continuous
 62
     7
370
    18
100
AcDbDimension
  2
_D_1
 10
128.5442298289
 20
207.2835452323
 30
0.0
 11
128.5442298289
 21
235.1671305537
 31
0.0
 70
   160
  1
<>
 71
     2
 42
-1.0
  3
SLDDIMSTYLE1
100
AcDbAlignedDimension
 13
112.5442298289
 23
263.2835452323
 33
0.0
 14
112.5442298289
 24
207.2835452323
 34
0.0
 50
90.0
100
AcDbRotatedDimension
  0
DIMENSION
  5
132
330
1F
100
AcDbEntity
  8
0
  6
Continuous
 62
     7
370
    18
100
AcDbDimension
  2
_D_2
 10
120.5680730489
 20
223.2835452323
 30
0.0
 11
120.5680730489
 21
215.8340512949
 31
0.0
 70
   160
  1
<>
 71
     2
 42
-1.0
  3
SLDDIMSTYLE2
100
AcDbAlignedDimension
 13
88.5442298289
 23
207.2835452323
 33
0.0
 14
88.5442298289
 24
223.2835452323
 34
0.0
 50
90.0
100
AcDbRotatedDimension
  0
DIMENSION
  5
13F
330
1F
100
AcDbEntity
  8
0
  6
Continuous
 62
     7
370
    18
100
AcDbDimension
  2
_D_3
 10
88.5442298289
 20
197.2835452323
 30
0.0
 11
102.7760363396
 21
197.2835452323
 31
0.0
 70
   160
  1
M8
 71
     2
 42
-1.0
  3
SLDDIMSTYLE1
100
AcDbAlignedDimension
 13
96.5442298289
 23
223.2835452323
 33
0.0
 14
88.5442298289
 24
223.2835452323
 34
0.0
100
AcDbRotatedDimension
  0
DIMENSION
  5
14A
330
1F
100
AcDbEntity
  8
0
  6
Continuous
 62
     7
370
    18
100
AcDbDimension
  2
_D_4
 10
57.8056128461
 20
207.2835452323
 30
0.0
 11
57.8056128461
 21
231.2444767911
 31
0.0
 70
   160
  1
<>
 71
     2
 42
-1.0
  3
SLDDIMSTYLE1
100
AcDbAlignedDimension
 13
70.5442298289
 23
257.2835452323
 33
0.0
 14
70.5442298289
 24
207.2835452323
 34
0.0
 50
90.0
100
AcDbRotatedDimension
  0
DIMENSION
  5
154
330
1F
100
AcDbEntity
  8
0
  6
Continuous
 62
     7
370
    18
100
AcDbDimension
  2
_D_5
 10
51.2211583159
 20
207.2835452323
 30
0.0
 11
51.2211583159
 21
231.2444767911
 31
0.0
 70
   160
  1
<>
 71
     2
 42
-1.0
  3
SLDDIMSTYLE1
100
AcDbAlignedDimension
 13
77.0442298291
 23
257.4835452323
 33
0.0
 14
70.5442298289
 24
207.2835452323
 34
0.0
 50
90.0
100
AcDbRotatedDimension
  0
DIMENSION
  5
15E
330
1F
100
AcDbEntity
  8
0
  6
Continuous
 62
     7
370
    18
100
AcDbDimension
  2
_D_6
 10
78.9441540127
 20
257.2431525009
 30
0.0
 11
86.6630991952
 21
246.0634335036
 31
0.0
 70
   162
  1
<>
 71
     1
 42
-1.0
  3
SLDDIMSTYLE3
100
AcDb2LineAngularDimension
 13
77.0442298291
 23
257.2835452323
 33
0.0
 14
70.5442298289
 24
257.2835452323
 34
0.0
 15
98.1443056452
 25
253.3247117551
 35
0.0
 16
92.4087171219
 26
255.9036209295
 36
0.0
  0
DIMENSION
  5
16A
330
1F
100
AcDbEntity
  8
0
  6
Continuous
 62
     7
370
    18
100
AcDbDimension
  2
_D_7
 10
78.5442298291
 20
266.6015918678
 30
0.0
 11
72.2266998795
 21
266.6015918678
 31
0.0
 70
   160
  1
<>
 71
     2
 42
-1.0
  3
SLDDIMSTYLE2
100
AcDbAlignedDimension
 13
77.0442298291
 23
257.4835452323
 33
0.0
 14
78.5442298291
 24
257.4835452323
 34
0.0
100
AcDbRotatedDimension
  0
DIMENSION
  5
176
330
1F
100
AcDbEntity
  8
0
  6
Continuous
 62
     7
370
    18
100
AcDbDimension
  2
_D_8
 10
78.5442298291
 20
276.6655186375
 30
0.0
 11
63.8646973221
 21
276.6655186375
 31
0.0
 70
   160
  1
<>
 71
     2
 42
-1.0
  3
SLDDIMSTYLE1
100
AcDbAlignedDimension
 13
70.5442298289
 23
257.2835452323
 33
0.0
 14
78.5442298291
 24
255.2835452323
 34
0.0
100
AcDbRotatedDimension
  0
DIMENSION
  5
181
330
1F
100
AcDbEntity
  8
0
  6
Continuous
 62
     7
370
    18
100
AcDbDimension
  2
_D_9
 10
78.5442298291
 20
255.2835452323
 30
0.0
 11
86.6631091952
 21
278.2981780591
 31
0.0
 70
   164
  1
<>
 71
     1
 42
-1.0
  3
SLDDIMSTYLE0
100
AcDbRadialDimension
 15
79.2095830297
 25
257.1696271813
 35
0.0
 40
0.0
  0
DIMENSION
  5
18A
330
1F
100
AcDbEntity
  8
0
  6
Continuous
 62
     7
370
    18
100
AcDbDimension
  2
_D_10
 10
101.5442298289
 20
262.2835452323
 30
0.0
 11
95.0297967625
 21
268.7979982986
 31
0.0
 70
   164
  1
<>
 71
     1
 42
-1.0
  3
SLDDIMSTYLE0
100
AcDbRadialDimension
 15
100.8371230477
 25
262.9906520135
 35
0.0
 40
0.0
  0
LINE
  5
192
330
1F
100
AcDbEntity
  8
0
  6
Continuous
 62
     7
370
    18
100
AcDbLine
 10
88.5442298289
 20
207.2835452323
 30
0.0
 11
88.5442298289
 21
223.2835452323
 31
0.0
  0
LINE
  5
193
330
1F
100
AcDbEntity
  8
0
  6
Continuous
 62
     7
370
    18
100
AcDbLine
 10
96.5442298289
 20
207.2835452323
 30
0.0
 11
96.5442298289
 21
223.2835452323
 31
0.0
  0
LINE
  5
194
330
1F
100
AcDbEntity
  8
0
  6
HIDDEN
 62
     7
370
    18
100
AcDbLine
 10
96.5442298289
 20
223.2835452323
 30
0.0
 11
88.5442298289
 21
223.2835452323
 31
0.0
  0
LINE
  5
195
330
1F
100
AcDbEntity
  8
0
  6
Continuous
 62
     7
370
    18
100
AcDbLine
 10
88.5442298289
 20
207.2835452323
 30
0.0
 11
88.5442298289
 21
223.2835452323
 31
0.0
  0
LINE
  5
196
330
1F
100
AcDbEntity
  8
0
  6
Continuous
 62
     7
370
    18
100
AcDbLine
 10
96.5442298289
 20
207.2835452323
 30
0.0
 11
96.5442298289
 21
223.2835452323
 31
0.0
  0
LINE
  5
197
330
1F
100
AcDbEntity
  8
0
  6
HIDDEN
 62
     7
370
    18
100
AcDbLine
 10
96.5442298289
 20
223.2835452323
 30
0.0
 11
88.5442298289
 21
223.2835452323
 31
0.0
  0
LINE
  5
198
330
1F
100
AcDbEntity
  8
0
  6
CENTERX2
 62
     7
370
    18
100
AcDbLine
 10
92.5442298289
 20
229.5335452323
 30
0.0
 11
92.5442298289
 21
233.576471337
 31
0.0
  0
LINE
  5
199
330
1F
100
AcDbEntity
  8
0
  6
CENTERX2
 62
     7
370
    18
100
AcDbLine
 10
92.5442298289
 20
229.5335452323
 30
0.0
 11
92.5442298289
 21
205.2835452323
 31
0.0
  0
LINE
  5
19A
330
1F
100
AcDbEntity
  8
0
  6
Continuous
 62
     7
370
    25
100
AcDbLine
 10
101.5442298289
 20
153.6206525466
 30
0.0
 11
101.5442298289
 21
103.6206525466
 31
0.0
  0
LINE
  5
19B
330
1F
100
AcDbEntity
  8
0
  6
Continuous
 62
     7
370
    25
100
AcDbLine
 10
112.5442298289
 20
113.6206525466
 30
0.0
 11
112.5442298289
 21
143.6206525466
 31
0.0
  0
LINE
  5
19C
330
1F
100
AcDbEntity
  8
0
  6
Continuous
 62
     7
370
    25
100
AcDbLine
 10
102.5442298289
 20
103.6206525466
 30
0.0
 11
112.5442298289
 21
113.6206525466
 31
0.0
  0
LINE
  5
19D
330
1F
100
AcDbEntity
  8
0
  6
Continuous
 62
     7
370
    25
100
AcDbLine
 10
101.5442298289
 20
103.6206525466
 30
0.0
 11
102.5442298289
 21
103.6206525466
 31
0.0
  0
LINE
  5
19E
330
1F
100
AcDbEntity
  8
0
  6
Continuous
 62
     7
370
    25
100
AcDbLine
 10
102.5442298289
 20
153.6206525466
 30
0.0
 11
101.5442298289
 21
153.6206525466
 31
0.0
  0
LINE
  5
19F
330
1F
100
AcDbEntity
  8
0
  6
Continuous
 62
     7
370
    25
100
AcDbLine
 10
112.5442298289
 20
143.6206525466
 30
0.0
 11
102.5442298289
 21
153.6206525466
 31
0.0
  0
LINE
  5
1A0
330
1F
100
AcDbEntity
  8
0
  6
Continuous
 62
     7
370
    25
100
AcDbLine
 10
100.5442298289
 20
103.6206525466
 30
0.0
 11
100.5442298289
 21
153.6206525466
 31
0.0
  0
LINE
  5
1A1
330
1F
100
AcDbEntity
  8
0
  6
Continuous
 62
     7
370
    25
100
AcDbLine
 10
101.5442298289
 20
103.6206525466
 30
0.0
 11
100.5442298289
 21
103.6206525466
 31
0.0
  0
LINE
  5
1A2
330
1F
100
AcDbEntity
  8
0
  6
Continuous
 62
     7
370
    25
100
AcDbLine
 10
100.5442298289
 20
153.6206525466
 30
0.0
 11
101.5442298289
 21
153.6206525466
 31
0.0
  0
LINE
  5
1A3
330
1F
100
AcDbEntity
  8
0
  6
Continuous
 62
     7
370
    25
100
AcDbLine
 10
77.0442298291
 20
153.6206525466
 30
0.0
 11
77.0442298291
 21
103.6206525466
 31
0.0
  0
LINE
  5
1A4
330
1F
100
AcDbEntity
  8
0
  6
Continuous
 62
     7
370
    25
100
AcDbLine
 10
78.5442298291
 20
103.6206525466
 30
0.0
 11
78.5442298291
 21
153.6206525466
 31
0.0
  0
LINE
  5
1A5
330
1F
100
AcDbEntity
  8
0
  6
Continuous
 62
     7
370
    25
100
AcDbLine
 10
77.0442298291
 20
103.6206525466
 30
0.0
 11
78.5442298291
 21
103.6206525466
 31
0.0
  0
LINE
  5
1A6
330
1F
100
AcDbEntity
  8
0
  6
Continuous
 62
     7
370
    25
100
AcDbLine
 10
78.5442298291
 20
153.6206525466
 30
0.0
 11
77.0442298291
 21
153.6206525466
 31
0.0
  0
LINE
  5
1A7
330
1F
100
AcDbEntity
  8
0
  6
Continuous
 62
     7
370
    25
100
AcDbLine
 10
70.5442298289
 20
153.6206525466
 30
0.0
 11
70.5442298289
 21
103.6206525466
 31
0.0
  0
LINE
  5
1A8
330
1F
100
AcDbEntity
  8
0
  6
Continuous
 62
     7
370
    25
100
AcDbLine
 10
70.5442298289
 20
103.6206525466
 30
0.0
 11
77.0442298291
 21
103.6206525466
 31
0.0
  0
LINE
  5
1A9
330
1F
100
AcDbEntity
  8
0
  6
Continuous
 62
     7
370
    25
100
AcDbLine
 10
77.0442298291
 20
153.6206525466
 30
0.0
 11
70.5442298289
 21
153.6206525466
 31
0.0
  0
LINE
  5
1AA
330
1F
100
AcDbEntity
  8
0
  6
Continuous
 62
     7
370
    25
100
AcDbLine
 10
78.9441540127
 20
153.6206525466
 30
0.0
 11
78.9441540127
 21
103.6206525466
 31
0.0
  0
LINE
  5
1AB
330
1F
100
AcDbEntity
  8
0
  6
Continuous
 62
     7
370
    25
100
AcDbLine
 10
78.9441540127
 20
103.6206525466
 30
0.0
 11
78.5442298291
 21
103.6206525466
 31
0.0
  0
LINE
  5
1AC
330
1F
100
AcDbEntity
  8
0
  6
Continuous
 62
     7
370
    25
100
AcDbLine
 10
78.5442298291
 20
153.6206525466
 30
0.0
 11
78.9441540127
 21
153.6206525466
 31
0.0
  0
LINE
  5
1AD
330
1F
100
AcDbEntity
  8
0
  6
Continuous
 62
     7
370
    25
100
AcDbLine
 10
98.1443056452
 20
153.6206525466
 30
0.0
 11
98.1443056452
 21
103.6206525466
 31
0.0
  0
LINE
  5
1AE
330
1F
100
AcDbEntity
  8
0
  6
Continuous
 62
     7
370
    25
100
AcDbLine
 10
78.9441540127
 20
103.6206525466
 30
0.0
 11
98.1443056452
 21
103.6206525466
 31
0.0
  0
LINE
  5
1AF
330
1F
100
AcDbEntity
  8
0
  6
Continuous
 62
     7
370
    25
100
AcDbLine
 10
78.9441540127
 20
153.6206525466
 30
0.0
 11
98.1443056452
 21
153.6206525466
 31
0.0
  0
LINE
  5
1B0
330
1F
100
AcDbEntity
  8
0
  6
Continuous
 62
     7
370
    25
100
AcDbLine
 10
98.1443056452
 20
103.6206525466
 30
0.0
 11
100.5442298289
 21
103.6206525466
 31
0.0
  0
LINE
  5
1B1
330
1F
100
AcDbEntity
  8
0
  6
Continuous
 62
     7
370
    25
100
AcDbLine
 10
98.1443056452
 20
153.6206525466
 30
0.0
 11
100.5442298289
 21
153.6206525466
 31
0.0
  0
CIRCLE
  5
1B2
330
1F
100
AcDbEntity
  8
0
  6
HIDDEN
 62
     7
370
    18
100
AcDbCircle
 10
92.5442298289
 20
115.6206525466
 30
0.0
 40
3.399999999999991
  0
CIRCLE
  5
1B3
330
1F
100
AcDbEntity
  8
0
  6
HIDDEN
 62
     7
370
    18
100
AcDbCircle
 10
92.5442298289
 20
141.6206525466
 30
0.0
 40
3.399999999999991
  0
DIMENSION
  5
1B4
330
1F
100
AcDbEntity
  8
0
  6
Continuous
 62
     7
370
    18
100
AcDbDimension
  2
_D_11
 10
125.992947405
 20
143.6206525466
 30
0.0
 11
125.992947405
 21
163.6206525466
 31
0.0
 70
   160
  1
<> à45°
 71
     2
 42
-1.0
  3
SLDDIMSTYLE1
100
AcDbAlignedDimension
 13
98.1443056452
 23
153.6206525466
 33
0.0
 14
112.5442298289
 24
143.6206525466
 34
0.0
 50
90.0
100
AcDbRotatedDimension
  0
DIMENSION
  5
1C0
330
1F
100
AcDbEntity
  8
0
  6
Continuous
 62
     7
370
    18
100
AcDbDimension
  2
_D_12
 10
125.992947405
 20
113.6206525466
 30
0.0
 11
125.992947405
 21
93.6206525466
 31
0.0
 70
   160
  1
<> à45°
 71
     2
 42
-1.0
  3
SLDDIMSTYLE1
100
AcDbAlignedDimension
 13
98.1443056452
 23
103.6206525466
 33
0.0
 14
112.5442298289
 24
113.6206525466
 34
0.0
 50
90.0
100
AcDbRotatedDimension
  0
DIMENSION
  5
1CC
330
1F
100
AcDbEntity
  8
0
  6
Continuous
 62
     7
370
    18
100
AcDbDimension
  2
_D_13
 10
62.8845777025
 20
141.6206525466
 30
0.0
 11
62.8845777025
 21
147.1171185586
 31
0.0
 70
   160
  1
<>
 71
     2
 42
-1.0
  3
SLDDIMSTYLE2
100
AcDbAlignedDimension
 13
78.9441540127
 23
153.6206525466
 33
0.0
 14
92.5442298289
 24
141.6206525466
 34
0.0
 50
90.0
100
AcDbRotatedDimension
  0
DIMENSION
  5
1D8
330
1F
100
AcDbEntity
  8
0
  6
Continuous
 62
     7
370
    18
100
AcDbDimension
  2
_D_14
 10
62.8845777025
 20
103.6206525466
 30
0.0
 11
62.8845777025
 21
108.9595840511
 31
0.0
 70
   160
  1
<>
 71
     2
 42
-1.0
  3
SLDDIMSTYLE2
100
AcDbAlignedDimension
 13
92.5442298289
 23
115.6206525466
 33
0.0
 14
78.9441540127
 24
103.6206525466
 34
0.0
 50
90.0
100
AcDbRotatedDimension
  0
DIMENSION
  5
1E4
330
1F
100
AcDbEntity
  8
0
  6
Continuous
 62
     7
370
    18
100
AcDbDimension
  2
_D_15
 10
54.5442298289
 20
103.6206525466
 30
0.0
 11
54.5442298289
 21
128.8118148421
 31
0.0
 70
   160
  1
<>
 71
     2
 42
-1.0
  3
SLDDIMSTYLE1
100
AcDbAlignedDimension
 13
70.5442298289
 23
153.6206525466
 33
0.0
 14
70.5442298289
 24
103.6206525466
 34
0.0
 50
90.0
100
AcDbRotatedDimension
  0
DIMENSION
  5
1EE
330
1F
100
AcDbEntity
  8
0
  6
Continuous
 62
     7
370
    18
100
AcDbDimension
  2
_D_16
 10
92.5442298289
 20
159.2347139765
 30
0.0
 11
103.2335922324
 21
159.2347139765
 31
0.0
 70
   160
  1
<>
 71
     2
 42
-1.0
  3
SLDDIMSTYLE2
100
AcDbAlignedDimension
 13
112.5442298289
 23
143.6206525466
 33
0.0
 14
92.5442298289
 24
115.6206525466
 34
0.0
100
AcDbRotatedDimension
  0
DIMENSION
  5
1F8
330
1F
100
AcDbEntity
  8
0
  6
Continuous
 62
     7
370
    18
100
AcDbDimension
  2
_D_17
 10
70.5442298289
 20
166.582617581
 30
0.0
 11
92.2761921204
 21
166.582617581
 31
0.0
 70
   160
  1
<>
 71
     2
 42
-1.0
  3
SLDDIMSTYLE1
100
AcDbAlignedDimension
 13
112.5442298289
 23
143.6206525466
 33
0.0
 14
70.5442298289
 24
153.6206525466
 34
0.0
100
AcDbRotatedDimension
  0
INSERT
  5
20D
330
1F
100
AcDbEntity
  8
0
  6
Continuous
 62
     7
370
     0
100
AcDbBlockReference
  2
SW_CENTERMARKSYMBOL_0
 10
92.5442298289
 20
141.6206525466
 30
0.0
  0
INSERT
  5
219
330
1F
100
AcDbEntity
  8
0
  6
Continuous
 62
     7
370
     0
100
AcDbBlockReference
  2
SW_CENTERMARKSYMBOL_1
 10
92.5442298289
 20
115.6206525466
 30
0.0
  0
ARC
  5
21A
330
1F
100
AcDbEntity
  8
0
  6
Continuous
 62
     7
370
    18
100
AcDbCircle
 10
92.5442298289
 20
141.6206525466
 30
0.0
 40
4.000000000000021
100
AcDbArc
 50
255.0
 51
195.0
  0
ARC
  5
21B
330
1F
100
AcDbEntity
  8
0
  6
Continuous
 62
     7
370
    18
100
AcDbCircle
 10
92.5442298289
 20
115.6206525466
 30
0.0
 40
4.000000000000007
100
AcDbArc
 50
255.0
 51
195.0
  0
ENDSEC
  0
SECTION
  2
OBJECTS
  0
DICTIONARY
  5
C
330
0
100
AcDbDictionary
281
     1
  3
ACAD_GROUP
350
D
  3
ACAD_LAYOUT
350
1A
  3
ACAD_MLINESTYLE
350
17
  3
ACAD_PLOTSETTINGS
350
19
  3
ACAD_PLOTSTYLENAME
350
E
  3
ACAD_SCALELIST
350
47
  0
DICTIONARY
  5
D
102
{ACAD_REACTORS
330
C
102
}
330
C
100
AcDbDictionary
281
     1
  0
DICTIONARY
  5
1A
102
{ACAD_REACTORS
330
C
102
}
330
C
100
AcDbDictionary
281
     1
  3
Layout1
350
1E
  3
Layout2
350
26
  3
Model
350
22
  0
DICTIONARY
  5
17
102
{ACAD_REACTORS
330
C
102
}
330
C
100
AcDbDictionary
281
     1
  3
Standard
350
18
  0
DICTIONARY
  5
19
102
{ACAD_REACTORS
330
C
102
}
330
C
100
AcDbDictionary
281
     1
  0
ACDBDICTIONARYWDFLT
  5
E
102
{ACAD_REACTORS
330
C
102
}
330
C
100
AcDbDictionary
281
     1
  3
Normal
350
F
100
AcDbDictionaryWithDefault
340
F
  0
DICTIONARY
  5
47
102
{ACAD_REACTORS
330
C
102
}
330
C
100
AcDbDictionary
281
     1
  3
A0
350
48
  3
A1
350
49
  3
A2
350
4A
  3
A3
350
4B
  3
A4
350
4C
  3
A5
350
4D
  3
A6
350
4E
  3
A7
350
4F
  3
A8
350
50
  3
A9
350
51
  3
B0
350
52
  3
B1
350
53
  3
B2
350
54
  3
B3
350
55
  3
B4
350
56
  3
B5
350
57
  3
B6
350
58
  3
B7
350
59
  3
B8
350
5A
  3
B9
350
5B
  3
C0
350
5C
  3
C1
350
5D
  3
C2
350
5E
  3
C3
350
5F
  3
C4
350
60
  3
C5
350
61
  3
C6
350
62
  3
C7
350
63
  3
C8
350
64
  3
C9
350
65
  3
D0
350
66
  3
D1
350
67
  3
D2
350
68
  0
LAYOUT
  5
1E
102
{ACAD_REACTORS
330
1A
102
}
330
1A
100
AcDbPlotSettings
  1

  2
none_device
  4

  6

 40
0.0
 41
0.0
 42
0.0
 43
0.0
 44
0.0
 45
0.0
 46
0.0
 47
0.0
 48
0.0
 49
0.0
140
0.0
141
0.0
142
1.0
143
1.0
 70
   688
 72
     1
 73
     0
 74
     5
  7

 75
    16
147
1.0
148
0.0
149
0.0
100
AcDbLayout
  1
Layout1
 70
     1
 71
     1
 10
0.0
 20
0.0
 11
420.0
 21
297.0
 12
0.0
 22
0.0
 32
0.0
 14
1.0000000000E+20
 24
1.0000000000E+20
 34
1.0000000000E+20
 15
-1.0000000000E+20
 25
-1.0000000000E+20
 35
-1.0000000000E+20
146
0.0
 13
0.0
 23
0.0
 33
0.0
 16
1.0
 26
0.0
 36
0.0
 17
0.0
 27
1.0
 37
0.0
 76
     0
330
1B
  0
LAYOUT
  5
26
102
{ACAD_REACTORS
330
1A
102
}
330
1A
100
AcDbPlotSettings
  1

  2
none_device
  4

  6

 40
0.0
 41
0.0
 42
0.0
 43
0.0
 44
0.0
 45
0.0
 46
0.0
 47
0.0
 48
0.0
 49
0.0
140
0.0
141
0.0
142
1.0
143
1.0
 70
   688
 72
     1
 73
     0
 74
     5
  7

 75
    16
147
1.0
148
0.0
149
0.0
100
AcDbLayout
  1
Layout2
 70
     1
 71
     2
 10
0.0
 20
0.0
 11
0.0
 21
0.0
 12
0.0
 22
0.0
 32
0.0
 14
0.0
 24
0.0
 34
0.0
 15
0.0
 25
0.0
 35
0.0
146
0.0
 13
0.0
 23
0.0
 33
0.0
 16
1.0
 26
0.0
 36
0.0
 17
0.0
 27
1.0
 37
0.0
 76
     0
330
23
  0
LAYOUT
  5
22
102
{ACAD_REACTORS
330
1A
102
}
330
1A
100
AcDbPlotSettings
  1

  2
none_device
  4
Letter_(8.50_x_11.00_Inches)
  6

 40
6.35
 41
6.35
 42
6.35000508
 43
6.35000508
 44
215.9
 45
279.4
 46
0.0
 47
0.0
 48
0.0
 49
0.0
140
0.0
141
0.0
142
1.0
143
1.0
 70
  1712
 72
     1
 73
     0
 74
     0
  7

 75
     0
147
1.0
148
0.0
149
0.0
100
AcDbLayout
  1
Model
 70
     1
 71
     0
 10
0.0
 20
0.0
 11
210.0
 21
297.0
 12
0.0
 22
0.0
 32
0.0
 14
0.0
 24
0.0
 34
0.0
 15
210.0
 25
297.0
 35
0.0
146
0.0
 13
0.0
 23
0.0
 33
0.0
 16
1.0
 26
0.0
 36
0.0
 17
0.0
 27
1.0
 37
0.0
 76
     0
330
1F
331
29
  0
MLINESTYLE
  5
18
102
{ACAD_REACTORS
330
17
102
}
330
17
100
AcDbMlineStyle
  2
Standard
 70
     0
  3

 62
   256
 51
90.0
 52
90.0
 71
     2
 49
0.5
 62
   256
  6
BYLAYER
 49
-0.5
 62
   256
  6
BYLAYER
  0
ACDBPLACEHOLDER
  5
F
102
{ACAD_REACTORS
330
E
102
}
330
E
  0
SCALE
  5
48
102
{ACAD_REACTORS
330
47
102
}
330
47
100
AcDbScale
 70
     0
300
1:1
140
1.0
141
1.0
290
     1
  0
SCALE
  5
49
102
{ACAD_REACTORS
330
47
102
}
330
47
100
AcDbScale
 70
     0
300
1:2
140
1.0
141
2.0
290
     0
  0
SCALE
  5
4A
102
{ACAD_REACTORS
330
47
102
}
330
47
100
AcDbScale
 70
     0
300
1:4
140
1.0
141
4.0
290
     0
  0
SCALE
  5
4B
102
{ACAD_REACTORS
330
47
102
}
330
47
100
AcDbScale
 70
     0
300
1:5
140
1.0
141
5.0
290
     0
  0
SCALE
  5
4C
102
{ACAD_REACTORS
330
47
102
}
330
47
100
AcDbScale
 70
     0
300
1:8
140
1.0
141
8.0
290
     0
  0
SCALE
  5
4D
102
{ACAD_REACTORS
330
47
102
}
330
47
100
AcDbScale
 70
     0
300
1:10
140
1.0
141
10.0
290
     0
  0
SCALE
  5
4E
102
{ACAD_REACTORS
330
47
102
}
330
47
100
AcDbScale
 70
     0
300
1:16
140
1.0
141
16.0
290
     0
  0
SCALE
  5
4F
102
{ACAD_REACTORS
330
47
102
}
330
47
100
AcDbScale
 70
     0
300
1:20
140
1.0
141
20.0
290
     0
  0
SCALE
  5
50
102
{ACAD_REACTORS
330
47
102
}
330
47
100
AcDbScale
 70
     0
300
1:30
140
1.0
141
30.0
290
     0
  0
SCALE
  5
51
102
{ACAD_REACTORS
330
47
102
}
330
47
100
AcDbScale
 70
     0
300
1:40
140
1.0
141
40.0
290
     0
  0
SCALE
  5
52
102
{ACAD_REACTORS
330
47
102
}
330
47
100
AcDbScale
 70
     0
300
1:50
140
1.0
141
50.0
290
     0
  0
SCALE
  5
53
102
{ACAD_REACTORS
330
47
102
}
330
47
100
AcDbScale
 70
     0
300
1:100
140
1.0
141
100.0
290
     0
  0
SCALE
  5
54
102
{ACAD_REACTORS
330
47
102
}
330
47
100
AcDbScale
 70
     0
300
2:1
140
2.0
141
1.0
290
     0
  0
SCALE
  5
55
102
{ACAD_REACTORS
330
47
102
}
330
47
100
AcDbScale
 70
     0
300
4:1
140
4.0
141
1.0
290
     0
  0
SCALE
  5
56
102
{ACAD_REACTORS
330
47
102
}
330
47
100
AcDbScale
 70
     0
300
8:1
140
8.0
141
1.0
290
     0
  0
SCALE
  5
57
102
{ACAD_REACTORS
330
47
102
}
330
47
100
AcDbScale
 70
     0
300
10:1
140
10.0
141
1.0
290
     0
  0
SCALE
  5
58
102
{ACAD_REACTORS
330
47
102
}
330
47
100
AcDbScale
 70
     0
300
100:1
140
100.0
141
1.0
290
     0
  0
SCALE
  5
59
102
{ACAD_REACTORS
330
47
102
}
330
47
100
AcDbScale
 70
     0
300
1/128" = 1'-0"
140
0.0078125
141
12.0
290
     0
  0
SCALE
  5
5A
102
{ACAD_REACTORS
330
47
102
}
330
47
100
AcDbScale
 70
     0
300
1/64" = 1'-0"
140
0.015625
141
12.0
290
     0
  0
SCALE
  5
5B
102
{ACAD_REACTORS
330
47
102
}
330
47
100
AcDbScale
 70
     0
300
1/32" = 1'-0"
140
0.03125
141
12.0
290
     0
  0
SCALE
  5
5C
102
{ACAD_REACTORS
330
47
102
}
330
47
100
AcDbScale
 70
     0
300
1/16" = 1'-0"
140
0.0625
141
12.0
290
     0
  0
SCALE
  5
5D
102
{ACAD_REACTORS
330
47
102
}
330
47
100
AcDbScale
 70
     0
300
3/32" = 1'-0"
140
0.09375
141
12.0
290
     0
  0
SCALE
  5
5E
102
{ACAD_REACTORS
330
47
102
}
330
47
100
AcDbScale
 70
     0
300
1/8" = 1'-0"
140
0.125
141
12.0
290
     0
  0
SCALE
  5
5F
102
{ACAD_REACTORS
330
47
102
}
330
47
100
AcDbScale
 70
     0
300
3/16" = 1'-0"
140
0.1875
141
12.0
290
     0
  0
SCALE
  5
60
102
{ACAD_REACTORS
330
47
102
}
330
47
100
AcDbScale
 70
     0
300
1/4" = 1'-0"
140
0.25
141
12.0
290
     0
  0
SCALE
  5
61
102
{ACAD_REACTORS
330
47
102
}
330
47
100
AcDbScale
 70
     0
300
3/8" = 1'-0"
140
0.375
141
12.0
290
     0
  0
SCALE
  5
62
102
{ACAD_REACTORS
330
47
102
}
330
47
100
AcDbScale
 70
     0
300
1/2" = 1'-0"
140
0.5
141
12.0
290
     0
  0
SCALE
  5
63
102
{ACAD_REACTORS
330
47
102
}
330
47
100
AcDbScale
 70
     0
300
3/4" = 1'-0"
140
0.75
141
12.0
290
     0
  0
SCALE
  5
64
102
{ACAD_REACTORS
330
47
102
}
330
47
100
AcDbScale
 70
     0
300
1" = 1'-0"
140
1.0
141
12.0
290
     0
  0
SCALE
  5
65
102
{ACAD_REACTORS
330
47
102
}
330
47
100
AcDbScale
 70
     0
300
1-1/2" = 1'-0"
140
1.5
141
12.0
290
     0
  0
SCALE
  5
66
102
{ACAD_REACTORS
330
47
102
}
330
47
100
AcDbScale
 70
     0
300
3" = 1'-0"
140
3.0
141
12.0
290
     0
  0
SCALE
  5
67
102
{ACAD_REACTORS
330
47
102
}
330
47
100
AcDbScale
 70
     0
300
6" = 1'-0"
140
6.0
141
12.0
290
     0
  0
SCALE
  5
68
102
{ACAD_REACTORS
330
47
102
}
330
47
100
AcDbScale
 70
     0
300
1'-0" = 1'-0"
140
12.0
141
12.0
290
     0
  0
ENDSEC
  0
EOF
