  0
SECTION
  2
HEADER
  9
$ACADVER
  1
AC1015
  9
$ACADMAINTVER
 70
     6
  9
$DWGCODEPAGE
  3
ANSI_1252
  9
$INSBASE
 10
0.0
 20
0.0
 30
0.0
  9
$EXTMIN
 10
0.0
 20
0.0
 30
0.0
  9
$EXTMAX
 10
594.0
 20
420.0
 30
0.0
  9
$LIMMIN
 10
0.0
 20
0.0
  9
$LIMMAX
 10
594.0
 20
420.0
  9
$ORTHOMODE
 70
     0
  9
$REGENMODE
 70
     1
  9
$FILLMODE
 70
     1
  9
$QTEXTMODE
 70
     0
  9
$MIRRTEXT
 70
     1
  9
$LTSCALE
 40
1.0
  9
$ATTMODE
 70
     1
  9
$TEXTSIZE
 40
3.5
  9
$TRACEWID
 40
1.0
  9
$TEXTSTYLE
  7
Standard
  9
$CLAYER
  8
0
  9
$CELTYPE
  6
ByLayer
  9
$CECOLOR
 62
   256
  9
$CELTSCALE
 40
1.0
  9
$DISPSILH
 70
     0
  9
$DIMSCALE
 40
1.0
  9
$DIMASZ
 40
3.302
  9
$DIMEXO
 40
1.0
  9
$DIMDLI
 40
3.75
  9
$DIMRND
 40
0.0
  9
$DIMDLE
 40
0.0
  9
$DIMEXE
 40
1.0
  9
$DIMTP
 40
0.0
  9
$DIMTM
 40
0.0
  9
$DIMTXT
 40
3.5
  9
$DIMCEN
 40
2.5
  9
$DIMTSZ
 40
0.0
  9
$DIMTOL
 70
     0
  9
$DIMLIM
 70
     0
  9
$DIMTIH
 70
     1
  9
$DIMTOH
 70
     1
  9
$DIMSE1
 70
     0
  9
$DIMSE2
 70
     0
  9
$DIMTAD
 70
     1
  9
$DIMZIN
 70
     0
  9
$DIMBLK
  1

  9
$DIMASO
 70
     1
  9
$DIMSHO
 70
     1
  9
$DIMPOST
  1

  9
$DIMAPOST
  1

  9
$DIMALT
 70
     0
  9
$DIMALTD
 70
     3
  9
$DIMALTF
 40
0.0393700787
  9
$DIMLFAC
 40
1.0
  9
$DIMTOFL
 70
     1
  9
$DIMTVP
 40
0.0
  9
$DIMTIX
 70
     0
  9
$DIMSOXD
 70
     0
  9
$DIMSAH
 70
     0
  9
$DIMBLK1
  1

  9
$DIMBLK2
  1

  9
$DIMSTYLE
  2
ISO-25
  9
$DIMCLRD
 70
     0
  9
$DIMCLRE
 70
     0
  9
$DIMCLRT
 70
     0
  9
$DIMTFAC
 40
1.0
  9
$DIMGAP
 40
1.524
  9
$DIMJUST
 70
     0
  9
$DIMSD1
 70
     0
  9
$DIMSD2
 70
     0
  9
$DIMTOLJ
 70
     0
  9
$DIMTZIN
 70
     0
  9
$DIMALTZ
 70
     0
  9
$DIMALTTZ
 70
     0
  9
$DIMUPT
 70
     0
  9
$DIMDEC
 70
     2
  9
$DIMTDEC
 70
     2
  9
$DIMALTU
 70
     2
  9
$DIMALTTD
 70
     3
  9
$DIMTXSTY
  7
Standard
  9
$DIMAUNIT
 70
     0
  9
$DIMADEC
 70
     2
  9
$DIMALTRND
 40
0.0
  9
$DIMAZIN
 70
     0
  9
$DIMDSEP
 70
    44
  9
$DIMATFIT
 70
     3
  9
$DIMFRAC
 70
     0
  9
$DIMLDRBLK
  1

  9
$DIMLUNIT
 70
     2
  9
$DIMLWD
 70
    -2
  9
$DIMLWE
 70
    -2
  9
$DIMTMOVE
 70
     0
  9
$LUNITS
 70
     2
  9
$LUPREC
 70
     2
  9
$SKETCHINC
 40
1.0
  9
$FILLETRAD
 40
10.0
  9
$AUNITS
 70
     0
  9
$AUPREC
 70
     2
  9
$MENU
  1
.
  9
$ELEVATION
 40
0.0
  9
$PELEVATION
 40
0.0
  9
$THICKNESS
 40
0.0
  9
$LIMCHECK
 70
     0
  9
$CHAMFERA
 40
0.0
  9
$CHAMFERB
 40
0.0
  9
$CHAMFERC
 40
0.0
  9
$CHAMFERD
 40
0.0
  9
$SKPOLY
 70
     0
  9
$TDCREATE
 40
2458221.471765393
  9
$TDUCREATE
 40
2458221.38843206
  9
$TDUPDATE
 40
2458221.471769375
  9
$TDUUPDATE
 40
2458221.388436042
  9
$TDINDWG
 40
0.0000000116
  9
$TDUSRTIMER
 40
0.0000000116
  9
$USRTIMER
 70
     1
  9
$ANGBASE
 50
0.0
  9
$ANGDIR
 70
     0
  9
$PDMODE
 70
     0
  9
$PDSIZE
 40
-1.0
  9
$PLINEWID
 40
0.0
  9
$SPLFRAME
 70
     0
  9
$SPLINETYPE
 70
     6
  9
$SPLINESEGS
 70
     8
  9
$HANDSEED
  5
39B
  9
$SURFTAB1
 70
     6
  9
$SURFTAB2
 70
     6
  9
$SURFTYPE
 70
     6
  9
$SURFU
 70
     6
  9
$SURFV
 70
     6
  9
$UCSBASE
  2

  9
$UCSNAME
  2

  9
$UCSORG
 10
0.0
 20
0.0
 30
0.0
  9
$UCSXDIR
 10
1.0
 20
0.0
 30
0.0
  9
$UCSYDIR
 10
0.0
 20
1.0
 30
0.0
  9
$UCSORTHOREF
  2

  9
$UCSORTHOVIEW
 70
     0
  9
$UCSORGTOP
 10
0.0
 20
0.0
 30
0.0
  9
$UCSORGBOTTOM
 10
0.0
 20
0.0
 30
0.0
  9
$UCSORGLEFT
 10
0.0
 20
0.0
 30
0.0
  9
$UCSORGRIGHT
 10
0.0
 20
0.0
 30
0.0
  9
$UCSORGFRONT
 10
0.0
 20
0.0
 30
0.0
  9
$UCSORGBACK
 10
0.0
 20
0.0
 30
0.0
  9
$PUCSBASE
  2

  9
$PUCSNAME
  2

  9
$PUCSORG
 10
0.0
 20
0.0
 30
0.0
  9
$PUCSXDIR
 10
1.0
 20
0.0
 30
0.0
  9
$PUCSYDIR
 10
0.0
 20
1.0
 30
0.0
  9
$PUCSORTHOREF
  2

  9
$PUCSORTHOVIEW
 70
     0
  9
$PUCSORGTOP
 10
0.0
 20
0.0
 30
0.0
  9
$PUCSORGBOTTOM
 10
0.0
 20
0.0
 30
0.0
  9
$PUCSORGLEFT
 10
0.0
 20
0.0
 30
0.0
  9
$PUCSORGRIGHT
 10
0.0
 20
0.0
 30
0.0
  9
$PUCSORGFRONT
 10
0.0
 20
0.0
 30
0.0
  9
$PUCSORGBACK
 10
0.0
 20
0.0
 30
0.0
  9
$USERI1
 70
     0
  9
$USERI2
 70
     0
  9
$USERI3
 70
     0
  9
$USERI4
 70
     0
  9
$USERI5
 70
     0
  9
$USERR1
 40
0.0
  9
$USERR2
 40
0.0
  9
$USERR3
 40
0.0
  9
$USERR4
 40
0.0
  9
$USERR5
 40
0.0
  9
$WORLDVIEW
 70
     1
  9
$SHADEDGE
 70
     3
  9
$SHADEDIF
 70
    70
  9
$TILEMODE
 70
     1
  9
$MAXACTVP
 70
    64
  9
$PINSBASE
 10
0.0
 20
0.0
 30
0.0
  9
$PLIMCHECK
 70
     0
  9
$PEXTMIN
 10
1.0000000000E+20
 20
1.0000000000E+20
 30
1.0000000000E+20
  9
$PEXTMAX
 10
-1.0000000000E+20
 20
-1.0000000000E+20
 30
-1.0000000000E+20
  9
$PLIMMIN
 10
0.0
 20
0.0
  9
$PLIMMAX
 10
420.0
 20
297.0
  9
$UNITMODE
 70
     0
  9
$VISRETAIN
 70
     1
  9
$PLINEGEN
 70
     0
  9
$PSLTSCALE
 70
     1
  9
$TREEDEPTH
 70
  3020
  9
$CMLSTYLE
  2
Standard
  9
$CMLJUST
 70
     0
  9
$CMLSCALE
 40
20.0
  9
$PROXYGRAPHICS
 70
     1
  9
$MEASUREMENT
 70
     1
  9
$CELWEIGHT
370
    -1
  9
$ENDCAPS
280
     0
  9
$JOINSTYLE
280
     0
  9
$LWDISPLAY
290
     1
  9
$INSUNITS
 70
     4
  9
$HYPERLINKBASE
  1

  9
$STYLESHEET
  1

  9
$XEDIT
290
     1
  9
$CEPSNTYPE
380
     0
  9
$PSTYLEMODE
290
     1
  9
$FINGERPRINTGUID
  2
{485103D4-1122-4DA8-9543-A50C9E875202}
  9
$VERSIONGUID
  2
{FAEB1C32-E019-11D5-929B-00C0DF256EC4}
  9
$EXTNAMES
290
     1
  9
$PSVPSCALE
 40
0.0
  9
$OLESTARTUP
290
     0
  0
ENDSEC
  0
SECTION
  2
CLASSES
  0
CLASS
  1
ACDBDICTIONARYWDFLT
  2
AcDbDictionaryWithDefault
  3
ObjectDBX Classes
 90
        0
280
     0
281
     0
  0
CLASS
  1
VISUALSTYLE
  2
AcDbVisualStyle
  3
ObjectDBX Classes
 90
     4095
280
     0
281
     0
  0
CLASS
  1
MATERIAL
  2
AcDbMaterial
  3
ObjectDBX Classes
 90
     1153
280
     0
281
     0
  0
CLASS
  1
SCALE
  2
AcDbScale
  3
ObjectDBX Classes
 90
     1153
280
     0
281
     0
  0
CLASS
  1
TABLESTYLE
  2
AcDbTableStyle
  3
ObjectDBX Classes
 90
     4095
280
     0
281
     0
  0
CLASS
  1
MLEADERSTYLE
  2
AcDbMLeaderStyle
  3
ACDB_MLEADERSTYLE_CLASS
 90
     4095
280
     0
281
     0
  0
CLASS
  1
SUN
  2
AcDbSun
  3
SCENEOE
 90
     1153
280
     0
281
     0
  0
CLASS
  1
ACDBPLACEHOLDER
  2
AcDbPlaceHolder
  3
ObjectDBX Classes
 90
        0
280
     0
281
     0
  0
CLASS
  1
LAYOUT
  2
AcDbLayout
  3
ObjectDBX Classes
 90
        0
280
     0
281
     0
  0
ENDSEC
  0
SECTION
  2
TABLES
  0
TABLE
  2
VPORT
  5
8
330
0
100
AcDbSymbolTable
 70
     1
  0
VPORT
  5
29
330
8
100
AcDbSymbolTableRecord
100
AcDbViewportTableRecord
  2
*Active
 70
     0
 10
0.0
 20
0.0
 11
1.0
 21
1.0
 12
297.0
 22
210.0
 13
0.0
 23
0.0
 14
10.0
 24
10.0
 15
10.0
 25
10.0
 16
0.0
 26
0.0
 36
1.0
 17
0.0
 27
0.0
 37
0.0
 40
420.0
 41
1.4142857143
 42
50.0
 43
0.0
 44
0.0
 50
0.0
 51
0.0
 71
     0
 72
  2000
 73
     1
 74
     3
 75
     0
 76
     0
 77
     0
 78
     0
281
     0
 65
     1
110
0.0
120
0.0
130
0.0
111
1.0
121
0.0
131
0.0
112
0.0
122
1.0
132
0.0
 79
     0
146
0.0
  0
ENDTAB
  0
TABLE
  2
LTYPE
  5
5
330
0
100
AcDbSymbolTable
 70
     6
  0
LTYPE
  5
14
330
5
100
AcDbSymbolTableRecord
100
AcDbLinetypeTableRecord
  2
ByBlock
 70
     0
  3

 72
    65
 73
     0
 40
0.0
  0
LTYPE
  5
15
330
5
100
AcDbSymbolTableRecord
100
AcDbLinetypeTableRecord
  2
ByLayer
 70
     0
  3

 72
    65
 73
     0
 40
0.0
  0
LTYPE
  5
16
330
5
100
AcDbSymbolTableRecord
100
AcDbLinetypeTableRecord
  2
Continuous
 70
     0
  3
Solid line
 72
    65
 73
     0
 40
0.0
  0
LTYPE
  5
6E
330
5
100
AcDbSymbolTableRecord
100
AcDbLinetypeTableRecord
  2
HIDDEN
 70
     0
  3
Hidden __ __ __ __ __ __ __ __ __ __ __ __ __ __
 72
    65
 73
     2
 40
1.905
 49
1.27
 74
     0
 49
-0.635
 74
     0
  0
LTYPE
  5
6F
330
5
100
AcDbSymbolTableRecord
100
AcDbLinetypeTableRecord
  2
PHANTOM
 70
     0
  3
Phantom ______  __  __  ______  __  __  ______
 72
    65
 73
     6
 40
12.7
 49
6.35
 74
     0
 49
-1.27
 74
     0
 49
1.27
 74
     0
 49
-1.27
 74
     0
 49
1.27
 74
     0
 49
-1.27
 74
     0
  0
LTYPE
  5
70
330
5
100
AcDbSymbolTableRecord
100
AcDbLinetypeTableRecord
  2
CENTER
 70
     0
  3
Center ____ _ ____ _ ____ _ ____ _ ____ _ ____
 72
    65
 73
     4
 40
10.16
 49
6.35
 74
     0
 49
-1.27
 74
     0
 49
1.27
 74
     0
 49
-1.27
 74
     0
  0
LTYPE
  5
71
330
5
100
AcDbSymbolTableRecord
100
AcDbLinetypeTableRecord
  2
CENTERX2
 70
     0
  3
Center (2x) ________  __  ________  __  _____
 72
    65
 73
     4
 40
20.32
 49
12.7
 74
     0
 49
-2.54
 74
     0
 49
2.54
 74
     0
 49
-2.54
 74
     0
  0
LTYPE
  5
72
330
5
100
AcDbSymbolTableRecord
100
AcDbLinetypeTableRecord
  2
DOT2
 70
     0
  3
Dot (.5x) ........................................
 72
    65
 73
     2
 40
0.635
 49
0.0
 74
     0
 49
-0.635
 74
     0
  0
ENDTAB
  0
TABLE
  2
LAYER
  5
2
330
0
100
AcDbSymbolTable
 70
     3
  0
LAYER
  5
10
330
2
100
AcDbSymbolTableRecord
100
AcDbLayerTableRecord
  2
0
 70
     0
 62
     7
  6
Continuous
370
    -3
390
F
  0
LAYER
  5
73
330
2
100
AcDbSymbolTableRecord
100
AcDbLayerTableRecord
  2
FORMAT
 70
     0
 62
     7
  6
Continuous
370
    -3
390
F
  0
LAYER
  5
74
330
2
100
AcDbSymbolTableRecord
100
AcDbLayerTableRecord
  2
DIMENSIONS
 70
     0
 62
   176
  6
Continuous
370
    -3
390
F
  0
ENDTAB
  0
TABLE
  2
STYLE
  5
3
330
0
100
AcDbSymbolTable
 70
    15
  0
STYLE
  5
11
330
3
100
AcDbSymbolTableRecord
100
AcDbTextStyleTableRecord
  2
Standard
 70
     0
 40
0.0
 41
1.0
 50
0.0
 71
     0
 42
3.5
  3
txt
  4

  0
STYLE
  5
DE
330
3
100
AcDbSymbolTableRecord
100
AcDbTextStyleTableRecord
  2
SLDTEXTSTYLE0
 70
     0
 40
0.0
 41
0.75
 50
0.0
 71
     0
 42
3.5
  3
TXT
  4

  0
STYLE
  5
117
330
3
100
AcDbSymbolTableRecord
100
AcDbTextStyleTableRecord
  2
SLDTEXTSTYLE1
 70
     0
 40
0.0
 41
1.0
 50
0.0
 71
     0
 42
3.5
  3
ISOCP
  4

  0
STYLE
  5
11A
330
3
100
AcDbSymbolTableRecord
100
AcDbTextStyleTableRecord
  2
SLDTEXTSTYLE2
 70
     0
 40
0.0
 41
0.8
 50
0.0
 71
     0
 42
3.5
  3
ROMANT
  4

  0
STYLE
  5
11C
330
3
100
AcDbSymbolTableRecord
100
AcDbTextStyleTableRecord
  2
SLDTEXTSTYLE3
 70
     0
 40
0.0
 41
0.8
 50
0.0
 71
     0
 42
3.5
  3
ISOCP
  4

  0
STYLE
  5
11F
330
3
100
AcDbSymbolTableRecord
100
AcDbTextStyleTableRecord
  2
SLDTEXTSTYLE4
 70
     0
 40
0.0
 41
0.8
 50
0.0
 71
     0
 42
3.5
  3
ROMANS
  4

  0
STYLE
  5
122
330
3
100
AcDbSymbolTableRecord
100
AcDbTextStyleTableRecord
  2
SLDTEXTSTYLE5
 70
     0
 40
0.0
 41
1.0
 50
0.0
 71
     0
 42
3.5
  3
ROMANT
  4

  0
STYLE
  5
126
330
3
100
AcDbSymbolTableRecord
100
AcDbTextStyleTableRecord
  2
SLDTEXTSTYLE6
 70
     0
 40
0.0
 41
1.0
 50
0.0
 71
     0
 42
3.5
  3
ROMANS
  4

  0
STYLE
  5
128
330
3
100
AcDbSymbolTableRecord
100
AcDbTextStyleTableRecord
  2
SLDTEXTSTYLE7
 70
     0
 40
0.0
 41
0.65
 50
0.0
 71
     0
 42
3.5
  3
ROMANT
  4

  0
STYLE
  5
12B
330
3
100
AcDbSymbolTableRecord
100
AcDbTextStyleTableRecord
  2
SLDTEXTSTYLE8
 70
     0
 40
0.0
 41
1.4461573214
 50
0.0
 71
     0
 42
3.5
  3
ISOCP
  4

  0
STYLE
  5
12D
330
3
100
AcDbSymbolTableRecord
100
AcDbTextStyleTableRecord
  2
SLDTEXTSTYLE9
 70
     0
 40
0.0
 41
1.2944018369
 50
0.0
 71
     0
 42
3.5
  3
ISOCP
  4

  0
STYLE
  5
12F
330
3
100
AcDbSymbolTableRecord
100
AcDbTextStyleTableRecord
  2
SLDTEXTSTYLE10
 70
     0
 40
0.0
 41
1.1473107191
 50
0.0
 71
     0
 42
3.5
  3
ISOCP
  4

  0
STYLE
  5
131
330
3
100
AcDbSymbolTableRecord
100
AcDbTextStyleTableRecord
  2
SLDTEXTSTYLE11
 70
     0
 40
0.0
 41
1.385903689
 50
0.0
 71
     0
 42
3.5
  3
ISOCP
  4

  0
STYLE
  5
138
330
3
100
AcDbSymbolTableRecord
100
AcDbTextStyleTableRecord
  2
SLDTEXTSTYLE12
 70
     0
 40
0.0
 41
1.2464610281
 50
0.0
 71
     0
 42
3.5
  3
ISOCP
  4

  0
STYLE
  5
13B
330
3
100
AcDbSymbolTableRecord
100
AcDbTextStyleTableRecord
  2
SLDTEXTSTYLE13
 70
     0
 40
0.0
 41
1.0
 50
0.0
 71
     0
 42
3.5
  3
ROMAND
  4

  0
ENDTAB
  0
TABLE
  2
VIEW
  5
6
330
0
100
AcDbSymbolTable
 70
     0
  0
ENDTAB
  0
TABLE
  2
UCS
  5
7
330
0
100
AcDbSymbolTable
 70
     0
  0
ENDTAB
  0
TABLE
  2
APPID
  5
9
330
0
100
AcDbSymbolTable
 70
     1
  0
APPID
  5
12
330
9
100
AcDbSymbolTableRecord
100
AcDbRegAppTableRecord
  2
ACAD
 70
     0
  0
ENDTAB
  0
TABLE
  2
DIMSTYLE
  5
A
330
0
100
AcDbSymbolTable
 70
     4
100
AcDbDimStyleTable
  0
DIMSTYLE
105
27
330
A
100
AcDbSymbolTableRecord
100
AcDbDimStyleTableRecord
  2
ISO-25
 70
     0
 41
2.5
 42
0.625
 43
3.75
 44
1.25
 73
     0
 74
     0
 77
     1
 78
     8
140
2.5
141
2.5
143
0.0393700787
147
0.625
171
     3
172
     1
178
     0
271
     2
272
     2
274
     3
278
    44
283
     0
284
     8
340
11
  0
DIMSTYLE
105
14F
102
{ACAD_REACTORS
330
14E
330
159
330
163
330
16D
330
1A8
330
1CC
330
1E6
330
1F0
330
1FA
330
204
330
243
330
257
330
27B
330
285
330
28F
330
299
102
}
330
A
100
AcDbSymbolTableRecord
100
AcDbDimStyleTableRecord
  2
SLDDIMSTYLE0
 70
     0
 41
3.302
 44
0.0
 45
0.000000001
 73
     0
 74
     0
 77
     1
 78
    12
 79
     3
140
3.5
147
0.875
173
     1
178
     0
271
     2
272
     2
276
     2
284
    12
340
DE
  0
DIMSTYLE
105
1A0
102
{ACAD_REACTORS
330
19F
330
24F
330
2CB
102
}
330
A
100
AcDbSymbolTableRecord
100
AcDbDimStyleTableRecord
  2
SLDDIMSTYLE1
 70
     0
 41
3.302
 44
0.0
 45
0.000000001
 73
     0
 74
     0
 77
     1
 78
    12
 79
     3
140
3.5
141
0.0
147
0.875
173
     1
178
     0
271
     2
272
     2
276
     2
284
    12
340
DE
  0
DIMSTYLE
105
1B5
102
{ACAD_REACTORS
330
1B4
330
1C2
330
236
330
261
330
2D3
330
2E0
330
2ED
330
315
330
322
330
34A
330
357
330
37F
330
38C
102
}
330
A
100
AcDbSymbolTableRecord
100
AcDbDimStyleTableRecord
  2
SLDDIMSTYLE2
 70
     0
 41
3.302
 44
0.0
 45
0.000000001
 73
     0
 74
     0
 77
     1
 78
    12
 79
     3
140
3.5
147
0.875
172
     1
173
     1
178
     0
271
     2
272
     2
276
     2
284
    12
289
     0
340
DE
  0
ENDTAB
  0
TABLE
  2
BLOCK_RECORD
  5
1
330
0
100
AcDbSymbolTable
 70
    42
  0
BLOCK_RECORD
  5
1F
330
1
100
AcDbSymbolTableRecord
100
AcDbBlockTableRecord
  2
*Model_Space
340
22
  0
BLOCK_RECORD
  5
1B
330
1
100
AcDbSymbolTableRecord
100
AcDbBlockTableRecord
  2
*Paper_Space
340
1E
  0
BLOCK_RECORD
  5
23
330
1
100
AcDbSymbolTableRecord
100
AcDbBlockTableRecord
  2
*Paper_Space0
340
26
  0
BLOCK_RECORD
  5
DB
330
1
100
AcDbSymbolTableRecord
100
AcDbBlockTableRecord
  2
SW_NOTE_0
340
0
102
{BLKREFS
331
E1
102
}
  0
BLOCK_RECORD
  5
E2
330
1
100
AcDbSymbolTableRecord
100
AcDbBlockTableRecord
  2
SW_NOTE_1
340
0
102
{BLKREFS
331
E7
102
}
  0
BLOCK_RECORD
  5
E8
330
1
100
AcDbSymbolTableRecord
100
AcDbBlockTableRecord
  2
SW_NOTE_2
340
0
102
{BLKREFS
331
ED
102
}
  0
BLOCK_RECORD
  5
150
330
1
100
AcDbSymbolTableRecord
100
AcDbBlockTableRecord
  2
_D
340
0
  0
BLOCK_RECORD
  5
15A
330
1
100
AcDbSymbolTableRecord
100
AcDbBlockTableRecord
  2
_D_1
340
0
  0
BLOCK_RECORD
  5
164
330
1
100
AcDbSymbolTableRecord
100
AcDbBlockTableRecord
  2
_D_2
340
0
  0
BLOCK_RECORD
  5
16E
330
1
100
AcDbSymbolTableRecord
100
AcDbBlockTableRecord
  2
_D_3
340
0
  0
BLOCK_RECORD
  5
177
330
1
100
AcDbSymbolTableRecord
100
AcDbBlockTableRecord
  2
SW_CENTERMARKSYMBOL_0
340
0
102
{BLKREFS
331
182
102
}
  0
BLOCK_RECORD
  5
183
330
1
100
AcDbSymbolTableRecord
100
AcDbBlockTableRecord
  2
SW_CENTERMARKSYMBOL_1
340
0
102
{BLKREFS
331
18E
102
}
  0
BLOCK_RECORD
  5
1A1
330
1
100
AcDbSymbolTableRecord
100
AcDbBlockTableRecord
  2
_D_4
340
0
  0
BLOCK_RECORD
  5
1A9
330
1
100
AcDbSymbolTableRecord
100
AcDbBlockTableRecord
  2
_D_5
340
0
  0
BLOCK_RECORD
  5
1B6
330
1
100
AcDbSymbolTableRecord
100
AcDbBlockTableRecord
  2
_D_6
340
0
  0
BLOCK_RECORD
  5
1C3
330
1
100
AcDbSymbolTableRecord
100
AcDbBlockTableRecord
  2
_D_7
340
0
  0
BLOCK_RECORD
  5
1CD
330
1
100
AcDbSymbolTableRecord
100
AcDbBlockTableRecord
  2
_D_8
340
0
  0
BLOCK_RECORD
  5
1E7
330
1
100
AcDbSymbolTableRecord
100
AcDbBlockTableRecord
  2
_D_9
340
0
  0
BLOCK_RECORD
  5
1F1
330
1
100
AcDbSymbolTableRecord
100
AcDbBlockTableRecord
  2
_D_10
340
0
  0
BLOCK_RECORD
  5
1FB
330
1
100
AcDbSymbolTableRecord
100
AcDbBlockTableRecord
  2
_D_11
340
0
  0
BLOCK_RECORD
  5
205
330
1
100
AcDbSymbolTableRecord
100
AcDbBlockTableRecord
  2
_D_12
340
0
  0
BLOCK_RECORD
  5
20E
330
1
100
AcDbSymbolTableRecord
100
AcDbBlockTableRecord
  2
SW_CENTERMARKSYMBOL_2
340
0
102
{BLKREFS
331
219
102
}
  0
BLOCK_RECORD
  5
21A
330
1
100
AcDbSymbolTableRecord
100
AcDbBlockTableRecord
  2
SW_CENTERMARKSYMBOL_3
340
0
102
{BLKREFS
331
225
102
}
  0
BLOCK_RECORD
  5
237
330
1
100
AcDbSymbolTableRecord
100
AcDbBlockTableRecord
  2
_D_13
340
0
  0
BLOCK_RECORD
  5
244
330
1
100
AcDbSymbolTableRecord
100
AcDbBlockTableRecord
  2
_D_14
340
0
  0
BLOCK_RECORD
  5
250
330
1
100
AcDbSymbolTableRecord
100
AcDbBlockTableRecord
  2
_D_15
340
0
  0
BLOCK_RECORD
  5
258
330
1
100
AcDbSymbolTableRecord
100
AcDbBlockTableRecord
  2
_D_16
340
0
  0
BLOCK_RECORD
  5
262
330
1
100
AcDbSymbolTableRecord
100
AcDbBlockTableRecord
  2
_D_17
340
0
  0
BLOCK_RECORD
  5
27C
330
1
100
AcDbSymbolTableRecord
100
AcDbBlockTableRecord
  2
_D_18
340
0
  0
BLOCK_RECORD
  5
286
330
1
100
AcDbSymbolTableRecord
100
AcDbBlockTableRecord
  2
_D_19
340
0
  0
BLOCK_RECORD
  5
290
330
1
100
AcDbSymbolTableRecord
100
AcDbBlockTableRecord
  2
_D_20
340
0
  0
BLOCK_RECORD
  5
29A
330
1
100
AcDbSymbolTableRecord
100
AcDbBlockTableRecord
  2
_D_21
340
0
  0
BLOCK_RECORD
  5
2A3
330
1
100
AcDbSymbolTableRecord
100
AcDbBlockTableRecord
  2
SW_CENTERMARKSYMBOL_4
340
0
102
{BLKREFS
331
2AE
102
}
  0
BLOCK_RECORD
  5
2AF
330
1
100
AcDbSymbolTableRecord
100
AcDbBlockTableRecord
  2
SW_CENTERMARKSYMBOL_5
340
0
102
{BLKREFS
331
2BA
102
}
  0
BLOCK_RECORD
  5
2CC
330
1
100
AcDbSymbolTableRecord
100
AcDbBlockTableRecord
  2
_D_22
340
0
  0
BLOCK_RECORD
  5
2D4
330
1
100
AcDbSymbolTableRecord
100
AcDbBlockTableRecord
  2
_D_23
340
0
  0
BLOCK_RECORD
  5
2E1
330
1
100
AcDbSymbolTableRecord
100
AcDbBlockTableRecord
  2
_D_24
340
0
  0
BLOCK_RECORD
  5
2EE
330
1
100
AcDbSymbolTableRecord
100
AcDbBlockTableRecord
  2
_D_25
340
0
  0
BLOCK_RECORD
  5
316
330
1
100
AcDbSymbolTableRecord
100
AcDbBlockTableRecord
  2
_D_26
340
0
  0
BLOCK_RECORD
  5
323
330
1
100
AcDbSymbolTableRecord
100
AcDbBlockTableRecord
  2
_D_27
340
0
  0
BLOCK_RECORD
  5
34B
330
1
100
AcDbSymbolTableRecord
100
AcDbBlockTableRecord
  2
_D_28
340
0
  0
BLOCK_RECORD
  5
358
330
1
100
AcDbSymbolTableRecord
100
AcDbBlockTableRecord
  2
_D_29
340
0
  0
BLOCK_RECORD
  5
380
330
1
100
AcDbSymbolTableRecord
100
AcDbBlockTableRecord
  2
_D_30
340
0
  0
BLOCK_RECORD
  5
38D
330
1
100
AcDbSymbolTableRecord
100
AcDbBlockTableRecord
  2
_D_31
340
0
  0
ENDTAB
  0
ENDSEC
  0
SECTION
  2
BLOCKS
  0
BLOCK
  5
20
330
1F
100
AcDbEntity
  8
0
100
AcDbBlockBegin
  2
*Model_Space
 70
     0
 10
0.0
 20
0.0
 30
0.0
  3
*Model_Space
  1

  0
ENDBLK
  5
21
330
1F
100
AcDbEntity
  8
0
100
AcDbBlockEnd
  0
BLOCK
  5
1C
330
1B
100
AcDbEntity
 67
     1
  8
0
100
AcDbBlockBegin
  2
*Paper_Space
 70
     0
 10
0.0
 20
0.0
 30
0.0
  3
*Paper_Space
  1

  0
ENDBLK
  5
1D
330
1B
100
AcDbEntity
 67
     1
  8
0
100
AcDbBlockEnd
  0
BLOCK
  5
24
330
23
100
AcDbEntity
  8
0
100
AcDbBlockBegin
  2
*Paper_Space0
 70
     0
 10
0.0
 20
0.0
 30
0.0
  3
*Paper_Space0
  1

  0
ENDBLK
  5
25
330
23
100
AcDbEntity
  8
0
100
AcDbBlockEnd
  0
BLOCK
  5
DC
330
DB
100
AcDbEntity
  8
0
100
AcDbBlockBegin
  2
SW_NOTE_0
 70
     0
 10
0.0
 20
0.0
 30
0.0
  3
SW_NOTE_0
  1

  0
MTEXT
  5
DF
330
DB
100
AcDbEntity
  8
0
  6
Continuous
 62
     0
370
     0
100
AcDbMText
 10
0.0
 20
6.1391851107
 30
0.0
 40
4.7625
 41
0.0
 71
     1
 72
     1
  1
Rep: 30
  7
SLDTEXTSTYLE0
 73
     1
 44
1.0
  0
MTEXT
  5
E0
330
DB
100
AcDbEntity
  8
0
  6
Continuous
 62
     0
370
     0
100
AcDbMText
 10
0.0
 20
-1.2108149765
 30
0.0
 40
4.7625
 41
0.0
 71
     1
 72
     1
  1
Nombre: 1
  7
SLDTEXTSTYLE0
 73
     1
 44
1.0
  0
ENDBLK
  5
DD
330
DB
100
AcDbEntity
  8
0
100
AcDbBlockEnd
  0
BLOCK
  5
E3
330
E2
100
AcDbEntity
  8
0
100
AcDbBlockBegin
  2
SW_NOTE_1
 70
     0
 10
0.0
 20
0.0
 30
0.0
  3
SW_NOTE_1
  1

  0
MTEXT
  5
E5
330
E2
100
AcDbEntity
  8
0
  6
Continuous
 62
     0
370
     0
100
AcDbMText
 10
0.0
 20
6.1391851107
 30
0.0
 40
4.7625
 41
0.0
 71
     1
 72
     1
  1
Rep: 31
  7
SLDTEXTSTYLE0
 73
     1
 44
1.0
  0
MTEXT
  5
E6
330
E2
100
AcDbEntity
  8
0
  6
Continuous
 62
     0
370
     0
100
AcDbMText
 10
0.0
 20
-1.2108149765
 30
0.0
 40
4.7625
 41
0.0
 71
     1
 72
     1
  1
Nombre: 1
  7
SLDTEXTSTYLE0
 73
     1
 44
1.0
  0
ENDBLK
  5
E4
330
E2
100
AcDbEntity
  8
0
100
AcDbBlockEnd
  0
BLOCK
  5
E9
330
E8
100
AcDbEntity
  8
0
100
AcDbBlockBegin
  2
SW_NOTE_2
 70
     0
 10
0.0
 20
0.0
 30
0.0
  3
SW_NOTE_2
  1

  0
MTEXT
  5
EB
330
E8
100
AcDbEntity
  8
0
  6
Continuous
 62
     0
370
     0
100
AcDbMText
 10
0.0
 20
6.1391851107
 30
0.0
 40
4.7625
 41
0.0
 71
     1
 72
     1
  1
Rep: 32
  7
SLDTEXTSTYLE0
 73
     1
 44
1.0
  0
MTEXT
  5
EC
330
E8
100
AcDbEntity
  8
0
  6
Continuous
 62
     0
370
     0
100
AcDbMText
 10
0.0
 20
-1.2108149765
 30
0.0
 40
4.7625
 41
0.0
 71
     1
 72
     1
  1
Nombre: 1
  7
SLDTEXTSTYLE0
 73
     1
 44
1.0
  0
ENDBLK
  5
EA
330
E8
100
AcDbEntity
  8
0
100
AcDbBlockEnd
  0
BLOCK
  5
151
330
150
100
AcDbEntity
  8
0
100
AcDbBlockBegin
  2
_D
 70
     0
 10
0.0
 20
0.0
 30
0.0
  3
_D
  1

  0
SOLID
  5
153
330
150
100
AcDbEntity
  8
0
  6
Continuous
 62
     7
370
    18
100
AcDbTrace
 10
109.3339462103
 20
306.1780523328
 30
0.0
 11
112.6359462103
 21
305.6700523328
 31
0.0
 12
112.6359462103
 22
306.6860523328
 32
0.0
 13
112.6359462103
 23
306.6860523328
 33
0.0
  0
SOLID
  5
154
330
150
100
AcDbEntity
  8
0
  6
Continuous
 62
     7
370
    18
100
AcDbTrace
 10
149.3339462103
 20
306.1780523328
 30
0.0
 11
146.0319462103
 21
306.6860523328
 31
0.0
 12
146.0319462103
 22
305.6700523328
 32
0.0
 13
146.0319462103
 23
305.6700523328
 33
0.0
  0
LINE
  5
155
330
150
100
AcDbEntity
  8
0
  6
Continuous
 62
     7
370
    18
100
AcDbLine
 10
109.3339462103
 20
347.3993349633
 30
0.0
 11
109.3339462103
 21
305.1780523328
 31
0.0
  0
LINE
  5
156
330
150
100
AcDbEntity
  8
0
  6
Continuous
 62
     7
370
    18
100
AcDbLine
 10
149.3339462103
 20
347.3993349633
 30
0.0
 11
149.3339462103
 21
305.1780523328
 31
0.0
  0
LINE
  5
157
330
150
100
AcDbEntity
  8
0
  6
Continuous
 62
     7
370
    18
100
AcDbLine
 10
109.3339462103
 20
306.1780523328
 30
0.0
 11
149.3339462103
 21
306.1780523328
 31
0.0
  0
MTEXT
  5
158
330
150
100
AcDbEntity
  8
0
  6
Continuous
 62
     7
370
    18
100
AcDbMText
 10
127.2334674652
 20
310.6897892474
 30
0.0
 40
3.5
 41
0.0
 71
     1
 72
     1
  1
40
  7
SLDTEXTSTYLE0
 73
     1
 44
1.0
  0
ENDBLK
  5
152
330
150
100
AcDbEntity
  8
0
100
AcDbBlockEnd
  0
BLOCK
  5
15B
330
15A
100
AcDbEntity
  8
0
100
AcDbBlockBegin
  2
_D_1
 70
     0
 10
0.0
 20
0.0
 30
0.0
  3
_D_1
  1

  0
SOLID
  5
15D
330
15A
100
AcDbEntity
  8
0
  6
Continuous
 62
     7
370
    18
100
AcDbTrace
 10
89.3339462103
 20
296.3993349633
 30
0.0
 11
92.6359462103
 21
295.8913349633
 31
0.0
 12
92.6359462103
 22
296.9073349633
 32
0.0
 13
92.6359462103
 23
296.9073349633
 33
0.0
  0
SOLID
  5
15E
330
15A
100
AcDbEntity
  8
0
  6
Continuous
 62
     7
370
    18
100
AcDbTrace
 10
169.3339462103
 20
296.3993349633
 30
0.0
 11
166.0319462103
 21
296.9073349633
 31
0.0
 12
166.0319462103
 22
295.8913349633
 32
0.0
 13
166.0319462103
 23
295.8913349633
 33
0.0
  0
LINE
  5
15F
330
15A
100
AcDbEntity
  8
0
  6
Continuous
 62
     7
370
    18
100
AcDbLine
 10
89.3339462103
 20
317.3993349633
 30
0.0
 11
89.3339462103
 21
295.3993349633
 31
0.0
  0
LINE
  5
160
330
15A
100
AcDbEntity
  8
0
  6
Continuous
 62
     7
370
    18
100
AcDbLine
 10
169.3339462103
 20
317.3993349633
 30
0.0
 11
169.3339462103
 21
295.3993349633
 31
0.0
  0
LINE
  5
161
330
15A
100
AcDbEntity
  8
0
  6
Continuous
 62
     7
370
    18
100
AcDbLine
 10
89.3339462103
 20
296.3993349633
 30
0.0
 11
169.3339462103
 21
296.3993349633
 31
0.0
  0
MTEXT
  5
162
330
15A
100
AcDbEntity
  8
0
  6
Continuous
 62
     7
370
    18
100
AcDbMText
 10
127.2334674652
 20
300.9110718779
 30
0.0
 40
3.5
 41
0.0
 71
     1
 72
     1
  1
80
  7
SLDTEXTSTYLE0
 73
     1
 44
1.0
  0
ENDBLK
  5
15C
330
15A
100
AcDbEntity
  8
0
100
AcDbBlockEnd
  0
BLOCK
  5
165
330
164
100
AcDbEntity
  8
0
100
AcDbBlockBegin
  2
_D_2
 70
     0
 10
0.0
 20
0.0
 30
0.0
  3
_D_2
  1

  0
SOLID
  5
167
330
164
100
AcDbEntity
  8
0
  6
Continuous
 62
     7
370
    18
100
AcDbTrace
 10
70.6111720705
 20
318.3993349633
 30
0.0
 11
71.1191720705
 21
321.7013349633
 31
0.0
 12
70.1031720705
 22
321.7013349633
 32
0.0
 13
70.1031720705
 23
321.7013349633
 33
0.0
  0
SOLID
  5
168
330
164
100
AcDbEntity
  8
0
  6
Continuous
 62
     7
370
    18
100
AcDbTrace
 10
70.6111720705
 20
380.3993349633
 30
0.0
 11
70.1031720705
 21
377.0973349633
 31
0.0
 12
71.1191720705
 22
377.0973349633
 32
0.0
 13
71.1191720705
 23
377.0973349633
 33
0.0
  0
LINE
  5
169
330
164
100
AcDbEntity
  8
0
  6
Continuous
 62
     7
370
    18
100
AcDbLine
 10
88.3339462103
 20
318.3993349633
 30
0.0
 11
69.6111720705
 21
318.3993349633
 31
0.0
  0
LINE
  5
16A
330
164
100
AcDbEntity
  8
0
  6
Continuous
 62
     7
370
    18
100
AcDbLine
 10
88.3339462103
 20
380.3993349633
 30
0.0
 11
69.6111720705
 21
380.3993349633
 31
0.0
  0
LINE
  5
16B
330
164
100
AcDbEntity
  8
0
  6
Continuous
 62
     7
370
    18
100
AcDbLine
 10
70.6111720705
 20
318.3993349633
 30
0.0
 11
70.6111720705
 21
380.3993349633
 31
0.0
  0
MTEXT
  5
16C
330
164
100
AcDbEntity
  8
0
  6
Continuous
 62
     7
370
    18
100
AcDbMText
 10
66.0994351559
 20
346.9492782472
 30
0.0
 40
3.5
 41
0.0
 71
     1
 72
     1
  1
62
  7
SLDTEXTSTYLE0
 11
6.123233995736766E-17
 21
1.0
 31
0.0
 73
     1
 44
1.0
  0
ENDBLK
  5
166
330
164
100
AcDbEntity
  8
0
100
AcDbBlockEnd
  0
BLOCK
  5
16F
330
16E
100
AcDbEntity
  8
0
100
AcDbBlockBegin
  2
_D_3
 70
     0
 10
0.0
 20
0.0
 30
0.0
  3
_D_3
  1

  0
SOLID
  5
171
330
16E
100
AcDbEntity
  8
0
  6
Continuous
 62
     7
370
    18
100
AcDbTrace
 10
79.3339462103
 20
348.3993349633
 30
0.0
 11
78.8259462103
 21
345.0973349633
 31
0.0
 12
79.8419462103
 22
345.0973349633
 32
0.0
 13
79.8419462103
 23
345.0973349633
 33
0.0
  0
SOLID
  5
172
330
16E
100
AcDbEntity
  8
0
  6
Continuous
 62
     7
370
    18
100
AcDbTrace
 10
79.3339462103
 20
318.3993349633
 30
0.0
 11
79.8419462103
 21
321.7013349633
 31
0.0
 12
78.8259462103
 22
321.7013349633
 32
0.0
 13
78.8259462103
 23
321.7013349633
 33
0.0
  0
LINE
  5
173
330
16E
100
AcDbEntity
  8
0
  6
Continuous
 62
     7
370
    18
100
AcDbLine
 10
148.3339462103
 20
348.3993349633
 30
0.0
 11
78.3339462103
 21
348.3993349633
 31
0.0
  0
LINE
  5
174
330
16E
100
AcDbEntity
  8
0
  6
Continuous
 62
     7
370
    18
100
AcDbLine
 10
88.3339462103
 20
318.3993349633
 30
0.0
 11
78.3339462103
 21
318.3993349633
 31
0.0
  0
LINE
  5
175
330
16E
100
AcDbEntity
  8
0
  6
Continuous
 62
     7
370
    18
100
AcDbLine
 10
79.3339462103
 20
348.3993349633
 30
0.0
 11
79.3339462103
 21
318.3993349633
 31
0.0
  0
MTEXT
  5
176
330
16E
100
AcDbEntity
  8
0
  6
Continuous
 62
     7
370
    18
100
AcDbMText
 10
74.8222092957
 20
329.6995849892
 30
0.0
 40
3.5
 41
0.0
 71
     1
 72
     1
  1
30
  7
SLDTEXTSTYLE0
 11
-7.044195017643634E-15
 21
1.0
 31
0.0
 73
     1
 44
1.0
  0
ENDBLK
  5
170
330
16E
100
AcDbEntity
  8
0
100
AcDbBlockEnd
  0
BLOCK
  5
178
330
177
100
AcDbEntity
  8
0
100
AcDbBlockBegin
  2
SW_CENTERMARKSYMBOL_0
 70
     0
 10
0.0
 20
0.0
 30
0.0
  3
SW_CENTERMARKSYMBOL_0
  1

  0
LINE
  5
17A
330
177
100
AcDbEntity
  8
0
  6
Continuous
 62
     0
370
     0
100
AcDbLine
 10
0.0
 20
0.0
 30
0.0
 11
0.0
 21
2.5
 31
0.0
  0
LINE
  5
17B
330
177
100
AcDbEntity
  8
0
  6
Continuous
 62
     0
370
     0
100
AcDbLine
 10
0.0
 20
0.0
 30
0.0
 11
-2.5
 21
0.0
 31
0.0
  0
LINE
  5
17C
330
177
100
AcDbEntity
  8
0
  6
Continuous
 62
     0
370
     0
100
AcDbLine
 10
0.0
 20
0.0
 30
0.0
 11
0.0
 21
-2.5
 31
0.0
  0
LINE
  5
17D
330
177
100
AcDbEntity
  8
0
  6
Continuous
 62
     0
370
     0
100
AcDbLine
 10
0.0
 20
0.0
 30
0.0
 11
2.5
 21
0.0
 31
0.0
  0
LINE
  5
17E
330
177
100
AcDbEntity
  8
0
  6
Continuous
 62
     0
370
     0
100
AcDbLine
 10
0.0
 20
5.0
 30
0.0
 11
0.0
 21
8.0
 31
0.0
  0
LINE
  5
17F
330
177
100
AcDbEntity
  8
0
  6
Continuous
 62
     0
370
     0
100
AcDbLine
 10
-5.0
 20
0.0
 30
0.0
 11
-8.0
 21
0.0
 31
0.0
  0
LINE
  5
180
330
177
100
AcDbEntity
  8
0
  6
Continuous
 62
     0
370
     0
100
AcDbLine
 10
0.0
 20
-5.0
 30
0.0
 11
0.0
 21
-8.0
 31
0.0
  0
LINE
  5
181
330
177
100
AcDbEntity
  8
0
  6
Continuous
 62
     0
370
     0
100
AcDbLine
 10
5.0
 20
0.0
 30
0.0
 11
8.0
 21
0.0
 31
0.0
  0
ENDBLK
  5
179
330
177
100
AcDbEntity
  8
0
100
AcDbBlockEnd
  0
BLOCK
  5
184
330
183
100
AcDbEntity
  8
0
100
AcDbBlockBegin
  2
SW_CENTERMARKSYMBOL_1
 70
     0
 10
0.0
 20
0.0
 30
0.0
  3
SW_CENTERMARKSYMBOL_1
  1

  0
LINE
  5
186
330
183
100
AcDbEntity
  8
0
  6
Continuous
 62
     0
370
     0
100
AcDbLine
 10
0.0
 20
0.0
 30
0.0
 11
0.0
 21
2.5
 31
0.0
  0
LINE
  5
187
330
183
100
AcDbEntity
  8
0
  6
Continuous
 62
     0
370
     0
100
AcDbLine
 10
0.0
 20
0.0
 30
0.0
 11
-2.5
 21
0.0
 31
0.0
  0
LINE
  5
188
330
183
100
AcDbEntity
  8
0
  6
Continuous
 62
     0
370
     0
100
AcDbLine
 10
0.0
 20
0.0
 30
0.0
 11
0.0
 21
-2.5
 31
0.0
  0
LINE
  5
189
330
183
100
AcDbEntity
  8
0
  6
Continuous
 62
     0
370
     0
100
AcDbLine
 10
0.0
 20
0.0
 30
0.0
 11
2.5
 21
0.0
 31
0.0
  0
LINE
  5
18A
330
183
100
AcDbEntity
  8
0
  6
Continuous
 62
     0
370
     0
100
AcDbLine
 10
0.0
 20
5.0
 30
0.0
 11
0.0
 21
8.0
 31
0.0
  0
LINE
  5
18B
330
183
100
AcDbEntity
  8
0
  6
Continuous
 62
     0
370
     0
100
AcDbLine
 10
-5.0
 20
0.0
 30
0.0
 11
-8.0
 21
0.0
 31
0.0
  0
LINE
  5
18C
330
183
100
AcDbEntity
  8
0
  6
Continuous
 62
     0
370
     0
100
AcDbLine
 10
0.0
 20
-5.0
 30
0.0
 11
0.0
 21
-8.0
 31
0.0
  0
LINE
  5
18D
330
183
100
AcDbEntity
  8
0
  6
Continuous
 62
     0
370
     0
100
AcDbLine
 10
5.0
 20
0.0
 30
0.0
 11
8.0
 21
0.0
 31
0.0
  0
ENDBLK
  5
185
330
183
100
AcDbEntity
  8
0
100
AcDbBlockEnd
  0
BLOCK
  5
1A2
330
1A1
100
AcDbEntity
  8
0
100
AcDbBlockBegin
  2
_D_4
 70
     0
 10
0.0
 20
0.0
 30
0.0
  3
_D_4
  1

  0
SOLID
  5
1A4
330
1A1
100
AcDbEntity
  8
0
  6
Continuous
 62
     7
370
    18
100
AcDbTrace
 10
239.6481949102
 20
380.1064417445
 30
0.0
 11
242.3422717465
 21
382.0820980911
 31
0.0
 12
241.6238512568
 22
382.8005185808
 32
0.0
 13
241.6238512568
 23
382.8005185808
 33
0.0
  0
LINE
  5
1A5
330
1A1
100
AcDbEntity
  8
0
  6
Continuous
 62
     7
370
    18
100
AcDbLine
 10
239.6481949102
 20
380.1064417445
 30
0.0
 11
251.0665737231
 21
391.5248205574
 31
0.0
  0
LINE
  5
1A6
330
1A1
100
AcDbEntity
  8
0
  6
Continuous
 62
     7
370
    18
100
AcDbLine
 10
239.6481949102
 20
380.1064417445
 30
0.0
 11
238.941088129
 21
379.3993349633
 31
0.0
  0
MTEXT
  5
1A7
330
1A1
100
AcDbEntity
  8
0
  6
Continuous
 62
     7
370
    18
100
AcDbMText
 10
244.0778738922
 20
390.8482862205
 30
0.0
 40
3.5
 41
0.0
 71
     1
 72
     1
  1
R1
  7
SLDTEXTSTYLE0
 11
0.7071067811865556
 21
0.7071067811865395
 31
0.0
 73
     1
 44
1.0
  0
ENDBLK
  5
1A3
330
1A1
100
AcDbEntity
  8
0
100
AcDbBlockEnd
  0
BLOCK
  5
1AA
330
1A9
100
AcDbEntity
  8
0
100
AcDbBlockBegin
  2
_D_5
 70
     0
 10
0.0
 20
0.0
 30
0.0
  3
_D_5
  1

  0
SOLID
  5
1AC
330
1A9
100
AcDbEntity
  8
0
  6
Continuous
 62
     7
370
    18
100
AcDbTrace
 10
249.3311362227
 20
342.8993349633
 30
0.0
 11
249.8391362227
 21
346.2013349633
 31
0.0
 12
248.8231362227
 22
346.2013349633
 32
0.0
 13
248.8231362227
 23
346.2013349633
 33
0.0
  0
SOLID
  5
1AD
330
1A9
100
AcDbEntity
  8
0
  6
Continuous
 62
     7
370
    18
100
AcDbTrace
 10
249.3311362227
 20
353.8993349633
 30
0.0
 11
248.8231362227
 21
350.5973349633
 31
0.0
 12
249.8391362227
 22
350.5973349633
 32
0.0
 13
249.8391362227
 23
350.5973349633
 33
0.0
  0
LINE
  5
1AE
330
1A9
100
AcDbEntity
  8
0
  6
Continuous
 62
     7
370
    18
100
AcDbLine
 10
240.916088129
 20
342.8993349633
 30
0.0
 11
250.3311362227
 21
342.8993349633
 31
0.0
  0
LINE
  5
1AF
330
1A9
100
AcDbEntity
  8
0
  6
Continuous
 62
     7
370
    18
100
AcDbLine
 10
240.916088129
 20
353.8993349633
 30
0.0
 11
250.3311362227
 21
353.8993349633
 31
0.0
  0
LINE
  5
1B0
330
1A9
100
AcDbEntity
  8
0
  6
Continuous
 62
     7
370
    18
100
AcDbLine
 10
249.3311362227
 20
342.8993349633
 30
0.0
 11
249.3311362227
 21
353.8993349633
 31
0.0
  0
LINE
  5
1B1
330
1A9
100
AcDbEntity
  8
0
  6
Continuous
 62
     7
370
    18
100
AcDbLine
 10
249.3311362227
 20
353.8993349633
 30
0.0
 11
249.3311362227
 21
367.0241761482
 31
0.0
  0
MTEXT
  5
1B2
330
1A9
100
AcDbEntity
  8
0
  6
Continuous
 62
     7
370
    18
100
AcDbMText
 10
244.8193991335
 20
356.5735158972
 30
0.0
 40
3.5
 41
0.0
 71
     1
 72
     1
  1
%%c
  7
SLDTEXTSTYLE0
 11
6.123233995736766E-17
 21
1.0
 31
0.0
 73
     1
 44
1.0
  0
MTEXT
  5
1B3
330
1A9
100
AcDbEntity
  8
0
  6
Continuous
 62
     7
370
    18
100
AcDbMText
 10
244.7659269568
 20
361.8519532955
 30
0.0
 40
3.5
 41
0.0
 71
     1
 72
     1
  1
11
  7
SLDTEXTSTYLE0
 11
6.123233995736766E-17
 21
1.0
 31
0.0
 73
     1
 44
1.0
  0
ENDBLK
  5
1AB
330
1A9
100
AcDbEntity
  8
0
100
AcDbBlockEnd
  0
BLOCK
  5
1B7
330
1B6
100
AcDbEntity
  8
0
100
AcDbBlockBegin
  2
_D_6
 70
     0
 10
0.0
 20
0.0
 30
0.0
  3
_D_6
  1

  0
SOLID
  5
1B9
330
1B6
100
AcDbEntity
  8
0
  6
Continuous
 62
     7
370
    18
100
AcDbTrace
 10
209.941088129
 20
351.6993349633
 30
0.0
 11
210.449088129
 21
355.0013349633
 31
0.0
 12
209.433088129
 22
355.0013349633
 32
0.0
 13
209.433088129
 23
355.0013349633
 33
0.0
  0
SOLID
  5
1BA
330
1B6
100
AcDbEntity
  8
0
  6
Continuous
 62
     7
370
    18
100
AcDbTrace
 10
209.941088129
 20
345.0993349633
 30
0.0
 11
209.433088129
 21
341.7973349633
 31
0.0
 12
210.449088129
 22
341.7973349633
 32
0.0
 13
210.449088129
 23
341.7973349633
 33
0.0
  0
LINE
  5
1BB
330
1B6
100
AcDbEntity
  8
0
  6
Continuous
 62
     7
370
    18
100
AcDbLine
 10
218.941088129
 20
351.6993349633
 30
0.0
 11
208.941088129
 21
351.6993349633
 31
0.0
  0
LINE
  5
1BC
330
1B6
100
AcDbEntity
  8
0
  6
Continuous
 62
     7
370
    18
100
AcDbLine
 10
218.941088129
 20
345.0993349633
 30
0.0
 11
208.941088129
 21
345.0993349633
 31
0.0
  0
LINE
  5
1BD
330
1B6
100
AcDbEntity
  8
0
  6
Continuous
 62
     7
370
    18
100
AcDbLine
 10
209.941088129
 20
351.6993349633
 30
0.0
 11
209.941088129
 21
368.963759718
 31
0.0
  0
LINE
  5
1BE
330
1B6
100
AcDbEntity
  8
0
  6
Continuous
 62
     7
370
    18
100
AcDbLine
 10
209.941088129
 20
351.6993349633
 30
0.0
 11
209.941088129
 21
345.0993349633
 31
0.0
  0
LINE
  5
1BF
330
1B6
100
AcDbEntity
  8
0
  6
Continuous
 62
     7
370
    18
100
AcDbLine
 10
209.941088129
 20
345.0993349633
 30
0.0
 11
209.941088129
 21
338.7493349633
 31
0.0
  0
MTEXT
  5
1C0
330
1B6
100
AcDbEntity
  8
0
  6
Continuous
 62
     7
370
    18
100
AcDbMText
 10
205.4293510398
 20
354.6339323274
 30
0.0
 40
3.5
 41
0.0
 71
     1
 72
     1
  1
%%c
  7
SLDTEXTSTYLE0
 11
-7.044195017643634E-15
 21
1.0
 31
0.0
 73
     1
 44
1.0
  0
MTEXT
  5
1C1
330
1B6
100
AcDbEntity
  8
0
  6
Continuous
 62
     7
370
    18
100
AcDbMText
 10
205.3758788631
 20
359.9123697258
 30
0.0
 40
3.5
 41
0.0
 71
     1
 72
     1
  1
6,60
  7
SLDTEXTSTYLE0
 11
-7.044195017643634E-15
 21
1.0
 31
0.0
 73
     1
 44
1.0
  0
ENDBLK
  5
1B8
330
1B6
100
AcDbEntity
  8
0
100
AcDbBlockEnd
  0
BLOCK
  5
1C4
330
1C3
100
AcDbEntity
  8
0
100
AcDbBlockBegin
  2
_D_7
 70
     0
 10
0.0
 20
0.0
 30
0.0
  3
_D_7
  1

  0
SOLID
  5
1C6
330
1C3
100
AcDbEntity
  8
0
  6
Continuous
 62
     7
370
    18
100
AcDbTrace
 10
219.941088129
 20
302.3993349633
 30
0.0
 11
223.243088129
 21
301.8913349633
 31
0.0
 12
223.243088129
 22
302.9073349633
 32
0.0
 13
223.243088129
 23
302.9073349633
 33
0.0
  0
SOLID
  5
1C7
330
1C3
100
AcDbEntity
  8
0
  6
Continuous
 62
     7
370
    18
100
AcDbTrace
 10
239.941088129
 20
302.3993349633
 30
0.0
 11
236.639088129
 21
302.9073349633
 31
0.0
 12
236.639088129
 22
301.8913349633
 32
0.0
 13
236.639088129
 23
301.8913349633
 33
0.0
  0
LINE
  5
1C8
330
1C3
100
AcDbEntity
  8
0
  6
Continuous
 62
     7
370
    18
100
AcDbLine
 10
219.941088129
 20
317.3993349633
 30
0.0
 11
219.941088129
 21
301.3993349633
 31
0.0
  0
LINE
  5
1C9
330
1C3
100
AcDbEntity
  8
0
  6
Continuous
 62
     7
370
    18
100
AcDbLine
 10
239.941088129
 20
317.3993349633
 30
0.0
 11
239.941088129
 21
301.3993349633
 31
0.0
  0
LINE
  5
1CA
330
1C3
100
AcDbEntity
  8
0
  6
Continuous
 62
     7
370
    18
100
AcDbLine
 10
219.941088129
 20
302.3993349633
 30
0.0
 11
239.941088129
 21
302.3993349633
 31
0.0
  0
MTEXT
  5
1CB
330
1C3
100
AcDbEntity
  8
0
  6
Continuous
 62
     7
370
    18
100
AcDbMText
 10
227.5844713808
 20
306.9110718779
 30
0.0
 40
3.5
 41
0.0
 71
     1
 72
     1
  1
20
  7
SLDTEXTSTYLE0
 73
     1
 44
1.0
  0
ENDBLK
  5
1C5
330
1C3
100
AcDbEntity
  8
0
100
AcDbBlockEnd
  0
BLOCK
  5
1CE
330
1CD
100
AcDbEntity
  8
0
100
AcDbBlockBegin
  2
_D_8
 70
     0
 10
0.0
 20
0.0
 30
0.0
  3
_D_8
  1

  0
SOLID
  5
1D0
330
1CD
100
AcDbEntity
  8
0
  6
Continuous
 62
     7
370
    18
100
AcDbTrace
 10
239.941088129
 20
334.3777862637
 30
0.0
 11
236.639088129
 21
334.8857862637
 31
0.0
 12
236.639088129
 22
333.8697862637
 32
0.0
 13
236.639088129
 23
333.8697862637
 33
0.0
  0
SOLID
  5
1D1
330
1CD
100
AcDbEntity
  8
0
  6
Continuous
 62
     7
370
    18
100
AcDbTrace
 10
231.941088129
 20
334.3777862637
 30
0.0
 11
235.243088129
 21
333.8697862637
 31
0.0
 12
235.243088129
 22
334.8857862637
 32
0.0
 13
235.243088129
 23
334.8857862637
 33
0.0
  0
LINE
  5
1D2
330
1CD
100
AcDbEntity
  8
0
  6
Continuous
 62
     7
370
    18
100
AcDbLine
 10
231.941088129
 20
341.8993349633
 30
0.0
 11
231.941088129
 21
333.3777862637
 31
0.0
  0
LINE
  5
1D3
330
1CD
100
AcDbEntity
  8
0
  6
Continuous
 62
     7
370
    18
100
AcDbLine
 10
239.941088129
 20
334.3777862637
 30
0.0
 11
247.2883093686
 21
334.3777862637
 31
0.0
  0
LINE
  5
1D4
330
1CD
100
AcDbEntity
  8
0
  6
Continuous
 62
     7
370
    18
100
AcDbLine
 10
239.941088129
 20
334.3777862637
 30
0.0
 11
231.941088129
 21
334.3777862637
 31
0.0
  0
MTEXT
  5
1D5
330
1CD
100
AcDbEntity
  8
0
  6
Continuous
 62
     7
370
    18
100
AcDbMText
 10
244.7021981751
 20
338.8895231783
 30
0.0
 40
3.5
 41
0.0
 71
     1
 72
     1
  1
8
  7
SLDTEXTSTYLE0
 73
     1
 44
1.0
  0
ENDBLK
  5
1CF
330
1CD
100
AcDbEntity
  8
0
100
AcDbBlockEnd
  0
BLOCK
  5
1E8
330
1E7
100
AcDbEntity
  8
0
100
AcDbBlockBegin
  2
_D_9
 70
     0
 10
0.0
 20
0.0
 30
0.0
  3
_D_9
  1

  0
SOLID
  5
1EA
330
1E7
100
AcDbEntity
  8
0
  6
Continuous
 62
     7
370
    18
100
AcDbTrace
 10
369.780195599
 20
348.3993349633
 30
0.0
 11
369.272195599
 21
345.0973349633
 31
0.0
 12
370.288195599
 22
345.0973349633
 32
0.0
 13
370.288195599
 23
345.0973349633
 33
0.0
  0
SOLID
  5
1EB
330
1E7
100
AcDbEntity
  8
0
  6
Continuous
 62
     7
370
    18
100
AcDbTrace
 10
369.780195599
 20
318.3993349633
 30
0.0
 11
370.288195599
 21
321.7013349633
 31
0.0
 12
369.272195599
 22
321.7013349633
 32
0.0
 13
369.272195599
 23
321.7013349633
 33
0.0
  0
LINE
  5
1EC
330
1E7
100
AcDbEntity
  8
0
  6
Continuous
 62
     7
370
    18
100
AcDbLine
 10
433.780195599
 20
348.3993349633
 30
0.0
 11
368.780195599
 21
348.3993349633
 31
0.0
  0
LINE
  5
1ED
330
1E7
100
AcDbEntity
  8
0
  6
Continuous
 62
     7
370
    18
100
AcDbLine
 10
378.780195599
 20
318.3993349633
 30
0.0
 11
368.780195599
 21
318.3993349633
 31
0.0
  0
LINE
  5
1EE
330
1E7
100
AcDbEntity
  8
0
  6
Continuous
 62
     7
370
    18
100
AcDbLine
 10
369.780195599
 20
348.3993349633
 30
0.0
 11
369.780195599
 21
318.3993349633
 31
0.0
  0
MTEXT
  5
1EF
330
1E7
100
AcDbEntity
  8
0
  6
Continuous
 62
     7
370
    18
100
AcDbMText
 10
365.2684586844
 20
330.4034438187
 30
0.0
 40
3.5
 41
0.0
 71
     1
 72
     1
  1
30
  7
SLDTEXTSTYLE0
 11
-7.044195017643634E-15
 21
1.0
 31
0.0
 73
     1
 44
1.0
  0
ENDBLK
  5
1E9
330
1E7
100
AcDbEntity
  8
0
100
AcDbBlockEnd
  0
BLOCK
  5
1F2
330
1F1
100
AcDbEntity
  8
0
100
AcDbBlockBegin
  2
_D_10
 70
     0
 10
0.0
 20
0.0
 30
0.0
  3
_D_10
  1

  0
SOLID
  5
1F4
330
1F1
100
AcDbEntity
  8
0
  6
Continuous
 62
     7
370
    18
100
AcDbTrace
 10
357.780195599
 20
318.3993349633
 30
0.0
 11
358.288195599
 21
321.7013349633
 31
0.0
 12
357.272195599
 22
321.7013349633
 32
0.0
 13
357.272195599
 23
321.7013349633
 33
0.0
  0
SOLID
  5
1F5
330
1F1
100
AcDbEntity
  8
0
  6
Continuous
 62
     7
370
    18
100
AcDbTrace
 10
357.780195599
 20
380.3993349633
 30
0.0
 11
357.272195599
 21
377.0973349633
 31
0.0
 12
358.288195599
 22
377.0973349633
 32
0.0
 13
358.288195599
 23
377.0973349633
 33
0.0
  0
LINE
  5
1F6
330
1F1
100
AcDbEntity
  8
0
  6
Continuous
 62
     7
370
    18
100
AcDbLine
 10
378.780195599
 20
318.3993349633
 30
0.0
 11
356.780195599
 21
318.3993349633
 31
0.0
  0
LINE
  5
1F7
330
1F1
100
AcDbEntity
  8
0
  6
Continuous
 62
     7
370
    18
100
AcDbLine
 10
378.780195599
 20
380.3993349633
 30
0.0
 11
356.780195599
 21
380.3993349633
 31
0.0
  0
LINE
  5
1F8
330
1F1
100
AcDbEntity
  8
0
  6
Continuous
 62
     7
370
    18
100
AcDbLine
 10
357.780195599
 20
318.3993349633
 30
0.0
 11
357.780195599
 21
380.3993349633
 31
0.0
  0
MTEXT
  5
1F9
330
1F1
100
AcDbEntity
  8
0
  6
Continuous
 62
     7
370
    18
100
AcDbMText
 10
353.2684586844
 20
343.321781227
 30
0.0
 40
3.5
 41
0.0
 71
     1
 72
     1
  1
62
  7
SLDTEXTSTYLE0
 11
6.123233995736766E-17
 21
1.0
 31
0.0
 73
     1
 44
1.0
  0
ENDBLK
  5
1F3
330
1F1
100
AcDbEntity
  8
0
100
AcDbBlockEnd
  0
BLOCK
  5
1FC
330
1FB
100
AcDbEntity
  8
0
100
AcDbBlockBegin
  2
_D_11
 70
     0
 10
0.0
 20
0.0
 30
0.0
  3
_D_11
  1

  0
SOLID
  5
1FE
330
1FB
100
AcDbEntity
  8
0
  6
Continuous
 62
     7
370
    18
100
AcDbTrace
 10
399.780195599
 20
308.3993349633
 30
0.0
 11
403.082195599
 21
307.8913349633
 31
0.0
 12
403.082195599
 22
308.9073349633
 32
0.0
 13
403.082195599
 23
308.9073349633
 33
0.0
  0
SOLID
  5
1FF
330
1FB
100
AcDbEntity
  8
0
  6
Continuous
 62
     7
370
    18
100
AcDbTrace
 10
434.780195599
 20
308.3993349633
 30
0.0
 11
431.478195599
 21
308.9073349633
 31
0.0
 12
431.478195599
 22
307.8913349633
 32
0.0
 13
431.478195599
 23
307.8913349633
 33
0.0
  0
LINE
  5
200
330
1FB
100
AcDbEntity
  8
0
  6
Continuous
 62
     7
370
    18
100
AcDbLine
 10
399.780195599
 20
347.3993349633
 30
0.0
 11
399.780195599
 21
307.3993349633
 31
0.0
  0
LINE
  5
201
330
1FB
100
AcDbEntity
  8
0
  6
Continuous
 62
     7
370
    18
100
AcDbLine
 10
434.780195599
 20
347.3993349633
 30
0.0
 11
434.780195599
 21
307.3993349633
 31
0.0
  0
LINE
  5
202
330
1FB
100
AcDbEntity
  8
0
  6
Continuous
 62
     7
370
    18
100
AcDbLine
 10
399.780195599
 20
308.3993349633
 30
0.0
 11
434.780195599
 21
308.3993349633
 31
0.0
  0
MTEXT
  5
203
330
1FB
100
AcDbEntity
  8
0
  6
Continuous
 62
     7
370
    18
100
AcDbMText
 10
415.0432286598
 20
312.9110718779
 30
0.0
 40
3.5
 41
0.0
 71
     1
 72
     1
  1
35
  7
SLDTEXTSTYLE0
 73
     1
 44
1.0
  0
ENDBLK
  5
1FD
330
1FB
100
AcDbEntity
  8
0
100
AcDbBlockEnd
  0
BLOCK
  5
206
330
205
100
AcDbEntity
  8
0
100
AcDbBlockBegin
  2
_D_12
 70
     0
 10
0.0
 20
0.0
 30
0.0
  3
_D_12
  1

  0
SOLID
  5
208
330
205
100
AcDbEntity
  8
0
  6
Continuous
 62
     7
370
    18
100
AcDbTrace
 10
379.780195599
 20
296.3993349633
 30
0.0
 11
383.082195599
 21
295.8913349633
 31
0.0
 12
383.082195599
 22
296.9073349633
 32
0.0
 13
383.082195599
 23
296.9073349633
 33
0.0
  0
SOLID
  5
209
330
205
100
AcDbEntity
  8
0
  6
Continuous
 62
     7
370
    18
100
AcDbTrace
 10
454.780195599
 20
296.3993349633
 30
0.0
 11
451.478195599
 21
296.9073349633
 31
0.0
 12
451.478195599
 22
295.8913349633
 32
0.0
 13
451.478195599
 23
295.8913349633
 33
0.0
  0
LINE
  5
20A
330
205
100
AcDbEntity
  8
0
  6
Continuous
 62
     7
370
    18
100
AcDbLine
 10
379.780195599
 20
317.3993349633
 30
0.0
 11
379.780195599
 21
295.3993349633
 31
0.0
  0
LINE
  5
20B
330
205
100
AcDbEntity
  8
0
  6
Continuous
 62
     7
370
    18
100
AcDbLine
 10
454.780195599
 20
317.3993349633
 30
0.0
 11
454.780195599
 21
295.3993349633
 31
0.0
  0
LINE
  5
20C
330
205
100
AcDbEntity
  8
0
  6
Continuous
 62
     7
370
    18
100
AcDbLine
 10
379.780195599
 20
296.3993349633
 30
0.0
 11
454.780195599
 21
296.3993349633
 31
0.0
  0
MTEXT
  5
20D
330
205
100
AcDbEntity
  8
0
  6
Continuous
 62
     7
370
    18
100
AcDbMText
 10
415.0432286598
 20
300.9110718779
 30
0.0
 40
3.5
 41
0.0
 71
     1
 72
     1
  1
75
  7
SLDTEXTSTYLE0
 73
     1
 44
1.0
  0
ENDBLK
  5
207
330
205
100
AcDbEntity
  8
0
100
AcDbBlockEnd
  0
BLOCK
  5
20F
330
20E
100
AcDbEntity
  8
0
100
AcDbBlockBegin
  2
SW_CENTERMARKSYMBOL_2
 70
     0
 10
0.0
 20
0.0
 30
0.0
  3
SW_CENTERMARKSYMBOL_2
  1

  0
LINE
  5
211
330
20E
100
AcDbEntity
  8
0
  6
Continuous
 62
     0
370
     0
100
AcDbLine
 10
0.0
 20
0.0
 30
0.0
 11
0.0
 21
2.5
 31
0.0
  0
LINE
  5
212
330
20E
100
AcDbEntity
  8
0
  6
Continuous
 62
     0
370
     0
100
AcDbLine
 10
0.0
 20
0.0
 30
0.0
 11
-2.5
 21
0.0
 31
0.0
  0
LINE
  5
213
330
20E
100
AcDbEntity
  8
0
  6
Continuous
 62
     0
370
     0
100
AcDbLine
 10
0.0
 20
0.0
 30
0.0
 11
0.0
 21
-2.5
 31
0.0
  0
LINE
  5
214
330
20E
100
AcDbEntity
  8
0
  6
Continuous
 62
     0
370
     0
100
AcDbLine
 10
0.0
 20
0.0
 30
0.0
 11
2.5
 21
0.0
 31
0.0
  0
LINE
  5
215
330
20E
100
AcDbEntity
  8
0
  6
Continuous
 62
     0
370
     0
100
AcDbLine
 10
0.0
 20
5.0
 30
0.0
 11
0.0
 21
8.0
 31
0.0
  0
LINE
  5
216
330
20E
100
AcDbEntity
  8
0
  6
Continuous
 62
     0
370
     0
100
AcDbLine
 10
-5.0
 20
0.0
 30
0.0
 11
-8.0
 21
0.0
 31
0.0
  0
LINE
  5
217
330
20E
100
AcDbEntity
  8
0
  6
Continuous
 62
     0
370
     0
100
AcDbLine
 10
0.0
 20
-5.0
 30
0.0
 11
0.0
 21
-8.0
 31
0.0
  0
LINE
  5
218
330
20E
100
AcDbEntity
  8
0
  6
Continuous
 62
     0
370
     0
100
AcDbLine
 10
5.0
 20
0.0
 30
0.0
 11
8.0
 21
0.0
 31
0.0
  0
ENDBLK
  5
210
330
20E
100
AcDbEntity
  8
0
100
AcDbBlockEnd
  0
BLOCK
  5
21B
330
21A
100
AcDbEntity
  8
0
100
AcDbBlockBegin
  2
SW_CENTERMARKSYMBOL_3
 70
     0
 10
0.0
 20
0.0
 30
0.0
  3
SW_CENTERMARKSYMBOL_3
  1

  0
LINE
  5
21D
330
21A
100
AcDbEntity
  8
0
  6
Continuous
 62
     0
370
     0
100
AcDbLine
 10
0.0
 20
0.0
 30
0.0
 11
0.0
 21
2.5
 31
0.0
  0
LINE
  5
21E
330
21A
100
AcDbEntity
  8
0
  6
Continuous
 62
     0
370
     0
100
AcDbLine
 10
0.0
 20
0.0
 30
0.0
 11
-2.5
 21
0.0
 31
0.0
  0
LINE
  5
21F
330
21A
100
AcDbEntity
  8
0
  6
Continuous
 62
     0
370
     0
100
AcDbLine
 10
0.0
 20
0.0
 30
0.0
 11
0.0
 21
-2.5
 31
0.0
  0
LINE
  5
220
330
21A
100
AcDbEntity
  8
0
  6
Continuous
 62
     0
370
     0
100
AcDbLine
 10
0.0
 20
0.0
 30
0.0
 11
2.5
 21
0.0
 31
0.0
  0
LINE
  5
221
330
21A
100
AcDbEntity
  8
0
  6
Continuous
 62
     0
370
     0
100
AcDbLine
 10
0.0
 20
5.0
 30
0.0
 11
0.0
 21
8.0
 31
0.0
  0
LINE
  5
222
330
21A
100
AcDbEntity
  8
0
  6
Continuous
 62
     0
370
     0
100
AcDbLine
 10
-5.0
 20
0.0
 30
0.0
 11
-8.0
 21
0.0
 31
0.0
  0
LINE
  5
223
330
21A
100
AcDbEntity
  8
0
  6
Continuous
 62
     0
370
     0
100
AcDbLine
 10
0.0
 20
-5.0
 30
0.0
 11
0.0
 21
-8.0
 31
0.0
  0
LINE
  5
224
330
21A
100
AcDbEntity
  8
0
  6
Continuous
 62
     0
370
     0
100
AcDbLine
 10
5.0
 20
0.0
 30
0.0
 11
8.0
 21
0.0
 31
0.0
  0
ENDBLK
  5
21C
330
21A
100
AcDbEntity
  8
0
100
AcDbBlockEnd
  0
BLOCK
  5
238
330
237
100
AcDbEntity
  8
0
100
AcDbBlockBegin
  2
_D_13
 70
     0
 10
0.0
 20
0.0
 30
0.0
  3
_D_13
  1

  0
SOLID
  5
23A
330
237
100
AcDbEntity
  8
0
  6
Continuous
 62
     7
370
    18
100
AcDbTrace
 10
507.2606356968
 20
351.6993349633
 30
0.0
 11
507.7686356968
 21
355.0013349633
 31
0.0
 12
506.7526356968
 22
355.0013349633
 32
0.0
 13
506.7526356968
 23
355.0013349633
 33
0.0
  0
SOLID
  5
23B
330
237
100
AcDbEntity
  8
0
  6
Continuous
 62
     7
370
    18
100
AcDbTrace
 10
507.2606356968
 20
345.0993349633
 30
0.0
 11
506.7526356968
 21
341.7973349633
 31
0.0
 12
507.7686356968
 22
341.7973349633
 32
0.0
 13
507.7686356968
 23
341.7973349633
 33
0.0
  0
LINE
  5
23C
330
237
100
AcDbEntity
  8
0
  6
Continuous
 62
     7
370
    18
100
AcDbLine
 10
516.2606356968
 20
351.6993349633
 30
0.0
 11
506.2606356968
 21
351.6993349633
 31
0.0
  0
LINE
  5
23D
330
237
100
AcDbEntity
  8
0
  6
Continuous
 62
     7
370
    18
100
AcDbLine
 10
516.2606356968
 20
345.0993349633
 30
0.0
 11
506.2606356968
 21
345.0993349633
 31
0.0
  0
LINE
  5
23E
330
237
100
AcDbEntity
  8
0
  6
Continuous
 62
     7
370
    18
100
AcDbLine
 10
507.2606356968
 20
351.6993349633
 30
0.0
 11
507.2606356968
 21
358.0493349633
 31
0.0
  0
LINE
  5
23F
330
237
100
AcDbEntity
  8
0
  6
Continuous
 62
     7
370
    18
100
AcDbLine
 10
507.2606356968
 20
351.6993349633
 30
0.0
 11
507.2606356968
 21
345.0993349633
 31
0.0
  0
LINE
  5
240
330
237
100
AcDbEntity
  8
0
  6
Continuous
 62
     7
370
    18
100
AcDbLine
 10
507.2606356968
 20
345.0993349633
 30
0.0
 11
507.2606356968
 21
326.5229298255
 31
0.0
  0
MTEXT
  5
241
330
237
100
AcDbEntity
  8
0
  6
Continuous
 62
     7
370
    18
100
AcDbMText
 10
502.7488986076
 20
326.5229298255
 30
0.0
 40
3.5
 41
0.0
 71
     1
 72
     1
  1
%%c
  7
SLDTEXTSTYLE0
 11
-7.044195017643634E-15
 21
1.0
 31
0.0
 73
     1
 44
1.0
  0
MTEXT
  5
242
330
237
100
AcDbEntity
  8
0
  6
Continuous
 62
     7
370
    18
100
AcDbMText
 10
502.695426431
 20
331.8013672239
 30
0.0
 40
3.5
 41
0.0
 71
     1
 72
     1
  1
6,60
  7
SLDTEXTSTYLE0
 11
-7.044195017643634E-15
 21
1.0
 31
0.0
 73
     1
 44
1.0
  0
ENDBLK
  5
239
330
237
100
AcDbEntity
  8
0
100
AcDbBlockEnd
  0
BLOCK
  5
245
330
244
100
AcDbEntity
  8
0
100
AcDbBlockBegin
  2
_D_14
 70
     0
 10
0.0
 20
0.0
 30
0.0
  3
_D_14
  1

  0
SOLID
  5
247
330
244
100
AcDbEntity
  8
0
  6
Continuous
 62
     7
370
    18
100
AcDbTrace
 10
547.2606356968
 20
342.8993349633
 30
0.0
 11
547.7686356968
 21
346.2013349633
 31
0.0
 12
546.7526356968
 22
346.2013349633
 32
0.0
 13
546.7526356968
 23
346.2013349633
 33
0.0
  0
SOLID
  5
248
330
244
100
AcDbEntity
  8
0
  6
Continuous
 62
     7
370
    18
100
AcDbTrace
 10
547.2606356968
 20
353.8993349633
 30
0.0
 11
546.7526356968
 21
350.5973349633
 31
0.0
 12
547.7686356968
 22
350.5973349633
 32
0.0
 13
547.7686356968
 23
350.5973349633
 33
0.0
  0
LINE
  5
249
330
244
100
AcDbEntity
  8
0
  6
Continuous
 62
     7
370
    18
100
AcDbLine
 10
538.2356356968
 20
342.8993349633
 30
0.0
 11
548.2606356968
 21
342.8993349633
 31
0.0
  0
LINE
  5
24A
330
244
100
AcDbEntity
  8
0
  6
Continuous
 62
     7
370
    18
100
AcDbLine
 10
538.2356356968
 20
353.8993349633
 30
0.0
 11
548.2606356968
 21
353.8993349633
 31
0.0
  0
LINE
  5
24B
330
244
100
AcDbEntity
  8
0
  6
Continuous
 62
     7
370
    18
100
AcDbLine
 10
547.2606356968
 20
342.8993349633
 30
0.0
 11
547.2606356968
 21
353.8993349633
 31
0.0
  0
LINE
  5
24C
330
244
100
AcDbEntity
  8
0
  6
Continuous
 62
     7
370
    18
100
AcDbLine
 10
547.2606356968
 20
353.8993349633
 30
0.0
 11
547.2606356968
 21
366.9301320936
 31
0.0
  0
MTEXT
  5
24D
330
244
100
AcDbEntity
  8
0
  6
Continuous
 62
     7
370
    18
100
AcDbMText
 10
542.7488986076
 20
356.4794718425
 30
0.0
 40
3.5
 41
0.0
 71
     1
 72
     1
  1
%%c
  7
SLDTEXTSTYLE0
 11
6.123233995736766E-17
 21
1.0
 31
0.0
 73
     1
 44
1.0
  0
MTEXT
  5
24E
330
244
100
AcDbEntity
  8
0
  6
Continuous
 62
     7
370
    18
100
AcDbMText
 10
542.695426431
 20
361.7579092409
 30
0.0
 40
3.5
 41
0.0
 71
     1
 72
     1
  1
11
  7
SLDTEXTSTYLE0
 11
6.123233995736766E-17
 21
1.0
 31
0.0
 73
     1
 44
1.0
  0
ENDBLK
  5
246
330
244
100
AcDbEntity
  8
0
100
AcDbBlockEnd
  0
BLOCK
  5
251
330
250
100
AcDbEntity
  8
0
100
AcDbBlockBegin
  2
_D_15
 70
     0
 10
0.0
 20
0.0
 30
0.0
  3
_D_15
  1

  0
SOLID
  5
253
330
250
100
AcDbEntity
  8
0
  6
Continuous
 62
     7
370
    18
100
AcDbTrace
 10
537.1266611006
 20
379.8993349633
 30
0.0
 11
540.2402769839
 21
381.1103940582
 31
0.0
 12
539.7322769839
 22
381.9902758684
 32
0.0
 13
539.7322769839
 23
381.9902758684
 33
0.0
  0
LINE
  5
254
330
250
100
AcDbEntity
  8
0
  6
Continuous
 62
     7
370
    18
100
AcDbLine
 10
537.1266611006
 20
379.8993349633
 30
0.0
 11
547.9908095676
 21
386.1717540053
 31
0.0
  0
LINE
  5
255
330
250
100
AcDbEntity
  8
0
  6
Continuous
 62
     7
370
    18
100
AcDbLine
 10
537.1266611006
 20
379.8993349633
 30
0.0
 11
536.2606356968
 21
379.3993349633
 31
0.0
  0
MTEXT
  5
256
330
250
100
AcDbEntity
  8
0
  6
Continuous
 62
     7
370
    18
100
AcDbMText
 10
541.0820639647
 20
387.2977742873
 30
0.0
 40
3.5
 41
0.0
 71
     1
 72
     1
  1
R1
  7
SLDTEXTSTYLE0
 11
0.8660254037844474
 21
0.4999999999999848
 31
0.0
 73
     1
 44
1.0
  0
ENDBLK
  5
252
330
250
100
AcDbEntity
  8
0
100
AcDbBlockEnd
  0
BLOCK
  5
259
330
258
100
AcDbEntity
  8
0
100
AcDbBlockBegin
  2
_D_16
 70
     0
 10
0.0
 20
0.0
 30
0.0
  3
_D_16
  1

  0
SOLID
  5
25B
330
258
100
AcDbEntity
  8
0
  6
Continuous
 62
     7
370
    18
100
AcDbTrace
 10
529.2606356968
 20
335.3535042859
 30
0.0
 11
532.5626356968
 21
334.8455042859
 31
0.0
 12
532.5626356968
 22
335.8615042859
 32
0.0
 13
532.5626356968
 23
335.8615042859
 33
0.0
  0
SOLID
  5
25C
330
258
100
AcDbEntity
  8
0
  6
Continuous
 62
     7
370
    18
100
AcDbTrace
 10
537.2606356968
 20
335.3535042859
 30
0.0
 11
533.9586356968
 21
335.8615042859
 31
0.0
 12
533.9586356968
 22
334.8455042859
 32
0.0
 13
533.9586356968
 23
334.8455042859
 33
0.0
  0
LINE
  5
25D
330
258
100
AcDbEntity
  8
0
  6
Continuous
 62
     7
370
    18
100
AcDbLine
 10
529.2606356968
 20
341.8993349633
 30
0.0
 11
529.2606356968
 21
334.3535042859
 31
0.0
  0
LINE
  5
25E
330
258
100
AcDbEntity
  8
0
  6
Continuous
 62
     7
370
    18
100
AcDbLine
 10
529.2606356968
 20
335.3535042859
 30
0.0
 11
537.2606356968
 21
335.3535042859
 31
0.0
  0
LINE
  5
25F
330
258
100
AcDbEntity
  8
0
  6
Continuous
 62
     7
370
    18
100
AcDbLine
 10
537.2606356968
 20
335.3535042859
 30
0.0
 11
543.3992547485
 21
335.3535042859
 31
0.0
  0
MTEXT
  5
260
330
258
100
AcDbEntity
  8
0
  6
Continuous
 62
     7
370
    18
100
AcDbMText
 10
540.813143555
 20
339.8652412005
 30
0.0
 40
3.5
 41
0.0
 71
     1
 72
     1
  1
8
  7
SLDTEXTSTYLE0
 73
     1
 44
1.0
  0
ENDBLK
  5
25A
330
258
100
AcDbEntity
  8
0
100
AcDbBlockEnd
  0
BLOCK
  5
263
330
262
100
AcDbEntity
  8
0
100
AcDbBlockBegin
  2
_D_17
 70
     0
 10
0.0
 20
0.0
 30
0.0
  3
_D_17
  1

  0
SOLID
  5
265
330
262
100
AcDbEntity
  8
0
  6
Continuous
 62
     7
370
    18
100
AcDbTrace
 10
517.2606356968
 20
302.3993349633
 30
0.0
 11
520.5626356968
 21
301.8913349633
 31
0.0
 12
520.5626356968
 22
302.9073349633
 32
0.0
 13
520.5626356968
 23
302.9073349633
 33
0.0
  0
SOLID
  5
266
330
262
100
AcDbEntity
  8
0
  6
Continuous
 62
     7
370
    18
100
AcDbTrace
 10
537.2606356968
 20
302.3993349633
 30
0.0
 11
533.9586356968
 21
302.9073349633
 31
0.0
 12
533.9586356968
 22
301.8913349633
 32
0.0
 13
533.9586356968
 23
301.8913349633
 33
0.0
  0
LINE
  5
267
330
262
100
AcDbEntity
  8
0
  6
Continuous
 62
     7
370
    18
100
AcDbLine
 10
517.2606356968
 20
317.3993349633
 30
0.0
 11
517.2606356968
 21
301.3993349633
 31
0.0
  0
LINE
  5
268
330
262
100
AcDbEntity
  8
0
  6
Continuous
 62
     7
370
    18
100
AcDbLine
 10
537.2606356968
 20
317.3993349633
 30
0.0
 11
537.2606356968
 21
301.3993349633
 31
0.0
  0
LINE
  5
269
330
262
100
AcDbEntity
  8
0
  6
Continuous
 62
     7
370
    18
100
AcDbLine
 10
517.2606356968
 20
302.3993349633
 30
0.0
 11
537.2606356968
 21
302.3993349633
 31
0.0
  0
MTEXT
  5
26A
330
262
100
AcDbEntity
  8
0
  6
Continuous
 62
     7
370
    18
100
AcDbMText
 10
524.5597398489
 20
306.9110718779
 30
0.0
 40
3.5
 41
0.0
 71
     1
 72
     1
  1
20
  7
SLDTEXTSTYLE0
 73
     1
 44
1.0
  0
ENDBLK
  5
264
330
262
100
AcDbEntity
  8
0
100
AcDbBlockEnd
  0
BLOCK
  5
27D
330
27C
100
AcDbEntity
  8
0
100
AcDbBlockBegin
  2
_D_18
 70
     0
 10
0.0
 20
0.0
 30
0.0
  3
_D_18
  1

  0
SOLID
  5
27F
330
27C
100
AcDbEntity
  8
0
  6
Continuous
 62
     7
370
    18
100
AcDbTrace
 10
109.3339462103
 20
101.3009290954
 30
0.0
 11
112.6359462103
 21
100.7929290954
 31
0.0
 12
112.6359462103
 22
101.8089290954
 32
0.0
 13
112.6359462103
 23
101.8089290954
 33
0.0
  0
SOLID
  5
280
330
27C
100
AcDbEntity
  8
0
  6
Continuous
 62
     7
370
    18
100
AcDbTrace
 10
149.3339462103
 20
101.3009290954
 30
0.0
 11
146.0319462103
 21
101.8089290954
 31
0.0
 12
146.0319462103
 22
100.7929290954
 32
0.0
 13
146.0319462103
 23
100.7929290954
 33
0.0
  0
LINE
  5
281
330
27C
100
AcDbEntity
  8
0
  6
Continuous
 62
     7
370
    18
100
AcDbLine
 10
109.3339462103
 20
140.3009290954
 30
0.0
 11
109.3339462103
 21
100.3009290954
 31
0.0
  0
LINE
  5
282
330
27C
100
AcDbEntity
  8
0
  6
Continuous
 62
     7
370
    18
100
AcDbLine
 10
149.3339462103
 20
140.3009290954
 30
0.0
 11
149.3339462103
 21
100.3009290954
 31
0.0
  0
LINE
  5
283
330
27C
100
AcDbEntity
  8
0
  6
Continuous
 62
     7
370
    18
100
AcDbLine
 10
109.3339462103
 20
101.3009290954
 30
0.0
 11
149.3339462103
 21
101.3009290954
 31
0.0
  0
MTEXT
  5
284
330
27C
100
AcDbEntity
  8
0
  6
Continuous
 62
     7
370
    18
100
AcDbMText
 10
128.3152570458
 20
105.8126660099
 30
0.0
 40
3.5
 41
0.0
 71
     1
 72
     1
  1
40
  7
SLDTEXTSTYLE0
 73
     1
 44
1.0
  0
ENDBLK
  5
27E
330
27C
100
AcDbEntity
  8
0
100
AcDbBlockEnd
  0
BLOCK
  5
287
330
286
100
AcDbEntity
  8
0
100
AcDbBlockBegin
  2
_D_19
 70
     0
 10
0.0
 20
0.0
 30
0.0
  3
_D_19
  1

  0
SOLID
  5
289
330
286
100
AcDbEntity
  8
0
  6
Continuous
 62
     7
370
    18
100
AcDbTrace
 10
89.3339462103
 20
95.3009290954
 30
0.0
 11
92.6359462103
 21
94.7929290954
 31
0.0
 12
92.6359462103
 22
95.8089290954
 32
0.0
 13
92.6359462103
 23
95.8089290954
 33
0.0
  0
SOLID
  5
28A
330
286
100
AcDbEntity
  8
0
  6
Continuous
 62
     7
370
    18
100
AcDbTrace
 10
169.3339462103
 20
95.3009290954
 30
0.0
 11
166.0319462103
 21
95.8089290954
 31
0.0
 12
166.0319462103
 22
94.7929290954
 32
0.0
 13
166.0319462103
 23
94.7929290954
 33
0.0
  0
LINE
  5
28B
330
286
100
AcDbEntity
  8
0
  6
Continuous
 62
     7
370
    18
100
AcDbLine
 10
89.3339462103
 20
110.3009290954
 30
0.0
 11
89.3339462103
 21
94.3009290954
 31
0.0
  0
LINE
  5
28C
330
286
100
AcDbEntity
  8
0
  6
Continuous
 62
     7
370
    18
100
AcDbLine
 10
169.3339462103
 20
110.3009290954
 30
0.0
 11
169.3339462103
 21
94.3009290954
 31
0.0
  0
LINE
  5
28D
330
286
100
AcDbEntity
  8
0
  6
Continuous
 62
     7
370
    18
100
AcDbLine
 10
89.3339462103
 20
95.3009290954
 30
0.0
 11
169.3339462103
 21
95.3009290954
 31
0.0
  0
MTEXT
  5
28E
330
286
100
AcDbEntity
  8
0
  6
Continuous
 62
     7
370
    18
100
AcDbMText
 10
128.3152570458
 20
99.8126660099
 30
0.0
 40
3.5
 41
0.0
 71
     1
 72
     1
  1
80
  7
SLDTEXTSTYLE0
 73
     1
 44
1.0
  0
ENDBLK
  5
288
330
286
100
AcDbEntity
  8
0
100
AcDbBlockEnd
  0
BLOCK
  5
291
330
290
100
AcDbEntity
  8
0
100
AcDbBlockBegin
  2
_D_20
 70
     0
 10
0.0
 20
0.0
 30
0.0
  3
_D_20
  1

  0
SOLID
  5
293
330
290
100
AcDbEntity
  8
0
  6
Continuous
 62
     7
370
    18
100
AcDbTrace
 10
79.3339462103
 20
141.3009290954
 30
0.0
 11
78.8259462103
 21
137.9989290954
 31
0.0
 12
79.8419462103
 22
137.9989290954
 32
0.0
 13
79.8419462103
 23
137.9989290954
 33
0.0
  0
SOLID
  5
294
330
290
100
AcDbEntity
  8
0
  6
Continuous
 62
     7
370
    18
100
AcDbTrace
 10
79.3339462103
 20
111.3009290954
 30
0.0
 11
79.8419462103
 21
114.6029290954
 31
0.0
 12
78.8259462103
 22
114.6029290954
 32
0.0
 13
78.8259462103
 23
114.6029290954
 33
0.0
  0
LINE
  5
295
330
290
100
AcDbEntity
  8
0
  6
Continuous
 62
     7
370
    18
100
AcDbLine
 10
148.3339462103
 20
141.3009290954
 30
0.0
 11
78.3339462103
 21
141.3009290954
 31
0.0
  0
LINE
  5
296
330
290
100
AcDbEntity
  8
0
  6
Continuous
 62
     7
370
    18
100
AcDbLine
 10
88.3339462103
 20
111.3009290954
 30
0.0
 11
78.3339462103
 21
111.3009290954
 31
0.0
  0
LINE
  5
297
330
290
100
AcDbEntity
  8
0
  6
Continuous
 62
     7
370
    18
100
AcDbLine
 10
79.3339462103
 20
141.3009290954
 30
0.0
 11
79.3339462103
 21
111.3009290954
 31
0.0
  0
MTEXT
  5
298
330
290
100
AcDbEntity
  8
0
  6
Continuous
 62
     7
370
    18
100
AcDbMText
 10
74.8222092957
 20
122.9164789566
 30
0.0
 40
3.5
 41
0.0
 71
     1
 72
     1
  1
30
  7
SLDTEXTSTYLE0
 11
-7.044195017643634E-15
 21
1.0
 31
0.0
 73
     1
 44
1.0
  0
ENDBLK
  5
292
330
290
100
AcDbEntity
  8
0
100
AcDbBlockEnd
  0
BLOCK
  5
29B
330
29A
100
AcDbEntity
  8
0
100
AcDbBlockBegin
  2
_D_21
 70
     0
 10
0.0
 20
0.0
 30
0.0
  3
_D_21
  1

  0
SOLID
  5
29D
330
29A
100
AcDbEntity
  8
0
  6
Continuous
 62
     7
370
    18
100
AcDbTrace
 10
73.3339462103
 20
173.3009290954
 30
0.0
 11
72.8259462103
 21
169.9989290954
 31
0.0
 12
73.8419462103
 22
169.9989290954
 32
0.0
 13
73.8419462103
 23
169.9989290954
 33
0.0
  0
SOLID
  5
29E
330
29A
100
AcDbEntity
  8
0
  6
Continuous
 62
     7
370
    18
100
AcDbTrace
 10
73.3339462103
 20
111.3009290954
 30
0.0
 11
73.8419462103
 21
114.6029290954
 31
0.0
 12
72.8259462103
 22
114.6029290954
 32
0.0
 13
72.8259462103
 23
114.6029290954
 33
0.0
  0
LINE
  5
29F
330
29A
100
AcDbEntity
  8
0
  6
Continuous
 62
     7
370
    18
100
AcDbLine
 10
88.3339462103
 20
173.3009290954
 30
0.0
 11
72.3339462103
 21
173.3009290954
 31
0.0
  0
LINE
  5
2A0
330
29A
100
AcDbEntity
  8
0
  6
Continuous
 62
     7
370
    18
100
AcDbLine
 10
88.3339462103
 20
111.3009290954
 30
0.0
 11
72.3339462103
 21
111.3009290954
 31
0.0
  0
LINE
  5
2A1
330
29A
100
AcDbEntity
  8
0
  6
Continuous
 62
     7
370
    18
100
AcDbLine
 10
73.3339462103
 20
173.3009290954
 30
0.0
 11
73.3339462103
 21
111.3009290954
 31
0.0
  0
MTEXT
  5
2A2
330
29A
100
AcDbEntity
  8
0
  6
Continuous
 62
     7
370
    18
100
AcDbMText
 10
68.8222092957
 20
139.5512212608
 30
0.0
 40
3.5
 41
0.0
 71
     1
 72
     1
  1
62
  7
SLDTEXTSTYLE0
 11
-7.044195017643634E-15
 21
1.0
 31
0.0
 73
     1
 44
1.0
  0
ENDBLK
  5
29C
330
29A
100
AcDbEntity
  8
0
100
AcDbBlockEnd
  0
BLOCK
  5
2A4
330
2A3
100
AcDbEntity
  8
0
100
AcDbBlockBegin
  2
SW_CENTERMARKSYMBOL_4
 70
     0
 10
0.0
 20
0.0
 30
0.0
  3
SW_CENTERMARKSYMBOL_4
  1

  0
LINE
  5
2A6
330
2A3
100
AcDbEntity
  8
0
  6
Continuous
 62
     0
370
     0
100
AcDbLine
 10
0.0
 20
0.0
 30
0.0
 11
0.0
 21
2.5
 31
0.0
  0
LINE
  5
2A7
330
2A3
100
AcDbEntity
  8
0
  6
Continuous
 62
     0
370
     0
100
AcDbLine
 10
0.0
 20
0.0
 30
0.0
 11
-2.5
 21
0.0
 31
0.0
  0
LINE
  5
2A8
330
2A3
100
AcDbEntity
  8
0
  6
Continuous
 62
     0
370
     0
100
AcDbLine
 10
0.0
 20
0.0
 30
0.0
 11
0.0
 21
-2.5
 31
0.0
  0
LINE
  5
2A9
330
2A3
100
AcDbEntity
  8
0
  6
Continuous
 62
     0
370
     0
100
AcDbLine
 10
0.0
 20
0.0
 30
0.0
 11
2.5
 21
0.0
 31
0.0
  0
LINE
  5
2AA
330
2A3
100
AcDbEntity
  8
0
  6
Continuous
 62
     0
370
     0
100
AcDbLine
 10
0.0
 20
5.0
 30
0.0
 11
0.0
 21
5.8
 31
0.0
  0
LINE
  5
2AB
330
2A3
100
AcDbEntity
  8
0
  6
Continuous
 62
     0
370
     0
100
AcDbLine
 10
-5.0
 20
0.0
 30
0.0
 11
-5.8
 21
0.0
 31
0.0
  0
LINE
  5
2AC
330
2A3
100
AcDbEntity
  8
0
  6
Continuous
 62
     0
370
     0
100
AcDbLine
 10
0.0
 20
-5.0
 30
0.0
 11
0.0
 21
-5.8
 31
0.0
  0
LINE
  5
2AD
330
2A3
100
AcDbEntity
  8
0
  6
Continuous
 62
     0
370
     0
100
AcDbLine
 10
5.0
 20
0.0
 30
0.0
 11
5.8
 21
0.0
 31
0.0
  0
ENDBLK
  5
2A5
330
2A3
100
AcDbEntity
  8
0
100
AcDbBlockEnd
  0
BLOCK
  5
2B0
330
2AF
100
AcDbEntity
  8
0
100
AcDbBlockBegin
  2
SW_CENTERMARKSYMBOL_5
 70
     0
 10
0.0
 20
0.0
 30
0.0
  3
SW_CENTERMARKSYMBOL_5
  1

  0
LINE
  5
2B2
330
2AF
100
AcDbEntity
  8
0
  6
Continuous
 62
     0
370
     0
100
AcDbLine
 10
0.0
 20
0.0
 30
0.0
 11
0.0
 21
2.5
 31
0.0
  0
LINE
  5
2B3
330
2AF
100
AcDbEntity
  8
0
  6
Continuous
 62
     0
370
     0
100
AcDbLine
 10
0.0
 20
0.0
 30
0.0
 11
-2.5
 21
0.0
 31
0.0
  0
LINE
  5
2B4
330
2AF
100
AcDbEntity
  8
0
  6
Continuous
 62
     0
370
     0
100
AcDbLine
 10
0.0
 20
0.0
 30
0.0
 11
0.0
 21
-2.5
 31
0.0
  0
LINE
  5
2B5
330
2AF
100
AcDbEntity
  8
0
  6
Continuous
 62
     0
370
     0
100
AcDbLine
 10
0.0
 20
0.0
 30
0.0
 11
2.5
 21
0.0
 31
0.0
  0
LINE
  5
2B6
330
2AF
100
AcDbEntity
  8
0
  6
Continuous
 62
     0
370
     0
100
AcDbLine
 10
0.0
 20
5.0
 30
0.0
 11
0.0
 21
5.8
 31
0.0
  0
LINE
  5
2B7
330
2AF
100
AcDbEntity
  8
0
  6
Continuous
 62
     0
370
     0
100
AcDbLine
 10
-5.0
 20
0.0
 30
0.0
 11
-5.8
 21
0.0
 31
0.0
  0
LINE
  5
2B8
330
2AF
100
AcDbEntity
  8
0
  6
Continuous
 62
     0
370
     0
100
AcDbLine
 10
0.0
 20
-5.0
 30
0.0
 11
0.0
 21
-5.8
 31
0.0
  0
LINE
  5
2B9
330
2AF
100
AcDbEntity
  8
0
  6
Continuous
 62
     0
370
     0
100
AcDbLine
 10
5.0
 20
0.0
 30
0.0
 11
5.8
 21
0.0
 31
0.0
  0
ENDBLK
  5
2B1
330
2AF
100
AcDbEntity
  8
0
100
AcDbBlockEnd
  0
BLOCK
  5
2CD
330
2CC
100
AcDbEntity
  8
0
100
AcDbBlockBegin
  2
_D_22
 70
     0
 10
0.0
 20
0.0
 30
0.0
  3
_D_22
  1

  0
SOLID
  5
2CF
330
2CC
100
AcDbEntity
  8
0
  6
Continuous
 62
     7
370
    18
100
AcDbTrace
 10
232.4928988016
 20
172.8009290954
 30
0.0
 11
229.8872829183
 21
174.8918700005
 31
0.0
 12
229.3792829183
 22
174.0119881902
 32
0.0
 13
229.3792829183
 23
174.0119881902
 33
0.0
  0
LINE
  5
2D0
330
2CC
100
AcDbEntity
  8
0
  6
Continuous
 62
     7
370
    18
100
AcDbLine
 10
232.4928988016
 20
172.8009290954
 30
0.0
 11
222.2455798423
 21
178.717221455
 31
0.0
  0
LINE
  5
2D1
330
2CC
100
AcDbEntity
  8
0
  6
Continuous
 62
     7
370
    18
100
AcDbLine
 10
232.4928988016
 20
172.8009290954
 30
0.0
 11
233.3589242054
 21
172.3009290954
 31
0.0
  0
MTEXT
  5
2D2
330
2CC
100
AcDbEntity
  8
0
  6
Continuous
 62
     7
370
    18
100
AcDbMText
 10
224.4550105911
 20
182.5440677676
 30
0.0
 40
3.5
 41
0.0
 71
     1
 72
     1
  1
R1
  7
SLDTEXTSTYLE0
 11
0.8660254037844485
 21
-0.4999999999999829
 31
0.0
 73
     1
 44
1.0
  0
ENDBLK
  5
2CE
330
2CC
100
AcDbEntity
  8
0
100
AcDbBlockEnd
  0
BLOCK
  5
2D5
330
2D4
100
AcDbEntity
  8
0
100
AcDbBlockBegin
  2
_D_23
 70
     0
 10
0.0
 20
0.0
 30
0.0
  3
_D_23
  1

  0
SOLID
  5
2D7
330
2D4
100
AcDbEntity
  8
0
  6
Continuous
 62
     7
370
    18
100
AcDbTrace
 10
224.289364718
 20
146.8009290954
 30
0.0
 11
224.797364718
 21
150.1029290954
 31
0.0
 12
223.781364718
 22
150.1029290954
 32
0.0
 13
223.781364718
 23
150.1029290954
 33
0.0
  0
SOLID
  5
2D8
330
2D4
100
AcDbEntity
  8
0
  6
Continuous
 62
     7
370
    18
100
AcDbTrace
 10
224.289364718
 20
135.8009290954
 30
0.0
 11
223.781364718
 21
132.4989290954
 31
0.0
 12
224.797364718
 22
132.4989290954
 32
0.0
 13
224.797364718
 23
132.4989290954
 33
0.0
  0
LINE
  5
2D9
330
2D4
100
AcDbEntity
  8
0
  6
Continuous
 62
     7
370
    18
100
AcDbLine
 10
231.3839242054
 20
146.8009290954
 30
0.0
 11
223.289364718
 21
146.8009290954
 31
0.0
  0
LINE
  5
2DA
330
2D4
100
AcDbEntity
  8
0
  6
Continuous
 62
     7
370
    18
100
AcDbLine
 10
231.3839242054
 20
135.8009290954
 30
0.0
 11
223.289364718
 21
135.8009290954
 31
0.0
  0
LINE
  5
2DB
330
2D4
100
AcDbEntity
  8
0
  6
Continuous
 62
     7
370
    18
100
AcDbLine
 10
224.289364718
 20
146.8009290954
 30
0.0
 11
224.289364718
 21
153.1509290954
 31
0.0
  0
LINE
  5
2DC
330
2D4
100
AcDbEntity
  8
0
  6
Continuous
 62
     7
370
    18
100
AcDbLine
 10
224.289364718
 20
146.8009290954
 30
0.0
 11
224.289364718
 21
135.8009290954
 31
0.0
  0
LINE
  5
2DD
330
2D4
100
AcDbEntity
  8
0
  6
Continuous
 62
     7
370
    18
100
AcDbLine
 10
224.289364718
 20
135.8009290954
 30
0.0
 11
224.289364718
 21
129.4509290954
 31
0.0
  0
MTEXT
  5
2DE
330
2D4
100
AcDbEntity
  8
0
  6
Continuous
 62
     7
370
    18
100
AcDbMText
 10
219.7776276288
 20
134.9982709132
 30
0.0
 40
3.5
 41
0.0
 71
     1
 72
     1
  1
%%c
  7
SLDTEXTSTYLE0
 11
-7.044195017643634E-15
 21
1.0
 31
0.0
 73
     1
 44
1.0
  0
MTEXT
  5
2DF
330
2D4
100
AcDbEntity
  8
0
  6
Continuous
 62
     7
370
    18
100
AcDbMText
 10
219.7241554521
 20
140.2767083116
 30
0.0
 40
3.5
 41
0.0
 71
     1
 72
     1
  1
11
  7
SLDTEXTSTYLE0
 11
-7.044195017643634E-15
 21
1.0
 31
0.0
 73
     1
 44
1.0
  0
ENDBLK
  5
2D6
330
2D4
100
AcDbEntity
  8
0
100
AcDbBlockEnd
  0
BLOCK
  5
2E2
330
2E1
100
AcDbEntity
  8
0
100
AcDbBlockBegin
  2
_D_24
 70
     0
 10
0.0
 20
0.0
 30
0.0
  3
_D_24
  1

  0
SOLID
  5
2E4
330
2E1
100
AcDbEntity
  8
0
  6
Continuous
 62
     7
370
    18
100
AcDbTrace
 10
262.3589242054
 20
144.6009290954
 30
0.0
 11
262.8669242054
 21
147.9029290954
 31
0.0
 12
261.8509242054
 22
147.9029290954
 32
0.0
 13
261.8509242054
 23
147.9029290954
 33
0.0
  0
SOLID
  5
2E5
330
2E1
100
AcDbEntity
  8
0
  6
Continuous
 62
     7
370
    18
100
AcDbTrace
 10
262.3589242054
 20
138.0009290954
 30
0.0
 11
261.8509242054
 21
134.6989290954
 31
0.0
 12
262.8669242054
 22
134.6989290954
 32
0.0
 13
262.8669242054
 23
134.6989290954
 33
0.0
  0
LINE
  5
2E6
330
2E1
100
AcDbEntity
  8
0
  6
Continuous
 62
     7
370
    18
100
AcDbLine
 10
253.3589242054
 20
144.6009290954
 30
0.0
 11
263.3589242054
 21
144.6009290954
 31
0.0
  0
LINE
  5
2E7
330
2E1
100
AcDbEntity
  8
0
  6
Continuous
 62
     7
370
    18
100
AcDbLine
 10
253.3589242054
 20
138.0009290954
 30
0.0
 11
263.3589242054
 21
138.0009290954
 31
0.0
  0
LINE
  5
2E8
330
2E1
100
AcDbEntity
  8
0
  6
Continuous
 62
     7
370
    18
100
AcDbLine
 10
262.3589242054
 20
144.6009290954
 30
0.0
 11
262.3589242054
 21
161.3734750783
 31
0.0
  0
LINE
  5
2E9
330
2E1
100
AcDbEntity
  8
0
  6
Continuous
 62
     7
370
    18
100
AcDbLine
 10
262.3589242054
 20
144.6009290954
 30
0.0
 11
262.3589242054
 21
138.0009290954
 31
0.0
  0
LINE
  5
2EA
330
2E1
100
AcDbEntity
  8
0
  6
Continuous
 62
     7
370
    18
100
AcDbLine
 10
262.3589242054
 20
138.0009290954
 30
0.0
 11
262.3589242054
 21
131.6509290954
 31
0.0
  0
MTEXT
  5
2EB
330
2E1
100
AcDbEntity
  8
0
  6
Continuous
 62
     7
370
    18
100
AcDbMText
 10
257.8471871162
 20
147.0436476877
 30
0.0
 40
3.5
 41
0.0
 71
     1
 72
     1
  1
%%c
  7
SLDTEXTSTYLE0
 11
-7.044195017643634E-15
 21
1.0
 31
0.0
 73
     1
 44
1.0
  0
MTEXT
  5
2EC
330
2E1
100
AcDbEntity
  8
0
  6
Continuous
 62
     7
370
    18
100
AcDbMText
 10
257.7937149395
 20
152.3220850861
 30
0.0
 40
3.5
 41
0.0
 71
     1
 72
     1
  1
6,60
  7
SLDTEXTSTYLE0
 11
-7.044195017643634E-15
 21
1.0
 31
0.0
 73
     1
 44
1.0
  0
ENDBLK
  5
2E3
330
2E1
100
AcDbEntity
  8
0
100
AcDbBlockEnd
  0
BLOCK
  5
2EF
330
2EE
100
AcDbEntity
  8
0
100
AcDbBlockBegin
  2
_D_25
 70
     0
 10
0.0
 20
0.0
 30
0.0
  3
_D_25
  1

  0
SOLID
  5
2F1
330
2EE
100
AcDbEntity
  8
0
  6
Continuous
 62
     7
370
    18
100
AcDbTrace
 10
232.3589242054
 20
99.4464008772
 30
0.0
 11
235.6609242054
 21
98.9384008772
 31
0.0
 12
235.6609242054
 22
99.9544008772
 32
0.0
 13
235.6609242054
 23
99.9544008772
 33
0.0
  0
SOLID
  5
2F2
330
2EE
100
AcDbEntity
  8
0
  6
Continuous
 62
     7
370
    18
100
AcDbTrace
 10
252.3589242054
 20
99.4464008772
 30
0.0
 11
249.0569242054
 21
99.9544008772
 31
0.0
 12
249.0569242054
 22
98.9384008772
 32
0.0
 13
249.0569242054
 23
98.9384008772
 33
0.0
  0
LINE
  5
2F3
330
2EE
100
AcDbEntity
  8
0
  6
Continuous
 62
     7
370
    18
100
AcDbLine
 10
232.3589242054
 20
110.3009290954
 30
0.0
 11
232.3589242054
 21
98.4464008772
 31
0.0
  0
LINE
  5
2F4
330
2EE
100
AcDbEntity
  8
0
  6
Continuous
 62
     7
370
    18
100
AcDbLine
 10
252.3589242054
 20
110.3009290954
 30
0.0
 11
252.3589242054
 21
98.4464008772
 31
0.0
  0
LINE
  5
2F5
330
2EE
100
AcDbEntity
  8
0
  6
Continuous
 62
     7
370
    18
100
AcDbLine
 10
232.3589242054
 20
99.4464008772
 30
0.0
 11
252.3589242054
 21
99.4464008772
 31
0.0
  0
MTEXT
  5
2F6
330
2EE
100
AcDbEntity
  8
0
  6
Continuous
 62
     7
370
    18
100
AcDbMText
 10
239.4588892552
 20
103.9581377918
 30
0.0
 40
3.5
 41
0.0
 71
     1
 72
     1
  1
20
  7
SLDTEXTSTYLE0
 73
     1
 44
1.0
  0
ENDBLK
  5
2F0
330
2EE
100
AcDbEntity
  8
0
100
AcDbBlockEnd
  0
BLOCK
  5
317
330
316
100
AcDbEntity
  8
0
100
AcDbBlockBegin
  2
_D_26
 70
     0
 10
0.0
 20
0.0
 30
0.0
  3
_D_26
  1

  0
SOLID
  5
319
330
316
100
AcDbEntity
  8
0
  6
Continuous
 62
     7
370
    18
100
AcDbTrace
 10
99.3339462103
 20
76.4044596577
 30
0.0
 11
102.6359462103
 21
75.8964596577
 31
0.0
 12
102.6359462103
 22
76.9124596577
 32
0.0
 13
102.6359462103
 23
76.9124596577
 33
0.0
  0
SOLID
  5
31A
330
316
100
AcDbEntity
  8
0
  6
Continuous
 62
     7
370
    18
100
AcDbTrace
 10
89.3339462103
 20
76.4044596577
 30
0.0
 11
86.0319462103
 21
76.9124596577
 31
0.0
 12
86.0319462103
 22
75.8964596577
 32
0.0
 13
86.0319462103
 23
75.8964596577
 33
0.0
  0
LINE
  5
31B
330
316
100
AcDbEntity
  8
0
  6
Continuous
 62
     7
370
    18
100
AcDbLine
 10
99.3339462103
 20
67.4044596577
 30
0.0
 11
99.3339462103
 21
77.4044596577
 31
0.0
  0
LINE
  5
31C
330
316
100
AcDbEntity
  8
0
  6
Continuous
 62
     7
370
    18
100
AcDbLine
 10
89.3339462103
 20
57.4044596577
 30
0.0
 11
89.3339462103
 21
77.4044596577
 31
0.0
  0
LINE
  5
31D
330
316
100
AcDbEntity
  8
0
  6
Continuous
 62
     7
370
    18
100
AcDbLine
 10
99.3339462103
 20
76.4044596577
 30
0.0
 11
105.6839462103
 21
76.4044596577
 31
0.0
  0
LINE
  5
31E
330
316
100
AcDbEntity
  8
0
  6
Continuous
 62
     7
370
    18
100
AcDbLine
 10
99.3339462103
 20
76.4044596577
 30
0.0
 11
89.3339462103
 21
76.4044596577
 31
0.0
  0
LINE
  5
31F
330
316
100
AcDbEntity
  8
0
  6
Continuous
 62
     7
370
    18
100
AcDbLine
 10
89.3339462103
 20
76.4044596577
 30
0.0
 11
82.9839462103
 21
76.4044596577
 31
0.0
  0
MTEXT
  5
320
330
316
100
AcDbEntity
  8
0
  6
Continuous
 62
     7
370
    18
100
AcDbMText
 10
85.7119596495
 20
80.9161965723
 30
0.0
 40
3.5
 41
0.0
 71
     1
 72
     1
  1
10
  7
SLDTEXTSTYLE0
 73
     1
 44
1.0
  0
MTEXT
  5
321
330
316
100
AcDbEntity
  8
0
  6
Continuous
 62
     7
370
    18
100
AcDbMText
 10
92.1966820366
 20
80.9161965723
 30
0.0
 40
3.5
 41
0.0
 71
     1
 72
     1
  1
45
  7
SLDTEXTSTYLE0
 73
     1
 44
1.0
  0
ENDBLK
  5
318
330
316
100
AcDbEntity
  8
0
100
AcDbBlockEnd
  0
BLOCK
  5
324
330
323
100
AcDbEntity
  8
0
100
AcDbBlockBegin
  2
_D_27
 70
     0
 10
0.0
 20
0.0
 30
0.0
  3
_D_27
  1

  0
SOLID
  5
326
330
323
100
AcDbEntity
  8
0
  6
Continuous
 62
     7
370
    18
100
AcDbTrace
 10
159.3339462103
 20
76.4044596577
 30
0.0
 11
156.0319462103
 21
76.9124596577
 31
0.0
 12
156.0319462103
 22
75.8964596577
 32
0.0
 13
156.0319462103
 23
75.8964596577
 33
0.0
  0
SOLID
  5
327
330
323
100
AcDbEntity
  8
0
  6
Continuous
 62
     7
370
    18
100
AcDbTrace
 10
169.3339462103
 20
76.4044596577
 30
0.0
 11
172.6359462103
 21
75.8964596577
 31
0.0
 12
172.6359462103
 22
76.9124596577
 32
0.0
 13
172.6359462103
 23
76.9124596577
 33
0.0
  0
LINE
  5
328
330
323
100
AcDbEntity
  8
0
  6
Continuous
 62
     7
370
    18
100
AcDbLine
 10
159.3339462103
 20
67.4044596577
 30
0.0
 11
159.3339462103
 21
77.4044596577
 31
0.0
  0
LINE
  5
329
330
323
100
AcDbEntity
  8
0
  6
Continuous
 62
     7
370
    18
100
AcDbLine
 10
169.3339462103
 20
57.4044596577
 30
0.0
 11
169.3339462103
 21
77.4044596577
 31
0.0
  0
LINE
  5
32A
330
323
100
AcDbEntity
  8
0
  6
Continuous
 62
     7
370
    18
100
AcDbLine
 10
159.3339462103
 20
76.4044596577
 30
0.0
 11
152.9839462103
 21
76.4044596577
 31
0.0
  0
LINE
  5
32B
330
323
100
AcDbEntity
  8
0
  6
Continuous
 62
     7
370
    18
100
AcDbLine
 10
159.3339462103
 20
76.4044596577
 30
0.0
 11
169.3339462103
 21
76.4044596577
 31
0.0
  0
LINE
  5
32C
330
323
100
AcDbEntity
  8
0
  6
Continuous
 62
     7
370
    18
100
AcDbLine
 10
169.3339462103
 20
76.4044596577
 30
0.0
 11
175.6839462103
 21
76.4044596577
 31
0.0
  0
MTEXT
  5
32D
330
323
100
AcDbEntity
  8
0
  6
Continuous
 62
     7
370
    18
100
AcDbMText
 10
156.0219150472
 20
80.9161965723
 30
0.0
 40
3.5
 41
0.0
 71
     1
 72
     1
  1
10
  7
SLDTEXTSTYLE0
 73
     1
 44
1.0
  0
MTEXT
  5
32E
330
323
100
AcDbEntity
  8
0
  6
Continuous
 62
     7
370
    18
100
AcDbMText
 10
162.5066374342
 20
80.9161965723
 30
0.0
 40
3.5
 41
0.0
 71
     1
 72
     1
  1
45
  7
SLDTEXTSTYLE0
 73
     1
 44
1.0
  0
ENDBLK
  5
325
330
323
100
AcDbEntity
  8
0
100
AcDbBlockEnd
  0
BLOCK
  5
34C
330
34B
100
AcDbEntity
  8
0
100
AcDbBlockBegin
  2
_D_28
 70
     0
 10
0.0
 20
0.0
 30
0.0
  3
_D_28
  1

  0
SOLID
  5
34E
330
34B
100
AcDbEntity
  8
0
  6
Continuous
 62
     7
370
    18
100
AcDbTrace
 10
89.3339462103
 20
270.472801956
 30
0.0
 11
86.0319462103
 21
270.980801956
 31
0.0
 12
86.0319462103
 22
269.964801956
 32
0.0
 13
86.0319462103
 23
269.964801956
 33
0.0
  0
SOLID
  5
34F
330
34B
100
AcDbEntity
  8
0
  6
Continuous
 62
     7
370
    18
100
AcDbTrace
 10
99.3339462103
 20
270.472801956
 30
0.0
 11
102.6359462103
 21
269.964801956
 31
0.0
 12
102.6359462103
 22
270.980801956
 32
0.0
 13
102.6359462103
 23
270.980801956
 33
0.0
  0
LINE
  5
350
330
34B
100
AcDbEntity
  8
0
  6
Continuous
 62
     7
370
    18
100
AcDbLine
 10
89.3339462103
 20
251.472801956
 30
0.0
 11
89.3339462103
 21
271.472801956
 31
0.0
  0
LINE
  5
351
330
34B
100
AcDbEntity
  8
0
  6
Continuous
 62
     7
370
    18
100
AcDbLine
 10
99.3339462103
 20
261.472801956
 30
0.0
 11
99.3339462103
 21
271.472801956
 31
0.0
  0
LINE
  5
352
330
34B
100
AcDbEntity
  8
0
  6
Continuous
 62
     7
370
    18
100
AcDbLine
 10
89.3339462103
 20
270.472801956
 30
0.0
 11
82.9839462103
 21
270.472801956
 31
0.0
  0
LINE
  5
353
330
34B
100
AcDbEntity
  8
0
  6
Continuous
 62
     7
370
    18
100
AcDbLine
 10
89.3339462103
 20
270.472801956
 30
0.0
 11
99.3339462103
 21
270.472801956
 31
0.0
  0
LINE
  5
354
330
34B
100
AcDbEntity
  8
0
  6
Continuous
 62
     7
370
    18
100
AcDbLine
 10
99.3339462103
 20
270.472801956
 30
0.0
 11
105.6839462103
 21
270.472801956
 31
0.0
  0
MTEXT
  5
355
330
34B
100
AcDbEntity
  8
0
  6
Continuous
 62
     7
370
    18
100
AcDbMText
 10
86.3557694264
 20
274.9845388706
 30
0.0
 40
3.5
 41
0.0
 71
     1
 72
     1
  1
10
  7
SLDTEXTSTYLE0
 73
     1
 44
1.0
  0
MTEXT
  5
356
330
34B
100
AcDbEntity
  8
0
  6
Continuous
 62
     7
370
    18
100
AcDbMText
 10
92.8404918134
 20
274.9845388706
 30
0.0
 40
3.5
 41
0.0
 71
     1
 72
     1
  1
45
  7
SLDTEXTSTYLE0
 73
     1
 44
1.0
  0
ENDBLK
  5
34D
330
34B
100
AcDbEntity
  8
0
100
AcDbBlockEnd
  0
BLOCK
  5
359
330
358
100
AcDbEntity
  8
0
100
AcDbBlockBegin
  2
_D_29
 70
     0
 10
0.0
 20
0.0
 30
0.0
  3
_D_29
  1

  0
SOLID
  5
35B
330
358
100
AcDbEntity
  8
0
  6
Continuous
 62
     7
370
    18
100
AcDbTrace
 10
159.3339462103
 20
270.472801956
 30
0.0
 11
156.0319462103
 21
270.980801956
 31
0.0
 12
156.0319462103
 22
269.964801956
 32
0.0
 13
156.0319462103
 23
269.964801956
 33
0.0
  0
SOLID
  5
35C
330
358
100
AcDbEntity
  8
0
  6
Continuous
 62
     7
370
    18
100
AcDbTrace
 10
169.3339462103
 20
270.472801956
 30
0.0
 11
172.6359462103
 21
269.964801956
 31
0.0
 12
172.6359462103
 22
270.980801956
 32
0.0
 13
172.6359462103
 23
270.980801956
 33
0.0
  0
LINE
  5
35D
330
358
100
AcDbEntity
  8
0
  6
Continuous
 62
     7
370
    18
100
AcDbLine
 10
159.3339462103
 20
261.472801956
 30
0.0
 11
159.3339462103
 21
271.472801956
 31
0.0
  0
LINE
  5
35E
330
358
100
AcDbEntity
  8
0
  6
Continuous
 62
     7
370
    18
100
AcDbLine
 10
169.3339462103
 20
251.472801956
 30
0.0
 11
169.3339462103
 21
271.472801956
 31
0.0
  0
LINE
  5
35F
330
358
100
AcDbEntity
  8
0
  6
Continuous
 62
     7
370
    18
100
AcDbLine
 10
159.3339462103
 20
270.472801956
 30
0.0
 11
152.9839462103
 21
270.472801956
 31
0.0
  0
LINE
  5
360
330
358
100
AcDbEntity
  8
0
  6
Continuous
 62
     7
370
    18
100
AcDbLine
 10
159.3339462103
 20
270.472801956
 30
0.0
 11
169.3339462103
 21
270.472801956
 31
0.0
  0
LINE
  5
361
330
358
100
AcDbEntity
  8
0
  6
Continuous
 62
     7
370
    18
100
AcDbLine
 10
169.3339462103
 20
270.472801956
 30
0.0
 11
175.6839462103
 21
270.472801956
 31
0.0
  0
MTEXT
  5
362
330
358
100
AcDbEntity
  8
0
  6
Continuous
 62
     7
370
    18
100
AcDbMText
 10
154.6681807896
 20
274.9845388706
 30
0.0
 40
3.5
 41
0.0
 71
     1
 72
     1
  1
10
  7
SLDTEXTSTYLE0
 73
     1
 44
1.0
  0
MTEXT
  5
363
330
358
100
AcDbEntity
  8
0
  6
Continuous
 62
     7
370
    18
100
AcDbMText
 10
161.1529031766
 20
274.9845388706
 30
0.0
 40
3.5
 41
0.0
 71
     1
 72
     1
  1
45
  7
SLDTEXTSTYLE0
 73
     1
 44
1.0
  0
ENDBLK
  5
35A
330
358
100
AcDbEntity
  8
0
100
AcDbBlockEnd
  0
BLOCK
  5
381
330
380
100
AcDbEntity
  8
0
100
AcDbBlockBegin
  2
_D_30
 70
     0
 10
0.0
 20
0.0
 30
0.0
  3
_D_30
  1

  0
SOLID
  5
383
330
380
100
AcDbEntity
  8
0
  6
Continuous
 62
     7
370
    18
100
AcDbTrace
 10
379.780195599
 20
268.9644987775
 30
0.0
 11
376.478195599
 21
269.4724987775
 31
0.0
 12
376.478195599
 22
268.4564987775
 32
0.0
 13
376.478195599
 23
268.4564987775
 33
0.0
  0
SOLID
  5
384
330
380
100
AcDbEntity
  8
0
  6
Continuous
 62
     7
370
    18
100
AcDbTrace
 10
389.780195599
 20
268.9644987775
 30
0.0
 11
393.082195599
 21
268.4564987775
 31
0.0
 12
393.082195599
 22
269.4724987775
 32
0.0
 13
393.082195599
 23
269.4724987775
 33
0.0
  0
LINE
  5
385
330
380
100
AcDbEntity
  8
0
  6
Continuous
 62
     7
370
    18
100
AcDbLine
 10
379.780195599
 20
249.9644987775
 30
0.0
 11
379.780195599
 21
269.9644987775
 31
0.0
  0
LINE
  5
386
330
380
100
AcDbEntity
  8
0
  6
Continuous
 62
     7
370
    18
100
AcDbLine
 10
389.780195599
 20
259.9644987775
 30
0.0
 11
389.780195599
 21
269.9644987775
 31
0.0
  0
LINE
  5
387
330
380
100
AcDbEntity
  8
0
  6
Continuous
 62
     7
370
    18
100
AcDbLine
 10
379.780195599
 20
268.9644987775
 30
0.0
 11
373.430195599
 21
268.9644987775
 31
0.0
  0
LINE
  5
388
330
380
100
AcDbEntity
  8
0
  6
Continuous
 62
     7
370
    18
100
AcDbLine
 10
379.780195599
 20
268.9644987775
 30
0.0
 11
389.780195599
 21
268.9644987775
 31
0.0
  0
LINE
  5
389
330
380
100
AcDbEntity
  8
0
  6
Continuous
 62
     7
370
    18
100
AcDbLine
 10
389.780195599
 20
268.9644987775
 30
0.0
 11
396.130195599
 21
268.9644987775
 31
0.0
  0
MTEXT
  5
38A
330
380
100
AcDbEntity
  8
0
  6
Continuous
 62
     7
370
    18
100
AcDbMText
 10
376.2347563038
 20
273.4762356921
 30
0.0
 40
3.5
 41
0.0
 71
     1
 72
     1
  1
10
  7
SLDTEXTSTYLE0
 73
     1
 44
1.0
  0
MTEXT
  5
38B
330
380
100
AcDbEntity
  8
0
  6
Continuous
 62
     7
370
    18
100
AcDbMText
 10
382.7194786909
 20
273.4762356921
 30
0.0
 40
3.5
 41
0.0
 71
     1
 72
     1
  1
45
  7
SLDTEXTSTYLE0
 73
     1
 44
1.0
  0
ENDBLK
  5
382
330
380
100
AcDbEntity
  8
0
100
AcDbBlockEnd
  0
BLOCK
  5
38E
330
38D
100
AcDbEntity
  8
0
100
AcDbBlockBegin
  2
_D_31
 70
     0
 10
0.0
 20
0.0
 30
0.0
  3
_D_31
  1

  0
SOLID
  5
390
330
38D
100
AcDbEntity
  8
0
  6
Continuous
 62
     7
370
    18
100
AcDbTrace
 10
444.780195599
 20
268.9644987775
 30
0.0
 11
441.478195599
 21
269.4724987775
 31
0.0
 12
441.478195599
 22
268.4564987775
 32
0.0
 13
441.478195599
 23
268.4564987775
 33
0.0
  0
SOLID
  5
391
330
38D
100
AcDbEntity
  8
0
  6
Continuous
 62
     7
370
    18
100
AcDbTrace
 10
454.780195599
 20
268.9644987775
 30
0.0
 11
458.082195599
 21
268.4564987775
 31
0.0
 12
458.082195599
 22
269.4724987775
 32
0.0
 13
458.082195599
 23
269.4724987775
 33
0.0
  0
LINE
  5
392
330
38D
100
AcDbEntity
  8
0
  6
Continuous
 62
     7
370
    18
100
AcDbLine
 10
444.780195599
 20
259.9644987775
 30
0.0
 11
444.780195599
 21
269.9644987775
 31
0.0
  0
LINE
  5
393
330
38D
100
AcDbEntity
  8
0
  6
Continuous
 62
     7
370
    18
100
AcDbLine
 10
454.780195599
 20
249.9644987775
 30
0.0
 11
454.780195599
 21
269.9644987775
 31
0.0
  0
LINE
  5
394
330
38D
100
AcDbEntity
  8
0
  6
Continuous
 62
     7
370
    18
100
AcDbLine
 10
444.780195599
 20
268.9644987775
 30
0.0
 11
438.430195599
 21
268.9644987775
 31
0.0
  0
LINE
  5
395
330
38D
100
AcDbEntity
  8
0
  6
Continuous
 62
     7
370
    18
100
AcDbLine
 10
444.780195599
 20
268.9644987775
 30
0.0
 11
454.780195599
 21
268.9644987775
 31
0.0
  0
LINE
  5
396
330
38D
100
AcDbEntity
  8
0
  6
Continuous
 62
     7
370
    18
100
AcDbLine
 10
454.780195599
 20
268.9644987775
 30
0.0
 11
461.130195599
 21
268.9644987775
 31
0.0
  0
MTEXT
  5
397
330
38D
100
AcDbEntity
  8
0
  6
Continuous
 62
     7
370
    18
100
AcDbMText
 10
440.8075725576
 20
273.4762356921
 30
0.0
 40
3.5
 41
0.0
 71
     1
 72
     1
  1
10
  7
SLDTEXTSTYLE0
 73
     1
 44
1.0
  0
MTEXT
  5
398
330
38D
100
AcDbEntity
  8
0
  6
Continuous
 62
     7
370
    18
100
AcDbMText
 10
447.2922949446
 20
273.4762356921
 30
0.0
 40
3.5
 41
0.0
 71
     1
 72
     1
  1
45
  7
SLDTEXTSTYLE0
 73
     1
 44
1.0
  0
ENDBLK
  5
38F
330
38D
100
AcDbEntity
  8
0
100
AcDbBlockEnd
  0
ENDSEC
  0
SECTION
  2
ENTITIES
  0
LINE
  5
75
330
1F
100
AcDbEntity
  8
0
  6
Continuous
 62
     7
370
    18
100
AcDbLine
 10
302.0
 20
405.0
 30
0.0
 11
302.0
 21
15.0
 31
0.0
  0
LINE
  5
76
330
1F
100
AcDbEntity
  8
0
  6
Continuous
 62
     7
370
    18
100
AcDbLine
 10
25.0
 20
210.0
 30
0.0
 11
579.0
 21
210.0
 31
0.0
  0
LINE
  5
77
330
1F
100
AcDbEntity
  8
DIMENSIONS
100
AcDbLine
 10
583.5
 20
49.5
 30
0.0
 11
519.5
 21
49.5
 31
0.0
  0
LINE
  5
78
330
1F
100
AcDbEntity
  8
DIMENSIONS
100
AcDbLine
 10
519.5
 20
49.5
 30
0.0
 11
519.5
 21
64.5
 31
0.0
  0
LINE
  5
79
330
1F
100
AcDbEntity
  8
DIMENSIONS
100
AcDbLine
 10
519.5
 20
64.5
 30
0.0
 11
583.5
 21
64.5
 31
0.0
  0
LINE
  5
7A
330
1F
100
AcDbEntity
  8
DIMENSIONS
100
AcDbLine
 10
583.5
 20
64.5
 30
0.0
 11
583.5
 21
49.5
 31
0.0
  0
LINE
  5
7B
330
1F
100
AcDbEntity
  8
DIMENSIONS
 62
     1
100
AcDbLine
 10
583.5
 20
49.5
 30
0.0
 11
519.5
 21
49.5
 31
0.0
  0
LINE
  5
7C
330
1F
100
AcDbEntity
  8
DIMENSIONS
 62
     1
100
AcDbLine
 10
519.5
 20
49.5
 30
0.0
 11
519.5
 21
64.5
 31
0.0
  0
LINE
  5
7D
330
1F
100
AcDbEntity
  8
DIMENSIONS
 62
     1
100
AcDbLine
 10
519.5
 20
64.5
 30
0.0
 11
583.5
 21
64.5
 31
0.0
  0
LINE
  5
7E
330
1F
100
AcDbEntity
  8
DIMENSIONS
 62
     1
100
AcDbLine
 10
583.5
 20
64.5
 30
0.0
 11
583.5
 21
49.5
 31
0.0
  0
LINE
  5
7F
330
1F
100
AcDbEntity
  8
DIMENSIONS
 62
     6
100
AcDbLine
 10
583.4
 20
39.4
 30
0.0
 11
506.9840899969
 21
39.4
 31
0.0
  0
LINE
  5
80
330
1F
100
AcDbEntity
  8
DIMENSIONS
 62
     6
100
AcDbLine
 10
506.9840899969
 20
39.4
 30
0.0
 11
506.9840899969
 21
10.6
 31
0.0
  0
LINE
  5
81
330
1F
100
AcDbEntity
  8
DIMENSIONS
 62
     6
100
AcDbLine
 10
506.9840899969
 20
10.6
 30
0.0
 11
583.4
 21
10.6
 31
0.0
  0
LINE
  5
82
330
1F
100
AcDbEntity
  8
DIMENSIONS
 62
     6
100
AcDbLine
 10
583.4
 20
10.6
 30
0.0
 11
583.4
 21
39.4
 31
0.0
  0
LINE
  5
83
330
1F
100
AcDbEntity
  8
DIMENSIONS
 62
     6
100
AcDbLine
 10
583.6
 20
39.6
 30
0.0
 11
506.7840899969
 21
39.6
 31
0.0
  0
LINE
  5
84
330
1F
100
AcDbEntity
  8
DIMENSIONS
 62
     6
100
AcDbLine
 10
506.7840899969
 20
39.6
 30
0.0
 11
506.7840899969
 21
10.4
 31
0.0
  0
LINE
  5
85
330
1F
100
AcDbEntity
  8
DIMENSIONS
 62
     6
100
AcDbLine
 10
506.7840899969
 20
10.4
 30
0.0
 11
583.6
 21
10.4
 31
0.0
  0
LINE
  5
86
330
1F
100
AcDbEntity
  8
DIMENSIONS
 62
     6
100
AcDbLine
 10
583.6
 20
10.4
 30
0.0
 11
583.6
 21
39.6
 31
0.0
  0
LINE
  5
87
330
1F
100
AcDbEntity
  8
DIMENSIONS
 62
     6
100
AcDbLine
 10
583.8
 20
39.8
 30
0.0
 11
506.5840899969
 21
39.8
 31
0.0
  0
LINE
  5
88
330
1F
100
AcDbEntity
  8
DIMENSIONS
 62
     6
100
AcDbLine
 10
506.5840899969
 20
39.8
 30
0.0
 11
506.5840899969
 21
10.2
 31
0.0
  0
LINE
  5
89
330
1F
100
AcDbEntity
  8
DIMENSIONS
 62
     6
100
AcDbLine
 10
506.5840899969
 20
10.2
 30
0.0
 11
583.8
 21
10.2
 31
0.0
  0
LINE
  5
8A
330
1F
100
AcDbEntity
  8
DIMENSIONS
 62
     6
100
AcDbLine
 10
583.8
 20
10.2
 30
0.0
 11
583.8
 21
39.8
 31
0.0
  0
LINE
  5
8B
330
1F
100
AcDbEntity
  8
DIMENSIONS
 62
     6
100
AcDbLine
 10
584.0
 20
40.0
 30
0.0
 11
506.3840899969
 21
40.0
 31
0.0
  0
LINE
  5
8C
330
1F
100
AcDbEntity
  8
DIMENSIONS
 62
     6
100
AcDbLine
 10
384.0
 20
10.0
 30
0.0
 11
584.0
 21
10.0
 31
0.0
  0
LINE
  5
8D
330
1F
100
AcDbEntity
  8
DIMENSIONS
 62
     1
100
AcDbLine
 10
584.0
 20
65.0
 30
0.0
 11
482.0
 21
65.0
 31
0.0
  0
LINE
  5
8E
330
1F
100
AcDbEntity
  8
DIMENSIONS
 62
     1
100
AcDbLine
 10
384.0
 20
49.0
 30
0.0
 11
584.0
 21
49.0
 31
0.0
  0
LINE
  5
8F
330
1F
100
AcDbEntity
  8
DIMENSIONS
 62
     3
100
AcDbLine
 10
482.0
 20
57.0
 30
0.0
 11
384.0
 21
57.0
 31
0.0
  0
LINE
  5
90
330
1F
100
AcDbEntity
  8
DIMENSIONS
 62
     1
100
AcDbLine
 10
506.3840899969
 20
20.0
 30
0.0
 11
384.0
 21
20.0
 31
0.0
  0
LINE
  5
91
330
1F
100
AcDbEntity
  8
DIMENSIONS
 62
     1
100
AcDbLine
 10
506.3840899969
 20
40.0
 30
0.0
 11
384.0
 21
40.0
 31
0.0
  0
LINE
  5
92
330
1F
100
AcDbEntity
  8
DIMENSIONS
 62
     3
100
AcDbLine
 10
384.0
 20
53.0
 30
0.0
 11
482.0
 21
53.0
 31
0.0
  0
LINE
  5
93
330
1F
100
AcDbEntity
  8
DIMENSIONS
 62
     3
100
AcDbLine
 10
384.0
 20
61.0
 30
0.0
 11
482.0
 21
61.0
 31
0.0
  0
LINE
  5
94
330
1F
100
AcDbEntity
  8
DIMENSIONS
 62
     3
100
AcDbLine
 10
482.0
 20
65.0
 30
0.0
 11
384.0
 21
65.0
 31
0.0
  0
LINE
  5
95
330
1F
100
AcDbEntity
  8
DIMENSIONS
 62
     6
100
AcDbLine
 10
384.0
 20
65.0
 30
0.0
 11
384.0
 21
10.0
 31
0.0
  0
LINE
  5
96
330
1F
100
AcDbEntity
  8
DIMENSIONS
  6
CENTERX2
 62
     3
100
AcDbLine
 10
461.9464559643
 20
44.5
 30
0.0
 11
480.2011144836
 21
44.5
 31
0.0
  0
LINE
  5
97
330
1F
100
AcDbEntity
  8
DIMENSIONS
 62
     7
100
AcDbLine
 10
463.2436794306
 20
42.5
 30
0.0
 11
470.2436794306
 21
41.25
 31
0.0
  0
LINE
  5
98
330
1F
100
AcDbEntity
  8
DIMENSIONS
 62
     7
100
AcDbLine
 10
470.2436794306
 20
47.75
 30
0.0
 11
463.2436794306
 21
46.5
 31
0.0
  0
LINE
  5
99
330
1F
100
AcDbEntity
  8
DIMENSIONS
 62
     1
100
AcDbLine
 10
456.7915398845
 20
20.0
 30
0.0
 11
456.7915398845
 21
10.0
 31
0.0
  0
LINE
  5
9A
330
1F
100
AcDbEntity
  8
DIMENSIONS
 62
     3
100
AcDbLine
 10
413.0
 20
49.0
 30
0.0
 11
413.0
 21
65.0
 31
0.0
  0
LINE
  5
9B
330
1F
100
AcDbEntity
  8
DIMENSIONS
 62
     3
100
AcDbLine
 10
407.0
 20
49.0
 30
0.0
 11
407.0
 21
65.0
 31
0.0
  0
LINE
  5
9C
330
1F
100
AcDbEntity
  8
DIMENSIONS
 62
     3
100
AcDbLine
 10
393.0
 20
49.0
 30
0.0
 11
393.0
 21
65.0
 31
0.0
  0
LINE
  5
9D
330
1F
100
AcDbEntity
  8
DIMENSIONS
 62
     1
100
AcDbLine
 10
415.0
 20
49.0
 30
0.0
 11
415.0
 21
40.0
 31
0.0
  0
LINE
  5
9E
330
1F
100
AcDbEntity
  8
DIMENSIONS
 62
     1
100
AcDbLine
 10
434.7306942372
 20
49.0
 30
0.0
 11
434.7306942372
 21
40.0
 31
0.0
  0
LINE
  5
9F
330
1F
100
AcDbEntity
  8
DIMENSIONS
 62
     7
100
AcDbLine
 10
463.2436794306
 20
46.5
 30
0.0
 11
463.2436794306
 21
42.5
 31
0.0
  0
LINE
  5
A0
330
1F
100
AcDbEntity
  8
DIMENSIONS
 62
     1
100
AcDbLine
 10
459.6203361042
 20
49.0
 30
0.0
 11
459.6203361042
 21
40.0
 31
0.0
  0
LINE
  5
A1
330
1F
100
AcDbEntity
  8
DIMENSIONS
 62
     6
100
AcDbLine
 10
506.3840899969
 20
40.0
 30
0.0
 11
506.3840899969
 21
10.0
 31
0.0
  0
LINE
  5
A2
330
1F
100
AcDbEntity
  8
DIMENSIONS
 62
     1
100
AcDbLine
 10
482.0
 20
20.0
 30
0.0
 11
482.0
 21
10.0
 31
0.0
  0
LINE
  5
A3
330
1F
100
AcDbEntity
  8
DIMENSIONS
 62
     1
100
AcDbLine
 10
482.0
 20
49.0
 30
0.0
 11
482.0
 21
65.0
 31
0.0
  0
LINE
  5
A4
330
1F
100
AcDbEntity
  8
DIMENSIONS
 62
     1
100
AcDbLine
 10
482.0
 20
49.0
 30
0.0
 11
482.0
 21
40.0
 31
0.0
  0
LINE
  5
A5
330
1F
100
AcDbEntity
  8
DIMENSIONS
  6
CENTERX2
 62
     3
100
AcDbLine
 10
475.9339320285
 20
48.3479779213
 30
0.0
 11
475.9339320285
 21
40.5133183928
 31
0.0
  0
LINE
  5
A6
330
1F
100
AcDbEntity
  8
DIMENSIONS
 62
     7
100
AcDbLine
 10
470.2436794306
 20
41.25
 30
0.0
 11
470.2436794306
 21
47.75
 31
0.0
  0
LINE
  5
A7
330
1F
100
AcDbEntity
  8
DIMENSIONS
 62
     1
100
AcDbLine
 10
519.0
 20
49.0
 30
0.0
 11
519.0
 21
65.0
 31
0.0
  0
LINE
  5
A8
330
1F
100
AcDbEntity
  8
DIMENSIONS
 62
     6
100
AcDbLine
 10
584.0
 20
10.0
 30
0.0
 11
584.0
 21
65.0
 31
0.0
  0
LINE
  5
A9
330
1F
100
AcDbEntity
  8
0
  6
Continuous
 62
     7
370
    70
100
AcDbLine
 10
20.0
 20
10.0
 30
0.0
 11
20.0
 21
410.0
 31
0.0
  0
LINE
  5
AA
330
1F
100
AcDbEntity
  8
0
  6
Continuous
 62
     7
370
    70
100
AcDbLine
 10
20.0
 20
410.0
 30
0.0
 11
584.0
 21
410.0
 31
0.0
  0
LINE
  5
AB
330
1F
100
AcDbEntity
  8
0
  6
Continuous
 62
     7
370
    70
100
AcDbLine
 10
584.0
 20
410.0
 30
0.0
 11
584.0
 21
10.0
 31
0.0
  0
LINE
  5
AC
330
1F
100
AcDbEntity
  8
0
  6
Continuous
 62
     7
370
    70
100
AcDbLine
 10
584.0
 20
10.0
 30
0.0
 11
20.0
 21
10.0
 31
0.0
  0
LINE
  5
AD
330
1F
100
AcDbEntity
  8
0
  6
Continuous
 62
     7
370
    70
100
AcDbLine
 10
15.0
 20
5.0
 30
0.0
 11
15.0
 21
415.0
 31
0.0
  0
LINE
  5
AE
330
1F
100
AcDbEntity
  8
0
  6
Continuous
 62
     7
370
    70
100
AcDbLine
 10
15.0
 20
415.0
 30
0.0
 11
589.0
 21
415.0
 31
0.0
  0
LINE
  5
AF
330
1F
100
AcDbEntity
  8
0
  6
Continuous
 62
     7
370
    70
100
AcDbLine
 10
589.0
 20
415.0
 30
0.0
 11
589.0
 21
5.0
 31
0.0
  0
LINE
  5
B0
330
1F
100
AcDbEntity
  8
0
  6
Continuous
 62
     7
370
    70
100
AcDbLine
 10
589.0
 20
5.0
 30
0.0
 11
15.0
 21
5.0
 31
0.0
  0
LINE
  5
B1
330
1F
100
AcDbEntity
  8
0
  6
Continuous
 62
     7
370
    35
100
AcDbLine
 10
15.0
 20
210.0
 30
0.0
 11
25.0
 21
210.0
 31
0.0
  0
LINE
  5
B2
330
1F
100
AcDbEntity
  8
0
  6
Continuous
 62
     7
370
    35
100
AcDbLine
 10
302.0
 20
415.0
 30
0.0
 11
302.0
 21
405.0
 31
0.0
  0
LINE
  5
B3
330
1F
100
AcDbEntity
  8
0
  6
Continuous
 62
     7
370
    35
100
AcDbLine
 10
589.0
 20
210.0
 30
0.0
 11
579.0
 21
210.0
 31
0.0
  0
LINE
  5
B4
330
1F
100
AcDbEntity
  8
0
  6
Continuous
 62
     7
370
    35
100
AcDbLine
 10
302.0
 20
5.0
 30
0.0
 11
302.0
 21
15.0
 31
0.0
  0
LINE
  5
B5
330
1F
100
AcDbEntity
  8
0
  6
Continuous
 62
     7
370
    35
100
AcDbLine
 10
20.0
 20
60.0
 30
0.0
 11
15.0
 21
60.0
 31
0.0
  0
LINE
  5
B6
330
1F
100
AcDbEntity
  8
0
  6
Continuous
 62
     7
370
    35
100
AcDbLine
 10
584.0
 20
60.0
 30
0.0
 11
589.0
 21
60.0
 31
0.0
  0
LINE
  5
B7
330
1F
100
AcDbEntity
  8
0
  6
Continuous
 62
     7
370
    35
100
AcDbLine
 10
20.0
 20
110.0
 30
0.0
 11
15.0
 21
110.0
 31
0.0
  0
LINE
  5
B8
330
1F
100
AcDbEntity
  8
0
  6
Continuous
 62
     7
370
    35
100
AcDbLine
 10
584.0
 20
110.0
 30
0.0
 11
589.0
 21
110.0
 31
0.0
  0
LINE
  5
B9
330
1F
100
AcDbEntity
  8
0
  6
Continuous
 62
     7
370
    35
100
AcDbLine
 10
20.0
 20
160.0
 30
0.0
 11
15.0
 21
160.0
 31
0.0
  0
LINE
  5
BA
330
1F
100
AcDbEntity
  8
0
  6
Continuous
 62
     7
370
    35
100
AcDbLine
 10
584.0
 20
160.0
 30
0.0
 11
589.0
 21
160.0
 31
0.0
  0
LINE
  5
BB
330
1F
100
AcDbEntity
  8
0
  6
Continuous
 62
     7
370
    35
100
AcDbLine
 10
20.0
 20
210.0
 30
0.0
 11
15.0
 21
210.0
 31
0.0
  0
LINE
  5
BC
330
1F
100
AcDbEntity
  8
0
  6
Continuous
 62
     7
370
    35
100
AcDbLine
 10
584.0
 20
210.0
 30
0.0
 11
589.0
 21
210.0
 31
0.0
  0
LINE
  5
BD
330
1F
100
AcDbEntity
  8
0
  6
Continuous
 62
     7
370
    35
100
AcDbLine
 10
20.0
 20
260.0
 30
0.0
 11
15.0
 21
260.0
 31
0.0
  0
LINE
  5
BE
330
1F
100
AcDbEntity
  8
0
  6
Continuous
 62
     7
370
    35
100
AcDbLine
 10
584.0
 20
260.0
 30
0.0
 11
589.0
 21
260.0
 31
0.0
  0
LINE
  5
BF
330
1F
100
AcDbEntity
  8
0
  6
Continuous
 62
     7
370
    35
100
AcDbLine
 10
20.0
 20
310.0
 30
0.0
 11
15.0
 21
310.0
 31
0.0
  0
LINE
  5
C0
330
1F
100
AcDbEntity
  8
0
  6
Continuous
 62
     7
370
    35
100
AcDbLine
 10
584.0
 20
310.0
 30
0.0
 11
589.0
 21
310.0
 31
0.0
  0
LINE
  5
C1
330
1F
100
AcDbEntity
  8
0
  6
Continuous
 62
     7
370
    35
100
AcDbLine
 10
20.0
 20
360.0
 30
0.0
 11
15.0
 21
360.0
 31
0.0
  0
LINE
  5
C2
330
1F
100
AcDbEntity
  8
0
  6
Continuous
 62
     7
370
    35
100
AcDbLine
 10
584.0
 20
360.0
 30
0.0
 11
589.0
 21
360.0
 31
0.0
  0
LINE
  5
C3
330
1F
100
AcDbEntity
  8
0
  6
Continuous
 62
     7
370
    35
100
AcDbLine
 10
52.0
 20
410.0
 30
0.0
 11
52.0
 21
415.0
 31
0.0
  0
LINE
  5
C4
330
1F
100
AcDbEntity
  8
0
  6
Continuous
 62
     7
370
    35
100
AcDbLine
 10
52.0
 20
10.0
 30
0.0
 11
52.0
 21
5.0
 31
0.0
  0
LINE
  5
C5
330
1F
100
AcDbEntity
  8
0
  6
Continuous
 62
     7
370
    35
100
AcDbLine
 10
102.0
 20
410.0
 30
0.0
 11
102.0
 21
415.0
 31
0.0
  0
LINE
  5
C6
330
1F
100
AcDbEntity
  8
0
  6
Continuous
 62
     7
370
    35
100
AcDbLine
 10
102.0
 20
10.0
 30
0.0
 11
102.0
 21
5.0
 31
0.0
  0
LINE
  5
C7
330
1F
100
AcDbEntity
  8
0
  6
Continuous
 62
     7
370
    35
100
AcDbLine
 10
152.0
 20
410.0
 30
0.0
 11
152.0
 21
415.0
 31
0.0
  0
LINE
  5
C8
330
1F
100
AcDbEntity
  8
0
  6
Continuous
 62
     7
370
    35
100
AcDbLine
 10
152.0
 20
10.0
 30
0.0
 11
152.0
 21
5.0
 31
0.0
  0
LINE
  5
C9
330
1F
100
AcDbEntity
  8
0
  6
Continuous
 62
     7
370
    35
100
AcDbLine
 10
202.0
 20
410.0
 30
0.0
 11
202.0
 21
415.0
 31
0.0
  0
LINE
  5
CA
330
1F
100
AcDbEntity
  8
0
  6
Continuous
 62
     7
370
    35
100
AcDbLine
 10
202.0
 20
10.0
 30
0.0
 11
202.0
 21
5.0
 31
0.0
  0
LINE
  5
CB
330
1F
100
AcDbEntity
  8
0
  6
Continuous
 62
     7
370
    35
100
AcDbLine
 10
252.0
 20
410.0
 30
0.0
 11
252.0
 21
415.0
 31
0.0
  0
LINE
  5
CC
330
1F
100
AcDbEntity
  8
0
  6
Continuous
 62
     7
370
    35
100
AcDbLine
 10
252.0
 20
10.0
 30
0.0
 11
252.0
 21
5.0
 31
0.0
  0
LINE
  5
CD
330
1F
100
AcDbEntity
  8
0
  6
Continuous
 62
     7
370
    35
100
AcDbLine
 10
302.0
 20
410.0
 30
0.0
 11
302.0
 21
415.0
 31
0.0
  0
LINE
  5
CE
330
1F
100
AcDbEntity
  8
0
  6
Continuous
 62
     7
370
    35
100
AcDbLine
 10
302.0
 20
10.0
 30
0.0
 11
302.0
 21
5.0
 31
0.0
  0
LINE
  5
CF
330
1F
100
AcDbEntity
  8
0
  6
Continuous
 62
     7
370
    35
100
AcDbLine
 10
352.0
 20
410.0
 30
0.0
 11
352.0
 21
415.0
 31
0.0
  0
LINE
  5
D0
330
1F
100
AcDbEntity
  8
0
  6
Continuous
 62
     7
370
    35
100
AcDbLine
 10
352.0
 20
10.0
 30
0.0
 11
352.0
 21
5.0
 31
0.0
  0
LINE
  5
D1
330
1F
100
AcDbEntity
  8
0
  6
Continuous
 62
     7
370
    35
100
AcDbLine
 10
402.0
 20
410.0
 30
0.0
 11
402.0
 21
415.0
 31
0.0
  0
LINE
  5
D2
330
1F
100
AcDbEntity
  8
0
  6
Continuous
 62
     7
370
    35
100
AcDbLine
 10
402.0
 20
10.0
 30
0.0
 11
402.0
 21
5.0
 31
0.0
  0
LINE
  5
D3
330
1F
100
AcDbEntity
  8
0
  6
Continuous
 62
     7
370
    35
100
AcDbLine
 10
452.0
 20
410.0
 30
0.0
 11
452.0
 21
415.0
 31
0.0
  0
LINE
  5
D4
330
1F
100
AcDbEntity
  8
0
  6
Continuous
 62
     7
370
    35
100
AcDbLine
 10
452.0
 20
10.0
 30
0.0
 11
452.0
 21
5.0
 31
0.0
  0
LINE
  5
D5
330
1F
100
AcDbEntity
  8
0
  6
Continuous
 62
     7
370
    35
100
AcDbLine
 10
502.0
 20
410.0
 30
0.0
 11
502.0
 21
415.0
 31
0.0
  0
LINE
  5
D6
330
1F
100
AcDbEntity
  8
0
  6
Continuous
 62
     7
370
    35
100
AcDbLine
 10
502.0
 20
10.0
 30
0.0
 11
502.0
 21
5.0
 31
0.0
  0
LINE
  5
D7
330
1F
100
AcDbEntity
  8
0
  6
Continuous
 62
     7
370
    35
100
AcDbLine
 10
552.0
 20
410.0
 30
0.0
 11
552.0
 21
415.0
 31
0.0
  0
LINE
  5
D8
330
1F
100
AcDbEntity
  8
0
  6
Continuous
 62
     7
370
    35
100
AcDbLine
 10
552.0
 20
10.0
 30
0.0
 11
552.0
 21
5.0
 31
0.0
  0
CIRCLE
  5
D9
330
1F
100
AcDbEntity
  8
DIMENSIONS
 62
     7
100
AcDbCircle
 10
475.9339320285
 20
44.5
 30
0.0
 40
2.0
  0
CIRCLE
  5
DA
330
1F
100
AcDbEntity
  8
DIMENSIONS
 62
     7
100
AcDbCircle
 10
475.9339320285
 20
44.5
 30
0.0
 40
3.249999999999943
  0
INSERT
  5
E1
330
1F
100
AcDbEntity
  8
0
  6
Continuous
 62
     7
370
     0
100
AcDbBlockReference
  2
SW_NOTE_0
 10
238.4104070315
 20
244.4321853042
 30
0.0
  0
INSERT
  5
E7
330
1F
100
AcDbEntity
  8
0
  6
Continuous
 62
     7
370
     0
100
AcDbBlockReference
  2
SW_NOTE_1
 10
528.2643821402
 20
244.4321857698
 30
0.0
  0
INSERT
  5
ED
330
1F
100
AcDbEntity
  8
0
  6
Continuous
 62
     7
370
     0
100
AcDbBlockReference
  2
SW_NOTE_2
 10
238.4104070315
 20
39.9263934778
 30
0.0
  0
MTEXT
  5
EE
330
1F
100
AcDbEntity
  8
0
  6
Continuous
 62
     7
370
     0
100
AcDbMText
 10
530.3259324611
 20
84.99810419
 30
0.0
 40
4.7625
 41
0.0
 71
     1
 72
     1
  1
Rep: 30-31-32
  7
SLDTEXTSTYLE0
 73
     1
 44
1.0
  0
MTEXT
  5
EF
330
1F
100
AcDbEntity
  8
0
  6
Continuous
 62
     7
370
     0
100
AcDbMText
 10
17.3396881428
 20
37.473057513
 30
0.0
 40
3.96875
 41
0.0
 71
     2
 72
     1
  1
A
  7
SLDTEXTSTYLE0
 73
     1
 44
1.0
  0
MTEXT
  5
F0
330
1F
100
AcDbEntity
  8
0
  6
Continuous
 62
     7
370
     0
100
AcDbMText
 10
586.3396881428
 20
37.473057513
 30
0.0
 40
3.96875
 41
0.0
 71
     2
 72
     1
  1
A
  7
SLDTEXTSTYLE0
 73
     1
 44
1.0
  0
MTEXT
  5
F1
330
1F
100
AcDbEntity
  8
0
  6
Continuous
 62
     7
370
     0
100
AcDbMText
 10
17.4706018241
 20
87.473057513
 30
0.0
 40
3.96875
 41
0.0
 71
     2
 72
     1
  1
B
  7
SLDTEXTSTYLE0
 73
     1
 44
1.0
  0
MTEXT
  5
F2
330
1F
100
AcDbEntity
  8
0
  6
Continuous
 62
     7
370
     0
100
AcDbMText
 10
586.4706018241
 20
87.473057513
 30
0.0
 40
3.96875
 41
0.0
 71
     2
 72
     1
  1
B
  7
SLDTEXTSTYLE0
 73
     1
 44
1.0
  0
MTEXT
  5
F3
330
1F
100
AcDbEntity
  8
0
  6
Continuous
 62
     7
370
     0
100
AcDbMText
 10
17.458658902
 20
137.473057513
 30
0.0
 40
3.96875
 41
0.0
 71
     2
 72
     1
  1
C
  7
SLDTEXTSTYLE0
 73
     1
 44
1.0
  0
MTEXT
  5
F4
330
1F
100
AcDbEntity
  8
0
  6
Continuous
 62
     7
370
     0
100
AcDbMText
 10
586.458658902
 20
137.473057513
 30
0.0
 40
3.96875
 41
0.0
 71
     2
 72
     1
  1
C
  7
SLDTEXTSTYLE0
 73
     1
 44
1.0
  0
MTEXT
  5
F5
330
1F
100
AcDbEntity
  8
0
  6
Continuous
 62
     7
370
     0
100
AcDbMText
 10
17.4526872821
 20
187.473057513
 30
0.0
 40
3.96875
 41
0.0
 71
     2
 72
     1
  1
D
  7
SLDTEXTSTYLE0
 73
     1
 44
1.0
  0
MTEXT
  5
F6
330
1F
100
AcDbEntity
  8
0
  6
Continuous
 62
     7
370
     0
100
AcDbMText
 10
586.4526872821
 20
187.473057513
 30
0.0
 40
3.96875
 41
0.0
 71
     2
 72
     1
  1
D
  7
SLDTEXTSTYLE0
 73
     1
 44
1.0
  0
MTEXT
  5
F7
330
1F
100
AcDbEntity
  8
0
  6
Continuous
 62
     7
370
     0
100
AcDbMText
 10
17.5078089051
 20
237.473057513
 30
0.0
 40
3.96875
 41
0.0
 71
     2
 72
     1
  1
E
  7
SLDTEXTSTYLE0
 73
     1
 44
1.0
  0
MTEXT
  5
F8
330
1F
100
AcDbEntity
  8
0
  6
Continuous
 62
     7
370
     0
100
AcDbMText
 10
586.5078089051
 20
237.473057513
 30
0.0
 40
3.96875
 41
0.0
 71
     2
 72
     1
  1
E
  7
SLDTEXTSTYLE0
 73
     1
 44
1.0
  0
MTEXT
  5
F9
330
1F
100
AcDbEntity
  8
0
  6
Continuous
 62
     7
370
     0
100
AcDbMText
 10
17.4577402091
 20
287.473057513
 30
0.0
 40
3.96875
 41
0.0
 71
     2
 72
     1
  1
F
  7
SLDTEXTSTYLE0
 73
     1
 44
1.0
  0
MTEXT
  5
FA
330
1F
100
AcDbEntity
  8
0
  6
Continuous
 62
     7
370
     0
100
AcDbMText
 10
586.4577402091
 20
287.473057513
 30
0.0
 40
3.96875
 41
0.0
 71
     2
 72
     1
  1
F
  7
SLDTEXTSTYLE0
 73
     1
 44
1.0
  0
MTEXT
  5
FB
330
1F
100
AcDbEntity
  8
0
  6
Continuous
 62
     7
370
     0
100
AcDbMText
 10
17.4866788853
 20
337.473057513
 30
0.0
 40
3.96875
 41
0.0
 71
     2
 72
     1
  1
G
  7
SLDTEXTSTYLE0
 73
     1
 44
1.0
  0
MTEXT
  5
FC
330
1F
100
AcDbEntity
  8
0
  6
Continuous
 62
     7
370
     0
100
AcDbMText
 10
586.4866788853
 20
337.473057513
 30
0.0
 40
3.96875
 41
0.0
 71
     2
 72
     1
  1
G
  7
SLDTEXTSTYLE0
 73
     1
 44
1.0
  0
MTEXT
  5
FD
330
1F
100
AcDbEntity
  8
0
  6
Continuous
 62
     7
370
     0
100
AcDbMText
 10
17.4903537836
 20
387.473057513
 30
0.0
 40
3.96875
 41
0.0
 71
     2
 72
     1
  1
H
  7
SLDTEXTSTYLE0
 73
     1
 44
1.0
  0
MTEXT
  5
FE
330
1F
100
AcDbEntity
  8
0
  6
Continuous
 62
     7
370
     0
100
AcDbMText
 10
586.4903537836
 20
387.473057513
 30
0.0
 40
3.96875
 41
0.0
 71
     2
 72
     1
  1
H
  7
SLDTEXTSTYLE0
 73
     1
 44
1.0
  0
MTEXT
  5
FF
330
1F
100
AcDbEntity
  8
0
  6
Continuous
 62
     7
370
     0
100
AcDbMText
 10
35.9200738929
 20
9.973057513
 30
0.0
 40
3.96875
 41
0.0
 71
     2
 72
     1
  1
12
  7
SLDTEXTSTYLE0
 73
     1
 44
1.0
  0
MTEXT
  5
100
330
1F
100
AcDbEntity
  8
0
  6
Continuous
 62
     7
370
     0
100
AcDbMText
 10
35.9200738929
 20
414.973057513
 30
0.0
 40
3.96875
 41
0.0
 71
     2
 72
     1
  1
12
  7
SLDTEXTSTYLE0
 73
     1
 44
1.0
  0
MTEXT
  5
101
330
1F
100
AcDbEntity
  8
0
  6
Continuous
 62
     7
370
     0
100
AcDbMText
 10
76.9200738929
 20
9.973057513
 30
0.0
 40
3.96875
 41
0.0
 71
     2
 72
     1
  1
11
  7
SLDTEXTSTYLE0
 73
     1
 44
1.0
  0
MTEXT
  5
102
330
1F
100
AcDbEntity
  8
0
  6
Continuous
 62
     7
370
     0
100
AcDbMText
 10
76.9200738929
 20
414.973057513
 30
0.0
 40
3.96875
 41
0.0
 71
     2
 72
     1
  1
11
  7
SLDTEXTSTYLE0
 73
     1
 44
1.0
  0
MTEXT
  5
103
330
1F
100
AcDbEntity
  8
0
  6
Continuous
 62
     7
370
     0
100
AcDbMText
 10
126.9200738929
 20
9.973057513
 30
0.0
 40
3.96875
 41
0.0
 71
     2
 72
     1
  1
10
  7
SLDTEXTSTYLE0
 73
     1
 44
1.0
  0
MTEXT
  5
104
330
1F
100
AcDbEntity
  8
0
  6
Continuous
 62
     7
370
     0
100
AcDbMText
 10
126.9200738929
 20
414.973057513
 30
0.0
 40
3.96875
 41
0.0
 71
     2
 72
     1
  1
10
  7
SLDTEXTSTYLE0
 73
     1
 44
1.0
  0
MTEXT
  5
105
330
1F
100
AcDbEntity
  8
0
  6
Continuous
 62
     7
370
     0
100
AcDbMText
 10
176.9600369465
 20
9.973057513
 30
0.0
 40
3.96875
 41
0.0
 71
     2
 72
     1
  1
9
  7
SLDTEXTSTYLE0
 73
     1
 44
1.0
  0
MTEXT
  5
106
330
1F
100
AcDbEntity
  8
0
  6
Continuous
 62
     7
370
     0
100
AcDbMText
 10
176.9600369465
 20
414.973057513
 30
0.0
 40
3.96875
 41
0.0
 71
     2
 72
     1
  1
9
  7
SLDTEXTSTYLE0
 73
     1
 44
1.0
  0
MTEXT
  5
107
330
1F
100
AcDbEntity
  8
0
  6
Continuous
 62
     7
370
     0
100
AcDbMText
 10
226.9600369465
 20
9.973057513
 30
0.0
 40
3.96875
 41
0.0
 71
     2
 72
     1
  1
8
  7
SLDTEXTSTYLE0
 73
     1
 44
1.0
  0
MTEXT
  5
108
330
1F
100
AcDbEntity
  8
0
  6
Continuous
 62
     7
370
     0
100
AcDbMText
 10
226.9600369465
 20
414.973057513
 30
0.0
 40
3.96875
 41
0.0
 71
     2
 72
     1
  1
8
  7
SLDTEXTSTYLE0
 73
     1
 44
1.0
  0
MTEXT
  5
109
330
1F
100
AcDbEntity
  8
0
  6
Continuous
 62
     7
370
     0
100
AcDbMText
 10
276.9600369465
 20
9.973057513
 30
0.0
 40
3.96875
 41
0.0
 71
     2
 72
     1
  1
7
  7
SLDTEXTSTYLE0
 73
     1
 44
1.0
  0
MTEXT
  5
10A
330
1F
100
AcDbEntity
  8
0
  6
Continuous
 62
     7
370
     0
100
AcDbMText
 10
276.9600369465
 20
414.973057513
 30
0.0
 40
3.96875
 41
0.0
 71
     2
 72
     1
  1
7
  7
SLDTEXTSTYLE0
 73
     1
 44
1.0
  0
MTEXT
  5
10B
330
1F
100
AcDbEntity
  8
0
  6
Continuous
 62
     7
370
     0
100
AcDbMText
 10
326.9600369465
 20
9.973057513
 30
0.0
 40
3.96875
 41
0.0
 71
     2
 72
     1
  1
6
  7
SLDTEXTSTYLE0
 73
     1
 44
1.0
  0
MTEXT
  5
10C
330
1F
100
AcDbEntity
  8
0
  6
Continuous
 62
     7
370
     0
100
AcDbMText
 10
326.9600369465
 20
414.973057513
 30
0.0
 40
3.96875
 41
0.0
 71
     2
 72
     1
  1
6
  7
SLDTEXTSTYLE0
 73
     1
 44
1.0
  0
MTEXT
  5
10D
330
1F
100
AcDbEntity
  8
0
  6
Continuous
 62
     7
370
     0
100
AcDbMText
 10
376.9600369465
 20
9.973057513
 30
0.0
 40
3.96875
 41
0.0
 71
     2
 72
     1
  1
5
  7
SLDTEXTSTYLE0
 73
     1
 44
1.0
  0
MTEXT
  5
10E
330
1F
100
AcDbEntity
  8
0
  6
Continuous
 62
     7
370
     0
100
AcDbMText
 10
376.9600369465
 20
414.973057513
 30
0.0
 40
3.96875
 41
0.0
 71
     2
 72
     1
  1
5
  7
SLDTEXTSTYLE0
 73
     1
 44
1.0
  0
MTEXT
  5
10F
330
1F
100
AcDbEntity
  8
0
  6
Continuous
 62
     7
370
     0
100
AcDbMText
 10
426.9600369465
 20
9.973057513
 30
0.0
 40
3.96875
 41
0.0
 71
     2
 72
     1
  1
4
  7
SLDTEXTSTYLE0
 73
     1
 44
1.0
  0
MTEXT
  5
110
330
1F
100
AcDbEntity
  8
0
  6
Continuous
 62
     7
370
     0
100
AcDbMText
 10
426.9600369465
 20
414.973057513
 30
0.0
 40
3.96875
 41
0.0
 71
     2
 72
     1
  1
4
  7
SLDTEXTSTYLE0
 73
     1
 44
1.0
  0
MTEXT
  5
111
330
1F
100
AcDbEntity
  8
0
  6
Continuous
 62
     7
370
     0
100
AcDbMText
 10
476.9600369465
 20
9.973057513
 30
0.0
 40
3.96875
 41
0.0
 71
     2
 72
     1
  1
3
  7
SLDTEXTSTYLE0
 73
     1
 44
1.0
  0
MTEXT
  5
112
330
1F
100
AcDbEntity
  8
0
  6
Continuous
 62
     7
370
     0
100
AcDbMText
 10
476.9600369465
 20
414.973057513
 30
0.0
 40
3.96875
 41
0.0
 71
     2
 72
     1
  1
3
  7
SLDTEXTSTYLE0
 73
     1
 44
1.0
  0
MTEXT
  5
113
330
1F
100
AcDbEntity
  8
0
  6
Continuous
 62
     7
370
     0
100
AcDbMText
 10
526.9600369465
 20
9.973057513
 30
0.0
 40
3.96875
 41
0.0
 71
     2
 72
     1
  1
2
  7
SLDTEXTSTYLE0
 73
     1
 44
1.0
  0
MTEXT
  5
114
330
1F
100
AcDbEntity
  8
0
  6
Continuous
 62
     7
370
     0
100
AcDbMText
 10
526.9600369465
 20
414.973057513
 30
0.0
 40
3.96875
 41
0.0
 71
     2
 72
     1
  1
2
  7
SLDTEXTSTYLE0
 73
     1
 44
1.0
  0
MTEXT
  5
115
330
1F
100
AcDbEntity
  8
0
  6
Continuous
 62
     7
370
     0
100
AcDbMText
 10
567.9600369465
 20
9.973057513
 30
0.0
 40
3.96875
 41
0.0
 71
     2
 72
     1
  1
1
  7
SLDTEXTSTYLE0
 73
     1
 44
1.0
  0
MTEXT
  5
116
330
1F
100
AcDbEntity
  8
0
  6
Continuous
 62
     7
370
     0
100
AcDbMText
 10
567.9600369465
 20
414.973057513
 30
0.0
 40
3.96875
 41
0.0
 71
     2
 72
     1
  1
1
  7
SLDTEXTSTYLE0
 73
     1
 44
1.0
  0
MTEXT
  5
118
330
1F
100
AcDbEntity
  8
DIMENSIONS
100
AcDbMText
 10
388.6027253142
 20
27.5635148766
 30
0.0
 40
5.0
 41
0.0
 71
     1
 72
     1
  1
Matire: AMPCO-21
  7
SLDTEXTSTYLE1
 73
     1
 44
1.0
  0
MTEXT
  5
119
330
1F
100
AcDbEntity
  8
DIMENSIONS
100
AcDbMText
 10
388.6027253142
 20
36.0243088529
 30
0.0
 40
5.0
 41
0.0
 71
     1
 72
     1
  1
0100770102-OP20A-REACTION-A
  7
SLDTEXTSTYLE1
 73
     1
 44
1.0
  0
MTEXT
  5
11B
330
1F
100
AcDbEntity
  8
DIMENSIONS
100
AcDbMText
 10
543.5707948969
 20
33.5948758245
 30
0.0
 40
4.0
 41
0.0
 71
     2
 72
     1
  1
BEOS
  7
SLDTEXTSTYLE2
 73
     1
 44
1.0
  0
MTEXT
  5
11D
330
1F
100
AcDbEntity
  8
DIMENSIONS
100
AcDbMText
 10
566.3724789768
 20
14.0971965899
 30
0.0
 40
2.0
 41
0.0
 71
     2
 72
     1
  1
Email : beos76@orange.fr
  7
SLDTEXTSTYLE3
 73
     1
 44
1.0
  0
MTEXT
  5
11E
330
1F
100
AcDbEntity
  8
DIMENSIONS
100
AcDbMText
 10
520.0
 20
59.1258943396
 30
0.0
 40
5.0
 41
0.0
 71
     1
 72
     1
  1
Cde.
  7
SLDTEXTSTYLE2
 73
     1
 44
1.0
  0
MTEXT
  5
120
330
1F
100
AcDbEntity
  8
DIMENSIONS
100
AcDbMText
 10
483.2208712864
 20
45.598408559
 30
0.0
 40
1.7276751971
 41
0.0
 71
     1
 72
     1
  1
Dessin par:
  7
SLDTEXTSTYLE4
 73
     1
 44
1.0
  0
MTEXT
  5
121
330
1F
100
AcDbEntity
  8
DIMENSIONS
100
AcDbMText
 10
500.4195026798
 20
58.7007155648
 30
0.0
 40
4.0
 41
0.0
 71
     2
 72
     1
  1
DEFI-Group
  7
SLDTEXTSTYLE2
 73
     1
 44
1.0
  0
MTEXT
  5
123
330
1F
100
AcDbEntity
  8
DIMENSIONS
100
AcDbMText
 10
501.3551528431
 20
45.4199710251
 30
0.0
 40
2.5
 41
0.0
 71
     1
 72
     1
  1
jc-seraffin
  7
SLDTEXTSTYLE5
 73
     1
 44
1.0
  0
MTEXT
  5
124
330
1F
100
AcDbEntity
  8
DIMENSIONS
100
AcDbMText
 10
518.3602706231
 20
14.4285775677
 30
0.0
 40
2.0
 41
0.0
 71
     2
 72
     1
  1
Tel. : 06-79-99-54-55
  7
SLDTEXTSTYLE3
 73
     1
 44
1.0
  0
MTEXT
  5
125
330
1F
100
AcDbEntity
  8
DIMENSIONS
100
AcDbMText
 10
470.1939384288
 20
16.9513842137
 30
0.0
 40
4.0
 41
0.0
 71
     1
 72
     1
  1
OR
  7
SLDTEXTSTYLE5
 73
     1
 44
1.0
  0
MTEXT
  5
127
330
1F
100
AcDbEntity
  8
DIMENSIONS
100
AcDbMText
 10
483.0341104783
 20
15.598408559
 30
0.0
 40
1.7276751971
 41
0.0
 71
     1
 72
     1
  1
PL:
  7
SLDTEXTSTYLE6
 73
     1
 44
1.0
  0
MTEXT
  5
129
330
1F
100
AcDbEntity
  8
DIMENSIONS
100
AcDbMText
 10
490.6508932625
 20
17.1730450679
 30
0.0
 40
4.0
 41
0.0
 71
     1
 72
     1
  1
1-1
  7
SLDTEXTSTYLE7
 73
     1
 44
1.0
  0
MTEXT
  5
12A
330
1F
100
AcDbEntity
  8
DIMENSIONS
100
AcDbMText
 10
435.9515655236
 20
45.598408559
 30
0.0
 40
1.7276751971
 41
0.0
 71
     1
 72
     1
  1
Tol Gn:
  7
SLDTEXTSTYLE4
 73
     1
 44
1.0
  0
MTEXT
  5
12C
330
1F
100
AcDbEntity
  8
DIMENSIONS
100
AcDbMText
 10
441.4891856546
 20
51.3475100145
 30
0.0
 40
1.5670523329
 41
0.0
 71
     1
 72
     1
  1
Modification
  7
SLDTEXTSTYLE8
 73
     1
 44
1.0
  0
MTEXT
  5
12E
330
1F
100
AcDbEntity
  8
DIMENSIONS
100
AcDbMText
 10
415.9106589191
 20
45.5599112198
 30
0.0
 40
1.8140589569
 41
0.0
 71
     1
 72
     1
  1
ECH:
  7
SLDTEXTSTYLE9
 73
     1
 44
1.0
  0
MTEXT
  5
130
330
1F
100
AcDbEntity
  8
DIMENSIONS
100
AcDbMText
 10
397.8240656909
 20
51.2833428182
 30
0.0
 40
1.4924307933
 41
0.0
 71
     1
 72
     1
  1
Date
  7
SLDTEXTSTYLE10
 73
     1
 44
1.0
  0
MTEXT
  5
132
330
1F
100
AcDbEntity
  8
DIMENSIONS
100
AcDbMText
 10
408.2544584761
 20
51.2833428182
 30
0.0
 40
1.4924307933
 41
0.0
 71
     1
 72
     1
  1
Ind
  7
SLDTEXTSTYLE11
 73
     1
 44
1.0
  0
MTEXT
  5
133
330
1F
100
AcDbEntity
  8
DIMENSIONS
100
AcDbMText
 10
395.5328904105
 20
45.2534731211
 30
0.0
 40
2.5
 41
0.0
 71
     1
 72
     1
  1
03/04/2018
  7
SLDTEXTSTYLE1
 73
     1
 44
1.0
  0
MTEXT
  5
134
330
1F
100
AcDbEntity
  8
DIMENSIONS
100
AcDbMText
 10
423.6197693968
 20
45.2403548954
 30
0.0
 40
2.5
 41
0.0
 71
     1
 72
     1
  1
1:1
  7
SLDTEXTSTYLE1
 73
     1
 44
1.0
  0
MTEXT
  5
135
330
1F
100
AcDbEntity
  8
DIMENSIONS
100
AcDbMText
 10
457.8256503628
 20
15.598408559
 30
0.0
 40
1.7276751971
 41
0.0
 71
     1
 72
     1
  1
Ind:
  7
SLDTEXTSTYLE6
 73
     1
 44
1.0
  0
MTEXT
  5
136
330
1F
100
AcDbEntity
  8
DIMENSIONS
100
AcDbMText
 10
390.9043488644
 20
16.9513842137
 30
0.0
 40
4.0
 41
0.0
 71
     1
 72
     1
  1
BRACKETS
  7
SLDTEXTSTYLE5
 73
     1
 44
1.0
  0
MTEXT
  5
137
330
1F
100
AcDbEntity
  8
DIMENSIONS
100
AcDbMText
 10
385.0341104783
 20
45.598408559
 30
0.0
 40
1.7276751971
 41
0.0
 71
     1
 72
     1
  1
DATE:
  7
SLDTEXTSTYLE6
 73
     1
 44
1.0
  0
MTEXT
  5
139
330
1F
100
AcDbEntity
  8
DIMENSIONS
100
AcDbMText
 10
385.6550978321
 20
51.3475100145
 30
0.0
 40
1.5670523329
 41
0.0
 71
     1
 72
     1
  1
Visa
  7
SLDTEXTSTYLE12
 73
     1
 44
1.0
  0
MTEXT
  5
13A
330
1F
100
AcDbEntity
  8
DIMENSIONS
100
AcDbMText
 10
385.0341104783
 20
15.598408559
 30
0.0
 40
1.7276751971
 41
0.0
 71
     1
 72
     1
  1
Ref:
  7
SLDTEXTSTYLE6
 73
     1
 44
1.0
  0
MTEXT
  5
13C
330
1F
100
AcDbEntity
  8
DIMENSIONS
100
AcDbMText
 10
544.9092356873
 20
24.448350257
 30
0.0
 40
2.5
 41
0.0
 71
     2
 72
     1
  1
3 rue de NEUFCHATEL
  7
SLDTEXTSTYLE13
 73
     1
 44
1.0
  0
MTEXT
  5
13D
330
1F
100
AcDbEntity
  8
DIMENSIONS
100
AcDbMText
 10
544.9025425888
 20
19.6232446981
 30
0.0
 40
2.5
 41
0.0
 71
     2
 72
     1
  1
76510 St. NICOLAS D'ALIERMONT
  7
SLDTEXTSTYLE13
 73
     1
 44
1.0
  0
MTEXT
  5
13E
330
1F
100
AcDbEntity
  8
DIMENSIONS
100
AcDbMText
 10
536.9728567526
 20
59.4398352874
 30
0.0
 40
5.2916666667
 41
0.0
 71
     1
 72
     1
  1
010077 01 02
  7
SLDTEXTSTYLE7
 73
     1
 44
1.0
  0
LINE
  5
13F
330
1F
100
AcDbEntity
  8
0
  6
Continuous
 62
     7
370
    25
100
AcDbLine
 10
89.3339462103
 20
318.3993349633
 30
0.0
 11
169.3339444221
 21
318.3993349633
 31
0.0
  0
LINE
  5
140
330
1F
100
AcDbEntity
  8
0
  6
Continuous
 62
     7
370
    25
100
AcDbLine
 10
89.3339462103
 20
379.3993356488
 30
0.0
 11
89.3339462103
 21
318.3993349633
 31
0.0
  0
LINE
  5
141
330
1F
100
AcDbEntity
  8
0
  6
Continuous
 62
     7
370
    25
100
AcDbLine
 10
169.3339444221
 20
379.3993356488
 30
0.0
 11
89.3339462103
 21
379.3993356488
 31
0.0
  0
CIRCLE
  5
142
330
1F
100
AcDbEntity
  8
0
  6
Continuous
 62
     7
370
    25
100
AcDbCircle
 10
149.3339462103
 20
348.3993349633
 30
0.0
 40
5.524999999999977
  0
CIRCLE
  5
143
330
1F
100
AcDbEntity
  8
0
  6
Continuous
 62
     7
370
    25
100
AcDbCircle
 10
109.3339462103
 20
348.3993349633
 30
0.0
 40
5.524999999999977
  0
LINE
  5
144
330
1F
100
AcDbEntity
  8
0
  6
Continuous
 62
     7
370
    25
100
AcDbLine
 10
169.3339444221
 20
379.3993356488
 30
0.0
 11
169.3339444221
 21
318.3993349633
 31
0.0
  0
LINE
  5
145
330
1F
100
AcDbEntity
  8
0
  6
Continuous
 62
     7
370
    25
100
AcDbLine
 10
89.3339462103
 20
380.39933395
 30
0.0
 11
169.3339444221
 21
380.39933395
 31
0.0
  0
LINE
  5
146
330
1F
100
AcDbEntity
  8
0
  6
Continuous
 62
     7
370
    25
100
AcDbLine
 10
89.3339462103
 20
379.3993356488
 30
0.0
 11
89.3339462103
 21
380.39933395
 31
0.0
  0
LINE
  5
147
330
1F
100
AcDbEntity
  8
0
  6
Continuous
 62
     7
370
    25
100
AcDbLine
 10
169.3339444221
 20
380.39933395
 30
0.0
 11
169.3339444221
 21
379.3993356488
 31
0.0
  0
CIRCLE
  5
148
330
1F
100
AcDbEntity
  8
0
  6
Continuous
 62
     7
370
    25
100
AcDbCircle
 10
149.3339462103
 20
348.3993349633
 30
0.0
 40
5.5
  0
CIRCLE
  5
149
330
1F
100
AcDbEntity
  8
0
  6
Continuous
 62
     7
370
    25
100
AcDbCircle
 10
109.3339462103
 20
348.3993349633
 30
0.0
 40
5.5
  0
CIRCLE
  5
14A
330
1F
100
AcDbEntity
  8
0
  6
Continuous
 62
     7
370
    25
100
AcDbCircle
 10
149.3339462103
 20
348.3993349633
 30
0.0
 40
3.300000000000011
  0
CIRCLE
  5
14B
330
1F
100
AcDbEntity
  8
0
  6
Continuous
 62
     7
370
    25
100
AcDbCircle
 10
109.3339462103
 20
348.3993349633
 30
0.0
 40
3.300000000000011
  0
LINE
  5
14C
330
1F
100
AcDbEntity
  8
0
  6
HIDDEN
 62
     7
370
    18
100
AcDbLine
 10
159.3339465083
 20
380.39933395
 30
0.0
 11
159.3339465083
 21
318.3993349633
 31
0.0
  0
LINE
  5
14D
330
1F
100
AcDbEntity
  8
0
  6
HIDDEN
 62
     7
370
    18
100
AcDbLine
 10
99.3339441241
 20
380.39933395
 30
0.0
 11
99.3339441241
 21
318.3993349633
 31
0.0
  0
DIMENSION
  5
14E
330
1F
100
AcDbEntity
  8
0
  6
Continuous
 62
     7
370
    18
100
AcDbDimension
  2
_D
 10
149.3339462103
 20
306.1780523328
 30
0.0
 11
129.8195786587
 21
306.1780523328
 31
0.0
 70
   160
  1
<>
 71
     2
 42
-1.0
  3
SLDDIMSTYLE0
100
AcDbAlignedDimension
 13
109.3339462103
 23
348.3993349633
 33
0.0
 14
149.3339462103
 24
348.3993349633
 34
0.0
100
AcDbRotatedDimension
  0
DIMENSION
  5
159
330
1F
100
AcDbEntity
  8
0
  6
Continuous
 62
     7
370
    18
100
AcDbDimension
  2
_D_1
 10
169.3339462103
 20
296.3993349633
 30
0.0
 11
129.8195786587
 21
296.3993349633
 31
0.0
 70
   160
  1
<>
 71
     2
 42
-1.0
  3
SLDDIMSTYLE0
100
AcDbAlignedDimension
 13
89.3339462103
 23
318.3993349633
 33
0.0
 14
169.3339462103
 24
318.3993349633
 34
0.0
100
AcDbRotatedDimension
  0
DIMENSION
  5
163
330
1F
100
AcDbEntity
  8
0
  6
Continuous
 62
     7
370
    18
100
AcDbDimension
  2
_D_2
 10
70.6111720705
 20
380.3993349633
 30
0.0
 11
70.6111720705
 21
349.5353894407
 31
0.0
 70
   160
  1
<>
 71
     2
 42
-1.0
  3
SLDDIMSTYLE0
100
AcDbAlignedDimension
 13
89.3339462103
 23
318.3993349633
 33
0.0
 14
89.3339462103
 24
380.3993349633
 34
0.0
 50
90.0
100
AcDbRotatedDimension
  0
DIMENSION
  5
16D
330
1F
100
AcDbEntity
  8
0
  6
Continuous
 62
     7
370
    18
100
AcDbDimension
  2
_D_3
 10
79.3339462103
 20
318.3993349633
 30
0.0
 11
79.3339462103
 21
332.2856961827
 31
0.0
 70
   160
  1
<>
 71
     2
 42
-1.0
  3
SLDDIMSTYLE0
100
AcDbAlignedDimension
 13
149.3339462103
 23
348.3993349633
 33
0.0
 14
89.3339462103
 24
318.3993349633
 34
0.0
 50
90.0
100
AcDbRotatedDimension
  0
INSERT
  5
182
330
1F
100
AcDbEntity
  8
0
  6
Continuous
 62
     7
370
     0
100
AcDbBlockReference
  2
SW_CENTERMARKSYMBOL_0
 10
149.3339462103
 20
348.3993349633
 30
0.0
  0
INSERT
  5
18E
330
1F
100
AcDbEntity
  8
0
  6
Continuous
 62
     7
370
     0
100
AcDbBlockReference
  2
SW_CENTERMARKSYMBOL_1
 10
109.3339462103
 20
348.3993349633
 30
0.0
  0
LINE
  5
18F
330
1F
100
AcDbEntity
  8
0
  6
Continuous
 62
     7
370
    25
100
AcDbLine
 10
219.9410821685
 20
380.39933395
 30
0.0
 11
219.9410821685
 21
318.3993349633
 31
0.0
  0
LINE
  5
190
330
1F
100
AcDbEntity
  8
0
  6
Continuous
 62
     7
370
    25
100
AcDbLine
 10
229.9410875329
 20
380.39933395
 30
0.0
 11
229.9410875329
 21
318.3993349633
 31
0.0
  0
LINE
  5
191
330
1F
100
AcDbEntity
  8
0
  6
Continuous
 62
     7
370
    25
100
AcDbLine
 10
219.9410821685
 20
318.3993349633
 30
0.0
 11
229.9410875329
 21
318.3993349633
 31
0.0
  0
LINE
  5
192
330
1F
100
AcDbEntity
  8
0
  6
Continuous
 62
     7
370
    25
100
AcDbLine
 10
219.9410821685
 20
380.39933395
 30
0.0
 11
229.9410875329
 21
380.39933395
 31
0.0
  0
ARC
  5
193
330
1F
100
AcDbEntity
  8
0
  6
Continuous
 62
     7
370
    25
100
AcDbCircle
 10
238.941088129
 20
379.3993349633
 30
0.0
 40
1.0
100
AcDbArc
 50
0.0
 51
90.0
  0
LINE
  5
194
330
1F
100
AcDbEntity
  8
0
  6
Continuous
 62
     7
370
    25
100
AcDbLine
 10
239.9410928974
 20
379.3993356488
 30
0.0
 11
239.9410928974
 21
318.3993349633
 31
0.0
  0
LINE
  5
195
330
1F
100
AcDbEntity
  8
0
  6
Continuous
 62
     7
370
    25
100
AcDbLine
 10
229.9410875329
 20
318.3993349633
 30
0.0
 11
239.9410928974
 21
318.3993349633
 31
0.0
  0
LINE
  5
196
330
1F
100
AcDbEntity
  8
0
  6
Continuous
 62
     7
370
    25
100
AcDbLine
 10
229.9410875329
 20
380.39933395
 30
0.0
 11
238.9410908708
 21
380.39933395
 31
0.0
  0
LINE
  5
197
330
1F
100
AcDbEntity
  8
0
  6
HIDDEN
 62
     7
370
    18
100
AcDbLine
 10
239.9160887489
 20
353.8993361256
 30
0.0
 11
239.9160887489
 21
342.8993343226
 31
0.0
  0
LINE
  5
198
330
1F
100
AcDbEntity
  8
0
  6
HIDDEN
 62
     7
370
    18
100
AcDbLine
 10
231.9410915861
 20
353.8993361256
 30
0.0
 11
231.9410915861
 21
342.8993343226
 31
0.0
  0
LINE
  5
199
330
1F
100
AcDbEntity
  8
0
  6
HIDDEN
 62
     7
370
    18
100
AcDbLine
 10
239.9410928974
 20
353.9243365488
 30
0.0
 11
239.9160887489
 21
353.8993361256
 31
0.0
  0
LINE
  5
19A
330
1F
100
AcDbEntity
  8
0
  6
HIDDEN
 62
     7
370
    18
100
AcDbLine
 10
239.9160887489
 20
342.8993343226
 30
0.0
 11
239.9410928974
 21
342.874335762
 31
0.0
  0
LINE
  5
19B
330
1F
100
AcDbEntity
  8
0
  6
HIDDEN
 62
     7
370
    18
100
AcDbLine
 10
239.9160887489
 20
353.8993361256
 30
0.0
 11
231.9410915861
 21
353.8993361256
 31
0.0
  0
LINE
  5
19C
330
1F
100
AcDbEntity
  8
0
  6
HIDDEN
 62
     7
370
    18
100
AcDbLine
 10
231.9410915861
 20
342.8993343226
 30
0.0
 11
239.9160887489
 21
342.8993343226
 31
0.0
  0
LINE
  5
19D
330
1F
100
AcDbEntity
  8
0
  6
HIDDEN
 62
     7
370
    18
100
AcDbLine
 10
231.9410915861
 20
351.6993361375
 30
0.0
 11
219.9410821685
 21
351.6993361375
 31
0.0
  0
LINE
  5
19E
330
1F
100
AcDbEntity
  8
0
  6
HIDDEN
 62
     7
370
    18
100
AcDbLine
 10
219.9410821685
 20
345.0993343107
 30
0.0
 11
231.9410915861
 21
345.0993343107
 31
0.0
  0
DIMENSION
  5
19F
330
1F
100
AcDbEntity
  8
0
  6
Continuous
 62
     7
370
    18
100
AcDbDimension
  2
_D_4
 10
238.941088129
 20
379.3993349633
 30
0.0
 11
249.3311462227
 21
389.789393057
 31
0.0
 70
   164
  1
<>
 71
     1
 42
-1.0
  3
SLDDIMSTYLE1
100
AcDbRadialDimension
 15
239.6481949102
 25
380.1064417445
 35
0.0
 40
0.0
  0
DIMENSION
  5
1A8
330
1F
100
AcDbEntity
  8
0
  6
Continuous
 62
     7
370
    18
100
AcDbDimension
  2
_D_5
 10
249.3311362227
 20
353.8993349633
 30
0.0
 11
249.3311362227
 21
361.7988460227
 31
0.0
 70
   160
  1
%%c<>
 71
     2
 42
-1.0
  3
SLDDIMSTYLE0
100
AcDbAlignedDimension
 13
239.916088129
 23
342.8993349633
 33
0.0
 14
239.916088129
 24
353.8993349633
 34
0.0
 50
90.0
100
AcDbRotatedDimension
  0
DIMENSION
  5
1B4
330
1F
100
AcDbEntity
  8
0
  6
Continuous
 62
     7
370
    18
100
AcDbDimension
  2
_D_6
 10
209.941088129
 20
345.0993349633
 30
0.0
 11
209.941088129
 21
361.7988460227
 31
0.0
 70
   160
  1
%%c<>
 71
     2
 42
-1.0
  3
SLDDIMSTYLE2
100
AcDbAlignedDimension
 13
219.941088129
 23
351.6993349633
 33
0.0
 14
219.941088129
 24
345.0993349633
 34
0.0
 50
90.0
100
AcDbRotatedDimension
  0
DIMENSION
  5
1C2
330
1F
100
AcDbEntity
  8
0
  6
Continuous
 62
     7
370
    18
100
AcDbDimension
  2
_D_7
 10
239.941088129
 20
302.3993349633
 30
0.0
 11
230.1705825743
 21
302.3993349633
 31
0.0
 70
   160
  1
<>
 71
     2
 42
-1.0
  3
SLDDIMSTYLE2
100
AcDbAlignedDimension
 13
219.941088129
 23
318.3993349633
 33
0.0
 14
239.941088129
 24
318.3993349633
 34
0.0
100
AcDbRotatedDimension
  0
DIMENSION
  5
1CC
330
1F
100
AcDbEntity
  8
0
  6
Continuous
 62
     7
370
    18
100
AcDbDimension
  2
_D_8
 10
231.941088129
 20
334.3777862637
 30
0.0
 11
245.9952537719
 21
334.3777862637
 31
0.0
 70
   160
  1
<>
 71
     2
 42
-1.0
  3
SLDDIMSTYLE0
100
AcDbAlignedDimension
 13
239.941088129
 23
318.3993349633
 33
0.0
 14
231.941088129
 24
342.8993349633
 34
0.0
100
AcDbRotatedDimension
  0
LINE
  5
1D6
330
1F
100
AcDbEntity
  8
0
  6
CENTERX2
 62
     7
370
    18
100
AcDbLine
 10
217.941088129
 20
348.3993349633
 30
0.0
 11
233.941088129
 21
348.3993349633
 31
0.0
  0
LINE
  5
1D7
330
1F
100
AcDbEntity
  8
0
  6
Continuous
 62
     7
370
    25
100
AcDbLine
 10
379.7801958225
 20
318.3993349633
 30
0.0
 11
454.7801932148
 21
318.3993349633
 31
0.0
  0
LINE
  5
1D8
330
1F
100
AcDbEntity
  8
0
  6
Continuous
 62
     7
370
    25
100
AcDbLine
 10
379.7801958225
 20
379.3993356488
 30
0.0
 11
379.7801958225
 21
318.3993349633
 31
0.0
  0
LINE
  5
1D9
330
1F
100
AcDbEntity
  8
0
  6
Continuous
 62
     7
370
    25
100
AcDbLine
 10
454.7801932148
 20
379.3993356488
 30
0.0
 11
379.7801958225
 21
379.3993356488
 31
0.0
  0
CIRCLE
  5
1DA
330
1F
100
AcDbEntity
  8
0
  6
Continuous
 62
     7
370
    25
100
AcDbCircle
 10
434.780195599
 20
348.3993349633
 30
0.0
 40
5.524999999999977
  0
CIRCLE
  5
1DB
330
1F
100
AcDbEntity
  8
0
  6
Continuous
 62
     7
370
    25
100
AcDbCircle
 10
399.780195599
 20
348.3993349633
 30
0.0
 40
5.524999999999977
  0
LINE
  5
1DC
330
1F
100
AcDbEntity
  8
0
  6
Continuous
 62
     7
370
    25
100
AcDbLine
 10
454.7801932148
 20
379.3993356488
 30
0.0
 11
454.7801932148
 21
318.3993349633
 31
0.0
  0
LINE
  5
1DD
330
1F
100
AcDbEntity
  8
0
  6
Continuous
 62
     7
370
    25
100
AcDbLine
 10
379.7801958225
 20
380.39933395
 30
0.0
 11
454.7801932148
 21
380.39933395
 31
0.0
  0
LINE
  5
1DE
330
1F
100
AcDbEntity
  8
0
  6
Continuous
 62
     7
370
    25
100
AcDbLine
 10
379.7801958225
 20
379.3993356488
 30
0.0
 11
379.7801958225
 21
380.39933395
 31
0.0
  0
LINE
  5
1DF
330
1F
100
AcDbEntity
  8
0
  6
Continuous
 62
     7
370
    25
100
AcDbLine
 10
454.7801932148
 20
380.39933395
 30
0.0
 11
454.7801932148
 21
379.3993356488
 31
0.0
  0
CIRCLE
  5
1E0
330
1F
100
AcDbEntity
  8
0
  6
Continuous
 62
     7
370
    25
100
AcDbCircle
 10
434.780195599
 20
348.3993349633
 30
0.0
 40
5.5
  0
CIRCLE
  5
1E1
330
1F
100
AcDbEntity
  8
0
  6
Continuous
 62
     7
370
    25
100
AcDbCircle
 10
399.780195599
 20
348.3993349633
 30
0.0
 40
5.5
  0
CIRCLE
  5
1E2
330
1F
100
AcDbEntity
  8
0
  6
Continuous
 62
     7
370
    25
100
AcDbCircle
 10
434.780195599
 20
348.3993349633
 30
0.0
 40
3.300000000000011
  0
CIRCLE
  5
1E3
330
1F
100
AcDbEntity
  8
0
  6
Continuous
 62
     7
370
    25
100
AcDbCircle
 10
399.780195599
 20
348.3993349633
 30
0.0
 40
3.300000000000011
  0
LINE
  5
1E4
330
1F
100
AcDbEntity
  8
0
  6
HIDDEN
 62
     7
370
    18
100
AcDbLine
 10
389.780195599
 20
380.39933395
 30
0.0
 11
389.780195599
 21
318.3993349633
 31
0.0
  0
LINE
  5
1E5
330
1F
100
AcDbEntity
  8
0
  6
HIDDEN
 62
     7
370
    18
100
AcDbLine
 10
444.780195301
 20
380.39933395
 30
0.0
 11
444.780195301
 21
318.3993349633
 31
0.0
  0
DIMENSION
  5
1E6
330
1F
100
AcDbEntity
  8
0
  6
Continuous
 62
     7
370
    18
100
AcDbDimension
  2
_D_9
 10
369.780195599
 20
318.3993349633
 30
0.0
 11
369.780195599
 21
332.9895550122
 31
0.0
 70
   160
  1
<>
 71
     2
 42
-1.0
  3
SLDDIMSTYLE0
100
AcDbAlignedDimension
 13
434.780195599
 23
348.3993349633
 33
0.0
 14
379.780195599
 24
318.3993349633
 34
0.0
 50
90.0
100
AcDbRotatedDimension
  0
DIMENSION
  5
1F0
330
1F
100
AcDbEntity
  8
0
  6
Continuous
 62
     7
370
    18
100
AcDbDimension
  2
_D_10
 10
357.780195599
 20
380.3993349633
 30
0.0
 11
357.780195599
 21
345.9078924205
 31
0.0
 70
   160
  1
<>
 71
     2
 42
-1.0
  3
SLDDIMSTYLE0
100
AcDbAlignedDimension
 13
379.780195599
 23
318.3993349633
 33
0.0
 14
379.780195599
 24
380.3993349633
 34
0.0
 50
90.0
100
AcDbRotatedDimension
  0
DIMENSION
  5
1FA
330
1F
100
AcDbEntity
  8
0
  6
Continuous
 62
     7
370
    18
100
AcDbDimension
  2
_D_11
 10
434.780195599
 20
308.3993349633
 30
0.0
 11
417.6293398533
 21
308.3993349633
 31
0.0
 70
   160
  1
<>
 71
     2
 42
-1.0
  3
SLDDIMSTYLE0
100
AcDbAlignedDimension
 13
399.780195599
 23
348.3993349633
 33
0.0
 14
434.780195599
 24
348.3993349633
 34
0.0
100
AcDbRotatedDimension
  0
DIMENSION
  5
204
330
1F
100
AcDbEntity
  8
0
  6
Continuous
 62
     7
370
    18
100
AcDbDimension
  2
_D_12
 10
454.780195599
 20
296.3993349633
 30
0.0
 11
417.6293398533
 21
296.3993349633
 31
0.0
 70
   160
  1
<>
 71
     2
 42
-1.0
  3
SLDDIMSTYLE0
100
AcDbAlignedDimension
 13
379.780195599
 23
318.3993349633
 33
0.0
 14
454.780195599
 24
318.3993349633
 34
0.0
100
AcDbRotatedDimension
  0
INSERT
  5
219
330
1F
100
AcDbEntity
  8
0
  6
Continuous
 62
     7
370
     0
100
AcDbBlockReference
  2
SW_CENTERMARKSYMBOL_2
 10
434.780195599
 20
348.3993349633
 30
0.0
  0
INSERT
  5
225
330
1F
100
AcDbEntity
  8
0
  6
Continuous
 62
     7
370
     0
100
AcDbBlockReference
  2
SW_CENTERMARKSYMBOL_3
 10
399.780195599
 20
348.3993349633
 30
0.0
  0
LINE
  5
226
330
1F
100
AcDbEntity
  8
0
  6
Continuous
 62
     7
370
    25
100
AcDbLine
 10
517.2606297364
 20
380.39933395
 30
0.0
 11
517.2606297364
 21
318.3993349633
 31
0.0
  0
LINE
  5
227
330
1F
100
AcDbEntity
  8
0
  6
Continuous
 62
     7
370
    25
100
AcDbLine
 10
527.2606351008
 20
380.39933395
 30
0.0
 11
527.2606351008
 21
318.3993349633
 31
0.0
  0
LINE
  5
228
330
1F
100
AcDbEntity
  8
0
  6
Continuous
 62
     7
370
    25
100
AcDbLine
 10
517.2606297364
 20
318.3993349633
 30
0.0
 11
527.2606351008
 21
318.3993349633
 31
0.0
  0
LINE
  5
229
330
1F
100
AcDbEntity
  8
0
  6
Continuous
 62
     7
370
    25
100
AcDbLine
 10
517.2606297364
 20
380.39933395
 30
0.0
 11
527.2606351008
 21
380.39933395
 31
0.0
  0
ARC
  5
22A
330
1F
100
AcDbEntity
  8
0
  6
Continuous
 62
     7
370
    25
100
AcDbCircle
 10
536.2606356968
 20
379.3993349633
 30
0.0
 40
1.0
100
AcDbArc
 50
0.0
 51
90.0
  0
LINE
  5
22B
330
1F
100
AcDbEntity
  8
0
  6
Continuous
 62
     7
370
    25
100
AcDbLine
 10
537.2606404652
 20
379.3993356488
 30
0.0
 11
537.2606404652
 21
318.3993349633
 31
0.0
  0
LINE
  5
22C
330
1F
100
AcDbEntity
  8
0
  6
Continuous
 62
     7
370
    25
100
AcDbLine
 10
527.2606351008
 20
318.3993349633
 30
0.0
 11
537.2606404652
 21
318.3993349633
 31
0.0
  0
LINE
  5
22D
330
1F
100
AcDbEntity
  8
0
  6
Continuous
 62
     7
370
    25
100
AcDbLine
 10
527.2606351008
 20
380.39933395
 30
0.0
 11
536.2606384386
 21
380.39933395
 31
0.0
  0
LINE
  5
22E
330
1F
100
AcDbEntity
  8
0
  6
HIDDEN
 62
     7
370
    18
100
AcDbLine
 10
537.2356363167
 20
353.8993361256
 30
0.0
 11
537.2356363167
 21
342.8993343226
 31
0.0
  0
LINE
  5
22F
330
1F
100
AcDbEntity
  8
0
  6
HIDDEN
 62
     7
370
    18
100
AcDbLine
 10
529.2606391539
 20
353.8993361256
 30
0.0
 11
529.2606391539
 21
342.8993343226
 31
0.0
  0
LINE
  5
230
330
1F
100
AcDbEntity
  8
0
  6
HIDDEN
 62
     7
370
    18
100
AcDbLine
 10
537.2606404652
 20
353.9243365488
 30
0.0
 11
537.2356363167
 21
353.8993361256
 31
0.0
  0
LINE
  5
231
330
1F
100
AcDbEntity
  8
0
  6
HIDDEN
 62
     7
370
    18
100
AcDbLine
 10
537.2356363167
 20
342.8993343226
 30
0.0
 11
537.2606404652
 21
342.874335762
 31
0.0
  0
LINE
  5
232
330
1F
100
AcDbEntity
  8
0
  6
HIDDEN
 62
     7
370
    18
100
AcDbLine
 10
537.2356363167
 20
353.8993361256
 30
0.0
 11
529.2606391539
 21
353.8993361256
 31
0.0
  0
LINE
  5
233
330
1F
100
AcDbEntity
  8
0
  6
HIDDEN
 62
     7
370
    18
100
AcDbLine
 10
529.2606391539
 20
342.8993343226
 30
0.0
 11
537.2356363167
 21
342.8993343226
 31
0.0
  0
LINE
  5
234
330
1F
100
AcDbEntity
  8
0
  6
HIDDEN
 62
     7
370
    18
100
AcDbLine
 10
529.2606391539
 20
351.6993361375
 30
0.0
 11
517.2606297364
 21
351.6993361375
 31
0.0
  0
LINE
  5
235
330
1F
100
AcDbEntity
  8
0
  6
HIDDEN
 62
     7
370
    18
100
AcDbLine
 10
517.2606297364
 20
345.0993343107
 30
0.0
 11
529.2606391539
 21
345.0993343107
 31
0.0
  0
DIMENSION
  5
236
330
1F
100
AcDbEntity
  8
0
  6
Continuous
 62
     7
370
    18
100
AcDbDimension
  2
_D_13
 10
507.2606356968
 20
345.0993349633
 30
0.0
 11
507.2606356968
 21
333.6878435208
 31
0.0
 70
   160
  1
%%c<>
 71
     2
 42
-1.0
  3
SLDDIMSTYLE2
100
AcDbAlignedDimension
 13
517.2606356968
 23
351.6993349633
 33
0.0
 14
517.2606356968
 24
345.0993349633
 34
0.0
 50
90.0
100
AcDbRotatedDimension
  0
DIMENSION
  5
243
330
1F
100
AcDbEntity
  8
0
  6
Continuous
 62
     7
370
    18
100
AcDbDimension
  2
_D_14
 10
547.2606356968
 20
353.8993349633
 30
0.0
 11
547.2606356968
 21
361.7048019681
 31
0.0
 70
   160
  1
%%c<>
 71
     2
 42
-1.0
  3
SLDDIMSTYLE0
100
AcDbAlignedDimension
 13
537.2356356968
 23
342.8993349633
 33
0.0
 14
537.2356356968
 24
353.8993349633
 34
0.0
 50
90.0
100
AcDbRotatedDimension
  0
DIMENSION
  5
24F
330
1F
100
AcDbEntity
  8
0
  6
Continuous
 62
     7
370
    18
100
AcDbDimension
  2
_D_15
 10
536.2606356968
 20
379.3993349633
 30
0.0
 11
545.9299351249
 21
384.9819118175
 31
0.0
 70
   164
  1
<>
 71
     1
 42
-1.0
  3
SLDDIMSTYLE1
100
AcDbRadialDimension
 15
537.1266611006
 25
379.8993349633
 35
0.0
 40
0.0
  0
DIMENSION
  5
257
330
1F
100
AcDbEntity
  8
0
  6
Continuous
 62
     7
370
    18
100
AcDbDimension
  2
_D_16
 10
537.2606356968
 20
335.3535042859
 30
0.0
 11
542.1061991517
 21
335.3535042859
 31
0.0
 70
   160
  1
<>
 71
     2
 42
-1.0
  3
SLDDIMSTYLE0
100
AcDbAlignedDimension
 13
529.2606356968
 23
342.8993349633
 33
0.0
 14
537.2606356968
 24
318.3993349633
 34
0.0
100
AcDbRotatedDimension
  0
DIMENSION
  5
261
330
1F
100
AcDbEntity
  8
0
  6
Continuous
 62
     7
370
    18
100
AcDbDimension
  2
_D_17
 10
537.2606356968
 20
302.3993349633
 30
0.0
 11
527.1458510424
 21
302.3993349633
 31
0.0
 70
   160
  1
<>
 71
     2
 42
-1.0
  3
SLDDIMSTYLE2
100
AcDbAlignedDimension
 13
517.2606356968
 23
318.3993349633
 33
0.0
 14
537.2606356968
 24
318.3993349633
 34
0.0
100
AcDbRotatedDimension
  0
LINE
  5
26B
330
1F
100
AcDbEntity
  8
0
  6
CENTERX2
 62
     7
370
    18
100
AcDbLine
 10
515.2606356968
 20
348.3993349633
 30
0.0
 11
531.2606356968
 21
348.3993349633
 31
0.0
  0
LINE
  5
26C
330
1F
100
AcDbEntity
  8
0
  6
Continuous
 62
     7
370
    25
100
AcDbLine
 10
89.3339459122
 20
173.3009280821
 30
0.0
 11
89.3339459122
 21
111.3009290954
 31
0.0
  0
LINE
  5
26D
330
1F
100
AcDbEntity
  8
0
  6
Continuous
 62
     7
370
    25
100
AcDbLine
 10
89.3339459122
 20
173.3009280821
 30
0.0
 11
169.3339459868
 21
173.3009280821
 31
0.0
  0
LINE
  5
26E
330
1F
100
AcDbEntity
  8
0
  6
Continuous
 62
     7
370
    25
100
AcDbLine
 10
169.3339459868
 20
173.3009280821
 30
0.0
 11
169.3339459868
 21
111.3009290954
 31
0.0
  0
LINE
  5
26F
330
1F
100
AcDbEntity
  8
0
  6
Continuous
 62
     7
370
    25
100
AcDbLine
 10
89.3339459122
 20
111.3009290954
 30
0.0
 11
169.3339459868
 21
111.3009290954
 31
0.0
  0
CIRCLE
  5
270
330
1F
100
AcDbEntity
  8
0
  6
Continuous
 62
     7
370
    25
100
AcDbCircle
 10
149.3339462103
 20
141.3009290954
 30
0.0
 40
3.300000000000011
  0
CIRCLE
  5
271
330
1F
100
AcDbEntity
  8
0
  6
Continuous
 62
     7
370
    25
100
AcDbCircle
 10
109.3339462103
 20
141.3009290954
 30
0.0
 40
3.300000000000011
  0
CIRCLE
  5
272
330
1F
100
AcDbEntity
  8
0
  6
HIDDEN
 62
     7
370
    18
100
AcDbCircle
 10
149.3339462103
 20
141.3009290954
 30
0.0
 40
5.499999999999972
  0
CIRCLE
  5
273
330
1F
100
AcDbEntity
  8
0
  6
HIDDEN
 62
     7
370
    18
100
AcDbCircle
 10
109.3339462103
 20
141.3009290954
 30
0.0
 40
5.499999999999972
  0
LINE
  5
274
330
1F
100
AcDbEntity
  8
0
  6
HIDDEN
 62
     7
370
    18
100
AcDbLine
 10
99.3339475514
 20
172.3009297808
 30
0.0
 11
159.3339462103
 21
172.3009297808
 31
0.0
  0
ARC
  5
275
330
1F
100
AcDbEntity
  8
0
  6
HIDDEN
 62
     7
370
    18
100
AcDbCircle
 10
160.3339462103
 20
172.3009290954
 30
0.0
 40
1.0
100
AcDbArc
 50
90.0
 51
180.0
  0
ARC
  5
276
330
1F
100
AcDbEntity
  8
0
  6
HIDDEN
 62
     7
370
    18
100
AcDbCircle
 10
98.3339462103
 20
172.3009290954
 30
0.0
 40
1.0
100
AcDbArc
 50
0.0
 51
90.0
  0
CIRCLE
  5
277
330
1F
100
AcDbEntity
  8
0
  6
HIDDEN
 62
     7
370
    18
100
AcDbCircle
 10
109.3339462103
 20
141.3009290954
 30
0.0
 40
5.525000000000006
  0
CIRCLE
  5
278
330
1F
100
AcDbEntity
  8
0
  6
HIDDEN
 62
     7
370
    18
100
AcDbCircle
 10
149.3339462103
 20
141.3009290954
 30
0.0
 40
5.525000000000006
  0
LINE
  5
279
330
1F
100
AcDbEntity
  8
0
  6
HIDDEN
 62
     7
370
    18
100
AcDbLine
 10
159.3339462103
 20
172.3009297808
 30
0.0
 11
159.3339462103
 21
111.3009290954
 31
0.0
  0
LINE
  5
27A
330
1F
100
AcDbEntity
  8
0
  6
HIDDEN
 62
     7
370
    18
100
AcDbLine
 10
99.3339475514
 20
172.3009297808
 30
0.0
 11
99.3339475514
 21
111.3009290954
 31
0.0
  0
DIMENSION
  5
27B
330
1F
100
AcDbEntity
  8
0
  6
Continuous
 62
     7
370
    18
100
AcDbDimension
  2
_D_18
 10
149.3339462103
 20
101.3009290954
 30
0.0
 11
130.9013682393
 21
101.3009290954
 31
0.0
 70
   160
  1
<>
 71
     2
 42
-1.0
  3
SLDDIMSTYLE0
100
AcDbAlignedDimension
 13
109.3339462103
 23
141.3009290954
 33
0.0
 14
149.3339462103
 24
141.3009290954
 34
0.0
100
AcDbRotatedDimension
  0
DIMENSION
  5
285
330
1F
100
AcDbEntity
  8
0
  6
Continuous
 62
     7
370
    18
100
AcDbDimension
  2
_D_19
 10
169.3339462103
 20
95.3009290954
 30
0.0
 11
130.9013682393
 21
95.3009290954
 31
0.0
 70
   160
  1
<>
 71
     2
 42
-1.0
  3
SLDDIMSTYLE0
100
AcDbAlignedDimension
 13
89.3339462103
 23
111.3009290954
 33
0.0
 14
169.3339462103
 24
111.3009290954
 34
0.0
100
AcDbRotatedDimension
  0
DIMENSION
  5
28F
330
1F
100
AcDbEntity
  8
0
  6
Continuous
 62
     7
370
    18
100
AcDbDimension
  2
_D_20
 10
79.3339462103
 20
111.3009290954
 30
0.0
 11
79.3339462103
 21
125.5025901501
 31
0.0
 70
   160
  1
<>
 71
     2
 42
-1.0
  3
SLDDIMSTYLE0
100
AcDbAlignedDimension
 13
149.3339462103
 23
141.3009290954
 33
0.0
 14
89.3339462103
 24
111.3009290954
 34
0.0
 50
90.0
100
AcDbRotatedDimension
  0
DIMENSION
  5
299
330
1F
100
AcDbEntity
  8
0
  6
Continuous
 62
     7
370
    18
100
AcDbDimension
  2
_D_21
 10
73.3339462103
 20
111.3009290954
 30
0.0
 11
73.3339462103
 21
142.1373324543
 31
0.0
 70
   160
  1
<>
 71
     2
 42
-1.0
  3
SLDDIMSTYLE0
100
AcDbAlignedDimension
 13
89.3339462103
 23
173.3009290954
 33
0.0
 14
89.3339462103
 24
111.3009290954
 34
0.0
 50
90.0
100
AcDbRotatedDimension
  0
INSERT
  5
2AE
330
1F
100
AcDbEntity
  8
0
  6
Continuous
 62
     7
370
     0
100
AcDbBlockReference
  2
SW_CENTERMARKSYMBOL_4
 10
149.3339462103
 20
141.3009290954
 30
0.0
  0
INSERT
  5
2BA
330
1F
100
AcDbEntity
  8
0
  6
Continuous
 62
     7
370
     0
100
AcDbBlockReference
  2
SW_CENTERMARKSYMBOL_5
 10
109.3339462103
 20
141.3009290954
 30
0.0
  0
LINE
  5
2BB
330
1F
100
AcDbEntity
  8
0
  6
Continuous
 62
     7
370
    25
100
AcDbLine
 10
242.3589248014
 20
173.3009280821
 30
0.0
 11
242.3589248014
 21
111.3009290954
 31
0.0
  0
LINE
  5
2BC
330
1F
100
AcDbEntity
  8
0
  6
Continuous
 62
     7
370
    25
100
AcDbLine
 10
232.358919437
 20
111.3009290954
 30
0.0
 11
242.3589248014
 21
111.3009290954
 31
0.0
  0
LINE
  5
2BD
330
1F
100
AcDbEntity
  8
0
  6
Continuous
 62
     7
370
    25
100
AcDbLine
 10
232.358919437
 20
172.3009297808
 30
0.0
 11
232.358919437
 21
111.3009290954
 31
0.0
  0
ARC
  5
2BE
330
1F
100
AcDbEntity
  8
0
  6
Continuous
 62
     7
370
    25
100
AcDbCircle
 10
233.3589242054
 20
172.3009290954
 30
0.0
 40
1.0
100
AcDbArc
 50
90.0
 51
180.0
  0
LINE
  5
2BF
330
1F
100
AcDbEntity
  8
0
  6
Continuous
 62
     7
370
    25
100
AcDbLine
 10
233.3589214636
 20
173.3009280821
 30
0.0
 11
242.3589248014
 21
173.3009280821
 31
0.0
  0
LINE
  5
2C0
330
1F
100
AcDbEntity
  8
0
  6
Continuous
 62
     7
370
    25
100
AcDbLine
 10
252.3589301658
 20
173.3009280821
 30
0.0
 11
252.3589301658
 21
111.3009290954
 31
0.0
  0
LINE
  5
2C1
330
1F
100
AcDbEntity
  8
0
  6
Continuous
 62
     7
370
    25
100
AcDbLine
 10
242.3589248014
 20
173.3009280821
 30
0.0
 11
252.3589301658
 21
173.3009280821
 31
0.0
  0
LINE
  5
2C2
330
1F
100
AcDbEntity
  8
0
  6
Continuous
 62
     7
370
    25
100
AcDbLine
 10
242.3589248014
 20
111.3009290954
 30
0.0
 11
252.3589301658
 21
111.3009290954
 31
0.0
  0
LINE
  5
2C3
330
1F
100
AcDbEntity
  8
0
  6
HIDDEN
 62
     7
370
    18
100
AcDbLine
 10
232.3839235855
 20
135.8009284546
 30
0.0
 11
232.3839235855
 21
146.8009302576
 31
0.0
  0
LINE
  5
2C4
330
1F
100
AcDbEntity
  8
0
  6
HIDDEN
 62
     7
370
    18
100
AcDbLine
 10
240.3589207483
 20
135.8009284546
 30
0.0
 11
240.3589207483
 21
146.8009302576
 31
0.0
  0
LINE
  5
2C5
330
1F
100
AcDbEntity
  8
0
  6
HIDDEN
 62
     7
370
    18
100
AcDbLine
 10
232.358919437
 20
135.7759298941
 30
0.0
 11
232.3839235855
 21
135.8009284546
 31
0.0
  0
LINE
  5
2C6
330
1F
100
AcDbEntity
  8
0
  6
HIDDEN
 62
     7
370
    18
100
AcDbLine
 10
232.3839235855
 20
146.8009302576
 30
0.0
 11
232.358919437
 21
146.8259306808
 31
0.0
  0
LINE
  5
2C7
330
1F
100
AcDbEntity
  8
0
  6
HIDDEN
 62
     7
370
    18
100
AcDbLine
 10
232.3839235855
 20
135.8009284546
 30
0.0
 11
240.3589207483
 21
135.8009284546
 31
0.0
  0
LINE
  5
2C8
330
1F
100
AcDbEntity
  8
0
  6
HIDDEN
 62
     7
370
    18
100
AcDbLine
 10
240.3589207483
 20
146.8009302576
 30
0.0
 11
232.3839235855
 21
146.8009302576
 31
0.0
  0
LINE
  5
2C9
330
1F
100
AcDbEntity
  8
0
  6
HIDDEN
 62
     7
370
    18
100
AcDbLine
 10
240.3589207483
 20
138.0009284427
 30
0.0
 11
252.3589301658
 21
138.0009284427
 31
0.0
  0
LINE
  5
2CA
330
1F
100
AcDbEntity
  8
0
  6
HIDDEN
 62
     7
370
    18
100
AcDbLine
 10
252.3589301658
 20
144.6009302696
 30
0.0
 11
240.3589207483
 21
144.6009302696
 31
0.0
  0
DIMENSION
  5
2CB
330
1F
100
AcDbEntity
  8
0
  6
Continuous
 62
     7
370
    18
100
AcDbDimension
  2
_D_22
 10
233.3589242054
 20
172.3009290954
 30
0.0
 11
224.289374718
 21
177.5372517068
 31
0.0
 70
   164
  1
<>
 71
     1
 42
-1.0
  3
SLDDIMSTYLE1
100
AcDbRadialDimension
 15
232.4928988016
 25
172.8009290954
 35
0.0
 40
0.0
  0
DIMENSION
  5
2D3
330
1F
100
AcDbEntity
  8
0
  6
Continuous
 62
     7
370
    18
100
AcDbDimension
  2
_D_23
 10
224.289364718
 20
135.8009290954
 30
0.0
 11
224.289364718
 21
140.2236010388
 31
0.0
 70
   160
  1
%%c<>
 71
     2
 42
-1.0
  3
SLDDIMSTYLE2
100
AcDbAlignedDimension
 13
232.3839242054
 23
146.8009290954
 33
0.0
 14
232.3839242054
 24
135.8009290954
 34
0.0
 50
90.0
100
AcDbRotatedDimension
  0
DIMENSION
  5
2E0
330
1F
100
AcDbEntity
  8
0
  6
Continuous
 62
     7
370
    18
100
AcDbDimension
  2
_D_24
 10
262.3589242054
 20
138.0009290954
 30
0.0
 11
262.3589242054
 21
154.208561383
 31
0.0
 70
   160
  1
%%c<>
 71
     2
 42
-1.0
  3
SLDDIMSTYLE2
100
AcDbAlignedDimension
 13
252.3589242054
 23
144.6009290954
 33
0.0
 14
252.3589242054
 24
138.0009290954
 34
0.0
 50
90.0
100
AcDbRotatedDimension
  0
DIMENSION
  5
2ED
330
1F
100
AcDbEntity
  8
0
  6
Continuous
 62
     7
370
    18
100
AcDbDimension
  2
_D_25
 10
252.3589242054
 20
99.4464008772
 30
0.0
 11
242.0450004487
 21
99.4464008772
 31
0.0
 70
   160
  1
<>
 71
     2
 42
-1.0
  3
SLDDIMSTYLE2
100
AcDbAlignedDimension
 13
232.3589242054
 23
111.3009290954
 33
0.0
 14
252.3589242054
 24
111.3009290954
 34
0.0
100
AcDbRotatedDimension
  0
LINE
  5
2F7
330
1F
100
AcDbEntity
  8
0
  6
CENTERX2
 62
     7
370
    18
100
AcDbLine
 10
238.3589242054
 20
141.3009290954
 30
0.0
 11
254.3589242054
 21
141.3009290954
 31
0.0
  0
LINE
  5
2F8
330
1F
100
AcDbEntity
  8
0
  6
Continuous
 62
     7
370
    25
100
AcDbLine
 10
160.3339462578
 20
65.4044623995
 30
0.0
 11
98.3339455248
 21
65.4044623995
 31
0.0
  0
LWPOLYLINE
  5
2F9
330
1F
100
AcDbEntity
  8
0
  6
Continuous
 62
     7
370
    25
100
AcDbPolyline
 90
        9
 70
   128
 43
0.0
 10
98.3339455248
 20
65.4044623995
 10
98.5290352525
 20
65.5995484019
 10
98.716629696
 20
65.7871391201
 10
98.8895166935
 20
65.9600372935
 10
99.0410540522
 20
66.1115672016
 10
99.1654154183
 20
66.235932293
 10
99.2578249694
 20
66.3283343935
 10
99.314732504
 20
66.3852419281
 10
99.3339475514
 20
66.4044644261
  0
LINE
  5
2FA
330
1F
100
AcDbEntity
  8
0
  6
Continuous
 62
     7
370
    25
100
AcDbLine
 10
99.3339475514
 20
66.4044644261
 30
0.0
 11
159.3339462103
 21
66.4044644261
 31
0.0
  0
LWPOLYLINE
  5
2FB
330
1F
100
AcDbEntity
  8
0
  6
Continuous
 62
     7
370
    25
100
AcDbPolyline
 90
        9
 70
   128
 43
0.0
 10
159.3339462103
 20
66.4044644261
 10
159.3531609302
 20
66.3852419281
 10
159.4100666749
 20
66.3283343935
 10
159.5024765971
 20
66.235932293
 10
159.6268394184
 20
66.1115672016
 10
159.7783759913
 20
65.9600372935
 10
159.9512627851
 20
65.7871391201
 10
160.1388558898
 20
65.5995484019
 10
160.3339462578
 20
65.4044623995
  0
LINE
  5
2FC
330
1F
100
AcDbEntity
  8
0
  6
Continuous
 62
     7
370
    25
100
AcDbLine
 10
169.3339459868
 20
46.4044536972
 30
0.0
 11
169.3339459868
 21
56.4044590617
 31
0.0
  0
LINE
  5
2FD
330
1F
100
AcDbEntity
  8
0
  6
Continuous
 62
     7
370
    25
100
AcDbLine
 10
89.3339459122
 20
46.4044536972
 30
0.0
 11
169.3339459868
 21
46.4044536972
 31
0.0
  0
LINE
  5
2FE
330
1F
100
AcDbEntity
  8
0
  6
Continuous
 62
     7
370
    25
100
AcDbLine
 10
89.3339459122
 20
56.4044590617
 30
0.0
 11
89.3339459122
 21
46.4044536972
 31
0.0
  0
LINE
  5
2FF
330
1F
100
AcDbEntity
  8
0
  6
Continuous
 62
     7
370
    25
100
AcDbLine
 10
98.3339455248
 20
65.4044623995
 30
0.0
 11
89.3339459122
 21
56.4044590617
 31
0.0
  0
LINE
  5
300
330
1F
100
AcDbEntity
  8
0
  6
Continuous
 62
     7
370
    25
100
AcDbLine
 10
169.3339459868
 20
56.4044590617
 30
0.0
 11
160.3339462578
 21
65.4044623995
 31
0.0
  0
LINE
  5
301
330
1F
100
AcDbEntity
  8
0
  6
HIDDEN
 62
     7
370
    18
100
AcDbLine
 10
149.3339464338
 20
66.3794602776
 30
0.0
 11
154.833946404
 21
66.3794602776
 31
0.0
  0
LINE
  5
302
330
1F
100
AcDbEntity
  8
0
  6
HIDDEN
 62
     7
370
    18
100
AcDbLine
 10
143.8339464636
 20
66.3794602776
 30
0.0
 11
149.3339464338
 21
66.3794602776
 31
0.0
  0
LINE
  5
303
330
1F
100
AcDbEntity
  8
0
  6
HIDDEN
 62
     7
370
    18
100
AcDbLine
 10
109.3339454652
 20
66.3794602776
 30
0.0
 11
114.8339454354
 21
66.3794602776
 31
0.0
  0
LINE
  5
304
330
1F
100
AcDbEntity
  8
0
  6
HIDDEN
 62
     7
370
    18
100
AcDbLine
 10
103.833945495
 20
66.3794602776
 30
0.0
 11
109.3339454652
 21
66.3794602776
 31
0.0
  0
LINE
  5
305
330
1F
100
AcDbEntity
  8
0
  6
HIDDEN
 62
     7
370
    18
100
AcDbLine
 10
109.3339454652
 20
58.4044631148
 30
0.0
 11
114.8339454354
 21
58.4044631148
 31
0.0
  0
LINE
  5
306
330
1F
100
AcDbEntity
  8
0
  6
HIDDEN
 62
     7
370
    18
100
AcDbLine
 10
103.833945495
 20
58.4044631148
 30
0.0
 11
109.3339454652
 21
58.4044631148
 31
0.0
  0
LINE
  5
307
330
1F
100
AcDbEntity
  8
0
  6
HIDDEN
 62
     7
370
    18
100
AcDbLine
 10
149.3339464338
 20
58.4044631148
 30
0.0
 11
154.833946404
 21
58.4044631148
 31
0.0
  0
LINE
  5
308
330
1F
100
AcDbEntity
  8
0
  6
HIDDEN
 62
     7
370
    18
100
AcDbLine
 10
143.8339464636
 20
58.4044631148
 30
0.0
 11
149.3339464338
 21
58.4044631148
 31
0.0
  0
LINE
  5
309
330
1F
100
AcDbEntity
  8
0
  6
HIDDEN
 62
     7
370
    18
100
AcDbLine
 10
143.8089460404
 20
66.4044644261
 30
0.0
 11
143.8339464636
 21
66.3794602776
 31
0.0
  0
LINE
  5
30A
330
1F
100
AcDbEntity
  8
0
  6
HIDDEN
 62
     7
370
    18
100
AcDbLine
 10
154.833946404
 20
66.3794602776
 30
0.0
 11
154.8589463615
 21
66.4044644261
 31
0.0
  0
LINE
  5
30B
330
1F
100
AcDbEntity
  8
0
  6
HIDDEN
 62
     7
370
    18
100
AcDbLine
 10
103.8089450718
 20
66.4044644261
 30
0.0
 11
103.833945495
 21
66.3794602776
 31
0.0
  0
LINE
  5
30C
330
1F
100
AcDbEntity
  8
0
  6
HIDDEN
 62
     7
370
    18
100
AcDbLine
 10
114.8339454354
 20
66.3794602776
 30
0.0
 11
114.8589458586
 21
66.4044644261
 31
0.0
  0
LINE
  5
30D
330
1F
100
AcDbEntity
  8
0
  6
HIDDEN
 62
     7
370
    18
100
AcDbLine
 10
103.833945495
 20
66.3794602776
 30
0.0
 11
103.833945495
 21
58.4044631148
 31
0.0
  0
LINE
  5
30E
330
1F
100
AcDbEntity
  8
0
  6
HIDDEN
 62
     7
370
    18
100
AcDbLine
 10
114.8339454354
 20
58.4044631148
 30
0.0
 11
114.8339454354
 21
66.3794602776
 31
0.0
  0
LINE
  5
30F
330
1F
100
AcDbEntity
  8
0
  6
HIDDEN
 62
     7
370
    18
100
AcDbLine
 10
143.8339464636
 20
66.3794602776
 30
0.0
 11
143.8339464636
 21
58.4044631148
 31
0.0
  0
LINE
  5
310
330
1F
100
AcDbEntity
  8
0
  6
HIDDEN
 62
     7
370
    18
100
AcDbLine
 10
154.833946404
 20
58.4044631148
 30
0.0
 11
154.833946404
 21
66.3794602776
 31
0.0
  0
LINE
  5
311
330
1F
100
AcDbEntity
  8
0
  6
HIDDEN
 62
     7
370
    18
100
AcDbLine
 10
146.0339464517
 20
58.4044631148
 30
0.0
 11
146.0339464517
 21
46.4044536972
 31
0.0
  0
LINE
  5
312
330
1F
100
AcDbEntity
  8
0
  6
HIDDEN
 62
     7
370
    18
100
AcDbLine
 10
152.6339464159
 20
46.4044536972
 30
0.0
 11
152.6339464159
 21
58.4044631148
 31
0.0
  0
LINE
  5
313
330
1F
100
AcDbEntity
  8
0
  6
HIDDEN
 62
     7
370
    18
100
AcDbLine
 10
106.0339454831
 20
58.4044631148
 30
0.0
 11
106.0339454831
 21
46.4044536972
 31
0.0
  0
LINE
  5
314
330
1F
100
AcDbEntity
  8
0
  6
HIDDEN
 62
     7
370
    18
100
AcDbLine
 10
112.6339454473
 20
46.4044536972
 30
0.0
 11
112.6339454473
 21
58.4044631148
 31
0.0
  0
DIMENSION
  5
315
330
1F
100
AcDbEntity
  8
0
  6
Continuous
 62
     7
370
    18
100
AcDbDimension
  2
_D_26
 10
89.3339462103
 20
76.4044596577
 30
0.0
 11
94.0584883957
 21
76.4044596577
 31
0.0
 70
   160
  1
<> 45
 71
     2
 42
-1.0
  3
SLDDIMSTYLE2
100
AcDbAlignedDimension
 13
99.3339462103
 23
66.4044596577
 33
0.0
 14
89.3339462103
 24
56.4044596577
 34
0.0
100
AcDbRotatedDimension
  0
DIMENSION
  5
322
330
1F
100
AcDbEntity
  8
0
  6
Continuous
 62
     7
370
    18
100
AcDbDimension
  2
_D_27
 10
169.3339462103
 20
76.4044596577
 30
0.0
 11
164.3684437934
 21
76.4044596577
 31
0.0
 70
   160
  1
<> 45
 71
     2
 42
-1.0
  3
SLDDIMSTYLE2
100
AcDbAlignedDimension
 13
159.3339462103
 23
66.4044596577
 33
0.0
 14
169.3339462103
 24
56.4044596577
 34
0.0
100
AcDbRotatedDimension
  0
LINE
  5
32F
330
1F
100
AcDbEntity
  8
0
  6
CENTERX2
 62
     7
370
    18
100
AcDbLine
 10
149.3339462103
 20
44.4044596577
 30
0.0
 11
149.3339462103
 21
60.4044596577
 31
0.0
  0
LINE
  5
330
330
1F
100
AcDbEntity
  8
0
  6
CENTERX2
 62
     7
370
    18
100
AcDbLine
 10
109.3339462103
 20
44.4044596577
 30
0.0
 11
109.3339462103
 21
60.4044596577
 31
0.0
  0
LINE
  5
331
330
1F
100
AcDbEntity
  8
0
  6
Continuous
 62
     7
370
    25
100
AcDbLine
 10
99.3339441241
 20
260.4728079165
 30
0.0
 11
89.3339462103
 21
250.472802552
 31
0.0
  0
LINE
  5
332
330
1F
100
AcDbEntity
  8
0
  6
Continuous
 62
     7
370
    25
100
AcDbLine
 10
169.3339444221
 20
241.4727992142
 30
0.0
 11
169.3339444221
 21
250.472802552
 31
0.0
  0
LINE
  5
333
330
1F
100
AcDbEntity
  8
0
  6
Continuous
 62
     7
370
    25
100
AcDbLine
 10
89.3339462103
 20
241.4727992142
 30
0.0
 11
169.3339444221
 21
241.4727992142
 31
0.0
  0
LINE
  5
334
330
1F
100
AcDbEntity
  8
0
  6
Continuous
 62
     7
370
    25
100
AcDbLine
 10
89.3339462103
 20
250.472802552
 30
0.0
 11
89.3339462103
 21
241.4727992142
 31
0.0
  0
LINE
  5
335
330
1F
100
AcDbEntity
  8
0
  6
Continuous
 62
     7
370
    25
100
AcDbLine
 10
169.3339444221
 20
250.472802552
 30
0.0
 11
159.3339465083
 21
260.4728079165
 31
0.0
  0
LINE
  5
336
330
1F
100
AcDbEntity
  8
0
  6
Continuous
 62
     7
370
    25
100
AcDbLine
 10
159.3339465083
 20
260.4728079165
 30
0.0
 11
99.3339441241
 21
260.4728079165
 31
0.0
  0
LINE
  5
337
330
1F
100
AcDbEntity
  8
0
  6
Continuous
 62
     7
370
    25
100
AcDbLine
 10
169.3339444221
 20
240.4727971876
 30
0.0
 11
89.3339462103
 21
240.4727971876
 31
0.0
  0
LINE
  5
338
330
1F
100
AcDbEntity
  8
0
  6
Continuous
 62
     7
370
    25
100
AcDbLine
 10
89.3339462103
 20
240.4727971876
 30
0.0
 11
89.3339462103
 21
241.4727992142
 31
0.0
  0
LINE
  5
339
330
1F
100
AcDbEntity
  8
0
  6
Continuous
 62
     7
370
    25
100
AcDbLine
 10
169.3339444221
 20
241.4727992142
 30
0.0
 11
169.3339444221
 21
240.4727971876
 31
0.0
  0
LINE
  5
33A
330
1F
100
AcDbEntity
  8
0
  6
HIDDEN
 62
     7
370
    18
100
AcDbLine
 10
154.8339448394
 20
240.4978013361
 30
0.0
 11
143.833944899
 21
240.4978013361
 31
0.0
  0
LINE
  5
33B
330
1F
100
AcDbEntity
  8
0
  6
HIDDEN
 62
     7
370
    18
100
AcDbLine
 10
114.8339457334
 20
240.4978013361
 30
0.0
 11
103.833945793
 21
240.4978013361
 31
0.0
  0
LINE
  5
33C
330
1F
100
AcDbEntity
  8
0
  6
HIDDEN
 62
     7
370
    18
100
AcDbLine
 10
154.8339448394
 20
248.4727984989
 30
0.0
 11
143.833944899
 21
248.4727984989
 31
0.0
  0
LINE
  5
33D
330
1F
100
AcDbEntity
  8
0
  6
HIDDEN
 62
     7
370
    18
100
AcDbLine
 10
114.8339457334
 20
248.4727984989
 30
0.0
 11
103.833945793
 21
248.4727984989
 31
0.0
  0
LINE
  5
33E
330
1F
100
AcDbEntity
  8
0
  6
HIDDEN
 62
     7
370
    18
100
AcDbLine
 10
154.8589452626
 20
240.4727971876
 30
0.0
 11
154.8339448394
 21
240.4978013361
 31
0.0
  0
LINE
  5
33F
330
1F
100
AcDbEntity
  8
0
  6
HIDDEN
 62
     7
370
    18
100
AcDbLine
 10
143.833944899
 20
240.4978013361
 30
0.0
 11
143.8089482011
 21
240.4727971876
 31
0.0
  0
LINE
  5
340
330
1F
100
AcDbEntity
  8
0
  6
HIDDEN
 62
     7
370
    18
100
AcDbLine
 10
114.8589498819
 20
240.4727971876
 30
0.0
 11
114.8339457334
 21
240.4978013361
 31
0.0
  0
LINE
  5
341
330
1F
100
AcDbEntity
  8
0
  6
HIDDEN
 62
     7
370
    18
100
AcDbLine
 10
103.833945793
 20
240.4978013361
 30
0.0
 11
103.8089490951
 21
240.4727971876
 31
0.0
  0
LINE
  5
342
330
1F
100
AcDbEntity
  8
0
  6
HIDDEN
 62
     7
370
    18
100
AcDbLine
 10
154.8339448394
 20
240.4978013361
 30
0.0
 11
154.8339448394
 21
248.4727984989
 31
0.0
  0
LINE
  5
343
330
1F
100
AcDbEntity
  8
0
  6
HIDDEN
 62
     7
370
    18
100
AcDbLine
 10
143.833944899
 20
248.4727984989
 30
0.0
 11
143.833944899
 21
240.4978013361
 31
0.0
  0
LINE
  5
344
330
1F
100
AcDbEntity
  8
0
  6
HIDDEN
 62
     7
370
    18
100
AcDbLine
 10
114.8339457334
 20
240.4978013361
 30
0.0
 11
114.8339457334
 21
248.4727984989
 31
0.0
  0
LINE
  5
345
330
1F
100
AcDbEntity
  8
0
  6
HIDDEN
 62
     7
370
    18
100
AcDbLine
 10
103.833945793
 20
248.4727984989
 30
0.0
 11
103.833945793
 21
240.4978013361
 31
0.0
  0
LINE
  5
346
330
1F
100
AcDbEntity
  8
0
  6
HIDDEN
 62
     7
370
    18
100
AcDbLine
 10
152.6339448513
 20
248.4727984989
 30
0.0
 11
152.6339448513
 21
260.4728079165
 31
0.0
  0
LINE
  5
347
330
1F
100
AcDbEntity
  8
0
  6
HIDDEN
 62
     7
370
    18
100
AcDbLine
 10
146.033944887
 20
260.4728079165
 30
0.0
 11
146.033944887
 21
248.4727984989
 31
0.0
  0
LINE
  5
348
330
1F
100
AcDbEntity
  8
0
  6
HIDDEN
 62
     7
370
    18
100
AcDbLine
 10
112.6339457454
 20
248.4727984989
 30
0.0
 11
112.6339457454
 21
260.4728079165
 31
0.0
  0
LINE
  5
349
330
1F
100
AcDbEntity
  8
0
  6
HIDDEN
 62
     7
370
    18
100
AcDbLine
 10
106.0339457811
 20
260.4728079165
 30
0.0
 11
106.0339457811
 21
248.4727984989
 31
0.0
  0
DIMENSION
  5
34A
330
1F
100
AcDbEntity
  8
0
  6
Continuous
 62
     7
370
    18
100
AcDbDimension
  2
_D_28
 10
99.3339462103
 20
270.472801956
 30
0.0
 11
94.7022981726
 21
270.472801956
 31
0.0
 70
   160
  1
<> 45
 71
     2
 42
-1.0
  3
SLDDIMSTYLE2
100
AcDbAlignedDimension
 13
89.3339462103
 23
250.472801956
 33
0.0
 14
99.3339462103
 24
260.472801956
 34
0.0
100
AcDbRotatedDimension
  0
DIMENSION
  5
357
330
1F
100
AcDbEntity
  8
0
  6
Continuous
 62
     7
370
    18
100
AcDbDimension
  2
_D_29
 10
169.3339462103
 20
270.472801956
 30
0.0
 11
163.0147095358
 21
270.472801956
 31
0.0
 70
   160
  1
<> 45
 71
     2
 42
-1.0
  3
SLDDIMSTYLE2
100
AcDbAlignedDimension
 13
159.3339462103
 23
260.472801956
 33
0.0
 14
169.3339462103
 24
250.472801956
 34
0.0
100
AcDbRotatedDimension
  0
LINE
  5
364
330
1F
100
AcDbEntity
  8
0
  6
CENTERX2
 62
     7
370
    18
100
AcDbLine
 10
109.3339462103
 20
246.472801956
 30
0.0
 11
109.3339462103
 21
262.472801956
 31
0.0
  0
LINE
  5
365
330
1F
100
AcDbEntity
  8
0
  6
CENTERX2
 62
     7
370
    18
100
AcDbLine
 10
149.3339462103
 20
246.472801956
 30
0.0
 11
149.3339462103
 21
262.472801956
 31
0.0
  0
LINE
  5
366
330
1F
100
AcDbEntity
  8
0
  6
Continuous
 62
     7
370
    25
100
AcDbLine
 10
389.780195599
 20
258.964504738
 30
0.0
 11
379.7801958225
 21
248.9644993736
 31
0.0
  0
LINE
  5
367
330
1F
100
AcDbEntity
  8
0
  6
Continuous
 62
     7
370
    25
100
AcDbLine
 10
454.7801932148
 20
239.9644960357
 30
0.0
 11
454.7801932148
 21
248.9644993736
 31
0.0
  0
LINE
  5
368
330
1F
100
AcDbEntity
  8
0
  6
Continuous
 62
     7
370
    25
100
AcDbLine
 10
379.7801958225
 20
239.9644960357
 30
0.0
 11
454.7801932148
 21
239.9644960357
 31
0.0
  0
LINE
  5
369
330
1F
100
AcDbEntity
  8
0
  6
Continuous
 62
     7
370
    25
100
AcDbLine
 10
379.7801958225
 20
248.9644993736
 30
0.0
 11
379.7801958225
 21
239.9644960357
 31
0.0
  0
LINE
  5
36A
330
1F
100
AcDbEntity
  8
0
  6
Continuous
 62
     7
370
    25
100
AcDbLine
 10
454.7801932148
 20
248.9644993736
 30
0.0
 11
444.780195301
 21
258.964504738
 31
0.0
  0
LINE
  5
36B
330
1F
100
AcDbEntity
  8
0
  6
Continuous
 62
     7
370
    25
100
AcDbLine
 10
444.780195301
 20
258.964504738
 30
0.0
 11
389.780195599
 21
258.964504738
 31
0.0
  0
LINE
  5
36C
330
1F
100
AcDbEntity
  8
0
  6
Continuous
 62
     7
370
    25
100
AcDbLine
 10
454.7801932148
 20
238.9644940091
 30
0.0
 11
379.7801958225
 21
238.9644940091
 31
0.0
  0
LINE
  5
36D
330
1F
100
AcDbEntity
  8
0
  6
Continuous
 62
     7
370
    25
100
AcDbLine
 10
379.7801958225
 20
238.9644940091
 30
0.0
 11
379.7801958225
 21
239.9644960357
 31
0.0
  0
LINE
  5
36E
330
1F
100
AcDbEntity
  8
0
  6
Continuous
 62
     7
370
    25
100
AcDbLine
 10
454.7801932148
 20
239.9644960357
 30
0.0
 11
454.7801932148
 21
238.9644940091
 31
0.0
  0
LINE
  5
36F
330
1F
100
AcDbEntity
  8
0
  6
HIDDEN
 62
     7
370
    18
100
AcDbLine
 10
440.2801973574
 20
238.9894981576
 30
0.0
 11
429.280197417
 21
238.9894981576
 31
0.0
  0
LINE
  5
370
330
1F
100
AcDbEntity
  8
0
  6
HIDDEN
 62
     7
370
    18
100
AcDbLine
 10
405.2801953457
 20
238.9894981576
 30
0.0
 11
394.2801954053
 21
238.9894981576
 31
0.0
  0
LINE
  5
371
330
1F
100
AcDbEntity
  8
0
  6
HIDDEN
 62
     7
370
    18
100
AcDbLine
 10
405.2801953457
 20
246.9644953204
 30
0.0
 11
394.2801954053
 21
246.9644953204
 31
0.0
  0
LINE
  5
372
330
1F
100
AcDbEntity
  8
0
  6
HIDDEN
 62
     7
370
    18
100
AcDbLine
 10
440.2801973574
 20
246.9644953204
 30
0.0
 11
429.280197417
 21
246.9644953204
 31
0.0
  0
LINE
  5
373
330
1F
100
AcDbEntity
  8
0
  6
HIDDEN
 62
     7
370
    18
100
AcDbLine
 10
440.3051940553
 20
238.9644940091
 30
0.0
 11
440.2801973574
 21
238.9894981576
 31
0.0
  0
LINE
  5
374
330
1F
100
AcDbEntity
  8
0
  6
HIDDEN
 62
     7
370
    18
100
AcDbLine
 10
429.280197417
 20
238.9894981576
 30
0.0
 11
429.2551969938
 21
238.9644940091
 31
0.0
  0
LINE
  5
375
330
1F
100
AcDbEntity
  8
0
  6
HIDDEN
 62
     7
370
    18
100
AcDbLine
 10
405.3051957689
 20
238.9644940091
 30
0.0
 11
405.2801953457
 21
238.9894981576
 31
0.0
  0
LINE
  5
376
330
1F
100
AcDbEntity
  8
0
  6
HIDDEN
 62
     7
370
    18
100
AcDbLine
 10
394.2801954053
 20
238.9894981576
 30
0.0
 11
394.2551954478
 21
238.9644940091
 31
0.0
  0
LINE
  5
377
330
1F
100
AcDbEntity
  8
0
  6
HIDDEN
 62
     7
370
    18
100
AcDbLine
 10
405.2801953457
 20
238.9894981576
 30
0.0
 11
405.2801953457
 21
246.9644953204
 31
0.0
  0
LINE
  5
378
330
1F
100
AcDbEntity
  8
0
  6
HIDDEN
 62
     7
370
    18
100
AcDbLine
 10
394.2801954053
 20
246.9644953204
 30
0.0
 11
394.2801954053
 21
238.9894981576
 31
0.0
  0
LINE
  5
379
330
1F
100
AcDbEntity
  8
0
  6
HIDDEN
 62
     7
370
    18
100
AcDbLine
 10
440.2801973574
 20
238.9894981576
 30
0.0
 11
440.2801973574
 21
246.9644953204
 31
0.0
  0
LINE
  5
37A
330
1F
100
AcDbEntity
  8
0
  6
HIDDEN
 62
     7
370
    18
100
AcDbLine
 10
429.280197417
 20
246.9644953204
 30
0.0
 11
429.280197417
 21
238.9894981576
 31
0.0
  0
LINE
  5
37B
330
1F
100
AcDbEntity
  8
0
  6
HIDDEN
 62
     7
370
    18
100
AcDbLine
 10
438.0801973693
 20
246.9644953204
 30
0.0
 11
438.0801973693
 21
258.964504738
 31
0.0
  0
LINE
  5
37C
330
1F
100
AcDbEntity
  8
0
  6
HIDDEN
 62
     7
370
    18
100
AcDbLine
 10
431.480197405
 20
258.964504738
 30
0.0
 11
431.480197405
 21
246.9644953204
 31
0.0
  0
LINE
  5
37D
330
1F
100
AcDbEntity
  8
0
  6
HIDDEN
 62
     7
370
    18
100
AcDbLine
 10
403.0801953576
 20
246.9644953204
 30
0.0
 11
403.0801953576
 21
258.964504738
 31
0.0
  0
LINE
  5
37E
330
1F
100
AcDbEntity
  8
0
  6
HIDDEN
 62
     7
370
    18
100
AcDbLine
 10
396.4801953934
 20
258.964504738
 30
0.0
 11
396.4801953934
 21
246.9644953204
 31
0.0
  0
DIMENSION
  5
37F
330
1F
100
AcDbEntity
  8
0
  6
Continuous
 62
     7
370
    18
100
AcDbDimension
  2
_D_30
 10
389.780195599
 20
268.9644987775
 30
0.0
 11
384.58128505
 21
268.9644987775
 31
0.0
 70
   160
  1
<> 45
 71
     2
 42
-1.0
  3
SLDDIMSTYLE2
100
AcDbAlignedDimension
 13
379.780195599
 23
248.9644987775
 33
0.0
 14
389.780195599
 24
258.9644987775
 34
0.0
100
AcDbRotatedDimension
  0
DIMENSION
  5
38C
330
1F
100
AcDbEntity
  8
0
  6
Continuous
 62
     7
370
    18
100
AcDbDimension
  2
_D_31
 10
454.780195599
 20
268.9644987775
 30
0.0
 11
449.1541013037
 21
268.9644987775
 31
0.0
 70
   160
  1
<> 45
 71
     2
 42
-1.0
  3
SLDDIMSTYLE2
100
AcDbAlignedDimension
 13
444.780195599
 23
258.9644987775
 33
0.0
 14
454.780195599
 24
248.9644987775
 34
0.0
100
AcDbRotatedDimension
  0
LINE
  5
399
330
1F
100
AcDbEntity
  8
0
  6
CENTERX2
 62
     7
370
    18
100
AcDbLine
 10
399.780195599
 20
244.9644987775
 30
0.0
 11
399.780195599
 21
260.9644987775
 31
0.0
  0
LINE
  5
39A
330
1F
100
AcDbEntity
  8
0
  6
CENTERX2
 62
     7
370
    18
100
AcDbLine
 10
434.780195599
 20
244.9644987775
 30
0.0
 11
434.780195599
 21
260.9644987775
 31
0.0
  0
ENDSEC
  0
SECTION
  2
OBJECTS
  0
DICTIONARY
  5
C
330
0
100
AcDbDictionary
281
     1
  3
ACAD_GROUP
350
D
  3
ACAD_LAYOUT
350
1A
  3
ACAD_MLINESTYLE
350
17
  3
ACAD_PLOTSETTINGS
350
19
  3
ACAD_PLOTSTYLENAME
350
E
  3
ACAD_SCALELIST
350
47
  0
DICTIONARY
  5
D
102
{ACAD_REACTORS
330
C
102
}
330
C
100
AcDbDictionary
281
     1
  0
DICTIONARY
  5
1A
102
{ACAD_REACTORS
330
C
102
}
330
C
100
AcDbDictionary
281
     1
  3
Layout1
350
1E
  3
Layout2
350
26
  3
Model
350
22
  0
DICTIONARY
  5
17
102
{ACAD_REACTORS
330
C
102
}
330
C
100
AcDbDictionary
281
     1
  3
Standard
350
18
  0
DICTIONARY
  5
19
102
{ACAD_REACTORS
330
C
102
}
330
C
100
AcDbDictionary
281
     1
  0
ACDBDICTIONARYWDFLT
  5
E
102
{ACAD_REACTORS
330
C
102
}
330
C
100
AcDbDictionary
281
     1
  3
Normal
350
F
100
AcDbDictionaryWithDefault
340
F
  0
DICTIONARY
  5
47
102
{ACAD_REACTORS
330
C
102
}
330
C
100
AcDbDictionary
281
     1
  3
A0
350
48
  3
A1
350
49
  3
A2
350
4A
  3
A3
350
4B
  3
A4
350
4C
  3
A5
350
4D
  3
A6
350
4E
  3
A7
350
4F
  3
A8
350
50
  3
A9
350
51
  3
B0
350
52
  3
B1
350
53
  3
B2
350
54
  3
B3
350
55
  3
B4
350
56
  3
B5
350
57
  3
B6
350
58
  3
B7
350
59
  3
B8
350
5A
  3
B9
350
5B
  3
C0
350
5C
  3
C1
350
5D
  3
C2
350
5E
  3
C3
350
5F
  3
C4
350
60
  3
C5
350
61
  3
C6
350
62
  3
C7
350
63
  3
C8
350
64
  3
C9
350
65
  3
D0
350
66
  3
D1
350
67
  3
D2
350
68
  0
LAYOUT
  5
1E
102
{ACAD_REACTORS
330
1A
102
}
330
1A
100
AcDbPlotSettings
  1

  2
none_device
  4

  6

 40
0.0
 41
0.0
 42
0.0
 43
0.0
 44
0.0
 45
0.0
 46
0.0
 47
0.0
 48
0.0
 49
0.0
140
0.0
141
0.0
142
1.0
143
1.0
 70
   688
 72
     1
 73
     0
 74
     5
  7

 75
    16
147
1.0
148
0.0
149
0.0
100
AcDbLayout
  1
Layout1
 70
     1
 71
     1
 10
0.0
 20
0.0
 11
420.0
 21
297.0
 12
0.0
 22
0.0
 32
0.0
 14
1.0000000000E+20
 24
1.0000000000E+20
 34
1.0000000000E+20
 15
-1.0000000000E+20
 25
-1.0000000000E+20
 35
-1.0000000000E+20
146
0.0
 13
0.0
 23
0.0
 33
0.0
 16
1.0
 26
0.0
 36
0.0
 17
0.0
 27
1.0
 37
0.0
 76
     0
330
1B
  0
LAYOUT
  5
26
102
{ACAD_REACTORS
330
1A
102
}
330
1A
100
AcDbPlotSettings
  1

  2
none_device
  4

  6

 40
0.0
 41
0.0
 42
0.0
 43
0.0
 44
0.0
 45
0.0
 46
0.0
 47
0.0
 48
0.0
 49
0.0
140
0.0
141
0.0
142
1.0
143
1.0
 70
   688
 72
     1
 73
     0
 74
     5
  7

 75
    16
147
1.0
148
0.0
149
0.0
100
AcDbLayout
  1
Layout2
 70
     1
 71
     2
 10
0.0
 20
0.0
 11
0.0
 21
0.0
 12
0.0
 22
0.0
 32
0.0
 14
0.0
 24
0.0
 34
0.0
 15
0.0
 25
0.0
 35
0.0
146
0.0
 13
0.0
 23
0.0
 33
0.0
 16
1.0
 26
0.0
 36
0.0
 17
0.0
 27
1.0
 37
0.0
 76
     0
330
23
  0
LAYOUT
  5
22
102
{ACAD_REACTORS
330
1A
102
}
330
1A
100
AcDbPlotSettings
  1

  2
none_device
  4
Letter_(8.50_x_11.00_Inches)
  6

 40
6.35
 41
6.35
 42
6.35000508
 43
6.35000508
 44
215.9
 45
279.4
 46
0.0
 47
0.0
 48
0.0
 49
0.0
140
0.0
141
0.0
142
1.0
143
1.0
 70
  1712
 72
     1
 73
     0
 74
     0
  7

 75
     0
147
1.0
148
0.0
149
0.0
100
AcDbLayout
  1
Model
 70
     1
 71
     0
 10
0.0
 20
0.0
 11
594.0
 21
420.0
 12
0.0
 22
0.0
 32
0.0
 14
0.0
 24
0.0
 34
0.0
 15
594.0
 25
420.0
 35
0.0
146
0.0
 13
0.0
 23
0.0
 33
0.0
 16
1.0
 26
0.0
 36
0.0
 17
0.0
 27
1.0
 37
0.0
 76
     0
330
1F
331
29
  0
MLINESTYLE
  5
18
102
{ACAD_REACTORS
330
17
102
}
330
17
100
AcDbMlineStyle
  2
Standard
 70
     0
  3

 62
   256
 51
90.0
 52
90.0
 71
     2
 49
0.5
 62
   256
  6
BYLAYER
 49
-0.5
 62
   256
  6
BYLAYER
  0
ACDBPLACEHOLDER
  5
F
102
{ACAD_REACTORS
330
E
102
}
330
E
  0
SCALE
  5
48
102
{ACAD_REACTORS
330
47
102
}
330
47
100
AcDbScale
 70
     0
300
1:1
140
1.0
141
1.0
290
     1
  0
SCALE
  5
49
102
{ACAD_REACTORS
330
47
102
}
330
47
100
AcDbScale
 70
     0
300
1:2
140
1.0
141
2.0
290
     0
  0
SCALE
  5
4A
102
{ACAD_REACTORS
330
47
102
}
330
47
100
AcDbScale
 70
     0
300
1:4
140
1.0
141
4.0
290
     0
  0
SCALE
  5
4B
102
{ACAD_REACTORS
330
47
102
}
330
47
100
AcDbScale
 70
     0
300
1:5
140
1.0
141
5.0
290
     0
  0
SCALE
  5
4C
102
{ACAD_REACTORS
330
47
102
}
330
47
100
AcDbScale
 70
     0
300
1:8
140
1.0
141
8.0
290
     0
  0
SCALE
  5
4D
102
{ACAD_REACTORS
330
47
102
}
330
47
100
AcDbScale
 70
     0
300
1:10
140
1.0
141
10.0
290
     0
  0
SCALE
  5
4E
102
{ACAD_REACTORS
330
47
102
}
330
47
100
AcDbScale
 70
     0
300
1:16
140
1.0
141
16.0
290
     0
  0
SCALE
  5
4F
102
{ACAD_REACTORS
330
47
102
}
330
47
100
AcDbScale
 70
     0
300
1:20
140
1.0
141
20.0
290
     0
  0
SCALE
  5
50
102
{ACAD_REACTORS
330
47
102
}
330
47
100
AcDbScale
 70
     0
300
1:30
140
1.0
141
30.0
290
     0
  0
SCALE
  5
51
102
{ACAD_REACTORS
330
47
102
}
330
47
100
AcDbScale
 70
     0
300
1:40
140
1.0
141
40.0
290
     0
  0
SCALE
  5
52
102
{ACAD_REACTORS
330
47
102
}
330
47
100
AcDbScale
 70
     0
300
1:50
140
1.0
141
50.0
290
     0
  0
SCALE
  5
53
102
{ACAD_REACTORS
330
47
102
}
330
47
100
AcDbScale
 70
     0
300
1:100
140
1.0
141
100.0
290
     0
  0
SCALE
  5
54
102
{ACAD_REACTORS
330
47
102
}
330
47
100
AcDbScale
 70
     0
300
2:1
140
2.0
141
1.0
290
     0
  0
SCALE
  5
55
102
{ACAD_REACTORS
330
47
102
}
330
47
100
AcDbScale
 70
     0
300
4:1
140
4.0
141
1.0
290
     0
  0
SCALE
  5
56
102
{ACAD_REACTORS
330
47
102
}
330
47
100
AcDbScale
 70
     0
300
8:1
140
8.0
141
1.0
290
     0
  0
SCALE
  5
57
102
{ACAD_REACTORS
330
47
102
}
330
47
100
AcDbScale
 70
     0
300
10:1
140
10.0
141
1.0
290
     0
  0
SCALE
  5
58
102
{ACAD_REACTORS
330
47
102
}
330
47
100
AcDbScale
 70
     0
300
100:1
140
100.0
141
1.0
290
     0
  0
SCALE
  5
59
102
{ACAD_REACTORS
330
47
102
}
330
47
100
AcDbScale
 70
     0
300
1/128" = 1'-0"
140
0.0078125
141
12.0
290
     0
  0
SCALE
  5
5A
102
{ACAD_REACTORS
330
47
102
}
330
47
100
AcDbScale
 70
     0
300
1/64" = 1'-0"
140
0.015625
141
12.0
290
     0
  0
SCALE
  5
5B
102
{ACAD_REACTORS
330
47
102
}
330
47
100
AcDbScale
 70
     0
300
1/32" = 1'-0"
140
0.03125
141
12.0
290
     0
  0
SCALE
  5
5C
102
{ACAD_REACTORS
330
47
102
}
330
47
100
AcDbScale
 70
     0
300
1/16" = 1'-0"
140
0.0625
141
12.0
290
     0
  0
SCALE
  5
5D
102
{ACAD_REACTORS
330
47
102
}
330
47
100
AcDbScale
 70
     0
300
3/32" = 1'-0"
140
0.09375
141
12.0
290
     0
  0
SCALE
  5
5E
102
{ACAD_REACTORS
330
47
102
}
330
47
100
AcDbScale
 70
     0
300
1/8" = 1'-0"
140
0.125
141
12.0
290
     0
  0
SCALE
  5
5F
102
{ACAD_REACTORS
330
47
102
}
330
47
100
AcDbScale
 70
     0
300
3/16" = 1'-0"
140
0.1875
141
12.0
290
     0
  0
SCALE
  5
60
102
{ACAD_REACTORS
330
47
102
}
330
47
100
AcDbScale
 70
     0
300
1/4" = 1'-0"
140
0.25
141
12.0
290
     0
  0
SCALE
  5
61
102
{ACAD_REACTORS
330
47
102
}
330
47
100
AcDbScale
 70
     0
300
3/8" = 1'-0"
140
0.375
141
12.0
290
     0
  0
SCALE
  5
62
102
{ACAD_REACTORS
330
47
102
}
330
47
100
AcDbScale
 70
     0
300
1/2" = 1'-0"
140
0.5
141
12.0
290
     0
  0
SCALE
  5
63
102
{ACAD_REACTORS
330
47
102
}
330
47
100
AcDbScale
 70
     0
300
3/4" = 1'-0"
140
0.75
141
12.0
290
     0
  0
SCALE
  5
64
102
{ACAD_REACTORS
330
47
102
}
330
47
100
AcDbScale
 70
     0
300
1" = 1'-0"
140
1.0
141
12.0
290
     0
  0
SCALE
  5
65
102
{ACAD_REACTORS
330
47
102
}
330
47
100
AcDbScale
 70
     0
300
1-1/2" = 1'-0"
140
1.5
141
12.0
290
     0
  0
SCALE
  5
66
102
{ACAD_REACTORS
330
47
102
}
330
47
100
AcDbScale
 70
     0
300
3" = 1'-0"
140
3.0
141
12.0
290
     0
  0
SCALE
  5
67
102
{ACAD_REACTORS
330
47
102
}
330
47
100
AcDbScale
 70
     0
300
6" = 1'-0"
140
6.0
141
12.0
290
     0
  0
SCALE
  5
68
102
{ACAD_REACTORS
330
47
102
}
330
47
100
AcDbScale
 70
     0
300
1'-0" = 1'-0"
140
12.0
141
12.0
290
     0
  0
ENDSEC
  0
EOF
